<svg width="120" height="55" viewBox="0 0 120 55" fill="none" xmlns="http://www.w3.org/2000/svg">
<path d="M111.401 8.16003C106.331 3.08003 99.5814 0.290039 92.4014 0.290039C85.2214 0.290039 78.4716 3.09 73.4316 8.13L65.6113 15.6C64.8513 16.36 64.4316 17.38 64.4316 18.46C64.4316 19.54 64.8513 20.55 65.6113 21.3C67.1413 22.83 69.8415 22.79 71.2915 21.34L79.1016 13.88C82.6516 10.33 87.3716 8.38 92.3916 8.38C97.4116 8.38 102.131 10.33 105.671 13.88C109.221 17.43 111.171 22.15 111.171 27.17C111.171 32.19 109.221 36.91 105.671 40.46C102.121 44.01 97.4016 45.97 92.3916 45.97C87.3716 45.97 82.6516 44.02 79.1016 40.46L62.9614 24.3101C62.9614 24.3101 62.9517 24.31 62.9517 24.3L46.8115 8.17004C41.7415 3.09004 34.9915 0.300049 27.8115 0.300049C20.6315 0.300049 13.8815 3.09004 8.81152 8.17004C3.73152 13.25 0.941406 19.99 0.941406 27.16C0.941406 34.34 3.73152 41.09 8.81152 46.17C13.8815 51.25 20.6315 54.04 27.8115 54.04C34.9915 54.04 41.7415 51.24 46.8115 46.17L60.1016 32.89L73.3813 46.17C78.4513 51.25 85.2013 54.05 92.3813 54.05C99.5613 54.05 106.311 51.2601 111.381 46.1801C116.461 41.1101 119.251 34.3601 119.251 27.1801C119.271 19.9801 116.471 13.23 111.401 8.16003ZM41.1113 40.4399C37.5613 43.9899 32.8513 45.95 27.8213 45.95C22.8013 45.95 18.0815 44 14.5415 40.45C10.9915 36.9 9.03125 32.18 9.03125 27.16C9.03125 22.14 10.9815 17.43 14.5415 13.88C18.0915 10.33 22.8113 8.37 27.8213 8.37C32.8313 8.37 37.5613 10.32 41.1113 13.88L54.3916 27.16L41.1113 40.4399Z" fill="url(#paint0_linear_439_108918)"/>
<defs>
<linearGradient id="paint0_linear_439_108918" x1="0.957006" y1="27.1541" x2="119.274" y2="27.1541" gradientUnits="userSpaceOnUse">
<stop stop-color="#51D2DA"/>
<stop offset="1" stop-color="#DC46AA"/>
</linearGradient>
</defs>
</svg>
