<svg width="64" height="65" viewBox="0 0 64 65" fill="none" xmlns="http://www.w3.org/2000/svg">
<path d="M46.041 48.0999H10.6211V64.0199H53.0908V46.6299H46.0107L46.041 48.0999Z" fill="#77B255"/>
<mask id="mask0_439_114354" style="mask-type:luminance" maskUnits="userSpaceOnUse" x="0" y="0" width="64" height="65">
<path d="M63.7119 0.330078H0.0117188V64.0301H63.7119V0.330078Z" fill="white"/>
</mask>
<g mask="url(#mask0_439_114354)">
<path d="M24.7832 48.1C24.7832 48.1 26.2835 51.75 31.0635 51.75C35.8335 51.75 37.1636 48.1 37.1636 48.1L37.1235 41.2L24.7734 41.02V48.1H24.7832Z" fill="#FFDC5D"/>
</g>
<mask id="mask1_439_114354" style="mask-type:luminance" maskUnits="userSpaceOnUse" x="0" y="0" width="64" height="65">
<path d="M63.7119 0.330078H0.0117188V64.0301H63.7119V0.330078Z" fill="white"/>
</mask>
<g mask="url(#mask1_439_114354)">
<path d="M24.8203 44.6101C26.6903 46.7501 28.4407 47.2801 30.9707 47.2801C33.4907 47.2801 35.2604 46.7401 37.1304 44.6101V38.3901H24.8203V44.6101Z" fill="#F9CA55"/>
</g>
<mask id="mask2_439_114354" style="mask-type:luminance" maskUnits="userSpaceOnUse" x="0" y="0" width="64" height="65">
<path d="M63.7119 0.330078H0.0117188V64.0301H63.7119V0.330078Z" fill="white"/>
</mask>
<g mask="url(#mask2_439_114354)">
<path d="M46.1938 28.97C46.1938 31.21 45.0638 33.04 43.6738 33.04C42.2738 33.04 41.144 31.21 41.144 28.97C41.144 26.72 42.2738 24.8999 43.6738 24.8999C45.0638 24.8899 46.1938 26.72 46.1938 28.97ZM20.9639 28.97C20.9639 31.21 19.8241 33.04 18.4341 33.04C17.0441 33.04 15.9141 31.21 15.9141 28.97C15.9141 26.72 17.0541 24.8999 18.4341 24.8999C19.8341 24.8899 20.9639 26.72 20.9639 28.97Z" fill="#FFDC5D"/>
</g>
<mask id="mask3_439_114354" style="mask-type:luminance" maskUnits="userSpaceOnUse" x="0" y="0" width="64" height="65">
<path d="M63.7119 0.330078H0.0117188V64.0301H63.7119V0.330078Z" fill="white"/>
</mask>
<g mask="url(#mask3_439_114354)">
<path d="M17.9336 30.5601C17.9336 21.8701 23.8032 14.8301 31.0532 14.8301C38.2932 14.8301 44.1733 21.8701 44.1733 30.5601C44.1733 39.2501 38.3032 46.3001 31.0532 46.3001C23.8032 46.3001 17.9336 39.2501 17.9336 30.5601Z" fill="#FFDC5D"/>
</g>
<mask id="mask4_439_114354" style="mask-type:luminance" maskUnits="userSpaceOnUse" x="0" y="0" width="64" height="65">
<path d="M63.7119 0.330078H0.0117188V64.0301H63.7119V0.330078Z" fill="white"/>
</mask>
<g mask="url(#mask4_439_114354)">
<path d="M31.0523 41.2003C26.8123 41.2003 25.5125 40.1002 25.2925 39.8802C24.9025 39.4802 24.9025 38.8402 25.2925 38.4402C25.6725 38.0602 26.2826 38.0402 26.6826 38.4002C26.7626 38.4602 27.7923 39.1502 31.0523 39.1502C34.4423 39.1502 35.4126 38.4002 35.4326 38.4002C35.8126 38.0202 36.4325 38.0202 36.8125 38.4002C36.8225 38.4102 36.8225 38.4103 36.8325 38.4203C37.2325 38.8403 37.2125 39.4802 36.8125 39.8802C36.6025 40.1002 35.2923 41.2003 31.0523 41.2003Z" fill="#C1694F"/>
</g>
<mask id="mask5_439_114354" style="mask-type:luminance" maskUnits="userSpaceOnUse" x="0" y="0" width="64" height="65">
<path d="M63.7119 0.330078H0.0117188V64.0301H63.7119V0.330078Z" fill="white"/>
</mask>
<g mask="url(#mask5_439_114354)">
<path d="M31.0537 9.6001C39.7537 9.6001 45.1841 16.0801 45.1841 21.4901C45.1841 26.8901 44.1037 29.0401 43.0137 26.8901L40.834 22.5701C40.834 22.5701 34.3038 22.5701 32.1338 20.4101C32.1338 20.4101 35.394 26.8901 28.874 20.4101C28.874 20.4101 29.9538 24.7301 23.4438 19.3301C23.4438 19.3301 20.1838 21.4901 19.0938 26.8901C18.7938 28.3801 16.9141 26.8901 16.9141 21.4901C16.9241 16.0801 21.2737 9.6001 31.0537 9.6001Z" fill="#FFAC33"/>
</g>
<mask id="mask6_439_114354" style="mask-type:luminance" maskUnits="userSpaceOnUse" x="0" y="0" width="64" height="65">
<path d="M63.7119 0.330078H0.0117188V64.0301H63.7119V0.330078Z" fill="white"/>
</mask>
<g mask="url(#mask6_439_114354)">
<path d="M37.2135 30.62C36.3535 30.61 35.6734 29.92 35.6734 29.07V27.51C35.6734 26.65 36.3635 25.96 37.2135 25.96C38.0535 25.96 38.7535 26.66 38.7535 27.52V29.07C38.7535 29.92 38.0635 30.61 37.2135 30.62ZM24.9034 30.62C24.0434 30.61 23.3534 29.92 23.3634 29.07V27.51C23.3634 26.65 24.0534 25.96 24.9034 25.96C25.7534 25.96 26.4435 26.66 26.4435 27.52V29.07C26.4335 29.92 25.7534 30.61 24.9034 30.62Z" fill="#662113"/>
</g>
<mask id="mask7_439_114354" style="mask-type:luminance" maskUnits="userSpaceOnUse" x="0" y="0" width="64" height="65">
<path d="M63.7119 0.330078H0.0117188V64.0301H63.7119V0.330078Z" fill="white"/>
</mask>
<g mask="url(#mask7_439_114354)">
<path d="M32.2101 34.9003H29.9C29.26 34.9003 28.7401 34.3803 28.7501 33.7303C28.7501 33.1003 29.27 32.5703 29.9 32.5703H32.2101C32.8501 32.5703 33.37 33.0903 33.36 33.7303C33.36 34.3703 32.8501 34.9003 32.2101 34.9003Z" fill="#C1694F"/>
</g>
<mask id="mask8_439_114354" style="mask-type:luminance" maskUnits="userSpaceOnUse" x="0" y="0" width="64" height="65">
<path d="M63.7119 0.330078H0.0117188V64.0301H63.7119V0.330078Z" fill="white"/>
</mask>
<g mask="url(#mask8_439_114354)">
<path d="M51.8025 29.23C51.8025 29.23 55.2928 22.92 50.1628 16.04C50.1628 16.04 58.9728 19.66 62.6828 28.95L51.8025 29.23ZM35.4827 10.9C35.4827 10.9 30.6126 5.58001 22.4626 8.26001C22.4626 8.26001 28.6928 1.06 38.6828 0.5L35.4827 10.9ZM10.4426 25.46C10.4426 25.46 3.66265 27.92 2.98265 36.46C2.98265 36.46 -1.25727 27.94 2.06273 18.5L10.4426 25.46Z" fill="#D1D3D4"/>
</g>
<mask id="mask9_439_114354" style="mask-type:luminance" maskUnits="userSpaceOnUse" x="0" y="0" width="64" height="65">
<path d="M63.7119 0.330078H0.0117188V64.0301H63.7119V0.330078Z" fill="white"/>
</mask>
<g mask="url(#mask9_439_114354)">
<path d="M14.3525 19.7603C14.3525 23.1803 11.5826 25.9503 8.1626 25.9503C4.7426 25.9503 1.97266 23.1803 1.97266 19.7603C1.97266 16.3403 4.7426 13.5703 8.1626 13.5703C11.5726 13.5703 14.3525 16.3403 14.3525 19.7603Z" fill="#5C913B"/>
</g>
<mask id="mask10_439_114354" style="mask-type:luminance" maskUnits="userSpaceOnUse" x="0" y="0" width="64" height="65">
<path d="M63.7119 0.330078H0.0117188V64.0301H63.7119V0.330078Z" fill="white"/>
</mask>
<g mask="url(#mask10_439_114354)">
<path d="M46.0425 6.52008C46.0425 9.94008 43.2725 12.7101 39.8525 12.7101C36.4325 12.7101 33.6523 9.94008 33.6523 6.52008C33.6523 3.10008 36.4225 0.330078 39.8525 0.330078C43.2725 0.330078 46.0425 3.10008 46.0425 6.52008Z" fill="#BE1931"/>
</g>
<mask id="mask11_439_114354" style="mask-type:luminance" maskUnits="userSpaceOnUse" x="0" y="0" width="64" height="65">
<path d="M63.7119 0.330078H0.0117188V64.0301H63.7119V0.330078Z" fill="white"/>
</mask>
<g mask="url(#mask11_439_114354)">
<path d="M63.5205 31.9102C63.5205 35.3302 60.7506 38.1102 57.3306 38.1102C53.9106 38.1102 51.1406 35.3302 51.1406 31.9102C51.1406 28.4902 53.9106 25.7202 57.3306 25.7202C60.7406 25.7302 63.5205 28.4902 63.5205 31.9102Z" fill="#3B88C3"/>
</g>
<mask id="mask12_439_114354" style="mask-type:luminance" maskUnits="userSpaceOnUse" x="0" y="0" width="64" height="65">
<path d="M63.7119 0.330078H0.0117188V64.0301H63.7119V0.330078Z" fill="white"/>
</mask>
<g mask="url(#mask12_439_114354)">
<path d="M57.7725 41.8802C57.5825 40.9302 56.6624 40.3202 55.7124 40.5102L52.0723 41.2602H48.8726C47.3726 41.2602 46.1523 42.5002 46.1523 44.0102V46.7602H52.9624C54.4324 46.7602 55.6224 45.5902 55.6724 44.1202L56.1626 44.0102H57.0425C57.0425 43.9102 57.0024 43.8102 56.9824 43.7202C57.6024 43.3302 57.9125 42.6002 57.7725 41.8802Z" fill="#F9CA55"/>
</g>
<mask id="mask13_439_114354" style="mask-type:luminance" maskUnits="userSpaceOnUse" x="0" y="0" width="64" height="65">
<path d="M63.7119 0.330078H0.0117188V64.0301H63.7119V0.330078Z" fill="white"/>
</mask>
<g mask="url(#mask13_439_114354)">
<path d="M63.8398 42.6503C63.8398 41.8903 63.23 41.2803 62.48 41.2803C62.47 41.2803 62.4702 41.2803 62.4702 41.2803L54.2998 42.6503H47.5C46.75 42.6603 46.1299 43.2703 46.1299 44.0203L46 46.7703H48.8501H54.29L62.46 44.0203C62.47 44.0203 63.8398 43.4103 63.8398 42.6503Z" fill="#FFDC5D"/>
</g>
<mask id="mask14_439_114354" style="mask-type:luminance" maskUnits="userSpaceOnUse" x="0" y="0" width="64" height="65">
<path d="M63.7119 0.330078H0.0117188V64.0301H63.7119V0.330078Z" fill="white"/>
</mask>
<g mask="url(#mask14_439_114354)">
<path d="M6.08347 48.5198C6.27347 47.5698 7.19353 46.9498 8.14353 47.1498C8.15353 47.1498 8.1533 47.1498 8.1533 47.1498L11.7934 47.9199H14.9936C16.4936 47.9199 17.7134 49.1399 17.7134 50.6699V53.4199H10.9033C9.4333 53.4199 8.24333 52.2498 8.19333 50.7798L7.71335 50.6798H6.82322C6.82322 50.5698 6.86328 50.4898 6.88328 50.3798C6.25328 49.9698 5.93347 49.2298 6.08347 48.5198Z" fill="#F9CA55"/>
</g>
<mask id="mask15_439_114354" style="mask-type:luminance" maskUnits="userSpaceOnUse" x="0" y="0" width="64" height="65">
<path d="M63.7119 0.330078H0.0117188V64.0301H63.7119V0.330078Z" fill="white"/>
</mask>
<g mask="url(#mask15_439_114354)">
<path d="M0.0117188 49.2801C0.0117188 48.5301 0.621836 47.9101 1.38184 47.9101L9.54199 49.2801H16.3521C17.1021 49.2901 17.7219 49.9101 17.7119 50.6601V53.4101H9.55176L1.39209 50.6601C1.37209 50.6601 0.0117188 50.0401 0.0117188 49.2801Z" fill="#FFDC5D"/>
</g>
<mask id="mask16_439_114354" style="mask-type:luminance" maskUnits="userSpaceOnUse" x="0" y="0" width="64" height="65">
<path d="M63.7119 0.330078H0.0117188V64.0301H63.7119V0.330078Z" fill="white"/>
</mask>
<g mask="url(#mask16_439_114354)">
<path d="M46.0127 48.1001H44.2432V64.0301H46.0127V48.1001ZM19.4731 53.4001H17.7031V64.0201H19.4731V53.4001Z" fill="#5C913B"/>
</g>
</svg>
