<svg width="64" height="65" viewBox="0 0 64 65" fill="none" xmlns="http://www.w3.org/2000/svg">
<mask id="mask0_439_114336" style="mask-type:luminance" maskUnits="userSpaceOnUse" x="0" y="0" width="64" height="65">
<path d="M63.7119 0.609863H0.0117188V64.2999H63.7119V0.609863Z" fill="white"/>
</mask>
<g mask="url(#mask0_439_114336)">
<path d="M44.2413 51.0301C42.1113 51.0201 40.2712 49.5001 39.8912 47.3901L32.8111 8.47011C32.3711 6.07011 33.9712 3.76009 36.3712 3.33009C36.3712 3.33009 36.3709 3.33009 36.3809 3.33009C38.7809 2.88009 41.0811 4.4701 41.5211 6.8701V6.88011L48.6011 45.8001C49.0411 48.2001 47.4411 50.5101 45.0411 50.9501C44.7711 51.0101 44.5013 51.0301 44.2413 51.0301Z" fill="#EF9645"/>
</g>
<mask id="mask1_439_114336" style="mask-type:luminance" maskUnits="userSpaceOnUse" x="0" y="0" width="64" height="65">
<path d="M63.7119 0.609863H0.0117188V64.2999H63.7119V0.609863Z" fill="white"/>
</mask>
<g mask="url(#mask1_439_114336)">
<path d="M50.2139 44.43C50.6339 43.11 50.4537 41.61 49.5537 40.41C49.4537 40.28 48.7739 39.38 47.7539 38.04C47.7639 37.95 47.7837 37.85 47.7837 37.77C47.7837 36.95 44.3941 33.12 41.1641 29.65C38.3541 26.18 35.4041 22.66 33.2241 20.48L30.9639 18.23L28.1138 19.66C17.9938 24.71 12.8139 26.47 12.7739 26.49C10.4439 27.25 9.18407 29.75 9.93407 32.07C10.6841 34.4 13.1837 35.66 15.5137 34.91C15.5237 34.9 15.5537 34.9 15.5737 34.9C15.7837 34.82 20.284 33.3 29.104 29.04C31.034 31.22 33.3138 33.99 35.4238 36.64L36.6738 38.72C36.9638 39.22 36.934 39.85 36.564 40.31L30.3437 48.08C30.1737 48.29 29.9438 48.45 29.6938 48.53L25.2139 50.02C24.9239 50.12 24.614 50.12 24.334 50.02L15.9639 47.23C14.7639 43.55 15.0239 39.97 15.0239 39.94C15.2339 37.5 13.4339 35.35 11.0039 35.15C8.5739 34.93 6.43386 36.73 6.21386 39.16C6.20386 39.16 6.20409 39.17 6.20409 39.17C6.16409 39.63 5.30396 50.53 12.064 57.91C15.974 62.17 21.4337 64.33 28.3037 64.33C29.4637 64.33 30.5738 64.34 31.6138 64.37C32.5238 64.38 33.434 64.39 34.334 64.39C39.224 64.39 43.1839 63.98 46.2539 60.96C49.1739 58.08 50.4141 53.54 50.4141 45.75C50.4341 45.27 50.3439 44.84 50.2139 44.43Z" fill="#FFDC5D"/>
</g>
<mask id="mask2_439_114336" style="mask-type:luminance" maskUnits="userSpaceOnUse" x="0" y="0" width="64" height="65">
<path d="M63.7119 0.609863H0.0117188V64.2999H63.7119V0.609863Z" fill="white"/>
</mask>
<g mask="url(#mask2_439_114336)">
<path d="M47.7912 37.7599C47.0912 37.7599 46.451 37.3399 46.171 36.6999L39.091 20.7699C38.691 19.8799 39.1014 18.8299 39.9914 18.4299C40.8814 18.0299 41.9312 18.4399 42.3312 19.3299L49.4113 35.2599C49.8113 36.1599 49.4009 37.1999 48.5109 37.5999C48.2709 37.7099 48.0312 37.7599 47.7912 37.7599Z" fill="#EF9645"/>
</g>
<mask id="mask3_439_114336" style="mask-type:luminance" maskUnits="userSpaceOnUse" x="0" y="0" width="64" height="65">
<path d="M63.7119 0.609863H0.0117188V64.2999H63.7119V0.609863Z" fill="white"/>
</mask>
<g mask="url(#mask3_439_114336)">
<path d="M43.8318 61.4299L41.1219 53.0099C41.1219 53.0099 41.0018 53.0199 40.8118 53.1199C40.8518 53.0999 44.0319 51.3599 45.1619 42.4999C46.5319 31.7599 43.7915 25.5099 43.7615 25.4499L43.5916 25.0499L37.4016 7.16989C36.6016 4.85989 37.8216 2.33989 40.1316 1.53989C42.4416 0.739886 44.9615 1.95987 45.7615 4.26987L51.9016 21.9899C52.5716 23.5599 55.5019 31.3399 53.9319 43.6199C52.0919 58.0699 45.1918 60.9899 43.8318 61.4299Z" fill="#FFDC5D"/>
</g>
</svg>
