<svg width="62" height="66" viewBox="0 0 62 66" fill="none" xmlns="http://www.w3.org/2000/svg">
<path d="M61.4497 58.0602C61.4497 62.0402 58.2295 65.2603 54.2495 65.2603H7.46973C3.48973 65.2603 0.269531 62.0402 0.269531 58.0602V7.68024C0.269531 3.71024 3.48973 0.490234 7.46973 0.490234H54.2495C58.2295 0.490234 61.4497 3.71024 61.4497 7.68024V58.0602Z" fill="#CCD6DD"/>
<path d="M56.0493 5.88025H5.66943C4.66943 5.88025 3.85938 6.68023 3.85938 7.67023V58.0502C3.85938 59.0402 4.65943 59.8602 5.66943 59.8602H56.0493C57.0393 59.8602 57.8394 59.0502 57.8394 58.0502V7.67023C57.8394 6.69023 57.0393 5.88025 56.0493 5.88025ZM29.0493 31.0703H20.0493V22.0703H29.0493V31.0703ZM32.6494 22.0703H41.6494V31.0703H32.6494V22.0703ZM16.4595 31.0703H7.45947V22.0703H16.4595V31.0703ZM16.4595 43.6702H7.45947V34.6702H16.4595V43.6702ZM20.0596 34.6702H29.0596V43.6702H20.0596V34.6702ZM32.6494 34.6702H41.6494V43.6702H32.6494V34.6702ZM45.2495 34.6702H54.2495V43.6702H45.2495V34.6702ZM45.2495 22.0703H54.2495V31.0703H45.2495V22.0703ZM45.2495 9.48022H54.2495V18.4802H45.2495V9.48022ZM41.6494 18.4802H32.6494V9.48022H41.6494V18.4802ZM29.0493 18.4802H20.0493V9.48022H29.0493V18.4802ZM16.4595 18.4802H7.45947V9.48022H16.4595V18.4802ZM7.46973 47.2603H16.4697V56.2603H7.46973V47.2603ZM20.0596 47.2603H29.0596V56.2603H20.0596V47.2603ZM32.6494 47.2603H41.6494V56.2603H32.6494V47.2603ZM45.2495 47.2603H54.2495V56.2603H45.2495V47.2603Z" fill="#E1E8ED"/>
<path d="M7.47119 59.8602C5.48119 59.8502 3.87109 58.2402 3.87109 56.2502C3.87109 55.6602 4.02078 55.0702 4.30078 54.5502L16.9009 31.1602C17.8409 29.4102 20.021 28.7602 21.771 29.7002C22.081 29.8702 22.3708 30.0702 22.6108 30.3202L33.541 41.2602L51.061 7.8002C51.981 6.0402 54.1612 5.37019 55.9312 6.29019C57.6812 7.21019 58.3609 9.39023 57.4409 11.1402L37.6509 48.9202C37.1209 49.9402 36.141 50.6402 35.001 50.8102C33.861 50.9802 32.7311 50.6002 31.9111 49.7902L20.9409 38.8202L10.6411 57.9502C10.0011 59.1302 8.79119 59.8602 7.47119 59.8602Z" fill="#DD2E44"/>
</svg>
