<svg width="43" height="43" viewBox="0 0 43 43" fill="none" xmlns="http://www.w3.org/2000/svg">
<path fill-rule="evenodd" clip-rule="evenodd" d="M35.36 18.16L42.46 17.3199L42.75 20.42L35.68 20.88L35.36 18.16ZM31.3 10.7L35.22 6.97998L37.37 9.39001L32.94 12.64L31.3 10.7ZM23.62 7.09998L25.11 0.0600586L28.05 0.810059L26.08 7.80005L23.62 7.09998ZM21.71 33.85C3.64997 33.93 4.88996 9.63006 20.5 9.56006C36.42 9.49006 36.93 33.79 21.71 33.85ZM20.55 12.6899C8.44996 12.7399 7.72996 31.01 21.47 30.96C33.04 30.91 32.87 12.6399 20.55 12.6899ZM12.29 2.81995L15.48 1.88L17.19 6.77002L14.78 7.57996L12.29 2.81995ZM2.09996 9.88L3.66996 7.02002L9.56996 11.27L8.38996 13.58L2.09996 9.88ZM5.74996 22.89L0.289963 23.3101L0.209961 19.91L5.53996 20.33L5.74996 22.89ZM9.97997 31.9399L4.59996 37.03L2.56996 34.23L8.35996 29.96L9.97997 31.9399ZM19.07 37.23L18.78 42.71L15.12 42.3199L16.67 36.83L19.07 37.23ZM32.53 40.71L29.4 42.21L26.19 35.8101L28.92 34.61L32.53 40.71ZM39.74 30.36L38.3 33.17L33.11 29.84L34.37 27.61L39.74 30.36Z" fill="#FF0064"/>
</svg>
