<svg width="41" height="41" viewBox="0 0 41 41" fill="none" xmlns="http://www.w3.org/2000/svg">
<path fill-rule="evenodd" clip-rule="evenodd" d="M28.5103 29.6402C26.3303 26.5002 21.9903 20.3201 21.9903 20.3201L31.3003 13.8002C38.2403 8.95019 44.9403 18.0601 37.7503 23.0801C41.9103 29.0201 32.5503 35.4102 28.5103 29.6402ZM20.7303 18.4302L14.2103 9.12014C10.1903 3.32014 19.4203 -3.2598 23.5703 2.6802C30.7603 -2.3398 36.9903 7.09009 30.0503 11.9401L20.7303 18.4302ZM9.56031 26.2001C2.62031 31.0401 -4.07969 21.9402 3.11031 16.9202C-1.03969 10.9702 8.33031 4.58013 12.3603 10.3601L18.8803 19.6802L9.56031 26.2001ZM20.9003 21.9501C19.2603 27.7301 19.9703 33.1002 21.9603 39.2902L17.0803 40.4302C16.1503 34.9402 16.0303 27.0402 19.4503 21.6702L20.9003 21.9501Z" fill="#4FAC25"/>
</svg>
