<svg width="26" height="26" viewBox="0 0 26 26" fill="none" xmlns="http://www.w3.org/2000/svg">
<path fill-rule="evenodd" clip-rule="evenodd" d="M12.3652 0.877777C12.2336 0.944176 11.6006 1.41246 10.9586 1.91839L9.79126 2.83828L6.67753 2.8518L3.56375 2.86528L3.38579 2.97617C3.2813 3.04126 3.16646 3.17265 3.10764 3.29435C3.01055 3.49529 3.00746 3.57414 3.00746 5.83382V8.16592L2.145 8.84435C1.23262 9.56198 1.09587 9.70385 0.888101 10.148L0.758072 10.426L0.744721 17.502C0.732579 23.9342 0.738529 24.597 0.809929 24.786C0.921043 25.0801 1.10278 25.2768 1.38495 25.4085L1.6288 25.5222L13.0394 25.5227C21.8904 25.5231 24.4947 25.5099 24.6491 25.464C24.9155 25.3847 25.2843 25.015 25.3534 24.758C25.3902 24.6211 25.402 22.4553 25.3931 17.4945L25.3804 10.426L25.2481 10.1431C25.0406 9.69939 24.8772 9.53038 23.9752 8.82685L23.131 8.16839V5.83504C23.131 3.57409 23.1279 3.49529 23.0308 3.29435C22.972 3.17265 22.8571 3.04126 22.7526 2.97617L22.5747 2.86528L19.4304 2.84104L16.2861 2.81681L15.1251 1.90128C14.4866 1.39772 13.8553 0.934483 13.7223 0.871816C13.5245 0.778712 13.4006 0.757872 13.0424 0.757484C12.6713 0.757048 12.5679 0.775465 12.3652 0.877777ZM13.5014 1.56537C13.5697 1.60981 13.9616 1.90957 14.3724 2.23148L15.1193 2.81681L14.0975 2.8299C13.5356 2.83707 12.6061 2.83707 12.032 2.8299L10.9883 2.81681L11.4834 2.42908C11.7557 2.21583 12.115 1.93521 12.2818 1.80552C12.4486 1.67577 12.6668 1.53929 12.7667 1.50217C12.9836 1.42157 13.3257 1.45099 13.5014 1.56537ZM22.3936 7.62305L22.4059 11.6539L19.5788 13.8667C17.2238 15.7102 16.7464 16.1036 16.7202 16.2234C16.6595 16.5005 16.945 16.733 17.2019 16.6157C17.2628 16.5879 18.9605 15.2743 20.9746 13.6965C22.9887 12.1188 24.6462 10.8375 24.6579 10.8492C24.6697 10.861 24.6738 13.9056 24.667 17.615L24.6547 24.3594L19.6722 20.1835C16.9319 17.8867 14.561 15.9238 14.4036 15.8215C13.9625 15.5347 13.5388 15.4274 12.9501 15.4535C12.4014 15.4778 12.0652 15.5838 11.6671 15.8582C11.4669 15.9962 1.91856 23.9112 1.56833 24.2295L1.45949 24.3284V17.561V10.7937L5.19052 13.7238C8.07341 15.9878 8.95188 16.6539 9.05506 16.6539C9.35594 16.6539 9.51896 16.2923 9.31826 16.0701C9.26916 16.0157 7.99238 15.0004 6.48104 13.8138L3.73306 11.6564V7.64452C3.73306 5.438 3.74762 3.61805 3.76543 3.60022C3.78323 3.58238 7.97908 3.57332 13.0895 3.58001L22.3812 3.59227L22.3936 7.62305ZM2.99701 10.5632L2.98327 11.0692L2.38517 10.5971C2.05623 10.3374 1.78805 10.109 1.78921 10.0895C1.79037 10.07 2.05952 9.83999 2.3873 9.57846L2.98327 9.10296L2.99701 9.58011C3.0046 9.84251 3.0046 10.2849 2.99701 10.5632ZM23.9654 9.74528C24.1982 9.92834 24.3887 10.0837 24.3887 10.0905C24.3887 10.0973 24.1982 10.2507 23.9654 10.4314C23.7326 10.6121 23.4496 10.8346 23.3366 10.9259L23.131 11.092V10.0867V9.08149L23.3366 9.24695C23.4496 9.33797 23.7326 9.56223 23.9654 9.74528ZM13.7706 16.2938C13.8771 16.3444 14.0526 16.4516 14.1608 16.532C14.2689 16.6123 16.5305 18.4992 19.1865 20.725L24.0156 24.772L18.5182 24.7843C15.4947 24.7911 10.5517 24.7911 7.53394 24.7843L2.04704 24.772L6.90808 20.725C9.58165 18.4992 11.8645 16.606 11.9811 16.5179C12.3329 16.2521 12.6382 16.1645 13.1418 16.1844C13.4397 16.1963 13.6382 16.2308 13.7706 16.2938Z" fill="#0E1825"/>
</svg>
