<svg width="26" height="26" viewBox="0 0 26 26" fill="none" xmlns="http://www.w3.org/2000/svg">
<path fill-rule="evenodd" clip-rule="evenodd" d="M12.4849 0.860275C12.2722 0.972599 0.583474 11.7124 0.428626 11.9378C0.190015 12.285 0.350714 12.8552 0.747971 13.0708C0.934794 13.1722 1.01378 13.1801 1.83478 13.1809L2.72014 13.1817V19.028C2.72014 23.0098 2.73774 24.9525 2.77526 25.1194C2.84378 25.4241 2.98446 25.599 3.255 25.7162C3.45162 25.8014 3.66154 25.8069 6.71231 25.808C9.35802 25.8088 9.99091 25.7966 10.1254 25.7416C10.3252 25.6602 10.5467 25.4427 10.6209 25.2552C10.6576 25.1626 10.6755 23.9868 10.6755 21.6702V18.2229H12.8825H15.0895V21.6702C15.0895 23.9868 15.1074 25.1626 15.1441 25.2552C15.2184 25.4427 15.4398 25.6602 15.6396 25.7416C15.7741 25.7966 16.407 25.8088 19.0527 25.808C22.1035 25.8069 22.3134 25.8014 22.51 25.7162C22.7806 25.599 22.9212 25.4241 22.9898 25.1194C23.0273 24.9525 23.0449 23.0098 23.0449 19.028V13.1817L23.9302 13.1809C24.7512 13.1801 24.8302 13.1722 25.0171 13.0708C25.4143 12.8552 25.575 12.285 25.3364 11.9378C25.1815 11.7124 13.4928 0.972599 13.2801 0.860275C13.1655 0.799683 12.9865 0.750153 12.8825 0.750153C12.7785 0.750153 12.5996 0.799683 12.4849 0.860275ZM18.7351 6.97817L24.546 12.3252L23.6543 12.3497C22.8839 12.3708 22.7389 12.3875 22.5883 12.472C22.3641 12.598 22.2287 12.7735 22.1702 13.0142C22.1436 13.1237 22.1229 15.7352 22.1223 19.0916L22.121 24.977H19.0415H15.962V21.5297C15.962 19.2067 15.9442 18.0375 15.9073 17.9446C15.8294 17.7487 15.6606 17.5879 15.4231 17.4833C15.233 17.3997 15.0446 17.393 12.8825 17.393C10.7204 17.393 10.532 17.3997 10.3419 17.4833C10.1044 17.5879 9.93558 17.7487 9.85777 17.9446C9.82087 18.0375 9.803 19.2067 9.803 21.5297V24.977H6.7235H3.64399L3.64276 19.0916C3.64209 15.7352 3.62146 13.1237 3.59487 13.0142C3.53631 12.7735 3.40091 12.598 3.17668 12.472C3.02619 12.3875 2.88109 12.3708 2.11317 12.3497L1.22396 12.3252L7.03227 6.97817C10.2268 4.03727 12.8594 1.63113 12.8824 1.63113C12.9054 1.63113 15.5391 4.03727 18.7351 6.97817Z" fill="#0E1825"/>
</svg>
