<svg width="35" height="35" viewBox="0 0 35 35" fill="none" xmlns="http://www.w3.org/2000/svg">
<path fill-rule="evenodd" clip-rule="evenodd" d="M18.0069 35C-6.48792 35 -5.38191 0 17.6105 0C40.5236 0 40.3888 35 18.0069 35ZM29.7093 16.7329L23.319 13.7954L22.7719 6.06524L27.5646 5.91064C25.1425 3.73429 21.8205 2.34285 17.5867 2.34285C17.218 2.34285 16.8573 2.34285 16.5045 2.37853L18.4351 4.69759L12.1994 9.22471L5.26596 8.32484C4.17088 9.86607 3.36494 11.5934 2.88743 13.4228L5.44435 19.3691L3.06582 22.481C3.97606 25.5169 5.88933 28.1541 8.49282 29.9615L11.8703 29.4105L14.4669 32.344C15.6084 32.5423 16.7651 32.6405 17.9237 32.6373C19.5228 32.6488 21.1145 32.4189 22.645 31.9555L23.0415 26.0686L29.5943 21.3116L31.2989 23.7416C32.5423 20.5033 32.7813 16.9655 31.9847 13.5893L29.7093 16.7329ZM7.26392 19.6189L12.4174 12.5586L20.9087 15.3336V24.2927L12.7028 26.8694L7.26392 19.6189Z" fill="#0E1825"/>
</svg>
