<svg width="54" height="35" viewBox="0 0 54 35" fill="none" xmlns="http://www.w3.org/2000/svg">
<path fill-rule="evenodd" clip-rule="evenodd" d="M5.4457 26.8078C5.4457 26.7653 5.11953 6.65586 5.17626 4.21664C5.24244 1.01635 6.16896 0 8.958 0C11.1892 0 41.1973 0.0520015 44.062 0.113455C47.3237 0.179635 47.7917 1.71596 47.7917 4.6799C47.7917 6.84022 47.2056 26.4864 47.2056 26.4864L5.4457 26.8078ZM10.7685 13.9357L10.8016 20.705L14.3801 20.6483L14.1815 18.1051L14.2241 11.8179L10.5274 12.0496L10.7685 13.9357ZM12.4325 6.37223C9.81834 6.37223 9.69543 10.3478 12.4797 10.3478C15.023 10.3667 15.0371 6.39114 12.4325 6.39114V6.37223ZM21.7072 6.97258C19.1403 6.97258 17.552 8.61764 17.552 11.9408V12.9714L15.9164 13.099L15.8549 15.2688L17.5473 15.2404C17.5473 18.0342 17.5189 20.7901 17.5189 20.7901L21.2156 20.7381L20.9981 18.5116C20.9981 18.5116 20.9981 16.9564 21.0265 15.2026L23.7871 15.1553L23.7257 12.5317L21.0359 12.7397V12.683C21.0359 10.362 21.3479 9.9507 22.6999 9.9507C23.028 9.94544 23.3525 10.0201 23.6453 10.1682L24.5293 7.96056C23.7429 7.29604 22.736 6.9503 21.7072 6.99149V6.97258ZM36.2149 6.57077L35.6713 4.15991C32.7026 3.54538 30.6794 5.63479 31.1143 8.17801C31.587 10.9576 30.4525 12.2765 28.2023 12.7066V14.5313C30.5659 15.0371 31.5964 16.3418 31.1048 19.1592C30.6605 21.6835 33.232 24.2788 35.5389 23.3475L36.2149 21.0785C32.3008 20.7712 36.04 15.472 32.4615 13.619C36.2385 11.5863 32.0739 7.46421 36.2149 6.58968V6.57077ZM26.7889 30.8684C31.7335 30.8684 31.8564 30.7597 31.8564 28.7885C41.8922 28.8641 51.668 28.9256 53.8945 28.9256C53.8945 31.1379 53.1949 34.4469 49.4321 34.4469C45.3714 34.4469 9.48271 35 5.04862 35C0.614533 35 0 32.0408 0 28.538C0.987979 28.538 10.9292 28.6089 21.6694 28.6939C21.6646 30.8164 21.8443 30.8684 26.7889 30.8684Z" fill="#0E1825"/>
</svg>
