<svg width="49" height="35" viewBox="0 0 49 35" fill="none" xmlns="http://www.w3.org/2000/svg">
<path fill-rule="evenodd" clip-rule="evenodd" d="M0.521293 35C0.521293 35 0.0655207 16.7121 0.00336991 13.2161C-0.0950356 9.07275 1.9663 8.10941 5.58659 7.55523C7.31127 7.29109 10.9419 6.75245 14.5467 6.21899L15.8208 1.69234C19.5135 -0.664216 29.2298 -0.379357 33.0883 1.43855L34.6939 6.47277C38.713 7.115 42.7321 7.74168 44.3998 7.98511C46.5492 8.29068 48.2946 9.84445 48.2479 13.242C48.2013 16.8053 47.9268 34.6167 47.9268 34.6167L0.521293 35ZM7.2543 15.4432C4.62325 15.4432 4.49895 19.4416 7.29573 19.4416C9.85428 19.4416 9.86981 15.4225 7.2543 15.4225V15.4432ZM24.6255 10.2018C11.1025 10.2018 10.4499 30.7841 24.8533 30.7841C37.9827 30.7841 38.0915 10.2018 24.6255 10.2018ZM3.39059 3.34969L9.78177 3.28236L10.3618 5.73732L2.87267 6.05843L3.39059 3.34969Z" fill="#0E1825"/>
</svg>
