<svg width="29" height="35" viewBox="0 0 29 35" fill="none" xmlns="http://www.w3.org/2000/svg">
<path fill-rule="evenodd" clip-rule="evenodd" d="M28.1366 30.7878C28.1723 33.5156 26.6678 34.7568 23.422 34.8818C16.0287 35.1765 7.54147 34.8372 4.77789 34.7568C1.45624 34.6586 -0.0393935 32.8415 0.000787792 29.9618C0.0409691 27.0822 0.536538 0.321451 0.536538 0.321451C0.536538 0.321451 12.082 0.0937563 18.9976 0C20.7343 0 22.6943 0.839342 22.8059 3.57167C22.98 7.77731 22.9889 23.3721 23.0514 26.9661C23.0872 28.935 21.9308 30.4128 19.4307 30.4708C14.216 30.5958 6.71552 30.3636 2.74204 30.2163C3.02778 31.5557 3.89837 32.087 5.78689 32.087C8.36742 32.087 25.4311 32.0334 25.4311 32.0334L25.6097 7.27728L24.6096 5.26375L24.6989 3.08056C24.8637 3.13151 25.0324 3.16884 25.2034 3.19218C26.7571 3.37076 28.1455 4.1476 28.2616 6.89779C28.4491 11.1213 28.083 26.7027 28.1366 30.7878ZM13.8098 14.3179C13.8114 14.6327 13.8761 14.9439 14.0001 15.2331C14.1242 15.5224 14.305 15.7838 14.5318 16.002C14.7587 16.2201 15.0271 16.3905 15.321 16.5031C15.6149 16.6157 15.9284 16.6681 16.243 16.6574C16.6841 16.6799 17.1234 16.5846 17.5157 16.3814C17.9079 16.1782 18.2391 15.8744 18.4752 15.501L18.9217 16.577L20.5647 15.8805C20.1281 14.5258 19.9037 13.1116 19.8994 11.6883C19.8682 9.00953 18.5601 8.23716 16.6269 8.24609C15.599 8.23545 14.6075 8.62628 13.8633 9.33545C13.8633 9.33545 14.6491 10.532 14.7562 10.6748C15.2688 10.3582 15.8482 10.1656 16.4483 10.1123C16.7874 10.0792 17.1269 10.17 17.4043 10.3677C17.6817 10.5655 17.8781 10.8569 17.9574 11.1883C15.5018 11.2775 13.716 12.2731 13.8098 14.3179ZM5.03238 16.635L5.92529 14.5054L10.0104 14.2465L10.7872 16.4788L12.9838 16.3225L9.41214 5.82629L7.52808 5.46912L2.684 16.6306L5.03238 16.635ZM9.37195 12.4294L6.75571 12.5276L8.19777 9.08097L9.37195 12.4294ZM16.7832 15.0144C16.1179 15.0144 15.8367 14.5679 15.8277 13.9965C15.8277 12.7553 17.4975 12.7017 18.1359 12.6884C18.1449 13.2062 18.0868 14.9787 16.7832 15.0144Z" fill="#0E1825"/>
</svg>
