<svg width="42" height="35" viewBox="0 0 42 35" fill="none" xmlns="http://www.w3.org/2000/svg">
<path fill-rule="evenodd" clip-rule="evenodd" d="M25.731 34.7405C23.0906 33.2606 20.9305 31.054 19.5071 28.3828C18.8754 28.8773 18.2072 29.3232 17.5081 29.7167L15.7078 29.8789C5.95632 27.1299 1.80839 17.7838 0 3.18292C6.86052 4.54124 19.8679 3.05317 25.8405 0C26.256 3.19876 26.4699 6.42047 26.4811 9.64608C32.0117 10.3638 38.037 10.5422 41.7308 9.84071C40.1089 23.0427 36.3745 32.5469 27.4056 35L25.731 34.7405ZM23.5942 4.05468C19.6449 6.00093 8.59187 6.98216 3.32078 6.52398C4.64666 17.3175 8.29588 24.3281 16.3241 27.2515C17.0151 26.7503 17.6758 26.2088 18.3028 25.6296C17.7871 24.0958 17.4231 22.515 17.2162 20.91C15.451 20.9489 13.7167 21.3811 12.1397 22.175L10.7287 19.9652C12.5507 18.6405 14.7061 17.8499 16.9526 17.6825C16.853 14.3739 17.0348 11.0628 17.4959 7.78498C19.6265 8.44436 21.8031 8.94447 24.0078 9.28116C23.9591 7.65929 23.8212 5.91983 23.5942 4.05468ZM24.5146 14.7266L23.4685 14.6658L19.7422 18.2704L20.8857 19.4868L23.5374 18.5583L26.1851 19.8558L27.2758 18.9597L24.5146 14.7266ZM36.0948 21.5425L37.3112 20.172L34.5499 15.9592L33.5079 15.8984L29.7857 19.503L30.9453 20.7762L33.5768 19.7706L36.0948 21.5425ZM32.9929 24.7863L22.7873 23.9226L25.1633 29.0558L29.1329 30.0046L32.9929 24.7863ZM9.75151 14.4752L7.65929 14.8807L6.79159 12.5127L13.9724 10.0637C16.2268 16.2552 10.976 16.5917 9.75151 14.4752Z" fill="#0E1825"/>
</svg>
