<svg width="58" height="35" viewBox="0 0 58 35" fill="none" xmlns="http://www.w3.org/2000/svg">
<path fill-rule="evenodd" clip-rule="evenodd" d="M56.2692 11.3852C55.8548 11.5199 53.6793 12.1881 50.732 13.0998L51.1153 20.2997C53.3633 21.3616 53.353 24.9615 51.1463 25.9975L52.7003 34.5908L47.1165 35L48.4373 26.0648C46.008 25.148 45.9355 21.7345 47.9608 20.481L47.8934 13.9751L47.6034 14.0632L29.7537 8.06497L26.7183 9.67589L43.3352 15.3737C35.9229 17.6476 28.1014 20.0355 28.1014 20.0355C28.1014 20.0355 2.50271 12.7061 1.05755 12.2658C-0.387621 11.8255 0.0682024 9.89863 0.0682024 9.89863L27.0032 0L57.2015 9.10611C57.2015 9.10611 57.6108 10.9449 56.2692 11.3852ZM28.1894 22.3975L42.4132 18.6525V30.0481C36.9381 35.2952 20.1866 34.5494 13.6031 30.3175L13.7844 18.725L28.1894 22.3975Z" fill="#0E1825"/>
</svg>
