<svg width="29" height="26" viewBox="0 0 29 26" fill="none" xmlns="http://www.w3.org/2000/svg">
<path fill-rule="evenodd" clip-rule="evenodd" d="M16.6218 3.88268V7.76531H14.9644C13.1328 7.76531 12.4327 7.81581 11.3983 8.02243C8.09117 8.68311 5.20299 10.4368 3.11024 13.0548C1.7774 14.7221 0.787756 16.7847 0.345255 18.8175C0.0658501 20.1011 0.0477899 20.3494 0.0232837 23.2439L0 26L0.403214 25.5546C1.72605 24.0933 3.06089 22.8513 4.15283 22.0657C7.60516 19.582 11.7144 18.2365 15.8574 18.2334L16.6211 18.2329L16.6353 22.0979L16.6496 25.9629L22.557 19.4724L28.4644 12.9818L28.2463 12.7538C28.1263 12.6284 25.5463 9.79479 22.513 6.45686C19.4797 3.11894 16.9132 0.300664 16.8098 0.193984L16.6218 0V3.88268Z" fill="white"/>
</svg>
