<svg width="30" height="30" viewBox="0 0 30 30" fill="none" xmlns="http://www.w3.org/2000/svg">
<path d="M30.0002 2.56793C30.0002 11.7169 30.0002 20.8585 30.0002 30.0074C21.1301 30.0074 12.2599 30.0074 3.38979 30.0074C3.1917 29.9561 2.99361 29.912 2.80285 29.8607C1.16675 29.3838 0.11026 27.9458 0.11026 26.1776C0.11026 20.0001 0.11026 13.8152 0.11026 7.63763C0.11026 6.30968 0.0955866 4.98906 0.117597 3.66111C0.146944 1.71687 1.78304 0.088106 3.71994 0.058759C4.95986 0.0367487 6.19243 0.0514222 7.43234 0.0514222C7.47636 0.0514222 7.52038 0.0660957 7.57174 0.0660957C7.57174 8.38598 7.57174 16.6839 7.57174 24.9964C7.46169 25.0037 7.38099 25.0111 7.29295 25.0111C6.15575 25.0111 5.01121 25.0037 3.87402 25.0111C3.2724 25.0111 2.79551 25.3706 2.64878 25.9062C2.42134 26.7279 3.01562 27.4909 3.9107 27.4909C5.87695 27.4982 7.85054 27.4909 9.81679 27.4909C9.89749 27.4909 9.98554 27.4762 10.0956 27.4689C10.0956 24.138 10.0956 20.8438 10.0956 17.5349C11.7684 17.5349 13.4118 17.5349 15.0846 17.5349C15.0846 20.8585 15.0846 24.1527 15.0846 27.4689C16.7574 27.4689 18.3935 27.4689 20.0442 27.4689C20.0442 26.6398 20.0442 25.8255 20.0442 24.9891C19.2152 24.9891 18.4155 24.9891 17.5938 24.9891C17.5938 22.4872 17.5938 20.0074 17.5938 17.5056C18.4228 17.5056 19.2298 17.5056 20.0516 17.5056C20.0516 16.6618 20.0516 15.8548 20.0516 15.0037C16.728 15.0037 13.4191 15.0037 10.1103 15.0037C10.1103 12.4946 10.1103 10.0147 10.1103 7.54226C11.7757 7.54226 13.4191 7.54226 15.0993 7.54226C15.0993 8.37131 15.0993 9.18569 15.0993 10.0001C15.9356 10.0001 16.7427 10.0001 17.5791 10.0001C17.5791 9.16368 17.5791 8.3493 17.5791 7.53492C20.0883 7.53492 22.5607 7.53492 25.0406 7.53492C25.0406 10.0294 25.0406 12.5092 25.0406 15.0111C24.2115 15.0111 23.4118 15.0111 22.5901 15.0111C22.5901 15.8475 22.5901 16.6618 22.5901 17.5129C23.4191 17.5129 24.2335 17.5129 25.0406 17.5129C25.0406 20.0221 25.0406 22.4946 25.0406 24.9964C24.2115 24.9964 23.4118 24.9964 22.5974 24.9964C22.5974 25.8401 22.5974 26.6472 22.5974 27.4542C24.2629 27.4542 25.899 27.4542 27.5351 27.4542C27.5351 19.9634 27.5351 12.5019 27.5351 5.00374C21.717 5.00374 15.9136 5.00374 10.1103 5.00374C10.1103 4.16001 10.1103 3.3603 10.1103 2.53125C10.2497 2.53125 10.3597 2.53125 10.4771 2.53125C16.8821 2.53125 23.2871 2.53125 29.6921 2.53125C29.7874 2.55326 29.8975 2.56059 30.0002 2.56793Z" fill="#014EBA"/>
</svg>
