<svg width="53" height="48" viewBox="0 0 53 48" fill="none" xmlns="http://www.w3.org/2000/svg">
<path d="M48.5013 28.0413C48.5013 29.6719 47.188 30.9906 45.564 30.9973H7.34933C5.72533 30.9973 4.40533 29.6719 4.40533 28.0413V2.94928C4.40533 1.31995 5.72533 -4.82343e-05 7.34933 -4.82343e-05H45.564C47.1813 -4.82343e-05 48.5013 1.31995 48.5013 2.94928V28.0413ZM52.9067 41.1399C52.9133 42.7706 51.6 44.0893 49.976 44.0959H2.93733C1.31333 44.0959 0 42.7706 0 41.1399L2.93733 33.9466C3.42667 32.4653 4.256 30.9973 5.88 30.9973H47.032C48.656 30.9973 49.3613 32.5306 49.976 33.9466L52.9067 41.1399Z" fill="#CCD6DD"/>
<path d="M53 41.2649H0L1.38801 47.2356L51.5 47.5L53 41.2649Z" fill="#9AAAB4"/>
<path d="M45.5643 26.5669C45.5643 27.3843 44.907 28.0403 44.095 28.0403H8.81767C8.007 28.0403 7.34967 27.3843 7.34967 26.5669V4.42428C7.34967 3.61095 8.007 2.94828 8.81767 2.94828H44.095C44.907 2.94828 45.5643 3.61095 45.5643 4.42428V26.5669Z" fill="#5DADEC"/>
<path d="M48.3644 36.8054L47.2484 33.6107C46.8951 32.9374 46.3164 32.376 45.5044 32.376H7.51112C6.69778 32.376 6.17912 32.9787 5.80845 33.8974L4.80045 36.8054C4.47778 37.6827 5.45645 38.28 6.26845 38.28H17.4031C17.4031 38.28 18.7884 38.2147 19.0271 37.3854C19.3084 36.436 19.6364 34.9974 19.7071 34.752C19.8151 34.364 20.2751 33.964 20.9671 33.964H33.5764C34.3098 33.964 34.6698 34.34 34.7644 34.8C34.8244 35.104 35.2244 36.4774 35.4098 37.42C35.5698 38.256 37.2004 38.28 37.2004 38.28H46.8898C47.7071 38.28 48.6871 37.588 48.3644 36.8054Z" fill="#AEBBC1"/>
<path d="M32.8839 39.8445H21.4452C20.9012 39.8445 20.6572 39.3431 20.7412 38.8591C20.8186 38.3751 21.2666 36.2205 21.2959 35.9765C21.3372 35.7191 21.7012 35.4205 22.0652 35.4205H32.3826C32.8186 35.4205 33.1052 35.6645 33.1879 36.1431C33.2772 36.6205 33.6306 38.5551 33.6599 38.9965C33.6892 39.4378 33.4146 39.8445 32.8839 39.8445Z" fill="#9AAAB4"/>
</svg>
