<svg width="114" height="139" viewBox="0 0 114 139" fill="none" xmlns="http://www.w3.org/2000/svg">
<path d="M111.5 3.5L3 1.5L4 132.5L79 136.5L111.5 107V3.5Z" fill="white"/>
<path fill-rule="evenodd" clip-rule="evenodd" d="M62.8661 82.4212L24.6528 84.2612L24.1928 73.3239L64.8421 72.7106L62.8661 82.4212ZM22.3194 27.7506L93.0888 29.6079L92.2874 39.1479L22.7621 38.7732L22.3194 27.7506ZM23.2728 51.2266L91.2314 51.5839L90.2941 62.5572L23.6648 60.8519L23.2728 51.2266ZM102.867 11.0039L9.95011 9.8959L11.5514 125.523L71.7594 129.084L72.8154 99.2199L104.179 98.4866L102.867 11.0039ZM1.63545 134.791L0.800781 0.0319093L112.698 1.92257L113.686 107.652L81.1128 138.624L1.63545 134.791Z" fill="#45AAE1"/>
</svg>
