<svg width="47" height="42" viewBox="0 0 47 42" fill="none" xmlns="http://www.w3.org/2000/svg">
<path d="M24.99 30.4098C24.6 30.1998 24.14 30.0898 23.59 30.0898C22.79 30.0898 22.16 30.3198 21.7 30.7898C21.23 31.2498 20.99 31.8498 20.99 32.5798C20.99 33.0698 21.09 33.4998 21.3 33.8898C21.51 34.2798 21.81 34.5798 22.2 34.7998C22.59 35.0198 23.05 35.1298 23.58 35.1298C24.41 35.1298 25.05 34.8898 25.51 34.3998C25.97 33.9098 26.2 33.3098 26.2 32.5698C26.2 32.0898 26.1 31.6498 25.89 31.2798C25.67 30.9098 25.37 30.6198 24.99 30.4098Z" fill="#E60004"/>
<path d="M22.02 26.7299L25.21 26.6799C25.28 24.1999 25.37 21.73 25.48 19.27C25.59 16.81 25.7 14.3699 25.81 11.9399L21.4 12.0599C21.52 14.4699 21.64 16.9 21.75 19.34C21.86 21.8 21.95 24.2499 22.02 26.7299Z" fill="#E60004"/>
<path d="M45.1 31.0499L29.9 4.7099C28.29 1.9199 26.06 0.379883 23.61 0.379883C21.16 0.379883 18.93 1.9199 17.32 4.7099L2.12 31.0499C0.51 33.8399 0.290014 36.5399 1.51001 38.6599C2.73001 40.7799 5.18003 41.9399 8.40003 41.9399H38.81C42.03 41.9399 44.48 40.7799 45.7 38.6599C46.93 36.5399 46.71 33.8399 45.1 31.0499ZM43.33 37.2899C42.62 38.5199 41.02 39.1999 38.81 39.1999H8.40003C6.20003 39.1999 4.59001 38.5199 3.88001 37.2899C3.17001 36.0599 3.37999 34.3299 4.47999 32.4199L19.69 6.0799C20.79 4.1699 22.18 3.11987 23.6 3.11987C25.02 3.11987 26.41 4.1699 27.51 6.0799L42.72 32.4199C43.83 34.3299 44.04 36.0599 43.33 37.2899Z" fill="#E60004"/>
</svg>
