<svg width="27" height="27" viewBox="0 0 27 27" fill="none" xmlns="http://www.w3.org/2000/svg">
<path fill-rule="evenodd" clip-rule="evenodd" d="M13.901 26.93C-4.789 26.93 -3.93881 0.220032 13.6012 0.220032C31.0912 0.220032 30.981 26.93 13.901 26.93ZM13.5812 2.13004C-1.46883 2.13004 -2.18882 25.03 13.8412 25.03C28.4812 25.02 28.5712 2.13004 13.5812 2.13004ZM23.2111 14.93L19.951 15.54L19.651 13.2H23.2111V14.93ZM12.431 16.35L8.13098 11.77L9.04114 10.66L13.401 13.04L20.951 7.10004L21.5912 7.96004L14.421 16.13L12.431 16.35ZM13.4911 4.38004L15.4611 4.22003L15.6112 7.87003L13.6012 7.77003L13.4911 4.38004ZM11.141 4.38004H12.391L12.691 7.88004L10.8412 7.58003L11.141 4.38004ZM3.72107 13.8L7.23108 13.19L7.53113 15.57H4.02112L3.72107 13.8ZM14.911 23.07L13.141 23.56L12.5311 20.1L14.901 19.91L14.911 23.07Z" fill="#DC46AA"/>
</svg>
