<svg width="53" height="52" viewBox="0 0 53 52" fill="none" xmlns="http://www.w3.org/2000/svg">
<path d="M42.6218 42.621H10.2871V16.1665H42.6218V42.621Z" fill="#292F33"/>
<path d="M11.7565 42.6217C11.7565 44.2457 10.8792 45.5643 9.79784 45.5643H7.83917C6.75917 45.5643 5.88184 44.2457 5.88184 42.6217V16.1617C5.88184 14.543 6.75917 13.2243 7.83917 13.2243H9.79784C10.8792 13.2243 11.7565 14.543 11.7565 16.1617V42.6217ZM47.0405 42.6217C47.0405 44.2457 46.1632 45.5643 45.0752 45.5643H43.1178C42.0365 45.5643 41.1592 44.2457 41.1592 42.6217V16.1617C41.1592 14.543 42.0365 13.2243 43.1178 13.2243H45.0752C46.1632 13.2243 47.0405 14.543 47.0405 16.1617V42.6217ZM23.5165 42.6217C23.5165 44.2457 22.6458 45.5643 21.5592 45.5643H19.5952C18.5138 45.5643 17.6365 44.2457 17.6365 42.6217V16.1617C17.6365 14.543 18.5138 13.2243 19.5952 13.2243H21.5592C22.6458 13.2243 23.5165 14.543 23.5165 16.1617V42.6217ZM35.2792 42.6217C35.2792 44.2457 34.4005 45.5643 33.3205 45.5643H31.3618C30.2765 45.5643 29.4032 44.2457 29.4032 42.6217V16.1617C29.4032 14.543 30.2765 13.2243 31.3618 13.2243H33.3205C34.4005 13.2243 35.2792 14.543 35.2792 16.1617V42.6217Z" fill="#CCD6DD"/>
<path d="M48.5072 44.0904C48.5072 45.7197 47.1886 47.0331 45.5646 47.0331H7.34989C5.72589 47.0331 4.40723 45.7197 4.40723 44.0904C4.40723 42.4651 5.72589 41.1584 7.34989 41.1584H45.5646C47.1886 41.1584 48.5072 42.4651 48.5072 44.0904Z" fill="#9AAAB4"/>
<path d="M51.4454 47.0332C51.4454 48.6519 50.1267 49.9706 48.508 49.9706H4.40804C2.78937 49.9706 1.4707 48.6519 1.4707 47.0332C1.4707 45.4092 2.78937 44.0906 4.40804 44.0906H48.508C50.1267 44.0906 51.4454 45.4092 51.4454 47.0332Z" fill="#CCD6DD"/>
<path d="M52.9133 49.2362C52.9133 50.4535 51.9293 51.4442 50.7107 51.4442H2.20934C0.992002 51.4442 0 50.4535 0 49.2362C0 48.0189 0.992002 47.0335 2.20934 47.0335H50.7107C51.9293 47.0335 52.9133 48.0189 52.9133 49.2362Z" fill="#E1E8ED"/>
<path d="M48.5072 14.6987C48.5072 13.0747 47.0979 11.756 45.3726 11.756H7.34989C5.61256 11.756 4.40723 13.0747 4.40723 14.6987C4.40723 15.7973 4.97923 16.7467 5.88056 17.2547V19.1053H11.7566V17.636H17.6366V19.1053H23.5166V17.636H29.4032V19.1053H35.2779V17.636H41.1579V19.1053H47.0392V17.176C47.9179 16.6573 48.5072 15.744 48.5072 14.6987Z" fill="#9AAAB4"/>
<path d="M2.94336 12.4067C2.94336 10.8893 4.42336 10.2867 4.42336 10.2867L26.3354 -4.83354e-07L48.4487 10.2867C48.4487 10.2867 49.9754 10.6267 49.9754 12.412V13.224H2.94336V12.4067Z" fill="#CCD6DD"/>
<path d="M26.4609 3.73115C26.4609 3.73115 11.2903 10.8832 9.77426 11.5298C8.25826 12.1738 8.76626 13.2245 9.77426 13.2245H43.0636C44.6276 13.2245 44.2583 12.0312 43.0156 11.3912C41.7796 10.7405 26.4609 3.73115 26.4609 3.73115Z" fill="#9AAAB4"/>
<path d="M49.9763 13.2248C49.9763 14.0355 49.3203 14.6981 48.507 14.6981H4.407C3.60167 14.6981 2.94434 14.0355 2.94434 13.2248C2.94434 12.4128 3.60167 11.7555 4.407 11.7555L48.507 11.7608C49.3203 11.7608 49.9763 12.4128 49.9763 13.2248Z" fill="#CCD6DD"/>
</svg>
