<svg width="25" height="25" viewBox="0 0 25 25" fill="none" xmlns="http://www.w3.org/2000/svg">
<g clip-path="url(#clip0_1761_41274)">
<path d="M0.529494 12.3504C0.528912 14.4509 1.07775 16.5018 2.12135 18.3096L0.429688 24.4861L6.75062 22.8288C8.4989 23.7805 10.4577 24.2792 12.4483 24.2794H12.4535C19.0247 24.2794 24.3739 18.9322 24.3767 12.3598C24.3779 9.175 23.1388 6.18023 20.8874 3.92713C18.6365 1.67422 15.6428 0.432849 12.453 0.431395C5.88105 0.431395 0.532304 5.77829 0.529591 12.3504" fill="url(#paint0_linear_1761_41274)"/>
<path d="M9.36766 7.18488C9.13646 6.67103 8.89315 6.66066 8.67328 6.65165C8.49325 6.6439 8.28743 6.64448 8.08181 6.64448C7.876 6.64448 7.5416 6.7219 7.25894 7.03052C6.976 7.33944 6.17871 8.08595 6.17871 9.60426C6.17871 11.1227 7.28462 12.59 7.43879 12.7961C7.59315 13.0018 9.57377 16.2173 12.7106 17.4544C15.3176 18.4824 15.8481 18.2779 16.4139 18.2264C16.9798 18.175 18.2399 17.48 18.4969 16.7594C18.7542 16.0389 18.7542 15.4212 18.6771 15.2922C18.5999 15.1636 18.3941 15.0863 18.0855 14.9321C17.7768 14.7777 16.2595 14.0311 15.9767 13.9281C15.6937 13.8252 15.488 13.7738 15.2822 14.0828C15.0764 14.3914 14.4854 15.0863 14.3053 15.2922C14.1253 15.4984 13.9452 15.5241 13.6367 15.3698C13.3278 15.2149 12.3339 14.8894 11.1548 13.8382C10.2373 13.0202 9.61796 12.01 9.43792 11.701C9.25788 11.3924 9.41863 11.2252 9.57338 11.0714C9.71204 10.9331 9.8821 10.711 10.0366 10.5309C10.1904 10.3507 10.2418 10.2221 10.3447 10.0163C10.4477 9.81027 10.3962 9.63004 10.3191 9.47568C10.2418 9.32132 9.64208 7.79506 9.36766 7.18488Z" fill="white"/>
</g>
<defs>
<linearGradient id="paint0_linear_1761_41274" x1="12.4032" y1="24.4861" x2="12.4032" y2="0.431395" gradientUnits="userSpaceOnUse">
<stop stop-color="#1FAF38"/>
<stop offset="1" stop-color="#60D669"/>
</linearGradient>
<clipPath id="clip0_1761_41274">
<rect width="24.8062" height="25" fill="white"/>
</clipPath>
</defs>
</svg>
