<svg width="45" height="48" viewBox="0 0 45 48" fill="none" xmlns="http://www.w3.org/2000/svg">
<path fill-rule="evenodd" clip-rule="evenodd" d="M20.5734 27.1834L23.824 32.99L17.4067 45.9287C15.8254 45.9287 13.6227 44.426 14.6694 41.9007C15.6734 39.494 20.6 27.2007 20.6 27.2007L20.5734 27.1834ZM29.2627 12.07L29.5534 27.4527L37.4814 44.8287C36.5307 45.9327 34.0414 46.4847 32.82 44.2994C29.9667 39.1954 21.716 24.294 21.716 24.294L20.7094 17.1834L17.8894 18.1127L16.4947 25.85C16.4947 25.85 12.9894 26.2834 13.1974 23.442C13.42 20.5154 13.7787 14.9407 13.7787 14.9407L21.408 10.3674C26.6294 9.96337 29.284 12.0874 29.284 12.0874L29.2627 12.07ZM22.312 4.95004C21.708 0.0847107 29.6094 -0.888622 29.6094 4.59804C29.6094 10.162 22.8974 9.66204 22.312 4.95004ZM34.5227 24.846C33.1334 23.838 31.4827 22.466 31.4827 22.466V17.2527L38.8974 23.5994C38.5534 25.4767 36.3867 26.1967 34.5227 24.846Z" fill="white"/>
<path d="M2.2373 45.7969L43.3 4.75288" stroke="black" stroke-width="3.78" stroke-miterlimit="10"/>
</svg>
