<svg width="39" height="35" viewBox="0 0 39 35" fill="none" xmlns="http://www.w3.org/2000/svg">
<path fill-rule="evenodd" clip-rule="evenodd" d="M16.641 0.112642C16.2372 0.336394 16.2346 0.36173 16.2315 4.09498C16.23 6.01442 16.2574 7.58479 16.2926 7.58479C16.4967 7.58479 18.4121 6.37801 19.4112 5.61993C20.2067 5.01637 20.8979 4.95408 21.7021 5.41345C22.2492 5.72579 22.4493 6.09107 22.8159 7.4452C22.9809 8.05449 23.1568 8.55307 23.2068 8.55307C23.403 8.55307 24.0399 8.07305 24.211 7.7962C24.5075 7.31634 25.0784 7.29367 25.2692 7.75416C25.3601 7.97364 25.3541 8.04247 25.2226 8.28663C24.9802 8.73664 24.4575 9.20544 23.9117 9.46203C23.4837 9.66327 23.4128 9.72556 23.456 9.86193C23.4843 9.95077 23.8679 11.3702 24.3087 13.0162C24.7494 14.6622 25.1179 16.0163 25.1274 16.0253C25.137 16.0343 25.4535 15.9348 25.8307 15.8042C26.4696 15.583 26.5801 15.5691 27.4445 15.6003C28.941 15.6545 29.9464 16.126 31.1594 17.3428C31.7565 17.9418 32.7484 19.2525 32.6666 19.3344C32.6511 19.3498 32.1635 19.2927 31.5829 19.2074C29.7587 18.9397 26.1407 18.7865 25.958 18.9692C25.9359 18.9914 25.9958 19.4073 26.0913 19.8935C26.2421 20.662 26.2649 21.0571 26.2655 22.9158C26.266 24.6221 26.2385 25.1844 26.1291 25.6995C25.9227 26.6722 25.8797 26.604 26.7402 26.6685C28.0758 26.7686 29.6576 26.4863 30.9974 25.9087C34.98 24.1917 37.8147 19.8598 38.3342 14.6971C38.3851 14.1914 38.4182 11.2332 38.4182 7.20507V0.548687L38.1439 0.274344C37.9856 0.116031 37.7883 0 37.6775 0C37.5718 0 37.1779 0.129668 36.802 0.288222C34.113 1.42239 30.3434 2.01078 26.3955 1.91258C23.0805 1.83019 20.3429 1.32468 17.9875 0.359955C17.0362 -0.0296131 16.9321 -0.0487364 16.641 0.112642ZM20.3842 6.31079C20.2954 6.36187 19.9505 6.61079 19.6176 6.864C16.6439 9.12636 11.6147 11.007 6.88526 11.6252C5.26946 11.8365 2.77939 11.8575 1.56316 11.6702C1.02609 11.5875 0.668879 11.5682 0.544941 11.6153C0.295046 11.7104 0.0101318 12.0779 0.0101318 12.3053C0.0101318 12.5687 3.3397 24.9246 3.64123 25.7802C4.75434 28.9386 7.08174 31.8697 9.73239 33.4515C12.8328 35.3017 16.1745 35.5003 19.1738 34.0129C20.2139 33.4971 20.7873 33.0816 21.6833 32.1943C23.2775 30.6155 24.3867 28.4555 24.9561 25.8206C25.1194 25.0648 25.1393 24.7514 25.1394 22.9158C25.1397 21.0071 25.1246 20.7881 24.9314 19.8899C24.69 18.7673 21.4954 6.81026 21.3779 6.58949C21.2998 6.44272 20.8478 6.21082 20.649 6.2155C20.5921 6.21687 20.4729 6.25972 20.3842 6.31079ZM30.1973 7.52428C30.2638 7.57979 30.4181 7.76167 30.5401 7.92845C30.8575 8.36224 31.3283 8.58615 31.9228 8.58615C32.5172 8.58615 32.988 8.36224 33.3054 7.92845C33.6087 7.51403 33.7319 7.42342 33.9926 7.42342C34.2513 7.42342 34.5452 7.69937 34.5452 7.94225C34.5452 8.1823 34.0208 8.90657 33.6734 9.14654C32.5664 9.91083 31.3062 9.93447 30.2716 9.21036C29.783 8.8684 29.3004 8.2366 29.3004 7.9391C29.3004 7.53445 29.8853 7.26397 30.1973 7.52428ZM18.924 15.0791C19.8089 15.5147 20.1307 16.0355 19.75 16.4162C19.4739 16.6924 19.23 16.6754 18.8038 16.3504C18.1494 15.8514 17.5836 15.7737 16.9051 16.0896C16.4635 16.2953 16.1252 16.6678 15.9755 17.1133C15.8429 17.5082 15.6736 17.671 15.3955 17.671C14.6974 17.671 14.6748 16.876 15.3462 15.9411C16.1335 14.8448 17.6875 14.4703 18.924 15.0791ZM9.7971 17.3488C10.2698 17.5257 10.8812 18.0007 10.98 18.268C11.0759 18.5272 10.9216 18.8541 10.6505 18.9664C10.4231 19.0606 10.3776 19.0452 9.91216 18.717C9.38647 18.3462 8.89919 18.2355 8.2937 18.3491C7.88267 18.4262 7.32123 18.9616 7.10547 19.4822C6.83096 20.1445 6.29107 20.2901 6.02415 19.774C5.69808 19.1435 6.65966 17.7564 7.69998 17.3565C8.27659 17.1348 9.2159 17.1314 9.7971 17.3488ZM19.7494 24.4762C18.2302 28.7268 14.6151 30.0034 11.0729 27.5401C10.5069 27.1465 9.69285 26.4649 9.69285 26.3845C9.69285 26.3566 10.0832 26.2896 10.5603 26.2357C13.2863 25.9275 16.4612 25.0901 18.9721 24.0169C19.5269 23.7799 19.9911 23.6115 20.0038 23.6429C20.0165 23.6742 19.9021 24.0492 19.7494 24.4762Z" fill="#0E1825"/>
</svg>
