<svg width="20" height="21" viewBox="0 0 20 21" fill="none" xmlns="http://www.w3.org/2000/svg">
<path fill-rule="evenodd" clip-rule="evenodd" d="M14.3602 8.65997V11.6L12.5502 11.7V5.05997C12.5502 2.15997 14.4402 0.839966 16.2202 0.839966C18.0802 0.839966 19.9402 2.24997 19.9402 4.69997C19.9402 8.52997 15.9402 8.65997 14.3602 8.65997ZM16.2002 2.70996C15.3102 2.70996 14.3702 3.31996 14.3702 5.04996V6.80997C18.0602 6.80997 18.0602 5.48997 18.0602 4.69997C18.0502 3.33997 17.0902 2.70996 16.2002 2.70996ZM6.1202 8.65997C4.5202 8.65997 0.450214 8.65997 0.450214 4.76997C0.450214 2.27997 2.34021 0.849964 4.23021 0.849964C6.04021 0.849964 7.96019 2.18997 7.96019 5.13997V6.83997L11.5402 6.86996L11.3702 8.67997L6.1202 8.65997ZM6.1202 5.12997C6.1202 3.34997 5.15021 2.70996 4.23021 2.70996C3.31021 2.70996 2.3102 3.34996 2.3102 4.75996C2.3102 5.57996 2.3102 6.80997 6.1202 6.81997V5.12997ZM6.1202 12.65V9.87997L7.96019 9.63997V16.21C7.96019 19.15 6.04021 20.5 4.23021 20.5C2.34021 20.5 0.450214 19.07 0.450214 16.58C0.440214 12.66 4.5202 12.65 6.1202 12.65ZM4.2202 18.61C5.1402 18.61 6.11019 17.97 6.11019 16.19V14.49C2.30019 14.5 2.30019 15.74 2.30019 16.55C2.31019 17.96 3.3002 18.61 4.2202 18.61ZM19.5802 16.42C19.5802 18.74 17.8102 20.07 16.0502 20.07C14.3502 20.07 12.5702 18.82 12.5702 16.07V14.48H9.0902L8.9702 12.63H14.2902C15.7902 12.65 19.5802 12.8 19.5802 16.42ZM14.3602 16.09C14.3602 17.68 15.2302 18.25 16.0602 18.25C16.8902 18.25 17.7602 17.68 17.7602 16.41C17.7602 15.68 17.7602 14.58 14.3502 14.57V16.09H14.3602Z" fill="#DC46AA"/>
</svg>
