<svg width="19" height="25" viewBox="0 0 19 25" fill="none" xmlns="http://www.w3.org/2000/svg">
<path fill-rule="evenodd" clip-rule="evenodd" d="M18.9099 20.25C18.9399 22.8 17.8399 24.2 14.9899 24.25C9.12987 24.35 0.979858 24.11 0.979858 24.11L0.849854 0.429962C0.849854 0.429962 8.92987 0.0899658 14.4899 0.0899658C16.9699 0.0899658 18.5499 1.15996 18.5499 4.32996C18.5599 7.67996 18.8799 17.4 18.9099 20.25ZM14.5299 20.68V18.87L5.52991 18.6L5.48987 20.74L14.5299 20.68ZM9.74988 2.99997C9.13988 2.37997 8.20987 2.57998 8.17987 3.38998C8.15987 4.07998 8.99987 4.70996 9.67987 5.17996C10.3899 4.73996 11.2699 4.14997 11.2499 3.46997C11.2399 2.64997 10.4099 2.29997 9.74988 2.99997ZM15.3399 5.77997C15.1599 5.93997 12.8899 8.15997 12.3999 8.65997C12.9399 9.11997 12.7699 10.24 11.8599 10.25C11.3699 10.29 10.9499 9.92998 10.9099 9.44998C10.8999 9.29998 10.9199 9.14996 10.9799 9.01996C11.0399 8.36996 11.3199 7.76998 11.7699 7.28998C11.7699 7.28998 12.4899 7.22995 12.8099 7.60995L12.9199 5.77997L9.97986 6.23996L10.4199 7.18997L9.72986 8.80997L9.03986 7.18997L9.47986 6.23996L6.53986 5.77997L6.63989 7.61996C6.95989 7.22996 7.67987 7.29996 7.67987 7.29996C8.12987 7.76996 8.39985 8.37997 8.46985 9.02997C8.66985 9.47997 8.4599 9.99997 8.0199 10.19C7.8799 10.25 7.7399 10.27 7.5899 10.26C6.6899 10.24 6.50987 9.12998 7.04987 8.66998C6.54987 8.15998 4.2799 5.93998 4.0899 5.78998C3.6099 6.61998 3.3099 7.53996 3.2099 8.48996L5.0799 9.03998C5.0999 9.19998 5.1199 9.32996 5.1499 9.48996C4.6599 9.52996 3.43988 9.62997 3.24988 9.62997C3.31988 10.38 3.61986 11.09 4.10986 11.66L5.87988 11.09C5.99988 11.24 6.13986 11.38 6.28986 11.51C5.86986 11.74 5.07986 12.18 4.91986 12.3C5.57986 13.18 7.05988 13.28 7.05988 13.28L7.75989 12.33C8.02989 12.42 8.3099 12.49 8.5899 12.55C8.8699 13.57 7.04987 14.21 6.36987 14.61C6.75987 15.16 7.27988 15.61 7.87988 15.91L8.62988 14.54L9.03986 14.59C9.01986 15.15 8.93988 15.7 8.80988 16.24C9.45988 16.39 10.1299 16.4 10.7899 16.26C10.5899 15.6 10.3799 14.49 10.3799 14.49L10.7599 14.38L11.6399 15.97C12.2499 15.69 12.7699 15.24 13.1099 14.66C12.3799 14.21 10.8999 13.39 11.0699 12.51C11.2799 12.46 11.4899 12.4 11.6799 12.34L12.3799 13.3C12.3799 13.3 13.8499 13.2 14.5199 12.32C14.3699 12.2 13.5799 11.76 13.1499 11.53C13.2999 11.4 13.4399 11.26 13.5599 11.11L15.3299 11.68C15.8199 11.11 16.1199 10.4 16.1899 9.64996C15.9999 9.64996 14.7799 9.55998 14.2899 9.50998C14.3199 9.35998 14.3399 9.21997 14.3599 9.05997L16.2299 8.50998C16.1299 7.53998 15.8199 6.60996 15.3399 5.76996V5.77997Z" fill="#DC46AA"/>
</svg>
