<svg width="25" height="14" viewBox="0 0 25 14" fill="none" xmlns="http://www.w3.org/2000/svg">
<path fill-rule="evenodd" clip-rule="evenodd" d="M18.5264 0.00883874C18.4737 0.0151311 18.3142 0.0402733 18.1719 0.0647041C16.4021 0.368653 14.9851 1.76151 14.6432 3.53323C14.5682 3.92177 14.5424 4.37657 14.5853 4.55514C14.6305 4.74366 14.7653 4.95522 14.8274 4.93492C15.1244 4.83783 15.1783 4.80686 15.2865 4.67138C15.427 4.49525 15.6143 4.33972 15.8289 4.22079C16.1579 4.03859 16.1913 4.03396 17.3226 4.01424C18.2686 3.99774 18.3624 3.99178 18.5264 3.93791C19.1352 3.73781 19.5836 3.19773 19.644 2.59164L19.6617 2.41381H20.0721H20.4825L20.4986 2.57796C20.5221 2.81661 20.5891 3.02018 20.707 3.21109C20.9435 3.59399 21.1614 3.76413 21.6628 3.95747C22.0498 4.10666 22.347 4.32861 22.5761 4.63954C22.7046 4.81392 22.7357 4.83348 23.0461 4.93492C23.0799 4.94598 23.115 4.91503 23.1737 4.82251C23.2939 4.63297 23.3248 4.46554 23.3036 4.11746C23.182 2.11471 21.7446 0.469468 19.7711 0.0741427C19.5063 0.0210952 18.7543 -0.0183553 18.5264 0.00883874ZM19.9344 3.93323C19.6198 4.32552 19.1477 4.62375 18.6308 4.75669C18.4262 4.80932 18.3023 4.81693 17.4047 4.83195L16.4061 4.84869L16.2517 4.92447C16.058 5.01962 15.8919 5.19811 15.7856 5.42513C15.704 5.59954 15.7023 5.60104 15.5896 5.60224C15.2931 5.60534 15.1378 5.67808 15.0318 5.86351C14.956 5.99607 14.9532 6.14522 15.0239 6.28379C15.1285 6.48881 15.3227 6.56665 15.6499 6.53458C15.783 6.52156 15.8544 6.5246 15.8605 6.54356C15.8657 6.55934 15.8835 6.62766 15.9001 6.69537C15.96 6.93962 16.0737 7.25996 16.1671 7.44772C16.6012 8.32058 17.4096 8.93256 18.3717 9.11662C18.6494 9.16975 19.2233 9.16956 19.5044 9.11624C20.458 8.93535 21.2616 8.32939 21.6993 7.4614C21.8022 7.25717 21.9513 6.82956 21.9878 6.63351C21.9984 6.57691 22.0149 6.52632 22.0244 6.52107C22.0341 6.51582 22.1281 6.52115 22.2334 6.53294C22.4754 6.56005 22.6334 6.52285 22.7522 6.41082C22.9177 6.25471 22.9433 6.00944 22.814 5.81761C22.7237 5.68358 22.6118 5.63078 22.3757 5.61083L22.1673 5.59322L22.0716 5.3915C21.9119 5.0553 21.6514 4.81805 21.3147 4.70216C20.9025 4.56031 20.4741 4.26484 20.2191 3.94672C20.1404 3.84845 20.0739 3.76804 20.0715 3.76804C20.069 3.76804 20.0073 3.84238 19.9344 3.93323ZM14.2948 7.13947C13.9574 7.48744 13.7347 7.88807 13.5624 8.45704C13.4706 8.7599 13.3715 9.29218 13.3467 9.6147L13.3337 9.78452L13.4883 9.82952C13.7547 9.90703 14.149 9.9755 14.525 10.0095C15.3979 10.0886 16.1783 9.88218 16.6633 9.44407L16.7731 9.34484L16.56 9.18425C16.0185 8.77623 15.522 8.11405 15.2859 7.48492C15.2405 7.36395 15.23 7.35525 15.0625 7.30028C14.8669 7.2361 14.6977 7.1395 14.5713 7.01997L14.4875 6.94069L14.2948 7.13947ZM23.3274 6.99798C23.2324 7.10519 22.9688 7.25977 22.8001 7.30707C22.6438 7.35095 22.6352 7.35801 22.5885 7.48233C22.3523 8.11151 21.8535 8.77732 21.3134 9.18425L21.1003 9.34484L21.2102 9.44407C21.6951 9.88218 22.4755 10.0886 23.3485 10.0095C23.7186 9.97602 24.1392 9.90333 24.3978 9.82815L24.5425 9.78607L24.5284 9.64283C24.4147 8.48673 24.1185 7.70155 23.5887 7.15148L23.3818 6.93658L23.3274 6.99798ZM17.7668 10.2414C17.6886 10.518 17.661 10.6574 17.678 10.6892C17.6916 10.7146 17.7826 10.8101 17.8802 10.9015C18.4774 11.46 19.3961 11.46 19.9932 10.9015C20.0908 10.8101 20.1818 10.7146 20.1954 10.6892C20.2125 10.6574 20.1849 10.518 20.1066 10.2414C20.0143 9.91501 19.9851 9.84287 19.9505 9.85625C19.749 9.93419 19.4641 9.96467 18.9367 9.96467C18.4094 9.96467 18.1244 9.93419 17.923 9.85625C17.8884 9.84287 17.8591 9.91501 17.7668 10.2414ZM15.7905 11.3835C15.1811 11.5674 14.6134 11.7497 14.5289 11.7887C14.0779 11.9969 13.6902 12.3571 13.4413 12.7989C13.3648 12.9349 13 13.9056 13 13.9734C13 13.9905 15.1093 14 18.9367 14C22.7641 14 24.8734 13.9905 24.8734 13.9734C24.8734 13.9056 24.5087 12.9349 24.4321 12.7989C24.1784 12.3485 23.7903 11.9918 23.3236 11.7802C23.2287 11.7371 22.6553 11.5538 22.0493 11.3728L20.9475 11.0436L20.9065 11.1048C20.6827 11.4384 20.3645 11.7121 19.99 11.8933C19.5927 12.0854 19.4129 12.125 18.9367 12.125C18.4719 12.125 18.2875 12.0861 17.9108 11.9084C17.5319 11.7297 17.2064 11.4578 17.0005 11.1479C16.963 11.0915 16.9247 11.0462 16.9154 11.0472C16.9061 11.0483 16.3999 11.1996 15.7905 11.3835Z" fill="#0E1825"/>
<path fill-rule="evenodd" clip-rule="evenodd" d="M2.75647 0.19585C2.64301 0.469083 2.54459 0.827002 2.47697 1.2123C2.40118 1.64427 2.39883 2.41708 2.47208 2.82615C2.49899 2.97659 2.53316 3.09708 2.54796 3.09391C2.56275 3.09074 2.6615 3.05231 2.76741 3.00851C3.06515 2.8854 3.1732 2.87235 4.05195 2.8535C4.93251 2.83463 5.18827 2.80531 5.52389 2.68476C6.06174 2.49156 6.37737 2.27383 6.91093 1.72788C7.13837 1.49516 7.33318 1.30856 7.34385 1.31324C7.35452 1.31789 7.65592 1.62944 8.01368 2.00555C8.43322 2.44662 8.70681 2.71233 8.78444 2.75399C8.85652 2.79272 8.99019 2.82935 9.11796 2.84538C9.30815 2.86929 9.54404 2.91639 9.72094 2.96579C9.78216 2.98288 9.78248 2.98138 9.78248 2.67133C9.78248 1.83347 9.58114 1.25754 9.11766 0.769614C8.79136 0.426083 8.46391 0.223696 8.01264 0.0866008C7.8001 0.0220195 7.7257 0.0134031 7.37539 0.0127193L6.97876 0.0119534L6.0214 0.24008C5.1003 0.459564 5.04901 0.4687 4.6674 0.4809C4.07105 0.499965 3.56397 0.385655 3.06193 0.119015L2.83779 0L2.75647 0.19585ZM7.26463 2.55478C7.01791 2.82024 6.44387 3.19985 6.03507 3.36794C5.4438 3.61105 5.13862 3.65972 4.05411 3.6839C3.20898 3.70274 3.20307 3.70329 3.04664 3.77591C2.59525 3.98541 2.31124 4.50942 2.39387 4.98023C2.43397 5.20857 2.56245 5.46195 2.71377 5.61116C2.85032 5.74577 3.0968 5.88729 3.24503 5.91618C3.44063 5.95431 3.42657 5.92356 3.44709 6.35766C3.47663 6.98326 3.56137 7.33593 3.79256 7.79555C4.55556 9.31232 6.36788 9.83641 7.7524 8.94064C8.42141 8.50777 8.90061 7.78324 9.05581 6.96991C9.07731 6.85722 9.10366 6.58374 9.11438 6.36217C9.1356 5.92321 9.12119 5.95491 9.31748 5.91574C9.60067 5.8592 9.91526 5.60536 10.0557 5.32009C10.22 4.9863 10.2196 4.63142 10.0546 4.29615C9.8835 3.94865 9.57638 3.73573 9.17436 3.68592C8.79366 3.63876 8.65558 3.60454 8.44217 3.50454C8.25712 3.41783 8.19265 3.36304 7.78435 2.94555L7.3317 2.48265L7.26463 2.55478ZM7.63524 9.92812C7.57507 9.956 7.42736 10.0092 7.307 10.0464C6.56272 10.2764 5.71619 10.2448 5.00057 9.9604C4.90549 9.92263 4.82094 9.89847 4.81265 9.90673C4.80439 9.91502 4.77452 10.0344 4.74629 10.172L4.69498 10.4222L4.7551 10.5084C5.03183 10.9048 5.38187 11.1501 5.8372 11.2665C6.55646 11.4505 7.37985 11.1435 7.79291 10.5373L7.86849 10.4264L7.81301 10.1567C7.78249 10.0084 7.75464 9.88491 7.75109 9.88225C7.74756 9.8796 7.69542 9.90025 7.63524 9.92812ZM2.86208 10.9509C2.32801 11.1046 1.82936 11.2552 1.754 11.2855C1.2775 11.4775 0.794004 11.9276 0.556987 12.3998C0.519239 12.4751 0.382773 12.8454 0.25372 13.2228C0.124667 13.6001 0.0112322 13.9294 0.00160382 13.9545C-0.0145347 13.9965 0.0725037 14 1.13589 14H2.28766V13.2888V12.5776H2.69796H3.10826V13.2888V14H6.28125H9.45424V13.2888V12.5776H9.86454H10.2748V13.2888V14H11.4266C12.5123 14 12.5773 13.9973 12.5599 13.9521C12.5497 13.9258 12.4375 13.599 12.3106 13.226C12.1836 12.8529 12.0476 12.4836 12.0083 12.4054C11.7521 11.895 11.2322 11.4302 10.7174 11.2511C10.6169 11.2162 10.1166 11.0683 9.60559 10.9225C8.97143 10.7416 8.67306 10.6677 8.66573 10.6898C8.63195 10.7911 8.34616 11.1706 8.16921 11.3491C7.68251 11.8401 7.09102 12.1024 6.40434 12.1319C5.43582 12.1736 4.69076 11.789 4.00879 10.8954C3.91694 10.775 3.83983 10.6754 3.83745 10.674C3.83507 10.6727 3.39616 10.7973 2.86208 10.9509Z" fill="#0E1825"/>
</svg>
