<svg width="19" height="16" viewBox="0 0 19 16" fill="none" xmlns="http://www.w3.org/2000/svg">
<path fill-rule="evenodd" clip-rule="evenodd" d="M4.7379 0.0273585C4.16844 0.172776 3.72996 0.654173 3.64381 1.22851L3.61192 1.4413L2.02563 1.45433C0.505269 1.46686 0.43411 1.47132 0.313612 1.56134C0.0745763 1.73988 0 1.88548 0 2.17354C0 2.46159 0.0745763 2.60719 0.313612 2.78573C0.43411 2.87575 0.505269 2.88021 2.02563 2.89274L3.61192 2.90577L3.64363 3.12052C3.68322 3.38867 3.91223 3.82711 4.0914 3.9779C4.16598 4.04063 4.33167 4.14719 4.45968 4.2147L4.69234 4.33748H5.80848H6.92462L7.21167 4.18181C7.36957 4.09621 7.55012 3.96514 7.61285 3.89061C7.78387 3.68734 7.93712 3.35883 7.97325 3.11797L8.00536 2.90358L13.236 2.8916C18.4385 2.87971 18.4673 2.87916 18.5924 2.78573C18.8315 2.60724 18.906 2.46164 18.906 2.17354C18.906 1.88543 18.8315 1.73984 18.5924 1.56134C18.4673 1.46791 18.4385 1.46736 13.236 1.45547L8.00536 1.44349L7.97325 1.2291C7.93712 0.988241 7.78387 0.659731 7.61285 0.456457C7.55012 0.381926 7.36957 0.25086 7.21167 0.165259L6.92462 0.00959136L5.8996 0.00102654C5.33583 -0.0036658 4.81307 0.00817908 4.7379 0.0273585ZM6.53739 2.17354V2.90244H5.80848H5.07957V2.17354V1.44463H5.80848H6.53739V2.17354ZM10.5692 5.85862C9.99929 6.00413 9.56122 6.48539 9.47493 7.06077L9.44286 7.27457L4.94117 7.28664C0.474929 7.29858 0.438438 7.2994 0.313658 7.3926C0.0745763 7.5711 0 7.7167 0 8.0048C0 8.2929 0.0745763 8.4385 0.313658 8.61699C0.438438 8.7102 0.474929 8.71102 4.94117 8.72295L9.44286 8.73502L9.47475 8.95074C9.51447 9.21979 9.74322 9.65814 9.92266 9.80916C9.99724 9.87189 10.1629 9.97845 10.2909 10.046L10.5236 10.1687H11.6397H12.7559L13.0429 10.0131C13.2008 9.92747 13.3814 9.79641 13.4441 9.72188C13.615 9.51878 13.7684 9.19014 13.8044 8.94987L13.8364 8.73612L16.1515 8.7235C18.4086 8.71124 18.4698 8.70856 18.5924 8.61699C18.8315 8.43845 18.906 8.2929 18.906 8.0048C18.906 7.7167 18.8315 7.57114 18.5924 7.3926C18.4698 7.30104 18.4086 7.29835 16.1515 7.28609L13.8364 7.27347L13.8044 7.05972C13.7684 6.81946 13.615 6.49081 13.4441 6.28772C13.3814 6.21319 13.2008 6.08212 13.0429 5.99652L12.7559 5.84085L11.7309 5.83229C11.1671 5.82759 10.6443 5.83944 10.5692 5.85862ZM12.3686 8.0048V8.7337H11.6397H10.9108V8.0048V7.27589H11.6397H12.3686V8.0048ZM4.7379 11.6899C4.16844 11.8353 3.72996 12.3167 3.64381 12.891L3.61192 13.1038L2.02563 13.1169C0.505269 13.1294 0.43411 13.1338 0.313612 13.2239C0.0745763 13.4024 0 13.548 0 13.8361C0 14.1241 0.0745763 14.2697 0.313612 14.4482C0.43411 14.5383 0.505269 14.5427 2.02563 14.5553L3.61192 14.5683L3.64363 14.783C3.68322 15.0512 3.91223 15.4896 4.0914 15.6404C4.16598 15.7032 4.33167 15.8097 4.45968 15.8772L4.69234 16H5.80848H6.92462L7.21167 15.8443C7.36957 15.7587 7.55012 15.6277 7.61285 15.5531C7.78387 15.3499 7.93712 15.0213 7.97325 14.7805L8.00536 14.5661L13.236 14.5541C18.4385 14.5422 18.4673 14.5417 18.5924 14.4482C18.8315 14.2698 18.906 14.1242 18.906 13.8361C18.906 13.548 18.8315 13.4024 18.5924 13.2239C18.4673 13.1304 18.4385 13.1299 13.236 13.118L8.00536 13.106L7.97325 12.8916C7.93712 12.6508 7.78387 12.3223 7.61285 12.119C7.55012 12.0444 7.36957 11.9134 7.21167 11.8278L6.92462 11.6721L5.8996 11.6635C5.33583 11.6589 4.81307 11.6707 4.7379 11.6899ZM6.53739 13.8361V14.565H5.80848H5.07957V13.8361V13.1071H5.80848H6.53739V13.8361Z" fill="#DC46AA"/>
</svg>
