<svg width="24" height="22" viewBox="0 0 24 22" fill="none" xmlns="http://www.w3.org/2000/svg">
<path d="M12.6501 15.74C12.4501 15.63 12.2101 15.58 11.9301 15.58C11.5201 15.58 11.1901 15.7 10.9501 15.94C10.7101 16.18 10.5801 16.49 10.5801 16.87C10.5801 17.12 10.6301 17.35 10.7401 17.55C10.8501 17.75 11.0001 17.91 11.2001 18.02C11.4001 18.13 11.64 18.19 11.91 18.19C12.34 18.19 12.67 18.06 12.91 17.81C13.15 17.56 13.2701 17.24 13.2701 16.87C13.2701 16.62 13.22 16.4 13.11 16.2C13.01 16 12.8601 15.85 12.6501 15.74Z" fill="black"/>
<path d="M11.1201 13.8399L12.7701 13.8199C12.8101 12.5399 12.85 11.2599 12.91 9.98993C12.97 8.71993 13.0201 7.45995 13.0801 6.19995L10.8 6.25995C10.86 7.50995 10.92 8.75993 10.98 10.0199C11.04 11.2899 11.0901 12.5599 11.1201 13.8399Z" fill="black"/>
<path d="M23.0501 16.07L15.1901 2.45996C14.3601 1.01996 13.2001 0.219971 11.9401 0.219971C10.6801 0.219971 9.52007 1.00996 8.69007 2.45996L0.830082 16.07C8.16584e-05 17.51 -0.119916 18.91 0.520084 20C1.15008 21.09 2.42008 21.7 4.08008 21.7H19.8001C21.4701 21.7 22.7301 21.1 23.3601 20C24 18.91 23.8901 17.52 23.0501 16.07ZM22.1401 19.3C21.7701 19.94 20.9401 20.29 19.8101 20.29H4.09009C2.95009 20.29 2.12007 19.94 1.76007 19.3C1.39007 18.66 1.50007 17.77 2.07007 16.78L9.93006 3.16998C10.5001 2.17998 11.2201 1.63998 11.9501 1.63998C12.6801 1.63998 13.4 2.17998 13.97 3.16998L21.8301 16.78C22.4001 17.77 22.5101 18.66 22.1401 19.3Z" fill="black"/>
</svg>
