<svg width="19" height="33" viewBox="0 0 19 33" fill="none" xmlns="http://www.w3.org/2000/svg">
<path fill-rule="evenodd" clip-rule="evenodd" d="M7.64335 30.2822C7.77669 33.2502 2.64469 32.9328 2.81269 30.0675C2.97935 27.2022 3.43935 17.4622 3.43935 16.1302C3.43935 14.7982 0.804688 13.4862 0.804688 13.4862L1.90202 0.942153L3.17535 0.982152L2.96202 9.84082L4.29002 9.86482L4.67135 0.963485L6.03535 1.05149L6.18069 9.91015L7.47269 9.93282L7.34202 1.11949L8.86202 1.17015L9.60869 13.6848C9.60869 13.6848 7.09135 14.8222 7.09135 16.1168C7.09135 17.4115 7.49669 27.3142 7.64335 30.2822ZM18.0607 0.768819L18.1874 18.1782H12.2047C12.266 7.60615 12.9647 0.771486 18.058 0.771486L18.0607 0.768819ZM13.67 30.0675V29.2408L14.63 28.2755C14.63 28.2755 14.6807 24.3302 14.6807 23.4315C14.722 21.9622 13.654 20.6955 12.198 20.4835V19.3902H18.198L18.2767 30.2928C18.106 33.3635 13.486 32.8675 13.67 30.0675Z" fill="black"/>
</svg>
