<svg width="37" height="36" viewBox="0 0 37 36" fill="none" xmlns="http://www.w3.org/2000/svg">
<path fill-rule="evenodd" clip-rule="evenodd" d="M33.7319 25.4189L32.5226 27.7735L28.1759 24.9829L29.2319 23.1135L33.7319 25.4189ZM27.6946 34.0922L25.0732 35.3482L22.3812 29.9855L24.6679 28.9802L27.6946 34.0922ZM16.4132 31.1709L16.1666 35.7669L13.0986 35.4442L14.3932 30.8402L16.4132 31.1709ZM8.79991 26.7375L4.28791 31.0015L2.58524 28.6602L7.43991 25.0842L8.79991 26.7375ZM5.25325 19.1589L0.678576 19.5109L0.60791 16.6615L5.07591 17.0122L5.25325 19.1589ZM2.19191 8.25088L3.50658 5.85755L8.45058 9.41888L7.46258 11.3549L2.19191 8.25088ZM10.7306 2.33888L13.4012 1.54821L14.8332 5.64688L12.8106 6.33088L10.7306 2.33888ZM17.6519 10.6095C7.51191 10.6509 6.90924 25.9642 18.4199 25.9149C28.1239 25.8722 27.9826 10.5615 17.6519 10.6095ZM18.6306 28.3415C3.49991 28.4055 4.53458 8.04421 17.6172 7.98688C30.9519 7.92688 31.3772 28.2855 18.6306 28.3415ZM20.2239 5.92154L21.4772 0.0242127L23.9399 0.650878L22.2892 6.50554L20.2239 5.92154ZM26.6666 8.94155L29.9532 5.82688L31.7586 7.84954L28.0492 10.5735L26.6666 8.94155ZM30.0626 15.1935L36.0092 14.4895L36.2479 17.0869L30.3252 17.4695L30.0626 15.1935Z" fill="black"/>
</svg>
