<svg width="7" height="6" viewBox="0 0 7 6" fill="none" xmlns="http://www.w3.org/2000/svg">
<path fill-rule="evenodd" clip-rule="evenodd" d="M2.30521 0.00779239C1.83477 0.064555 1.42847 0.358589 1.22384 0.790383C1.11534 1.01931 1.08952 1.18121 1.08936 1.63377C1.08928 1.9117 1.09117 1.93827 1.1117 1.94543C1.24551 1.99207 1.34017 2.03479 1.40856 2.07944C1.65407 2.23969 1.83068 2.49652 1.89061 2.78045C1.9056 2.85142 1.90975 2.97355 1.90975 3.34296V3.81484H3.2815H4.65326V3.34296C4.65326 2.83621 4.65871 2.77854 4.72259 2.60941C4.80329 2.39575 4.95552 2.20928 5.15622 2.07828C5.22311 2.03463 5.31808 1.99187 5.45131 1.94543C5.47184 1.93827 5.47373 1.9117 5.47364 1.63377C5.47349 1.18196 5.44762 1.01922 5.33985 0.791801C5.15494 0.40163 4.82328 0.133148 4.39911 0.0302649C4.29167 0.00420239 4.25565 0.00319312 3.3392 0.000395229C2.81742 -0.00118896 2.35212 0.00213274 2.30521 0.00779239ZM2.88673 1.13928C3.09355 1.28397 3.01131 1.60695 2.7624 1.62751C2.50401 1.64886 2.3582 1.33974 2.54594 1.16858C2.61338 1.10709 2.65293 1.09291 2.74571 1.09699C2.81707 1.10012 2.84106 1.10731 2.88673 1.13928ZM3.94186 1.11743C4.1082 1.19273 4.15243 1.40566 4.02982 1.54091C3.90536 1.6782 3.68017 1.65225 3.59033 1.49029C3.53265 1.3863 3.5555 1.24225 3.64252 1.16137C3.71535 1.09367 3.84676 1.07438 3.94186 1.11743ZM2.88673 1.95692C3.09355 2.10162 3.01131 2.42459 2.7624 2.44516C2.50401 2.46651 2.3582 2.15739 2.54594 1.98623C2.61338 1.92474 2.65293 1.91056 2.74571 1.91464C2.81707 1.91777 2.84106 1.92496 2.88673 1.95692ZM3.94186 1.93508C4.1082 2.01038 4.15243 2.22331 4.02982 2.35855C3.90536 2.49584 3.68017 2.4699 3.59033 2.30794C3.53265 2.20394 3.5555 2.0599 3.64252 1.97901C3.71535 1.91131 3.84676 1.89202 3.94186 1.93508ZM0.642712 2.19913C0.598072 2.20878 0.511985 2.2406 0.45141 2.26981C0.181751 2.39988 0 2.69276 0 2.99719C0 3.29872 0.183956 3.59734 0.44582 3.72091L0.550125 3.77012L0.550471 4.50843C0.550804 5.20948 0.552048 5.24913 0.575278 5.29414C0.588739 5.3202 0.616148 5.35705 0.636173 5.37599C0.700569 5.4369 0.752721 5.45013 0.928344 5.45013H1.08875L1.09221 5.72162L1.09567 5.9931L1.3681 5.99655L1.64053 6V5.72507V5.45013H3.2815H4.92248V5.72507V6L5.19491 5.99655L5.46734 5.9931L5.4708 5.72162L5.47426 5.45013H5.63467C5.81017 5.45013 5.86198 5.437 5.92727 5.37599C5.94755 5.35705 5.97483 5.31854 5.98789 5.29044C6.01008 5.24267 6.01171 5.19144 6.01278 4.50473L6.01394 3.77012L6.11883 3.71926C6.32464 3.61948 6.49533 3.3986 6.54418 3.16884C6.66716 2.59029 6.15201 2.07732 5.5699 2.19869C5.33711 2.24724 5.1186 2.41564 5.01399 2.62713C4.92452 2.80797 4.92296 2.82486 4.9227 3.60869L4.92248 4.30323L4.88666 4.2349C4.86057 4.18514 4.83383 4.15609 4.78831 4.12803L4.72578 4.08952H3.2815H1.83723L1.7747 4.12803C1.72918 4.15609 1.70244 4.18514 1.67635 4.2349L1.64053 4.30323L1.64031 3.60869C1.64005 2.82652 1.63878 2.81273 1.5497 2.62932C1.39105 2.30269 1.00671 2.1204 0.642712 2.19913Z" fill="white"/>
</svg>
