<svg width="63" height="32" viewBox="0 0 63 32" fill="none" xmlns="http://www.w3.org/2000/svg">
<path d="M1 6C3.10074 6 3.10074 8 5.20148 8C7.30222 8 7.30222 6 9.40296 6C11.5037 6 11.5037 8 13.5995 8C15.7003 8 15.7003 6 17.7961 6C19.8969 6 19.8969 8 21.9926 8C24.0934 8 24.0934 6 26.194 6C28.2948 6 28.2948 8 30.3956 8C32.4962 8 32.4962 6 34.597 6C36.6978 6 36.6978 8 38.7986 8C40.8992 8 40.8992 6 43 6" stroke="#51D2DA" stroke-miterlimit="10" stroke-linecap="round"/>
<path d="M1 8C3.10074 8 3.10074 10 5.20148 10C7.30222 10 7.30222 8 9.40296 8C11.5037 8 11.5037 10 13.5995 10C15.7003 10 15.7003 8 17.7961 8C19.8969 8 19.8969 10 21.9926 10C24.0934 10 24.0934 8 26.194 8C28.2948 8 28.2948 10 30.3956 10C32.4962 10 32.4962 8 34.597 8C36.6978 8 36.6978 10 38.7986 10C40.8992 10 40.8992 8 43 8" stroke="#51D2DA" stroke-miterlimit="10" stroke-linecap="round"/>
<path d="M1 10C3.10074 10 3.10074 12 5.20148 12C7.30222 12 7.30222 10 9.40296 10C11.5037 10 11.5037 12 13.5995 12C15.7003 12 15.7003 10 17.7961 10C19.8969 10 19.8969 12 21.9926 12C24.0934 12 24.0934 10 26.194 10C28.2948 10 28.2948 12 30.3956 12C32.4962 12 32.4962 10 34.597 10C36.6978 10 36.6978 12 38.7986 12C40.8992 12 40.8992 10 43 10" stroke="#51D2DA" stroke-miterlimit="10" stroke-linecap="round"/>
<path d="M1 12C3.10074 12 3.10074 14 5.20148 14C7.30222 14 7.30222 12 9.40296 12C11.5037 12 11.5037 14 13.5995 14C15.7003 14 15.7003 12 17.7961 12C19.8969 12 19.8969 14 21.9926 14C24.0934 14 24.0934 12 26.194 12C28.2948 12 28.2948 14 30.3956 14C32.4962 14 32.4962 12 34.597 12C36.6978 12 36.6978 14 38.7986 14C40.8992 14 40.8992 12 43 12" stroke="#51D2DA" stroke-miterlimit="10" stroke-linecap="round"/>
<path d="M1 14C3.10074 14 3.10074 16 5.20148 16C7.30222 16 7.30222 14 9.40296 14C11.5037 14 11.5037 16 13.5995 16C15.7003 16 15.7003 14 17.7961 14C19.8969 14 19.8969 16 21.9926 16C24.0934 16 24.0934 14 26.194 14C28.2948 14 28.2948 16 30.3956 16C32.4962 16 32.4962 14 34.597 14C36.6978 14 36.6978 16 38.7986 16C40.8992 16 40.8992 14 43 14" stroke="#51D2DA" stroke-miterlimit="10" stroke-linecap="round"/>
<path d="M1 16C3.10074 16 3.10074 18 5.20148 18C7.30222 18 7.30222 16 9.40296 16C11.5037 16 11.5037 18 13.5995 18C15.7003 18 15.7003 16 17.7961 16C19.8969 16 19.8969 18 21.9926 18C24.0934 18 24.0934 16 26.194 16C28.2948 16 28.2948 18 30.3956 18C32.4962 18 32.4962 16 34.597 16C36.6978 16 36.6978 18 38.7986 18C40.8992 18 40.8992 16 43 16" stroke="#51D2DA" stroke-miterlimit="10" stroke-linecap="round"/>
<path d="M1 18C3.10074 18 3.10074 20 5.20148 20C7.30222 20 7.30222 18 9.40296 18C11.5037 18 11.5037 20 13.5995 20C15.7003 20 15.7003 18 17.7961 18C19.8969 18 19.8969 20 21.9926 20C24.0934 20 24.0934 18 26.194 18C28.2948 18 28.2948 20 30.3956 20C32.4962 20 32.4962 18 34.597 18C36.6978 18 36.6978 20 38.7986 20C40.8992 20 40.8992 18 43 18" stroke="#51D2DA" stroke-miterlimit="10" stroke-linecap="round"/>
<path d="M1 20C3.10074 20 3.10074 22 5.20148 22C7.30222 22 7.30222 20 9.40296 20C11.5037 20 11.5037 22 13.5995 22C15.7003 22 15.7003 20 17.7961 20C19.8969 20 19.8969 22 21.9926 22C24.0934 22 24.0934 20 26.194 20C28.2948 20 28.2948 22 30.3956 22C32.4962 22 32.4962 20 34.597 20C36.6978 20 36.6978 22 38.7986 22C40.8992 22 40.8992 20 43 20" stroke="#51D2DA" stroke-miterlimit="10" stroke-linecap="round"/>
<path d="M1 22C3.10074 22 3.10074 24 5.20148 24C7.30222 24 7.30222 22 9.40296 22C11.5037 22 11.5037 24 13.5995 24C15.7003 24 15.7003 22 17.7961 22C19.8969 22 19.8969 24 21.9926 24C24.0934 24 24.0934 22 26.194 22C28.2948 22 28.2948 24 30.3956 24C32.4962 24 32.4962 22 34.597 22C36.6978 22 36.6978 24 38.7986 24C40.8992 24 40.8992 22 43 22" stroke="#51D2DA" stroke-miterlimit="10" stroke-linecap="round"/>
<path d="M1 24C3.10074 24 3.10074 26 5.20148 26C7.30222 26 7.30222 24 9.40296 24C11.5037 24 11.5037 26 13.5995 26C15.7003 26 15.7003 24 17.7961 24C19.8969 24 19.8969 26 21.9926 26C24.0934 26 24.0934 24 26.194 24C28.2948 24 28.2948 26 30.3956 26C32.4962 26 32.4962 24 34.597 24C36.6978 24 36.6978 26 38.7986 26C40.8992 26 40.8992 24 43 24" stroke="#51D2DA" stroke-miterlimit="10" stroke-linecap="round"/>
<path d="M1 26C3.10074 26 3.10074 28 5.20148 28C7.30222 28 7.30222 26 9.40296 26C11.5037 26 11.5037 28 13.5995 28C15.7003 28 15.7003 26 17.7961 26C19.8969 26 19.8969 28 21.9926 28C24.0934 28 24.0934 26 26.194 26C28.2948 26 28.2948 28 30.3956 28C32.4962 28 32.4962 26 34.597 26C36.6978 26 36.6978 28 38.7986 28C40.8992 28 40.8992 26 43 26" stroke="#51D2DA" stroke-miterlimit="10" stroke-linecap="round"/>
<path d="M1 28C3.10074 28 3.10074 30 5.20148 30C7.30222 30 7.30222 28 9.40296 28C11.5037 28 11.5037 30 13.5995 30C15.7003 30 15.7003 28 17.7961 28C19.8969 28 19.8969 30 21.9926 30C24.0934 30 24.0934 28 26.194 28C28.2948 28 28.2948 30 30.3956 30C32.4962 30 32.4962 28 34.597 28C36.6978 28 36.6978 30 38.7986 30C40.8992 30 40.8992 28 43 28" stroke="#51D2DA" stroke-miterlimit="10" stroke-linecap="round"/>
<path fill-rule="evenodd" clip-rule="evenodd" d="M31.7224 16.0804C31.7121 18.7611 29.6828 21.2578 30.3197 23.8645C31.0114 26.6957 32.4679 30.1733 35.3415 30.8939C38.4453 31.6722 40.9145 27.9359 44.0536 27.3083C46.3448 26.8502 48.6191 28.1116 50.9323 27.7765C54.0625 27.3231 57.7412 27.3548 59.8312 25.0228C61.9021 22.7119 62.6201 18.9216 61.4142 16.0804C60.1739 13.1585 55.4173 13.2929 53.7121 10.6062C52.1015 8.06855 54.687 3.86158 52.4033 1.88326C50.2782 0.0423976 46.7969 1.54067 44.0536 2.23947C41.7392 2.82902 40.0571 4.61295 37.8797 5.58286C35.4077 6.68403 31.7343 6.02098 30.3797 8.33043C29.0247 10.6407 31.7327 13.4146 31.7224 16.0804Z" fill="white" stroke="#0E1825"/>
<path d="M34.555 16.43L34.25 15.405C34.69 15.185 35.1283 14.9667 35.565 14.75C36.005 14.53 36.445 14.31 36.885 14.09L36.84 15.275C36.46 15.4683 36.08 15.6617 35.7 15.855C35.32 16.045 34.9383 16.2367 34.555 16.43ZM36.21 21C36.21 20.64 36.21 20.2917 36.21 19.955C36.21 19.6183 36.21 19.2433 36.21 18.83V16.765C36.21 16.4183 36.21 16.0717 36.21 15.725C36.21 15.3783 36.21 15.03 36.21 14.68L36.885 14.09L37.52 14.13C37.52 14.5167 37.52 14.91 37.52 15.31C37.52 15.7067 37.52 16.11 37.52 16.52V18.83C37.52 19.2433 37.52 19.6183 37.52 19.955C37.52 20.2917 37.52 20.64 37.52 21H36.21ZM41.7734 21.12C41.2667 21.12 40.8317 21.03 40.4684 20.85C40.1084 20.67 39.8134 20.4183 39.5834 20.095C39.3567 19.7717 39.1884 19.395 39.0784 18.965C38.9717 18.5317 38.9184 18.0633 38.9184 17.56C38.9184 16.8567 39.02 16.2367 39.2234 15.7C39.4267 15.1633 39.7367 14.745 40.1534 14.445C40.57 14.1417 41.0984 13.99 41.7384 13.99C42.225 13.99 42.6467 14.0767 43.0034 14.25C43.36 14.4233 43.655 14.6683 43.8884 14.985C44.1217 15.3017 44.295 15.6783 44.4084 16.115C44.5217 16.5517 44.5784 17.0317 44.5784 17.555C44.5784 18.275 44.4734 18.9033 44.2634 19.44C44.0567 19.9733 43.745 20.3867 43.3284 20.68C42.9117 20.9733 42.3934 21.12 41.7734 21.12ZM41.7534 20.015C42.11 20.015 42.395 19.9083 42.6084 19.695C42.825 19.4817 42.9817 19.19 43.0784 18.82C43.1784 18.45 43.2284 18.0283 43.2284 17.555C43.2284 17.055 43.175 16.6217 43.0684 16.255C42.965 15.8883 42.805 15.605 42.5884 15.405C42.3717 15.2017 42.0934 15.1 41.7534 15.1C41.4067 15.1 41.1234 15.205 40.9034 15.415C40.6867 15.6217 40.5267 15.91 40.4234 16.28C40.3234 16.6467 40.2734 17.0717 40.2734 17.555C40.2734 18.035 40.3217 18.46 40.4184 18.83C40.515 19.2 40.6717 19.49 40.8884 19.7C41.1084 19.91 41.3967 20.015 41.7534 20.015ZM47.604 21C47.604 20.64 47.604 20.2917 47.604 19.955C47.604 19.6183 47.604 19.2433 47.604 18.83V18.33C47.604 18.01 47.604 17.7217 47.604 17.465C47.604 17.205 47.604 16.96 47.604 16.73C47.604 16.4967 47.604 16.26 47.604 16.02H51.144V17.025C50.834 17.025 50.519 17.025 50.199 17.025C49.8823 17.025 49.5723 17.025 49.269 17.025H48.129L48.874 16.22C48.874 16.4467 48.874 16.665 48.874 16.875C48.874 17.085 48.874 17.3067 48.874 17.54C48.874 17.7733 48.874 18.0367 48.874 18.33V18.83C48.874 19.2433 48.874 19.6183 48.874 19.955C48.874 20.2917 48.874 20.64 48.874 21H47.604ZM53.2433 21.115C52.9633 21.115 52.7133 21.0567 52.4933 20.94C52.2733 20.8233 52.0983 20.655 51.9683 20.435C51.8416 20.2117 51.7783 19.9433 51.7783 19.63C51.7783 19.3533 51.8266 19.12 51.9233 18.93C52.0199 18.7367 52.1466 18.58 52.3033 18.46C52.4633 18.3367 52.6383 18.2417 52.8283 18.175C53.0216 18.1083 53.2166 18.06 53.4133 18.03L54.8383 17.82C54.8483 17.5867 54.8083 17.4067 54.7183 17.28C54.6316 17.1533 54.5066 17.0667 54.3433 17.02C54.1799 16.97 53.9916 16.945 53.7783 16.945C53.6649 16.945 53.5416 16.955 53.4083 16.975C53.2783 16.9917 53.1399 17.0183 52.9933 17.055C52.8499 17.0917 52.6999 17.1383 52.5433 17.195C52.3866 17.2483 52.2266 17.3133 52.0633 17.39L52.0033 16.285C52.1266 16.2383 52.2649 16.1917 52.4183 16.145C52.5749 16.0983 52.7449 16.0567 52.9283 16.02C53.1116 15.98 53.3016 15.95 53.4983 15.93C53.6983 15.9067 53.9033 15.895 54.1133 15.895C54.5199 15.895 54.8666 15.955 55.1533 16.075C55.4433 16.1917 55.6649 16.38 55.8183 16.64C55.9716 16.8967 56.0483 17.2317 56.0483 17.645C56.0483 17.805 56.0483 18.0033 56.0483 18.24C56.0483 18.4767 56.0483 18.6933 56.0483 18.89V19.44C56.0483 19.6833 56.0483 19.9317 56.0483 20.185C56.0483 20.435 56.0483 20.7067 56.0483 21H54.9233L54.8483 20.35H54.7433C54.6499 20.4733 54.5333 20.5933 54.3933 20.71C54.2533 20.8233 54.0866 20.92 53.8933 21C53.7033 21.0767 53.4866 21.115 53.2433 21.115ZM53.7033 20.12C53.8433 20.12 53.9816 20.0867 54.1183 20.02C54.2549 19.9533 54.3816 19.86 54.4983 19.74C54.6183 19.62 54.7199 19.4767 54.8033 19.31V18.525C54.7599 18.555 54.7016 18.5833 54.6283 18.61C54.5583 18.6333 54.4533 18.66 54.3133 18.69C54.1733 18.72 53.9766 18.7583 53.7233 18.805C53.5799 18.8317 53.4583 18.8767 53.3583 18.94C53.2616 19.0033 53.1866 19.085 53.1333 19.185C53.0799 19.285 53.0533 19.4 53.0533 19.53C53.0533 19.7467 53.1183 19.9 53.2483 19.99C53.3816 20.0767 53.5333 20.12 53.7033 20.12Z" fill="#0E1825"/>
</svg>
