<svg width="114" height="155" viewBox="0 0 114 155" fill="none" xmlns="http://www.w3.org/2000/svg">
<path d="M4 19V147.5L78.5 151.5L110.5 116.5L109 20L65.5 19L56 7.5H38.5L30.5 19H4Z" fill="white"/>
<path fill-rule="evenodd" clip-rule="evenodd" d="M102.92 26.9928L44.1442 26.2955L45.2349 16.7715L59.2055 17.0101C55.1322 5.35546 36.0855 9.63279 36.0348 21.1488C36.0348 29.4115 36.2895 62.2581 36.2229 88.2235C36.2229 98.5475 53.4629 100.506 53.2589 87.3021C53.2589 84.0995 52.5442 39.6861 52.5442 39.6861L62.0322 40.0941C62.0322 40.0941 63.3948 84.9008 63.5148 88.2568C64.3842 112.398 26.5282 111.631 26.1362 88.9888C25.5922 55.9048 25.7615 39.4648 25.9148 26.0395L9.98686 25.8528L11.5869 141.479L71.7948 145.039L72.2882 110.471L103.84 111.29L102.92 26.9928ZM1.67086 150.781L0.853516 16.0208L26.4095 16.4475C31.1455 -6.29654 65.7815 -4.88188 68.7455 17.1635L112.718 17.9115L113.296 118.991L81.1655 154.614L1.67086 150.781Z" fill="#DC46AA"/>
</svg>
