<svg width="25" height="25" viewBox="0 0 25 25" fill="none" xmlns="http://www.w3.org/2000/svg">
<g clip-path="url(#clip0_1761_41273)">
<path d="M12.5 0C5.59639 0 0 5.59639 0 12.5C0 19.4036 5.59639 25 12.5 25C19.4036 25 25 19.4036 25 12.5C25 5.59639 19.4036 0 12.5 0Z" fill="#40B3E0"/>
<path d="M18.5822 7.19044L16.3495 18.4472C16.3495 18.4472 16.0373 19.2278 15.1786 18.8531L10.0265 14.9031L8.15303 13.9977L4.99932 12.936C4.99932 12.936 4.51533 12.7643 4.46846 12.3896C4.42158 12.0149 5.01494 11.8119 5.01494 11.8119L17.5517 6.89396C17.5517 6.89396 18.5821 6.44122 18.5821 7.19064" fill="white"/>
<path d="M9.63086 18.3206C9.63086 18.3206 9.48047 18.3065 9.29297 17.7132C9.10576 17.1199 8.15332 13.9975 8.15332 13.9975L15.7254 9.18886C15.7254 9.18886 16.1626 8.92343 16.147 9.18886C16.147 9.18886 16.225 9.23574 15.9907 9.45429C15.7566 9.67294 10.0425 14.8094 10.0425 14.8094" fill="#D2E5F1"/>
<path d="M12.0022 16.4172L9.96445 18.2752C9.96445 18.2752 9.80508 18.3961 9.63086 18.3203L10.0211 14.8691" fill="#B5CFE4"/>
</g>
<defs>
<clipPath id="clip0_1761_41273">
<rect width="25" height="25" fill="white"/>
</clipPath>
</defs>
</svg>
