<svg width="24" height="24" viewBox="0 0 24 24" fill="none" xmlns="http://www.w3.org/2000/svg">
<path d="M12 24C18.6274 24 24 18.6274 24 12C24 5.37258 18.6274 0 12 0C5.37258 0 0 5.37258 0 12C0 18.6274 5.37258 24 12 24Z" fill="#F5F8FA"/>
<path d="M12.0002 7.33339C11.6322 7.33339 11.3335 7.03472 11.3335 6.66672V2.00006C11.3335 1.63206 11.6322 1.33339 12.0002 1.33339C12.3682 1.33339 12.6669 1.63206 12.6669 2.00006V6.66672C12.6669 7.03472 12.3682 7.33339 12.0002 7.33339ZM7.61153 10.3334C7.54487 10.3334 7.47687 10.3234 7.4102 10.3021L2.04953 8.60739C1.6982 8.49606 1.50353 8.12206 1.61487 7.77072C1.72553 7.41939 2.10153 7.22539 2.45153 7.33605L7.81287 9.03072C8.1642 9.14205 8.35887 9.51672 8.24753 9.86739C8.15687 10.1514 7.8942 10.3334 7.61153 10.3334ZM16.6949 10.1394C16.4055 10.1394 16.1395 9.94939 16.0549 9.65806C15.9522 9.30406 16.1555 8.93472 16.5095 8.83206L21.0095 7.52672C21.3635 7.42472 21.7329 7.62872 21.8349 7.98139C21.9375 8.33539 21.7342 8.70472 21.3802 8.80739L16.8802 10.1127C16.8189 10.1307 16.7562 10.1394 16.6949 10.1394ZM18.0289 20.1114C17.8249 20.1114 17.6249 20.0181 17.4935 19.8427L13.8542 14.9541C13.6342 14.6594 13.6955 14.2414 13.9909 14.0214C14.2855 13.8007 14.7035 13.8627 14.9235 14.1581L18.5629 19.0467C18.7829 19.3414 18.7215 19.7594 18.4262 19.9794C18.3069 20.0687 18.1669 20.1114 18.0289 20.1114ZM5.83287 20.0561C5.70153 20.0561 5.56953 20.0174 5.45287 19.9367C5.1502 19.7261 5.0762 19.3114 5.2862 19.0087L8.70287 14.0921C8.91287 13.7894 9.3282 13.7147 9.63087 13.9247C9.93353 14.1347 10.0075 14.5507 9.79753 14.8527L6.38087 19.7694C6.25153 19.9567 6.04353 20.0561 5.83287 20.0561ZM2.33353 18.0414C2.0402 18.0414 1.77087 17.8461 1.6902 17.5494L0.231533 12.1747C0.134866 11.8194 0.344866 11.4534 0.700866 11.3567C1.05753 11.2627 1.42287 11.4707 1.51887 11.8261L2.97753 17.2007C3.0742 17.5561 2.8642 17.9221 2.5082 18.0181C2.44953 18.0347 2.39087 18.0414 2.33353 18.0414ZM14.6669 22.6667H8.66687C8.29887 22.6667 8.0002 22.3687 8.0002 22.0001C8.0002 21.6314 8.29887 21.3334 8.66687 21.3334H14.6669C15.0355 21.3334 15.3335 21.6314 15.3335 22.0001C15.3335 22.3687 15.0355 22.6667 14.6669 22.6667ZM21.4175 18.0834C21.3649 18.0834 21.3109 18.0774 21.2575 18.0641C20.9002 17.9761 20.6815 17.6147 20.7702 17.2574L22.1869 11.5074C22.2755 11.1501 22.6395 10.9327 22.9935 11.0194C23.3509 11.1074 23.5695 11.4687 23.4809 11.8267L22.0642 17.5767C21.9889 17.8801 21.7169 18.0834 21.4175 18.0834ZM20.2082 5.12539C20.0949 5.12539 19.9802 5.09672 19.8749 5.03606L14.8335 2.11939C14.5149 1.93472 14.4055 1.52739 14.5909 1.20806C14.7742 0.889389 15.1815 0.779389 15.5015 0.964722L20.5429 3.88139C20.8615 4.06606 20.9709 4.47339 20.7855 4.79272C20.6622 5.00606 20.4382 5.12539 20.2082 5.12539ZM3.66753 5.12539C3.45953 5.12539 3.25553 5.02872 3.12553 4.84739C2.91087 4.54739 2.97887 4.13139 3.2782 3.91672L7.40353 0.958056C7.70287 0.743389 8.11953 0.812056 8.3342 1.11072C8.54887 1.41006 8.4802 1.82672 8.18153 2.04139L4.05553 5.00006C3.93753 5.08406 3.8022 5.12539 3.66753 5.12539Z" fill="#CCD6DD"/>
<path d="M16.9953 9.01067L12.19 5.622C11.958 5.45867 11.6473 5.46 11.416 5.626L6.638 9.07067C6.40933 9.236 6.30867 9.52667 6.388 9.798L8.05467 15.52C8.13733 15.804 8.398 16 8.69467 16H14.6667C14.9533 16 15.2067 15.8173 15.2987 15.546L17.2433 9.768C17.3373 9.48867 17.236 9.18067 16.9953 9.01067ZM0.861333 13.028C0.9 13.028 0.939333 13.0247 0.978 13.0173C1.174 12.9827 1.34467 12.862 1.44267 12.688L3.69267 8.688C3.72667 8.62733 3.75067 8.56267 3.76467 8.494L4.65333 4.13333C4.69333 3.93733 4.64267 3.73333 4.516 3.57867C4.38933 3.42333 4.2 3.33333 4 3.33333H3.71467C1.43 5.518 0 8.58933 0 12C0 12.1773 0.0186667 12.35 0.0266667 12.5253L0.428 12.868C0.549333 12.972 0.703333 13.028 0.861333 13.028ZM7.078 1.99667C7.14867 2.14267 7.28667 2.24533 7.44667 2.27133L11.6967 2.966C11.7233 2.97 11.7507 2.97267 11.7773 2.97267C11.804 2.97267 11.8313 2.97067 11.8587 2.966L15.9147 2.29933C16.048 2.27733 16.168 2.202 16.2447 2.09C16.322 1.978 16.35 1.84 16.3233 1.70667L16.1287 0.744667C14.84 0.271333 13.4533 0 12 0C10.3833 0 8.844 0.324 7.43667 0.904L7.08933 1.53733C7.01133 1.67933 7.00733 1.85067 7.078 1.99667ZM20.756 3.81267L19.7533 3.74933C19.6013 3.74067 19.45 3.8 19.3473 3.91533C19.246 4.03067 19.202 4.18333 19.2307 4.33533L20.0087 8.46733C20.02 8.52467 20.0407 8.566 20.0707 8.61667C21.0653 10.286 22.172 12.1507 22.3247 12.4713C22.3407 12.5273 22.366 12.524 22.4007 12.572C22.494 12.702 22.6487 12.6667 22.8087 12.6667H22.8133C22.9453 12.6667 23.0287 12.7293 23.992 12.1647C23.9927 12.1093 24 12.0553 24 12C24 8.83133 22.7627 5.95733 20.756 3.81267ZM9.694 22.2507C9.70133 22.118 9.65533 21.9873 9.56667 21.888L6.56667 18.5547C6.52667 18.5107 6.47933 18.4733 6.426 18.446C2.50267 16.4 2.43 16.376 2.382 16.3593C2.33 16.3427 2.27467 16.3333 2.22067 16.3333C1.86267 16.3333 1.75733 16.3767 1.43067 17.6827C2.92133 20.4487 5.466 22.56 8.52667 23.4847L9.52667 22.596C9.626 22.508 9.686 22.3833 9.694 22.2507ZM21.5827 16.5393C21.4567 16.486 21.3127 16.4873 21.188 16.5427L17.1327 18.3207C17.062 18.3513 16.9993 18.398 16.95 18.4573L14.1167 21.846C14.0307 21.9487 13.99 22.0807 14.002 22.214C14.0153 22.3473 14.08 22.47 14.1833 22.554C14.6387 22.9267 15.024 23.2407 15.3613 23.514C18.3193 22.6513 20.7973 20.682 22.3307 18.0833L21.856 16.824C21.808 16.6953 21.7087 16.5927 21.5827 16.5393Z" fill="#31373D"/>
</svg>
