<svg width="61" height="61" viewBox="0 0 61 61" fill="none" xmlns="http://www.w3.org/2000/svg">
<path d="M21.0507 0.0599976C21.7107 0.0599976 22.2506 0.599994 22.2506 1.25999C22.2506 1.91999 21.7107 2.46001 21.0507 2.46001C20.3907 2.46001 19.8506 1.91999 19.8506 1.25999C19.8506 0.589994 20.3907 0.0599976 21.0507 0.0599976Z" fill="#51D2DA"/>
<path d="M28.2507 0.0599976C28.9107 0.0599976 29.4507 0.599994 29.4507 1.25999C29.4507 1.91999 28.9107 2.46001 28.2507 2.46001C27.5907 2.46001 27.0508 1.91999 27.0508 1.25999C27.0508 0.589994 27.5907 0.0599976 28.2507 0.0599976Z" fill="#51D2DA"/>
<path d="M21.0507 2.4599C21.7107 2.4599 22.2506 2.9999 22.2506 3.6599C22.2506 4.3199 21.7107 4.85989 21.0507 4.85989C20.3907 4.85989 19.8506 4.3199 19.8506 3.6599C19.8506 2.9899 20.3907 2.4599 21.0507 2.4599Z" fill="#51D2DA"/>
<path d="M25.8503 2.46002C26.5103 2.46002 27.0504 3.00002 27.0504 3.66002C27.0504 4.32002 26.5103 4.86002 25.8503 4.86002C25.1903 4.86002 24.6504 4.32002 24.6504 3.66002C24.6504 2.99002 25.1903 2.46002 25.8503 2.46002Z" fill="#51D2DA"/>
<path d="M35.45 2.4599C36.11 2.4599 36.65 2.9999 36.65 3.6599C36.65 4.3199 36.11 4.85989 35.45 4.85989C34.79 4.85989 34.25 4.3199 34.25 3.6599C34.25 2.9899 34.79 2.4599 35.45 2.4599Z" fill="#51D2DA"/>
<path d="M40.2507 2.4599C40.9107 2.4599 41.4507 2.9999 41.4507 3.6599C41.4507 4.3199 40.9107 4.85989 40.2507 4.85989C39.5907 4.85989 39.0508 4.3199 39.0508 3.6599C39.0508 2.9899 39.5907 2.4599 40.2507 2.4599Z" fill="#51D2DA"/>
<path d="M21.0507 4.86005C21.7107 4.86005 22.2506 5.40004 22.2506 6.06004C22.2506 6.72004 21.7107 7.26004 21.0507 7.26004C20.3907 7.26004 19.8506 6.72004 19.8506 6.06004C19.8506 5.39004 20.3907 4.86005 21.0507 4.86005Z" fill="#51D2DA"/>
<path d="M30.6503 4.85999C31.3103 4.85999 31.8502 5.39998 31.8502 6.05998C31.8502 6.71998 31.3103 7.25998 30.6503 7.25998C29.9903 7.25998 29.4502 6.71998 29.4502 6.05998C29.4502 5.38998 29.9903 4.85999 30.6503 4.85999Z" fill="#51D2DA"/>
<path d="M33.0507 4.86005C33.7107 4.86005 34.2506 5.40004 34.2506 6.06004C34.2506 6.72004 33.7107 7.26004 33.0507 7.26004C32.3907 7.26004 31.8506 6.72004 31.8506 6.06004C31.8506 5.39004 32.3907 4.86005 33.0507 4.86005Z" fill="#51D2DA"/>
<path d="M37.8503 4.85999C38.5103 4.85999 39.0504 5.39998 39.0504 6.05998C39.0504 6.71998 38.5103 7.25998 37.8503 7.25998C37.1903 7.25998 36.6504 6.71998 36.6504 6.05998C36.6504 5.38998 37.1903 4.85999 37.8503 4.85999Z" fill="#51D2DA"/>
<path d="M40.2507 4.86005C40.9107 4.86005 41.4507 5.40004 41.4507 6.06004C41.4507 6.72004 40.9107 7.26004 40.2507 7.26004C39.5907 7.26004 39.0508 6.72004 39.0508 6.06004C39.0508 5.39004 39.5907 4.86005 40.2507 4.86005Z" fill="#51D2DA"/>
<path d="M23.45 7.25995C24.11 7.25995 24.65 7.79996 24.65 8.45996C24.65 9.11996 24.11 9.65996 23.45 9.65996C22.79 9.65996 22.25 9.11996 22.25 8.45996C22.25 7.78996 22.79 7.25995 23.45 7.25995Z" fill="#51D2DA"/>
<path d="M25.8503 7.26001C26.5103 7.26001 27.0504 7.80002 27.0504 8.46002C27.0504 9.12002 26.5103 9.66002 25.8503 9.66002C25.1903 9.66002 24.6504 9.12002 24.6504 8.46002C24.6504 7.79002 25.1903 7.26001 25.8503 7.26001Z" fill="#51D2DA"/>
<path d="M30.6503 7.26001C31.3103 7.26001 31.8502 7.80002 31.8502 8.46002C31.8502 9.12002 31.3103 9.66002 30.6503 9.66002C29.9903 9.66002 29.4502 9.12002 29.4502 8.46002C29.4502 7.79002 29.9903 7.26001 30.6503 7.26001Z" fill="#51D2DA"/>
<path d="M33.0507 7.25995C33.7107 7.25995 34.2506 7.79996 34.2506 8.45996C34.2506 9.11996 33.7107 9.65996 33.0507 9.65996C32.3907 9.65996 31.8506 9.11996 31.8506 8.45996C31.8506 7.78996 32.3907 7.25995 33.0507 7.25995Z" fill="#51D2DA"/>
<path d="M37.8503 7.26001C38.5103 7.26001 39.0504 7.80002 39.0504 8.46002C39.0504 9.12002 38.5103 9.66002 37.8503 9.66002C37.1903 9.66002 36.6504 9.12002 36.6504 8.46002C36.6504 7.79002 37.1903 7.26001 37.8503 7.26001Z" fill="#51D2DA"/>
<path d="M40.2507 7.25995C40.9107 7.25995 41.4507 7.79996 41.4507 8.45996C41.4507 9.11996 40.9107 9.65996 40.2507 9.65996C39.5907 9.65996 39.0508 9.11996 39.0508 8.45996C39.0508 7.78996 39.5907 7.25995 40.2507 7.25995Z" fill="#51D2DA"/>
<path d="M21.0507 9.6601C21.7107 9.6601 22.2506 10.2001 22.2506 10.8601C22.2506 11.5201 21.7107 12.0601 21.0507 12.0601C20.3907 12.0601 19.8506 11.5201 19.8506 10.8601C19.8506 10.1901 20.3907 9.6601 21.0507 9.6601Z" fill="#51D2DA"/>
<path d="M23.45 9.6601C24.11 9.6601 24.65 10.2001 24.65 10.8601C24.65 11.5201 24.11 12.0601 23.45 12.0601C22.79 12.0601 22.25 11.5201 22.25 10.8601C22.25 10.1901 22.79 9.6601 23.45 9.6601Z" fill="#51D2DA"/>
<path d="M28.2507 9.6601C28.9107 9.6601 29.4507 10.2001 29.4507 10.8601C29.4507 11.5201 28.9107 12.0601 28.2507 12.0601C27.5907 12.0601 27.0508 11.5201 27.0508 10.8601C27.0508 10.1901 27.5907 9.6601 28.2507 9.6601Z" fill="#51D2DA"/>
<path d="M33.0507 9.6601C33.7107 9.6601 34.2506 10.2001 34.2506 10.8601C34.2506 11.5201 33.7107 12.0601 33.0507 12.0601C32.3907 12.0601 31.8506 11.5201 31.8506 10.8601C31.8506 10.1901 32.3907 9.6601 33.0507 9.6601Z" fill="#51D2DA"/>
<path d="M40.2507 9.6601C40.9107 9.6601 41.4507 10.2001 41.4507 10.8601C41.4507 11.5201 40.9107 12.0601 40.2507 12.0601C39.5907 12.0601 39.0508 11.5201 39.0508 10.8601C39.0508 10.1901 39.5907 9.6601 40.2507 9.6601Z" fill="#51D2DA"/>
<path d="M23.45 12.06C24.11 12.06 24.65 12.6 24.65 13.26C24.65 13.92 24.11 14.46 23.45 14.46C22.79 14.46 22.25 13.92 22.25 13.26C22.25 12.6 22.79 12.06 23.45 12.06Z" fill="#51D2DA"/>
<path d="M25.8503 12.06C26.5103 12.06 27.0504 12.6 27.0504 13.26C27.0504 13.92 26.5103 14.46 25.8503 14.46C25.1903 14.46 24.6504 13.92 24.6504 13.26C24.6504 12.6 25.1903 12.06 25.8503 12.06Z" fill="#51D2DA"/>
<path d="M33.0507 12.06C33.7107 12.06 34.2506 12.6 34.2506 13.26C34.2506 13.92 33.7107 14.46 33.0507 14.46C32.3907 14.46 31.8506 13.92 31.8506 13.26C31.8506 12.6 32.3907 12.06 33.0507 12.06Z" fill="#51D2DA"/>
<path d="M40.2507 12.06C40.9107 12.06 41.4507 12.6 41.4507 13.26C41.4507 13.92 40.9107 14.46 40.2507 14.46C39.5907 14.46 39.0508 13.92 39.0508 13.26C39.0508 12.6 39.5907 12.06 40.2507 12.06Z" fill="#51D2DA"/>
<path d="M21.0507 14.4599C21.7107 14.4599 22.2506 14.9999 22.2506 15.6599C22.2506 16.3199 21.7107 16.8599 21.0507 16.8599C20.3907 16.8599 19.8506 16.3199 19.8506 15.6599C19.8506 14.9899 20.3907 14.4599 21.0507 14.4599Z" fill="#51D2DA"/>
<path d="M25.8503 14.46C26.5103 14.46 27.0504 15 27.0504 15.66C27.0504 16.32 26.5103 16.86 25.8503 16.86C25.1903 16.86 24.6504 16.32 24.6504 15.66C24.6504 14.99 25.1903 14.46 25.8503 14.46Z" fill="#51D2DA"/>
<path d="M30.6503 14.46C31.3103 14.46 31.8502 15 31.8502 15.66C31.8502 16.32 31.3103 16.86 30.6503 16.86C29.9903 16.86 29.4502 16.32 29.4502 15.66C29.4502 14.99 29.9903 14.46 30.6503 14.46Z" fill="#51D2DA"/>
<path d="M35.45 14.4599C36.11 14.4599 36.65 14.9999 36.65 15.6599C36.65 16.3199 36.11 16.8599 35.45 16.8599C34.79 16.8599 34.25 16.3199 34.25 15.6599C34.25 14.9899 34.79 14.4599 35.45 14.4599Z" fill="#51D2DA"/>
<path d="M40.2507 14.4599C40.9107 14.4599 41.4507 14.9999 41.4507 15.6599C41.4507 16.3199 40.9107 16.8599 40.2507 16.8599C39.5907 16.8599 39.0508 16.3199 39.0508 15.6599C39.0508 14.9899 39.5907 14.4599 40.2507 14.4599Z" fill="#51D2DA"/>
<path d="M23.45 16.86C24.11 16.86 24.65 17.4 24.65 18.06C24.65 18.72 24.11 19.26 23.45 19.26C22.79 19.26 22.25 18.72 22.25 18.06C22.25 17.39 22.79 16.86 23.45 16.86Z" fill="#51D2DA"/>
<path d="M33.0507 16.86C33.7107 16.86 34.2506 17.4 34.2506 18.06C34.2506 18.72 33.7107 19.26 33.0507 19.26C32.3907 19.26 31.8506 18.72 31.8506 18.06C31.8506 17.39 32.3907 16.86 33.0507 16.86Z" fill="#51D2DA"/>
<path d="M35.45 16.86C36.11 16.86 36.65 17.4 36.65 18.06C36.65 18.72 36.11 19.26 35.45 19.26C34.79 19.26 34.25 18.72 34.25 18.06C34.25 17.39 34.79 16.86 35.45 16.86Z" fill="#51D2DA"/>
<path d="M37.8503 16.86C38.5103 16.86 39.0504 17.4 39.0504 18.06C39.0504 18.72 38.5103 19.26 37.8503 19.26C37.1903 19.26 36.6504 18.72 36.6504 18.06C36.6504 17.39 37.1903 16.86 37.8503 16.86Z" fill="#51D2DA"/>
<path d="M40.2507 16.86C40.9107 16.86 41.4507 17.4 41.4507 18.06C41.4507 18.72 40.9107 19.26 40.2507 19.26C39.5907 19.26 39.0508 18.72 39.0508 18.06C39.0508 17.39 39.5907 16.86 40.2507 16.86Z" fill="#51D2DA"/>
<path d="M1.85034 19.26C2.51034 19.26 3.05042 19.8 3.05042 20.46C3.05042 21.12 2.51034 21.66 1.85034 21.66C1.19034 21.66 0.650391 21.12 0.650391 20.46C0.650391 19.8 1.19034 19.26 1.85034 19.26Z" fill="#51D2DA"/>
<path d="M9.05066 19.2599C9.71066 19.2599 10.2506 19.8 10.2506 20.46C10.2506 21.12 9.71066 21.66 9.05066 21.66C8.39066 21.66 7.85059 21.12 7.85059 20.46C7.85059 19.8 8.39066 19.2599 9.05066 19.2599Z" fill="#51D2DA"/>
<path d="M11.45 19.2599C12.11 19.2599 12.65 19.8 12.65 20.46C12.65 21.12 12.11 21.66 11.45 21.66C10.79 21.66 10.25 21.12 10.25 20.46C10.25 19.8 10.79 19.2599 11.45 19.2599Z" fill="#51D2DA"/>
<path d="M13.8503 19.26C14.5103 19.26 15.0504 19.8 15.0504 20.46C15.0504 21.12 14.5103 21.66 13.8503 21.66C13.1903 21.66 12.6504 21.12 12.6504 20.46C12.6504 19.8 13.1903 19.26 13.8503 19.26Z" fill="#51D2DA"/>
<path d="M16.2507 19.2599C16.9107 19.2599 17.4507 19.8 17.4507 20.46C17.4507 21.12 16.9107 21.66 16.2507 21.66C15.5907 21.66 15.0508 21.12 15.0508 20.46C15.0508 19.8 15.5907 19.2599 16.2507 19.2599Z" fill="#51D2DA"/>
<path d="M18.6503 19.26C19.3103 19.26 19.8502 19.8 19.8502 20.46C19.8502 21.12 19.3103 21.66 18.6503 21.66C17.9903 21.66 17.4502 21.12 17.4502 20.46C17.4502 19.8 17.9903 19.26 18.6503 19.26Z" fill="#51D2DA"/>
<path d="M21.0507 19.2599C21.7107 19.2599 22.2506 19.8 22.2506 20.46C22.2506 21.12 21.7107 21.66 21.0507 21.66C20.3907 21.66 19.8506 21.12 19.8506 20.46C19.8506 19.8 20.3907 19.2599 21.0507 19.2599Z" fill="#51D2DA"/>
<path d="M25.8503 19.26C26.5103 19.26 27.0504 19.8 27.0504 20.46C27.0504 21.12 26.5103 21.66 25.8503 21.66C25.1903 21.66 24.6504 21.12 24.6504 20.46C24.6504 19.8 25.1903 19.26 25.8503 19.26Z" fill="#51D2DA"/>
<path d="M28.2507 19.2599C28.9107 19.2599 29.4507 19.8 29.4507 20.46C29.4507 21.12 28.9107 21.66 28.2507 21.66C27.5907 21.66 27.0508 21.12 27.0508 20.46C27.0508 19.8 27.5907 19.2599 28.2507 19.2599Z" fill="#51D2DA"/>
<path d="M35.45 19.2599C36.11 19.2599 36.65 19.8 36.65 20.46C36.65 21.12 36.11 21.66 35.45 21.66C34.79 21.66 34.25 21.12 34.25 20.46C34.25 19.8 34.79 19.2599 35.45 19.2599Z" fill="#51D2DA"/>
<path d="M37.8503 19.26C38.5103 19.26 39.0504 19.8 39.0504 20.46C39.0504 21.12 38.5103 21.66 37.8503 21.66C37.1903 21.66 36.6504 21.12 36.6504 20.46C36.6504 19.8 37.1903 19.26 37.8503 19.26Z" fill="#51D2DA"/>
<path d="M42.6503 19.26C43.3103 19.26 43.8502 19.8 43.8502 20.46C43.8502 21.12 43.3103 21.66 42.6503 21.66C41.9903 21.66 41.4502 21.12 41.4502 20.46C41.4502 19.8 41.9903 19.26 42.6503 19.26Z" fill="#51D2DA"/>
<path d="M49.8503 19.26C50.5103 19.26 51.0504 19.8 51.0504 20.46C51.0504 21.12 50.5103 21.66 49.8503 21.66C49.1903 21.66 48.6504 21.12 48.6504 20.46C48.6504 19.8 49.1903 19.26 49.8503 19.26Z" fill="#51D2DA"/>
<path d="M54.6503 19.26C55.3103 19.26 55.8502 19.8 55.8502 20.46C55.8502 21.12 55.3103 21.66 54.6503 21.66C53.9903 21.66 53.4502 21.12 53.4502 20.46C53.4502 19.8 53.9903 19.26 54.6503 19.26Z" fill="#51D2DA"/>
<path d="M57.0507 19.2599C57.7107 19.2599 58.2506 19.8 58.2506 20.46C58.2506 21.12 57.7107 21.66 57.0507 21.66C56.3907 21.66 55.8506 21.12 55.8506 20.46C55.8506 19.8 56.3907 19.2599 57.0507 19.2599Z" fill="#51D2DA"/>
<path d="M59.45 19.2599C60.11 19.2599 60.65 19.8 60.65 20.46C60.65 21.12 60.11 21.66 59.45 21.66C58.79 21.66 58.25 21.12 58.25 20.46C58.25 19.8 58.79 19.2599 59.45 19.2599Z" fill="#51D2DA"/>
<path d="M11.45 21.6601C12.11 21.6601 12.65 22.2001 12.65 22.8601C12.65 23.5201 12.11 24.0601 11.45 24.0601C10.79 24.0601 10.25 23.5201 10.25 22.8601C10.25 22.2001 10.79 21.6601 11.45 21.6601Z" fill="#51D2DA"/>
<path d="M18.6503 21.66C19.3103 21.66 19.8502 22.2 19.8502 22.86C19.8502 23.52 19.3103 24.06 18.6503 24.06C17.9903 24.06 17.4502 23.52 17.4502 22.86C17.4502 22.2 17.9903 21.66 18.6503 21.66Z" fill="#51D2DA"/>
<path d="M33.0507 21.6601C33.7107 21.6601 34.2506 22.2001 34.2506 22.8601C34.2506 23.5201 33.7107 24.0601 33.0507 24.0601C32.3907 24.0601 31.8506 23.5201 31.8506 22.8601C31.8506 22.2001 32.3907 21.6601 33.0507 21.6601Z" fill="#51D2DA"/>
<path d="M35.45 21.6601C36.11 21.6601 36.65 22.2001 36.65 22.8601C36.65 23.5201 36.11 24.0601 35.45 24.0601C34.79 24.0601 34.25 23.5201 34.25 22.8601C34.25 22.2001 34.79 21.6601 35.45 21.6601Z" fill="#51D2DA"/>
<path d="M37.8503 21.66C38.5103 21.66 39.0504 22.2 39.0504 22.86C39.0504 23.52 38.5103 24.06 37.8503 24.06C37.1903 24.06 36.6504 23.52 36.6504 22.86C36.6504 22.2 37.1903 21.66 37.8503 21.66Z" fill="#51D2DA"/>
<path d="M47.45 21.6601C48.11 21.6601 48.65 22.2001 48.65 22.8601C48.65 23.5201 48.11 24.0601 47.45 24.0601C46.79 24.0601 46.25 23.5201 46.25 22.8601C46.25 22.2001 46.79 21.6601 47.45 21.6601Z" fill="#51D2DA"/>
<path d="M49.8503 21.66C50.5103 21.66 51.0504 22.2 51.0504 22.86C51.0504 23.52 50.5103 24.06 49.8503 24.06C49.1903 24.06 48.6504 23.52 48.6504 22.86C48.6504 22.2 49.1903 21.66 49.8503 21.66Z" fill="#51D2DA"/>
<path d="M52.2507 21.6601C52.9107 21.6601 53.4507 22.2001 53.4507 22.8601C53.4507 23.5201 52.9107 24.0601 52.2507 24.0601C51.5907 24.0601 51.0508 23.5201 51.0508 22.8601C51.0508 22.2001 51.5907 21.6601 52.2507 21.6601Z" fill="#51D2DA"/>
<path d="M54.6503 21.66C55.3103 21.66 55.8502 22.2 55.8502 22.86C55.8502 23.52 55.3103 24.06 54.6503 24.06C53.9903 24.06 53.4502 23.52 53.4502 22.86C53.4502 22.2 53.9903 21.66 54.6503 21.66Z" fill="#51D2DA"/>
<path d="M57.0507 21.6601C57.7107 21.6601 58.2506 22.2001 58.2506 22.8601C58.2506 23.5201 57.7107 24.0601 57.0507 24.0601C56.3907 24.0601 55.8506 23.5201 55.8506 22.8601C55.8506 22.2001 56.3907 21.6601 57.0507 21.6601Z" fill="#51D2DA"/>
<path d="M4.25073 24.06C4.91073 24.06 5.45068 24.6 5.45068 25.26C5.45068 25.92 4.91073 26.46 4.25073 26.46C3.59073 26.46 3.05078 25.92 3.05078 25.26C3.05078 24.59 3.59073 24.06 4.25073 24.06Z" fill="#51D2DA"/>
<path d="M11.45 24.06C12.11 24.06 12.65 24.6 12.65 25.26C12.65 25.92 12.11 26.46 11.45 26.46C10.79 26.46 10.25 25.92 10.25 25.26C10.25 24.59 10.79 24.06 11.45 24.06Z" fill="#51D2DA"/>
<path d="M13.8503 24.06C14.5103 24.06 15.0504 24.6 15.0504 25.26C15.0504 25.92 14.5103 26.46 13.8503 26.46C13.1903 26.46 12.6504 25.92 12.6504 25.26C12.6504 24.59 13.1903 24.06 13.8503 24.06Z" fill="#51D2DA"/>
<path d="M16.2507 24.06C16.9107 24.06 17.4507 24.6 17.4507 25.26C17.4507 25.92 16.9107 26.46 16.2507 26.46C15.5907 26.46 15.0508 25.92 15.0508 25.26C15.0508 24.59 15.5907 24.06 16.2507 24.06Z" fill="#51D2DA"/>
<path d="M21.0507 24.06C21.7107 24.06 22.2506 24.6 22.2506 25.26C22.2506 25.92 21.7107 26.46 21.0507 26.46C20.3907 26.46 19.8506 25.92 19.8506 25.26C19.8506 24.59 20.3907 24.06 21.0507 24.06Z" fill="#51D2DA"/>
<path d="M28.2507 24.06C28.9107 24.06 29.4507 24.6 29.4507 25.26C29.4507 25.92 28.9107 26.46 28.2507 26.46C27.5907 26.46 27.0508 25.92 27.0508 25.26C27.0508 24.59 27.5907 24.06 28.2507 24.06Z" fill="#51D2DA"/>
<path d="M30.6503 24.06C31.3103 24.06 31.8502 24.6 31.8502 25.26C31.8502 25.92 31.3103 26.46 30.6503 26.46C29.9903 26.46 29.4502 25.92 29.4502 25.26C29.4502 24.59 29.9903 24.06 30.6503 24.06Z" fill="#51D2DA"/>
<path d="M35.45 24.06C36.11 24.06 36.65 24.6 36.65 25.26C36.65 25.92 36.11 26.46 35.45 26.46C34.79 26.46 34.25 25.92 34.25 25.26C34.25 24.59 34.79 24.06 35.45 24.06Z" fill="#51D2DA"/>
<path d="M37.8503 24.06C38.5103 24.06 39.0504 24.6 39.0504 25.26C39.0504 25.92 38.5103 26.46 37.8503 26.46C37.1903 26.46 36.6504 25.92 36.6504 25.26C36.6504 24.59 37.1903 24.06 37.8503 24.06Z" fill="#51D2DA"/>
<path d="M40.2507 24.06C40.9107 24.06 41.4507 24.6 41.4507 25.26C41.4507 25.92 40.9107 26.46 40.2507 26.46C39.5907 26.46 39.0508 25.92 39.0508 25.26C39.0508 24.59 39.5907 24.06 40.2507 24.06Z" fill="#51D2DA"/>
<path d="M42.6503 24.06C43.3103 24.06 43.8502 24.6 43.8502 25.26C43.8502 25.92 43.3103 26.46 42.6503 26.46C41.9903 26.46 41.4502 25.92 41.4502 25.26C41.4502 24.59 41.9903 24.06 42.6503 24.06Z" fill="#51D2DA"/>
<path d="M52.2507 24.06C52.9107 24.06 53.4507 24.6 53.4507 25.26C53.4507 25.92 52.9107 26.46 52.2507 26.46C51.5907 26.46 51.0508 25.92 51.0508 25.26C51.0508 24.59 51.5907 24.06 52.2507 24.06Z" fill="#51D2DA"/>
<path d="M59.45 24.06C60.11 24.06 60.65 24.6 60.65 25.26C60.65 25.92 60.11 26.46 59.45 26.46C58.79 26.46 58.25 25.92 58.25 25.26C58.25 24.59 58.79 24.06 59.45 24.06Z" fill="#51D2DA"/>
<path d="M1.85034 26.46C2.51034 26.46 3.05042 27 3.05042 27.66C3.05042 28.32 2.51034 28.86 1.85034 28.86C1.19034 28.86 0.650391 28.32 0.650391 27.66C0.650391 27 1.19034 26.46 1.85034 26.46Z" fill="#51D2DA"/>
<path d="M11.45 26.4599C12.11 26.4599 12.65 26.9999 12.65 27.6599C12.65 28.3199 12.11 28.8599 11.45 28.8599C10.79 28.8599 10.25 28.3199 10.25 27.6599C10.25 26.9999 10.79 26.4599 11.45 26.4599Z" fill="#51D2DA"/>
<path d="M23.45 26.4599C24.11 26.4599 24.65 26.9999 24.65 27.6599C24.65 28.3199 24.11 28.8599 23.45 28.8599C22.79 28.8599 22.25 28.3199 22.25 27.6599C22.25 26.9999 22.79 26.4599 23.45 26.4599Z" fill="#51D2DA"/>
<path d="M25.8503 26.46C26.5103 26.46 27.0504 27 27.0504 27.66C27.0504 28.32 26.5103 28.86 25.8503 28.86C25.1903 28.86 24.6504 28.32 24.6504 27.66C24.6504 27 25.1903 26.46 25.8503 26.46Z" fill="#51D2DA"/>
<path d="M35.45 26.4599C36.11 26.4599 36.65 26.9999 36.65 27.6599C36.65 28.3199 36.11 28.8599 35.45 28.8599C34.79 28.8599 34.25 28.3199 34.25 27.6599C34.25 26.9999 34.79 26.4599 35.45 26.4599Z" fill="#51D2DA"/>
<path d="M37.8503 26.46C38.5103 26.46 39.0504 27 39.0504 27.66C39.0504 28.32 38.5103 28.86 37.8503 28.86C37.1903 28.86 36.6504 28.32 36.6504 27.66C36.6504 27 37.1903 26.46 37.8503 26.46Z" fill="#51D2DA"/>
<path d="M47.45 26.4599C48.11 26.4599 48.65 26.9999 48.65 27.6599C48.65 28.3199 48.11 28.8599 47.45 28.8599C46.79 28.8599 46.25 28.3199 46.25 27.6599C46.25 26.9999 46.79 26.4599 47.45 26.4599Z" fill="#51D2DA"/>
<path d="M52.2507 26.4599C52.9107 26.4599 53.4507 26.9999 53.4507 27.6599C53.4507 28.3199 52.9107 28.8599 52.2507 28.8599C51.5907 28.8599 51.0508 28.3199 51.0508 27.6599C51.0508 26.9999 51.5907 26.4599 52.2507 26.4599Z" fill="#51D2DA"/>
<path d="M54.6503 26.46C55.3103 26.46 55.8502 27 55.8502 27.66C55.8502 28.32 55.3103 28.86 54.6503 28.86C53.9903 28.86 53.4502 28.32 53.4502 27.66C53.4502 27 53.9903 26.46 54.6503 26.46Z" fill="#51D2DA"/>
<path d="M57.0507 26.4599C57.7107 26.4599 58.2506 26.9999 58.2506 27.6599C58.2506 28.3199 57.7107 28.8599 57.0507 28.8599C56.3907 28.8599 55.8506 28.3199 55.8506 27.6599C55.8506 26.9999 56.3907 26.4599 57.0507 26.4599Z" fill="#51D2DA"/>
<path d="M59.45 26.4599C60.11 26.4599 60.65 26.9999 60.65 27.6599C60.65 28.3199 60.11 28.8599 59.45 28.8599C58.79 28.8599 58.25 28.3199 58.25 27.6599C58.25 26.9999 58.79 26.4599 59.45 26.4599Z" fill="#51D2DA"/>
<path d="M4.25073 28.86C4.91073 28.86 5.45068 29.4 5.45068 30.06C5.45068 30.72 4.91073 31.26 4.25073 31.26C3.59073 31.26 3.05078 30.72 3.05078 30.06C3.05078 29.4 3.59073 28.86 4.25073 28.86Z" fill="#51D2DA"/>
<path d="M6.65027 28.86C7.31027 28.86 7.85022 29.4 7.85022 30.06C7.85022 30.72 7.31027 31.26 6.65027 31.26C5.99027 31.26 5.4502 30.72 5.4502 30.06C5.4502 29.4 5.99027 28.86 6.65027 28.86Z" fill="#51D2DA"/>
<path d="M9.05066 28.86C9.71066 28.86 10.2506 29.4 10.2506 30.06C10.2506 30.72 9.71066 31.26 9.05066 31.26C8.39066 31.26 7.85059 30.72 7.85059 30.06C7.85059 29.4 8.39066 28.86 9.05066 28.86Z" fill="#51D2DA"/>
<path d="M16.2507 28.86C16.9107 28.86 17.4507 29.4 17.4507 30.06C17.4507 30.72 16.9107 31.26 16.2507 31.26C15.5907 31.26 15.0508 30.72 15.0508 30.06C15.0508 29.4 15.5907 28.86 16.2507 28.86Z" fill="#51D2DA"/>
<path d="M21.0507 28.86C21.7107 28.86 22.2506 29.4 22.2506 30.06C22.2506 30.72 21.7107 31.26 21.0507 31.26C20.3907 31.26 19.8506 30.72 19.8506 30.06C19.8506 29.4 20.3907 28.86 21.0507 28.86Z" fill="#51D2DA"/>
<path d="M25.8503 28.86C26.5103 28.86 27.0504 29.4 27.0504 30.06C27.0504 30.72 26.5103 31.26 25.8503 31.26C25.1903 31.26 24.6504 30.72 24.6504 30.06C24.6504 29.4 25.1903 28.86 25.8503 28.86Z" fill="#51D2DA"/>
<path d="M33.0507 28.86C33.7107 28.86 34.2506 29.4 34.2506 30.06C34.2506 30.72 33.7107 31.26 33.0507 31.26C32.3907 31.26 31.8506 30.72 31.8506 30.06C31.8506 29.4 32.3907 28.86 33.0507 28.86Z" fill="#51D2DA"/>
<path d="M35.45 28.86C36.11 28.86 36.65 29.4 36.65 30.06C36.65 30.72 36.11 31.26 35.45 31.26C34.79 31.26 34.25 30.72 34.25 30.06C34.25 29.4 34.79 28.86 35.45 28.86Z" fill="#51D2DA"/>
<path d="M40.2507 28.86C40.9107 28.86 41.4507 29.4 41.4507 30.06C41.4507 30.72 40.9107 31.26 40.2507 31.26C39.5907 31.26 39.0508 30.72 39.0508 30.06C39.0508 29.4 39.5907 28.86 40.2507 28.86Z" fill="#51D2DA"/>
<path d="M42.6503 28.86C43.3103 28.86 43.8502 29.4 43.8502 30.06C43.8502 30.72 43.3103 31.26 42.6503 31.26C41.9903 31.26 41.4502 30.72 41.4502 30.06C41.4502 29.4 41.9903 28.86 42.6503 28.86Z" fill="#51D2DA"/>
<path d="M45.0507 28.86C45.7107 28.86 46.2506 29.4 46.2506 30.06C46.2506 30.72 45.7107 31.26 45.0507 31.26C44.3907 31.26 43.8506 30.72 43.8506 30.06C43.8506 29.4 44.3907 28.86 45.0507 28.86Z" fill="#51D2DA"/>
<path d="M59.45 28.86C60.11 28.86 60.65 29.4 60.65 30.06C60.65 30.72 60.11 31.26 59.45 31.26C58.79 31.26 58.25 30.72 58.25 30.06C58.25 29.4 58.79 28.86 59.45 28.86Z" fill="#51D2DA"/>
<path d="M1.85034 31.26C2.51034 31.26 3.05042 31.8 3.05042 32.46C3.05042 33.12 2.51034 33.66 1.85034 33.66C1.19034 33.66 0.650391 33.12 0.650391 32.46C0.650391 31.79 1.19034 31.26 1.85034 31.26Z" fill="#51D2DA"/>
<path d="M18.6503 31.26C19.3103 31.26 19.8502 31.8 19.8502 32.46C19.8502 33.12 19.3103 33.66 18.6503 33.66C17.9903 33.66 17.4502 33.12 17.4502 32.46C17.4502 31.79 17.9903 31.26 18.6503 31.26Z" fill="#51D2DA"/>
<path d="M23.45 31.2599C24.11 31.2599 24.65 31.8 24.65 32.46C24.65 33.12 24.11 33.66 23.45 33.66C22.79 33.66 22.25 33.12 22.25 32.46C22.25 31.79 22.79 31.2599 23.45 31.2599Z" fill="#51D2DA"/>
<path d="M25.8503 31.26C26.5103 31.26 27.0504 31.8 27.0504 32.46C27.0504 33.12 26.5103 33.66 25.8503 33.66C25.1903 33.66 24.6504 33.12 24.6504 32.46C24.6504 31.79 25.1903 31.26 25.8503 31.26Z" fill="#51D2DA"/>
<path d="M30.6503 31.26C31.3103 31.26 31.8502 31.8 31.8502 32.46C31.8502 33.12 31.3103 33.66 30.6503 33.66C29.9903 33.66 29.4502 33.12 29.4502 32.46C29.4502 31.79 29.9903 31.26 30.6503 31.26Z" fill="#51D2DA"/>
<path d="M35.45 31.2599C36.11 31.2599 36.65 31.8 36.65 32.46C36.65 33.12 36.11 33.66 35.45 33.66C34.79 33.66 34.25 33.12 34.25 32.46C34.25 31.79 34.79 31.2599 35.45 31.2599Z" fill="#51D2DA"/>
<path d="M37.8503 31.26C38.5103 31.26 39.0504 31.8 39.0504 32.46C39.0504 33.12 38.5103 33.66 37.8503 33.66C37.1903 33.66 36.6504 33.12 36.6504 32.46C36.6504 31.79 37.1903 31.26 37.8503 31.26Z" fill="#51D2DA"/>
<path d="M49.8503 31.26C50.5103 31.26 51.0504 31.8 51.0504 32.46C51.0504 33.12 50.5103 33.66 49.8503 33.66C49.1903 33.66 48.6504 33.12 48.6504 32.46C48.6504 31.79 49.1903 31.26 49.8503 31.26Z" fill="#51D2DA"/>
<path d="M57.0507 31.2599C57.7107 31.2599 58.2506 31.8 58.2506 32.46C58.2506 33.12 57.7107 33.66 57.0507 33.66C56.3907 33.66 55.8506 33.12 55.8506 32.46C55.8506 31.79 56.3907 31.2599 57.0507 31.2599Z" fill="#51D2DA"/>
<path d="M1.85034 33.66C2.51034 33.66 3.05042 34.2 3.05042 34.86C3.05042 35.52 2.51034 36.06 1.85034 36.06C1.19034 36.06 0.650391 35.52 0.650391 34.86C0.650391 34.2 1.19034 33.66 1.85034 33.66Z" fill="#51D2DA"/>
<path d="M4.25073 33.6601C4.91073 33.6601 5.45068 34.2001 5.45068 34.8601C5.45068 35.5201 4.91073 36.0601 4.25073 36.0601C3.59073 36.0601 3.05078 35.5201 3.05078 34.8601C3.05078 34.2001 3.59073 33.6601 4.25073 33.6601Z" fill="#51D2DA"/>
<path d="M6.65027 33.66C7.31027 33.66 7.85022 34.2 7.85022 34.86C7.85022 35.52 7.31027 36.06 6.65027 36.06C5.99027 36.06 5.4502 35.52 5.4502 34.86C5.4502 34.2 5.99027 33.66 6.65027 33.66Z" fill="#51D2DA"/>
<path d="M11.45 33.6601C12.11 33.6601 12.65 34.2001 12.65 34.8601C12.65 35.5201 12.11 36.0601 11.45 36.0601C10.79 36.0601 10.25 35.5201 10.25 34.8601C10.25 34.2001 10.79 33.6601 11.45 33.6601Z" fill="#51D2DA"/>
<path d="M13.8503 33.66C14.5103 33.66 15.0504 34.2 15.0504 34.86C15.0504 35.52 14.5103 36.06 13.8503 36.06C13.1903 36.06 12.6504 35.52 12.6504 34.86C12.6504 34.2 13.1903 33.66 13.8503 33.66Z" fill="#51D2DA"/>
<path d="M16.2507 33.6601C16.9107 33.6601 17.4507 34.2001 17.4507 34.8601C17.4507 35.5201 16.9107 36.0601 16.2507 36.0601C15.5907 36.0601 15.0508 35.5201 15.0508 34.8601C15.0508 34.2001 15.5907 33.6601 16.2507 33.6601Z" fill="#51D2DA"/>
<path d="M18.6503 33.66C19.3103 33.66 19.8502 34.2 19.8502 34.86C19.8502 35.52 19.3103 36.06 18.6503 36.06C17.9903 36.06 17.4502 35.52 17.4502 34.86C17.4502 34.2 17.9903 33.66 18.6503 33.66Z" fill="#51D2DA"/>
<path d="M21.0507 33.6601C21.7107 33.6601 22.2506 34.2001 22.2506 34.8601C22.2506 35.5201 21.7107 36.0601 21.0507 36.0601C20.3907 36.0601 19.8506 35.5201 19.8506 34.8601C19.8506 34.2001 20.3907 33.6601 21.0507 33.6601Z" fill="#51D2DA"/>
<path d="M23.45 33.6601C24.11 33.6601 24.65 34.2001 24.65 34.8601C24.65 35.5201 24.11 36.0601 23.45 36.0601C22.79 36.0601 22.25 35.5201 22.25 34.8601C22.25 34.2001 22.79 33.6601 23.45 33.6601Z" fill="#51D2DA"/>
<path d="M25.8503 33.66C26.5103 33.66 27.0504 34.2 27.0504 34.86C27.0504 35.52 26.5103 36.06 25.8503 36.06C25.1903 36.06 24.6504 35.52 24.6504 34.86C24.6504 34.2 25.1903 33.66 25.8503 33.66Z" fill="#51D2DA"/>
<path d="M35.45 33.6601C36.11 33.6601 36.65 34.2001 36.65 34.8601C36.65 35.5201 36.11 36.0601 35.45 36.0601C34.79 36.0601 34.25 35.5201 34.25 34.8601C34.25 34.2001 34.79 33.6601 35.45 33.6601Z" fill="#51D2DA"/>
<path d="M37.8503 33.66C38.5103 33.66 39.0504 34.2 39.0504 34.86C39.0504 35.52 38.5103 36.06 37.8503 36.06C37.1903 36.06 36.6504 35.52 36.6504 34.86C36.6504 34.2 37.1903 33.66 37.8503 33.66Z" fill="#51D2DA"/>
<path d="M42.6503 33.66C43.3103 33.66 43.8502 34.2 43.8502 34.86C43.8502 35.52 43.3103 36.06 42.6503 36.06C41.9903 36.06 41.4502 35.52 41.4502 34.86C41.4502 34.2 41.9903 33.66 42.6503 33.66Z" fill="#51D2DA"/>
<path d="M49.8503 33.66C50.5103 33.66 51.0504 34.2 51.0504 34.86C51.0504 35.52 50.5103 36.06 49.8503 36.06C49.1903 36.06 48.6504 35.52 48.6504 34.86C48.6504 34.2 49.1903 33.66 49.8503 33.66Z" fill="#51D2DA"/>
<path d="M52.2507 33.6601C52.9107 33.6601 53.4507 34.2001 53.4507 34.8601C53.4507 35.5201 52.9107 36.0601 52.2507 36.0601C51.5907 36.0601 51.0508 35.5201 51.0508 34.8601C51.0508 34.2001 51.5907 33.6601 52.2507 33.6601Z" fill="#51D2DA"/>
<path d="M54.6503 33.66C55.3103 33.66 55.8502 34.2 55.8502 34.86C55.8502 35.52 55.3103 36.06 54.6503 36.06C53.9903 36.06 53.4502 35.52 53.4502 34.86C53.4502 34.2 53.9903 33.66 54.6503 33.66Z" fill="#51D2DA"/>
<path d="M57.0507 33.6601C57.7107 33.6601 58.2506 34.2001 58.2506 34.8601C58.2506 35.5201 57.7107 36.0601 57.0507 36.0601C56.3907 36.0601 55.8506 35.5201 55.8506 34.8601C55.8506 34.2001 56.3907 33.6601 57.0507 33.6601Z" fill="#51D2DA"/>
<path d="M59.45 33.6601C60.11 33.6601 60.65 34.2001 60.65 34.8601C60.65 35.5201 60.11 36.0601 59.45 36.0601C58.79 36.0601 58.25 35.5201 58.25 34.8601C58.25 34.2001 58.79 33.6601 59.45 33.6601Z" fill="#51D2DA"/>
<path d="M1.85034 36.06C2.51034 36.06 3.05042 36.6 3.05042 37.26C3.05042 37.92 2.51034 38.46 1.85034 38.46C1.19034 38.46 0.650391 37.92 0.650391 37.26C0.650391 36.6 1.19034 36.06 1.85034 36.06Z" fill="#51D2DA"/>
<path d="M11.45 36.06C12.11 36.06 12.65 36.6 12.65 37.26C12.65 37.92 12.11 38.46 11.45 38.46C10.79 38.46 10.25 37.92 10.25 37.26C10.25 36.6 10.79 36.06 11.45 36.06Z" fill="#51D2DA"/>
<path d="M18.6503 36.06C19.3103 36.06 19.8502 36.6 19.8502 37.26C19.8502 37.92 19.3103 38.46 18.6503 38.46C17.9903 38.46 17.4502 37.92 17.4502 37.26C17.4502 36.6 17.9903 36.06 18.6503 36.06Z" fill="#51D2DA"/>
<path d="M30.6503 36.06C31.3103 36.06 31.8502 36.6 31.8502 37.26C31.8502 37.92 31.3103 38.46 30.6503 38.46C29.9903 38.46 29.4502 37.92 29.4502 37.26C29.4502 36.6 29.9903 36.06 30.6503 36.06Z" fill="#51D2DA"/>
<path d="M33.0507 36.06C33.7107 36.06 34.2506 36.6 34.2506 37.26C34.2506 37.92 33.7107 38.46 33.0507 38.46C32.3907 38.46 31.8506 37.92 31.8506 37.26C31.8506 36.6 32.3907 36.06 33.0507 36.06Z" fill="#51D2DA"/>
<path d="M35.45 36.06C36.11 36.06 36.65 36.6 36.65 37.26C36.65 37.92 36.11 38.46 35.45 38.46C34.79 38.46 34.25 37.92 34.25 37.26C34.25 36.6 34.79 36.06 35.45 36.06Z" fill="#51D2DA"/>
<path d="M47.45 36.06C48.11 36.06 48.65 36.6 48.65 37.26C48.65 37.92 48.11 38.46 47.45 38.46C46.79 38.46 46.25 37.92 46.25 37.26C46.25 36.6 46.79 36.06 47.45 36.06Z" fill="#51D2DA"/>
<path d="M52.2507 36.06C52.9107 36.06 53.4507 36.6 53.4507 37.26C53.4507 37.92 52.9107 38.46 52.2507 38.46C51.5907 38.46 51.0508 37.92 51.0508 37.26C51.0508 36.6 51.5907 36.06 52.2507 36.06Z" fill="#51D2DA"/>
<path d="M54.6503 36.06C55.3103 36.06 55.8502 36.6 55.8502 37.26C55.8502 37.92 55.3103 38.46 54.6503 38.46C53.9903 38.46 53.4502 37.92 53.4502 37.26C53.4502 36.6 53.9903 36.06 54.6503 36.06Z" fill="#51D2DA"/>
<path d="M59.45 36.06C60.11 36.06 60.65 36.6 60.65 37.26C60.65 37.92 60.11 38.46 59.45 38.46C58.79 38.46 58.25 37.92 58.25 37.26C58.25 36.6 58.79 36.06 59.45 36.06Z" fill="#51D2DA"/>
<path d="M1.85034 38.46C2.51034 38.46 3.05042 39 3.05042 39.66C3.05042 40.32 2.51034 40.86 1.85034 40.86C1.19034 40.86 0.650391 40.32 0.650391 39.66C0.650391 38.99 1.19034 38.46 1.85034 38.46Z" fill="#51D2DA"/>
<path d="M9.05066 38.4599C9.71066 38.4599 10.2506 38.9999 10.2506 39.6599C10.2506 40.3199 9.71066 40.8599 9.05066 40.8599C8.39066 40.8599 7.85059 40.3199 7.85059 39.6599C7.85059 38.9899 8.39066 38.4599 9.05066 38.4599Z" fill="#51D2DA"/>
<path d="M11.45 38.4599C12.11 38.4599 12.65 38.9999 12.65 39.6599C12.65 40.3199 12.11 40.8599 11.45 40.8599C10.79 40.8599 10.25 40.3199 10.25 39.6599C10.25 38.9899 10.79 38.4599 11.45 38.4599Z" fill="#51D2DA"/>
<path d="M16.2507 38.4599C16.9107 38.4599 17.4507 38.9999 17.4507 39.6599C17.4507 40.3199 16.9107 40.8599 16.2507 40.8599C15.5907 40.8599 15.0508 40.3199 15.0508 39.6599C15.0508 38.9899 15.5907 38.4599 16.2507 38.4599Z" fill="#51D2DA"/>
<path d="M18.6503 38.46C19.3103 38.46 19.8502 39 19.8502 39.66C19.8502 40.32 19.3103 40.86 18.6503 40.86C17.9903 40.86 17.4502 40.32 17.4502 39.66C17.4502 38.99 17.9903 38.46 18.6503 38.46Z" fill="#51D2DA"/>
<path d="M25.8503 38.46C26.5103 38.46 27.0504 39 27.0504 39.66C27.0504 40.32 26.5103 40.86 25.8503 40.86C25.1903 40.86 24.6504 40.32 24.6504 39.66C24.6504 38.99 25.1903 38.46 25.8503 38.46Z" fill="#51D2DA"/>
<path d="M28.2507 38.4599C28.9107 38.4599 29.4507 38.9999 29.4507 39.6599C29.4507 40.3199 28.9107 40.8599 28.2507 40.8599C27.5907 40.8599 27.0508 40.3199 27.0508 39.6599C27.0508 38.9899 27.5907 38.4599 28.2507 38.4599Z" fill="#51D2DA"/>
<path d="M30.6503 38.46C31.3103 38.46 31.8502 39 31.8502 39.66C31.8502 40.32 31.3103 40.86 30.6503 40.86C29.9903 40.86 29.4502 40.32 29.4502 39.66C29.4502 38.99 29.9903 38.46 30.6503 38.46Z" fill="#51D2DA"/>
<path d="M40.2507 38.4599C40.9107 38.4599 41.4507 38.9999 41.4507 39.6599C41.4507 40.3199 40.9107 40.8599 40.2507 40.8599C39.5907 40.8599 39.0508 40.3199 39.0508 39.6599C39.0508 38.9899 39.5907 38.4599 40.2507 38.4599Z" fill="#51D2DA"/>
<path d="M42.6503 38.46C43.3103 38.46 43.8502 39 43.8502 39.66C43.8502 40.32 43.3103 40.86 42.6503 40.86C41.9903 40.86 41.4502 40.32 41.4502 39.66C41.4502 38.99 41.9903 38.46 42.6503 38.46Z" fill="#51D2DA"/>
<path d="M45.0507 38.4599C45.7107 38.4599 46.2506 38.9999 46.2506 39.6599C46.2506 40.3199 45.7107 40.8599 45.0507 40.8599C44.3907 40.8599 43.8506 40.3199 43.8506 39.6599C43.8506 38.9899 44.3907 38.4599 45.0507 38.4599Z" fill="#51D2DA"/>
<path d="M47.45 38.4599C48.11 38.4599 48.65 38.9999 48.65 39.6599C48.65 40.3199 48.11 40.8599 47.45 40.8599C46.79 40.8599 46.25 40.3199 46.25 39.6599C46.25 38.9899 46.79 38.4599 47.45 38.4599Z" fill="#51D2DA"/>
<path d="M49.8503 38.46C50.5103 38.46 51.0504 39 51.0504 39.66C51.0504 40.32 50.5103 40.86 49.8503 40.86C49.1903 40.86 48.6504 40.32 48.6504 39.66C48.6504 38.99 49.1903 38.46 49.8503 38.46Z" fill="#51D2DA"/>
<path d="M54.6503 38.46C55.3103 38.46 55.8502 39 55.8502 39.66C55.8502 40.32 55.3103 40.86 54.6503 40.86C53.9903 40.86 53.4502 40.32 53.4502 39.66C53.4502 38.99 53.9903 38.46 54.6503 38.46Z" fill="#51D2DA"/>
<path d="M57.0507 38.4599C57.7107 38.4599 58.2506 38.9999 58.2506 39.6599C58.2506 40.3199 57.7107 40.8599 57.0507 40.8599C56.3907 40.8599 55.8506 40.3199 55.8506 39.6599C55.8506 38.9899 56.3907 38.4599 57.0507 38.4599Z" fill="#51D2DA"/>
<path d="M21.0507 40.86C21.7107 40.86 22.2506 41.4 22.2506 42.06C22.2506 42.72 21.7107 43.26 21.0507 43.26C20.3907 43.26 19.8506 42.72 19.8506 42.06C19.8506 41.4 20.3907 40.86 21.0507 40.86Z" fill="#51D2DA"/>
<path d="M28.2507 40.86C28.9107 40.86 29.4507 41.4 29.4507 42.06C29.4507 42.72 28.9107 43.26 28.2507 43.26C27.5907 43.26 27.0508 42.72 27.0508 42.06C27.0508 41.4 27.5907 40.86 28.2507 40.86Z" fill="#51D2DA"/>
<path d="M40.2507 40.86C40.9107 40.86 41.4507 41.4 41.4507 42.06C41.4507 42.72 40.9107 43.26 40.2507 43.26C39.5907 43.26 39.0508 42.72 39.0508 42.06C39.0508 41.4 39.5907 40.86 40.2507 40.86Z" fill="#51D2DA"/>
<path d="M49.8503 40.86C50.5103 40.86 51.0504 41.4 51.0504 42.06C51.0504 42.72 50.5103 43.26 49.8503 43.26C49.1903 43.26 48.6504 42.72 48.6504 42.06C48.6504 41.4 49.1903 40.86 49.8503 40.86Z" fill="#51D2DA"/>
<path d="M54.6503 40.86C55.3103 40.86 55.8502 41.4 55.8502 42.06C55.8502 42.72 55.3103 43.26 54.6503 43.26C53.9903 43.26 53.4502 42.72 53.4502 42.06C53.4502 41.4 53.9903 40.86 54.6503 40.86Z" fill="#51D2DA"/>
<path d="M57.0507 40.86C57.7107 40.86 58.2506 41.4 58.2506 42.06C58.2506 42.72 57.7107 43.26 57.0507 43.26C56.3907 43.26 55.8506 42.72 55.8506 42.06C55.8506 41.4 56.3907 40.86 57.0507 40.86Z" fill="#51D2DA"/>
<path d="M21.0507 43.2599C21.7107 43.2599 22.2506 43.8 22.2506 44.46C22.2506 45.12 21.7107 45.66 21.0507 45.66C20.3907 45.66 19.8506 45.12 19.8506 44.46C19.8506 43.8 20.3907 43.2599 21.0507 43.2599Z" fill="#51D2DA"/>
<path d="M30.6503 43.26C31.3103 43.26 31.8502 43.8 31.8502 44.46C31.8502 45.12 31.3103 45.66 30.6503 45.66C29.9903 45.66 29.4502 45.12 29.4502 44.46C29.4502 43.8 29.9903 43.26 30.6503 43.26Z" fill="#51D2DA"/>
<path d="M33.0507 43.2599C33.7107 43.2599 34.2506 43.8 34.2506 44.46C34.2506 45.12 33.7107 45.66 33.0507 45.66C32.3907 45.66 31.8506 45.12 31.8506 44.46C31.8506 43.8 32.3907 43.2599 33.0507 43.2599Z" fill="#51D2DA"/>
<path d="M35.45 43.2599C36.11 43.2599 36.65 43.8 36.65 44.46C36.65 45.12 36.11 45.66 35.45 45.66C34.79 45.66 34.25 45.12 34.25 44.46C34.25 43.8 34.79 43.2599 35.45 43.2599Z" fill="#51D2DA"/>
<path d="M40.2507 43.2599C40.9107 43.2599 41.4507 43.8 41.4507 44.46C41.4507 45.12 40.9107 45.66 40.2507 45.66C39.5907 45.66 39.0508 45.12 39.0508 44.46C39.0508 43.8 39.5907 43.2599 40.2507 43.2599Z" fill="#51D2DA"/>
<path d="M45.0507 43.2599C45.7107 43.2599 46.2506 43.8 46.2506 44.46C46.2506 45.12 45.7107 45.66 45.0507 45.66C44.3907 45.66 43.8506 45.12 43.8506 44.46C43.8506 43.8 44.3907 43.2599 45.0507 43.2599Z" fill="#51D2DA"/>
<path d="M49.8503 43.26C50.5103 43.26 51.0504 43.8 51.0504 44.46C51.0504 45.12 50.5103 45.66 49.8503 45.66C49.1903 45.66 48.6504 45.12 48.6504 44.46C48.6504 43.8 49.1903 43.26 49.8503 43.26Z" fill="#51D2DA"/>
<path d="M59.45 43.2599C60.11 43.2599 60.65 43.8 60.65 44.46C60.65 45.12 60.11 45.66 59.45 45.66C58.79 45.66 58.25 45.12 58.25 44.46C58.25 43.8 58.79 43.2599 59.45 43.2599Z" fill="#51D2DA"/>
<path d="M21.0507 45.6601C21.7107 45.6601 22.2506 46.2001 22.2506 46.8601C22.2506 47.5201 21.7107 48.0601 21.0507 48.0601C20.3907 48.0601 19.8506 47.5201 19.8506 46.8601C19.8506 46.2001 20.3907 45.6601 21.0507 45.6601Z" fill="#51D2DA"/>
<path d="M25.8503 45.66C26.5103 45.66 27.0504 46.2 27.0504 46.86C27.0504 47.52 26.5103 48.06 25.8503 48.06C25.1903 48.06 24.6504 47.52 24.6504 46.86C24.6504 46.2 25.1903 45.66 25.8503 45.66Z" fill="#51D2DA"/>
<path d="M28.2507 45.6601C28.9107 45.6601 29.4507 46.2001 29.4507 46.8601C29.4507 47.5201 28.9107 48.0601 28.2507 48.0601C27.5907 48.0601 27.0508 47.5201 27.0508 46.8601C27.0508 46.2001 27.5907 45.6601 28.2507 45.6601Z" fill="#51D2DA"/>
<path d="M33.0507 45.6601C33.7107 45.6601 34.2506 46.2001 34.2506 46.8601C34.2506 47.5201 33.7107 48.0601 33.0507 48.0601C32.3907 48.0601 31.8506 47.5201 31.8506 46.8601C31.8506 46.2001 32.3907 45.6601 33.0507 45.6601Z" fill="#51D2DA"/>
<path d="M37.8503 45.66C38.5103 45.66 39.0504 46.2 39.0504 46.86C39.0504 47.52 38.5103 48.06 37.8503 48.06C37.1903 48.06 36.6504 47.52 36.6504 46.86C36.6504 46.2 37.1903 45.66 37.8503 45.66Z" fill="#51D2DA"/>
<path d="M40.2507 45.6601C40.9107 45.6601 41.4507 46.2001 41.4507 46.8601C41.4507 47.5201 40.9107 48.0601 40.2507 48.0601C39.5907 48.0601 39.0508 47.5201 39.0508 46.8601C39.0508 46.2001 39.5907 45.6601 40.2507 45.6601Z" fill="#51D2DA"/>
<path d="M49.8503 45.66C50.5103 45.66 51.0504 46.2 51.0504 46.86C51.0504 47.52 50.5103 48.06 49.8503 48.06C49.1903 48.06 48.6504 47.52 48.6504 46.86C48.6504 46.2 49.1903 45.66 49.8503 45.66Z" fill="#51D2DA"/>
<path d="M59.45 45.6601C60.11 45.6601 60.65 46.2001 60.65 46.8601C60.65 47.5201 60.11 48.0601 59.45 48.0601C58.79 48.0601 58.25 47.5201 58.25 46.8601C58.25 46.2001 58.79 45.6601 59.45 45.6601Z" fill="#51D2DA"/>
<path d="M21.0507 48.06C21.7107 48.06 22.2506 48.6 22.2506 49.26C22.2506 49.92 21.7107 50.46 21.0507 50.46C20.3907 50.46 19.8506 49.92 19.8506 49.26C19.8506 48.6 20.3907 48.06 21.0507 48.06Z" fill="#51D2DA"/>
<path d="M23.45 48.06C24.11 48.06 24.65 48.6 24.65 49.26C24.65 49.92 24.11 50.46 23.45 50.46C22.79 50.46 22.25 49.92 22.25 49.26C22.25 48.6 22.79 48.06 23.45 48.06Z" fill="#51D2DA"/>
<path d="M28.2507 48.06C28.9107 48.06 29.4507 48.6 29.4507 49.26C29.4507 49.92 28.9107 50.46 28.2507 50.46C27.5907 50.46 27.0508 49.92 27.0508 49.26C27.0508 48.6 27.5907 48.06 28.2507 48.06Z" fill="#51D2DA"/>
<path d="M33.0507 48.06C33.7107 48.06 34.2506 48.6 34.2506 49.26C34.2506 49.92 33.7107 50.46 33.0507 50.46C32.3907 50.46 31.8506 49.92 31.8506 49.26C31.8506 48.6 32.3907 48.06 33.0507 48.06Z" fill="#51D2DA"/>
<path d="M37.8503 48.06C38.5103 48.06 39.0504 48.6 39.0504 49.26C39.0504 49.92 38.5103 50.46 37.8503 50.46C37.1903 50.46 36.6504 49.92 36.6504 49.26C36.6504 48.6 37.1903 48.06 37.8503 48.06Z" fill="#51D2DA"/>
<path d="M40.2507 48.06C40.9107 48.06 41.4507 48.6 41.4507 49.26C41.4507 49.92 40.9107 50.46 40.2507 50.46C39.5907 50.46 39.0508 49.92 39.0508 49.26C39.0508 48.6 39.5907 48.06 40.2507 48.06Z" fill="#51D2DA"/>
<path d="M42.6503 48.06C43.3103 48.06 43.8502 48.6 43.8502 49.26C43.8502 49.92 43.3103 50.46 42.6503 50.46C41.9903 50.46 41.4502 49.92 41.4502 49.26C41.4502 48.6 41.9903 48.06 42.6503 48.06Z" fill="#51D2DA"/>
<path d="M45.0507 48.06C45.7107 48.06 46.2506 48.6 46.2506 49.26C46.2506 49.92 45.7107 50.46 45.0507 50.46C44.3907 50.46 43.8506 49.92 43.8506 49.26C43.8506 48.6 44.3907 48.06 45.0507 48.06Z" fill="#51D2DA"/>
<path d="M47.45 48.06C48.11 48.06 48.65 48.6 48.65 49.26C48.65 49.92 48.11 50.46 47.45 50.46C46.79 50.46 46.25 49.92 46.25 49.26C46.25 48.6 46.79 48.06 47.45 48.06Z" fill="#51D2DA"/>
<path d="M49.8503 48.06C50.5103 48.06 51.0504 48.6 51.0504 49.26C51.0504 49.92 50.5103 50.46 49.8503 50.46C49.1903 50.46 48.6504 49.92 48.6504 49.26C48.6504 48.6 49.1903 48.06 49.8503 48.06Z" fill="#51D2DA"/>
<path d="M57.0507 48.06C57.7107 48.06 58.2506 48.6 58.2506 49.26C58.2506 49.92 57.7107 50.46 57.0507 50.46C56.3907 50.46 55.8506 49.92 55.8506 49.26C55.8506 48.6 56.3907 48.06 57.0507 48.06Z" fill="#51D2DA"/>
<path d="M59.45 48.06C60.11 48.06 60.65 48.6 60.65 49.26C60.65 49.92 60.11 50.46 59.45 50.46C58.79 50.46 58.25 49.92 58.25 49.26C58.25 48.6 58.79 48.06 59.45 48.06Z" fill="#51D2DA"/>
<path d="M21.0507 50.4599C21.7107 50.4599 22.2506 50.9999 22.2506 51.6599C22.2506 52.3199 21.7107 52.8599 21.0507 52.8599C20.3907 52.8599 19.8506 52.3199 19.8506 51.6599C19.8506 50.9999 20.3907 50.4599 21.0507 50.4599Z" fill="#51D2DA"/>
<path d="M25.8503 50.46C26.5103 50.46 27.0504 51 27.0504 51.66C27.0504 52.32 26.5103 52.86 25.8503 52.86C25.1903 52.86 24.6504 52.32 24.6504 51.66C24.6504 51 25.1903 50.46 25.8503 50.46Z" fill="#51D2DA"/>
<path d="M30.6503 50.46C31.3103 50.46 31.8502 51 31.8502 51.66C31.8502 52.32 31.3103 52.86 30.6503 52.86C29.9903 52.86 29.4502 52.32 29.4502 51.66C29.4502 51 29.9903 50.46 30.6503 50.46Z" fill="#51D2DA"/>
<path d="M33.0507 50.4599C33.7107 50.4599 34.2506 50.9999 34.2506 51.6599C34.2506 52.3199 33.7107 52.8599 33.0507 52.8599C32.3907 52.8599 31.8506 52.3199 31.8506 51.6599C31.8506 50.9999 32.3907 50.4599 33.0507 50.4599Z" fill="#51D2DA"/>
<path d="M37.8503 50.46C38.5103 50.46 39.0504 51 39.0504 51.66C39.0504 52.32 38.5103 52.86 37.8503 52.86C37.1903 52.86 36.6504 52.32 36.6504 51.66C36.6504 51 37.1903 50.46 37.8503 50.46Z" fill="#51D2DA"/>
<path d="M42.6503 50.46C43.3103 50.46 43.8502 51 43.8502 51.66C43.8502 52.32 43.3103 52.86 42.6503 52.86C41.9903 52.86 41.4502 52.32 41.4502 51.66C41.4502 51 41.9903 50.46 42.6503 50.46Z" fill="#51D2DA"/>
<path d="M45.0507 50.4599C45.7107 50.4599 46.2506 50.9999 46.2506 51.6599C46.2506 52.3199 45.7107 52.8599 45.0507 52.8599C44.3907 52.8599 43.8506 52.3199 43.8506 51.6599C43.8506 50.9999 44.3907 50.4599 45.0507 50.4599Z" fill="#51D2DA"/>
<path d="M57.0507 50.4599C57.7107 50.4599 58.2506 50.9999 58.2506 51.6599C58.2506 52.3199 57.7107 52.8599 57.0507 52.8599C56.3907 52.8599 55.8506 52.3199 55.8506 51.6599C55.8506 50.9999 56.3907 50.4599 57.0507 50.4599Z" fill="#51D2DA"/>
<path d="M59.45 50.4599C60.11 50.4599 60.65 50.9999 60.65 51.6599C60.65 52.3199 60.11 52.8599 59.45 52.8599C58.79 52.8599 58.25 52.3199 58.25 51.6599C58.25 50.9999 58.79 50.4599 59.45 50.4599Z" fill="#51D2DA"/>
<path d="M23.45 52.86C24.11 52.86 24.65 53.4 24.65 54.06C24.65 54.72 24.11 55.26 23.45 55.26C22.79 55.26 22.25 54.72 22.25 54.06C22.25 53.4 22.79 52.86 23.45 52.86Z" fill="#51D2DA"/>
<path d="M28.2507 52.86C28.9107 52.86 29.4507 53.4 29.4507 54.06C29.4507 54.72 28.9107 55.26 28.2507 55.26C27.5907 55.26 27.0508 54.72 27.0508 54.06C27.0508 53.4 27.5907 52.86 28.2507 52.86Z" fill="#51D2DA"/>
<path d="M33.0507 52.86C33.7107 52.86 34.2506 53.4 34.2506 54.06C34.2506 54.72 33.7107 55.26 33.0507 55.26C32.3907 55.26 31.8506 54.72 31.8506 54.06C31.8506 53.4 32.3907 52.86 33.0507 52.86Z" fill="#51D2DA"/>
<path d="M40.2507 52.86C40.9107 52.86 41.4507 53.4 41.4507 54.06C41.4507 54.72 40.9107 55.26 40.2507 55.26C39.5907 55.26 39.0508 54.72 39.0508 54.06C39.0508 53.4 39.5907 52.86 40.2507 52.86Z" fill="#51D2DA"/>
<path d="M42.6503 52.86C43.3103 52.86 43.8502 53.4 43.8502 54.06C43.8502 54.72 43.3103 55.26 42.6503 55.26C41.9903 55.26 41.4502 54.72 41.4502 54.06C41.4502 53.4 41.9903 52.86 42.6503 52.86Z" fill="#51D2DA"/>
<path d="M49.8503 52.86C50.5103 52.86 51.0504 53.4 51.0504 54.06C51.0504 54.72 50.5103 55.26 49.8503 55.26C49.1903 55.26 48.6504 54.72 48.6504 54.06C48.6504 53.4 49.1903 52.86 49.8503 52.86Z" fill="#51D2DA"/>
<path d="M52.2507 52.86C52.9107 52.86 53.4507 53.4 53.4507 54.06C53.4507 54.72 52.9107 55.26 52.2507 55.26C51.5907 55.26 51.0508 54.72 51.0508 54.06C51.0508 53.4 51.5907 52.86 52.2507 52.86Z" fill="#51D2DA"/>
<path d="M54.6503 52.86C55.3103 52.86 55.8502 53.4 55.8502 54.06C55.8502 54.72 55.3103 55.26 54.6503 55.26C53.9903 55.26 53.4502 54.72 53.4502 54.06C53.4502 53.4 53.9903 52.86 54.6503 52.86Z" fill="#51D2DA"/>
<path d="M57.0507 52.86C57.7107 52.86 58.2506 53.4 58.2506 54.06C58.2506 54.72 57.7107 55.26 57.0507 55.26C56.3907 55.26 55.8506 54.72 55.8506 54.06C55.8506 53.4 56.3907 52.86 57.0507 52.86Z" fill="#51D2DA"/>
<path d="M59.45 52.86C60.11 52.86 60.65 53.4 60.65 54.06C60.65 54.72 60.11 55.26 59.45 55.26C58.79 55.26 58.25 54.72 58.25 54.06C58.25 53.4 58.79 52.86 59.45 52.86Z" fill="#51D2DA"/>
<path d="M23.45 55.2599C24.11 55.2599 24.65 55.8 24.65 56.46C24.65 57.12 24.11 57.66 23.45 57.66C22.79 57.66 22.25 57.12 22.25 56.46C22.25 55.8 22.79 55.2599 23.45 55.2599Z" fill="#51D2DA"/>
<path d="M25.8503 55.26C26.5103 55.26 27.0504 55.8 27.0504 56.46C27.0504 57.12 26.5103 57.66 25.8503 57.66C25.1903 57.66 24.6504 57.12 24.6504 56.46C24.6504 55.8 25.1903 55.26 25.8503 55.26Z" fill="#51D2DA"/>
<path d="M28.2507 55.2599C28.9107 55.2599 29.4507 55.8 29.4507 56.46C29.4507 57.12 28.9107 57.66 28.2507 57.66C27.5907 57.66 27.0508 57.12 27.0508 56.46C27.0508 55.8 27.5907 55.2599 28.2507 55.2599Z" fill="#51D2DA"/>
<path d="M30.6503 55.26C31.3103 55.26 31.8502 55.8 31.8502 56.46C31.8502 57.12 31.3103 57.66 30.6503 57.66C29.9903 57.66 29.4502 57.12 29.4502 56.46C29.4502 55.8 29.9903 55.26 30.6503 55.26Z" fill="#51D2DA"/>
<path d="M33.0507 55.2599C33.7107 55.2599 34.2506 55.8 34.2506 56.46C34.2506 57.12 33.7107 57.66 33.0507 57.66C32.3907 57.66 31.8506 57.12 31.8506 56.46C31.8506 55.8 32.3907 55.2599 33.0507 55.2599Z" fill="#51D2DA"/>
<path d="M42.6503 55.26C43.3103 55.26 43.8502 55.8 43.8502 56.46C43.8502 57.12 43.3103 57.66 42.6503 57.66C41.9903 57.66 41.4502 57.12 41.4502 56.46C41.4502 55.8 41.9903 55.26 42.6503 55.26Z" fill="#51D2DA"/>
<path d="M45.0507 55.2599C45.7107 55.2599 46.2506 55.8 46.2506 56.46C46.2506 57.12 45.7107 57.66 45.0507 57.66C44.3907 57.66 43.8506 57.12 43.8506 56.46C43.8506 55.8 44.3907 55.2599 45.0507 55.2599Z" fill="#51D2DA"/>
<path d="M47.45 55.2599C48.11 55.2599 48.65 55.8 48.65 56.46C48.65 57.12 48.11 57.66 47.45 57.66C46.79 57.66 46.25 57.12 46.25 56.46C46.25 55.8 46.79 55.2599 47.45 55.2599Z" fill="#51D2DA"/>
<path d="M49.8503 55.26C50.5103 55.26 51.0504 55.8 51.0504 56.46C51.0504 57.12 50.5103 57.66 49.8503 57.66C49.1903 57.66 48.6504 57.12 48.6504 56.46C48.6504 55.8 49.1903 55.26 49.8503 55.26Z" fill="#51D2DA"/>
<path d="M54.6503 55.26C55.3103 55.26 55.8502 55.8 55.8502 56.46C55.8502 57.12 55.3103 57.66 54.6503 57.66C53.9903 57.66 53.4502 57.12 53.4502 56.46C53.4502 55.8 53.9903 55.26 54.6503 55.26Z" fill="#51D2DA"/>
<path d="M57.0507 55.2599C57.7107 55.2599 58.2506 55.8 58.2506 56.46C58.2506 57.12 57.7107 57.66 57.0507 57.66C56.3907 57.66 55.8506 57.12 55.8506 56.46C55.8506 55.8 56.3907 55.2599 57.0507 55.2599Z" fill="#51D2DA"/>
<path d="M59.45 55.2599C60.11 55.2599 60.65 55.8 60.65 56.46C60.65 57.12 60.11 57.66 59.45 57.66C58.79 57.66 58.25 57.12 58.25 56.46C58.25 55.8 58.79 55.2599 59.45 55.2599Z" fill="#51D2DA"/>
<path d="M21.0507 57.6601C21.7107 57.6601 22.2506 58.2001 22.2506 58.8601C22.2506 59.5201 21.7107 60.0601 21.0507 60.0601C20.3907 60.0601 19.8506 59.5201 19.8506 58.8601C19.8506 58.2001 20.3907 57.6601 21.0507 57.6601Z" fill="#51D2DA"/>
<path d="M23.45 57.6601C24.11 57.6601 24.65 58.2001 24.65 58.8601C24.65 59.5201 24.11 60.0601 23.45 60.0601C22.79 60.0601 22.25 59.5201 22.25 58.8601C22.25 58.2001 22.79 57.6601 23.45 57.6601Z" fill="#51D2DA"/>
<path d="M28.2507 57.6601C28.9107 57.6601 29.4507 58.2001 29.4507 58.8601C29.4507 59.5201 28.9107 60.0601 28.2507 60.0601C27.5907 60.0601 27.0508 59.5201 27.0508 58.8601C27.0508 58.2001 27.5907 57.6601 28.2507 57.6601Z" fill="#51D2DA"/>
<path d="M30.6503 57.66C31.3103 57.66 31.8502 58.2 31.8502 58.86C31.8502 59.52 31.3103 60.06 30.6503 60.06C29.9903 60.06 29.4502 59.52 29.4502 58.86C29.4502 58.2 29.9903 57.66 30.6503 57.66Z" fill="#51D2DA"/>
<path d="M33.0507 57.6601C33.7107 57.6601 34.2506 58.2001 34.2506 58.8601C34.2506 59.5201 33.7107 60.0601 33.0507 60.0601C32.3907 60.0601 31.8506 59.5201 31.8506 58.8601C31.8506 58.2001 32.3907 57.6601 33.0507 57.6601Z" fill="#51D2DA"/>
<path d="M40.2507 57.6601C40.9107 57.6601 41.4507 58.2001 41.4507 58.8601C41.4507 59.5201 40.9107 60.0601 40.2507 60.0601C39.5907 60.0601 39.0508 59.5201 39.0508 58.8601C39.0508 58.2001 39.5907 57.6601 40.2507 57.6601Z" fill="#51D2DA"/>
<path d="M52.2507 57.6601C52.9107 57.6601 53.4507 58.2001 53.4507 58.8601C53.4507 59.5201 52.9107 60.0601 52.2507 60.0601C51.5907 60.0601 51.0508 59.5201 51.0508 58.8601C51.0508 58.2001 51.5907 57.6601 52.2507 57.6601Z" fill="#51D2DA"/>
<path d="M59.45 57.6601C60.11 57.6601 60.65 58.2001 60.65 58.8601C60.65 59.5201 60.11 60.0601 59.45 60.0601C58.79 60.0601 58.25 59.5201 58.25 58.8601C58.25 58.2001 58.79 57.6601 59.45 57.6601Z" fill="#51D2DA"/>
<path d="M0.650391 11.18V5.73C0.650391 2.6 3.22038 0.0599976 6.39038 0.0599976H11.7203C14.8803 0.0599976 17.4603 2.6 17.4603 5.73V16.86H6.40039C3.23039 16.85 0.650391 14.31 0.650391 11.18ZM3.17041 11.18C3.17041 12.92 4.61038 14.33 6.39038 14.33H14.9304V5.72C14.9304 3.98 13.4903 2.57001 11.7103 2.57001H6.38037C4.61037 2.57001 3.1604 3.98 3.1604 5.72V11.18H3.17041Z" fill="#51D2DA"/>
<path d="M60.6499 11.18V5.73C60.6499 2.6 58.0799 0.0599976 54.9099 0.0599976H49.5798C46.4198 0.0599976 43.8398 2.6 43.8398 5.73V16.86H54.8999C58.0799 16.85 60.6499 14.31 60.6499 11.18ZM58.1299 11.18C58.1299 12.92 56.6899 14.33 54.9099 14.33H46.3699V5.72C46.3699 3.98 47.8098 2.57001 49.5898 2.57001H54.9199C56.6899 2.57001 58.1399 3.98 58.1399 5.72V11.18H58.1299Z" fill="#51D2DA"/>
<path d="M0.650391 48.93V54.38C0.650391 57.51 3.22038 60.05 6.39038 60.05H11.7203C14.8803 60.05 17.4603 57.51 17.4603 54.38V43.25H6.40039C3.23039 43.26 0.650391 45.8 0.650391 48.93ZM3.17041 48.93C3.17041 47.19 4.61038 45.78 6.39038 45.78H14.9304V54.39C14.9304 56.13 13.4903 57.54 11.7103 57.54H6.38037C4.61037 57.54 3.1604 56.13 3.1604 54.39V48.93H3.17041Z" fill="#51D2DA"/>
<path d="M5.4502 10.1V6.81999C5.4502 5.73999 6.34019 4.85999 7.44019 4.85999H10.6603C11.7603 4.85999 12.6503 5.73999 12.6503 6.81999V12.06H7.44019C6.35019 12.05 5.4502 11.18 5.4502 10.1Z" fill="#51D2DA"/>
<path d="M55.8503 10.1V6.81999C55.8503 5.73999 54.9604 4.85999 53.8604 4.85999H50.6404C49.5404 4.85999 48.6504 5.73999 48.6504 6.81999V12.06H53.8604C54.9604 12.05 55.8503 11.18 55.8503 10.1Z" fill="#51D2DA"/>
<path d="M5.4502 50.02V53.3C5.4502 54.38 6.34019 55.26 7.44019 55.26H10.6603C11.7603 55.26 12.6503 54.38 12.6503 53.3V48.06H7.44019C6.35019 48.06 5.4502 48.94 5.4502 50.02Z" fill="#51D2DA"/>
</svg>
