<svg width="96" height="76" viewBox="0 0 96 76" fill="none" xmlns="http://www.w3.org/2000/svg">
<path d="M95.7959 13.9564C95.7959 13.9564 88.2385 13.6937 85.2879 10.7297C82.3372 7.76307 81.9626 0.688398 81.9626 0.688398L79.8399 0.872399C79.8399 0.872399 80.0452 7.14973 76.6345 10.5951C74.1572 13.0991 66.6719 13.9844 66.6719 13.9844L66.4665 16.2191C66.4665 16.2191 72.9199 16.7644 76.5359 20.4097C80.1519 24.0524 79.9892 31.4057 79.9892 31.4057H82.1106C82.1106 31.4057 82.8132 22.4404 85.8132 19.8844C89.5052 16.7591 95.8945 16.3257 95.8945 16.3257L95.7959 13.9564ZM35.8132 62.1791C38.4746 60.4164 37.8092 55.2017 33.6826 55.2017C29.5639 55.2017 28.6879 60.3604 31.4892 62.1644L31.0866 67.1177L36.5772 67.3231L35.8132 62.1791ZM49.6679 48.1471L51.2039 75.1284L18.4279 74.9657L15.5612 48.5364L49.6679 48.1471ZM17.8039 34.0391C17.8039 34.0391 13.3546 33.8684 11.6119 32.1337C9.87322 30.4004 9.67322 26.1977 9.67322 26.1977L8.41455 26.3177C8.41455 26.3177 8.61989 30.0604 6.60256 32.0844C5.14656 33.5631 0.645223 34.0391 0.645223 34.0391L0.518555 35.4177C0.518555 35.4177 4.25455 35.6871 6.37855 37.8377C8.49988 39.9884 8.49989 44.3617 8.49989 44.3617H9.71055C9.71055 44.3617 10.1199 39.0831 11.8879 37.5751C14.0679 35.7004 17.8612 35.4524 17.8612 35.4524L17.8039 34.0391ZM17.0972 24.7391H18.2999C18.2999 24.7391 18.7172 19.4604 20.5079 18.0031C22.6866 16.1217 26.4799 15.8804 26.4799 15.8804L26.4159 14.4657C26.4159 14.4657 22.0146 14.2457 20.2732 12.5124C18.5346 10.7791 18.2652 6.64707 18.2652 6.64707L17.0039 6.7524C17.0039 6.7524 17.2039 10.4951 15.1932 12.5271C13.7279 13.9977 9.23589 14.4804 9.23589 14.4804L9.11455 15.7951C9.11455 15.7951 12.8506 16.0791 14.9746 18.2231C17.0972 20.3671 17.0972 24.7391 17.0972 24.7391ZM59.6092 44.6511L56.3826 39.9031L53.0639 39.6911L50.9412 36.8044L42.3732 38.6231L37.4199 35.9484L31.9559 39.9031L23.1186 40.3484L19.8786 45.5084L59.6092 44.6511ZM69.8559 48.5151V48.4937L68.6386 75.1777L54.4092 75.1057L54.1892 48.0617L67.1746 47.9057L57.0412 29.9471L27.3719 30.2657L30.8039 36.4791L25.7652 37.2284L21.9079 30.3791C21.9079 30.3791 23.3239 20.7337 31.1066 20.7337C38.8906 20.7337 57.0266 21.0604 63.9839 21.3777C70.8759 21.6977 79.4305 37.0097 69.8559 48.5151" fill="black"/>
</svg>
