<svg width="21" height="18" viewBox="0 0 21 18" fill="none" xmlns="http://www.w3.org/2000/svg">
<path d="M15.2464 3.38297L5.48639 3.3003L5.59573 6.7163L15.3744 6.73764L15.2464 3.38297ZM17.1877 0.75497H3.60373C2.48773 0.75497 0.0930597 1.40697 0.0903931 3.81364C0.0930597 7.60164 4.64106 7.34697 4.64106 4.79097C4.64106 2.48697 2.47306 3.18564 2.66239 4.26564C3.22906 4.4563 3.07839 4.98964 2.58773 4.98964C1.97439 4.98964 1.84639 4.57764 1.84639 3.91097C1.84639 2.6683 3.06106 2.33364 3.64773 2.33364H17.1437C17.7304 2.33364 18.9451 2.6683 18.9451 3.91097C18.9451 4.56964 18.8171 4.98964 18.2024 4.98964C17.7091 4.98964 17.5611 4.4563 18.1291 4.26564C18.3184 3.18564 16.1504 2.4763 16.1504 4.79097C16.1504 7.34697 20.6984 7.60164 20.7011 3.81364C20.7037 1.38564 18.3037 0.75497 17.1877 0.75497ZM16.3544 7.5883C16.3544 7.5883 16.5251 9.67097 14.9544 9.9483L15.5851 17.059H13.7517L13.4677 9.97097H12.4797L12.5571 17.0656H11.0851L11.0557 9.96297H9.99039L9.91306 17.0723H8.41439L8.48506 9.95497H7.41039L7.13839 17.0776H5.09706L5.72773 9.8723C4.36239 9.51097 4.59839 7.5883 4.59839 7.5883H16.3544Z" fill="white"/>
</svg>
