<svg width="24" height="24" viewBox="0 0 24 24" fill="none" xmlns="http://www.w3.org/2000/svg">
<path fill-rule="evenodd" clip-rule="evenodd" d="M11.6091 23.8785L12 23.3338L11.6091 23.8785ZM12.3909 23.8785L12.3936 23.8772L12.4004 23.8725L12.4207 23.8572L12.5008 23.8005C12.5686 23.7512 12.6677 23.6792 12.7926 23.5845C13.0423 23.3965 13.3965 23.1198 13.8193 22.7645C14.929 21.8326 15.9667 20.8209 16.9237 19.7377C19.1684 17.187 21.5 13.5463 21.5 9.3842C21.5 6.89748 20.4998 4.51076 18.7192 2.75072C17.8391 1.87963 16.7924 1.18815 15.6392 0.716065C14.4861 0.243983 13.2493 0.00062557 12 0C10.7508 0.00053824 9.51401 0.24379 8.36085 0.715757C7.2077 1.18772 6.16093 1.87909 5.28079 2.75006C3.49847 4.51412 2.4988 6.89926 2.5 9.38486C2.5 13.5463 4.83157 17.187 7.07629 19.7377C8.03332 20.8209 9.07101 21.8326 10.1808 22.7645C10.6042 23.1198 10.9577 23.3965 11.2074 23.5845C11.3299 23.6772 11.4536 23.7683 11.5786 23.8578L11.6003 23.8725L11.6064 23.8772L11.6091 23.8785C11.8433 24.0405 12.1568 24.0405 12.3909 23.8785ZM12 23.3338L12.3909 23.8785L12 23.3338ZM15.3929 9.33353C15.3929 10.2176 15.0354 11.0655 14.3991 11.6906C13.7628 12.3157 12.8998 12.6669 12 12.6669C11.1002 12.6669 10.2372 12.3157 9.60089 11.6906C8.9646 11.0655 8.60714 10.2176 8.60714 9.33353C8.60714 8.44945 8.9646 7.60159 9.60089 6.97646C10.2372 6.35132 11.1002 6.00012 12 6.00012C12.8998 6.00012 13.7628 6.35132 14.3991 6.97646C15.0354 7.60159 15.3929 8.44945 15.3929 9.33353Z" fill="#DC46AA"/>
</svg>
