<svg width="28" height="42" viewBox="0 0 28 42" fill="none" xmlns="http://www.w3.org/2000/svg">
<path fill-rule="evenodd" clip-rule="evenodd" d="M20.1602 27.7833H19.5498C19.6698 21.7 24.8301 17.7778 24.8301 13.3415C24.8301 -0.129329 3.29004 -0.786218 3.29004 13.5699C3.29004 18.2347 8.48008 20.7861 8.58008 27.7547H7.93018C6.51018 27.7547 5.5498 27.2311 5.5498 26.2601C5.5498 23.2518 0.25 18.2157 0.25 13.6842C0.25 -4.75606 27.9302 -3.92782 27.9302 13.3891C27.9302 18.4347 22.6899 24.2323 22.6899 26.1839C22.6699 27.2692 21.6102 27.7833 20.1602 27.7833ZM12.0498 11.704L13.2998 27.6215L10.73 27.6786C10.73 27.6786 9.83982 17.7968 9.56982 14.2839C9.29982 10.7711 12.0498 11.704 12.0498 11.704ZM14.7798 27.6881L15.7998 11.6374C15.7998 11.6374 18.85 10.2855 18.54 14.3315C18.23 18.3775 17.3701 27.6215 17.3701 27.6215L14.7798 27.6881ZM21.48 29.8682C21.48 29.8682 21.3801 32.8194 21.3701 34.1331C21.3701 35.9324 18.4001 38.2458 17.1201 38.4362C16.8501 41.93 11.4 41.9491 11.21 38.4362C10.3 38.2648 6.90992 36.2275 6.91992 34.1903C6.91992 32.6861 7.00977 29.9063 7.00977 29.9063L21.48 29.8682Z" fill="white"/>
</svg>
