<svg width="24" height="24" viewBox="0 0 24 24" fill="none" xmlns="http://www.w3.org/2000/svg">
<path d="M21.3333 11.3333C22.0697 11.3333 22.6667 11.0349 22.6667 10.6667C22.6667 10.2985 22.0697 10 21.3333 10C20.597 10 20 10.2985 20 10.6667C20 11.0349 20.597 11.3333 21.3333 11.3333Z" fill="#99AAB5"/>
<path d="M22 14C21.6313 14 21.3333 13.702 21.3333 13.3333V2.66667C21.3333 1.612 20.0253 1.33333 19.3333 1.33333C18.6413 1.33333 17.3333 1.612 17.3333 2.66667C17.3333 3.03467 17.0353 3.33333 16.6667 3.33333C16.298 3.33333 16 3.03467 16 2.66667C16 0.916 17.6773 0 19.3333 0C20.9893 0 22.6667 0.916 22.6667 2.66667V13.3333C22.6667 13.702 22.3687 14 22 14Z" fill="#CCD6DD"/>
<path d="M18.667 4.00033C18.667 4.73633 17.7717 4.66699 16.667 4.66699C15.5623 4.66699 14.667 4.73633 14.667 4.00033C14.667 3.26433 15.5623 2.66699 16.667 2.66699C17.7717 2.66699 18.667 3.26433 18.667 4.00033Z" fill="#99AAB5"/>
<path d="M19.3333 4.66667C19.3333 5.03467 19.0353 5.33333 18.6667 5.33333H14.6667C14.298 5.33333 14 5.03467 14 4.66667C14 4.29867 14.298 4 14.6667 4H18.6667C19.0353 4 19.3333 4.29867 19.3333 4.66667Z" fill="#CCD6DD"/>
<path d="M8.00033 23.9997C8.73671 23.9997 9.33366 23.4027 9.33366 22.6663C9.33366 21.93 8.73671 21.333 8.00033 21.333C7.26395 21.333 6.66699 21.93 6.66699 22.6663C6.66699 23.4027 7.26395 23.9997 8.00033 23.9997Z" fill="#99AAB5"/>
<path d="M18.6663 23.9997C19.4027 23.9997 19.9997 23.4027 19.9997 22.6663C19.9997 21.93 19.4027 21.333 18.6663 21.333C17.93 21.333 17.333 21.93 17.333 22.6663C17.333 23.4027 17.93 23.9997 18.6663 23.9997Z" fill="#99AAB5"/>
<path d="M19.9995 22.6666H7.99951C4.66618 22.6666 1.33285 18.6666 0.66618 13.3332C0.500847 12.0106 1.20751 12.6666 2.68018 12.6666C2.68018 12.6666 11.3328 13.9999 19.9995 13.9999C21.3328 13.9999 23.3328 13.1939 23.3328 14.6666C23.3328 14.6666 22.6662 22.6666 19.9995 22.6666Z" fill="#CCD6DD"/>
<path d="M24 14C24 14.3687 23.702 14.6667 23.3333 14.6667L0.666667 13.3333C0.298667 13.3333 0 13.0353 0 12.6667C0 12.298 0.298667 12 0.666667 12L23.3333 13.3333C23.702 13.3333 24 13.6313 24 14Z" fill="#99AAB5"/>
</svg>
