<svg width="19" height="19" viewBox="0 0 19 19" fill="none" xmlns="http://www.w3.org/2000/svg">
<path d="M9.82959 14C8.99959 14 8.38956 13.83 7.98956 13.48C7.58956 13.13 7.38959 12.68 7.38959 12.11C7.38959 11.69 7.47955 11.33 7.65955 11.0201C7.83955 10.7101 8.07957 10.44 8.36957 10.19C8.65957 9.94005 8.96955 9.70004 9.28955 9.48004C9.55955 9.28004 9.81958 9.07004 10.0696 8.87004C10.3196 8.66004 10.5196 8.44004 10.6696 8.20004C10.8296 7.96004 10.8996 7.69005 10.8996 7.38005C10.8996 6.97005 10.7496 6.66004 10.4496 6.45004C10.1496 6.24004 9.71956 6.13005 9.16956 6.13005C8.87956 6.13005 8.58955 6.16005 8.28955 6.22005C7.98955 6.28005 7.66956 6.36005 7.35956 6.47005C7.03956 6.58005 6.72956 6.72005 6.41956 6.89005L6.30957 4.82005C6.48957 4.74005 6.70958 4.67004 6.94958 4.59004C7.18958 4.51004 7.45957 4.43005 7.74957 4.36005C8.03957 4.29005 8.34957 4.23004 8.67957 4.18004C9.00957 4.13004 9.35954 4.11005 9.71954 4.11005C10.4595 4.11005 11.0996 4.21005 11.6296 4.41005C12.1596 4.61005 12.5596 4.91005 12.8396 5.32005C13.1196 5.73005 13.2596 6.24004 13.2596 6.87004C13.2596 7.48004 13.1396 8.00005 12.8896 8.44005C12.6396 8.88005 12.3395 9.25005 11.9695 9.57005C11.5995 9.89005 11.2396 10.17 10.8896 10.42C10.5296 10.68 10.2196 10.93 9.94958 11.17C9.68958 11.42 9.54956 11.68 9.54956 11.98C9.54956 12.3 9.64955 12.5101 9.84955 12.6301C10.0495 12.7501 10.2796 12.81 10.5396 12.81C10.7396 12.81 10.9195 12.79 11.0995 12.73C11.2795 12.68 11.4296 12.6301 11.5696 12.5701L11.6496 13.7C11.5196 13.75 11.3496 13.8 11.1696 13.84C10.9796 13.89 10.7696 13.9201 10.5496 13.9601C10.2996 13.9901 10.0696 14 9.82959 14ZM9.51959 18.6001C9.19959 18.6001 8.91957 18.53 8.67957 18.4C8.43957 18.26 8.25958 18.08 8.12958 17.84C7.99958 17.6 7.92957 17.33 7.92957 17.04C7.92957 16.59 8.06956 16.22 8.35956 15.94C8.64956 15.65 9.03959 15.51 9.51959 15.51C9.85959 15.51 10.1396 15.5801 10.3796 15.7101C10.6196 15.8401 10.7996 16.02 10.9296 16.25C11.0596 16.48 11.1196 16.75 11.1196 17.05C11.1196 17.5 10.9796 17.87 10.6996 18.17C10.4196 18.45 10.0296 18.6001 9.51959 18.6001Z" fill="#DC46AA"/>
<path d="M5.00995 17.16C2.32995 15.59 0.669922 12.68 0.669922 9.57999C0.669922 4.72999 4.60996 0.789978 9.45996 0.789978C14.31 0.789978 18.2499 4.72999 18.2499 9.57999C18.2499 12.65 16.69 15.44 14.08 17.06L13.2899 15.79C15.4599 14.45 16.7499 12.13 16.7499 9.58998C16.7499 5.56998 13.48 2.29999 9.45996 2.29999C5.43996 2.29999 2.16992 5.56998 2.16992 9.58998C2.16992 12.17 3.54996 14.58 5.76996 15.88L5.00995 17.16Z" fill="#DC46AA"/>
</svg>
