<svg width="23" height="17" viewBox="0 0 23 17" fill="none" xmlns="http://www.w3.org/2000/svg">
<path d="M0.766907 16.8052H2.02824L3.01624 14.5732L19.9936 14.5865L20.7402 16.7892H21.8909C21.8909 16.7892 21.9309 14.9665 21.9682 13.1945L0.78824 12.9905C0.78424 14.8158 0.766907 16.8052 0.766907 16.8052ZM20.4189 8.09984C15.6122 8.09984 8.22824 8.06118 3.11224 8.06118C1.58291 8.06118 0.738907 8.69051 0.78024 10.4252C0.794907 10.8078 0.794907 11.4278 0.794907 12.1345L21.9922 12.0718C22.0069 11.3305 22.0189 10.6838 22.0242 10.2972C22.0442 8.87851 21.3256 8.09984 20.4189 8.09984M2.66424 6.97851C2.66424 6.97851 2.47357 5.06117 2.43891 3.60251C2.39891 1.86517 3.25624 1.45451 4.77091 1.23851C8.55491 0.698508 14.9456 0.667842 18.7429 1.41717C19.6322 1.59184 20.3682 2.19318 20.3496 3.61451C20.3376 5.09718 20.2296 6.81451 20.2296 6.81451L18.4802 6.83984C18.1802 5.82918 18.4189 4.10651 18.6349 3.48917L18.4029 3.37317C17.9816 3.96917 13.4269 4.03318 12.5589 3.51984L12.3909 3.61851C12.7429 4.19051 12.8869 5.92118 12.6229 6.89184L10.6362 6.90918C10.3842 5.89051 10.4682 4.33184 10.7869 3.75584L10.5576 3.45051C10.1362 3.89318 5.34691 4.03984 4.57624 3.53317L4.35357 3.74251C4.73491 4.34118 4.77491 5.88384 4.60824 6.95984L2.66424 6.97851Z" fill="white"/>
</svg>
