<svg width="33" height="35" viewBox="0 0 33 35" fill="none" xmlns="http://www.w3.org/2000/svg">
<path d="M16.4585 2.04898C16.4585 2.04898 16.4585 0 13.4059 0C11.3151 0 7.84438 2.0908 7.17532 4.09797C5.12634 4.09797 2.03195 8.23775 3.07735 11.3321C-0.0170311 12.3357 -0.644271 19.5699 1.02837 20.5735C-1.02062 22.6643 -0.0170308 27.8076 4.12275 28.8112C5.12634 31.9892 7.80256 34.1219 10.3115 33.9546C11.1897 34.7073 12.1096 35 13.4059 35C16.4585 35 16.4585 32.9928 16.4585 29.8984V2.04898ZM16.4585 2.04898C16.4585 2.04898 16.4585 0 19.5529 0C21.6018 0 25.0726 2.0908 25.7416 4.09797C27.7906 4.09797 30.885 8.23775 29.8396 11.3321C32.9758 12.3357 33.5612 19.5699 31.8886 20.5735C33.9794 22.6643 32.9758 27.8076 28.836 28.8112C27.7906 31.9892 25.1144 34.1219 22.6054 33.9546C21.7273 34.7073 20.8073 35 19.5529 35C16.4585 35 16.4585 32.9928 16.4585 29.8984V2.04898Z" fill="#F2ABBA"/>
<path d="M10.2883 9.76343C10.2464 9.76343 10.1628 9.76343 10.121 9.76343C7.40295 8.84348 6.69208 6.33451 6.69208 5.12185C6.69208 4.82914 6.90116 4.62006 7.19387 4.62006C7.48658 4.62006 7.69566 4.82914 7.69566 5.12185C7.69566 5.2473 7.73748 7.88171 10.4555 8.75984C10.7482 8.84348 10.8737 9.13619 10.79 9.4289C10.7064 9.63798 10.5392 9.76343 10.2883 9.76343Z" fill="#E75A70"/>
<path d="M10.2947 11.823C10.0856 11.823 9.91833 11.7394 9.83469 11.5303C8.83111 9.56495 10.211 8.22684 11.131 7.76686C11.3401 7.64142 11.6328 7.76686 11.7582 8.01776C11.8837 8.26866 11.8 8.56137 11.5492 8.68682C11.3819 8.77045 9.96014 9.52314 10.7546 11.0703C10.8801 11.3212 10.7965 11.6558 10.5456 11.7812C10.4619 11.823 10.3783 11.823 10.2947 11.823ZM7.493 17.0918L7.03302 16.9664C3.72956 15.8374 2.89324 12.4084 2.85142 12.283C2.8096 11.9903 2.97687 11.7394 3.26958 11.6558C3.56229 11.6139 3.81319 11.7812 3.89682 12.0321C3.89682 12.0739 4.52406 14.7501 6.99121 15.8374C7.45118 15.1683 8.5384 13.872 10.2947 13.872C10.5874 13.872 10.8383 14.1229 10.8383 14.4156C10.8383 14.6665 10.5874 14.9174 10.2947 14.9174C8.58021 14.9174 7.70208 16.6737 7.70208 16.6737L7.493 17.0918ZM9.29109 20.9389C8.99837 20.9389 8.74748 20.7298 8.74748 20.4371C8.74748 20.3953 8.74748 20.3117 8.7893 20.2699C8.7893 20.228 10.002 16.8828 14.5599 18.0118C14.8108 18.0954 14.9781 18.3463 14.8944 18.639C14.8108 18.9317 14.5599 19.099 14.309 19.0154C10.7128 18.0954 9.79288 20.5207 9.75106 20.6044C9.66743 20.8135 9.45835 20.9389 9.29109 20.9389ZM6.15489 26.2495C6.07125 26.2495 5.98762 26.2077 5.94581 26.1659C4.3568 25.4132 4.18953 24.0333 4.44043 23.1133C2.55871 22.8206 1.2206 21.4407 1.17878 21.3989C0.969701 21.1898 1.01152 20.8553 1.2206 20.6462C1.42968 20.4789 1.72239 20.5207 1.93147 20.688C1.93147 20.688 3.35321 22.1098 5.1513 22.1098H5.94581L5.61128 22.8624C5.52765 23.0297 4.85859 24.4933 6.40578 25.246C6.65668 25.3714 6.74031 25.7059 6.61486 25.9568C6.53123 26.1241 6.36397 26.2495 6.15489 26.2495ZM11.2983 33.4419C11.0474 33.4419 10.8383 33.2328 10.8383 32.9401C10.8383 32.7728 10.8801 32.6474 10.9637 32.5638C11.0055 32.5638 12.8454 30.7239 12.3855 29.0512C12.3018 28.7585 12.4691 28.4658 12.7618 28.3822C13.0127 28.3403 13.2636 28.5076 13.3472 28.7585C13.9745 31.0584 11.7582 33.191 11.6746 33.3164C11.591 33.4001 11.4237 33.4419 11.2983 33.4419Z" fill="#E75A70"/>
<path d="M13.5617 29.4258C11.5964 29.4258 10.9273 28.0877 10.8855 28.004C10.76 27.7531 10.8437 27.4604 11.0528 27.335C11.3455 27.2095 11.6382 27.2932 11.7636 27.5441C11.8054 27.6277 12.4327 28.6731 14.3144 28.2967C14.5653 28.2549 14.858 28.464 14.8998 28.7149C14.9416 29.0076 14.7744 29.2585 14.4817 29.3421C14.2308 29.384 13.8962 29.4258 13.5617 29.4258ZM11.0109 4.12709C10.76 4.12709 10.551 3.8762 10.551 3.58349C10.551 3.45804 10.5928 3.33259 10.6764 3.24896C10.7182 3.20714 12.0145 1.7854 13.6035 1.74358C14.4399 1.74358 15.1507 2.07811 15.8198 2.70535C16.0289 2.91443 16.0289 3.24896 15.8198 3.41622C15.6107 3.62531 15.2762 3.62531 15.0671 3.41622C14.6071 2.99806 14.1471 2.78898 13.6453 2.78898C12.4745 2.8308 11.4291 3.91801 11.4291 3.95983C11.3037 4.04346 11.1782 4.12709 11.0109 4.12709ZM22.6358 9.77226C22.3849 9.77226 22.134 9.52136 22.134 9.27047C22.134 9.01957 22.2594 8.8523 22.4685 8.76867C25.1448 7.84872 25.1866 5.25613 25.1866 5.13068C25.2284 4.83797 25.3956 4.62889 25.7302 4.62889C26.0229 4.62889 26.2738 4.83797 26.2738 5.13068C26.2738 6.34335 25.5211 8.8523 22.8449 9.73044C22.7612 9.77226 22.7194 9.77226 22.6358 9.77226Z" fill="#E75A70"/>
<path d="M22.6149 11.823C22.364 11.823 22.1131 11.6139 22.1131 11.3212C22.1131 11.2376 22.1131 11.154 22.1549 11.0703C22.9494 9.52313 21.5695 8.77045 21.4022 8.68682C21.1513 8.56137 21.0259 8.26865 21.1513 7.97594C21.2768 7.72504 21.6113 7.64141 21.8204 7.76686C22.6985 8.22684 24.0785 9.56495 23.1167 11.5303C23.0331 11.7394 22.824 11.823 22.6149 11.823ZM25.4584 17.0918L25.2493 16.6737C25.2493 16.6737 24.3293 14.9174 22.6149 14.9174C22.364 14.9174 22.1131 14.6665 22.1131 14.4156C22.1131 14.1229 22.364 13.872 22.6149 13.872C24.413 13.872 25.4584 15.1683 25.9184 15.8374C28.4273 14.7501 29.0546 12.0739 29.0546 12.0321C29.1382 11.7812 29.3891 11.5721 29.6818 11.6558C29.9745 11.7394 30.1418 11.9903 30.1 12.283C30.0581 12.4084 29.2218 15.8374 25.8765 16.9664L25.4584 17.0918ZM23.6603 20.9389C23.4512 20.9389 23.2839 20.8135 23.2003 20.6044C23.1585 20.5207 22.1967 18.0954 18.6424 19.0154C18.3497 19.099 18.0988 18.9317 18.0151 18.639C17.9733 18.3463 18.1406 18.0954 18.3915 18.0118C22.9076 16.8828 24.1203 20.228 24.1621 20.2699C24.2457 20.5207 24.0785 20.8135 23.8276 20.9389C23.7857 20.9389 23.7021 20.9389 23.6603 20.9389ZM26.7547 26.2495C26.462 26.2495 26.2529 25.9986 26.2529 25.7477C26.2529 25.5387 26.3365 25.3714 26.5456 25.246C28.0928 24.4933 27.3819 23.0297 27.2983 22.8624L26.9638 22.1098H27.8001C29.5982 22.1098 30.9781 20.688 31.0199 20.688C31.229 20.4789 31.5635 20.4789 31.7726 20.688C31.9399 20.8971 31.9399 21.1898 31.7726 21.3989C31.689 21.4407 30.3927 22.8206 28.511 23.1133C28.72 24.0333 28.5528 25.4132 26.9638 26.1659C26.9219 26.2077 26.8383 26.2495 26.7547 26.2495ZM21.6113 33.4419C21.4859 33.4419 21.3604 33.4001 21.2768 33.3164C21.1513 33.191 18.9351 31.0584 19.5623 28.7585C19.646 28.4658 19.9387 28.3403 20.1477 28.3822C20.4405 28.424 20.6077 28.7167 20.5659 29.0094V29.0512C20.0641 30.7239 21.9458 32.5638 21.9458 32.5638C22.1549 32.731 22.1549 33.0656 21.9458 33.2746C21.8622 33.4001 21.7368 33.4419 21.6113 33.4419Z" fill="#E75A70"/>
<path d="M19.3976 29.4258C19.0631 29.4258 18.7285 29.384 18.4358 29.3421C18.1431 29.2585 17.9759 29.0076 18.0177 28.7149C18.1013 28.464 18.3522 28.2549 18.6031 28.2967C20.5266 28.6731 21.1539 27.5859 21.1539 27.5441C21.3211 27.2932 21.6139 27.2095 21.8647 27.335C22.0738 27.5022 22.1575 27.7531 22.0738 28.004C22.032 28.0877 21.363 29.4258 19.3976 29.4258ZM21.9066 4.12709C21.7811 4.12709 21.6139 4.04346 21.5302 3.95983C21.4884 3.91801 20.443 2.8308 19.314 2.78898C18.7704 2.74717 18.3104 2.99806 17.8504 3.41622C17.6413 3.62531 17.3068 3.62531 17.1395 3.41622C16.9305 3.24896 16.9305 2.91443 17.1395 2.70535C17.8086 2.07811 18.5195 1.74358 19.3558 1.74358C20.9448 1.7854 22.1993 3.20714 22.2411 3.24896C22.4502 3.45804 22.4502 3.79257 22.1993 4.00165C22.1156 4.08528 21.9902 4.12709 21.9066 4.12709Z" fill="#E75A70"/>
<path d="M16.9833 3.06906H15.9797C15.687 3.06906 15.4361 3.31996 15.4361 3.61267V30.3749C15.4361 30.6676 15.687 30.8767 15.9797 30.8767H16.9833C17.276 30.8767 17.4851 30.6676 17.4851 30.3749V3.61267C17.4851 3.31996 17.276 3.06906 16.9833 3.06906Z" fill="#E75A70"/>
</svg>
