<svg width="14" height="18" viewBox="0 0 14 18" fill="none" xmlns="http://www.w3.org/2000/svg">
<g clip-path="url(#clip0_14_4)">
<path fill-rule="evenodd" clip-rule="evenodd" d="M12.5159 14.7458C12.1341 14.0277 11.0085 11.7111 11.0085 11.7111L10.5654 11.6914C11.0382 14.6271 9.33886 17.9604 5.50898 17.9604C-1.78482 17.9604 -1.65822 7.88126 4.83637 7.33922L5.06585 6.08303L3.56436 6.09688L0.818549 8.37978C0.818549 8.37978 -0.22003 7.9505 0.308162 7.19283C0.751289 6.5499 2.73152 4.0395 2.73152 4.0395C2.73152 4.0395 5.35665 3.82387 6.86803 3.82387C8.64845 3.82387 9.38436 5.08204 8.98674 6.85059C8.89772 7.24624 8.77111 7.85158 8.66626 8.35406C8.90104 8.53066 9.11833 8.7294 9.31512 8.94753L12.6406 9.41638L13.9482 14.9654C13.9482 14.9654 12.9689 15.5885 12.5159 14.7458ZM5.37841 8.66662C0.130119 8.66662 -0.121118 16.6073 5.46743 16.6073C10.5713 16.6073 10.6049 8.66662 5.37841 8.66662ZM7.30325 1.86145C7.02431 -0.362102 10.6267 -0.803252 10.6267 1.6933C10.6267 4.22348 7.57031 4.00191 7.30325 1.86145V1.86145ZM11.5743 15.0564C13.513 15.0564 13.4991 18 11.6079 18C9.53471 18.004 9.62967 15.0564 11.5743 15.0564ZM11.5743 17.088C12.2944 17.088 12.2983 15.9683 11.5604 15.9683C11.4114 15.9707 11.2695 16.0322 11.1658 16.1392C11.0621 16.2462 11.0052 16.3901 11.0075 16.5391C11.0099 16.6881 11.0713 16.83 11.1784 16.9337C11.2854 17.0374 11.4292 17.0943 11.5782 17.092L11.5743 17.088Z" fill="#51D2DA"/>
</g>
<defs>
<clipPath id="clip0_14_4">
<rect width="13.9482" height="18" fill="white"/>
</clipPath>
</defs>
</svg>
