<svg width="114" height="148" viewBox="0 0 114 148" fill="none" xmlns="http://www.w3.org/2000/svg">
<path d="M111 3.95683L1.95595 1L0 131.594L79.2159 138L111 113.36V3.95683Z" fill="white"/>
<path fill-rule="evenodd" clip-rule="evenodd" d="M57.072 106.343L55.3693 113.567L26.4067 110.925L26.5427 101.265L20.444 93.548L26.4067 87.5173L26.5933 76.988L35.2827 77.244L39.5933 69.6973L47.788 75.6587L56.3053 72.696L58.4187 82.2867L66.544 86.596L63.0347 94.128L65.0973 102.901L57.072 106.343ZM24.0213 58.3333L24.2253 47.2587L76.3747 49.2027L76.1533 60.2747L24.0213 58.3333ZM92.56 27.14L92.3547 38.212L24.4467 36.168L24.652 25.0947L92.56 27.14ZM58.128 137.008V126.344L71.7573 127.519L73.4613 102.781L103.48 103.837L103.241 11.636L10.852 10.512L9.82934 122.152L28.4853 123.856L29.6267 116.768L51.9613 119.188L49.696 147.707L37.0027 140.007L25.1627 144.316L26.764 134.436L0 132.085L1.704 0L113.156 2.50401V113.14L80.072 138.881L58.128 137.008Z" fill="#E73331"/>
</svg>
