<svg width="35" height="46" viewBox="0 0 35 46" fill="none" xmlns="http://www.w3.org/2000/svg">
<path fill-rule="evenodd" clip-rule="evenodd" d="M17.4495 45.4038C12.6788 40.5585 7.03481 35.1478 3.76148 29.4785C0.489482 23.8078 -1.12252 17.2051 0.877482 11.2278C2.87748 5.25048 9.06148 0.193146 16.3508 0.00514603C23.9575 -0.189522 31.0015 4.98781 33.5068 11.2145C36.0121 17.4438 34.6161 24.3571 31.3708 30.1985C28.1255 36.0398 22.3481 40.5065 17.4495 45.4038Z" fill="#7D471B"/>
<path d="M22.2464 12.383L12.4864 12.3003L12.5957 15.7163L22.3744 15.7376L22.2464 12.383ZM24.1877 9.75497H10.6037C9.48773 9.75497 7.09306 10.407 7.09039 12.8136C7.09306 16.6016 11.6411 16.347 11.6411 13.791C11.6411 11.487 9.47306 12.1856 9.66239 13.2656C10.2291 13.4563 10.0784 13.9896 9.58773 13.9896C8.97439 13.9896 8.84639 13.5776 8.84639 12.911C8.84639 11.6683 10.0611 11.3336 10.6477 11.3336H24.1437C24.7304 11.3336 25.9451 11.6683 25.9451 12.911C25.9451 13.5696 25.8171 13.9896 25.2024 13.9896C24.7091 13.9896 24.5611 13.4563 25.1291 13.2656C25.3184 12.1856 23.1504 11.4763 23.1504 13.791C23.1504 16.347 27.6984 16.6016 27.7011 12.8136C27.7037 10.3856 25.3037 9.75497 24.1877 9.75497ZM23.3544 16.5883C23.3544 16.5883 23.5251 18.671 21.9544 18.9483L22.5851 26.059H20.7517L20.4677 18.971H19.4797L19.5571 26.0656H18.0851L18.0557 18.963H16.9904L16.9131 26.0723H15.4144L15.4851 18.955H14.4104L14.1384 26.0776H12.0971L12.7277 18.8723C11.3624 18.511 11.5984 16.5883 11.5984 16.5883H23.3544Z" fill="white"/>
</svg>
