<svg width="37" height="30" viewBox="0 0 37 30" fill="none" xmlns="http://www.w3.org/2000/svg">
<g clip-path="url(#clip0_1379_55633)">
<path fill-rule="evenodd" clip-rule="evenodd" d="M10.0806 2.99786C5.37868 4.65963 1.44776 6.08068 1.34519 6.15584C0.749632 6.59219 0.804158 7.50779 1.44783 7.87974C1.55998 7.94462 5.50344 9.36638 10.211 11.0392C17.4539 13.613 18.8136 14.0757 19.0521 14.0475C19.3653 14.0104 36.1218 8.06953 36.445 7.88087C36.7952 7.67665 36.9456 7.40796 36.9456 6.98697C36.9456 6.56563 36.7954 6.29779 36.4436 6.09174C36.3307 6.02559 32.4506 4.63384 27.8213 2.99892C21.5521 0.784919 19.3055 0.0200791 19.0169 0.00148122C18.6572 -0.0216253 18.017 0.193026 10.0806 2.99786ZM33.3352 11.2672L32.3313 11.6289V15.8363V20.0436L31.9149 20.46C31.5939 20.7809 31.4728 20.9628 31.3865 21.2533C31.1344 22.1022 31.3329 22.8815 31.9529 23.4772L32.3265 23.8362L32.3465 26.5899C32.366 29.2633 32.3708 29.3494 32.5148 29.5424C32.9698 30.1525 33.8063 30.1525 34.2612 29.5424C34.4053 29.3493 34.41 29.2641 34.4294 26.5416L34.4493 23.7394L34.633 23.6411C34.9128 23.4914 35.2801 22.9637 35.4059 22.531C35.6344 21.7452 35.3857 20.9006 34.765 20.3543L34.4447 20.0723V15.4845C34.4447 12.9613 34.421 10.8987 34.3919 10.9011C34.3628 10.9035 33.8873 11.0682 33.3352 11.2672ZM8.32173 15.1412C8.34385 17.5889 8.3466 17.6293 8.5111 17.9634C8.95033 18.8555 10.1797 19.6085 12.1914 20.2181C16.2233 21.4395 21.6641 21.4402 25.7093 20.2195C27.7018 19.6183 28.9432 18.8537 29.3858 17.955C29.5451 17.6315 29.5491 17.571 29.5711 15.1412C29.5868 13.4102 29.5707 12.6579 29.5182 12.6579C29.4767 12.6579 27.2475 13.4417 24.5644 14.3998L19.6861 16.1416L18.9464 16.1408L18.2067 16.14L13.3366 14.399C10.6581 13.4414 8.42895 12.6579 8.38295 12.6579C8.31955 12.6579 8.30476 13.2592 8.32173 15.1412Z" fill="#0E1825"/>
</g>
<defs>
<clipPath id="clip0_1379_55633">
<rect width="36.0156" height="30" fill="white" transform="translate(0.929932)"/>
</clipPath>
</defs>
</svg>
