<svg width="25" height="25" viewBox="0 0 25 25" fill="none" xmlns="http://www.w3.org/2000/svg">
<path d="M12.1603 24.7001C18.7214 24.7001 24.0403 19.3812 24.0403 12.8201C24.0403 6.25893 18.7214 0.940063 12.1603 0.940063C5.59914 0.940063 0.280273 6.25893 0.280273 12.8201C0.280273 19.3812 5.59914 24.7001 12.1603 24.7001Z" fill="#51D2DA"/>
<path d="M3.26074 14.5701V11.0601C4.47074 11.0601 5.64072 11.0601 6.77072 11.0601C7.90072 11.0601 8.96074 11.0601 9.95074 11.0601H14.3607C15.3407 11.0601 16.4007 11.0601 17.5407 11.0601C18.6807 11.0601 19.8507 11.0601 21.0507 11.0601V14.5701C19.8407 14.5701 18.6707 14.5701 17.5407 14.5701C16.4107 14.5701 15.3507 14.5701 14.3607 14.5701H9.95074C8.97074 14.5701 7.91072 14.5701 6.77072 14.5701C5.63072 14.5701 4.47074 14.5701 3.26074 14.5701ZM10.3607 21.9401C10.3607 20.7201 10.3607 19.5401 10.3607 18.4101C10.3607 17.2801 10.3607 16.2201 10.3607 15.2201V10.3801C10.3607 9.38007 10.3607 8.32006 10.3607 7.19006C10.3607 6.06006 10.3607 4.89006 10.3607 3.69006H13.9507C13.9507 4.90006 13.9507 6.07006 13.9507 7.19006C13.9507 8.32006 13.9507 9.38007 13.9507 10.3801V15.2201C13.9507 16.2201 13.9507 17.2801 13.9507 18.4101C13.9507 19.5401 13.9507 20.7101 13.9507 21.9401H10.3607Z" fill="white"/>
</svg>
