<svg width="114" height="139" viewBox="0 0 114 139" fill="none" xmlns="http://www.w3.org/2000/svg">
<path d="M112 3.95683L2.95595 1L1 131.594L80.2159 138L112 113.36V3.95683Z" fill="white"/>
<path fill-rule="evenodd" clip-rule="evenodd" d="M76.9883 60.3063L24.8563 58.365L25.0603 47.2903L77.2096 49.233L76.9883 60.3063ZM25.2816 36.1996L25.487 25.1263L93.395 27.1703L93.1896 38.2436L25.2816 36.1996ZM56.511 95.369L50.803 89.285C44.1416 100.513 36.015 96.5436 36.015 96.5436L43.8176 81.0916L57.1576 79.985L62.4896 86.3556L66.8856 69.9836C66.8856 69.9836 75.643 68.6383 74.007 78.1783L81.5536 77.6676C81.5536 77.6676 81.9803 87.1223 93.0883 86.185L94.179 91.6543C79.9696 94.2783 74.8763 88.333 74.8763 88.333L72.5923 94.2103L56.511 95.369ZM104.076 11.6676L11.687 10.5436L10.6643 122.184L72.6776 127.516L74.3816 102.778L104.4 103.834L104.076 11.6676ZM0.834961 132.116L2.53896 0.0316347L113.991 2.53563V113.17L80.9056 138.913L0.834961 132.116Z" fill="#45AAE1"/>
</svg>
