<svg width="25" height="32" viewBox="0 0 25 32" fill="none" xmlns="http://www.w3.org/2000/svg">
<path fill-rule="evenodd" clip-rule="evenodd" d="M3.7343 14.9143L14.817 15.0952H15.437C25.9771 15.0952 26.9846 0.98999 15.3594 0.98999C11.0194 0.98999 3.26931 1.09343 3.26931 1.09343L3.63102 5.0976L3.68274 10.8585L0.350098 10.8326L0.737665 14.7852L3.7343 14.9143ZM15.127 5.0976C20.5262 5.0976 18.4078 9.79925 16.8061 10.8326L8.51361 10.8585L8.3069 5.12346C8.33273 5.12346 14.662 5.0976 15.127 5.0976Z" fill="#51D2DA"/>
<path fill-rule="evenodd" clip-rule="evenodd" d="M15.7475 16.9808H15.1016L8.90149 17.0326L0.970703 16.9808L1.3064 20.3392L3.70906 20.3909V21.3467L3.63148 27.3143L3.24392 31.4993C3.24392 31.4993 11.1491 31.6028 15.6442 31.6028C27.7601 31.6028 26.7009 16.9808 15.7475 16.9808ZM15.5149 27.521C15.024 27.521 8.51408 27.4951 8.51408 27.4951L8.72079 21.3726L17.2974 21.3984C19.0283 22.5093 21.2758 27.521 15.5149 27.521Z" fill="#51D2DA"/>
</svg>
