<svg width="35" height="46" viewBox="0 0 35 46" fill="none" xmlns="http://www.w3.org/2000/svg">
<path fill-rule="evenodd" clip-rule="evenodd" d="M17.4492 45.4028C12.6785 40.5575 7.03452 35.1482 3.76252 29.4775C0.490524 23.8068 -1.12281 17.2055 0.877192 11.2268C2.87719 5.25084 9.06252 0.192169 16.3505 0.00550079C23.9585 -0.189167 31.0025 4.98683 33.5079 11.2148C36.0119 17.4428 34.6172 24.3562 31.3705 30.1975C28.1265 36.0388 22.3492 40.5068 17.4492 45.4028Z" fill="#51D2DA"/>
<path d="M6.76691 24.8052H8.02824L9.01624 22.5732L25.9936 22.5865L26.7402 24.7892H27.8909C27.8909 24.7892 27.9309 22.9665 27.9682 21.1945L6.78824 20.9905C6.78424 22.8158 6.76691 24.8052 6.76691 24.8052ZM26.4189 16.0998C21.6122 16.0998 14.2282 16.0612 9.11224 16.0612C7.58291 16.0612 6.73891 16.6905 6.78024 18.4252C6.79491 18.8078 6.79491 19.4278 6.79491 20.1345L27.9922 20.0718C28.0069 19.3305 28.0189 18.6838 28.0242 18.2972C28.0442 16.8785 27.3256 16.0998 26.4189 16.0998ZM8.66424 14.9785C8.66424 14.9785 8.47357 13.0612 8.43891 11.6025C8.39891 9.86518 9.25624 9.45451 10.7709 9.23851C14.5549 8.69851 20.9456 8.66784 24.7429 9.41718C25.6322 9.59184 26.3682 10.1932 26.3496 11.6145C26.3376 13.0972 26.2296 14.8145 26.2296 14.8145L24.4802 14.8398C24.1802 13.8292 24.4189 12.1065 24.6349 11.4892L24.4029 11.3732C23.9816 11.9692 19.4269 12.0332 18.5589 11.5198L18.3909 11.6185C18.7429 12.1905 18.8869 13.9212 18.6229 14.8918L16.6362 14.9092C16.3842 13.8905 16.4682 12.3318 16.7869 11.7558L16.5576 11.4505C16.1362 11.8932 11.3469 12.0398 10.5762 11.5332L10.3536 11.7425C10.7349 12.3412 10.7749 13.8838 10.6082 14.9598L8.66424 14.9785Z" fill="white"/>
</svg>
