<svg width="38" height="36" viewBox="0 0 38 36" fill="none" xmlns="http://www.w3.org/2000/svg">
<path fill-rule="evenodd" clip-rule="evenodd" d="M13.4337 2.8816C10.6937 4.94693 4.75508 10.0789 1.93774 12.0883C-5.01292 5.24827 8.60308 -5.0744 13.4337 2.8816ZM19.9884 31.3949L17.5991 31.7216L16.9431 28.1549H19.9884V31.3949ZM7.88441 22.9723L7.55774 19.6669L12.0084 20.2923L11.9084 22.5469L7.88441 22.9723ZM15.9337 10.0723H17.6617L17.9884 14.1003L15.6084 13.7749L15.9337 10.0723ZM18.9337 10.0723L21.1991 9.90693L21.3591 14.1043L18.6577 13.9976L18.9337 10.0723ZM17.6937 22.8203L12.4084 17.7989L13.4257 16.3656L18.3511 18.9523L26.2977 13.3989L27.0831 14.3816L19.4297 22.4936L17.6937 22.8203ZM25.8191 22.5029L25.4924 19.4483H29.4724V21.8456L25.8191 22.5029ZM18.4297 7.80293C1.83508 7.80293 0.420411 33.4243 19.5991 33.4243C35.7697 33.4109 35.3497 7.80293 18.4297 7.80293M31.2657 29.9243L33.3324 33.7309L31.4431 35.3296L28.2031 33.1803C26.0337 34.8043 23.2444 35.7923 19.7977 35.7923C15.6657 35.7923 12.3591 34.7843 9.81774 33.1309L6.51241 35.3296L4.62441 33.7309L6.53641 30.2043C-0.666255 21.3563 4.11108 5.1176 18.4017 5.1176C32.8324 5.1176 37.1177 21.0189 31.2657 29.9243M23.6124 2.8816C28.4391 -5.0744 42.0751 5.24827 35.1044 12.0883C32.2951 10.0789 26.3484 4.94693 23.6124 2.8816Z" fill="black"/>
</svg>
