<svg width="33" height="26" viewBox="0 0 33 26" fill="none" xmlns="http://www.w3.org/2000/svg">
<path fill-rule="evenodd" clip-rule="evenodd" d="M15.9398 0.0297724C15.7696 0.0595085 15.4824 0.157842 15.3016 0.248262C15.1056 0.346276 11.987 2.903 7.57129 6.58587C-0.225871 13.089 -0.0106991 12.8953 0.0947809 13.3154C0.115456 13.398 0.464121 13.8581 0.869514 14.338C1.48446 15.0659 1.64259 15.2172 1.82336 15.2512C1.94263 15.2735 2.09922 15.2731 2.17139 15.2502C2.24356 15.2273 5.46928 12.5689 9.33969 9.34258C13.2102 6.11628 16.3912 3.4766 16.4088 3.4766C16.4263 3.4766 19.6074 6.11628 23.4778 9.34258C27.3483 12.5689 30.574 15.2273 30.6461 15.2502C30.7183 15.2731 30.8749 15.2735 30.9942 15.2512C31.175 15.2172 31.3331 15.0659 31.948 14.338C32.3534 13.8581 32.7021 13.398 32.7228 13.3154C32.8217 12.9213 32.7456 12.8419 30.3822 10.8742L28.1181 8.98919L28.0862 4.70184L28.0543 0.414491L27.8775 0.237606L27.7006 0.0607209L25.6441 0.0404289C24.3049 0.02722 23.5065 0.04413 23.3553 0.088734C22.9231 0.216357 22.9212 0.226886 22.9025 2.55166L22.8856 4.6349L20.2841 2.4636C17.494 0.134997 17.4109 0.0790986 16.6321 0.00979953C16.4215 -0.00896098 16.11 3.63914e-05 15.9398 0.0297724ZM10.5529 10.0592L4.73131 14.8578L4.73169 19.8386C4.73188 23.2596 4.75396 24.8994 4.80214 25.0747C4.89868 25.4261 5.32916 25.831 5.70756 25.9263C5.91296 25.978 7.16181 26 9.89638 26H13.7925V22.1075V18.215H16.4088H19.025V22.1075V26H22.9212C25.5179 26 26.9093 25.9768 27.0931 25.9306C27.4483 25.8411 27.8159 25.5362 27.9654 25.2069C28.077 24.9613 28.0835 24.6718 28.0848 19.9024L28.0862 14.8577L22.2877 10.0782C19.0985 7.44949 16.4633 5.29018 16.4318 5.27965C16.4002 5.26912 13.7547 7.41988 10.5529 10.0592Z" fill="#0E1825"/>
</svg>
