<svg width="35" height="46" viewBox="0 0 35 46" fill="none" xmlns="http://www.w3.org/2000/svg">
<path fill-rule="evenodd" clip-rule="evenodd" d="M17.4492 45.4038C12.6785 40.5585 7.03452 35.1478 3.76252 29.4785C0.490524 23.8078 -1.12281 17.2051 0.877192 11.2278C2.87719 5.25048 9.06252 0.191811 16.3505 0.00514603C23.9585 -0.189522 31.0012 4.98781 33.5065 11.2145C36.0119 17.4438 34.6159 24.3558 31.3705 30.1985C28.1265 36.0398 22.3492 40.5065 17.4492 45.4038Z" fill="#DC46AA"/>
<path fill-rule="evenodd" clip-rule="evenodd" d="M20.9831 22.5787C20.9831 23.9494 21.7337 24.44 22.4484 24.44C23.1617 24.44 23.9137 23.9454 23.9137 22.8587C23.9137 22.2307 23.9137 21.2814 20.9831 21.2734V22.5787ZM25.4777 22.8587C25.4777 24.8587 23.9564 25.9987 22.4377 25.9987C20.9724 25.9987 19.4404 24.924 19.4404 22.5547V21.1907H16.4444L16.3417 19.6H20.9177C22.2111 19.6174 25.4777 19.7414 25.4777 22.8654V22.8587ZM12.2577 24.7427C13.0471 24.7427 13.8871 24.1974 13.8871 22.6614V21.1974C10.6111 21.208 10.6111 22.2694 10.6111 22.972C10.6111 24.1907 11.4644 24.7427 12.2577 24.7427ZM13.8871 19.6174V17.2334L15.4697 17.024V22.676C15.4697 25.2107 13.8177 26.3667 12.2577 26.3667C10.6311 26.3667 9.00305 25.1307 9.00305 22.992C9.00305 19.628 12.5097 19.6174 13.8871 19.6174ZM13.8871 13.14C13.8871 11.6067 13.0497 11.0587 12.2577 11.0587C11.4657 11.0587 10.6111 11.6107 10.6111 12.8267C10.6111 13.5294 10.6111 14.5907 13.8871 14.6V13.14ZM13.8871 16.1827C12.5097 16.1827 9.00305 16.1827 9.00305 12.832C9.00305 10.6907 10.6311 9.45737 12.2577 9.45737C13.8177 9.45737 15.4697 10.6107 15.4697 13.1467V14.612L18.5497 14.6347L18.4044 16.1947L13.8871 16.1827ZM22.5657 11.0627C21.8031 11.0627 20.9884 11.5934 20.9884 13.0774V14.5907C24.1604 14.5907 24.1604 13.4534 24.1604 12.7734C24.1604 11.6014 23.3337 11.0627 22.5657 11.0627ZM20.9804 16.18V18.708L19.4244 18.7947V13.0814C19.4244 10.5854 21.0497 9.4507 22.5844 9.4507C24.1857 9.4507 25.7884 10.6654 25.7884 12.772C25.7884 16.0667 22.3404 16.18 20.9804 16.18Z" fill="white"/>
</svg>
