<svg width="60" height="78" viewBox="0 0 60 78" fill="none" xmlns="http://www.w3.org/2000/svg">
<path fill-rule="evenodd" clip-rule="evenodd" d="M29.707 77.2983C21.5856 69.049 11.9763 59.8383 6.40564 50.185C0.834976 40.5317 -1.91169 29.2903 1.49364 19.1143C4.90031 8.93834 15.4283 0.32634 27.8363 0.00900269C40.7883 -0.322998 52.7803 8.49034 57.0443 19.0943C61.3096 29.6983 58.9336 41.4663 53.4083 51.4103C47.883 61.3557 38.047 68.9623 29.707 77.2983Z" fill="#E73331"/>
<path fill-rule="evenodd" clip-rule="evenodd" d="M9.60742 31.4931L16.4088 25.3344L9.79009 18.9424L21.0861 18.2064L19.8461 34.1704L9.60742 31.4931ZM22.6088 31.2744L24.3128 14.4664L36.9594 14.3344L34.6888 33.7104L22.6088 31.2744ZM39.6234 48.7397L35.7674 48.4491C35.7674 48.4491 39.5781 14.2557 39.9048 11.6744C40.2314 9.09308 44.2688 9.33708 44.0741 11.8531C43.8794 14.3677 39.6234 48.7397 39.6234 48.7397Z" fill="white"/>
</svg>
