<svg width="18" height="18" viewBox="0 0 18 18" fill="none" xmlns="http://www.w3.org/2000/svg">
<path fill-rule="evenodd" clip-rule="evenodd" d="M6.63989 8.34998H2.80988C1.74988 8.34998 0.879883 7.48997 0.879883 6.41997V2.58997C0.879883 1.52997 1.73988 0.659973 2.80988 0.659973H6.63989C7.69989 0.659973 8.56989 1.51997 8.56989 2.58997V6.41997C8.56989 7.47997 7.70989 8.34998 6.63989 8.34998Z" fill="#51D2DA"/>
<path fill-rule="evenodd" clip-rule="evenodd" d="M15.97 8.34998H12.14C11.08 8.34998 10.21 7.48997 10.21 6.41997V2.58997C10.21 1.52997 11.07 0.659973 12.14 0.659973H15.97C17.03 0.659973 17.9 1.51997 17.9 2.58997V6.41997C17.89 7.47997 17.03 8.34998 15.97 8.34998Z" fill="#51D2DA"/>
<path fill-rule="evenodd" clip-rule="evenodd" d="M6.63989 17.77H2.80988C1.74988 17.77 0.879883 16.91 0.879883 15.84V12.0099C0.879883 10.9499 1.73988 10.08 2.80988 10.08H6.63989C7.69989 10.08 8.56989 10.9399 8.56989 12.0099V15.84C8.56989 16.91 7.70989 17.77 6.63989 17.77Z" fill="#51D2DA"/>
<path fill-rule="evenodd" clip-rule="evenodd" d="M15.97 17.77H12.14C11.08 17.77 10.21 16.91 10.21 15.84V12.0099C10.21 10.9499 11.07 10.08 12.14 10.08H15.97C17.03 10.08 17.9 10.9399 17.9 12.0099V15.84C17.89 16.91 17.03 17.77 15.97 17.77Z" fill="#51D2DA"/>
</svg>
