<svg width="35" height="25" viewBox="0 0 35 25" fill="none" xmlns="http://www.w3.org/2000/svg">
<path d="M8.15918 7.2201C10.0792 7.2201 11.6192 5.6801 11.6192 3.7601C11.6192 1.8401 10.0792 0.270106 8.15918 0.300106C6.23918 0.300106 4.69922 1.8401 4.69922 3.7601C4.69922 5.6501 6.23918 7.2201 8.15918 7.2201Z" fill="#51D2DA"/>
<path d="M13.9695 5.11011L9.82959 9.3701L8.15955 9.3401L6.48956 9.3701L2.35956 5.11011L0.30957 7.03011L4.62958 11.4901V24.6301H7.51959L7.41956 19.7201H8.15955H8.8996L8.80957 24.6301H11.6896V11.4901L16.0196 7.03011L13.9695 5.11011Z" fill="#51D2DA"/>
<path d="M21.2793 3.32011C22.5093 3.00011 22.8993 2.5101 22.8993 2.5101L23.2892 2.64011C23.1592 3.03011 23.0593 3.4201 23.0593 3.8401C23.0593 5.7901 24.6193 7.35011 26.5693 7.35011C28.5193 7.35011 30.0793 5.7901 30.0793 3.8401C30.0793 3.4201 30.0092 3.00011 29.8492 2.64011L29.8793 2.6701L30.2993 2.5401C30.2993 2.5401 30.6893 3.03011 31.9193 3.35011C33.1493 3.67011 34.1893 3.0901 34.1893 3.0901C34.1893 3.0901 32.8592 1.4701 31.7192 1.0401C30.5792 0.6201 29.6393 1.82011 29.6393 1.82011L29.4792 1.89011C28.8592 0.950106 27.7593 0.30011 26.5593 0.30011C25.3593 0.30011 24.2893 0.920107 23.6393 1.86011L23.5093 1.7901C23.5093 1.7901 22.5693 0.590101 21.4293 1.0101C20.2893 1.4301 18.9893 3.0601 18.9893 3.0601C18.9893 3.0601 20.0493 3.65011 21.2793 3.32011Z" fill="#DC46AA"/>
<path d="M34.6595 6.80009L32.5896 4.8501L28.3996 9.17009L26.6096 9.14009L24.8196 9.17009L20.6296 4.8501L18.5596 6.80009L22.9396 11.3101L20.9896 19.6601L22.9396 19.6901V24.6301H25.8596L25.7696 19.6601H26.6096H27.4496L27.3596 24.6301H30.2796V19.6901L32.2296 19.6601L30.2796 11.3101L34.6595 6.80009Z" fill="#DC46AA"/>
</svg>
