<svg width="25" height="24" viewBox="0 0 25 24" fill="none" xmlns="http://www.w3.org/2000/svg">
<path d="M4.7998 7.54297H19.8855V19.8858H4.7998V7.54297Z" fill="#292F33"/>
<path d="M5.48504 19.8862C5.48504 20.6432 5.07567 21.2576 4.57099 21.2576H3.65624C3.15156 21.2576 2.74219 20.6432 2.74219 19.8862V7.5433C2.74219 6.78628 3.15156 6.17188 3.65624 6.17188H4.5703C5.07567 6.17188 5.48504 6.78628 5.48504 7.5433V19.8862ZM21.9422 19.8862C21.9422 20.6432 21.5328 21.2576 21.0281 21.2576H20.1134C19.6087 21.2576 19.1993 20.6432 19.1993 19.8862V7.5433C19.1993 6.78628 19.6087 6.17188 20.1134 6.17188H21.0281C21.5328 6.17188 21.9422 6.78628 21.9422 7.5433V19.8862ZM10.9708 19.8862C10.9708 20.6432 10.5614 21.2576 10.0567 21.2576H9.14264C8.63727 21.2576 8.2279 20.6432 8.2279 19.8862V7.5433C8.2279 6.78628 8.63727 6.17188 9.14196 6.17188H10.056C10.5614 6.17188 10.9708 6.78628 10.9708 7.5433V19.8862ZM16.4565 19.8862C16.4565 20.6432 16.0464 21.2576 15.5417 21.2576H14.6284C14.1237 21.2576 13.7136 20.6432 13.7136 19.8862V7.5433C13.7136 6.78628 14.1237 6.17188 14.6284 6.17188H15.5417C16.0464 6.17188 16.4565 6.78628 16.4565 7.5433V19.8862Z" fill="#CCD6DD"/>
<path d="M22.6281 20.5716C22.6281 21.3287 22.0137 21.9431 21.2566 21.9431H3.42807C2.67104 21.9431 2.05664 21.3287 2.05664 20.5716C2.05664 19.8146 2.67104 19.2002 3.42807 19.2002H21.2566C22.0137 19.2002 22.6281 19.8146 22.6281 20.5716Z" fill="#9AAAB4"/>
<path d="M23.9998 21.9427C23.9998 22.6997 23.3854 23.3141 22.6284 23.3141H2.05698C1.29995 23.3141 0.685547 22.6997 0.685547 21.9427C0.685547 21.1857 1.29995 20.5713 2.05698 20.5713H22.6284C23.3854 20.5713 23.9998 21.1857 23.9998 21.9427Z" fill="#CCD6DD"/>
<path d="M24.6857 22.9719C24.6857 23.5397 24.2249 24.0005 23.6571 24.0005H1.02857C0.460114 24.0005 0 23.5397 0 22.9719C0 22.4042 0.460114 21.9434 1.02857 21.9434H23.6571C24.2249 21.9434 24.6857 22.4042 24.6857 22.9719Z" fill="#E1E8ED"/>
<path d="M22.6281 6.85678C22.6281 6.09975 21.9725 5.48535 21.1654 5.48535H3.42807C2.61961 5.48535 2.05664 6.09975 2.05664 6.85678C2.05664 7.37175 2.32133 7.81541 2.74235 8.04992V8.91392H5.48521V8.22821H8.22807V8.91392H10.9709V8.22821H13.7138V8.91392H16.4566V8.22821H19.1995V8.91392H21.9424V8.01427C22.3531 7.77152 22.6281 7.34569 22.6281 6.85678Z" fill="#9AAAB4"/>
<path d="M1.37109 5.79017C1.37109 5.0832 2.06504 4.8 2.06504 4.8L12.2849 0L22.6029 4.8C22.6029 4.8 23.314 4.9584 23.314 5.79429V6.17143H1.37109V5.79017Z" fill="#CCD6DD"/>
<path d="M12.3429 1.74316C12.3429 1.74316 5.26705 5.07916 4.56008 5.37882C3.85311 5.67848 4.08968 6.17151 4.56077 6.17151H20.0895C20.8177 6.17151 20.6463 5.61471 20.0682 5.31436C19.4895 5.01402 12.3429 1.74316 12.3429 1.74316Z" fill="#9AAAB4"/>
<path d="M23.314 6.17107C23.314 6.54958 23.0074 6.85678 22.6282 6.85678H2.05681C1.67829 6.85678 1.37109 6.54958 1.37109 6.17107C1.37109 5.79255 1.67829 5.48535 2.05681 5.48535L22.6282 5.48947C23.0074 5.48947 23.314 5.79255 23.314 6.17107Z" fill="#CCD6DD"/>
</svg>
