<svg width="27" height="27" viewBox="0 0 27 27" fill="none" xmlns="http://www.w3.org/2000/svg">
<path fill-rule="evenodd" clip-rule="evenodd" d="M4.43434 0.794547C3.58476 0.938332 2.82722 1.34666 2.14465 2.02866C1.59584 2.57702 1.27869 3.08012 1.03972 3.78139L0.875 4.26491V13.3006V22.3362L1.03972 22.8198C1.27863 23.5209 1.59578 24.0241 2.14465 24.5727C2.69352 25.1213 3.19692 25.4383 3.89841 25.6771L4.38216 25.8417L10.4449 25.8588L16.5077 25.8758L16.658 25.7256C16.8401 25.5435 16.8544 25.2773 16.6928 25.0778L16.5772 24.9351L10.5402 24.9049L4.50309 24.8747L4.10279 24.7188C3.51244 24.489 3.20049 24.2873 2.7818 23.8649C2.34946 23.4288 1.9803 22.7328 1.8769 22.1589C1.7868 21.6591 1.7868 4.94201 1.8769 4.44224C2.11006 3.14823 3.29844 1.97384 4.59379 1.75722C4.86766 1.71141 7.61805 1.69678 13.664 1.70899L22.3412 1.72646L22.7415 1.88233C23.3192 2.10723 23.6364 2.30891 24.0277 2.70008C24.4191 3.09118 24.6209 3.4083 24.8459 3.98568L25.0018 4.38579L25.032 10.42L25.0623 16.4541L25.205 16.5697C25.4047 16.7312 25.671 16.7169 25.8531 16.5349L26.0034 16.3846L25.9864 10.3247L25.9693 4.26491L25.8046 3.78139C25.5657 3.08024 25.2485 2.57708 24.6997 2.02847C24.1508 1.47987 23.6474 1.16286 22.9459 0.924068L22.4622 0.759432L13.6036 0.750728C8.73133 0.745893 4.60516 0.765657 4.43434 0.794547ZM6.04533 4.69415C5.18669 5.00698 4.65844 5.80025 4.72912 6.67063C4.88513 8.59133 7.40786 9.12779 8.33787 7.43797C8.53838 7.07358 8.55398 7.00788 8.55313 6.53138C8.55229 6.06273 8.53408 5.9841 8.34597 5.63537C8.00106 4.99598 7.47904 4.66532 6.74447 4.62096C6.4443 4.60282 6.23629 4.62458 6.04533 4.69415ZM7.03242 5.64679C7.65367 5.90626 7.80514 6.72037 7.322 7.20334C6.92974 7.59535 6.36969 7.59535 5.97743 7.20334C5.22968 6.45589 6.05477 5.23852 7.03242 5.64679ZM10.6681 6.19624C10.5745 6.28974 10.5197 6.41364 10.5197 6.53138C10.5197 6.64912 10.5745 6.77302 10.6681 6.86652L10.8165 7.01489H16.3246H21.8327L21.9811 6.86652C22.0747 6.77302 22.1296 6.64912 22.1296 6.53138C22.1296 6.41364 22.0747 6.28974 21.9811 6.19624L21.8327 6.04787H16.3246H10.8165L10.6681 6.19624ZM6.04533 11.4633C5.18669 11.7762 4.65844 12.5694 4.72912 13.4398C4.88513 15.3605 7.40786 15.897 8.33787 14.2072C8.53838 13.8428 8.55398 13.7771 8.55313 13.3006C8.55229 12.8319 8.53408 12.7533 8.34597 12.4046C8.00106 11.7652 7.47904 11.4345 6.74447 11.3902C6.4443 11.372 6.23629 11.3938 6.04533 11.4633ZM7.03242 12.416C7.65367 12.6755 7.80514 13.4896 7.322 13.9725C6.92974 14.3645 6.36969 14.3645 5.97743 13.9725C5.22968 13.2251 6.05477 12.0077 7.03242 12.416ZM10.6681 12.9654C10.5745 13.0589 10.5197 13.1828 10.5197 13.3006C10.5197 13.4183 10.5745 13.5422 10.6681 13.6357L10.8165 13.7841H16.3246H21.8327L21.9811 13.6357C22.0747 13.5422 22.1296 13.4183 22.1296 13.3006C22.1296 13.1828 22.0747 13.0589 21.9811 12.9654L21.8327 12.8171H16.3246H10.8165L10.6681 12.9654ZM21.2528 17.2544C19.9345 17.5122 18.8031 18.2707 18.0756 19.3846C17.5381 20.2076 17.325 20.9511 17.325 22.0038C17.325 23.054 17.5386 23.8017 18.0711 24.6152C19.54 26.8597 22.5298 27.5046 24.75 26.0559C27.3303 24.3723 27.7127 20.7648 25.5409 18.5941C24.9144 17.9679 24.195 17.5597 23.2794 17.3109C22.8077 17.1827 21.7677 17.1538 21.2528 17.2544ZM22.9382 18.2258C25.1567 18.6956 26.5332 21.094 25.7976 23.2081C25.5844 23.8211 25.3081 24.2612 24.848 24.721C23.3164 26.2519 20.9401 26.2516 19.4002 24.7203C17.883 23.2115 17.885 20.7995 19.4048 19.2804C20.3435 18.3422 21.6484 17.9527 22.9382 18.2258Z" fill="#0E1825"/>
</svg>
