<svg width="33" height="30" viewBox="0 0 33 30" fill="none" xmlns="http://www.w3.org/2000/svg">
<g clip-path="url(#clip0_1379_55641)">
<path fill-rule="evenodd" clip-rule="evenodd" d="M14.2637 0.0965505C13.9176 0.288337 13.9153 0.310055 13.9127 3.50998C13.9114 5.15522 13.9349 6.50125 13.9651 6.50125C14.14 6.50125 15.7817 5.46686 16.6382 4.81708C17.32 4.29975 17.9124 4.24636 18.6018 4.6401C19.0707 4.90782 19.2423 5.22092 19.5565 6.3816C19.6979 6.90385 19.8487 7.3312 19.8915 7.3312C20.0597 7.3312 20.6056 6.91975 20.7522 6.68246C21.0064 6.27115 21.4958 6.25172 21.6593 6.64642C21.7372 6.83455 21.7321 6.89354 21.6193 7.10283C21.4116 7.48854 20.9635 7.89038 20.4957 8.11031C20.1289 8.2828 20.0681 8.3362 20.1051 8.45308C20.1294 8.52923 20.4582 9.74586 20.836 11.1567C21.2137 12.5676 21.5296 13.7282 21.5378 13.736C21.546 13.7437 21.8173 13.6584 22.1406 13.5465C22.6882 13.3569 22.7829 13.3449 23.5238 13.3717C24.8066 13.4181 25.6683 13.8223 26.7081 14.8653C27.2199 15.3787 28.0701 16.5021 27.9999 16.5723C27.9867 16.5855 27.5687 16.5366 27.071 16.4635C25.5075 16.234 22.4063 16.1027 22.2497 16.2593C22.2307 16.2783 22.2821 16.6348 22.3639 17.0515C22.4932 17.7102 22.5128 18.0489 22.5132 19.6421C22.5137 21.1047 22.4901 21.5866 22.3964 22.0282C22.2194 22.8619 22.1826 22.8034 22.9201 22.8587C24.065 22.9445 25.4208 22.7026 26.5692 22.2075C29.9828 20.7357 32.4126 17.0227 32.8578 12.5975C32.9015 12.1641 32.9299 9.62843 32.9299 6.17578V0.470303L32.6948 0.235152C32.5591 0.0994554 32.39 0 32.295 0C32.2044 0 31.8667 0.111144 31.5446 0.247048C29.2397 1.21919 26.0086 1.72352 22.6247 1.63935C19.7833 1.56874 17.4367 1.13544 15.4179 0.308533C14.6025 -0.0253827 14.5132 -0.041774 14.2637 0.0965505ZM17.4721 5.40925C17.3961 5.45303 17.1004 5.6664 16.8151 5.88343C14.2662 7.8226 9.95545 9.43456 5.90164 9.96448C4.51666 10.1456 2.38232 10.1636 1.33983 10.003C0.879489 9.93212 0.573308 9.91559 0.467075 9.95598C0.252879 10.0375 0.00866699 10.3525 0.00866699 10.5474C0.00866699 10.7731 2.86258 21.3639 3.12104 22.0973C4.07513 24.8045 6.07005 27.3169 8.34203 28.6727C10.9995 30.2586 13.8639 30.4288 16.4347 29.1539C17.3262 28.7118 17.8177 28.3556 18.5857 27.5951C19.9522 26.2419 20.9029 24.3904 21.3909 22.1319C21.5309 21.4841 21.5479 21.2155 21.5481 19.6421C21.5483 18.0061 21.5354 17.8183 21.3698 17.0485C21.1628 16.0862 18.4246 5.83736 18.3239 5.64814C18.2569 5.52233 17.8695 5.32356 17.6991 5.32757C17.6504 5.32874 17.5482 5.36547 17.4721 5.40925ZM25.8834 6.44938C25.9404 6.49696 26.0726 6.65286 26.1772 6.79581C26.4493 7.16763 26.8528 7.35956 27.3623 7.35956C27.8719 7.35956 28.2754 7.16763 28.5474 6.79581C28.8074 6.4406 28.913 6.36293 29.1365 6.36293C29.3582 6.36293 29.6101 6.59946 29.6101 6.80764C29.6101 7.0134 29.1607 7.6342 28.8629 7.83989C27.9141 8.49499 26.8339 8.51526 25.9471 7.8946C25.5283 7.60149 25.1146 7.05995 25.1146 6.80494C25.1146 6.4581 25.6159 6.22626 25.8834 6.44938ZM16.2206 12.9249C16.9791 13.2983 17.2549 13.7448 16.9286 14.0711C16.6919 14.3077 16.4828 14.2932 16.1175 14.0146C15.5566 13.5869 15.0717 13.5203 14.4901 13.7911C14.1115 13.9674 13.8215 14.2867 13.6933 14.6686C13.5796 15.007 13.4345 15.1465 13.1961 15.1465C12.5978 15.1465 12.5784 14.4651 13.1539 13.6638C13.8287 12.7241 15.1607 12.4031 16.2206 12.9249ZM8.3975 14.8704C8.80265 15.022 9.32669 15.4292 9.41142 15.6583C9.49358 15.8804 9.36134 16.1607 9.12896 16.2569C8.93406 16.3376 8.89505 16.3244 8.49612 16.0432C8.04553 15.7254 7.62786 15.6304 7.10887 15.7278C6.75655 15.7939 6.27532 16.2528 6.09038 16.699C5.85509 17.2667 5.39233 17.3915 5.16354 16.9491C4.88405 16.4087 5.70826 15.2198 6.59997 14.877C7.0942 14.687 7.89932 14.684 8.3975 14.8704ZM16.928 20.9796C15.6259 24.6229 12.5272 25.7172 9.49102 23.6058C9.00592 23.2684 8.30814 22.6842 8.30814 22.6153C8.30814 22.5914 8.64275 22.534 9.05163 22.4878C11.3882 22.2236 14.1096 21.5058 16.2618 20.5859C16.7373 20.3827 17.1353 20.2384 17.1461 20.2653C17.157 20.2921 17.0589 20.6136 16.928 20.9796Z" fill="#0E1825"/>
</g>
<defs>
<clipPath id="clip0_1379_55641">
<rect width="32.9212" height="30" fill="white" transform="translate(0.00866699)"/>
</clipPath>
</defs>
</svg>
