<svg width="51" height="58" viewBox="0 0 51 58" fill="none" xmlns="http://www.w3.org/2000/svg">
<path fill-rule="evenodd" clip-rule="evenodd" d="M13.094 32.9336C14.7033 38.4723 17.826 41.5083 23.0566 41.5549C30.4686 41.6229 33.166 35.2429 33.7953 24.6683C32.922 22.2923 31.6993 20.5789 30.0153 19.8656C27.75 28.3763 18.3113 27.0829 13.094 32.9336ZM28.5433 49.6736C28.4526 48.4043 28.3086 45.8043 28.214 44.1696C26.6206 44.7376 24.934 45.0056 23.242 44.9603C21.3913 44.9669 19.558 44.6189 17.8406 43.9309C17.722 45.7336 17.5193 48.7856 17.4473 50.1203C17.206 54.1629 28.8193 54.3403 28.5193 49.6723L28.5433 49.6736ZM35.8126 43.6189C35.8406 40.6123 35.7886 37.6603 35.598 34.8629C34.7086 38.0283 33.3153 40.6803 31.1513 42.4629L32.1473 48.7803L44.5593 53.7323L43.7233 57.0723L1.26862 56.8269L0.571289 53.4349L13.9206 48.5483L14.7193 42.0443C13.034 40.5296 11.7206 38.6456 10.8846 36.5389C9.97262 39.0003 9.52862 41.6109 9.57662 44.2349C1.08462 31.9056 1.30062 10.0763 18.1046 6.09893C19.6806 5.6376 21.3193 5.4176 22.962 5.4456C23.238 5.44827 23.5033 5.45094 23.7673 5.4536L24.1166 5.45627C38.8446 5.60161 47.1153 25.7869 35.8126 43.6189ZM42.9286 33.9616C46.2966 19.1896 39.5766 5.72293 28.2233 3.43093C34.4833 -2.03174 49.3633 -0.105066 49.2406 13.3789C49.158 22.6003 43.33 27.4229 50.638 33.1349C48.45 34.9669 45.3713 35.0723 42.9286 33.9616" fill="white"/>
</svg>
