<svg width="20" height="28" viewBox="0 0 20 28" fill="none" xmlns="http://www.w3.org/2000/svg">
<path d="M0.644146 25.773L0.922812 27.3796L3.67748 27.441L5.74015 24.7463V23.8223L4.06015 23.781L0.644146 25.773ZM4.75215 16.7783C7.13081 16.7783 7.06948 12.9676 4.57881 12.9676C2.13881 12.9676 1.93348 16.7783 4.75215 16.7783ZM2.84281 10.2356L17.2735 10.0876L16.7815 7.02229L3.33881 6.92363L2.84281 10.2356ZM10.0601 5.5343C11.9188 5.5343 11.8681 2.56896 9.92548 2.56896C8.01615 2.56896 7.85481 5.5343 10.0601 5.5343ZM15.9535 13.445L15.9455 13.4476C14.1148 13.4476 13.9575 16.305 16.0735 16.305C17.8721 16.3076 17.8188 13.445 15.9535 13.445ZM0.874812 19.353C0.874812 18.9076 0.382812 12.9516 0.382812 12.9516C0.382812 12.9516 1.42948 6.77963 1.49615 6.19696C1.71615 4.58496 2.20015 4.02629 3.58548 3.7983L6.56281 3.3343C6.84415 1.72096 8.26815 0.559629 9.90281 0.606297C11.5428 0.54763 12.9775 1.69963 13.2748 3.3143C14.6281 3.52763 15.9588 3.74363 16.2775 3.7983C17.9068 4.07696 18.2028 4.7983 18.5041 6.27296C18.6148 6.80896 19.4948 12.7036 19.4948 12.7036C19.4948 12.7036 19.2961 18.6956 19.2961 19.5943C16.4548 19.601 16.1068 22.6036 16.1068 22.6036L4.21481 22.3956C4.21481 22.3956 3.28281 19.353 0.874812 19.353ZM19.5415 25.8143L19.3655 27.4636L16.7281 27.585L14.1481 24.733V23.781L16.0961 23.7396L19.5415 25.8143Z" fill="black"/>
</svg>
