<svg width="13" height="18" viewBox="0 0 13 18" fill="none" xmlns="http://www.w3.org/2000/svg">
<path fill-rule="evenodd" clip-rule="evenodd" d="M2.74115 6.40698C2.74115 4.00899 4.37269 2.89116 6.14602 2.89116C7.91934 2.89116 9.50568 4.07885 9.50568 6.34534L8.60361 6.4563C8.60361 5.36929 7.83304 4.12406 6.1378 4.12406C5.03641 4.12406 3.96584 4.64599 3.96584 6.40698C3.96584 7.48577 5.0138 8.53785 7.00289 8.53785C7.94811 10.305 6.38643 13.1653 4.70352 13.0873C3.02061 13.0092 2.64869 11.766 2.94664 10.2742C2.94664 10.2742 5.20696 11.0776 5.20696 9.4728C4.23502 9.22211 2.74115 8.05291 2.74115 6.40698ZM9.07622 14.8154C8.47826 19.11 2.15963 19.0196 1.77127 14.7948L2.95075 14.538C3.27336 17.4846 7.29878 17.3921 7.77345 14.6777C8.49264 10.568 11.0776 8.73512 11.0776 6.10903C11.0776 2.698 8.86457 1.2329 6.49534 1.2329C3.49117 1.2329 1.17948 3.16856 1.17948 6.87138L0 6.76864C0 1.86374 3.26719 0 6.49534 0C9.48308 0 12.4153 2.0795 12.4153 6.2241C12.4153 9.24677 9.53445 11.4763 9.07622 14.8154Z" fill="#51D2DA"/>
</svg>
