<svg width="36" height="30" viewBox="0 0 36 30" fill="none" xmlns="http://www.w3.org/2000/svg">
<path fill-rule="evenodd" clip-rule="evenodd" d="M33.2833 0.0962179C33.164 0.149651 32.9643 0.302937 32.8397 0.436846C32.6823 0.60604 31.3501 3.4174 28.4757 9.64617C23.9938 19.3587 24.1528 18.9677 24.3512 19.7951C24.3999 19.9979 24.5357 20.2964 24.653 20.4584L24.8664 20.7529L24.4473 20.7056C23.1921 20.5641 21.832 21.3165 21.2465 22.4764C20.7231 23.5132 20.6113 24.737 20.883 26.4571C21.1072 27.8767 21.0643 28.669 20.6999 29.8373C20.6553 29.9805 20.6745 30 20.8608 30C21.1771 30 22.2005 29.7257 22.7876 29.4837C24.5972 28.7376 26.0861 27.3544 26.9491 25.6176C27.3095 24.8922 27.3896 24.5911 27.39 23.9576C27.3907 23.1037 27.098 22.3535 26.519 21.7254L26.248 21.4314L26.5672 21.419C27.3578 21.3884 28.0982 20.9114 28.431 20.2182C28.5305 20.0108 30.1105 15.7662 31.9419 10.7857C35.3875 1.4152 35.3911 1.40429 35.195 0.883907C35.0908 0.607847 34.708 0.214942 34.4244 0.0933257C34.1316 -0.0323402 33.5672 -0.0308217 33.2833 0.0962179ZM16.8701 0.835752C16.7508 0.849707 16.3441 0.896199 15.9663 0.939221C13.5917 1.20935 10.9162 2.13775 8.80808 3.42311C6.42303 4.87738 4.10956 7.20357 2.7109 9.55399C0.00249991 14.1052 -0.606741 19.4713 1.01347 24.5048C1.17348 25.0019 1.41346 25.6465 1.54664 25.937C2.85608 28.7927 5.9182 30.4268 8.96129 29.8939C10.8585 29.5616 12.3445 28.6078 13.5271 26.9632C15.1317 24.7317 16.8717 23.2639 19.0222 22.3279C19.7213 22.0237 19.7305 22.0163 19.9809 21.5686C20.4684 20.6969 21.4537 19.8316 22.3476 19.4902C22.6684 19.3677 22.685 19.3472 22.7266 19.0232C22.7506 18.8368 22.8025 18.5379 22.842 18.3589C22.8816 18.18 24.3116 15.0018 26.0198 11.2964C27.7281 7.59098 29.1249 4.53248 29.1238 4.49973C29.1213 4.41976 28.3744 3.89309 27.5844 3.41407C24.7321 1.68454 21.358 0.761567 18.027 0.799744C17.51 0.805673 16.9894 0.82187 16.8701 0.835752ZM21.0685 4.26619C22.3715 4.50631 23.3529 5.50332 23.5776 6.81558C23.7416 7.77304 23.4223 8.74598 22.7112 9.45551C21.4437 10.72 19.5276 10.679 18.2945 9.361C17.6836 8.70787 17.5254 8.28323 17.5254 7.29627C17.5254 6.31531 17.6847 5.8835 18.282 5.24498C18.7736 4.71939 19.2574 4.434 19.8889 4.29677C20.4618 4.17233 20.5471 4.17016 21.0685 4.26619ZM12.6098 7.22085C14.5143 8.15655 14.9532 10.5696 13.4986 12.1076C12.0196 13.6715 9.47357 13.2645 8.51372 11.3107C8.27685 10.8286 8.26579 10.7704 8.26579 10.0092C8.26579 9.26455 8.28076 9.18068 8.49464 8.72935C8.88111 7.91361 9.48536 7.37356 10.3617 7.06077C10.6367 6.96258 10.8913 6.93662 11.4168 6.95318C12.0342 6.97263 12.1637 7.0017 12.6098 7.22085ZM33.8359 10.0981C33.7922 10.2074 32.8811 12.6778 31.8114 15.5878C30.5437 19.0362 29.7866 20.9969 29.6373 21.2181C29.5113 21.4048 29.4261 21.5755 29.4479 21.5974C29.5179 21.6674 30.6618 21.3907 31.2226 21.1682C32.8882 20.5072 34.4211 18.9783 35.0479 17.3531C35.4392 16.3385 35.5187 15.8958 35.5169 14.7437C35.5149 13.5112 35.3991 12.981 34.8482 11.6809C34.5378 10.9485 34.0025 9.89924 33.9392 9.89924C33.9261 9.89924 33.8797 9.98876 33.8359 10.0981ZM7.9483 15.8298C9.58492 16.1401 10.7259 17.6931 10.4796 19.2751C10.2639 20.6604 9.22962 21.6947 7.84433 21.9104C6.23294 22.1612 4.68518 20.9967 4.38808 19.3099C4.16921 18.0672 4.91735 16.6587 6.0871 16.1113C6.79468 15.7802 7.29105 15.7051 7.9483 15.8298Z" fill="#0E1825"/>
</svg>
