<svg width="23" height="23" viewBox="0 0 23 23" fill="none" xmlns="http://www.w3.org/2000/svg">
<path fill-rule="evenodd" clip-rule="evenodd" d="M10.3436 0.0308465C8.31369 0.255105 6.44724 0.958251 4.82772 2.10886C2.2667 3.92835 0.589643 6.65717 0.0903655 9.81727C-0.0311309 10.5861 -0.0298833 12.392 0.0927168 13.1741C0.819152 17.8097 4.14543 21.4999 8.63331 22.6492C9.54665 22.8831 10.1539 22.9654 11.1833 22.9951C14.3564 23.0864 17.3396 21.9077 19.5843 19.6759C20.5651 18.7006 21.1924 17.8232 21.8142 16.5567C23.0445 14.0514 23.323 11.3073 22.6238 8.58049C22.4297 7.82346 22.1994 7.21877 21.7876 6.38498C20.1067 2.98195 16.9748 0.702326 13.1507 0.0984982C12.5743 0.00743228 10.9169 -0.032487 10.3436 0.0308465ZM12.4618 1.56501C19.3265 2.25568 23.4491 9.51835 20.515 15.7522C20.2886 16.2331 19.8144 17.0605 19.7652 17.0605C19.7515 17.0605 19.5316 16.8736 19.2766 16.6451C19.0215 16.4166 18.6045 16.0739 18.3498 15.8835C15.9723 14.1063 12.8702 13.3106 9.93575 13.7253C7.57924 14.0584 5.53165 15.0194 3.71391 16.6456C3.45887 16.8738 3.23896 17.0605 3.22528 17.0605C3.21161 17.0605 3.09337 16.8824 2.96261 16.6647C0.819968 13.098 1.08374 8.64896 3.63344 5.35024C5.68328 2.69815 9.11215 1.22799 12.4618 1.56501ZM10.8013 3.10051C9.81594 3.25524 8.95673 3.70141 8.23058 4.43555C7.61187 5.06097 7.21182 5.7752 7.0006 6.63145C6.87137 7.15515 6.88351 8.23844 7.02435 8.75773C7.26173 9.63269 7.60693 10.243 8.20831 10.8509C8.69027 11.338 8.90361 11.4955 9.45879 11.774C11.1914 12.6431 13.2588 12.3259 14.6742 10.9737C15.2953 10.3804 15.7295 9.64027 15.9688 8.76699C16.1188 8.21997 16.117 7.11883 15.9653 6.55516C15.7235 5.65683 15.3877 5.07426 14.7342 4.41905C14.0883 3.77151 13.4995 3.43008 12.6227 3.19484C12.182 3.07652 11.2584 3.02873 10.8013 3.10051Z" fill="#7D8187"/>
</svg>
