<svg width="28" height="24" viewBox="0 0 28 24" fill="none" xmlns="http://www.w3.org/2000/svg">
<path d="M27.3692 13.6439L0 13.2285L0.0136846 15.3416C0.0273692 15.8189 0.299451 16.2979 0.88306 16.6553L6.44303 20.0587L12.0038 23.4614C13.2322 24.214 15.3404 24.144 16.4513 23.4614C17.5646 22.7812 17.0084 22.4415 18.12 21.7597C19.2317 21.0803 19.7871 21.42 20.9004 20.7406C22.0137 20.0579 26.462 17.3379 26.462 17.3379C27.0746 16.9628 27.3805 16.471 27.3821 15.9783L27.3692 13.6439Z" fill="#F4900C"/>
<path d="M26.4622 12.1988C26.4622 12.1988 1.99573 10.8384 0.883247 11.5186C-0.22923 12.1988 -0.345147 13.4884 0.883247 14.241L6.44322 17.6445L12.004 21.0479C13.2324 21.8006 15.3406 21.7305 16.4515 21.0479C17.5648 20.3677 17.0085 20.028 18.1202 19.3462C19.2319 18.6668 19.7873 19.0065 20.9006 18.3271C22.0139 17.6445 26.4614 14.9236 26.4614 14.9236C27.6898 14.171 27.6906 12.9506 26.4622 12.1988Z" fill="#FFAC33"/>
<path d="M7.42383 16.9648L13.1158 20.3683C13.1158 20.3683 14.2541 21.0477 15.3923 20.3683C16.3559 19.7911 17.0996 18.6666 17.0996 18.6666L7.42383 16.9648Z" fill="#FFD983"/>
<path d="M26.3541 12.0736C24.7917 9.98952 4.86606 8.52205 1.74034 11.4562C1.10924 12.0495 -0.0829336 13.2432 1.18651 15.0295C1.74034 15.9649 2.88985 16.5742 3.04279 16.2852C3.3994 15.6075 4.111 15.015 5.1784 15.0721C5.11802 15.2154 5.69439 17.6537 5.62918 17.7084C4.88458 18.3412 6.43174 20.5403 8.24455 19.3691C8.69614 20.261 11.429 22.4626 13.3151 19.4512C13.6902 20.1306 17.6298 21.1642 18.7237 18.0296C18.7149 18.0836 18.7173 18.1294 18.7028 18.1874C18.6312 18.4691 19.284 18.7131 19.9489 18.4796C21.067 18.0884 22.6818 17.1168 22.9676 16.0502C23.7653 15.9109 24.3634 16.1323 24.8239 16.7409C25.0517 17.0419 25.8333 17.1144 26.1674 16.7207C26.7566 16.0293 27.7234 13.9009 26.3541 12.0736Z" fill="#77B255"/>
<path d="M24.1491 17.2861C24.1491 17.7119 23.4279 18.0581 22.5392 18.0581H4.82968C3.94099 18.0581 3.21973 17.7119 3.21973 17.2861V12.0127H24.1491V17.2861Z" fill="#FFCC4D"/>
<path d="M26.0095 13.218C26.0095 15.4461 22.3179 17.2533 17.7649 17.2533C13.2104 17.2533 9.51953 15.4461 9.51953 13.218C9.51953 10.989 13.2104 9.18262 17.7649 9.18262C22.3179 9.18262 26.0095 10.9898 26.0095 13.218Z" fill="#BE1931"/>
<path d="M27.3692 8.81381L0 8.39844V10.5115H0.0136846C0.0273692 10.9889 0.299451 11.4678 0.88306 11.8252L6.44303 15.2287L12.0038 18.6313C13.2322 19.384 15.3404 19.3139 16.4513 18.6313C17.5646 17.9511 17.0084 17.6114 18.12 16.9296C19.2317 16.2502 19.7871 16.5899 20.9004 15.9105C22.0137 15.2279 26.462 12.5078 26.462 12.5078C27.0746 12.1327 27.3805 11.6409 27.3821 11.1482V11.1442L27.3692 8.81381Z" fill="#F4900C"/>
<path d="M26.4622 7.36916L15.3414 0.563886C14.113 -0.187962 12.1215 -0.187962 10.8923 0.563886L5.33155 3.96733C4.21988 4.64753 4.77531 4.98804 3.66364 5.66824C2.55196 6.34845 1.99573 6.00794 0.883247 6.68895C-0.22923 7.36916 -0.345147 8.65873 0.883247 9.41139L12.004 16.2175C13.2324 16.9701 15.3406 16.9001 16.4515 16.2175C17.5648 15.5373 17.0085 15.1976 18.1202 14.5157C19.2319 13.8363 19.7873 14.176 20.9006 13.4966C22.0139 12.814 26.4614 10.0932 26.4614 10.0932C27.6898 9.34135 27.6906 8.12101 26.4622 7.36916Z" fill="#FFAC33"/>
<path d="M25.6383 8.05099L14.2535 1.24491C14.2535 1.24491 13.0404 0.608171 11.9762 1.24491L6.37199 4.59522C5.40843 5.17078 5.54045 5.7729 4.57689 6.34846C3.61414 6.92482 2.69405 6.79361 1.73049 7.36917C0.592255 8.05099 1.73049 8.732 1.73049 8.732L13.1145 15.5381C13.1145 15.5381 14.2527 16.2175 15.391 15.5381C16.3545 14.9609 16.1364 14.4135 17.0983 13.8364C18.0619 13.2592 19.0681 13.3381 20.0316 12.7625C20.9952 12.1878 25.6367 9.4114 25.6367 9.4114C25.6367 9.4114 26.7017 8.68611 25.6383 8.05099Z" fill="#FFD983"/>
</svg>
