<svg width="61" height="61" viewBox="0 0 61 61" fill="none" xmlns="http://www.w3.org/2000/svg">
<path d="M0.959961 28.86C0.959961 15.28 0.960054 8.5 5.18005 4.28C9.40005 0.059999 16.19 0.0599976 29.76 0.0599976H32.16C45.74 0.0599976 52.52 0.059999 56.74 4.28C60.96 8.5 60.96 15.29 60.96 28.86V31.26C60.96 44.84 60.96 51.62 56.74 55.84C52.52 60.06 45.73 60.06 32.16 60.06H29.76C16.18 60.06 9.40005 60.06 5.18005 55.84C0.960054 51.62 0.959961 44.83 0.959961 31.26V28.86Z" fill="#0077FF"/>
<path d="M32.8801 43.28C19.2001 43.28 11.4101 33.91 11.0801 18.31H17.9302C18.1602 29.76 23.2001 34.61 27.2001 35.61V18.31H33.6501V28.18C37.6001 27.76 41.7501 23.26 43.1501 18.31H49.6001C48.5201 24.41 44.0201 28.91 40.8201 30.76C44.0201 32.26 49.1501 36.19 51.1001 43.28H44.0001C42.4701 38.53 38.6801 34.86 33.6501 34.36V43.28H32.8801Z" fill="white"/>
</svg>
