<svg width="25" height="24" viewBox="0 0 25 24" fill="none" xmlns="http://www.w3.org/2000/svg">
<path d="M7.87724 4.67985C7.80135 4.75573 7.74375 4.84721 7.69565 4.94749L7.69023 4.94207L0.0905973 22.0616L0.0980506 22.069C-0.042884 22.3421 0.192911 22.8977 0.676018 23.3815C1.15913 23.8646 1.71473 24.1004 1.98779 23.9594L1.99457 23.9662L19.1141 16.3659L19.1086 16.3598C19.2082 16.3124 19.2997 16.2548 19.3763 16.1775C20.4346 15.1192 18.7184 11.6873 15.5439 8.51218C12.3682 5.33709 8.93628 3.62148 7.87724 4.67985Z" fill="#DD2E44"/>
<path d="M8.80822 7.7373L0.281672 21.6316L0.0905973 22.0618L0.0980506 22.0693C-0.042884 22.3423 0.192911 22.8979 0.676018 23.3817C0.833215 23.5389 0.996509 23.6582 1.15642 23.7591L11.5185 11.1252L8.80822 7.7373Z" fill="#EA596E"/>
<path d="M15.5926 8.4595C18.7568 11.6251 20.5138 14.9994 19.515 15.9968C18.517 16.9955 15.1427 15.2393 11.9764 12.075C8.81147 8.9094 7.05521 5.53375 8.05327 4.53569C9.05201 3.53763 12.4263 5.29389 15.5926 8.4595Z" fill="#A0041E"/>
<path d="M12.5955 8.82739C12.4606 8.93647 12.2844 8.99339 12.0981 8.97306C11.51 8.90937 11.0154 8.70475 10.6691 8.38154C10.3026 8.03937 10.1216 7.57998 10.1711 7.11991C10.2578 6.31224 11.0682 5.57098 12.4498 5.72005C12.9871 5.77764 13.2269 5.60486 13.2351 5.5222C13.2446 5.44021 13.0474 5.22 12.5101 5.16173C11.9219 5.09804 11.4273 4.89341 11.0804 4.57021C10.7138 4.22804 10.5323 3.76864 10.5824 3.30857C10.6705 2.50091 11.4802 1.75965 12.8604 1.90939C13.252 1.9514 13.4587 1.87077 13.5461 1.8186C13.6159 1.77591 13.6437 1.73526 13.6464 1.71154C13.6545 1.62956 13.46 1.40934 12.9214 1.35107C12.5494 1.31042 12.2797 0.977055 12.321 0.604391C12.361 0.232405 12.6937 -0.0365906 13.067 0.00406362C14.4473 0.152452 15.0815 1.04888 14.9941 1.85722C14.906 2.66624 14.0963 3.40614 12.7147 3.25776C12.3231 3.21507 12.1184 3.29638 12.0304 3.34855C11.9606 3.39056 11.9321 3.43189 11.9294 3.45493C11.9206 3.53759 12.1164 3.75713 12.6551 3.8154C14.0353 3.96446 14.6695 4.86021 14.5821 5.66855C14.4947 6.47622 13.685 7.21748 12.3041 7.06774C11.9125 7.02573 11.7065 7.10703 11.6184 7.15853C11.5479 7.20189 11.5208 7.24255 11.5181 7.26559C11.5093 7.34757 11.7051 7.56778 12.2431 7.62605C12.6144 7.66671 12.8848 8.00075 12.8434 8.37274C12.8245 8.55839 12.7303 8.71897 12.5955 8.82739Z" fill="#AA8DD8"/>
<path d="M20.7746 15.0938C22.1115 14.7164 23.0337 15.3126 23.2532 16.0952C23.4727 16.8772 22.9971 17.8671 21.6609 18.2431C21.1392 18.3895 20.9827 18.6388 21.0037 18.7181C21.0267 18.7981 21.2916 18.9295 21.812 18.7825C23.1482 18.4064 24.0703 19.0027 24.2899 19.7846C24.5108 20.5672 24.0338 21.5558 22.6969 21.9325C22.1759 22.0789 22.0187 22.3289 22.0417 22.4082C22.0641 22.4874 22.3283 22.6189 22.8494 22.4725C23.2085 22.3716 23.5839 22.5809 23.6848 22.9407C23.7851 23.3012 23.5757 23.6752 23.2153 23.7769C21.8798 24.1529 20.9569 23.558 20.736 22.7747C20.5165 21.9928 20.9928 21.0042 22.3303 20.6275C22.8521 20.4805 23.0086 20.2318 22.9856 20.1519C22.9639 20.0726 22.6996 19.9405 22.1793 20.0868C20.8417 20.4635 19.9202 19.8686 19.7 19.0847C19.4798 18.3028 19.9561 17.3142 21.293 16.9368C21.8134 16.7911 21.9699 16.5404 21.9482 16.4618C21.9252 16.3819 21.6616 16.2504 21.1405 16.3968C20.7801 16.4984 20.4067 16.2883 20.3051 15.9286C20.2041 15.5694 20.4142 15.1954 20.7746 15.0938Z" fill="#77B255"/>
<path d="M15.5844 13.2664C15.3852 13.2664 15.1887 13.179 15.0545 13.0123C14.8208 12.7196 14.8689 12.2934 15.1602 12.0597C15.3079 11.9411 18.8313 9.17389 23.8108 9.88602C24.1814 9.93887 24.4389 10.2817 24.386 10.6524C24.3332 11.0223 23.993 11.2825 23.619 11.2269C19.2196 10.6022 16.039 13.093 16.0079 13.118C15.8818 13.2183 15.7328 13.2664 15.5844 13.2664Z" fill="#AA8DD8"/>
<path d="M3.89877 10.4477C3.8344 10.4477 3.76867 10.4382 3.70363 10.4192C3.34519 10.3115 3.14192 9.93405 3.24965 9.57562C4.01734 7.01915 4.71321 2.93949 3.85811 1.87571C3.76257 1.7551 3.61825 1.63653 3.2876 1.6616C2.65204 1.71038 2.71234 3.05129 2.71302 3.06484C2.74148 3.43818 2.46096 3.76342 2.0883 3.7912C1.70954 3.81424 1.38972 3.53914 1.36194 3.1658C1.29215 2.23143 1.58283 0.431805 3.18596 0.31052C3.90148 0.256314 4.49571 0.504983 4.91512 1.02671C6.52164 3.02622 4.89073 8.82284 4.54788 9.96522C4.45979 10.2586 4.19012 10.4477 3.89877 10.4477Z" fill="#77B255"/>
<path d="M17.2781 7.05957C17.8394 7.05957 18.2944 6.60453 18.2944 6.04321C18.2944 5.48189 17.8394 5.02686 17.2781 5.02686C16.7168 5.02686 16.2617 5.48189 16.2617 6.04321C16.2617 6.60453 16.7168 7.05957 17.2781 7.05957Z" fill="#5C913B"/>
<path d="M1.35514 13.1575C2.10356 13.1575 2.71028 12.5508 2.71028 11.8024C2.71028 11.054 2.10356 10.4473 1.35514 10.4473C0.606717 10.4473 0 11.054 0 11.8024C0 12.5508 0.606717 13.1575 1.35514 13.1575Z" fill="#9266CC"/>
<path d="M22.0212 13.8354C22.5826 13.8354 23.0376 13.3804 23.0376 12.8191C23.0376 12.2578 22.5826 11.8027 22.0212 11.8027C21.4599 11.8027 21.0049 12.2578 21.0049 12.8191C21.0049 13.3804 21.4599 13.8354 22.0212 13.8354Z" fill="#5C913B"/>
<path d="M15.9226 21.9663C16.4839 21.9663 16.939 21.5113 16.939 20.9499C16.939 20.3886 16.4839 19.9336 15.9226 19.9336C15.3613 19.9336 14.9062 20.3886 14.9062 20.9499C14.9062 21.5113 15.3613 21.9663 15.9226 21.9663Z" fill="#5C913B"/>
<path d="M18.9723 3.67171C19.7208 3.67171 20.3275 3.06499 20.3275 2.31657C20.3275 1.56814 19.7208 0.961426 18.9723 0.961426C18.2239 0.961426 17.6172 1.56814 17.6172 2.31657C17.6172 3.06499 18.2239 3.67171 18.9723 3.67171Z" fill="#FFCC4D"/>
<path d="M22.0212 6.38183C22.5826 6.38183 23.0376 5.92679 23.0376 5.36548C23.0376 4.80416 22.5826 4.34912 22.0212 4.34912C21.4599 4.34912 21.0049 4.80416 21.0049 5.36548C21.0049 5.92679 21.4599 6.38183 22.0212 6.38183Z" fill="#FFCC4D"/>
<path d="M19.988 9.09228C20.5494 9.09228 21.0044 8.63724 21.0044 8.07593C21.0044 7.51461 20.5494 7.05957 19.988 7.05957C19.4267 7.05957 18.9717 7.51461 18.9717 8.07593C18.9717 8.63724 19.4267 9.09228 19.988 9.09228Z" fill="#FFCC4D"/>
<path d="M5.08179 16.5454C5.6431 16.5454 6.09814 16.0904 6.09814 15.5291C6.09814 14.9677 5.6431 14.5127 5.08179 14.5127C4.52047 14.5127 4.06543 14.9677 4.06543 15.5291C4.06543 16.0904 4.52047 16.5454 5.08179 16.5454Z" fill="#FFCC4D"/>
</svg>
