<svg width="16" height="16" viewBox="0 0 16 16" fill="none" xmlns="http://www.w3.org/2000/svg">
<path fill-rule="evenodd" clip-rule="evenodd" d="M11.15 0.0585298C10.9653 0.145194 6.94125 4.17945 6.87187 4.34755C6.74594 4.65259 6.88941 5.02021 7.19739 5.18162C7.32975 5.25097 7.62554 5.2477 7.76905 5.17525C7.83193 5.14353 8.52651 4.47622 9.31253 3.69233L10.7417 2.26713V8.08297V13.8988L10.8274 14.0708C10.9538 14.3246 11.111 14.418 11.4113 14.418C11.7117 14.418 11.8688 14.3246 11.9953 14.0708L12.081 13.8988V8.08297V2.26713L13.5101 3.69233C14.2962 4.47622 14.9907 5.14353 15.0536 5.17525C15.1971 5.2477 15.4929 5.25097 15.6253 5.18162C15.9333 5.02021 16.0767 4.65259 15.9508 4.34755C15.8814 4.17945 11.8574 0.145194 11.6727 0.0585298C11.5063 -0.0195099 11.3164 -0.0195099 11.15 0.0585298ZM4.27375 1.63729C4.1769 1.68907 4.09334 1.76982 4.02875 1.87409L3.93076 2.03233L3.92233 7.88139L3.9139 13.7305L2.48501 12.3055C1.69912 11.5218 1.00467 10.8546 0.94179 10.8229C0.798287 10.7504 0.502493 10.7471 0.370129 10.8165C0.0518617 10.9833 -0.0875907 11.3654 0.0571863 11.674C0.14385 11.8587 4.17811 15.8828 4.34621 15.9522C4.50068 16.0159 4.66748 16.0159 4.82196 15.9522C4.99006 15.8828 9.02431 11.8587 9.11098 11.674C9.25575 11.3654 9.1163 10.9833 8.79803 10.8165C8.66567 10.7471 8.36988 10.7504 8.22637 10.8229C8.16349 10.8546 7.46894 11.5219 6.68289 12.3058L5.25374 13.731V7.91513V2.09929L5.16806 1.92734C5.05176 1.69397 4.88722 1.58669 4.62109 1.57072C4.45711 1.56089 4.39406 1.57297 4.27375 1.63729Z" fill="#DC46AA"/>
</svg>
