<svg width="32" height="33" viewBox="0 0 32 33" fill="none" xmlns="http://www.w3.org/2000/svg">
<path d="M31.2102 17.3763C31.2102 15.4746 30.8746 13.6847 30.278 11.9695C29.8305 16.9288 27.2203 19.5017 24.4237 18.3085C21.8508 17.1898 23.6034 12.8644 23.7153 10.8136C23.939 7.30847 23.7153 3.31865 17.3763 0C19.9864 5.0339 17.6746 8.1661 15.2136 8.38983C12.4915 8.57627 10.0305 6.00339 10.9254 1.9017C7.97966 4.1017 7.8678 7.75593 8.76271 10.1797C9.76949 12.6407 8.72542 14.7288 6.41356 14.9525C3.84068 15.1763 2.38644 12.1186 3.72881 7.27119C1.30509 10.1424 0 13.6847 0 17.3763C0 25.9898 7.01017 33 15.5864 33C24.2373 33 31.2102 25.9898 31.2102 17.3763Z" fill="#F4900C"/>
<mask id="mask0_1395_21508" style="mask-type:alpha" maskUnits="userSpaceOnUse" x="0" y="0" width="32" height="33">
<path d="M31.2102 17.3763C31.2102 15.4746 30.8746 13.6847 30.278 11.9695C29.8305 16.9288 27.2203 19.5017 24.4237 18.3085C21.8508 17.1898 23.6034 12.8644 23.7153 10.8136C23.939 7.30847 23.7153 3.31865 17.3763 0C19.9864 5.0339 17.6746 8.1661 15.2136 8.38983C12.4915 8.57627 10.0305 6.00339 10.9254 1.9017C7.97966 4.1017 7.8678 7.75593 8.76271 10.1797C9.76949 12.6407 8.72542 14.7288 6.41356 14.9525C3.84068 15.1763 2.38644 12.1186 3.72881 7.27119C1.30509 10.1424 0 13.6847 0 17.3763C0 25.9898 7.01017 33 15.5864 33C24.2373 33 31.2102 25.9898 31.2102 17.3763Z" fill="#F4900C"/>
</mask>
<g mask="url(#mask0_1395_21508)">
<path d="M26.5667 26.0719C26.5667 24.0583 26.0074 22.1939 25.0752 20.5532C25.2243 23.3871 22.726 24.5058 21.3837 23.9465C19.482 23.2007 19.9667 21.8583 19.5192 19.099C18.9972 16.3397 17.0582 14.438 14.2616 13.5804C16.3125 19.3973 13.1057 21.56 11.4277 21.9329C9.71247 22.3058 7.95993 21.9329 7.77349 18.2414C5.68535 20.3295 4.52942 23.1261 4.52942 26.0719C4.52942 32.1499 9.45145 37.0719 15.5294 37.0719C21.6074 37.0719 26.5667 32.1499 26.5667 26.0719Z" fill="#FFCC4D"/>
</g>
</svg>
