<svg width="19" height="19" viewBox="0 0 19 19" fill="none" xmlns="http://www.w3.org/2000/svg">
<path fill-rule="evenodd" clip-rule="evenodd" d="M6.72258 8.97398H2.25137C1.00995 8.97398 0 7.96401 0 6.72259V2.25138C0 1.00997 1.00995 0 2.25137 0H6.72258C7.96399 0 8.97398 1.00997 8.97398 2.25138V6.72259C8.97398 7.96401 7.96399 8.97398 6.72258 8.97398Z" fill="black"/>
<path fill-rule="evenodd" clip-rule="evenodd" d="M16.6224 8.97398H12.1511C10.9097 8.97398 9.89978 7.96401 9.89978 6.72259V2.25138C9.89978 1.00997 10.9097 0 12.1511 0H16.6224C17.8638 0 18.8738 1.00997 18.8738 2.25138V6.72259C18.8843 7.96401 17.8743 8.97398 16.6224 8.97398Z" fill="black"/>
<path fill-rule="evenodd" clip-rule="evenodd" d="M6.72258 19H2.25137C1.00995 19 0 17.9901 0 16.7487V12.2774C0 11.036 1.00995 10.0261 2.25137 10.0261H6.72258C7.96399 10.0261 8.97398 11.036 8.97398 12.2774V16.7487C8.97398 17.9901 7.96399 19 6.72258 19Z" fill="black"/>
<path fill-rule="evenodd" clip-rule="evenodd" d="M16.6224 19H12.1511C10.9097 19 9.89978 17.9901 9.89978 16.7487V12.2774C9.89978 11.036 10.9097 10.0261 12.1511 10.0261H16.6224C17.8638 10.0261 18.8738 11.036 18.8738 12.2774V16.7487C18.8843 17.9901 17.8743 19 16.6224 19Z" fill="black"/>
</svg>
