<svg width="116" height="60" viewBox="0 0 116 60" fill="none" xmlns="http://www.w3.org/2000/svg">
<path d="M33.0682 54.5689C33.0682 58.2156 30.1069 59.5249 26.4602 59.5249C22.8002 59.5249 19.8389 58.2156 19.8389 54.5689L21.4895 39.6862C21.4895 36.0342 22.8002 36.3756 26.4602 36.3756C30.1069 36.3756 31.4162 36.0342 31.4162 39.6862L33.0682 54.5689Z" fill="#662113"/>
<path d="M52.9133 28.1093C52.9133 42.7226 41.0667 47.9546 26.46 47.9546C11.8467 47.9546 0 42.7226 0 28.1093C0 13.5026 14.8827 0.00392008 26.46 0.00392008C38.032 0.00392008 52.9133 13.5026 52.9133 28.1093Z" fill="#5C913B"/>
<path d="M9.91952 34.7307C9.91952 33.8107 8.44219 33.072 6.61552 33.072C4.79552 33.072 3.31152 33.8107 3.31152 34.7307C3.31152 35.6374 4.79552 36.376 6.61552 36.376C8.44219 36.376 9.91952 35.6374 9.91952 34.7307ZM49.6035 34.7307C49.6035 33.8107 48.1262 33.072 46.2995 33.072C44.4729 33.072 42.9875 33.8107 42.9875 34.7307C42.9875 35.6374 44.4729 36.376 46.2995 36.376C48.1262 36.376 49.6035 35.6374 49.6035 34.7307M16.5342 41.3387C16.5342 40.4254 15.0569 39.6867 13.2249 39.6867C11.4035 39.6867 9.91952 40.4254 9.91952 41.3387C9.91952 42.2534 11.4035 42.9907 13.2249 42.9907C15.0569 42.9907 16.5342 42.2534 16.5342 41.3387ZM23.1489 36.376C23.1489 35.4627 21.6649 34.7307 19.8395 34.7307C18.0195 34.7307 16.5342 35.4627 16.5342 36.376C16.5342 37.296 18.0195 38.0294 19.8395 38.0294C21.6649 38.0294 23.1489 37.296 23.1489 36.376M16.5342 26.4574C16.5342 25.5427 15.0569 24.8054 13.2249 24.8054C11.4035 24.8054 9.91952 25.5427 9.91952 26.4574C9.91952 27.3694 11.4035 28.1094 13.2249 28.1094C15.0569 28.1094 16.5342 27.3694 16.5342 26.4574ZM11.5782 19.8494C11.5782 18.928 10.0942 18.1907 8.26752 18.1907C6.44086 18.1907 4.95686 18.928 4.95686 19.8494C4.95686 20.7614 6.44086 21.4934 8.26752 21.4934C10.0942 21.4934 11.5782 20.7614 11.5782 19.8494ZM47.9515 19.8494C47.9515 18.928 46.4742 18.1907 44.6409 18.1907C42.8129 18.1907 41.3435 18.928 41.3435 19.8494C41.3435 20.7614 42.8129 21.4934 44.6409 21.4934C46.4742 21.4934 47.9515 20.7614 47.9515 19.8494ZM23.1489 16.5374C23.1489 15.624 21.6649 14.8787 19.8395 14.8787C18.0195 14.8787 16.5342 15.624 16.5342 16.5374C16.5342 17.4507 18.0195 18.1907 19.8395 18.1907C21.6649 18.1907 23.1489 17.4507 23.1489 16.5374ZM36.3729 16.5374C36.3729 15.624 34.8955 14.8787 33.0689 14.8787C31.2422 14.8787 29.7649 15.624 29.7649 16.5374C29.7649 17.4507 31.2422 18.1907 33.0689 18.1907C34.8955 18.1907 36.3729 17.4507 36.3729 16.5374ZM42.9875 26.4574C42.9875 25.5427 41.5035 24.8054 39.6849 24.8054C37.8582 24.8054 36.3729 25.5427 36.3729 26.4574C36.3729 27.3694 37.8582 28.1094 39.6849 28.1094C41.5035 28.1094 42.9875 27.3694 42.9875 26.4574M29.7649 28.1094C29.7649 27.196 28.2809 26.4574 26.4609 26.4574C24.6342 26.4574 23.1489 27.196 23.1489 28.1094C23.1489 29.0294 24.6342 29.76 26.4609 29.76C28.2809 29.76 29.7649 29.0294 29.7649 28.1094ZM36.3729 36.376C36.3729 35.4627 34.8955 34.7307 33.0689 34.7307C31.2422 34.7307 29.7649 35.4627 29.7649 36.376C29.7649 37.296 31.2422 38.0294 33.0689 38.0294C34.8955 38.0294 36.3729 37.296 36.3729 36.376M29.7649 42.9907C29.7649 42.0787 28.2809 41.3387 26.4609 41.3387C24.6342 41.3387 23.1489 42.0787 23.1489 42.9907C23.1489 43.9054 24.6342 44.644 26.4609 44.644C28.2809 44.644 29.7649 43.9054 29.7649 42.9907ZM42.9875 41.3387C42.9875 40.4254 41.5035 39.6867 39.6849 39.6867C37.8582 39.6867 36.3729 40.4254 36.3729 41.3387C36.3729 42.2534 37.8582 42.9907 39.6849 42.9907C41.5035 42.9907 42.9875 42.2534 42.9875 41.3387" fill="#3E721D"/>
<path d="M95.8049 54.5651C95.8049 58.2118 92.8422 59.5225 89.1956 59.5225C85.5369 59.5225 82.5742 58.2118 82.5742 54.5651L84.2262 39.6838C84.2262 36.0305 85.5369 36.3718 89.1956 36.3718C92.8422 36.3718 94.1529 36.0305 94.1529 39.6838L95.8049 54.5651Z" fill="#662113"/>
<path d="M115.65 28.1053C115.65 42.7187 103.802 47.9507 89.1954 47.9507C74.582 47.9507 62.7354 42.7187 62.7354 28.1053C62.7354 13.4987 77.6194 1.38297e-05 89.1954 1.38297e-05C100.767 1.38297e-05 115.65 13.4987 115.65 28.1053Z" fill="#5C913B"/>
<path d="M72.6559 34.7281C72.6559 33.8081 71.1785 33.0695 69.3505 33.0695C67.5319 33.0695 66.0479 33.8081 66.0479 34.7281C66.0479 35.6348 67.5319 36.3721 69.3505 36.3721C71.1785 36.3721 72.6559 35.6348 72.6559 34.7281ZM112.34 34.7281C112.34 33.8081 110.861 33.0695 109.035 33.0695C107.208 33.0695 105.725 33.8081 105.725 34.7281C105.725 35.6348 107.208 36.3721 109.035 36.3721C110.861 36.3721 112.34 35.6348 112.34 34.7281ZM79.2705 41.3361C79.2705 40.4228 77.7945 39.6841 75.9612 39.6841C74.1399 39.6841 72.6559 40.4228 72.6559 41.3361C72.6559 42.2495 74.1399 42.9868 75.9612 42.9868C77.7945 42.9868 79.2705 42.2495 79.2705 41.3361M85.8865 36.3721C85.8865 35.4601 84.4025 34.7281 82.5745 34.7281C80.7545 34.7281 79.2705 35.4601 79.2705 36.3721C79.2705 37.2935 80.7545 38.0255 82.5745 38.0255C84.4025 38.0255 85.8865 37.2935 85.8865 36.3721M79.2705 26.4535C79.2705 25.5401 77.7945 24.8015 75.9612 24.8015C74.1399 24.8015 72.6559 25.5401 72.6559 26.4535C72.6559 27.3668 74.1399 28.1055 75.9612 28.1055C77.7945 28.1055 79.2705 27.3668 79.2705 26.4535M74.3145 19.8455C74.3145 18.9241 72.8305 18.1868 71.0039 18.1868C69.1772 18.1868 67.6932 18.9241 67.6932 19.8455C67.6932 20.7588 69.1772 21.4908 71.0039 21.4908C72.8305 21.4908 74.3145 20.7588 74.3145 19.8455ZM110.687 19.8455C110.687 18.9241 109.209 18.1868 107.376 18.1868C105.549 18.1868 104.079 18.9241 104.079 19.8455C104.079 20.7588 105.549 21.4908 107.376 21.4908C109.209 21.4908 110.687 20.7588 110.687 19.8455ZM85.8865 16.5335C85.8865 15.6215 84.4025 14.8748 82.5745 14.8748C80.7545 14.8748 79.2705 15.6215 79.2705 16.5335C79.2705 17.4481 80.7545 18.1868 82.5745 18.1868C84.4025 18.1868 85.8865 17.4481 85.8865 16.5335ZM99.1092 16.5335C99.1092 15.6215 97.6318 14.8748 95.8052 14.8748C93.9785 14.8748 92.5012 15.6215 92.5012 16.5335C92.5012 17.4481 93.9785 18.1868 95.8052 18.1868C97.6318 18.1868 99.1092 17.4481 99.1092 16.5335ZM105.725 26.4535C105.725 25.5401 104.24 24.8015 102.42 24.8015C100.593 24.8015 99.1092 25.5401 99.1092 26.4535C99.1092 27.3668 100.593 28.1055 102.42 28.1055C104.24 28.1055 105.725 27.3668 105.725 26.4535ZM92.5012 28.1055C92.5012 27.1935 91.0172 26.4535 89.1959 26.4535C87.3705 26.4535 85.8865 27.1935 85.8865 28.1055C85.8865 29.0268 87.3705 29.7575 89.1959 29.7575C91.0172 29.7575 92.5012 29.0268 92.5012 28.1055ZM99.1092 36.3721C99.1092 35.4601 97.6318 34.7281 95.8052 34.7281C93.9785 34.7281 92.5012 35.4601 92.5012 36.3721C92.5012 37.2935 93.9785 38.0255 95.8052 38.0255C97.6318 38.0255 99.1092 37.2935 99.1092 36.3721M92.5012 42.9868C92.5012 42.0748 91.0172 41.3361 89.1959 41.3361C87.3705 41.3361 85.8865 42.0748 85.8865 42.9868C85.8865 43.9015 87.3705 44.6401 89.1959 44.6401C91.0172 44.6401 92.5012 43.9015 92.5012 42.9868M105.725 41.3361C105.725 40.4228 104.24 39.6841 102.42 39.6841C100.593 39.6841 99.1092 40.4228 99.1092 41.3361C99.1092 42.2495 100.593 42.9868 102.42 42.9868C104.24 42.9868 105.725 42.2495 105.725 41.3361Z" fill="#3E721D"/>
</svg>
