<svg width="26" height="26" viewBox="0 0 26 26" fill="none" xmlns="http://www.w3.org/2000/svg">
<path fill-rule="evenodd" clip-rule="evenodd" d="M4.23265 0.0828892C3.37644 0.290451 2.61688 0.97077 2.29766 1.81591C2.18819 2.1058 2.18479 2.18133 2.15998 4.87739L2.13457 7.64166L1.92859 7.70245C1.32943 7.87931 0.642506 8.42398 0.339753 8.9623C0.0352713 9.50372 0 9.69238 0 10.7785C0 11.7416 0.00376091 11.7775 0.133157 12.0534C0.420968 12.6672 0.917358 12.9708 1.68987 13.0056L2.15998 13.0268V17.2792C2.15998 21.9573 2.1517 21.8216 2.47448 22.4272C2.78084 23.0019 3.46085 23.5591 4.07856 23.7415L4.29456 23.8053V24.0953C4.29456 24.9563 4.64752 25.5961 5.28058 25.8827C5.53215 25.9965 5.58287 26 7.01359 26H8.48747L8.77136 25.8668C9.38515 25.579 9.68877 25.0826 9.72359 24.3101L9.74478 23.84H12.9853H16.2258L16.247 24.3101C16.2819 25.0826 16.5855 25.579 17.1993 25.8668L17.4832 26H18.957C20.3878 26 20.4385 25.9965 20.6901 25.8827C21.3231 25.5961 21.6761 24.9563 21.6761 24.0953V23.8053L21.8921 23.7415C22.5098 23.5591 23.1898 23.0019 23.4962 22.4272C23.8189 21.8216 23.8106 21.9573 23.8106 17.2792V13.0268L24.2808 13.0056C25.0533 12.9708 25.5497 12.6672 25.8375 12.0534C25.9669 11.7775 25.9706 11.7416 25.9706 10.7785C25.9706 9.69238 25.9354 9.50372 25.6309 8.9623C25.3281 8.42398 24.6412 7.87931 24.042 7.70245L23.8361 7.64166L23.8106 4.87739C23.7858 2.18133 23.7824 2.1058 23.673 1.81591C23.3492 0.958674 22.5915 0.287198 21.7147 0.0805006C21.2531 -0.0283626 4.68208 -0.0260756 4.23265 0.0828892ZM19.6431 2.33451C19.9554 2.498 20.2354 2.77474 20.3962 3.07876C20.5124 3.29847 20.5307 3.39478 20.5316 3.79029C20.5327 4.32749 20.4298 4.59253 20.0873 4.93513C19.8245 5.19788 19.5963 5.31569 19.2129 5.38659C18.7937 5.46409 7.17694 5.46409 6.7577 5.38659C6.37434 5.31569 6.14609 5.19788 5.88334 4.93513C5.54084 4.59263 5.43792 4.32749 5.43894 3.79029C5.43965 3.41094 5.46013 3.29384 5.55868 3.10417C5.77229 2.69322 6.15595 2.36775 6.5816 2.23647C6.65148 2.21492 9.56746 2.20125 13.0615 2.20603L19.4144 2.21477L19.6431 2.33451ZM20.6901 6.65204C20.987 6.78646 21.3145 7.10172 21.4684 7.40132C21.6669 7.78768 21.6821 8.06959 21.6661 11.0472L21.6507 13.9064L21.4844 14.244C21.294 14.6307 21.0642 14.8538 20.6619 15.0425L20.3801 15.1747H12.9842H5.58841L5.25079 15.0084C4.86403 14.818 4.64086 14.5882 4.45216 14.186L4.31997 13.9041L4.30457 11.0461C4.28846 8.06939 4.30375 7.78753 4.50232 7.40132C4.63095 7.15112 4.92629 6.83459 5.13314 6.72532C5.53967 6.51044 5.35905 6.51502 13.0615 6.52508L20.4309 6.53474L20.6901 6.65204ZM7.67663 17.5106C8.36097 17.8144 8.73909 18.5286 8.60507 19.2643C8.5393 19.6253 8.41769 19.8574 8.15844 20.1167C7.81594 20.4592 7.55079 20.5621 7.01359 20.5611C6.63425 20.5603 6.51715 20.5399 6.32748 20.4413C6.01599 20.2794 5.73554 20.0026 5.57443 19.6979C5.4582 19.4782 5.43991 19.3819 5.43904 18.9864C5.43792 18.4494 5.54079 18.1841 5.88293 17.842C6.14167 17.5833 6.32291 17.4846 6.68324 17.4066C7.0323 17.3309 7.34583 17.3638 7.67663 17.5106ZM19.2129 17.3901C19.5963 17.461 19.8245 17.5788 20.0873 17.8416C20.4298 18.1842 20.5327 18.4492 20.5316 18.9864C20.5307 19.3819 20.5124 19.4782 20.3962 19.6979C20.2351 20.0026 19.9546 20.2794 19.6431 20.4413C19.3135 20.6126 18.6058 20.6142 18.261 20.4444C17.9797 20.3058 17.6396 19.9802 17.5091 19.7244C17.0202 18.7659 17.6184 17.5646 18.6734 17.386C18.8015 17.3643 18.9077 17.3439 18.9096 17.3407C18.9114 17.3373 19.048 17.3596 19.2129 17.3901Z" fill="#0E1825"/>
</svg>
