<svg width="43" height="35" viewBox="0 0 43 35" fill="none" xmlns="http://www.w3.org/2000/svg">
<path fill-rule="evenodd" clip-rule="evenodd" d="M11.094 3.4975C5.60842 5.43623 1.02234 7.09412 0.902679 7.18182C0.207863 7.69089 0.271477 8.75908 1.02243 9.19304C1.15327 9.26873 5.75398 10.9274 11.2462 12.8791C19.6962 15.8819 21.2825 16.4216 21.5607 16.3887C21.9262 16.3455 41.4753 9.41445 41.8525 9.19435C42.261 8.95609 42.4364 8.64262 42.4364 8.15147C42.4364 7.6599 42.2612 7.34743 41.8509 7.10703C41.7191 7.02985 37.1924 5.40615 31.7915 3.49874C24.4774 0.915739 21.8564 0.0234257 21.5197 0.00172809C21.1 -0.0252295 20.3531 0.225197 11.094 3.4975ZM38.2243 13.1451L37.0531 13.5671V18.4757V23.3842L36.5673 23.87C36.1929 24.2444 36.0516 24.4566 35.9509 24.7956C35.6568 25.7858 35.8884 26.6951 36.6117 27.3901L37.0476 27.8089L37.0709 31.0215C37.0936 34.1405 37.0993 34.241 37.2672 34.4662C37.798 35.1779 38.774 35.1779 39.3047 34.4662C39.4728 34.2408 39.4783 34.1415 39.5009 30.9652L39.5241 27.696L39.7385 27.5812C40.0649 27.4066 40.4934 26.791 40.6402 26.2861C40.9068 25.3694 40.6166 24.3841 39.8925 23.7467L39.5188 23.4177V18.0653C39.5188 15.1215 39.4911 12.7152 39.4571 12.718C39.4232 12.7208 38.8684 12.9129 38.2243 13.1451ZM9.04198 17.6647C9.06779 20.5204 9.071 20.5675 9.2629 20.9573C9.77534 21.9981 11.2096 22.8766 13.5566 23.5877C18.2605 25.0128 24.6081 25.0135 29.3275 23.5895C31.6521 22.888 33.1003 21.996 33.6167 20.9475C33.8026 20.5701 33.8073 20.4995 33.8329 17.6647C33.8512 15.6452 33.8325 14.7676 33.7711 14.7676C33.7227 14.7676 31.1221 15.682 27.9918 16.7998L22.3004 18.8319L21.4375 18.8309L20.5745 18.83L14.8927 16.7989C11.7677 15.6817 9.16707 14.7676 9.1134 14.7676C9.03944 14.7676 9.02218 15.4691 9.04198 17.6647Z" fill="#0E1825"/>
</svg>
