<svg width="14" height="13" viewBox="0 0 14 13" fill="none" xmlns="http://www.w3.org/2000/svg">
<path fill-rule="evenodd" clip-rule="evenodd" d="M1.91046 0.55149C1.85244 0.582136 1.79567 0.640534 1.76446 0.701701C1.71383 0.800927 1.7134 0.843126 1.7134 5.60163V10.4015H1.48387C1.19764 10.4015 1.08039 10.4519 1 10.6094C0.890998 10.8231 0.898666 10.8381 1.59516 11.7673C2.24655 12.6363 2.29474 12.6866 2.47512 12.6866C2.65417 12.6866 2.70508 12.634 3.32388 11.8091C3.6504 11.3738 3.93577 10.9824 3.95806 10.9394C4.01252 10.834 4.00904 10.7247 3.94745 10.6039C3.87011 10.4524 3.7492 10.4015 3.46637 10.4015H3.23684V5.60163C3.23684 0.841222 3.23641 0.800978 3.18573 0.701599C3.09445 0.522697 3.01 0.498956 2.46979 0.500251C2.05775 0.501242 1.9947 0.507031 1.91046 0.55149ZM4.19561 0.55149C4.1376 0.582136 4.08082 0.640534 4.04962 0.701701C4.0015 0.796001 3.99856 0.850363 3.99856 1.64171C3.99856 2.43339 4.0015 2.48737 4.04967 2.58183C4.08257 2.64634 4.1365 2.70027 4.20102 2.73318C4.30037 2.78386 4.34092 2.78429 8.97512 2.78429C13.6093 2.78429 13.6499 2.78386 13.7492 2.73318C13.8137 2.70027 13.8677 2.64634 13.9006 2.58183C13.9487 2.48737 13.9517 2.43339 13.9517 1.64171C13.9517 0.850033 13.9487 0.796052 13.9006 0.701599C13.8677 0.637081 13.8137 0.583152 13.7492 0.550245C13.6498 0.499566 13.6105 0.499134 8.96979 0.500251C4.36116 0.501368 4.28913 0.50213 4.19561 0.55149ZM4.19561 3.59836C4.1376 3.62901 4.08082 3.68741 4.04962 3.74858C4.0015 3.84288 3.99856 3.89724 3.99856 4.68859C3.99856 5.48027 4.0015 5.53425 4.04967 5.6287C4.08257 5.69322 4.1365 5.74715 4.20102 5.78005C4.30002 5.83056 4.34346 5.83117 7.83254 5.83117C11.3216 5.83117 11.3651 5.83056 11.4641 5.78005C11.5286 5.74715 11.5825 5.69322 11.6154 5.6287C11.6636 5.53425 11.6665 5.48027 11.6665 4.68859C11.6665 3.89691 11.6636 3.84293 11.6154 3.74847C11.5825 3.68396 11.5286 3.63003 11.4641 3.59712C11.365 3.54659 11.3228 3.54603 7.82721 3.54713C4.35616 3.54824 4.2888 3.54918 4.19561 3.59836ZM4.19561 6.64524C4.1376 6.67589 4.08082 6.73428 4.04962 6.79545C4.0015 6.88975 3.99856 6.94411 3.99856 7.73546C3.99856 8.52714 4.0015 8.58112 4.04967 8.67558C4.08257 8.74009 4.1365 8.79402 4.20102 8.82693C4.29933 8.87708 4.346 8.87804 6.68996 8.87804C9.03392 8.87804 9.08059 8.87708 9.17891 8.82693C9.24342 8.79402 9.29735 8.74009 9.33026 8.67558C9.37842 8.58112 9.38137 8.52714 9.38137 7.73546C9.38137 6.94378 9.37842 6.8898 9.33026 6.79535C9.29735 6.73083 9.24342 6.6769 9.17891 6.644C9.08054 6.59382 9.03507 6.59291 6.68463 6.594C4.35118 6.59509 4.28814 6.59639 4.19561 6.64524Z" fill="#0E1825"/>
</svg>
