<svg width="26" height="21" viewBox="0 0 26 21" fill="none" xmlns="http://www.w3.org/2000/svg">
<path fill-rule="evenodd" clip-rule="evenodd" d="M20.35 15.35C18.96 16.54 18.63 20.7 18.63 20.7H17.64C17.64 20.7 17.72 17.29 16.04 15.59C14.36 13.89 11.36 13.65 11.36 13.65L11.46 12.61C11.46 12.61 14.93 12.2 16.08 11.04C17.68 9.44002 17.6 6.54002 17.6 6.54002L18.59 6.46002C18.59 6.46002 18.77 9.75003 20.13 11.12C21.5 12.5 25.01 12.62 25.01 12.62L25.06 13.72C25.06 13.71 22.06 13.89 20.35 15.35Z" fill="black"/>
<path fill-rule="evenodd" clip-rule="evenodd" d="M10.91 5.25C10.1 5.95 9.92 8.4 9.92 8.4H9.32999C9.32999 8.4 9.33 6.37 8.34 5.37C7.35 4.37 5.62 4.24 5.62 4.24L5.68 3.63C5.68 3.63 7.76999 3.41 8.43999 2.73C9.37999 1.79 9.28 0.0500031 9.28 0.0500031L9.86 0C9.86 0 9.99 1.92 10.79 2.72C11.59 3.52 13.64 3.63 13.64 3.63L13.67 4.29C13.69 4.28 11.93 4.39 10.91 5.25Z" fill="black"/>
<path fill-rule="evenodd" clip-rule="evenodd" d="M8.04 10.08L8.07 10.74C8.07 10.74 6.31 10.85 5.3 11.73C4.48 12.43 4.28 14.88 4.28 14.88H3.71C3.71 14.88 3.71 12.85 2.72 11.85C1.73 10.85 0 10.73 0 10.73L0.0599976 10.1C0.0599976 10.1 2.14999 9.88003 2.82999 9.19003C3.75999 8.25003 3.68 6.51003 3.68 6.51003L4.25999 6.46002C4.25999 6.46002 4.35 8.41002 5.16 9.22002C5.97 10.03 8.04 10.08 8.04 10.08Z" fill="black"/>
</svg>
