<svg width="44" height="35" viewBox="0 0 44 35" fill="none" xmlns="http://www.w3.org/2000/svg">
<path fill-rule="evenodd" clip-rule="evenodd" d="M11.0963 0.172999C7.36884 0.986858 4.65273 3.64934 3.58127 7.5397C3.35837 8.34883 3.33824 8.56199 3.33852 10.1067C3.3387 11.6399 3.36028 11.8711 3.57863 12.6814C3.81811 13.5707 4.39731 14.9072 4.85988 15.6383L5.10473 16.0253L10.2711 16.0225L15.4373 16.0197L16.621 14.2319C17.2721 13.2485 17.9485 12.2906 18.1243 12.1032C18.6349 11.5582 19.4662 11.5081 20.0363 11.9878C20.2351 12.1551 20.8051 13.2007 22.0194 15.6262C22.9566 17.4981 23.7439 19.0281 23.7689 19.026C23.794 19.024 24.5 18.1036 25.3379 16.9807C26.1758 15.8578 26.973 14.866 27.1094 14.7766C27.3412 14.6246 27.8681 14.6109 35.163 14.5684C42.8686 14.5234 42.9717 14.5205 43.2199 14.3351C43.6977 13.9784 43.8468 13.6873 43.8468 13.1115C43.8468 12.5359 43.6978 12.245 43.2202 11.8879C43.0046 11.7267 42.8096 11.6959 41.8421 11.6701L40.7151 11.64L40.7648 10.5774C40.9075 7.53178 39.7574 4.62964 37.6014 2.59454C36.4614 1.51835 35.1549 0.780707 33.5574 0.31104C32.4355 -0.0187647 30.3423 -0.099713 28.9507 0.133026C26.6237 0.522108 24.5062 1.56552 22.7392 3.19369L22.0358 3.84183L21.4289 3.27409C19.8623 1.80855 18.1687 0.873311 16.0639 0.31104C15.2885 0.103979 14.9375 0.0659179 13.5251 0.0355962C12.1623 0.00645832 11.753 0.0295861 11.0963 0.172999ZM18.0829 17.303C17.6404 17.9556 17.151 18.5805 16.9953 18.6916L16.7121 18.8936L8.91069 18.9391C1.20908 18.9841 1.10601 18.987 0.857786 19.1724C0.380016 19.5291 0.230957 19.8201 0.230957 20.396C0.230957 20.9718 0.380016 21.2627 0.857786 21.6196C1.10254 21.8023 1.22702 21.808 5.56147 21.8326L10.0138 21.8579L15.4391 28.2065C18.4231 31.6983 21.0093 34.6553 21.1863 34.7775C21.4189 34.9383 21.6302 35 21.9478 35C22.2662 35 22.4754 34.9386 22.7063 34.7775C22.8817 34.6553 26.271 30.806 30.2379 26.2236C34.2049 21.6412 37.5344 17.7998 37.6369 17.6871L37.8233 17.4822H33.2103H28.5973L26.5605 20.1948C25.4403 21.6867 24.4097 22.9821 24.2703 23.0734C23.7 23.4471 22.8683 23.3367 22.4426 22.8307C22.3108 22.6741 21.48 21.0993 20.5964 19.3312C19.7127 17.5631 18.9666 16.1164 18.9385 16.1164C18.9105 16.1164 18.5254 16.6503 18.0829 17.303Z" fill="#0E1825"/>
</svg>
