<svg width="48" height="48" viewBox="0 0 48 48" fill="none" xmlns="http://www.w3.org/2000/svg">
<path fill-rule="evenodd" clip-rule="evenodd" d="M35.2247 23.7843C32.578 23.7843 30.4327 21.639 30.4327 18.991C30.4327 16.3443 32.578 14.199 35.2247 14.199C37.8714 14.199 40.018 16.3443 40.018 18.991C40.018 21.639 37.8714 23.7843 35.2247 23.7843ZM13.3207 37.1963L15.4607 32.787C21.0714 34.823 27.9594 34.839 32.7194 32.5896L35.0447 37.0736C29.494 40.2803 19.982 40.3496 13.3207 37.1963ZM7.97137 18.991C7.97137 16.3443 10.1167 14.199 12.7634 14.199C15.41 14.199 17.5567 16.3443 17.5567 18.991C17.5567 21.639 15.41 23.7843 12.7634 23.7843C10.1167 23.7843 7.97137 21.639 7.97137 18.991ZM23.994 0.00962067C10.8634 0.00962067 0.220703 10.6536 0.220703 23.7843C0.220703 36.915 10.8634 47.5576 23.994 47.5576C37.1247 47.5576 47.7687 36.915 47.7687 23.7843C47.7687 10.6536 37.1247 0.00962067 23.994 0.00962067Z" fill="white"/>
</svg>
