<svg width="36" height="24" viewBox="0 0 36 24" fill="none" xmlns="http://www.w3.org/2000/svg">
<path d="M1 16H35V21H1V16Z" fill="#C1694F"/>
<path d="M36 23C36 23.553 35.553 24 35 24C34.447 24 34 23.553 34 23V9C34 8.447 34.447 8 35 8C35.553 8 36 8.447 36 9V23ZM0 23C0 23.553 0.447 24 1 24C1.553 24 2 23.553 2 23V1C2 0.448 1.553 0 1 0C0.447 0 0 0.448 0 1V23Z" fill="#C1694F"/>
<path d="M32 11H4C2.896 11 2 11.896 2 13V17H34V13C34 11.896 33.104 11 32 11Z" fill="#226699"/>
<path d="M32 11H4C2.896 11 2 11.896 2 13V17H34V13C34 11.896 33.104 11 32 11Z" fill="#55ACEE"/>
<path d="M2.12606 7.93805C1.86506 9.01105 3.61106 10.3571 6.02606 10.9441C8.44106 11.5311 10.6101 11.1361 10.8721 10.0631C11.1331 8.99005 9.38706 7.64405 6.97206 7.05605C4.55706 6.46905 2.38706 6.86405 2.12606 7.93805Z" fill="#5C913B"/>
</svg>
