<svg width="12" height="16" viewBox="0 0 12 16" fill="none" xmlns="http://www.w3.org/2000/svg">
<path d="M5.99996 15.5C4.94741 14.6022 3.97179 13.6179 3.08329 12.5575C1.74996 10.965 0.166627 8.59333 0.166627 6.33333C0.166048 5.17913 0.507884 4.0507 1.14887 3.09085C1.78986 2.131 2.70119 1.38288 3.76752 0.94116C4.83385 0.499443 6.00725 0.383987 7.13922 0.609405C8.2712 0.834823 9.31086 1.39098 10.1266 2.2075C10.6698 2.74821 11.1003 3.39128 11.3932 4.09947C11.6861 4.80767 11.8357 5.56694 11.8333 6.33333C11.8333 8.59333 10.25 10.965 8.91663 12.5575C8.02813 13.6179 7.05251 14.6022 5.99996 15.5ZM5.99996 3.83333C5.33692 3.83333 4.70103 4.09672 4.23219 4.56556C3.76335 5.0344 3.49996 5.67029 3.49996 6.33333C3.49996 6.99637 3.76335 7.63226 4.23219 8.1011C4.70103 8.56994 5.33692 8.83333 5.99996 8.83333C6.663 8.83333 7.29889 8.56994 7.76773 8.1011C8.23657 7.63226 8.49996 6.99637 8.49996 6.33333C8.49996 5.67029 8.23657 5.0344 7.76773 4.56556C7.29889 4.09672 6.663 3.83333 5.99996 3.83333Z" fill="#00A0B3"/>
</svg>
