<svg width="41" height="36" viewBox="0 0 41 36" fill="none" xmlns="http://www.w3.org/2000/svg">
<path d="M14.0005 26.4944C16.6578 29.2757 24.5152 29.1384 26.7058 26.2691C29.8858 29.3637 37.9125 29.5371 40.5738 23.9224L38.9658 22.4704C36.3405 25.6264 31.1352 25.9877 28.0245 23.4037C27.9965 19.7424 27.9125 7.53039 27.9125 6.68639C27.9165 3.57173 32.4618 3.35039 32.4618 7.62773L34.9138 7.41306C35.5485 -0.933605 24.5312 -1.45761 24.5312 6.65039C24.5312 7.61573 24.6285 19.9864 24.6605 24.0944C21.6125 26.2011 16.2272 25.5624 14.3218 22.3464C14.1352 22.3477 13.9485 22.3571 13.7632 22.3784C10.8325 26.6477 4.27382 26.2344 1.77649 22.3784L0.104492 24.2117C2.91116 29.6784 11.5125 29.3531 14.0005 26.4944ZM26.9592 29.2197H26.2632C24.1418 33.2637 16.6445 33.1464 14.3218 29.2451C14.1352 29.2451 13.9485 29.2584 13.7632 29.2797C10.8325 33.5611 4.27382 33.1464 1.77649 29.2797L0.120492 31.1251C2.92583 36.5877 11.5285 36.2664 14.0165 33.4091C16.6725 36.1864 24.5312 36.0531 26.7218 33.1837C29.9018 36.2784 37.9285 36.4637 40.5738 30.8357L38.9658 29.3851C36.0112 32.9344 29.7725 32.9584 26.9592 29.2197ZM8.08316 22.5837C8.08316 22.5837 7.94316 7.88772 7.94316 6.67039C7.94316 -1.43628 19.0725 -1.05094 18.4378 6.92773L15.8778 7.42506C15.8778 2.85173 11.2872 3.76373 11.2872 6.62239C11.2872 8.32239 11.3112 11.4851 11.3432 14.4677L22.7112 14.3397C22.7112 14.3397 23.3338 17.6237 19.7232 17.5824C17.2685 17.5517 13.5138 17.5597 11.3752 17.5824C11.3992 19.8864 11.4192 21.6024 11.4192 21.6024L8.08316 22.5837Z" fill="black"/>
</svg>
