<svg width="26" height="26" viewBox="0 0 26 26" fill="none" xmlns="http://www.w3.org/2000/svg">
<path fill-rule="evenodd" clip-rule="evenodd" d="M13.0876 0.0546554C10.1248 0.390664 7.50918 2.07655 5.92237 4.67298C5.39603 5.53421 4.92962 6.75502 4.73166 7.78971C4.59852 8.48581 4.51457 9.626 4.57908 9.86184C4.63362 10.0611 4.83837 10.2784 5.04625 10.3576C5.13785 10.3925 5.9057 10.4116 7.2164 10.4116H9.24475L9.27764 9.68777C9.4409 6.09169 10.5369 2.64251 12.0202 1.05643C12.4918 0.552243 12.9832 0.23447 13.5408 0.0732463C13.7303 0.0184386 13.7427 0.00802561 13.6163 0.00975263C13.5332 0.0108701 13.2953 0.0310865 13.0876 0.0546554ZM14.7508 0.0919389C15.2672 0.262458 15.6648 0.514299 16.0859 0.937624C17.632 2.49195 18.6929 5.66354 18.9363 9.45919L18.9974 10.4116L21.0405 10.4115C23.3186 10.4114 23.3162 10.4118 23.5484 10.0612C23.8233 9.64612 23.6164 7.8498 23.1325 6.44959C22.6444 5.03749 21.8545 3.80708 20.7349 2.7154C19.0832 1.10484 17.1478 0.228476 14.7997 0.027988L14.4724 0L14.7508 0.0919389ZM13.8178 1.5848C12.3704 2.1052 10.9714 5.85194 10.7896 9.69458L10.7556 10.4116H12.0475H13.3394V14.5006V18.5896H10.9369H8.53446L7.24823 17.3038C6.54081 16.5966 5.83072 15.9318 5.67023 15.8265C4.09464 14.7927 2.03008 14.9425 0.697069 16.1873C0.363249 16.4991 0.261628 16.7306 0.319136 17.0482C0.35071 17.2222 0.661466 17.5542 3.16469 20.088L5.97479 22.9326L5.67466 24.0703C5.34769 25.3096 5.33983 25.4287 5.56714 25.7012C5.90066 26.101 6.46124 26.0993 6.7448 25.6977C6.80035 25.619 6.96658 25.0904 7.11418 24.5229L7.38253 23.4913L14.6917 23.4785L22.0009 23.4655V24.4325C22.0009 25.5155 22.0318 25.6584 22.3099 25.8584C22.5341 26.0198 22.9372 26.0281 23.1397 25.8755C23.4757 25.6225 23.485 25.5871 23.5019 24.4782L23.5175 23.4659H23.9571C24.3137 23.4659 24.4385 23.4443 24.6184 23.3516C25.0556 23.1263 25.1499 22.7825 24.9985 21.9666C24.7089 20.4062 23.6017 19.1749 22.069 18.7091C21.8041 18.6285 21.4252 18.6167 18.3248 18.5918L14.8753 18.5642L14.8624 14.4879L14.8495 10.4116H16.1591H17.4687L17.4686 10.2211C17.4685 10.1164 17.4457 9.72206 17.4179 9.3449C17.2193 6.64881 16.5437 4.20034 15.5921 2.72784C14.987 1.79149 14.3623 1.38904 13.8178 1.5848Z" fill="#0E1825"/>
</svg>
