<svg width="62" height="61" viewBox="0 0 62 61" fill="none" xmlns="http://www.w3.org/2000/svg">
<path fill-rule="evenodd" clip-rule="evenodd" d="M21.0301 41.2456C20.1674 40.283 19.3234 39.2923 18.5128 38.2763C18.2274 40.1456 18.0861 42.0336 18.0874 43.923C19.9474 44.0776 21.8154 44.1123 23.6808 44.0296C22.7701 43.1256 21.8608 42.1963 21.0301 41.2456ZM51.6608 53.603C51.1381 54.0683 50.5621 54.475 49.9474 54.811L49.3688 51.191L49.4354 51.131C52.0594 48.7736 52.1394 44.7736 50.6248 40.2096C45.6514 42.8376 40.3274 44.739 34.8141 45.8563C33.6648 46.103 32.5088 46.3083 31.3394 46.5203C33.3714 48.1443 35.5568 49.5656 37.8634 50.7656C38.7421 49.247 40.3901 48.3416 42.1408 48.4136C48.6248 48.4136 48.5861 58.3123 42.2541 58.3123C39.0661 58.3123 37.4194 56.2136 37.1928 53.9536C33.4754 52.1283 30.0221 49.811 26.9221 47.0656C24.0514 47.3336 21.1634 47.3656 18.2861 47.159C18.9501 52.4723 21.2554 55.6216 24.1981 56.5843C26.7368 57.4083 29.5128 56.339 32.1701 53.9283L34.9008 55.7203C31.3074 59.3016 27.2808 61.0963 23.1954 59.767C17.9541 58.059 15.5834 53.0176 15.0648 46.779C8.8541 45.7176 4.13676 43.019 3.10743 38.0976C2.96476 37.411 2.8901 36.7123 2.8821 36.011C-1.66324 34.1443 -0.725903 26.519 4.98076 26.519C11.0394 26.519 11.3981 35.155 6.2501 36.2896C6.2501 36.667 6.28743 37.0443 6.3621 37.4136C7.02743 40.5683 10.2488 42.6016 14.9981 43.531C15.0301 40.583 15.3261 37.6443 15.8821 34.7496C9.40476 25.4483 6.0701 15.1123 11.8954 9.85098C15.2181 6.87498 19.4554 6.60831 23.9461 8.01098L22.6181 11.0136C18.9314 10.0563 15.9741 10.635 14.1208 12.3416C10.4674 15.6243 12.0154 22.7056 16.8648 30.4443C17.1501 29.3616 17.4634 28.2923 17.8021 27.2496C20.2661 19.6896 24.4448 11.7843 29.4008 7.12032C28.5301 4.25098 30.1914 0.577652 34.1501 0.577652C40.6341 0.577652 40.5941 10.4763 34.2634 10.4763C33.2434 10.4977 32.2368 10.2336 31.3608 9.71231C27.1154 13.771 23.2954 20.9323 20.9101 28.259C20.2461 30.291 19.7221 32.2056 19.3034 34.0257C20.5448 35.7123 21.9608 37.4136 23.4354 39.087C24.9101 40.7616 26.4314 42.2563 27.9994 43.691C29.9914 43.4576 32.0301 43.1256 34.1168 42.6803C39.4661 41.607 44.6328 39.7696 49.4554 37.2203C49.1034 36.4496 48.7181 35.6603 48.2994 34.8763L50.2928 31.7536C51.0101 32.9976 51.6568 34.2443 52.2328 35.4936C56.0861 32.7696 58.3248 29.5803 57.6074 26.1936C56.8901 22.8056 53.5021 20.699 48.8448 19.7163C48.6208 25.239 47.6261 30.7043 45.8888 35.951L42.0688 37.035C42.2941 36.371 42.5141 35.7656 42.7328 35.107C44.4608 29.9816 45.4514 24.6363 45.6754 19.231C40.1688 18.7816 34.6274 19.163 29.2341 20.3603L28.0914 20.6256L29.1688 17.0456C34.5501 15.9136 40.0648 15.5496 45.5501 15.963C45.2368 12.3296 44.2208 9.39231 42.2274 7.72431L42.8194 4.11098C46.5861 6.21098 48.3728 10.7936 48.7448 16.4083C54.9434 17.551 59.7328 20.3403 60.8221 25.483C61.8781 30.4843 58.6834 34.9283 53.4354 38.4697C55.5808 44.475 55.5874 50.0683 51.6608 53.603ZM32.0634 23.8936C42.2008 23.8936 42.1354 39.3803 32.2368 39.3803C21.3954 39.3803 21.8608 23.8936 32.0634 23.8936Z" fill="white"/>
</svg>
