<svg width="54" height="46" viewBox="0 0 54 46" fill="none" xmlns="http://www.w3.org/2000/svg">
<path d="M19.6938 34.0609C18.8084 35.8249 13.0778 40.3063 2.12976 43.5223C3.22709 44.8796 4.87376 45.6769 6.61376 45.6823H47.3044C50.5151 45.6823 53.1178 43.0796 53.1178 39.8676V34.0609H19.6938Z" fill="#FFAC33"/>
<path d="M19.6938 34.0617H0.801758V39.8684C0.801758 41.2617 1.31376 42.5204 2.12976 43.5231C13.0778 40.3071 18.8084 35.8257 19.6938 34.0617Z" fill="#3B88C3"/>
<path d="M28.3755 40.0877C28.1342 41.0917 27.1302 41.7117 26.1262 41.469C25.1528 41.2383 24.5342 40.277 24.7288 39.297L32.1115 1.53566C32.2942 0.519662 33.2688 -0.153671 34.2835 0.0303293C35.2928 0.212996 35.9662 1.17433 35.7888 2.19566C35.7835 2.24366 35.7715 2.28366 35.7595 2.32633L28.3755 40.0877Z" fill="#66757F"/>
<path d="M33.8057 2.53806C22.7271 0.135393 12.2164 5.26473 10.3217 13.9887C10.3217 13.9887 9.79641 16.4194 11.0111 16.6794C12.2271 16.9394 15.1844 15.0394 15.1844 15.0394L45.5684 21.6367C45.5684 21.6367 47.4697 24.5941 48.6844 24.8594C49.9004 25.1207 50.4257 22.6874 50.4257 22.6874C52.3204 13.9647 44.8777 4.94739 33.8057 2.54473" fill="#DD2E44"/>
<path d="M33.8057 2.53748C25.4124 0.714813 17.0791 6.31481 15.1844 15.0441C15.1844 15.0441 14.6591 17.4695 17.0844 18.0015C19.5164 18.5268 23.6897 16.8868 23.6897 16.8868L37.0577 19.7895C37.0577 19.7895 40.1804 23.0068 42.6111 23.5375C45.0431 24.0628 45.5684 21.6361 45.5684 21.6361C47.4631 12.9068 42.1924 4.36148 33.8057 2.54415" fill="white"/>
<path d="M33.8058 2.53804C29.4378 1.59404 25.5898 8.15804 23.6898 16.8874C23.6898 16.8874 26.8111 20.1154 29.2431 20.634L30.4591 20.8994C32.8911 21.4314 37.0578 19.79 37.0578 19.79C38.9524 11.066 38.1671 3.48871 33.8058 2.54471" fill="#DD2E44"/>
<path d="M22.9163 34.0609C22.9163 34.0609 21.831 35.3703 19.6936 35.3703C18.5723 35.3703 17.8763 36.9596 21.1456 36.9596C24.687 36.9596 22.7803 38.4169 19.6936 38.4169C13.431 38.4169 17.3803 41.3196 12.4283 41.3196H10.9763C8.43229 41.3196 6.73896 42.7716 9.52429 42.7716C14.8536 42.7716 9.12829 45.6823 5.16296 45.6823H3.71096C-0.710375 45.6823 -1.73704 41.2076 3.71096 41.2076C6.47896 41.2076 7.52429 38.9783 10.9763 38.9783C14.063 38.9783 15.167 35.5076 16.783 35.5076C18.3776 35.5076 19.6936 34.0609 19.6936 34.0609H22.9216H22.9163Z" fill="#F2F9FF"/>
</svg>
