<svg width="37" height="30" viewBox="0 0 37 30" fill="none" xmlns="http://www.w3.org/2000/svg">
<path fill-rule="evenodd" clip-rule="evenodd" d="M36.6258 21.8426C36.6258 24.2747 34.763 25.3572 31.6491 25.2342C28.5351 25.1112 7.74965 25.1955 4.78331 25.076C1.81697 24.9565 0.695808 23.0657 0.773129 20.6687C1.01564 13.0771 0.945346 5.49609 1.04375 3.92505C1.21246 1.21528 2.35119 -0.0359232 4.69896 0.0589715C6.58982 0.136293 30.7634 -0.106216 33.1885 0.0589715C35.9509 0.231188 36.8331 2.09042 36.7312 4.60689C36.6785 5.97759 36.6785 14.6306 36.6258 21.8426ZM3.61646 2.53678L3.42667 20.7214L34.2815 20.8725L34.4186 2.63167L3.61646 2.53678ZM22.6868 26.626C22.6868 28.2954 25.4739 28.8437 25.4739 28.8437L25.27 30L12.2659 29.8454L12.1781 28.7137C12.1781 28.7137 14.8035 28.2778 14.8035 26.5768L22.6868 26.626Z" fill="#0E1825"/>
</svg>
