<svg width="35" height="24" viewBox="0 0 35 24" fill="none" xmlns="http://www.w3.org/2000/svg">
<path d="M0 10.5601V17.2801C0 18.8708 1.28928 20.1601 2.88 20.1601H31.68C33.2707 20.1601 34.56 18.8708 34.56 17.2801V10.5601H0Z" fill="#808285"/>
<path d="M34.56 11.52V2.88C34.56 1.28928 31.3507 0 29.76 0H10.56C2.88 0 0 2.24928 0 3.84V11.52H34.56Z" fill="#CCD6DD"/>
<path d="M0 11.52H34.56V14.4H0V11.52Z" fill="#939598"/>
<path d="M6.71981 14.3999C3.77933 14.3999 1.35725 16.606 1.00781 19.4524C1.51277 19.8873 2.16173 20.1599 2.87981 20.1599H12.4798C12.4798 16.9794 9.90125 14.3999 6.71981 14.3999ZM33.5518 19.4524C33.2024 16.606 30.7803 14.3999 27.8398 14.3999C24.6593 14.3999 22.0798 16.9794 22.0798 20.1599H31.6798C32.3989 20.1599 33.0478 19.8873 33.5518 19.4524Z" fill="#BCBEC0"/>
<path d="M6.71988 23.9998C8.84066 23.9998 10.5599 22.2806 10.5599 20.1598C10.5599 18.0391 8.84066 16.3198 6.71988 16.3198C4.59911 16.3198 2.87988 18.0391 2.87988 20.1598C2.87988 22.2806 4.59911 23.9998 6.71988 23.9998Z" fill="black"/>
<path d="M6.7198 22.0802C7.78019 22.0802 8.6398 21.2206 8.6398 20.1602C8.6398 19.0998 7.78019 18.2402 6.7198 18.2402C5.65942 18.2402 4.7998 19.0998 4.7998 20.1602C4.7998 21.2206 5.65942 22.0802 6.7198 22.0802Z" fill="#99AAB5"/>
<path d="M27.84 23.9998C29.9608 23.9998 31.68 22.2806 31.68 20.1598C31.68 18.0391 29.9608 16.3198 27.84 16.3198C25.7192 16.3198 24 18.0391 24 20.1598C24 22.2806 25.7192 23.9998 27.84 23.9998Z" fill="black"/>
<path d="M27.8399 22.0802C28.9003 22.0802 29.7599 21.2206 29.7599 20.1602C29.7599 19.0998 28.9003 18.2402 27.8399 18.2402C26.7795 18.2402 25.9199 19.0998 25.9199 20.1602C25.9199 21.2206 26.7795 22.0802 27.8399 22.0802Z" fill="#99AAB5"/>
<path d="M0 14.4H0.96V16.32H0V14.4ZM33.6 12.48H34.56V14.4H33.6V12.48Z" fill="#F4900C"/>
<path d="M0.959961 2.87988H34.56V12.4799H0.959961V2.87988Z" fill="#58595B"/>
<path d="M1.92 2.87988H0.32832C0.1056 3.21012 0 3.53748 0 3.83988V14.3999H1.92C2.97984 14.3999 3.84 13.5397 3.84 12.4799V4.79988C3.84 3.74004 2.97984 2.87988 1.92 2.87988Z" fill="#292F33"/>
<path d="M29.7598 9.5998C29.7598 10.1307 29.3306 10.5598 28.7998 10.5598H6.71977C6.18985 10.5598 5.75977 10.1307 5.75977 9.5998V5.7598C5.75977 5.22988 6.18985 4.7998 6.71977 4.7998H28.7998C29.3306 4.7998 29.7598 5.22988 29.7598 5.7598V9.5998Z" fill="#55ACEE"/>
<path d="M33.5996 8.64014H34.5596V10.5601H33.5996V8.64014Z" fill="#FFAC33"/>
<path d="M0.96 4.7998H0V12.4798H0.96C1.48992 12.4798 1.92 12.0507 1.92 11.5198V5.7598C1.92 5.22988 1.48992 4.7998 0.96 4.7998Z" fill="#55ACEE"/>
</svg>
