<svg width="35" height="45" viewBox="0 0 35 45" fill="none" xmlns="http://www.w3.org/2000/svg">
<path fill-rule="evenodd" clip-rule="evenodd" d="M34.4787 26.8688C34.4787 36.3901 26.76 44.1087 17.2387 44.1087C7.71866 44.1087 0 36.3901 0 26.8688C0 17.3461 7.71866 9.62742 17.2387 9.62742C26.76 9.62742 34.4787 17.3461 34.4787 26.8688Z" fill="#51D2DA"/>
<path fill-rule="evenodd" clip-rule="evenodd" d="M6.22255 31.4533C2.20389 28.164 2.02789 23.824 3.34122 21.988C5.62522 18.7973 10.0159 17.928 8.37055 12.4613C13.5212 21.5053 4.13322 22.6493 6.22255 31.4533ZM5.93855 41.5013C10.0959 38.7213 10.5452 35.5173 10.0159 31.148C9.59189 27.7573 11.1426 24.1587 14.1146 22.616C11.3386 28.32 14.7292 33.5467 16.8479 33.5467C18.9679 33.5467 19.9719 31.4653 19.9719 28.084C19.9719 23.5013 9.91855 16.7293 17.8146 6.22666C16.9679 10.7827 18.0892 15.2587 20.7439 15.2587C23.3959 15.2587 23.4346 7.57866 17.7759 -2.45723e-06C24.9346 3.752 26.8372 9.65466 26.7359 13.0333C26.5492 19.1707 21.4972 26.172 26.4146 27.392C28.1972 27.816 31.6732 22.6493 29.7279 15.0293C41.7599 25.8707 29.8812 52.4867 5.93855 41.5013" fill="#DC46AA"/>
</svg>
