<svg width="24" height="24" viewBox="0 0 24 24" fill="none" xmlns="http://www.w3.org/2000/svg">
<path d="M11.2661 21.4586C11.2994 21.0563 11.0666 20.7794 10.7624 20.7754H10.637C10.3327 20.7794 10.0999 21.0563 10.1333 21.4586C10.1833 22.0623 10.1219 22.3926 10.0986 23.005C10.0819 23.4547 10.296 24.0044 10.6997 23.9997C11.1033 24.0044 11.3174 23.4547 11.3008 23.005C11.2774 22.3926 11.216 22.0623 11.2661 21.4586Z" fill="#DD2E44"/>
<path d="M11.3422 18.3186C11.3429 18.1398 11.018 18.0531 10.7004 18.0557C10.3828 18.0531 10.0579 18.1398 10.0586 18.3186C10.0586 18.3186 10.3315 20.6189 10.2794 22.7825C10.2748 22.9733 10.4882 23.076 10.7004 23.078C10.9125 23.076 11.126 22.9739 11.1214 22.7825C11.0693 20.6189 11.3422 18.3186 11.3422 18.3186Z" fill="#FFDC5D"/>
<path d="M10.251 21.3945H11.1616V21.8282H10.251V21.3945Z" fill="#DD2E44"/>
<path d="M16.1514 13.8806C16.1514 13.8806 18.261 12.3582 18.5518 12.3402C18.7166 12.3295 19.8081 12.2534 20.0396 12.2314C20.8795 12.148 22.6108 11.7844 22.7622 11.7517C22.9143 11.7184 22.977 11.7724 23.3219 11.214C23.6669 10.6549 23.2926 10.787 23.2926 10.787C23.2926 10.787 23.0564 10.9825 22.9277 11.0399C22.7989 11.0973 22.5527 11.1553 22.3212 11.1506C21.5974 11.1353 17.5344 10.9632 17.5344 10.9632C16.9687 10.9959 16.6752 10.9899 16.457 11.4122C16.0741 12.1487 16.1281 13.5057 16.1514 13.8806Z" fill="#FFDC5D"/>
<path d="M10.6896 0.667148C10.825 0.414966 11.0485 0.0100072 11.8944 0.265525C13.172 0.651803 12.0239 1.3343 12.0239 1.3343C12.0239 1.3343 13.3582 2.00144 13.3582 4.00289C13.3582 6.00433 11.7944 5.58336 11.7944 7.69288L11.5549 8.04914C11.5549 8.04914 11.9845 7.75693 10.6502 9.09122C7.98161 11.7598 6.12561 8.24128 6.37245 7.2539C6.73405 5.80685 6.01953 6.00433 6.01953 4.67003C6.01953 3.33574 7.35383 3.33574 7.35383 2.00144C7.35383 0.667148 8.68812 0 9.35527 0C10.0224 0 10.6896 0.667148 10.6896 0.667148Z" fill="#FFAC33"/>
<path d="M9.77177 5.33687C10.739 5.33687 11.523 4.44079 11.523 3.33543C11.523 2.23006 10.739 1.33398 9.77177 1.33398C8.80457 1.33398 8.02051 2.23006 8.02051 3.33543C8.02051 4.44079 8.80457 5.33687 9.77177 5.33687Z" fill="#FFDC5D"/>
<path d="M9.68881 0.666992C9.07036 0.666992 8.53665 0.871139 8.24911 1.17069C7.51324 1.03192 7.93088 2.18275 7.35379 3.33558C6.68665 4.66988 8.02094 6.00417 8.02094 5.33703C8.02094 4.66988 8.02094 2.66844 9.35524 2.66844H9.68881C10.6101 2.66844 11.3567 2.22078 11.3567 1.66771C11.3567 1.11465 10.6101 0.666992 9.68881 0.666992Z" fill="#FFAC33"/>
<path d="M12.3955 6.21827C11.7417 5.99544 11.2747 6.02013 10.4761 6.00945L10.1879 3.41892C10.1472 3.05265 9.81296 2.78646 9.45136 2.82983C9.0851 2.87052 8.82158 3.20009 8.86227 3.56636L9.13313 6.00545L7.83887 6.03614L7.85354 7.33908C7.85955 7.51387 7.91092 7.73136 8.021 8.00622C8.68815 9.67409 12.0239 9.99766 12.0239 8.3398C12.0239 7.93684 11.9919 7.63262 11.9238 7.40112C12.7277 7.45983 14.1694 6.82271 12.3955 6.21827Z" fill="#FFDC5D"/>
<path d="M8.68762 10.6744C8.68762 12.0087 8.68762 12.6759 7.35332 14.6773C6.01903 16.6787 4.68473 16.6787 4.01758 18.013C3.35044 19.3473 4.01758 19.3473 5.35188 18.6802C6.68618 18.013 6.01903 21.3488 8.02047 21.3488C10.0219 21.3488 9.35477 19.3473 10.6891 19.3473C12.0234 19.3473 12.6905 21.3488 14.0248 21.3488C15.3591 21.3488 15.7467 19.7349 14.6919 18.6802C14.0248 18.013 16.0262 16.6787 16.6934 17.3459C17.7482 18.4007 18.8523 16.8362 17.3605 15.3444C16.6934 14.6773 16.167 13.9401 17.3605 13.343C18.6948 12.6759 19.0284 10.0073 17.3605 10.6744C15.1296 11.5671 12.0234 12.7833 12.0234 10.6744V8.00582C12.0234 8.00582 11.1167 7.76298 10.8285 6.01572L10.7031 6.01172C10.7031 6.01172 10.3288 8.34273 8.82105 6.01706L8.67961 6.01839C8.67961 6.01839 9.25336 7.76365 8.24597 8.53354C8.17858 8.58424 8.68762 9.34012 8.68762 10.6744Z" fill="#DD2E44"/>
<path d="M17.3603 12.5926C16.6117 12.9669 16.5397 13.3965 16.7545 13.8295C16.8606 13.6607 17.0521 13.4973 17.3603 13.3431C18.1949 12.9262 18.6379 11.726 18.4444 11.0488C18.3196 11.6506 17.9334 12.3064 17.3603 12.5926ZM14.0245 20.5984C12.6902 20.5984 12.0231 18.5969 10.6888 18.5969C9.35451 18.5969 10.0217 20.5984 8.02022 20.5984C6.01877 20.5984 6.68592 17.2626 5.35163 17.9298C4.63111 18.2901 4.1154 18.4455 3.88924 18.3114C3.48161 19.3295 4.13075 19.2908 5.35163 18.6803C6.68592 18.0132 6.01877 21.3489 8.02022 21.3489C10.0217 21.3489 9.35451 19.3475 10.6888 19.3475C12.0231 19.3475 12.6902 21.3489 14.0245 21.3489C14.9726 21.3489 15.4296 20.5337 15.2441 19.6837C15.1047 20.2061 14.681 20.5984 14.0245 20.5984ZM16.6931 16.5955C16.026 15.9283 14.0245 17.2626 14.6917 17.9298C14.701 17.9391 14.7057 17.9498 14.7144 17.9591C15.1233 17.3854 16.2295 16.8824 16.6931 17.346C17.4877 18.1406 18.309 17.4488 18.0294 16.422C17.852 16.9651 17.2669 17.1692 16.6931 16.5955Z" fill="#A0041E"/>
<path d="M23.9031 10.4591C23.9031 10.4591 23.6209 10.319 23.3794 10.6719C23.3313 10.7433 23.2913 10.7867 23.2913 10.7867C23.3187 10.8347 23.3093 10.8867 23.2946 10.9314C23.2079 11.1969 22.9798 11.3958 22.5434 11.4585C22.362 11.4845 22.2165 11.5165 22.0871 11.5505L22.0998 11.1469L21.6661 11.1329L21.6475 11.716C21.45 11.8294 21.3873 11.9482 21.3579 12.0369C21.2939 12.2317 21.7288 12.4619 22.0004 12.5513C22.2459 12.632 22.4594 12.668 22.6075 12.6727C22.7709 12.6773 23.3654 12.8228 23.3654 12.8228L23.4241 12.6433C23.4241 12.6433 22.9437 12.4198 22.7796 12.3458C22.6475 12.2857 22.7269 11.9575 22.929 11.9221C23.4661 11.8281 23.5942 11.8714 23.6763 11.6193L23.9751 10.7019C24.0305 10.5365 23.9031 10.4591 23.9031 10.4591Z" fill="#DD2E44"/>
<path d="M8.24962 6.1646C8.18224 6.11256 8.10552 6.07654 8.02279 6.05719C7.91138 6.0305 7.78862 6.03384 7.65786 6.06586C7.39767 6.13058 7.01473 6.2033 6.60911 6.28068C6.05537 6.38609 5.32084 6.59825 5.12203 6.59825C4.92322 6.59825 4.11131 6.33739 3.36477 6.23999C3.11792 6.20796 2.32935 6.12991 2.16123 6.11123C1.93307 6.08588 1.65687 6.05786 1.44538 6.01116C1.34798 5.98981 0.969707 5.8884 0.816263 5.86105C0.525387 5.80901 0.0417045 5.78433 0.0143515 5.84103C-0.103067 6.08654 0.523385 5.99648 1.04042 6.45014C1.34331 6.71566 1.65153 6.70432 1.94441 6.68297C2.17591 6.6663 2.90977 7.06525 3.4962 7.24405C3.91983 7.37347 4.86785 7.59964 5.00395 7.61898C5.14005 7.63833 5.86857 7.58429 6.35359 7.5456C6.84394 7.50757 7.26825 7.47421 7.60716 7.49556C7.93073 7.51624 8.17357 7.44286 8.32968 7.27807C8.52449 7.07192 8.52048 6.78305 8.51515 6.69965C8.49914 6.47349 8.40507 6.28335 8.24962 6.1646ZM15.7203 7.05524C15.6083 6.90247 15.3434 6.6783 14.7783 6.52152C14.34 6.39944 12.1137 6.10189 11.6768 6.04985C11.3378 6.00915 11.5453 7.25672 11.7168 7.36146C11.8269 7.42885 11.9603 7.43485 12.1618 7.45553C12.9777 7.53959 14.2046 7.47421 14.4247 7.4522C14.5201 7.44286 14.5642 7.47755 14.5702 7.53826C14.5281 7.73173 14.3787 7.98458 14.2519 8.27479C14.0398 8.7598 13.8143 9.41828 13.7329 9.49367L13.6589 9.56105C13.4914 9.59174 13.2926 9.67713 13.1151 9.8219C13.0518 9.87327 12.9924 9.93665 12.947 10.0647C12.8843 10.2435 13.0604 10.2642 13.1031 10.1568C13.1211 10.1121 13.1638 10.0347 13.2626 10.0094C13.2592 10.0301 13.2526 10.0474 13.2519 10.0714C13.2506 10.1101 13.2406 10.1421 13.2339 10.1768C13.0818 10.4403 12.7789 10.5458 12.7996 10.6478C12.8042 10.6698 12.8316 10.6712 12.8529 10.6772C12.7502 10.7466 12.6701 10.7946 12.6768 10.848C12.6822 10.8913 12.7302 10.9013 12.7956 10.8953C12.7482 10.9307 12.7175 10.9621 12.7215 10.9947C12.7389 11.1342 13.0924 10.9174 13.2619 10.8486C13.5508 10.7312 13.7196 10.6085 13.9197 10.4243C14.1525 10.2095 14.2653 9.89929 14.366 9.72717C14.4401 9.60041 15.3274 8.52163 15.5242 8.16071C15.8144 7.62832 15.8324 7.20802 15.7203 7.05524Z" fill="#FFDC5D"/>
</svg>
