<svg width="23" height="26" viewBox="0 0 23 26" fill="none" xmlns="http://www.w3.org/2000/svg">
<path fill-rule="evenodd" clip-rule="evenodd" d="M21.0521 17.5761C22.7615 21.1321 18.6255 23.4788 18.6255 23.4788L14.5895 17.1348L18.5281 12.4108C19.3775 14.1321 20.3041 16.0414 21.0521 17.5881V17.5761ZM10.4561 18.6268C10.8788 19.6081 11.2215 20.6228 11.4761 21.6601C12.2215 24.6948 9.43481 25.3428 9.43481 25.3428L6.32948 20.1881L0.876146 18.6521C0.876146 18.6521 1.36148 15.7174 3.80148 15.8228C4.79615 15.8641 5.89748 15.9681 6.85081 16.0788C7.56281 15.0054 8.48948 13.5974 9.48415 12.1321L0.382812 9.00944C0.382812 9.00944 0.934813 4.52544 5.65081 5.54411C7.63481 5.97077 10.6828 6.57477 12.9908 7.02411C13.7761 5.92144 14.4788 4.95877 15.0175 4.28811C17.2468 1.52678 20.7561 -0.657227 21.9868 0.326773C23.2175 1.31211 22.2108 5.35211 19.9735 8.14678C18.3495 10.1988 13.1441 15.7708 10.4561 18.6268Z" fill="black"/>
</svg>
