<svg width="17" height="13" viewBox="0 0 17 13" fill="none" xmlns="http://www.w3.org/2000/svg">
<path d="M1.74005 5.55987C1.74005 5.55987 1.60007 4.1199 1.57007 3.0299C1.54007 1.7299 2.18007 1.41988 3.32007 1.25988C6.16007 0.849883 10.95 0.829887 13.8 1.38989C14.47 1.51989 15.0201 1.96985 15.0101 3.03985C15.0001 4.14985 14.92 5.43988 14.92 5.43988L13.61 5.45989C13.39 4.69989 13.56 3.40988 13.73 2.94989L13.5601 2.85986C13.2401 3.30986 9.83005 3.34984 9.18005 2.96984L9.05005 3.03985C9.31005 3.46985 9.42003 4.76986 9.22003 5.48986L7.73004 5.49987C7.54004 4.73987 7.60009 3.56989 7.84009 3.13989L7.67004 2.90985C7.35004 3.23985 3.76006 3.34984 3.19006 2.96984L3.02008 3.12988C3.31008 3.57988 3.34008 4.73985 3.21008 5.53985L1.74005 5.55987ZM15.05 6.3999C11.45 6.3999 5.91007 6.36987 2.07007 6.36987C0.920068 6.36987 0.290068 6.83989 0.320068 8.13989C0.330068 8.42989 0.330048 8.88986 0.330048 9.41986L16.23 9.36987C16.24 8.80987 16.2501 8.32985 16.2501 8.03985C16.2701 6.97985 15.73 6.3999 15.05 6.3999ZM0.310059 12.9299H1.25006L1.99005 11.2599L14.72 11.2699L15.2801 12.9199H16.1401C16.1401 12.9199 16.1701 11.5498 16.2001 10.2198L0.320068 10.0699C0.330068 11.4399 0.310059 12.9299 0.310059 12.9299Z" fill="#51D2DA"/>
</svg>
