<svg width="31" height="30" viewBox="0 0 31 30" fill="none" xmlns="http://www.w3.org/2000/svg">
<g clip-path="url(#clip0_1379_55637)">
<path fill-rule="evenodd" clip-rule="evenodd" d="M16.3801 30C-4.61552 30 -3.66751 0 16.0403 0C35.6801 0 35.5646 30 16.3801 30ZM26.4106 14.3425L20.9332 11.8247L20.4643 5.19878L24.5724 5.06626C22.4963 3.20082 19.6488 2.00816 16.0199 2.00816C15.7039 2.00816 15.3947 2.00815 15.0923 2.03874L16.747 4.0265L11.4021 7.9069L5.45924 7.13558C4.52059 8.45663 3.82979 9.93724 3.4205 11.5053L5.61214 16.6021L3.5734 19.2695C4.3536 21.8716 5.99356 24.1321 8.22512 25.6813L11.1201 25.209L13.3457 27.7234C14.3242 27.8934 15.3156 27.9775 16.3087 27.9749C17.6794 27.9847 19.0437 27.7876 20.3556 27.3904L20.6954 22.3445L26.3121 18.2671L27.7732 20.35C28.8389 17.5742 29.0438 14.5418 28.361 11.648L26.4106 14.3425ZM7.17177 16.8162L11.589 10.7645L18.8673 13.1431V20.8223L11.8337 23.0309L7.17177 16.8162Z" fill="#0E1825"/>
</g>
<defs>
<clipPath id="clip0_1379_55637">
<rect width="29.8239" height="30" fill="white" transform="translate(0.945557)"/>
</clipPath>
</defs>
</svg>
