<svg width="196" height="150" viewBox="0 0 196 150" fill="none" xmlns="http://www.w3.org/2000/svg">
<path d="M163.825 17.2196C146.843 0.924147 122.657 5.39687 109.368 17.7174C99.6582 26.7334 84.3623 39.8066 72.52 39.2382C60.7796 38.6698 47.3575 30.528 32.7712 36.8C18.377 42.9779 14.4452 63.4129 20.9524 79.038C27.4831 94.718 51.3128 107.462 80.1444 119.347C90.7362 123.784 102.123 126.009 113.606 125.886C113.606 125.886 139.705 125.615 149.513 119.34C157.192 114.416 160.481 111.182 168.783 98.6497C175.055 89.1633 179.258 75.8275 179.728 62.9072C180.32 47.1213 176.51 29.3951 163.825 17.2196Z" fill="#51D2DA"/>
<path opacity="0.8" d="M163.825 17.2196C146.843 0.924147 122.657 5.39687 109.368 17.7174C99.6582 26.7334 84.3623 39.8066 72.52 39.2382C60.7796 38.6698 47.3575 30.528 32.7712 36.8C18.377 42.9779 14.4452 63.4129 20.9524 79.038C27.4831 94.718 51.3128 107.462 80.1444 119.347C90.7362 123.784 102.123 126.009 113.606 125.886C113.606 125.886 139.705 125.615 149.513 119.34C157.192 114.416 160.481 111.182 168.783 98.6497C175.055 89.1633 179.258 75.8275 179.728 62.9072C180.32 47.1213 176.51 29.3951 163.825 17.2196Z" fill="white"/>
<path d="M95.4167 139.841C135.934 139.841 168.779 137.888 168.779 135.478C168.779 133.069 135.934 131.115 95.4167 131.115C54.8995 131.115 22.0539 133.069 22.0539 135.478C22.0539 137.888 54.8995 139.841 95.4167 139.841Z" fill="#51D2DA"/>
<path opacity="0.6" d="M95.4167 139.841C135.934 139.841 168.779 137.888 168.779 135.478C168.779 133.069 135.934 131.115 95.4167 131.115C54.8995 131.115 22.0539 133.069 22.0539 135.478C22.0539 137.888 54.8995 139.841 95.4167 139.841Z" fill="white"/>
<path d="M35.4995 43.0367H157.666C158.754 43.0367 159.797 43.4687 160.566 44.2377C161.335 45.0067 161.767 46.0496 161.767 47.1371V127.654H31.4031V47.1371C31.4031 46.0503 31.8346 45.0079 32.6027 44.2391C33.3708 43.4702 34.4127 43.0378 35.4995 43.0367Z" fill="#51D2DA" stroke="#0E1825" stroke-width="0.920603" stroke-miterlimit="10"/>
<path d="M156.479 49.6498H36.6912V117.344H156.479V49.6498Z" fill="white"/>
<g style="mix-blend-mode:multiply" opacity="0.4">
<path d="M156.479 117.344V59.5596L57.3928 117.344H156.479Z" fill="#51D2DA"/>
</g>
<path d="M156.479 49.6498H36.6912V117.344H156.479V49.6498Z" stroke="#0E1825" stroke-width="0.690452" stroke-miterlimit="10"/>
<path d="M141.677 123.581H52.0851V127.995H141.677V123.581Z" fill="#51D2DA" stroke="#0E1825" stroke-width="0.691688" stroke-miterlimit="10"/>
<path d="M141.677 125.71H52.0851V127.999H141.677V125.71Z" fill="#51D2DA" stroke="#0E1825" stroke-width="0.691688" stroke-miterlimit="10"/>
<path d="M20.8583 130.614C20.8583 130.614 22.3323 132.413 26.7383 133.883H167.019C167.019 133.883 170.289 133.064 171.763 130.774L20.8583 130.614Z" fill="#51D2DA" stroke="#0E1825" stroke-width="0.920603" stroke-miterlimit="10"/>
<path d="M171.022 127.391H21.6188C21.0343 127.391 20.5604 127.865 20.5604 128.45V129.771C20.5604 130.355 21.0343 130.829 21.6188 130.829H171.022C171.606 130.829 172.08 130.355 172.08 129.771V128.45C172.08 127.865 171.606 127.391 171.022 127.391Z" fill="#51D2DA" stroke="#0E1825" stroke-width="0.920603" stroke-miterlimit="10"/>
<path d="M96.5575 46.7412C97.1897 46.7412 97.7021 46.2287 97.7021 45.5965C97.7021 44.9644 97.1897 44.4519 96.5575 44.4519C95.9253 44.4519 95.4128 44.9644 95.4128 45.5965C95.4128 46.2287 95.9253 46.7412 96.5575 46.7412Z" fill="#0E1825"/>
<path d="M81.4341 44.4519H52.8181C52.743 44.4519 52.6685 44.4371 52.5991 44.4083C52.5297 44.3796 52.4666 44.3374 52.4134 44.2843C52.3603 44.2311 52.3181 44.168 52.2894 44.0986C52.2606 44.0291 52.2458 43.9547 52.2458 43.8796C52.2458 43.8044 52.2606 43.73 52.2894 43.6606C52.3181 43.5911 52.3603 43.528 52.4134 43.4749C52.4666 43.4217 52.5297 43.3796 52.5991 43.3508C52.6685 43.3221 52.743 43.3073 52.8181 43.3073H81.4341C81.5856 43.3083 81.7306 43.3689 81.8377 43.476C81.9448 43.5831 82.0054 43.7281 82.0064 43.8796C82.0064 44.0314 81.9461 44.1769 81.8388 44.2843C81.7315 44.3916 81.5859 44.4519 81.4341 44.4519Z" fill="#51D2DA" stroke="#0E1825" stroke-width="0.691688" stroke-miterlimit="10"/>
<path d="M139.799 44.4519H111.183C111.031 44.4519 110.886 44.3916 110.778 44.2843C110.671 44.1769 110.611 44.0314 110.611 43.8796C110.612 43.7281 110.672 43.5831 110.779 43.476C110.887 43.3689 111.032 43.3083 111.183 43.3073H139.799C139.951 43.3073 140.096 43.3675 140.204 43.4749C140.311 43.5822 140.371 43.7278 140.371 43.8796C140.371 44.0314 140.311 44.1769 140.204 44.2843C140.096 44.3916 139.951 44.4519 139.799 44.4519Z" fill="#51D2DA" stroke="#0E1825" stroke-width="0.691688" stroke-miterlimit="10"/>
<path d="M160.646 66.8507C160.559 66.8507 160.476 66.8166 160.414 66.7557C160.352 66.6948 160.317 66.612 160.316 66.5254V57.0429C160.317 56.9559 160.352 56.8727 160.414 56.8112C160.475 56.7497 160.559 56.7146 160.646 56.7136C160.732 56.7147 160.815 56.7498 160.876 56.8114C160.937 56.8731 160.971 56.9562 160.971 57.0429V66.5254C160.971 66.6117 160.937 66.6944 160.876 66.7554C160.815 66.8165 160.732 66.8507 160.646 66.8507Z" fill="#51D2DA" stroke="#0E1825" stroke-width="0.691688" stroke-miterlimit="10"/>
<path d="M32.6301 66.8507C32.5874 66.8507 32.5451 66.8423 32.5056 66.826C32.4661 66.8096 32.4303 66.7857 32.4 66.7554C32.3698 66.7252 32.3459 66.6894 32.3295 66.6499C32.3132 66.6104 32.3047 66.5681 32.3047 66.5254V57.0429C32.3047 56.9562 32.3389 56.8731 32.3998 56.8114C32.4607 56.7498 32.5435 56.7147 32.6301 56.7136C32.7171 56.7146 32.8003 56.7497 32.8618 56.8112C32.9234 56.8727 32.9584 56.9559 32.9594 57.0429V66.5254C32.9584 66.612 32.9232 66.6948 32.8616 66.7557C32.7999 66.8166 32.7168 66.8507 32.6301 66.8507Z" fill="#51D2DA" stroke="#0E1825" stroke-width="0.691688" stroke-miterlimit="10"/>
<path d="M122.23 69.336C122.786 68.944 123.386 68.2463 123.406 67.5093C123.413 67.3366 123.384 67.1643 123.321 67.0035C123.258 66.8426 123.161 66.6968 123.039 66.5753C122.916 66.4538 122.769 66.3594 122.607 66.2982C122.445 66.2369 122.273 66.2102 122.1 66.2196C121.061 66.3137 120.14 67.9444 119.921 68.8499C119.921 68.9283 119.764 70.1867 119.783 70.1827C119.803 70.1788 121.571 69.8025 122.23 69.336Z" fill="#0E1825"/>
<path d="M113.257 88.9909C113.232 88.8511 113.178 88.7181 113.097 88.6008C113.017 88.4834 112.913 88.3845 112.792 88.3104C112.671 88.2362 112.536 88.1887 112.395 88.1709C112.254 88.153 112.111 88.1653 111.975 88.2069C111.191 88.4774 110.748 89.9474 110.76 90.7078C110.76 90.7549 110.834 91.3272 110.877 91.6173C110.787 91.3939 110.701 91.1665 110.611 90.9313C110.481 90.5903 110.356 90.2296 110.219 89.8768L110.042 89.3163C109.98 89.1281 109.94 88.9243 109.889 88.7518C109.819 88.4695 109.76 88.1755 109.701 87.8815C110.338 87.7046 110.944 87.4296 111.497 87.0662C111.924 86.6742 112.359 86.0979 112.316 85.4982C112.311 85.3572 112.276 85.219 112.214 85.0924C112.152 84.9658 112.064 84.8537 111.955 84.7634C111.847 84.6732 111.721 84.6068 111.585 84.5686C111.449 84.5304 111.307 84.5212 111.167 84.5417C110.332 84.6907 109.689 86.0783 109.599 86.831C109.599 86.8545 109.599 87.0152 109.599 87.223C109.552 86.9329 109.501 86.6467 109.462 86.3527C109.344 85.5217 109.254 84.6711 109.16 83.8204C109.141 83.6401 109.117 83.4637 109.098 83.2873C109.753 83.1035 110.376 82.8221 110.948 82.4523C111.375 82.0603 111.81 81.4841 111.767 80.8843C111.761 80.7436 111.726 80.6056 111.664 80.4793C111.601 80.353 111.513 80.2412 111.405 80.1511C111.297 80.061 111.171 79.9945 111.035 79.9561C110.9 79.9176 110.758 79.908 110.618 79.9278C109.784 80.0768 109.141 81.4645 109.05 82.2171C109.05 82.2446 109.05 82.4366 109.05 82.6483C108.992 82.1897 108.929 81.7271 108.851 81.2724C108.722 80.4918 108.543 79.7205 108.314 78.9635C108.419 78.9322 109.74 78.5323 110.223 78.1129C110.646 77.7209 111.085 77.1447 111.038 76.5449C111.033 76.404 110.998 76.2657 110.936 76.1391C110.874 76.0125 110.786 75.9004 110.677 75.8102C110.569 75.7199 110.443 75.6535 110.307 75.6153C110.171 75.5771 110.029 75.5679 109.889 75.5884C109.054 75.7374 108.412 77.125 108.321 77.8777C108.321 77.9286 108.298 78.6264 108.302 78.8734C108.3 78.8643 108.3 78.855 108.302 78.8459C108.055 78.1092 107.745 77.3956 107.373 76.7135C107.045 76.1018 106.681 75.5101 106.283 74.9416C105.918 74.4085 105.554 73.9459 105.225 73.5383C105.048 73.3187 104.88 73.1188 104.723 72.9385C104.723 72.9385 104.441 71.9546 104.413 71.8919C104.111 71.198 103.12 70.0338 102.273 70.12C102.133 70.1376 101.999 70.1844 101.879 70.2575C101.758 70.3306 101.655 70.4282 101.575 70.544C101.495 70.6599 101.44 70.7912 101.415 70.9296C101.389 71.068 101.393 71.2102 101.426 71.347C101.544 71.935 102.124 72.3858 102.637 72.6327C103.29 72.8381 103.972 72.9399 104.656 72.9346C104.817 73.1306 104.985 73.3266 105.166 73.5696C105.483 73.9851 105.84 74.4555 106.189 74.9926C106.283 75.1376 106.377 75.2944 106.471 75.4434C106.259 75.2239 105.965 74.922 105.93 74.8985C105.342 74.4203 103.927 73.844 103.218 74.3066C103.102 74.3871 103.004 74.4911 102.931 74.6119C102.857 74.7326 102.81 74.8674 102.793 75.0075C102.775 75.1476 102.787 75.2899 102.828 75.425C102.868 75.5602 102.937 75.6853 103.029 75.7923C103.243 76.0033 103.5 76.166 103.782 76.2694C104.064 76.3729 104.364 76.4147 104.664 76.392C105.252 76.392 106.365 75.8432 106.624 75.7256C106.832 76.0627 107.016 76.4155 107.224 76.7958C107.576 77.4768 107.867 78.1878 108.094 78.9204C108.094 78.9635 108.094 79.0106 108.125 79.0537C108.039 78.9243 107.518 78.2697 107.475 78.2187C106.942 77.6778 105.597 76.9486 104.84 77.3328C104.716 77.3998 104.607 77.4923 104.521 77.6041C104.435 77.716 104.374 77.8447 104.341 77.982C104.308 78.1192 104.304 78.2619 104.33 78.4006C104.356 78.5394 104.411 78.6711 104.492 78.7871C104.813 79.2889 105.519 79.5045 106.083 79.5476C106.734 79.5986 108.082 79.1007 108.133 79.0811C108.338 79.819 108.495 80.5692 108.604 81.3273C108.686 81.8879 108.749 82.4563 108.804 83.0325C108.69 82.8679 108.2 82.2485 108.161 82.2093C107.628 81.6683 106.283 80.9431 105.526 81.3234C105.402 81.3904 105.293 81.4828 105.207 81.5947C105.121 81.7065 105.06 81.8353 105.027 81.9725C104.994 82.1098 104.99 82.2524 105.016 82.3912C105.042 82.5299 105.097 82.6616 105.178 82.7777C105.499 83.2834 106.205 83.4951 106.769 83.5382C107.404 83.5891 108.698 83.1187 108.807 83.0795C108.835 83.3383 108.858 83.6009 108.882 83.8635C108.96 84.7181 109.031 85.5727 109.129 86.4155C109.164 86.7055 109.207 86.9917 109.25 87.2778C109.07 87.0387 108.729 86.6115 108.698 86.5762C108.165 86.0391 106.82 85.31 106.063 85.6942C105.939 85.7604 105.83 85.8522 105.744 85.9636C105.657 86.0749 105.595 86.2033 105.562 86.3403C105.529 86.4773 105.525 86.6197 105.55 86.7583C105.576 86.8969 105.631 87.0286 105.711 87.1446C106.036 87.6502 106.742 87.8619 107.306 87.9051C107.978 87.8619 108.639 87.7151 109.266 87.4699C109.341 87.9482 109.423 88.4186 109.529 88.8772C109.58 89.0771 109.619 89.2692 109.678 89.4652C109.736 89.6612 109.784 89.8572 109.838 90.0297C109.964 90.4217 110.078 90.7627 110.203 91.1155C110.266 91.2919 110.328 91.4566 110.391 91.629C110.246 91.3586 109.999 90.9352 109.976 90.8999C109.533 90.2884 108.314 89.3633 107.506 89.6259C107.373 89.6734 107.252 89.7484 107.15 89.8458C107.048 89.9433 106.968 90.0612 106.915 90.1918C106.862 90.3223 106.836 90.4627 106.841 90.6036C106.846 90.7445 106.88 90.8829 106.942 91.0097C107.185 91.5585 107.851 91.876 108.4 92.0054C108.949 92.1347 110.317 91.8917 110.473 91.8603C110.63 92.2798 110.787 92.6875 110.936 93.0677C111.418 94.2672 111.861 95.2472 112.183 95.9293C112.504 96.6114 112.704 96.9955 112.704 96.9955C112.741 97.0622 112.803 97.1118 112.876 97.1337C112.949 97.1557 113.028 97.1483 113.096 97.1131C113.162 97.0752 113.211 97.0134 113.233 96.9405C113.255 96.8676 113.248 96.7891 113.214 96.7211C113.214 96.7211 113.014 96.3526 112.68 95.6823C112.347 95.012 111.896 94.0555 111.387 92.8795C111.242 92.5385 111.093 92.1779 110.944 91.8055C111.097 91.731 112.292 91.1547 112.692 90.6765C113.092 90.1983 113.39 89.575 113.257 88.9909Z" fill="#0E1825"/>
<path d="M106.624 75.561C106.624 75.561 107.89 74.777 108.255 74.2243C108.568 73.75 108.831 73.0483 108.647 72.4995C108.604 72.3653 108.534 72.2415 108.44 72.1363C108.347 72.031 108.232 71.9466 108.104 71.8885C107.976 71.8305 107.836 71.8001 107.696 71.7993C107.555 71.7986 107.415 71.8274 107.286 71.8841C106.502 72.2447 106.267 73.7539 106.365 74.5066C106.365 74.5693 106.624 75.5689 106.624 75.561Z" fill="#0E1825"/>
<path d="M125.918 69.336C126.573 69.8221 128.368 70.1827 128.368 70.1827C128.368 70.1827 128.251 68.9283 128.231 68.8499C128.023 67.9444 127.094 66.3137 126.055 66.2196C125.883 66.2096 125.71 66.2359 125.548 66.2969C125.386 66.358 125.239 66.4523 125.116 66.5739C124.993 66.6955 124.896 66.8416 124.833 67.0028C124.77 67.1639 124.742 67.3365 124.75 67.5093C124.758 68.2267 125.358 68.9048 125.918 69.336Z" fill="#0E1825"/>
<path d="M133.366 86.7213C132.327 86.7644 131.312 88.3441 131.061 89.2418C131.061 89.2928 130.951 89.8847 130.897 90.261C130.897 90.0337 130.897 89.8181 130.897 89.5868C130.897 89.1281 130.873 88.6695 130.853 88.1795C130.853 87.9443 130.822 87.7052 130.803 87.4621C130.783 87.2191 130.748 86.9682 130.72 86.7213C130.646 86.145 130.544 85.5688 130.426 84.9847C130.818 84.9847 132.253 84.9416 132.884 84.6515C133.515 84.3614 134.236 83.8126 134.393 83.0835C134.437 82.9158 134.445 82.7408 134.416 82.57C134.387 82.3991 134.322 82.2363 134.226 82.0922C134.13 81.9482 134.004 81.8261 133.857 81.7341C133.71 81.6422 133.546 81.5824 133.374 81.5586C132.339 81.4371 131.097 82.8483 130.712 83.6989C130.689 83.7499 130.481 84.3889 130.375 84.7417C130.301 84.3928 130.23 84.0439 130.148 83.695C129.901 82.6837 129.619 81.6684 129.344 80.6531C129.258 80.3434 129.18 80.0298 129.097 79.7201C129.321 79.7201 130.951 79.7201 131.641 79.383C132.331 79.0459 132.994 78.5441 133.151 77.815C133.194 77.6474 133.201 77.4725 133.172 77.3019C133.143 77.1313 133.078 76.9687 132.982 76.8248C132.886 76.6809 132.76 76.5589 132.614 76.4668C132.467 76.3747 132.303 76.3145 132.131 76.2901C131.097 76.1725 129.858 77.5837 129.474 78.4305C129.442 78.4932 129.144 79.4144 129.082 79.6535C128.901 78.9675 128.729 78.2854 128.588 77.6033C128.392 76.6868 128.258 75.7583 128.184 74.8241C128.305 74.8241 130.03 74.8241 130.744 74.4869C131.375 74.1969 132.096 73.6481 132.257 72.9189C132.299 72.751 132.306 72.5761 132.276 72.4055C132.247 72.2348 132.182 72.0724 132.085 71.9285C131.989 71.7847 131.863 71.6628 131.716 71.5708C131.57 71.4787 131.405 71.4185 131.234 71.3941C130.199 71.2765 128.96 72.6877 128.576 73.5344C128.545 73.601 128.227 74.5928 128.184 74.7731C128.184 74.7221 128.184 74.6633 128.184 74.6085C128.132 73.668 128.163 72.7248 128.278 71.79C128.337 71.2725 128.419 70.7786 128.513 70.3043C128.85 70.3396 130.348 70.4729 131.034 70.2416C131.72 70.0103 132.472 69.5595 132.708 68.8617C132.768 68.6998 132.794 68.5269 132.783 68.3544C132.773 68.1818 132.726 68.0134 132.646 67.8601C132.566 67.7067 132.455 67.5718 132.32 67.4641C132.185 67.3565 132.028 67.2784 131.861 67.2349C130.842 67.0037 129.454 68.2698 128.98 69.0695C128.956 69.1126 128.741 69.583 128.588 69.9319C128.631 69.7163 128.674 69.4929 128.721 69.289C128.897 68.505 129.113 67.8269 129.293 67.2153C129.403 66.8704 129.509 66.5568 129.611 66.2667C129.952 66.1295 131.316 65.5689 131.81 65.0554C132.304 64.5419 132.77 63.7853 132.657 63.0601C132.636 62.8882 132.58 62.7224 132.491 62.5738C132.403 62.4251 132.283 62.2968 132.142 62.1972C132 62.0977 131.839 62.0292 131.669 61.9962C131.499 61.9632 131.324 61.9664 131.155 62.0057C130.148 62.2683 129.501 64.0323 129.446 64.9613C129.446 65.0397 129.517 66.3059 129.532 66.2981H129.552C129.45 66.5764 129.34 66.8743 129.227 67.2036C129.027 67.8112 128.803 68.5011 128.611 69.2694C128.394 70.0938 128.225 70.9302 128.106 71.7743C127.969 72.719 127.916 73.674 127.949 74.6281V74.6633C127.847 74.3772 127.533 73.5814 127.502 73.5265C127.063 72.7033 125.73 71.3784 124.707 71.5665C124.478 71.6076 124.267 71.7185 124.103 71.8841C123.94 71.7177 123.729 71.6066 123.5 71.5665C122.476 71.3823 121.148 72.7073 120.709 73.5265C120.677 73.5814 120.36 74.3772 120.258 74.6633C120.258 74.6633 120.258 74.6398 120.258 74.6281C120.289 73.6739 120.235 72.7189 120.097 71.7743C119.977 70.9306 119.809 70.0944 119.595 69.2694C119.403 68.4854 119.18 67.8112 118.976 67.2036C118.862 66.8743 118.756 66.5764 118.651 66.2981H118.67C118.67 66.2981 118.76 65.0397 118.756 64.9613C118.705 64.0323 118.055 62.2683 117.047 62.0057C116.879 61.9664 116.704 61.9632 116.534 61.9962C116.364 62.0292 116.203 62.0977 116.061 62.1972C115.919 62.2968 115.8 62.4251 115.711 62.5738C115.623 62.7224 115.566 62.8882 115.546 63.0601C115.432 63.7853 115.91 64.5576 116.393 65.0554C116.875 65.5533 118.251 66.1295 118.592 66.2667C118.694 66.5568 118.799 66.8704 118.913 67.2153C119.101 67.8269 119.305 68.5207 119.482 69.289C119.529 69.4929 119.572 69.7163 119.619 69.9319C119.466 69.583 119.254 69.1126 119.227 69.0695C118.752 68.2855 117.365 67.0037 116.349 67.2349C116.182 67.2778 116.025 67.3556 115.89 67.4631C115.754 67.5707 115.643 67.7056 115.563 67.8592C115.483 68.0127 115.436 68.1813 115.426 68.3541C115.415 68.5268 115.442 68.6998 115.503 68.8617C115.738 69.5595 116.514 70.0377 117.173 70.2416C117.831 70.4454 119.356 70.3396 119.697 70.3043C119.787 70.7786 119.87 71.2725 119.928 71.79C120.045 72.7247 120.078 73.6679 120.026 74.6085C120.026 74.6633 120.026 74.7221 120.007 74.7731C119.964 74.5928 119.642 73.5971 119.615 73.5344C119.223 72.6877 117.988 71.2765 116.953 71.3941C116.782 71.4184 116.617 71.4786 116.471 71.5707C116.324 71.6628 116.199 71.7848 116.103 71.9287C116.007 72.0726 115.942 72.2352 115.913 72.4058C115.884 72.5765 115.891 72.7513 115.934 72.9189C116.091 73.6363 116.812 74.1851 117.443 74.4869C118.157 74.8162 119.881 74.8241 120.003 74.8241C119.925 75.7609 119.788 76.6919 119.591 77.6112C119.446 78.2933 119.274 78.9753 119.093 79.6613C119.031 79.4222 118.733 78.4853 118.701 78.4383C118.309 77.5916 117.075 76.1804 116.04 76.298C115.868 76.3223 115.704 76.3825 115.558 76.4746C115.411 76.5668 115.286 76.6888 115.189 76.8327C115.093 76.9766 115.029 77.1391 114.999 77.3098C114.97 77.4804 114.978 77.6552 115.021 77.8229C115.177 78.5402 115.899 79.089 116.53 79.3909C117.22 79.7084 118.854 79.728 119.074 79.728C118.992 80.0377 118.913 80.3513 118.827 80.6609C118.553 81.6762 118.27 82.6915 118.043 83.7029C117.957 84.0517 117.886 84.4006 117.812 84.7495C117.706 84.3967 117.498 83.7577 117.475 83.7068C117.083 82.8561 115.848 81.4449 114.813 81.5665C114.641 81.5908 114.477 81.651 114.331 81.7431C114.184 81.8352 114.059 81.9572 113.962 82.1011C113.866 82.245 113.802 82.4076 113.772 82.5782C113.743 82.7489 113.751 82.9237 113.794 83.0913C113.95 83.8087 114.672 84.3536 115.303 84.6593C115.934 84.9651 117.353 84.9886 117.761 84.9925C117.643 85.5766 117.541 86.1685 117.467 86.7291C117.439 86.9761 117.396 87.2309 117.384 87.47C117.373 87.7091 117.349 87.9521 117.333 88.1873C117.314 88.6773 117.298 89.136 117.294 89.5946C117.294 89.8259 117.294 90.0415 117.294 90.2689C117.239 89.8769 117.141 89.3006 117.126 89.2497C116.875 88.352 115.863 86.7722 114.821 86.7291C114.648 86.7278 114.477 86.7627 114.318 86.8318C114.16 86.9008 114.017 87.0024 113.901 87.1298C113.784 87.2573 113.695 87.4079 113.64 87.5718C113.585 87.7358 113.566 87.9094 113.582 88.0815C113.629 88.8185 114.26 89.4653 114.84 89.8494C115.42 90.2336 117.035 90.5276 117.29 90.5668C117.29 91.1195 117.29 91.6526 117.29 92.1544C117.333 93.742 117.427 95.0591 117.506 95.9842C117.584 96.9093 117.651 97.4346 117.651 97.4346C117.673 97.5233 117.728 97.6005 117.804 97.6512C117.88 97.7018 117.973 97.7223 118.063 97.7086C118.154 97.6949 118.236 97.648 118.294 97.5771C118.352 97.5062 118.381 97.4162 118.376 97.3249C118.376 97.3249 118.302 96.8153 118.204 95.9019C118.106 94.9885 117.984 93.6871 117.906 92.1191C117.886 91.6683 117.867 91.1861 117.855 90.6922C118.113 90.6687 119.701 90.508 120.348 90.1395C120.995 89.771 121.626 89.1869 121.72 88.4578C121.748 88.2871 121.739 88.1124 121.695 87.9451C121.651 87.7779 121.572 87.6217 121.464 87.4868C121.356 87.3519 121.22 87.2413 121.067 87.1621C120.913 87.0829 120.744 87.0369 120.571 87.027C119.529 86.9996 118.415 88.5127 118.106 89.379C118.086 89.4339 117.925 90.1238 117.855 90.4766C117.855 90.1787 117.855 89.8847 117.855 89.5711C117.855 89.1281 117.855 88.6538 117.855 88.1952C117.855 87.96 117.882 87.7209 117.894 87.4778C117.906 87.2348 117.937 86.9996 117.957 86.7605C117.996 86.4037 118.051 86.0431 118.11 85.6785C118.576 85.7021 119.905 85.7413 120.528 85.5021C121.151 85.263 121.935 84.7534 122.135 84.0478C122.189 83.8834 122.208 83.7095 122.19 83.5374C122.172 83.3653 122.118 83.1989 122.031 83.0491C121.945 82.8993 121.828 82.7695 121.688 82.668C121.547 82.5665 121.387 82.4957 121.218 82.4602C120.195 82.2721 118.866 83.6009 118.423 84.4202L118.251 84.8475C118.313 84.4947 118.38 84.1419 118.458 83.7891C118.678 82.7817 118.937 81.7625 119.191 80.7393L119.344 80.1004C119.736 80.12 121.179 80.1788 121.834 79.9279C122.488 79.677 123.241 79.1792 123.445 78.4736C123.498 78.3089 123.516 78.1348 123.497 77.9627C123.479 77.7907 123.424 77.6244 123.338 77.4747C123.251 77.325 123.133 77.1952 122.993 77.0938C122.853 76.9924 122.693 76.9216 122.523 76.886C121.5 76.6978 120.171 78.0267 119.729 78.846C119.729 78.8773 119.627 79.0929 119.529 79.3399C119.658 78.7833 119.779 78.2266 119.885 77.67C120.071 76.7163 120.192 75.751 120.246 74.7809C120.465 74.7809 122.1 74.8829 122.81 74.6085C123.307 74.4263 123.752 74.1232 124.103 73.7265C124.455 74.1232 124.899 74.4263 125.397 74.6085C126.106 74.8829 127.749 74.7927 127.961 74.7809C128.017 75.7509 128.137 76.716 128.321 77.67C128.427 78.2266 128.549 78.7833 128.678 79.3399C128.58 79.0929 128.494 78.8773 128.478 78.846C128.039 78.0267 126.71 76.6978 125.683 76.886C125.514 76.9215 125.354 76.9923 125.214 77.0937C125.073 77.1952 124.956 77.3251 124.87 77.4749C124.783 77.6247 124.729 77.7911 124.711 77.9631C124.693 78.1352 124.712 78.3092 124.766 78.4736C124.97 79.1792 125.726 79.677 126.373 79.9279C127.02 80.1788 128.478 80.12 128.862 80.1004C128.913 80.316 128.964 80.5277 129.019 80.7393C129.27 81.7625 129.529 82.7817 129.752 83.7891C129.83 84.1419 129.893 84.4947 129.96 84.8475C129.873 84.6319 129.799 84.4555 129.783 84.4202C129.344 83.6009 128.015 82.2721 126.988 82.4602C126.819 82.4957 126.659 82.5665 126.519 82.668C126.379 82.7695 126.262 82.8993 126.175 83.0491C126.089 83.1989 126.035 83.3653 126.017 83.5374C125.999 83.7095 126.017 83.8834 126.071 84.0478C126.275 84.7534 127.031 85.2513 127.678 85.5021C128.325 85.753 129.638 85.7021 130.101 85.6785C130.156 86.0431 130.215 86.4037 130.25 86.7605C130.273 86.9996 130.309 87.2309 130.316 87.4778C130.324 87.7248 130.34 87.96 130.352 88.1952C130.352 88.6538 130.352 89.1281 130.352 89.5711C130.352 89.8847 130.352 90.1787 130.352 90.4766C130.277 90.1238 130.117 89.4339 130.097 89.379C129.787 88.5009 128.674 86.9878 127.631 87.027C127.459 87.0369 127.29 87.0829 127.136 87.1621C126.982 87.2413 126.847 87.3519 126.739 87.4868C126.63 87.6217 126.552 87.7779 126.507 87.9451C126.463 88.1124 126.455 88.2871 126.483 88.4578C126.577 89.1869 127.267 89.7945 127.855 90.1395C128.443 90.4845 130.089 90.6687 130.348 90.6922C130.348 91.1861 130.32 91.6683 130.297 92.1191C130.222 93.6871 130.101 94.9925 130.003 95.9019C129.905 96.8113 129.826 97.3249 129.826 97.3249C129.822 97.4162 129.851 97.5062 129.909 97.5771C129.967 97.648 130.049 97.6949 130.139 97.7086C130.23 97.7223 130.322 97.7018 130.398 97.6512C130.475 97.6005 130.529 97.5233 130.552 97.4346C130.552 97.4346 130.618 96.9054 130.701 95.9842C130.783 95.063 130.873 93.742 130.912 92.1544C130.912 91.6526 130.932 91.1195 130.932 90.5668C131.187 90.5276 132.759 90.2649 133.386 89.8494C134.013 89.4339 134.597 88.8185 134.64 88.0815C134.658 87.9058 134.638 87.7282 134.582 87.5608C134.526 87.3934 134.434 87.2401 134.313 87.1111C134.192 86.9822 134.045 86.8807 133.882 86.8134C133.719 86.7461 133.543 86.7147 133.366 86.7213Z" fill="#0E1825"/>
<path d="M39.6664 106.666C39.6664 106.666 39.7331 109.328 40.1839 110.755C40.5116 111.731 40.9044 112.685 41.3599 113.608C41.3599 113.608 39.6743 114.518 38.8942 114.585C38.1141 114.651 37.0792 111.143 37.0792 108.744C37.0792 106.345 37.9808 105.627 39.6664 106.666Z" fill="white" stroke="#0E1825" stroke-width="0.48509" stroke-linecap="round" stroke-linejoin="round"/>
<path d="M34.9664 99.6925C34.9664 99.6925 37.7104 99.5906 38.757 100.371C39.8037 101.151 40.1839 104.589 40.5093 105.953L40.8346 107.317C40.0712 107.618 39.2847 107.857 38.4826 108.03C38.1769 108.053 37.8731 108.096 37.5732 108.16C37.5732 108.16 36.7461 103.44 35.7739 102.06C35.2823 101.35 34.7399 100.677 34.151 100.045C34.151 100.045 33.712 99.52 34.9664 99.6925Z" fill="white" stroke="#0E1825" stroke-width="0.48509" stroke-linecap="round" stroke-linejoin="round"/>
<path d="M32.7241 95.5021C32.4975 96.3706 32.1476 97.2022 31.6853 97.9717C30.9013 99.2692 30.5799 100.175 28.1809 100.241C25.7818 100.308 24.547 102.264 23.52 108.093C22.4929 113.922 21.8971 120.359 23.6493 124.447C25.4016 128.536 30.576 128.136 33.955 126.913C37.3341 125.69 38.1102 121.852 38.1729 117.701C38.2356 113.55 38.2396 106.992 37.5889 103.679C36.9381 100.367 35.0605 99.6573 34.2137 99.3986C33.367 99.1398 34.4764 97.5797 34.4764 97.5797L32.7241 95.5021Z" fill="white"/>
<g style="mix-blend-mode:multiply" opacity="0.4">
<path d="M25.872 108.238C25.872 108.238 25.2997 109.806 26.3149 111.025C27.3302 112.244 29.8429 111.66 29.3569 112.229C28.8708 112.797 26.6952 113.499 26.3149 114.067C26.2035 114.21 26.1379 114.384 26.1267 114.565C26.1155 114.746 26.1593 114.927 26.2522 115.082C26.2522 115.082 24.253 115.439 24.1119 115.102C23.9708 114.765 25.2879 110.041 25.2879 110.041L25.872 108.238Z" fill="#51D2DA"/>
</g>
<g style="mix-blend-mode:multiply" opacity="0.4">
<path d="M26.4835 116.858C26.4835 116.858 25.0919 118.379 25.1546 118.818C25.2174 119.257 26.4835 118.25 26.2326 118.881C25.9818 119.512 24.8998 120.531 24.5823 121.037C24.2648 121.543 23.0143 122.44 23.0143 122.44L22.5674 119.01L22.4812 118.411L26.4835 116.858Z" fill="#51D2DA"/>
</g>
<path d="M32.7241 95.5021C32.4975 96.3706 32.1476 97.2022 31.6853 97.9717C30.9013 99.2692 30.5799 100.175 28.1809 100.241C25.7818 100.308 24.547 102.264 23.52 108.093C22.4929 113.922 21.8971 120.359 23.6493 124.447C25.4016 128.536 30.576 128.136 33.955 126.913C37.3341 125.69 38.1102 121.852 38.1729 117.701C38.2356 113.55 38.2396 106.992 37.5889 103.679C36.9381 100.367 35.0605 99.6573 34.2137 99.3986C33.367 99.1398 34.4764 97.5797 34.4764 97.5797L32.7241 95.5021Z" stroke="#0E1825" stroke-width="0.48509" stroke-linecap="round" stroke-linejoin="round"/>
<path d="M34.9663 99.6926C34.7238 99.5745 34.4721 99.4761 34.2137 99.3986C33.3709 99.1398 34.4763 97.5797 34.4763 97.5797L32.7241 95.5021C32.4974 96.3706 32.1476 97.2022 31.6853 97.9717C31.0228 99.0732 30.6857 99.8925 29.1255 100.155C29.6204 100.868 29.9817 101.665 30.1918 102.507C30.5838 104.197 31.4227 106.921 32.9828 106.274C34.4646 105.659 35.5896 102.103 34.9663 99.6926Z" fill="white"/>
<g style="mix-blend-mode:multiply" opacity="0.4">
<path d="M30.9209 100.124C30.5099 100.416 30.0508 100.633 29.5646 100.767L29.1726 100.096C29.1726 100.096 30.7916 100.296 32.4105 96.5682C32.7626 97.2586 33.2601 97.8644 33.8688 98.344L31.9362 98.591" fill="#51D2DA"/>
</g>
<path d="M34.9663 99.6926C34.7238 99.5745 34.4721 99.4761 34.2137 99.3986C33.3709 99.1398 34.4763 97.5797 34.4763 97.5797L32.7241 95.5021C32.4974 96.3706 32.1476 97.2022 31.6853 97.9717C31.0228 99.0732 30.6857 99.8925 29.1255 100.155C29.6204 100.868 29.9817 101.665 30.1918 102.507C30.5838 104.197 31.4227 106.921 32.9828 106.274C34.4646 105.659 35.5896 102.103 34.9663 99.6926Z" stroke="#0E1825" stroke-width="0.48509" stroke-linecap="round" stroke-linejoin="round"/>
<path d="M26.0327 107.634L27.8986 105.976" stroke="#0E1825" stroke-width="0.48509" stroke-linecap="round" stroke-linejoin="round"/>
<path d="M28.1808 100.241C28.1808 100.241 28.7296 100.994 29.1452 103.173C29.5607 105.353 30.8033 107.325 32.0499 107.736C33.2964 108.148 33.9158 107.736 33.9158 107.736" stroke="#0E1825" stroke-width="0.48509" stroke-linecap="round" stroke-linejoin="round"/>
<path d="M22.0147 107.446C22.0147 107.446 21.0426 116.07 20.9759 117.568C20.9093 119.065 21.4934 118.673 22.4694 118.414C23.4455 118.156 29.0237 115.67 30.3094 115.231C31.5952 114.792 31.803 114.647 32.8418 114.777C33.7511 114.913 34.6671 115.001 35.5858 115.039C36.2365 115.039 35.5191 113.546 34.547 113.287C33.5748 113.028 33.6375 113.091 32.536 113.35C31.4345 113.609 29.6783 114.389 27.7967 114.777C25.9151 115.165 24.2922 115.298 24.1002 115.102C23.9081 114.906 25.2762 109.261 25.2762 109.261L22.0147 107.446Z" fill="white" stroke="#0E1825" stroke-width="0.48509" stroke-linecap="round" stroke-linejoin="round"/>
<path d="M29.1255 100.155C28.402 100.241 27.6711 100.248 26.946 100.175C26.2828 100.127 25.6171 100.219 24.9914 100.444C24.3657 100.669 23.7938 101.022 23.3122 101.48C22.2734 102.515 21.3522 105.89 20.9602 106.737C20.5682 107.583 20.4427 107.968 20.4427 107.968L25.2447 110.045L27.2557 104.334" fill="white"/>
<g style="mix-blend-mode:multiply" opacity="0.4">
<path d="M29.0746 100.112C28.1308 100.214 27.1818 100.259 26.2326 100.249C25.6592 100.257 25.0948 100.393 24.5797 100.645C24.0647 100.897 23.6118 101.26 23.2534 101.707C22.3636 102.723 20.5408 107.928 20.5408 107.928L21.658 108.407C21.658 108.407 22.8732 102.723 24.2648 101.837C25.4882 101.107 26.8992 100.754 28.322 100.821C28.714 100.821 29.153 100.794 29.4313 100.767L29.0746 100.112Z" fill="#51D2DA"/>
</g>
<path d="M29.1255 100.155C28.402 100.241 27.6711 100.248 26.946 100.175C26.2828 100.127 25.6171 100.219 24.9914 100.444C24.3657 100.669 23.7938 101.022 23.3122 101.48C22.2734 102.515 21.3522 105.89 20.9602 106.737C20.5682 107.583 20.4427 107.968 20.4427 107.968L25.2447 110.045L27.2557 104.334" stroke="#0E1825" stroke-width="0.48509" stroke-linecap="round" stroke-linejoin="round"/>
<path d="M23.0222 121.864C23.0222 121.864 24.9822 120.1 26.3424 119.998" stroke="#0E1825" stroke-width="0.48509" stroke-linecap="round" stroke-linejoin="round"/>
<path d="M26.5501 119.151C25.5865 119.576 24.6504 120.06 23.7473 120.602" stroke="#0E1825" stroke-width="0.48509" stroke-linecap="round" stroke-linejoin="round"/>
<path d="M38.703 93.6945C39.4688 90.6524 38.6736 87.8298 36.9269 87.3901C35.1801 86.9504 33.1433 89.06 32.3775 92.1021C31.6117 95.1442 32.4069 97.9668 34.1536 98.4065C35.9003 98.8463 37.9372 96.7366 38.703 93.6945Z" fill="white"/>
<g style="mix-blend-mode:multiply" opacity="0.4">
<path d="M33.8217 98.2892C33.6022 97.8501 33.3121 96.7956 33.5199 96.1292C33.8374 95.1179 35.5465 93.9811 35.5465 93.9811C35.5465 93.9811 34.7625 94.1692 33.9785 94.2908C33.1945 94.4123 32.1087 94.5887 32.1087 94.5887L32.3792 96.486C32.7437 97.3405 33.1867 98.0383 33.8217 98.2892Z" fill="#51D2DA"/>
</g>
<path d="M38.703 93.6945C39.4688 90.6524 38.6736 87.8298 36.9269 87.3901C35.1801 86.9504 33.1433 89.06 32.3775 92.1021C31.6117 95.1442 32.4069 97.9668 34.1536 98.4065C35.9003 98.8463 37.9372 96.7366 38.703 93.6945Z" stroke="#0E1825" stroke-width="0.48509" stroke-linecap="round" stroke-linejoin="round"/>
<g style="mix-blend-mode:multiply" opacity="0.4">
<path d="M32.4027 96.6545C32.1048 97.2425 31.1796 99.0771 30.2232 99.6808C29.9532 99.8547 29.6585 99.9869 29.349 100.073" fill="#51D2DA"/>
</g>
<g style="mix-blend-mode:multiply" opacity="0.4">
<path d="M33.9629 106.274C33.9629 106.274 34.2177 109.884 33.9629 110.774C33.7081 111.664 32.6967 111.598 33.2024 112.103C33.7532 112.562 34.348 112.965 34.9781 113.307L35.864 114.196L36.064 112.848C36.064 112.848 35.4289 113.04 34.7939 110.821C34.3886 109.332 34.1106 107.811 33.9629 106.274Z" fill="#51D2DA"/>
</g>
<path d="M36.9813 94.4789C36.7753 94.7774 36.6411 95.1195 36.5893 95.4785C36.5893 95.5961 36.5893 95.7019 36.5893 95.7882C36.5928 95.8294 36.5873 95.8709 36.5732 95.9098C36.5592 95.9486 36.5368 95.984 36.5078 96.0135C36.4787 96.0429 36.4436 96.0657 36.4049 96.0803C36.3662 96.0948 36.3248 96.1008 36.2835 96.0978L35.817 96.0626" stroke="#0E1825" stroke-width="0.48509" stroke-linecap="round" stroke-linejoin="round"/>
<path d="M34.986 97.0033C34.7692 97.0274 34.5515 96.9678 34.3774 96.8366C34.2032 96.7055 34.0857 96.5127 34.0491 96.2977" stroke="#0E1825" stroke-width="0.48509" stroke-linecap="round" stroke-linejoin="round"/>
<path d="M35.6916 94.3613L35.4564 94.8317C35.3189 94.8973 35.1637 94.9156 35.0148 94.8837C34.8658 94.8517 34.7317 94.7715 34.6332 94.6553" stroke="#0E1825" stroke-width="0.48509" stroke-linecap="round" stroke-linejoin="round"/>
<path d="M37.5653 95.0669L37.2164 95.5373C37.2164 95.5373 36.746 95.5373 36.746 95.1845" stroke="#0E1825" stroke-width="0.48509" stroke-linecap="round" stroke-linejoin="round"/>
<path d="M39.4234 90.896C40.2074 88.5871 38.2984 86.192 35.4485 86.243C32.5987 86.2939 30.6034 89.0811 29.6587 90.9901C28.7753 91.8755 28.0157 92.8763 27.4008 93.9654C26.2248 95.9763 26.2248 97.1445 25.3232 98.442C24.4216 99.7395 21.756 99.8062 20.1958 101.496C18.6357 103.185 18.6278 105.13 19.353 106.427C20.0782 107.725 20.529 109.41 19.6117 110.578C18.6945 111.747 17.7968 113.322 18.5102 115.968C18.6444 116.559 18.9558 117.095 19.4027 117.504C19.8496 117.913 20.4108 118.176 21.0112 118.258C20.972 118.036 20.9602 117.811 20.9759 117.587C21.0269 116.411 21.6227 110.998 21.8853 108.603L20.4585 107.983C20.4585 107.983 20.5878 107.591 20.9759 106.752C21.364 105.914 22.2734 102.531 23.3279 101.496C23.8098 101.038 24.3819 100.686 25.0076 100.462C25.6333 100.238 26.2988 100.147 26.9617 100.194C27.6868 100.268 28.4177 100.261 29.1413 100.175C29.5783 100.121 29.9958 99.9627 30.3578 99.7121C30.7198 99.4614 31.0153 99.1264 31.2189 98.736L31.3208 98.5675V98.5479C31.4305 98.3675 31.5403 98.1755 31.6618 97.9755C31.9433 97.5013 32.1845 97.0043 32.3831 96.4899C32.1852 95.8764 32.0795 95.237 32.0695 94.5926C33.3474 94.5495 36.8833 94.2359 38.6708 92.1347C38.7766 92.0054 38.8746 91.876 38.9609 91.7427C38.9353 92.4041 38.8407 93.061 38.6786 93.7027C38.3488 95.1767 37.6049 96.5258 36.5344 97.5914L36.3462 97.7521L36.2286 97.8462C36.1698 97.8893 36.1149 97.9324 36.0561 97.9677C36.0149 97.9979 35.9716 98.0254 35.9268 98.05C35.8737 98.0856 35.8187 98.1183 35.7621 98.148L35.6249 98.2186L35.4603 98.2891L35.3231 98.3401L35.1585 98.3911L35.0213 98.4263C34.7284 98.4931 34.4243 98.4931 34.1314 98.4263L34.0177 98.3871C33.893 98.6213 33.8528 98.8913 33.9041 99.1515C33.9242 99.2171 33.9613 99.2763 34.0115 99.3231C34.0617 99.3698 34.1234 99.4026 34.1902 99.4181C34.4418 99.4937 34.687 99.5894 34.9233 99.7043C34.7739 101.289 34.5119 102.861 34.1393 104.408C33.4885 107.133 34.202 109.728 34.9821 111.609C35.7621 113.491 38.1612 114.659 39.004 113.569C39.8468 112.48 39.5881 111.3 39.0706 108.701C38.5532 106.102 37.189 102.342 37.189 99.4847C37.189 96.6271 38.8746 95.7215 39.7213 94.0359C40.3289 92.8168 39.788 91.5311 39.4234 90.896Z" fill="#0E1825"/>
<path d="M38.6316 90.0219C38.6316 90.0219 35.6367 92.6443 32.7516 92.9266C29.8665 93.2088 29.5685 93.2049 29.5685 93.2049" stroke="white" stroke-width="0.345985" stroke-linecap="round" stroke-linejoin="round"/>
<path d="M37.9769 88.0541C37.9769 88.0541 35.2604 91.147 33.0142 91.8957C30.7681 92.6444 29.8312 92.6444 29.8312 92.6444" stroke="white" stroke-width="0.345985" stroke-linecap="round" stroke-linejoin="round"/>
<path d="M36.3854 86.9329C36.3854 86.9329 35.6367 89.2849 33.857 90.3981" stroke="white" stroke-width="0.345985" stroke-linecap="round" stroke-linejoin="round"/>
<path d="M31.2345 95.7333C31.2345 95.7333 31.1404 98.7321 29.4548 99.1986C27.7692 99.665 25.8994 98.7321 23.7434 99.8532C22.9019 100.306 22.2183 101.004 21.7834 101.855C21.3485 102.706 21.1831 103.669 21.3091 104.616" stroke="white" stroke-width="0.345985" stroke-linecap="round" stroke-linejoin="round"/>
<path d="M20.6545 117.27C20.2079 116.622 19.9093 115.883 19.7799 115.107C19.6505 114.331 19.6935 113.535 19.9058 112.778C20.6545 110.249 21.215 109.312 21.215 109.312" stroke="white" stroke-width="0.345985" stroke-linecap="round" stroke-linejoin="round"/>
<path d="M37.24 100.602C37.24 100.602 37.7065 104.161 36.115 106.407C34.5234 108.654 35.5544 111.746 35.5544 111.746" stroke="white" stroke-width="0.345985" stroke-linecap="round" stroke-linejoin="round"/>
<path d="M37.3223 97.3248C37.3223 97.3248 37.4164 98.3558 36.1032 100.978C34.79 103.601 34.4176 104.444 34.3235 106.317" stroke="white" stroke-width="0.345985" stroke-linecap="round" stroke-linejoin="round"/>
<path d="M46.3109 127.14C46.3109 127.14 48.4159 126.936 49.635 127.477C50.8541 128.018 51.1285 128.9 51.399 128.089C51.6695 127.277 51.6695 126.799 50.6542 126.258C49.6389 125.717 49.2273 126.054 48.8236 125.647C48.6254 125.434 48.3969 125.252 48.1454 125.106C48.1454 125.106 47.0596 124.969 46.989 125.58C46.9185 126.192 45.9071 126.392 45.9071 126.392L46.3109 127.14Z" fill="white" stroke="#0E1825" stroke-width="0.48509" stroke-miterlimit="10"/>
<path d="M55.1113 111.21C54.3978 109.587 51.4225 110.7 47.9729 113.479C43.5081 117.078 40.0389 117.917 38.1729 118.062V118.003C37.2008 117.548 35.8209 117.529 34.1785 117.795C34.1275 117.721 34.0765 117.646 34.0295 117.568C30.8935 112.703 30.0703 111.86 29.0315 112.703C27.9927 113.546 26.8245 114.843 27.2126 118.869C27.2472 119.186 27.3075 119.499 27.3929 119.806C25.8491 120.54 24.3812 121.423 23.0104 122.444C23.1612 123.13 23.3737 123.8 23.6454 124.447C25.3898 128.524 30.5564 128.152 33.9315 126.925C34.9521 127.477 36.061 127.847 37.2086 128.018C39.8821 128.352 41.6892 128.254 42.7476 127.85L44.5429 129.316C47.369 127.172 49.7632 124.512 51.5989 121.476C52.4939 119.962 53.2875 118.391 53.9745 116.772C55.0917 114.244 55.4719 112.025 55.1113 111.21Z" fill="#0E1825"/>
<path d="M34.0216 117.552C34.3954 118.136 34.8038 118.698 35.2447 119.234L47.432 117.046L43.5943 113.973L32.7241 115.565C33.0965 116.137 33.5316 116.803 34.0216 117.552Z" fill="#51D2DA" stroke="#0E1825" stroke-width="0.48509" stroke-linecap="round" stroke-linejoin="round"/>
<path opacity="0.5" d="M34.0216 117.552C34.3954 118.136 34.8038 118.698 35.2447 119.234L47.432 117.046L43.5943 113.973L32.7241 115.565C33.0965 116.137 33.5316 116.803 34.0216 117.552Z" fill="white" stroke="#0E1825" stroke-width="0.52825" stroke-linecap="round" stroke-linejoin="round"/>
<path d="M36.7343 110.351L34.837 118.728C34.9703 118.904 35.1075 119.077 35.229 119.246L47.432 117.046L49.8428 108.273L36.7343 110.351Z" fill="#51D2DA" stroke="#0E1825" stroke-width="0.48509" stroke-linecap="round" stroke-linejoin="round"/>
<path d="M42.9436 115.224C42.7076 115.29 42.4571 115.286 42.2235 115.212C41.9899 115.137 41.7836 114.995 41.6303 114.803C41.477 114.612 41.3836 114.379 41.3618 114.135C41.34 113.891 41.3908 113.645 41.5077 113.43C41.6247 113.214 41.8026 113.038 42.0193 112.923C42.236 112.808 42.4818 112.76 42.7259 112.784C42.97 112.808 43.2015 112.903 43.3916 113.058C43.5816 113.214 43.7217 113.421 43.7942 113.656C43.887 113.976 43.8497 114.321 43.6905 114.614C43.5313 114.907 43.263 115.126 42.9436 115.224Z" fill="white"/>
<path opacity="0.5" d="M36.7343 110.351L34.837 118.728C34.9703 118.904 35.1075 119.077 35.229 119.246L47.432 117.046L49.8428 108.273L36.7343 110.351Z" fill="white" stroke="#0E1825" stroke-width="0.52825" stroke-linecap="round" stroke-linejoin="round"/>
<path d="M42.9436 115.224C42.7076 115.29 42.4571 115.286 42.2235 115.212C41.9899 115.137 41.7836 114.995 41.6303 114.803C41.477 114.612 41.3836 114.379 41.3618 114.135C41.34 113.891 41.3908 113.645 41.5077 113.43C41.6247 113.214 41.8026 113.038 42.0193 112.923C42.236 112.808 42.4818 112.76 42.7259 112.784C42.97 112.808 43.2015 112.903 43.3916 113.058C43.5816 113.214 43.7217 113.421 43.7942 113.656C43.887 113.976 43.8497 114.321 43.6905 114.614C43.5313 114.907 43.263 115.126 42.9436 115.224Z" fill="white" stroke="#0E1825" stroke-width="0.52825" stroke-linecap="round" stroke-linejoin="round"/>
<path d="M42.336 127.168C42.336 127.168 40.6582 128.414 39.7135 128.932C38.7688 129.449 38.4669 129.273 37.5614 130.135C36.6559 130.998 35.8876 131.597 35.672 131.942C35.4564 132.287 35.1976 132.628 35.0683 131.856C35.0154 131.46 35.0672 131.057 35.2185 130.687C35.3698 130.317 35.6153 129.993 35.9307 129.747C36.5304 129.316 37.3497 129.143 37.3497 128.571C37.33 128.321 37.4087 128.074 37.5691 127.881C37.7295 127.688 37.9589 127.566 38.2082 127.54C38.6825 127.54 38.9922 128.011 39.886 127.54C40.5003 127.161 41.0044 126.627 41.3481 125.992L42.336 127.168Z" fill="white" stroke="#0E1825" stroke-width="0.48509" stroke-miterlimit="10"/>
<path d="M27.4949 120.237C27.4949 120.237 29.349 124.671 33.6218 126.686" stroke="white" stroke-width="0.345985" stroke-miterlimit="10"/>
<path d="M41.9087 123.867C41.9087 123.867 44.5625 122.538 48.4512 115.819" stroke="white" stroke-width="0.345985" stroke-miterlimit="10"/>
<path d="M34.7939 118.865C34.7939 118.865 37.6045 122.985 40.8816 124.389" stroke="white" stroke-width="0.345985" stroke-miterlimit="10"/>
<path d="M85.2365 76.9211H61.1677C59.5071 76.9211 58.161 78.2673 58.161 79.9278V130.739C58.161 132.399 59.5071 133.745 61.1677 133.745H85.2365C86.897 133.745 88.2431 132.399 88.2431 130.739V79.9278C88.2431 78.2673 86.897 76.9211 85.2365 76.9211Z" fill="#0E1825"/>
<path d="M86.9064 83.1617H59.4977V127.509H86.9064V83.1617Z" fill="white"/>
<g style="mix-blend-mode:multiply" opacity="0.4">
<path d="M86.9064 112.605L61.3558 127.505H86.9064V112.605Z" fill="#51D2DA"/>
</g>
<path d="M86.9064 83.1617H59.4977V127.509H86.9064V83.1617Z" stroke="#0E1825" stroke-width="0.52825" stroke-miterlimit="10"/>
<path d="M76.1813 80.0572H70.2229C70.1189 80.0572 70.0192 80.0159 69.9457 79.9424C69.8722 79.8689 69.8309 79.7692 69.8309 79.6652C69.8309 79.5612 69.8722 79.4615 69.9457 79.388C70.0192 79.3145 70.1189 79.2732 70.2229 79.2732H76.1813C76.2852 79.2732 76.3849 79.3145 76.4585 79.388C76.532 79.4615 76.5733 79.5612 76.5733 79.6652C76.5733 79.7692 76.532 79.8689 76.4585 79.9424C76.3849 80.0159 76.2852 80.0572 76.1813 80.0572Z" fill="#51D2DA"/>
<path opacity="0.4" d="M76.1813 80.0572H70.2229C70.1189 80.0572 70.0192 80.0159 69.9457 79.9424C69.8722 79.8689 69.8309 79.7692 69.8309 79.6652C69.8309 79.5612 69.8722 79.4615 69.9457 79.388C70.0192 79.3145 70.1189 79.2732 70.2229 79.2732H76.1813C76.2852 79.2732 76.3849 79.3145 76.4585 79.388C76.532 79.4615 76.5733 79.5612 76.5733 79.6652C76.5733 79.7692 76.532 79.8689 76.4585 79.9424C76.3849 80.0159 76.2852 80.0572 76.1813 80.0572Z" fill="white"/>
<path d="M74.8289 130.01C74.8289 129.688 74.7334 129.373 74.5547 129.106C74.3759 128.838 74.1219 128.63 73.8246 128.507C73.5274 128.384 73.2003 128.351 72.8847 128.414C72.5691 128.477 72.2793 128.632 72.0517 128.859C71.8242 129.087 71.6693 129.377 71.6065 129.692C71.5437 130.008 71.576 130.335 71.6991 130.632C71.8222 130.93 72.0307 131.184 72.2983 131.362C72.5658 131.541 72.8803 131.637 73.2021 131.637C73.6335 131.637 74.0473 131.465 74.3524 131.16C74.6575 130.855 74.8289 130.441 74.8289 130.01Z" fill="#51D2DA" stroke="#0E1825" stroke-width="0.704333" stroke-miterlimit="10"/>
<path d="M74.0252 129.187H72.3788V130.833H74.0252V129.187Z" fill="#51D2DA" stroke="#0E1825" stroke-width="0.52825" stroke-linecap="round" stroke-linejoin="round"/>
<path opacity="0.6" d="M74.0252 129.187H72.3788V130.833H74.0252V129.187Z" fill="white" stroke="#0E1825" stroke-width="0.52825" stroke-linecap="round" stroke-linejoin="round"/>
<path d="M74.0252 129.187H72.3788V130.833H74.0252V129.187Z" stroke="#0E1825" stroke-width="0.52825" stroke-linecap="round" stroke-linejoin="round"/>
<path d="M166.671 129.504V94.4318C166.671 92.0113 164.708 90.0492 162.288 90.0492H88.2509C85.8305 90.0492 83.8684 92.0113 83.8684 94.4318V129.504C83.8684 131.924 85.8305 133.887 88.2509 133.887H162.288C164.708 133.887 166.671 131.924 166.671 129.504Z" fill="#51D2DA" stroke="#0E1825" stroke-width="0.868674" stroke-miterlimit="10"/>
<path d="M162.257 131.938V91.9974H88.2823V131.938H162.257Z" fill="white"/>
<g style="mix-blend-mode:multiply" opacity="0.4">
<path d="M162.257 100.014L107.522 131.934H162.257V100.014Z" fill="#51D2DA"/>
</g>
<path d="M162.257 131.938V91.9974H88.2823V131.938H162.257Z" stroke="#0E1825" stroke-width="0.651505" stroke-miterlimit="10"/>
<path d="M164.248 112.566C164.128 112.566 164.012 112.53 163.912 112.464C163.813 112.397 163.735 112.303 163.69 112.192C163.644 112.082 163.633 111.96 163.656 111.843C163.68 111.726 163.738 111.618 163.823 111.534C163.907 111.45 164.015 111.392 164.133 111.37C164.25 111.347 164.372 111.359 164.482 111.405C164.592 111.452 164.686 111.53 164.752 111.63C164.818 111.729 164.852 111.846 164.852 111.966C164.851 112.125 164.787 112.278 164.674 112.39C164.56 112.503 164.407 112.566 164.248 112.566Z" fill="#0E1825"/>
<path d="M153.531 90.4491H156.177C156.257 90.4491 156.322 90.3842 156.322 90.304V90.1943C156.322 90.1142 156.257 90.0492 156.177 90.0492H153.531C153.451 90.0492 153.386 90.1142 153.386 90.1943V90.304C153.386 90.3842 153.451 90.4491 153.531 90.4491Z" fill="#51D2DA" stroke="#0E1825" stroke-width="0.652671" stroke-miterlimit="10"/>
<path d="M144.185 90.4452H149.254C149.281 90.4457 149.307 90.4409 149.332 90.4311C149.356 90.4213 149.379 90.4066 149.398 90.388C149.417 90.3694 149.432 90.3472 149.442 90.3227C149.453 90.2982 149.458 90.2718 149.458 90.2453C149.458 90.2187 149.453 90.1923 149.442 90.1678C149.432 90.1433 149.417 90.1211 149.398 90.1025C149.379 90.0839 149.356 90.0692 149.332 90.0594C149.307 90.0496 149.281 90.0448 149.254 90.0453H144.185C144.132 90.0453 144.082 90.0664 144.044 90.1039C144.007 90.1414 143.986 90.1922 143.986 90.2453C143.986 90.2983 144.007 90.3491 144.044 90.3866C144.082 90.4241 144.132 90.4452 144.185 90.4452Z" fill="#51D2DA" stroke="#0E1825" stroke-width="0.652671" stroke-miterlimit="10"/>
<path d="M158.113 134.996C158.113 135.58 154.617 136.054 150.305 136.054C145.993 136.054 142.492 135.584 142.492 134.996C142.492 134.408 145.989 133.934 150.305 133.934C154.62 133.934 158.113 134.408 158.113 134.996Z" fill="#51D2DA"/>
<path d="M143.582 119.285C143.582 128.207 150.638 135.435 150.638 135.435C150.638 135.435 157.694 128.207 157.694 119.285C157.694 110.363 150.638 103.134 150.638 103.134C150.638 103.134 143.582 110.363 143.582 119.285Z" fill="#0E1825"/>
<path d="M150.649 135.435V103.134" stroke="white" stroke-width="0.738" stroke-miterlimit="10"/>
<path d="M150.65 114.616L146.69 111.162" stroke="white" stroke-width="0.738" stroke-miterlimit="10"/>
<path d="M150.712 119.955L155.608 112.856" stroke="white" stroke-width="0.738" stroke-miterlimit="10"/>
<path d="M150.65 123.032L144.809 117.819" stroke="white" stroke-width="0.738" stroke-miterlimit="10"/>
<path d="M150.712 127.176L156.49 122.025" stroke="white" stroke-width="0.738" stroke-miterlimit="10"/>
<path d="M150.712 130.755L146.189 127.176" stroke="white" stroke-width="0.738" stroke-miterlimit="10"/>
<path d="M138.686 130.88C142.12 134.753 147.964 135.169 147.964 135.169C147.964 135.169 148.25 129.316 144.828 125.443C141.406 121.57 135.55 121.155 135.55 121.155C135.55 121.155 135.24 127.027 138.686 130.88Z" fill="#0E1825"/>
<path d="M147.964 135.184L135.538 121.17" stroke="white" stroke-width="0.738" stroke-miterlimit="10"/>
<path d="M139.956 126.152L136.91 126.176" stroke="white" stroke-width="0.738" stroke-miterlimit="10"/>
<path d="M142.037 128.446L141.43 123.483" stroke="white" stroke-width="0.738" stroke-miterlimit="10"/>
<path d="M143.194 129.802L138.654 129.79" stroke="white" stroke-width="0.738" stroke-miterlimit="10"/>
<path d="M144.817 131.578L145.342 127.121" stroke="white" stroke-width="0.738" stroke-miterlimit="10"/>
<path d="M146.192 133.13L142.853 133.318" stroke="white" stroke-width="0.738" stroke-miterlimit="10"/>
<path d="M156.694 125.325C153.088 129.034 153.107 134.898 153.107 134.898C153.107 134.898 158.968 134.745 162.57 131.033C166.173 127.321 166.157 121.472 166.157 121.472C166.157 121.472 160.297 121.613 156.694 125.325Z" fill="#0E1825"/>
<path d="M153.107 134.898L166.157 121.46" stroke="white" stroke-width="0.738" stroke-miterlimit="10"/>
<path d="M161.52 126.235L161.269 123.201" stroke="white" stroke-width="0.738" stroke-miterlimit="10"/>
<path d="M159.387 128.481L164.291 127.509" stroke="white" stroke-width="0.738" stroke-miterlimit="10"/>
<path d="M158.117 129.735L157.796 125.208" stroke="white" stroke-width="0.738" stroke-miterlimit="10"/>
<path d="M156.471 131.488L160.955 131.676" stroke="white" stroke-width="0.738" stroke-miterlimit="10"/>
<path d="M155.024 132.977L154.589 129.661" stroke="white" stroke-width="0.738" stroke-miterlimit="10"/>
</svg>
