<svg width="24" height="30" viewBox="0 0 24 30" fill="none" xmlns="http://www.w3.org/2000/svg">
<path fill-rule="evenodd" clip-rule="evenodd" d="M23.1901 8.70959L0.170123 8.662C0.170123 8.662 0.100279 7.95751 0.0802793 7.11023C0.0402793 5.56799 1.02008 4.4637 2.88008 4.39706C3.13008 4.39706 4.6103 4.39706 6.6003 4.39706C6.5803 3.9401 6.55024 3.27367 6.54024 2.75959C6.50024 1.21735 7.48028 0.493825 9.33028 0.436705C10.2103 0.408145 13.2703 0.465293 14.3703 0.465293C16.3703 0.465293 17.1601 1.21734 17.1701 2.45494C17.1701 3.0071 17.1503 3.86391 17.1203 4.42559H20.2204C22.2204 4.42559 23.25 5.55848 23.26 6.81512C23.27 7.6624 23.1901 8.70959 23.1901 8.70959ZM14.34 3.0357L9.32003 2.98806V4.39706H14.34V3.0357ZM20.7404 29.1395L2.82003 29.2918L1.59005 10.7184H21.8503L20.7404 29.1395Z" fill="#E60004"/>
</svg>
