<svg width="43" height="31" viewBox="0 0 43 31" fill="none" xmlns="http://www.w3.org/2000/svg">
<path fill-rule="evenodd" clip-rule="evenodd" d="M38.0902 9.28394C36.6347 10.5208 36.2953 14.8724 36.2953 14.8724H35.2696C35.2696 14.8724 35.345 11.3051 33.5953 9.54036C31.8456 7.76804 28.7083 7.51162 28.7083 7.51162L28.8138 6.4256C28.8138 6.4256 32.4414 5.99572 33.6406 4.78149C35.3149 3.10722 35.2244 0.0829601 35.2244 0.0829601L36.25 0C36.25 0 36.4386 3.43151 37.864 4.86445C39.2894 6.30493 42.9547 6.4256 42.9547 6.4256L42.9999 7.57195C43.0075 7.57195 39.8776 7.7605 38.0902 9.28394Z" fill="url(#paint0_linear_1618_20984)"/>
<path fill-rule="evenodd" clip-rule="evenodd" d="M30.1261 15.1288C28.2407 16.1545 5.33628 29.3828 3.3528 30.5367C1.36931 31.6906 -1.3382 27.3012 0.75842 26.0719C2.85504 24.8426 24.7715 11.9462 27.1698 10.5359C29.5605 9.12554 32.0116 14.1031 30.1261 15.1288ZM6.95023 24.4278L2.00282 27.3314L2.89275 28.8096L7.80244 25.9588L6.95023 24.4278ZM27.7957 12.18L22.788 15.1062L23.7458 16.6824L28.7083 13.7939L27.7957 12.18Z" fill="url(#paint1_linear_1618_20984)"/>
<path fill-rule="evenodd" clip-rule="evenodd" d="M21.2721 8.52975C20.4274 9.26131 20.2464 11.818 20.2464 11.818H19.628C19.628 11.818 19.628 9.69873 18.6023 8.65796C17.5766 7.6172 15.7666 7.48145 15.7666 7.48145L15.8269 6.84039C15.8269 6.84039 18.0065 6.61414 18.7154 5.89767C19.6959 4.90969 19.5903 3.09967 19.5903 3.09967L20.2012 3.04688C20.2012 3.04688 20.3369 5.05299 21.1741 5.89013C22.0112 6.72727 24.1531 6.84039 24.1531 6.84039L24.1832 7.5267C24.1757 7.51915 22.3355 7.63228 21.2721 8.52975Z" fill="url(#paint2_linear_1618_20984)"/>
<path fill-rule="evenodd" clip-rule="evenodd" d="M37.4795 21.6222L37.5096 22.3085C37.5096 22.3085 35.6694 22.4217 34.6136 23.3342C33.7538 24.0582 33.5502 26.6224 33.5502 26.6224H32.9544C32.9544 26.6224 32.9544 24.5032 31.9287 23.4624C30.903 22.4217 29.0854 22.2859 29.0854 22.2859L29.1533 21.6222C29.1533 21.6222 31.3329 21.3884 32.0418 20.672C33.0147 19.684 32.9242 17.874 32.9242 17.874L33.5351 17.8212C33.5351 17.8212 33.6331 19.8574 34.4703 20.7021C35.3074 21.5468 37.4795 21.6222 37.4795 21.6222Z" fill="url(#paint3_linear_1618_20984)"/>
<defs>
<linearGradient id="paint0_linear_1618_20984" x1="-8.22732" y1="16.1899" x2="62.1444" y2="2.25047" gradientUnits="userSpaceOnUse">
<stop stop-color="#DC46AA"/>
<stop offset="1" stop-color="#51D2DA"/>
</linearGradient>
<linearGradient id="paint1_linear_1618_20984" x1="-6.51473" y1="24.8358" x2="63.857" y2="10.8963" gradientUnits="userSpaceOnUse">
<stop stop-color="#DC46AA"/>
<stop offset="1" stop-color="#51D2DA"/>
</linearGradient>
<linearGradient id="paint2_linear_1618_20984" x1="-8.82886" y1="13.1529" x2="61.5428" y2="-0.786578" gradientUnits="userSpaceOnUse">
<stop stop-color="#DC46AA"/>
<stop offset="1" stop-color="#51D2DA"/>
</linearGradient>
<linearGradient id="paint3_linear_1618_20984" x1="-5.50637" y1="29.9258" x2="64.8653" y2="15.9863" gradientUnits="userSpaceOnUse">
<stop stop-color="#DC46AA"/>
<stop offset="1" stop-color="#51D2DA"/>
</linearGradient>
</defs>
</svg>
