<svg width="19" height="19" viewBox="0 0 19 19" fill="none" xmlns="http://www.w3.org/2000/svg">
<path fill-rule="evenodd" clip-rule="evenodd" d="M13.4527 7.55748V10.3988L11.7035 10.4954V4.07833C11.7035 1.27569 13.53 0 15.2503 0C17.0478 0 18.8454 1.36267 18.8454 3.73042C18.855 7.43184 14.9797 7.55748 13.4527 7.55748ZM15.2406 1.80723C14.3805 1.80723 13.472 2.40641 13.472 4.06867V5.76958C17.0381 5.76958 17.0382 4.4939 17.0382 3.73042C17.0285 2.41607 16.1007 1.80723 15.2406 1.80723ZM5.48931 7.55748C3.94302 7.55748 0 7.55748 0 3.79807C0 1.39166 1.82655 0.00966636 3.6531 0.00966636C5.40234 0.00966636 7.25789 1.30468 7.25789 4.15565V5.79857L10.7177 5.82757L10.5534 7.57681L5.48931 7.55748ZM5.48931 4.14598C5.48931 2.42574 4.55189 1.80723 3.66277 1.80723C2.77366 1.80723 1.81689 2.42574 1.81689 3.78841C1.81689 4.58088 1.81689 5.76959 5.49898 5.77925L5.48931 4.14598ZM5.48931 11.4135V8.73652L7.26754 8.50458V14.854C7.26754 17.6953 5.41201 19 3.66277 19C1.83622 19 0.00967373 17.6083 0.00967373 15.2116C0.00967373 11.4232 3.94302 11.4135 5.48931 11.4135ZM3.66277 17.1734C4.55189 17.1734 5.48931 16.5646 5.48931 14.8347V13.1918C1.80722 13.2014 1.80722 14.3998 1.80722 15.1826C1.81688 16.5549 2.77366 17.1734 3.66277 17.1734ZM18.5071 15.057C18.5071 17.2991 16.7965 18.5844 15.0956 18.5844C13.4527 18.5844 11.7325 17.3764 11.7325 14.7187V13.1821H8.36928L8.25331 11.3942H13.3947C14.8347 11.4135 18.5071 11.5585 18.5071 15.057ZM13.4624 14.738C13.4624 16.2747 14.3032 16.8255 15.1053 16.8255C15.9074 16.8255 16.7482 16.2747 16.7482 15.0473C16.7482 14.3418 16.7482 13.2787 13.4527 13.2691V14.738H13.4624Z" fill="#0E1825"/>
</svg>
