<svg width="22" height="24" viewBox="0 0 22 24" fill="none" xmlns="http://www.w3.org/2000/svg">
<path d="M18.0566 15.5743C17.7573 15.3623 17.6866 14.9437 17.8986 14.645L19.056 13.0137C19.268 12.7143 19.6866 12.6437 19.9853 12.8557C20.2846 13.0677 20.3553 13.4863 20.1433 13.785L18.986 15.4163C18.774 15.715 18.356 15.7863 18.0566 15.5743Z" fill="#66757F"/>
<path d="M9.78613 0C14.4528 0 21.1195 1.33333 21.1195 8C21.1195 12.6667 15.7861 19.3333 11.7861 19.3333C7.78613 19.3333 9.78613 0 9.78613 0Z" fill="#99AAB5"/>
<path d="M17.1199 10.0003C16.4533 14.0003 14.0539 15.3983 13.1199 18.6669C11.7866 23.3336 8.45327 24.0003 5.7866 24.0003C1.11994 24.0003 3.21594 19.6216 1.11994 13.3336C-0.880062 7.3336 -0.690729 2.73426 5.7866 1.3336C11.9533 0.000262856 18.2093 3.46293 17.1199 10.0003Z" fill="#F3D2A2"/>
<path d="M13.7517 4.14026C11.9897 2.68826 9.1437 2.12826 6.32503 2.67893C4.7277 2.99026 3.52036 3.77493 2.7377 5.01026C1.0597 7.65893 1.98836 11.4223 2.02903 11.5809C2.1197 11.9376 2.48103 12.1556 2.83903 12.0629C3.1957 11.9723 3.4117 11.6096 3.32103 11.2529C3.31836 11.2423 3.2317 10.8896 3.16103 10.3476C3.20036 10.3449 3.23903 10.3523 3.27903 10.3423C5.3117 9.84159 6.69836 10.3083 7.0797 11.6236C7.43503 12.8509 6.78236 14.6323 5.4517 15.0776C4.7797 15.2536 3.8657 15.7423 3.50236 16.5436C3.33503 16.9129 3.21236 17.5076 3.5797 18.2429C3.69636 18.4769 3.9317 18.6116 4.17636 18.6116C4.27636 18.6116 4.37836 18.5889 4.4737 18.5409C4.80303 18.3763 4.93636 17.9756 4.7717 17.6463C4.6277 17.3583 4.67103 17.1936 4.7157 17.0943C4.87436 16.7449 5.43836 16.4589 5.83036 16.3549C7.9837 15.6376 8.8917 13.0896 8.3597 11.2529C7.90303 9.67559 6.27103 8.27559 3.0717 9.02426C3.06636 7.96826 3.23036 6.72426 3.86436 5.72426C4.45103 4.79826 5.3397 4.23026 6.58036 3.98826C9.0197 3.51293 11.4417 3.96626 12.9037 5.17026C13.9317 6.01626 14.453 7.19293 14.453 8.66626C14.453 10.9863 13.781 11.8369 12.851 13.0143C12.5437 13.4029 12.2257 13.8049 11.8984 14.2963C11.6937 14.6029 11.7764 15.0163 12.083 15.2209C12.197 15.2963 12.3257 15.3329 12.4524 15.3329C12.6677 15.3329 12.8797 15.2289 13.0077 15.0363C13.305 14.5896 13.6064 14.2096 13.8964 13.8416C14.8684 12.6109 15.7864 11.4496 15.7864 8.66626C15.7864 6.80159 15.0824 5.23626 13.7517 4.14026Z" fill="#D2A077"/>
<path d="M5.11947 15.3337C6.96041 15.3337 8.4528 13.8413 8.4528 12.0003C8.4528 10.1594 6.96041 8.66699 5.11947 8.66699C3.27852 8.66699 1.78613 10.1594 1.78613 12.0003C1.78613 13.8413 3.27852 15.3337 5.11947 15.3337Z" fill="#66757F"/>
<path d="M5.12012 14C6.22469 14 7.12012 13.1046 7.12012 12C7.12012 10.8954 6.22469 10 5.12012 10C4.01555 10 3.12012 10.8954 3.12012 12C3.12012 13.1046 4.01555 14 5.12012 14Z" fill="#99AAB5"/>
<path d="M5.12043 12.6667C5.07243 12.6667 5.02376 12.6613 4.97509 12.6507C2.18843 12.0313 0.531761 9.648 0.853095 6.71933C1.20909 3.48333 4.15576 0 9.78643 0C10.1544 0 10.4531 0.298667 10.4531 0.666667C10.4531 1.03467 10.1544 1.33333 9.78643 1.33333C4.95109 1.33333 2.48109 4.11133 2.17909 6.86467C1.99109 8.57533 2.68643 10.7767 5.26443 11.3493C5.62376 11.4293 5.85043 11.7853 5.77043 12.1447C5.70176 12.4553 5.42576 12.6667 5.12043 12.6667Z" fill="#CCD6DD"/>
</svg>
