<svg width="53" height="54" viewBox="0 0 53 54" fill="none" xmlns="http://www.w3.org/2000/svg">
<path d="M43.8819 38.9602C43.8819 42.1909 41.2633 44.8042 38.0326 44.8042H5.86727C2.64327 44.8042 0.0245972 42.1909 0.0245972 38.9602V6.79487C0.0245972 3.57087 2.64327 0.952202 5.86727 0.952202H38.0326C41.2633 0.952202 43.8819 3.57087 43.8819 6.79487V38.9602Z" fill="#D99E82"/>
<path d="M40.9546 38.9602C40.9546 40.5762 39.6426 41.8882 38.0333 41.8882H5.86665C4.25198 41.8882 2.94531 40.5762 2.94531 38.9602V6.79485C2.94531 5.18019 4.25198 3.87352 5.86665 3.87352H38.0333C39.6426 3.87352 40.9546 5.18019 40.9546 6.79485V38.9602Z" fill="#5C913B"/>
<path d="M15.4805 13.7836C15.9965 13.7836 16.3952 14.0223 16.3952 14.5556C16.3952 15.0956 15.9965 15.3276 15.5512 15.3276H11.6498C11.1338 15.3276 10.7352 15.0956 10.7352 14.5556C10.7352 14.3076 10.8898 14.0983 11.0032 13.957C11.9778 12.805 13.0285 11.7476 13.9192 10.465C14.1258 10.1623 14.3285 9.7943 14.3285 9.37163C14.3285 8.89697 13.9658 8.47697 13.4845 8.47697C12.1432 8.47697 12.7845 10.369 11.6618 10.369C11.1045 10.369 10.8072 9.97297 10.8072 9.51563C10.8072 8.04763 12.1138 6.86763 13.5565 6.86763C14.9938 6.86763 16.1512 7.81163 16.1512 9.29563C16.1512 10.9223 14.3405 12.537 13.3485 13.7836H15.4805ZM5.99782 20.209C5.99782 19.7876 6.27116 19.5023 6.69782 19.5023C7.13116 19.5023 7.39783 19.7876 7.39783 20.209V21.901H9.09649C9.53116 21.901 9.79782 22.181 9.79782 22.6023C9.79782 23.0236 9.53116 23.309 9.09649 23.309H7.39783V25.001C7.39783 25.4223 7.13116 25.701 6.69782 25.701C6.27116 25.701 5.99782 25.4223 5.99782 25.001V23.309H4.30583C3.87116 23.309 3.60449 23.0236 3.60449 22.6023C3.60449 22.181 3.87116 21.901 4.30583 21.901H5.99782V20.209ZM15.4805 24.0156C15.9965 24.0156 16.3952 24.253 16.3952 24.793C16.3952 25.3276 15.9965 25.565 15.5512 25.565H11.6498C11.1338 25.565 10.7352 25.3276 10.7352 24.793C10.7352 24.5436 10.8898 24.3303 11.0032 24.1943C11.9778 23.041 13.0285 21.9836 13.9125 20.697C14.1258 20.393 14.3285 20.0316 14.3285 19.609C14.3285 19.1343 13.9658 18.713 13.4845 18.713C12.1432 18.713 12.7845 20.6063 11.6618 20.6063C11.0978 20.6063 10.8072 20.209 10.8072 19.753C10.8072 18.2796 12.1138 17.097 13.5565 17.097C14.9938 17.097 16.1512 18.041 16.1512 19.5263C16.1512 21.153 14.3338 22.7676 13.3485 24.0156H15.4805ZM16.7098 28.689H4.53116C4.12049 28.689 3.79382 28.357 3.79382 27.9516C3.79382 27.5476 4.12049 27.2223 4.53116 27.2223H16.7098C17.1138 27.2223 17.4405 27.5476 17.4405 27.9516C17.4405 28.357 17.1138 28.689 16.7098 28.689" fill="white"/>
<path d="M52.6518 53.5801V50.6534C52.6518 45.8134 48.7212 41.8881 43.8812 41.8881H20.4852C15.6412 41.8881 11.7158 45.8134 11.7158 50.6534V53.5801H52.6518Z" fill="#E1E8ED"/>
<path d="M25.8068 42.0308C28.3601 43.8842 29.9748 44.2988 32.1841 44.2988C34.3921 44.2988 36.0081 43.8842 38.5561 42.0308V36.4602H25.8068V42.0308Z" fill="#FFDC5D"/>
<path d="M25.7943 38.9188C27.5756 40.9268 29.7783 41.4722 32.1783 41.4722C34.5716 41.4722 36.7796 40.9268 38.5556 38.9188V33.8188H25.7943V38.9188Z" fill="#F9CA55"/>
<path d="M22.5997 24.247C22.5997 26.367 21.525 28.083 20.201 28.083C18.8823 28.083 17.8077 26.367 17.8077 24.247C17.8077 22.1323 18.8823 20.411 20.201 20.411C21.525 20.411 22.5997 22.1323 22.5997 24.247ZM46.5597 24.247C46.5597 26.367 45.485 28.083 44.161 28.083C42.837 28.083 41.7677 26.367 41.7677 24.247C41.7677 22.1323 42.837 20.411 44.161 20.411C45.485 20.411 46.5597 22.1323 46.5597 24.247Z" fill="#FFDC5D"/>
<path d="M19.726 25.7432C19.726 17.5725 25.302 10.9459 32.1833 10.9459C39.0593 10.9459 44.642 17.5725 44.642 25.7432C44.642 33.9205 39.066 40.5405 32.1833 40.5405C25.302 40.5405 19.726 33.9205 19.726 25.7432Z" fill="#FFDC5D"/>
<path d="M38.7988 32.1558L36.9455 31.7584C36.3522 31.6158 35.2295 31.6518 34.7015 31.6518H29.3095C28.7748 31.6518 27.6535 31.6158 27.0588 31.7584L25.2135 32.1558C24.7015 32.3038 24.4108 32.7331 24.5535 33.2371C24.6722 33.6584 25.0575 33.8784 25.4735 33.8784C25.5628 33.8784 25.6522 33.8424 25.7348 33.8251L27.5882 33.2784C27.3682 33.5638 27.3322 33.9491 27.4935 34.2704C27.7308 34.7384 28.3055 34.9224 28.7748 34.6904L30.2895 33.9371C30.3308 34.4184 30.7348 34.7931 31.2215 34.7864C31.5775 34.7864 31.9162 34.5971 32.0828 34.2584L32.1842 34.0571L32.1068 34.2584C32.2722 34.5971 32.4335 34.7864 32.7895 34.7864C33.2708 34.7864 33.6748 34.4184 33.7148 33.9371L35.2295 34.6904C35.7055 34.9224 36.2748 34.7384 36.5122 34.2704C36.6722 33.9491 36.6375 33.5638 36.4175 33.2784L38.2708 33.8184C38.3588 33.8424 38.4482 33.8838 38.5308 33.8838C38.9535 33.8838 39.3335 33.6584 39.4575 33.2371C39.6002 32.7331 39.3095 32.3038 38.7988 32.1558ZM32.1842 6.03442C40.4375 6.03442 45.6042 12.1331 45.6042 17.2104C45.6042 22.2878 44.5708 24.3118 43.5375 22.2878L41.4708 18.2264C41.4708 18.2264 35.2775 18.2264 33.2162 16.1878C33.2162 16.1878 36.3108 22.2878 30.1175 16.1878C30.1175 16.1878 31.1508 20.2558 24.9575 15.1744C24.9575 15.1744 21.8575 17.2104 20.8295 22.2878C20.5455 23.6944 18.7642 22.2878 18.7642 17.2104C18.7642 12.1331 22.8908 6.03442 32.1842 6.03442Z" fill="#FFAC33"/>
<path d="M26.3348 25.8027C25.5334 25.8027 24.8748 25.1427 24.8748 24.3414V22.8814C24.8748 22.0734 25.5334 21.4201 26.3348 21.4201C27.1374 21.4201 27.7961 22.0734 27.7961 22.8814V24.3414C27.7961 25.1427 27.1374 25.8027 26.3348 25.8027ZM38.0321 25.8027C37.2254 25.8027 36.5654 25.1427 36.5654 24.3414V22.8814C36.5654 22.0734 37.2254 21.4201 38.0321 21.4201C38.8348 21.4201 39.4934 22.0734 39.4934 22.8814V24.3414C39.4934 25.1427 38.8348 25.8027 38.0321 25.8027Z" fill="#662113"/>
<path d="M33.276 29.8223H31.0854C30.48 29.8223 29.9934 29.3356 29.9867 28.7303C29.9867 28.1249 30.4854 27.6263 31.0854 27.6263H33.276C33.8827 27.6263 34.3747 28.1249 34.3747 28.7303C34.3747 29.3356 33.8827 29.8223 33.276 29.8223Z" fill="#C1694F"/>
<path d="M32.0945 46.0986C32.0945 46.0986 37.0358 49.7439 38.0798 50.1599C38.3065 50.2546 37.5398 44.8092 37.5398 44.8092H26.6438C26.6438 44.8092 25.8771 50.3386 26.2998 50.1132C27.2371 49.6146 32.0945 46.0986 32.0945 46.0986Z" fill="#99AAB5"/>
<path d="M34.0124 49.8394C34.0124 49.8394 34.5591 48.9247 34.7898 48.5154C35.0578 48.0341 35.4498 46.2234 35.4498 46.2234L32.2551 44.8101C32.2551 44.7981 32.0178 44.8207 32.0178 44.8207L31.7498 44.8807L31.5004 44.9701C31.1804 45.0781 31.6378 44.9874 31.6378 44.9994L28.7511 46.2167C28.7511 46.2167 29.1671 48.0341 29.4404 48.5154C29.6658 48.9247 30.2071 49.8394 30.2071 49.8394C30.2071 49.8394 29.1084 50.6581 28.6978 53.5874H35.5204C35.1111 51.2527 34.0124 49.8394 34.0124 49.8394Z" fill="#BE1931"/>
<path d="M25.2065 39.8759C26.0318 40.7066 32.0945 44.8212 32.0945 44.8212C32.0945 44.8212 28.9891 46.6439 26.1211 49.9946C25.8358 50.3266 23.8651 43.2372 23.8051 41.6452C23.7878 41.2052 24.8145 39.4839 25.2065 39.8759ZM39.0118 39.8759C38.1811 40.7066 32.1238 44.8212 32.1238 44.8212C32.1238 44.8212 35.2305 46.6439 38.0971 49.9946C38.3825 50.3266 40.3478 43.2372 40.4078 41.6452C40.4265 41.2052 39.4038 39.4839 39.0118 39.8759" fill="#F5F8FA"/>
<path d="M32.1186 45.8202C32.6892 45.7909 34.3746 46.9482 34.1972 47.6429C33.5199 50.3202 32.9559 49.6802 32.1666 49.6802C31.2692 49.6802 30.7532 50.3736 30.1292 47.7616C29.9932 47.1909 31.2986 45.8602 32.1186 45.8202ZM35.0879 53.5869H29.2092C29.2092 53.5869 29.9932 50.4216 32.1546 50.4216C34.3159 50.4216 35.0879 53.5869 35.0879 53.5869" fill="#DD2E44"/>
</svg>
