<svg width="40" height="29" viewBox="0 0 40 29" fill="none" xmlns="http://www.w3.org/2000/svg">
<path fill-rule="evenodd" clip-rule="evenodd" d="M35.3799 8.84999C34.0599 9.96999 33.7499 13.91 33.7499 13.91H32.8199C32.8199 13.91 32.8899 10.68 31.3099 9.07999C29.7299 7.47999 26.8799 7.23999 26.8799 7.23999L26.9699 6.25999C26.9699 6.25999 30.2499 5.86999 31.3399 4.76999C32.8499 3.25999 32.7799 0.509995 32.7799 0.509995L33.7099 0.429993C33.7099 0.429993 33.8799 3.53999 35.1699 4.83999C36.4599 6.13999 39.7799 6.25999 39.7799 6.25999L39.8199 7.3C39.8399 7.3 36.9999 7.46999 35.3799 8.84999Z" fill="url(#paint0_linear_319_8284)"/>
<path fill-rule="evenodd" clip-rule="evenodd" d="M28.1702 14.15C26.4602 15.08 5.71017 27.07 3.92017 28.11C2.13017 29.15 -0.32983 25.18 1.57017 24.07C3.47017 22.96 23.3202 11.27 25.4902 9.99C27.6502 8.71 29.8802 13.21 28.1702 14.15ZM7.17017 22.57L2.69017 25.2L3.49017 26.54L7.94017 23.96L7.17017 22.57ZM26.0602 11.48L21.5202 14.13L22.3902 15.56L26.8802 12.94L26.0602 11.48Z" fill="url(#paint1_linear_319_8284)"/>
<path fill-rule="evenodd" clip-rule="evenodd" d="M20.1502 8.17C19.3802 8.83 19.2202 11.15 19.2202 11.15H18.6602C18.6602 11.15 18.6602 9.23 17.7302 8.28C16.8002 7.34 15.1602 7.21 15.1602 7.21L15.2202 6.63C15.2202 6.63 17.1902 6.42 17.8302 5.78C18.7202 4.89 18.6301 3.24 18.6301 3.24L19.1802 3.19C19.1802 3.19 19.3001 5 20.0602 5.77C20.8202 6.53 22.7602 6.63 22.7602 6.63L22.7802 7.25C22.7802 7.25 21.1102 7.36 20.1502 8.17Z" fill="url(#paint2_linear_319_8284)"/>
<path fill-rule="evenodd" clip-rule="evenodd" d="M34.8305 20.0199L34.8605 20.6399C34.8605 20.6399 33.1905 20.7499 32.2405 21.5699C31.4605 22.2299 31.2805 24.5499 31.2805 24.5499H30.7405C30.7405 24.5499 30.7405 22.6299 29.8105 21.6899C28.8805 20.7499 27.2305 20.6299 27.2305 20.6299L27.2905 20.0299C27.2905 20.0299 29.2605 19.8199 29.9105 19.1699C30.7905 18.2799 30.7105 16.6399 30.7105 16.6399L31.2605 16.5899C31.2605 16.5899 31.3505 18.4399 32.1105 19.1999C32.8605 19.9599 34.8305 20.0199 34.8305 20.0199Z" fill="url(#paint3_linear_319_8284)"/>
<defs>
<linearGradient id="paint0_linear_319_8284" x1="19.8839" y1="36.218" x2="34.1718" y2="5.1208" gradientUnits="userSpaceOnUse">
<stop stop-color="#DC46AA"/>
<stop offset="1" stop-color="#51D2DA"/>
</linearGradient>
<linearGradient id="paint1_linear_319_8284" x1="9.23217" y1="31.3238" x2="23.5201" y2="0.226598" gradientUnits="userSpaceOnUse">
<stop stop-color="#DC46AA"/>
<stop offset="1" stop-color="#51D2DA"/>
</linearGradient>
<linearGradient id="paint2_linear_319_8284" x1="8.04386" y1="30.7779" x2="22.3318" y2="-0.319291" gradientUnits="userSpaceOnUse">
<stop stop-color="#DC46AA"/>
<stop offset="1" stop-color="#51D2DA"/>
</linearGradient>
<linearGradient id="paint3_linear_319_8284" x1="23.0947" y1="37.6928" x2="37.3826" y2="6.5956" gradientUnits="userSpaceOnUse">
<stop stop-color="#DC46AA"/>
<stop offset="1" stop-color="#51D2DA"/>
</linearGradient>
</defs>
</svg>
