<svg width="48" height="49" viewBox="0 0 48 49" fill="none" xmlns="http://www.w3.org/2000/svg">
<ellipse cx="24" cy="24.5" rx="24" ry="24.5" fill="white"/>
<mask id="mask0_19_134" style="mask-type:alpha" maskUnits="userSpaceOnUse" x="0" y="0" width="48" height="49">
<path d="M48 24.4973C48 38.0302 37.2551 49 24.0033 49C10.7435 49 0 38.0302 0 24.4973C0 10.9698 10.7435 8.52355e-07 24.0033 8.52355e-07C37.2551 8.52355e-07 48 10.9698 48 24.4973Z" fill="white"/>
</mask>
<g mask="url(#mask0_19_134)">
<path d="M23.7781 15.0698C23.0381 15.0698 22.4341 14.4658 22.4341 13.7311V4.36179C22.4341 3.61646 23.0381 3.01779 23.7781 3.01779C24.5181 3.01779 25.1155 3.61646 25.1155 4.36179V13.7311C25.1155 14.4658 24.5181 15.0698 23.7781 15.0698ZM14.9621 21.0951C14.8261 21.0951 14.6915 21.0791 14.5595 21.0298L3.79281 17.6311C3.09014 17.3965 2.70881 16.6365 2.94881 15.9338C3.17814 15.2498 3.90614 14.8685 4.59681 15.0751L15.3635 18.4791C16.0715 18.6911 16.4728 19.4418 16.2555 20.1498C16.0875 20.7138 15.5555 21.1058 14.9621 21.0951ZM33.2075 20.7045C32.4688 20.7045 31.8701 20.0951 31.8701 19.3551C31.8755 18.7671 32.2661 18.2458 32.8328 18.0831L41.8701 15.4605C42.5781 15.2551 43.3221 15.6618 43.5248 16.3698C43.7368 17.0765 43.3288 17.8258 42.6168 18.0285L33.5781 20.6498C33.4581 20.6871 33.3328 20.7045 33.2075 20.7045ZM35.8888 40.7325C35.4595 40.7325 35.0568 40.5378 34.8115 40.1951L27.4968 30.3738C27.0461 29.7911 27.1541 28.9471 27.7368 28.4965C28.3181 28.0405 29.1621 28.1485 29.6181 28.7298C29.6301 28.7525 29.6395 28.7631 29.6448 28.7791L36.9555 38.5911C37.4008 39.1885 37.2755 40.0258 36.6835 40.4671C36.4541 40.6351 36.1715 40.7325 35.8888 40.7325ZM11.3888 40.6178C10.6488 40.6178 10.0515 40.0205 10.0515 39.2751C10.0568 39.0031 10.1395 38.7485 10.2968 38.5191L17.1541 28.6445C17.5781 28.0351 18.4101 27.8871 19.0141 28.3071C19.6235 28.7298 19.7755 29.5685 19.3568 30.1711L12.4928 40.0471C12.2435 40.4071 11.8301 40.6178 11.3888 40.6178Z" fill="#CCD6DD"/>
<path d="M4.35735 36.5774C3.77068 36.5774 3.23068 36.1867 3.06802 35.588L0.148015 24.7934C-0.0586516 24.0747 0.354682 23.34 1.06135 23.14C1.77868 22.9334 2.51868 23.3467 2.71601 24.0587C2.72001 24.0694 2.72001 24.0747 2.73068 24.092L5.65201 34.8814C5.84135 35.6054 5.42401 36.3374 4.71068 36.5294C4.59735 36.5614 4.47735 36.5774 4.35735 36.5774ZM29.128 45.8614H17.0827C16.3427 45.8614 15.7453 45.2627 15.7453 44.528C15.7453 43.7827 16.3427 43.1854 17.0827 43.1854H29.128C29.8747 43.1854 30.472 43.7827 30.472 44.528C30.472 45.2627 29.8747 45.8614 29.128 45.8614ZM42.6867 36.66C41.952 36.66 41.348 36.06 41.348 35.328C41.348 35.2134 41.36 35.104 41.392 35L44.2307 23.4547C44.416 22.7374 45.1453 22.296 45.8573 22.4814C46.5747 22.66 47.004 23.38 46.8293 24.0974L43.992 35.6427C43.844 36.2347 43.3067 36.66 42.6867 36.66ZM40.256 10.632C40.0267 10.632 39.7933 10.572 39.592 10.452L29.4653 4.5947C28.8253 4.2307 28.6013 3.40936 28.9773 2.76803C29.3467 2.12536 30.1667 1.90803 30.804 2.27736L40.9307 8.1347C41.572 8.50403 41.7947 9.3267 41.4253 9.9627C41.18 10.376 40.74 10.632 40.256 10.632ZM7.04401 10.632C6.30401 10.6374 5.70135 10.0387 5.70135 9.30403C5.69468 8.86403 5.90668 8.45603 6.26135 8.21203L14.5493 2.26269C15.1467 1.83203 15.9787 1.97336 16.4147 2.57736C16.8493 3.17469 16.708 4.01336 16.104 4.4427L7.82135 10.3867C7.59335 10.5494 7.32135 10.632 7.04401 10.632Z" fill="#CCD6DD"/>
<path d="M33.8053 18.4356L24.1587 11.6316C23.696 11.2996 23.0653 11.3049 22.604 11.6423L13.0093 18.5556C12.548 18.8929 12.3453 19.4743 12.504 20.0183L15.848 31.5103C16.0227 32.0796 16.54 32.4769 17.1373 32.4769H29.1347C29.7053 32.4769 30.2173 32.1076 30.4067 31.5636L34.3067 19.9583C34.492 19.3983 34.2947 18.7783 33.8053 18.4356ZM8.74533 7.5316C8.496 7.21693 8.11467 7.03693 7.71333 7.03693H3.69333C3.4 7.03693 3.11733 7.13026 2.88933 7.30226L-2.46267 11.3169C-2.80533 11.5729 -3 11.9689 -3 12.3889V22.5476C-3 22.9383 -2.83333 23.3076 -2.53333 23.5649L0.540001 26.1849C1.1 26.6636 1.948 26.5983 2.42667 26.0329C2.48133 25.9676 2.53067 25.8969 2.568 25.8209L7.088 17.7943C7.15867 17.6689 7.20667 17.5383 7.23333 17.4023L9.01733 8.64093C9.1 8.24893 8.99733 7.84226 8.74533 7.5316ZM31.456 -1.19774C31.348 -1.69774 30.88 -2.03907 30.3693 -1.9964L16.5933 -0.603074C16.196 -0.560407 15.8973 -0.369739 15.768 0.00492787C15.6587 0.234261 14.6187 2.14759 13.912 3.43159C13.6467 3.91426 13.82 4.52359 14.3093 4.79693C14.4133 4.84626 14.5213 4.88359 14.6307 4.90626L23.168 6.29693C23.272 6.31826 23.3867 6.31826 23.4947 6.29693L31.6413 4.95959C32.18 4.86626 32.556 4.35559 32.468 3.81159C32.468 3.79693 32.4627 3.7796 32.4627 3.76893L31.456 -1.19774ZM50.1533 22.6236L44.6827 8.78893C44.5413 8.42359 44.1987 8.17426 43.812 8.1516L39.3467 7.86893C39.0427 7.85293 38.7387 7.97693 38.532 8.20626C38.3253 8.43426 38.244 8.74893 38.2973 9.04893L39.864 17.3436C39.8867 17.4516 39.924 17.5543 39.984 17.6463C41.98 20.9969 44.204 24.7436 44.508 25.3863C44.5467 25.4996 44.596 25.4943 44.6667 25.5916C44.8507 25.8489 45.1613 25.7836 45.488 25.7836H45.4933C45.8253 25.7836 45.9933 25.9836 49.7507 23.6129C50.16 23.3529 50.328 23.0703 50.1533 22.6236ZM18.888 44.2996L12.868 37.6063C12.7867 37.5196 12.6893 37.4423 12.58 37.3889C4.7 33.2823 4.55733 33.2276 4.46 33.1943C4.352 33.1623 4.248 33.1463 4.14 33.1463C3.22533 33.1463 3.128 33.2716 1.93733 38.4383C1.92133 38.5089 1.90933 38.5783 1.90933 38.6503L1.796 44.1703C1.79067 44.5396 1.98133 44.8769 2.296 45.0623L12.112 50.7503C12.488 50.9676 12.96 50.9183 13.2867 50.6303L18.8067 45.7196C19.008 45.5463 19.128 45.2956 19.144 45.0289C19.156 44.7569 19.068 44.5023 18.888 44.2996ZM45.188 38.4263L43.5733 34.1303C43.3773 33.6089 42.8013 33.3476 42.284 33.5436C42.268 33.5489 42.2467 33.5596 42.2293 33.5649L34.0827 37.1369C33.9427 37.1969 33.8173 37.2903 33.72 37.4089L28.0307 44.2129C27.676 44.6423 27.7307 45.2743 28.156 45.6316L28.1613 45.6383C34.5773 50.8863 34.7147 50.8863 35.16 50.8863C35.536 50.8863 35.6707 50.8863 43.844 45.7036C44.084 45.5516 44.2533 45.3009 44.296 45.0129L45.248 38.9383C45.2707 38.7636 45.2533 38.5836 45.188 38.4263Z" fill="#292F33"/>
</g>
</svg>
