<svg width="24" height="24" viewBox="0 0 24 24" fill="none" xmlns="http://www.w3.org/2000/svg">
<path d="M12 24C18.6274 24 24 18.6274 24 12C24 5.37258 18.6274 0 12 0C5.37258 0 0 5.37258 0 12C0 18.6274 5.37258 24 12 24Z" fill="#F4900C"/>
<path d="M11.9997 21.6668C17.3384 21.6668 21.6663 17.3389 21.6663 12.0002C21.6663 6.66141 17.3384 2.3335 11.9997 2.3335C6.66092 2.3335 2.33301 6.66141 2.33301 12.0002C2.33301 17.3389 6.66092 21.6668 11.9997 21.6668Z" fill="#FFD983"/>
<path d="M11.9997 20.6668C16.7861 20.6668 20.6663 16.7866 20.6663 12.0002C20.6663 7.2137 16.7861 3.3335 11.9997 3.3335C7.21321 3.3335 3.33301 7.2137 3.33301 12.0002C3.33301 16.7866 7.21321 20.6668 11.9997 20.6668Z" fill="#F5F8FA"/>
<path d="M11.9997 5.3335L13.0203 9.53616L16.7137 7.28616L14.4637 10.9795L18.6663 12.0002L14.4637 13.0208L16.7137 16.7142L13.0203 14.4642L11.9997 18.6668L10.979 14.4642L7.28567 16.7142L9.53567 13.0208L5.33301 12.0002L9.53567 10.9795L7.28567 7.28616L10.979 9.53616L11.9997 5.3335Z" fill="#CCD6DD"/>
<path d="M11.5615 13.832L17.4129 17.4194L13.8269 11.5674L11.5615 13.832Z" fill="#292F33"/>
<path d="M12.4379 10.1782L6.58594 6.59082L10.1726 12.4435L12.4379 10.1782Z" fill="#DD2E44"/>
<path d="M11.9996 14.0421C13.1244 14.0421 14.0362 13.1302 14.0362 12.0054C14.0362 10.8806 13.1244 9.96875 11.9996 9.96875C10.8747 9.96875 9.96289 10.8806 9.96289 12.0054C9.96289 13.1302 10.8747 14.0421 11.9996 14.0421Z" fill="#8899A6"/>
<path d="M12 13.1041C12.6068 13.1041 13.0987 12.6122 13.0987 12.0054C13.0987 11.3986 12.6068 10.9067 12 10.9067C11.3933 10.9067 10.9014 11.3986 10.9014 12.0054C10.9014 12.6122 11.3933 13.1041 12 13.1041Z" fill="#F5F8FA"/>
</svg>
