<svg width="41" height="32" viewBox="0 0 41 32" fill="none" xmlns="http://www.w3.org/2000/svg">
<path fill-rule="evenodd" clip-rule="evenodd" d="M31.9902 8.42802C31.9902 4.09642 36.2599 5.4197 35.8799 7.44746C34.7599 7.7997 35.0498 8.79932 36.0298 8.79932C37.2398 8.79932 37.4902 8.00916 37.4902 6.78108C37.4902 4.4582 35.1002 3.82988 33.9502 3.82988H7.3999C6.2499 3.82988 3.8501 4.4582 3.8501 6.78108C3.8501 8.0282 4.10006 8.79932 5.31006 8.79932C6.27006 8.79932 6.5702 7.7997 5.4502 7.44746C5.0802 5.4197 9.33984 4.11546 9.33984 8.42802C9.33984 13.2166 0.390137 13.6926 0.390137 6.6002C0.390137 2.08772 5.1098 0.869141 7.2998 0.869141H34.02C36.22 0.869141 40.9402 2.04964 40.9302 6.6002C40.9402 13.6926 31.9902 13.2166 31.9902 8.42802ZM30.21 5.79099L30.46 12.0742L11.2202 12.0361L11.0098 5.63867L30.21 5.79099ZM9.25977 13.6736H32.3901C32.3901 13.6736 32.7199 17.5768 29.6299 18.0908L30.8701 31.4093H27.2598L26.7002 18.1289H24.7598L24.9102 31.4188H22.0098L21.9502 18.1194H19.8501L19.7002 31.4378H16.75L16.8901 18.1098H14.7798L14.25 31.4569H10.23L11.4702 17.9576C8.80021 17.2721 9.25977 13.6736 9.25977 13.6736Z" fill="white"/>
</svg>
