<svg width="23" height="20" viewBox="0 0 23 20" fill="none" xmlns="http://www.w3.org/2000/svg">
<path fill-rule="evenodd" clip-rule="evenodd" d="M17.0961 0.0617091C16.6942 0.209289 16.1306 0.702741 15.8551 1.1482C15.7837 1.26367 15.6167 1.49069 15.4839 1.65271C15.0618 2.16765 14.8833 2.7227 14.9572 3.28994C15.0268 3.82468 15.211 4.19178 15.5891 4.54937C16.8092 5.70329 18.8202 4.97855 19.0358 3.30727C19.1165 2.68133 18.8844 2.03188 18.4146 1.56935L18.1526 1.3114L18.294 1.23449C18.3717 1.19224 18.4846 1.11688 18.5449 1.06708C18.6393 0.989082 18.6473 0.963198 18.6031 0.880547C18.5178 0.721254 18.2669 0.641147 17.842 0.63755C17.6309 0.635795 17.4587 0.62373 17.4594 0.610833C17.46 0.597891 17.5193 0.509756 17.591 0.414996C17.7312 0.229644 17.7521 0.131068 17.6687 0.0477146C17.5995 -0.0214687 17.3029 -0.0142302 17.0961 0.0617091ZM4.85854 1.0888C4.51118 1.19983 4.25792 1.35746 3.99184 1.62818C3.73612 1.88838 3.48628 2.36362 3.44088 2.67629L3.41148 2.87879L3.22903 2.85822C3.01885 2.83453 2.8889 2.93565 2.8778 3.13144C2.8725 3.22515 2.85539 3.24068 2.78357 3.21716C2.59796 3.1564 2.40769 3.14618 2.28152 3.19014C2.15057 3.23581 2.14938 3.23475 1.82167 2.76078C1.46382 2.2432 1.34397 2.1265 1.09299 2.05131C0.442174 1.85631 -0.200042 2.55139 0.0587041 3.1707C0.0922209 3.25085 0.340746 3.64726 0.61103 4.05162L1.10242 4.78675L1.11058 5.1657C1.11505 5.37413 1.14361 5.58905 1.17402 5.64336C1.24316 5.7669 1.38806 5.77014 1.51498 5.65091L1.61197 5.55979L1.89568 5.96896C2.05173 6.19406 2.33482 6.61263 2.52482 6.89919L2.87026 7.42019L2.85565 8.87335L2.841 10.3265L2.38558 12.1809C1.64365 15.202 1.65018 15.1715 1.70616 15.3583C1.76025 15.5389 1.931 15.7625 2.07542 15.8421C2.1271 15.8705 2.32732 15.9046 2.52035 15.9178L2.87131 15.9419L2.89325 17.6125L2.91518 19.2831L3.04793 19.4977C3.33927 19.9688 3.93617 20.135 4.4284 19.8823C4.72334 19.7309 4.92983 19.4698 4.99498 19.1661C5.02437 19.0291 5.04289 18.3582 5.04289 17.4313V15.92H5.45676H5.87067L5.88458 17.5541C5.8998 19.3479 5.89871 19.3398 6.17772 19.6575C6.49749 20.0218 7.10325 20.1052 7.52673 19.8434C7.79241 19.6791 7.97039 19.3983 8.02668 19.0545C8.05019 18.9109 8.06954 18.149 8.06967 17.3614L8.06993 15.9293L8.41335 15.9136C8.70851 15.9002 8.7794 15.8807 8.9179 15.7751C9.12689 15.6157 9.22657 15.4198 9.22363 15.1742C9.22236 15.0656 8.95238 13.8857 8.62366 12.5523L8.02606 10.1277V8.78907V7.45042L8.38391 6.91432C8.58071 6.61943 8.86929 6.19433 9.0252 5.96962L9.30869 5.56106L9.40503 5.65156C9.53129 5.77019 9.67624 5.76668 9.74529 5.64336C9.77569 5.58905 9.80425 5.37413 9.80873 5.1657L9.81689 4.78675L10.3083 4.05162C10.5786 3.64726 10.8271 3.25085 10.8606 3.1707C11.1193 2.55139 10.4771 1.85631 9.82632 2.05131C9.57534 2.1265 9.45548 2.2432 9.09763 2.76078C8.76992 3.23475 8.76874 3.23581 8.63779 3.19014C8.51162 3.14618 8.32135 3.1564 8.13574 3.21716C8.06392 3.24068 8.04681 3.22515 8.0415 3.13144C8.0304 2.93565 7.90046 2.83453 7.69028 2.85822L7.50782 2.87879L7.47843 2.67629C7.4081 2.19222 7.00353 1.59927 6.54496 1.30833C6.07849 1.01238 5.38139 0.921609 4.85854 1.0888ZM12.136 2.05772C11.6835 2.19354 11.4192 2.74617 11.5999 3.17869C11.6353 3.26323 12.2886 4.26215 13.0519 5.39852L14.4396 7.46463L14.4089 13.1071C14.3874 17.072 14.3923 18.8336 14.4255 19.0322C14.4869 19.3991 14.659 19.6756 14.9304 19.8434C15.3539 20.1052 15.9597 20.0218 16.2794 19.6575C16.5689 19.3278 16.5575 19.4462 16.5718 16.6328L16.5847 14.0774H16.9995H17.4143V16.5101C17.4143 18.1029 17.4308 19.0198 17.4622 19.1661C17.5273 19.4698 17.7338 19.7309 18.0288 19.8823C18.521 20.1351 19.1179 19.9687 19.4092 19.4977L19.542 19.2829L19.5534 13.365L19.5648 7.44721L20.9482 5.38887C21.7091 4.2568 22.3604 3.26178 22.3955 3.17772C22.4852 2.96306 22.475 2.73108 22.3658 2.50559C22.1244 2.00687 21.4534 1.8642 21.0489 2.22552C20.9751 2.29154 20.3776 3.14429 19.7213 4.12058C18.9844 5.21677 18.5038 5.89206 18.4647 5.88631C18.4298 5.88118 18.2934 5.84665 18.1615 5.80954C17.8198 5.71342 16.1753 5.71342 15.8336 5.80954C15.7016 5.84665 15.5641 5.88118 15.5279 5.88631C15.4856 5.89228 15.0378 5.26397 14.2776 4.1319C13.6261 3.16184 13.0536 2.32497 13.0053 2.2722C12.8105 2.05899 12.438 1.96708 12.136 2.05772ZM3.96671 4.46465C4.49078 5.01409 5.24495 5.24186 5.94038 5.06072C6.32464 4.96061 6.67705 4.75354 6.94992 4.46746C7.18463 4.22139 7.19748 4.21438 7.30843 4.27193C7.38841 4.31343 7.45601 4.31927 7.5302 4.29106C7.6722 4.23706 7.71897 4.23991 7.71897 4.30251C7.71897 4.33111 7.76051 4.39872 7.81132 4.45281L7.90366 4.55108L7.44689 5.22335C7.17542 5.62296 6.96444 5.89184 6.9268 5.88631C6.89201 5.88118 6.75554 5.84665 6.62362 5.80954C6.44235 5.75856 6.15794 5.74207 5.45965 5.74207C4.76137 5.74207 4.47696 5.75856 4.29569 5.80954C4.16377 5.84665 4.02817 5.88118 3.99439 5.88631C3.95912 5.89166 3.73731 5.60923 3.47396 5.2237L3.01503 4.55178L3.10768 4.45312C3.15862 4.39889 3.20034 4.33111 3.20034 4.30251C3.20034 4.24 3.2471 4.23706 3.38828 4.29075C3.4611 4.31844 3.52704 4.31295 3.59951 4.27312C3.65742 4.24127 3.7084 4.21328 3.7127 4.21091C3.71704 4.20854 3.83132 4.32273 3.96671 4.46465Z" fill="#0E1825"/>
</svg>
