<svg width="24" height="35" viewBox="0 0 24 35" fill="none" xmlns="http://www.w3.org/2000/svg">
<path d="M17.8839 33.8236C19.0093 33.8653 19.9262 32.9483 19.9262 31.7813C19.9262 31.6146 19.8845 31.4062 19.8428 31.2394L17.8005 24.0705C17.6755 23.6121 17.3837 23.1953 17.0086 22.9452L9.83973 17.8186C8.92277 17.1517 7.6307 17.3184 6.96383 18.2354C6.29695 19.1107 6.46367 20.4027 7.38062 21.0696C7.38062 21.1113 7.4223 21.1113 7.46398 21.153L14.0494 25.8628L15.925 32.3648C16.1334 33.2401 16.967 33.8236 17.8839 33.8236Z" fill="#2A6797"/>
<path d="M2.46604 30.7798C2.79948 30.7798 3.09124 30.6964 3.383 30.5714L9.55159 27.4871C10.2601 27.112 10.6769 26.4451 10.6769 25.6532V20.5266C10.6769 19.4012 9.75999 18.4426 8.63464 18.4426C7.50929 18.4426 6.59233 19.4012 6.59233 20.5266V24.4028L1.54909 26.8619C0.548778 27.4037 0.131981 28.6124 0.632137 29.6544C0.965575 30.3213 1.67413 30.7798 2.46604 30.7798Z" fill="#4289C1"/>
<path d="M0.0291824 27.9686C-0.0958576 27.5518 0.1959 27.2601 0.612698 27.1767C1.23789 27.0517 1.48797 27.01 1.48797 27.01C1.82141 27.01 2.48828 27.0933 2.61332 27.4268C3.32188 30.0526 3.2802 33.1369 2.82172 34.0122C2.61332 34.5123 1.82141 34.429 1.69637 33.9288L0.0291824 27.9686ZM17.1595 34.9708C16.7844 35.0958 16.451 34.8041 16.3676 34.3873C16.1592 33.8038 16.1175 33.5537 16.1175 33.5537C16.0759 33.2202 16.1175 32.5117 16.4927 32.3867C19.0351 31.5114 22.1611 31.3863 23.0364 31.8031C23.5365 32.0115 23.4948 32.7618 22.9947 32.9285L17.1595 34.9708Z" fill="#292F33"/>
<path d="M15.5085 3.34057C16.7589 3.59065 15.5085 5.54959 15.8837 6.7583C16.1337 7.63358 14.3832 7.71693 14.3832 7.71693C14.3832 7.71693 13.1328 7.46686 13.3412 9.4258C13.5496 11.4264 10.7987 12.135 10.5903 10.1344C10.3819 8.13373 12.0491 7.09174 11.1322 5.54959C8.96483 1.79842 15.5085 3.34057 15.5085 3.34057Z" fill="#F3D2A2"/>
<path d="M14.2294 0.00257587C16.6052 0.0442562 18.4808 2.04488 18.3974 4.37894C18.3141 6.75468 16.3551 8.58859 14.021 8.54691C11.6453 8.46355 9.76972 6.50461 9.85308 4.17054C9.89476 1.7948 11.8537 -0.0807829 14.2294 0.00257587Z" fill="#F3D2A2"/>
<path d="M5.40174 5.13806C6.5271 5.0547 7.61077 4.92966 9.44467 2.55392C10.6534 0.970087 11.8204 -0.0302258 14.6546 0.0114546C17.6139 0.053134 20.1564 2.55392 18.2391 3.88767C17.4055 4.38782 16.6969 4.17942 15.3215 4.51286C13.1958 5.13806 12.9041 7.38876 10.9868 7.88892C7.23565 8.88923 4.31807 5.17974 5.40174 5.13806Z" fill="#FFE51E"/>
<path d="M2.477 17.4314C2.85211 17.4314 3.22723 17.223 3.39395 16.8479C5.22786 13.1801 10.9797 11.2628 11.0213 11.2628C11.5632 11.0544 11.8549 10.4709 11.6465 9.92905C11.4798 9.4289 10.8963 9.13714 10.3545 9.30386C10.1044 9.38722 3.76907 11.5129 1.56004 15.9726C1.30997 16.4728 1.51836 17.0563 2.01852 17.3064C2.18524 17.3897 2.31028 17.4314 2.477 17.4314Z" fill="#F3D2A2"/>
<path d="M8.47584 9.89765C9.3928 8.3555 10.6432 7.60527 11.9769 8.31382C16.0615 10.3978 13.8942 13.5655 11.7269 19.9425C11.7269 19.9425 10.6849 20.9428 8.26745 20.2759C6.55858 19.8174 5.51659 21.0261 5.18315 20.6927C4.93307 20.3592 6.26682 13.6488 8.47584 9.89765Z" fill="#9268CA"/>
<path d="M13.6369 11.7703C13.6369 11.812 16.5128 16.5218 21.1809 17.4804C21.6394 17.5638 21.9728 17.9389 21.9728 18.439C21.9728 19.0225 21.5144 19.5227 20.9725 19.5227C20.8892 19.5227 20.8058 19.481 20.7641 19.481C15.2624 18.3557 12.0114 13.0624 11.8864 12.8123L13.6369 11.7703Z" fill="#F3D2A2"/>
</svg>
