<svg width="66" height="48" viewBox="0 0 66 48" fill="none" xmlns="http://www.w3.org/2000/svg">
<path fill-rule="evenodd" clip-rule="evenodd" d="M17.4874 22.5013C12.6874 22.5013 12.878 15.64 17.4154 15.64C21.9514 15.64 21.8727 22.4946 17.4874 22.4946V22.5013ZM53.6567 16.0626C49.574 16.0626 49.226 22.4226 53.946 22.4226C57.9234 22.416 57.818 16.056 53.6567 16.056V16.0626ZM47.7314 10.1373C43.6487 10.1373 43.2994 16.4973 48.0207 16.4973C51.9967 16.4906 51.8914 10.1306 47.7314 10.1306V10.1373ZM41.8047 16.0626C37.7234 16.0626 37.3754 22.4226 42.0954 22.4226C46.0714 22.416 45.966 16.056 41.8047 16.056V16.0626ZM48.0207 28.3413C51.9714 28.3413 51.8914 21.988 47.7314 21.988C43.57 21.988 43.2994 28.3413 48.0207 28.3413ZM17.4607 11.4733C7.48602 11.4733 7.00602 26.6626 17.6314 26.6626C27.3434 26.6626 27.4087 11.4733 17.4607 11.4733ZM42.4514 31.9426C41.3647 31.9426 24.822 32.16 23.6234 32.14C21.2927 34.116 17.79 38.244 9.00069 47.0853C-6.92598 43.596 2.05402 16.5293 9.72469 4.54663C13.162 3.2693 25.0447 0.438633 25.0447 0.438633L28.9367 4.69864L37.1834 4.89597L41.0087 0.030632C41.0087 0.030632 52.8594 3.28397 56.2367 4.55997C63.2234 15.9053 72.0714 43.6093 56.2767 47.0986C47.5927 38.2173 44.7674 33.8986 42.4514 31.9426Z" fill="white"/>
</svg>
