<svg width="2362" height="4" viewBox="0 0 2362 4" fill="none" xmlns="http://www.w3.org/2000/svg">
<circle cx="1187" cy="2" r="2" fill="white"/>
<circle cx="1204" cy="2" r="2" fill="white"/>
<circle cx="1195.5" cy="2" r="2" fill="white"/>
<circle cx="1238" cy="2" r="2" fill="white"/>
<circle cx="1255" cy="2" r="2" fill="white"/>
<circle cx="1246.5" cy="2" r="2" fill="white"/>
<circle cx="1212.5" cy="2" r="2" fill="white"/>
<circle cx="1229.5" cy="2" r="2" fill="white"/>
<circle cx="1221" cy="2" r="2" fill="white"/>
<circle cx="1340" cy="2" r="2" fill="#98989C"/>
<circle cx="1357" cy="2" r="2" fill="#98989C"/>
<circle cx="1348.5" cy="2" r="2" fill="#98989C"/>
<circle cx="1365.5" cy="2" r="2" fill="#98989C"/>
<circle cx="1374" cy="2" r="2" fill="#98989C"/>
<circle cx="1263.5" cy="2" r="2" fill="#98989C"/>
<circle cx="1280.5" cy="2" r="2" fill="#98989C"/>
<circle cx="1272" cy="2" r="2" fill="#98989C"/>
<circle cx="1314.5" cy="2" r="2" fill="#98989C"/>
<circle cx="1331.5" cy="2" r="2" fill="#98989C"/>
<circle cx="1323" cy="2" r="2" fill="#98989C"/>
<circle cx="1289" cy="2" r="2" fill="#98989C"/>
<circle cx="1306" cy="2" r="2" fill="#98989C"/>
<circle cx="1297.5" cy="2" r="2" fill="#98989C"/>
<circle cx="1382.5" cy="2" r="2" fill="#98989C"/>
<circle cx="1399.5" cy="2" r="2" fill="#98989C"/>
<circle cx="1391" cy="2" r="2" fill="#98989C"/>
<circle cx="1433.5" cy="2" r="2" fill="#98989C"/>
<circle cx="1450.5" cy="2" r="2" fill="#98989C"/>
<circle cx="1442" cy="2" r="2" fill="#98989C"/>
<circle cx="1408" cy="2" r="2" fill="#98989C"/>
<circle cx="1425" cy="2" r="2" fill="#98989C"/>
<circle cx="1416.5" cy="2" r="2" fill="#98989C"/>
<circle cx="1535.5" cy="2" r="2" fill="#98989C"/>
<circle cx="1544" cy="2" r="2" fill="#98989C"/>
<circle cx="1459" cy="2" r="2" fill="#98989C"/>
<circle cx="1476" cy="2" r="2" fill="#98989C"/>
<circle cx="1467.5" cy="2" r="2" fill="#98989C"/>
<circle cx="1510" cy="2" r="2" fill="#98989C"/>
<circle cx="1527" cy="2" r="2" fill="#98989C"/>
<circle cx="1518.5" cy="2" r="2" fill="#98989C"/>
<circle cx="1484.5" cy="2" r="2" fill="#98989C"/>
<circle cx="1501.5" cy="2" r="2" fill="#98989C"/>
<circle cx="1493" cy="2" r="2" fill="#98989C"/>
<circle cx="1628.5" cy="2" r="2" fill="#98989C"/>
<circle cx="1917.5" cy="2" r="2" fill="#98989C"/>
<circle cx="2155.5" cy="2" r="2" fill="#98989C"/>
<circle cx="1645.5" cy="2" r="2" fill="#98989C"/>
<circle cx="1934.5" cy="2" r="2" fill="#98989C"/>
<circle cx="2172.5" cy="2" r="2" fill="#98989C"/>
<circle cx="1637" cy="2" r="2" fill="#98989C"/>
<circle cx="1926" cy="2" r="2" fill="#98989C"/>
<circle cx="2164" cy="2" r="2" fill="#98989C"/>
<circle cx="1654" cy="2" r="2" fill="#98989C"/>
<circle cx="1943" cy="2" r="2" fill="#98989C"/>
<circle cx="2181" cy="2" r="2" fill="#98989C"/>
<circle cx="1662.5" cy="2" r="2" fill="#98989C"/>
<circle cx="1951.5" cy="2" r="2" fill="#98989C"/>
<circle cx="2189.5" cy="2" r="2" fill="#98989C"/>
<circle cx="1552" cy="2" r="2" fill="#98989C"/>
<circle cx="1841" cy="2" r="2" fill="#98989C"/>
<circle cx="1569" cy="2" r="2" fill="#98989C"/>
<circle cx="1858" cy="2" r="2" fill="#98989C"/>
<circle cx="1560.5" cy="2" r="2" fill="#98989C"/>
<circle cx="1849.5" cy="2" r="2" fill="#98989C"/>
<circle cx="1603" cy="2" r="2" fill="#98989C"/>
<circle cx="1892" cy="2" r="2" fill="#98989C"/>
<circle cx="2130" cy="2" r="2" fill="#98989C"/>
<circle cx="1620" cy="2" r="2" fill="#98989C"/>
<circle cx="1909" cy="2" r="2" fill="#98989C"/>
<circle cx="2147" cy="2" r="2" fill="#98989C"/>
<circle cx="1611.5" cy="2" r="2" fill="#98989C"/>
<circle cx="1900.5" cy="2" r="2" fill="#98989C"/>
<circle cx="2138.5" cy="2" r="2" fill="#98989C"/>
<circle cx="1577.5" cy="2" r="2" fill="#98989C"/>
<circle cx="1866.5" cy="2" r="2" fill="#98989C"/>
<circle cx="1594.5" cy="2" r="2" fill="#98989C"/>
<circle cx="1883.5" cy="2" r="2" fill="#98989C"/>
<circle cx="1586" cy="2" r="2" fill="#98989C"/>
<circle cx="1875" cy="2" r="2" fill="#98989C"/>
<circle cx="1671" cy="2" r="2" fill="#98989C"/>
<circle cx="1960" cy="2" r="2" fill="#98989C"/>
<circle cx="2198" cy="2" r="2" fill="#98989C"/>
<circle cx="1688" cy="2" r="2" fill="#98989C"/>
<circle cx="1977" cy="2" r="2" fill="#98989C"/>
<circle cx="2215" cy="2" r="2" fill="#98989C"/>
<circle cx="1679.5" cy="2" r="2" fill="#98989C"/>
<circle cx="1968.5" cy="2" r="2" fill="#98989C"/>
<circle cx="2206.5" cy="2" r="2" fill="#98989C"/>
<circle cx="1722" cy="2" r="2" fill="#98989C"/>
<circle cx="2011" cy="2" r="2" fill="#98989C"/>
<circle cx="2249" cy="2" r="2" fill="#98989C"/>
<circle cx="1739" cy="2" r="2" fill="#98989C"/>
<circle cx="2028" cy="2" r="2" fill="#98989C"/>
<circle cx="2266" cy="2" r="2" fill="#98989C"/>
<circle cx="1730.5" cy="2" r="2" fill="#98989C"/>
<circle cx="2019.5" cy="2" r="2" fill="#98989C"/>
<circle cx="2257.5" cy="2" r="2" fill="#98989C"/>
<circle cx="1696.5" cy="2" r="2" fill="#98989C"/>
<circle cx="1985.5" cy="2" r="2" fill="#98989C"/>
<circle cx="2223.5" cy="2" r="2" fill="#98989C"/>
<circle cx="1713.5" cy="2" r="2" fill="#98989C"/>
<circle cx="2002.5" cy="2" r="2" fill="#98989C"/>
<circle cx="2240.5" cy="2" r="2" fill="#98989C"/>
<circle cx="1705" cy="2" r="2" fill="#98989C"/>
<circle cx="1994" cy="2" r="2" fill="#98989C"/>
<circle cx="2232" cy="2" r="2" fill="#98989C"/>
<circle cx="1824" cy="2" r="2" fill="#98989C"/>
<circle cx="2113" cy="2" r="2" fill="#98989C"/>
<circle cx="2351" cy="2" r="2" fill="#98989C"/>
<circle cx="1832.5" cy="2" r="2" fill="#98989C"/>
<circle cx="2121.5" cy="2" r="2" fill="#98989C"/>
<circle cx="2359.5" cy="2" r="2" fill="#98989C"/>
<circle cx="1747.5" cy="2" r="2" fill="#98989C"/>
<circle cx="2036.5" cy="2" r="2" fill="#98989C"/>
<circle cx="2274.5" cy="2" r="2" fill="#98989C"/>
<circle cx="1764.5" cy="2" r="2" fill="#98989C"/>
<circle cx="2053.5" cy="2" r="2" fill="#98989C"/>
<circle cx="2291.5" cy="2" r="2" fill="#98989C"/>
<circle cx="1756" cy="2" r="2" fill="#98989C"/>
<circle cx="2045" cy="2" r="2" fill="#98989C"/>
<circle cx="2283" cy="2" r="2" fill="#98989C"/>
<circle cx="1798.5" cy="2" r="2" fill="#98989C"/>
<circle cx="2087.5" cy="2" r="2" fill="#98989C"/>
<circle cx="2325.5" cy="2" r="2" fill="#98989C"/>
<circle cx="1815.5" cy="2" r="2" fill="#98989C"/>
<circle cx="2104.5" cy="2" r="2" fill="#98989C"/>
<circle cx="2342.5" cy="2" r="2" fill="#98989C"/>
<circle cx="1807" cy="2" r="2" fill="#98989C"/>
<circle cx="2096" cy="2" r="2" fill="#98989C"/>
<circle cx="2334" cy="2" r="2" fill="#98989C"/>
<circle cx="1773" cy="2" r="2" fill="#98989C"/>
<circle cx="2062" cy="2" r="2" fill="#98989C"/>
<circle cx="2300" cy="2" r="2" fill="#98989C"/>
<circle cx="1790" cy="2" r="2" fill="#98989C"/>
<circle cx="2079" cy="2" r="2" fill="#98989C"/>
<circle cx="2317" cy="2" r="2" fill="#98989C"/>
<circle cx="1781.5" cy="2" r="2" fill="#98989C"/>
<circle cx="2070.5" cy="2" r="2" fill="#98989C"/>
<circle cx="2308.5" cy="2" r="2" fill="#98989C"/>
<path d="M2 2L1179 1.9999" stroke="white" stroke-width="4" stroke-linecap="round"/>
</svg>
