<svg width="77" height="61" viewBox="0 0 77 61" fill="none" xmlns="http://www.w3.org/2000/svg">
<path d="M25.9083 57.9336C21.9663 57.9336 18.5819 57.2334 15.7551 55.833C12.9542 54.4325 10.659 52.4745 8.86952 49.9588C7.10599 47.4432 5.79631 44.5126 4.94048 41.1671C4.11058 37.7957 3.69563 34.1519 3.69563 30.2358C3.69563 24.7637 4.48663 19.9399 6.06862 15.7645C7.65061 11.5891 10.0625 8.33434 13.3043 6.00026C16.5461 3.64024 20.6566 2.46023 25.636 2.46023C29.4224 2.46023 32.7031 3.13452 35.4781 4.48311C38.253 5.83169 40.5482 7.73786 42.3636 10.2016C44.179 12.6654 45.5276 15.5959 46.4094 18.9933C47.2911 22.3907 47.732 26.1253 47.732 30.1969C47.732 35.7987 46.9151 40.6873 45.2812 44.8628C43.6733 49.0122 41.2485 52.2281 38.0067 54.5103C34.7649 56.7925 30.7321 57.9336 25.9083 57.9336ZM25.7527 49.3364C28.5277 49.3364 30.7451 48.5065 32.4049 46.8467C34.0906 45.1869 35.3095 42.9177 36.0616 40.039C36.8396 37.1603 37.2286 33.8796 37.2286 30.1969C37.2286 26.3068 36.8137 22.9353 35.9838 20.0826C35.1798 17.2298 33.935 15.0254 32.2493 13.4693C30.5635 11.8873 28.398 11.0963 25.7527 11.0963C23.0556 11.0963 20.8512 11.9133 19.1395 13.5471C17.4538 15.1551 16.2089 17.3984 15.405 20.2771C14.6269 23.1298 14.2379 26.4365 14.2379 30.1969C14.2379 33.9315 14.614 37.2381 15.3661 40.1168C16.1181 42.9955 17.3371 45.2518 19.0228 46.8856C20.7344 48.5195 22.9778 49.3364 25.7527 49.3364Z" fill="#51D2DA"/>
<path d="M60.4301 41.9961V38.1541H64.7757C65.8326 38.1541 66.7402 38.0484 67.4987 37.837C68.2572 37.6132 68.8415 37.2402 69.2519 36.718C69.6622 36.1958 69.8673 35.4746 69.8673 34.5545C69.8673 33.8706 69.7306 33.3236 69.457 32.9132C69.1959 32.5029 68.8478 32.1921 68.4126 31.9807C67.9774 31.7569 67.5049 31.6077 66.9951 31.5331C66.4978 31.4585 66.0129 31.4212 65.5404 31.4212H60.6166L56.1591 27.3554C57.1662 27.3554 58.4966 27.3554 60.1503 27.3554C61.8165 27.3554 63.725 27.3554 65.8761 27.3554C67.8779 27.3554 69.5503 27.5978 70.8931 28.0827C72.236 28.5552 73.2431 29.3075 73.9145 30.3395C74.5859 31.3715 74.9217 32.7267 74.9217 34.4053C74.9217 35.8725 74.6295 37.178 74.0451 38.3219C73.4731 39.4534 72.5219 40.3486 71.1915 41.0076C69.8611 41.6666 68.0831 41.9961 65.8574 41.9961C65.2855 41.9961 64.6638 41.9961 63.9924 41.9961C63.3334 41.9961 62.6868 41.9961 62.0527 41.9961C61.431 41.9961 60.8901 41.9961 60.4301 41.9961ZM56.1591 53C56.1591 51.6074 56.1591 50.2646 56.1591 48.9715C56.1591 47.6659 56.1591 46.2298 56.1591 44.6632V35.8974C56.1591 34.8156 56.1591 33.8023 56.1591 32.8573C56.1591 31.9123 56.1591 30.9922 56.1591 30.097C56.1591 29.2018 56.1591 28.2879 56.1591 27.3554L61.0642 28.1387C61.0642 29.0836 61.0642 29.9727 61.0642 30.8057C61.0642 31.6264 61.0642 32.5029 61.0642 33.4355C61.0642 34.3556 61.0642 35.4373 61.0642 36.6807V44.6632C61.0642 46.2298 61.0642 47.6659 61.0642 48.9715C61.0642 50.2646 61.0642 51.6074 61.0642 53H56.1591ZM53.175 48.6357V45.3532C54.4184 45.3532 55.6182 45.3532 56.7746 45.3532C57.9309 45.3532 59.0189 45.3532 60.0384 45.3532H61.8102C62.8298 45.3532 63.9178 45.3532 65.0741 45.3532C66.2429 45.3532 67.449 45.3532 68.6923 45.3532V48.6357C67.449 48.6357 66.2429 48.6357 65.0741 48.6357C63.9178 48.6357 62.8298 48.6357 61.8102 48.6357H60.0384C59.0189 48.6357 57.9309 48.6357 56.7746 48.6357C55.6182 48.6357 54.4184 48.6357 53.175 48.6357Z" fill="black"/>
</svg>
