<svg width="513" height="296" viewBox="0 0 513 296" fill="none" xmlns="http://www.w3.org/2000/svg">
<path d="M0 107.089C17.232 107.089 17.232 110.949 34.4653 110.949C51.6973 110.949 51.6973 107.089 68.9293 107.089C86.1627 107.089 86.1627 110.949 103.395 110.949C120.631 110.949 120.631 107.089 137.867 107.089C155.101 107.089 155.101 110.949 172.337 110.949" stroke="white" stroke-width="5.66933" stroke-miterlimit="10"/>
<path d="M0 119.043C17.232 119.043 17.232 122.903 34.4653 122.903C51.6973 122.903 51.6973 119.043 68.9293 119.043C86.1627 119.043 86.1627 122.903 103.395 122.903C120.631 122.903 120.631 119.043 137.867 119.043C155.101 119.043 155.101 122.903 172.337 122.903" stroke="white" stroke-width="5.66933" stroke-miterlimit="10"/>
<path d="M0 130.997C17.232 130.997 17.232 134.857 34.4653 134.857C51.6973 134.857 51.6973 130.997 68.9293 130.997C86.1627 130.997 86.1627 134.857 103.395 134.857C120.631 134.857 120.631 130.997 137.867 130.997C155.101 130.997 155.101 134.857 172.337 134.857" stroke="white" stroke-width="5.66933" stroke-miterlimit="10"/>
<path d="M0 142.952C17.232 142.952 17.232 146.812 34.4653 146.812C51.6973 146.812 51.6973 142.952 68.9293 142.952C86.1627 142.952 86.1627 146.812 103.395 146.812C120.631 146.812 120.631 142.952 137.867 142.952C155.101 142.952 155.101 146.812 172.337 146.812" stroke="white" stroke-width="5.66933" stroke-miterlimit="10"/>
<path d="M0 154.906C17.232 154.906 17.232 158.766 34.4653 158.766C51.6973 158.766 51.6973 154.906 68.9293 154.906C86.1627 154.906 86.1627 158.766 103.395 158.766C120.631 158.766 120.631 154.906 137.867 154.906C155.101 154.906 155.101 158.766 172.337 158.766" stroke="white" stroke-width="5.66933" stroke-miterlimit="10"/>
<path d="M0 166.861C17.232 166.861 17.232 170.721 34.4653 170.721C51.6973 170.721 51.6973 166.861 68.9293 166.861C86.1627 166.861 86.1627 170.721 103.395 170.721C120.631 170.721 120.631 166.861 137.867 166.861C155.101 166.861 155.101 170.721 172.337 170.721" stroke="white" stroke-width="5.66933" stroke-miterlimit="10"/>
<path d="M0 178.815C17.232 178.815 17.232 182.675 34.4653 182.675C51.6973 182.675 51.6973 178.815 68.9293 178.815C86.1627 178.815 86.1627 182.675 103.395 182.675C120.631 182.675 120.631 178.815 137.867 178.815C155.101 178.815 155.101 182.675 172.337 182.675" stroke="white" stroke-width="5.66933" stroke-miterlimit="10"/>
<path d="M0 190.769C17.232 190.769 17.232 194.629 34.4653 194.629C51.6973 194.629 51.6973 190.769 68.9293 190.769C86.1627 190.769 86.1627 194.629 103.395 194.629C120.631 194.629 120.631 190.769 137.867 190.769C155.101 190.769 155.101 194.629 172.337 194.629" stroke="white" stroke-width="5.66933" stroke-miterlimit="10"/>
<path d="M0 202.724C17.232 202.724 17.232 206.584 34.4653 206.584C51.6973 206.584 51.6973 202.724 68.9293 202.724C86.1627 202.724 86.1627 206.584 103.395 206.584C120.631 206.584 120.631 202.724 137.867 202.724C155.101 202.724 155.101 206.584 172.337 206.584" stroke="white" stroke-width="5.66933" stroke-miterlimit="10"/>
<path d="M0 214.677C17.232 214.677 17.232 218.538 34.4653 218.538C51.6973 218.538 51.6973 214.677 68.9293 214.677C86.1627 214.677 86.1627 218.538 103.395 218.538C120.631 218.538 120.631 214.677 137.867 214.677C155.101 214.677 155.101 218.538 172.337 218.538" stroke="white" stroke-width="5.66933" stroke-miterlimit="10"/>
<path d="M0 226.631C17.232 226.631 17.232 230.493 34.4653 230.493C51.6973 230.493 51.6973 226.631 68.9293 226.631C86.1627 226.631 86.1627 230.493 103.395 230.493C120.631 230.493 120.631 226.631 137.867 226.631C155.101 226.631 155.101 230.493 172.337 230.493" stroke="white" stroke-width="5.66933" stroke-miterlimit="10"/>
<path d="M0 238.586C17.232 238.586 17.232 242.447 34.4653 242.447C51.6973 242.447 51.6973 238.586 68.9293 238.586C86.1627 238.586 86.1627 242.447 103.395 242.447C120.631 242.447 120.631 238.586 137.867 238.586C155.101 238.586 155.101 242.447 172.337 242.447" stroke="white" stroke-width="5.66933" stroke-miterlimit="10"/>
<path d="M0 250.54C17.232 250.54 17.232 254.402 34.4653 254.402C51.6973 254.402 51.6973 250.54 68.9293 250.54C86.1627 250.54 86.1627 254.402 103.395 254.402C120.631 254.402 120.631 250.54 137.867 250.54C155.101 250.54 155.101 254.402 172.337 254.402" stroke="white" stroke-width="5.66933" stroke-miterlimit="10"/>
<path d="M0 262.495C17.232 262.495 17.232 266.356 34.4653 266.356C51.6973 266.356 51.6973 262.495 68.9293 262.495C86.1627 262.495 86.1627 266.356 103.395 266.356C120.631 266.356 120.631 262.495 137.867 262.495C155.101 262.495 155.101 266.356 172.337 266.356" stroke="white" stroke-width="5.66933" stroke-miterlimit="10"/>
<path d="M0 274.449C17.232 274.449 17.232 278.31 34.4653 278.31C51.6973 278.31 51.6973 274.449 68.9293 274.449C86.1627 274.449 86.1627 278.31 103.395 278.31C120.631 278.31 120.631 274.449 137.867 274.449C155.101 274.449 155.101 278.31 172.337 278.31" stroke="white" stroke-width="5.66933" stroke-miterlimit="10"/>
<path d="M0 275.065C17.232 275.065 17.232 278.925 34.4653 278.925C51.6973 278.925 51.6973 275.065 68.9293 275.065C86.1627 275.065 86.1627 278.925 103.395 278.925C120.631 278.925 120.631 275.065 137.867 275.065C155.101 275.065 155.101 278.925 172.337 278.925" stroke="white" stroke-width="5.66933" stroke-miterlimit="10"/>
<path d="M50.5118 53.888C18.3598 78.628 12.6704 94.38 12.7078 120.228C12.7451 146.075 28.3891 171.287 51.5318 182.796C73.8664 193.904 104.462 195.159 115.802 217.376C120.389 226.36 120.476 236.912 123.245 246.612C131.046 273.941 159.882 291.125 188.197 293.593C216.512 296.063 244.436 286.713 270.894 276.331C297.35 265.949 337.414 249.052 398.642 264.424C465.316 281.165 495.886 215.689 503.298 192.699C513.165 162.1 513.358 112.9 503.298 82.364C476.266 0.306658 364.653 -8.58801 295.32 10.396C184.604 40.712 121.502 -0.737338 50.5118 53.888Z" fill="white"/>
<path d="M50.5118 53.888C18.3598 78.628 12.6704 94.38 12.7078 120.228C12.7451 146.075 28.3891 171.287 51.5318 182.796C73.8664 193.904 104.462 195.159 115.802 217.376C120.389 226.36 120.476 236.912 123.245 246.612C131.046 273.941 159.882 291.125 188.197 293.593C216.512 296.063 244.436 286.713 270.894 276.331C297.35 265.949 337.414 249.052 398.642 264.424C465.316 281.165 495.886 215.689 503.298 192.699C513.165 162.1 513.358 112.9 503.298 82.364C476.266 0.306658 364.653 -8.58801 295.32 10.396C184.604 40.712 121.502 -0.737338 50.5118 53.888Z" stroke="#1B1C20" stroke-width="3.99867" stroke-miterlimit="10"/>
</svg>
