<svg width="160" height="74" viewBox="0 0 160 74" fill="none" xmlns="http://www.w3.org/2000/svg">
<path d="M4.31806 25.4441L1.94507 17.4693C5.36839 15.7577 8.77875 14.059 12.1761 12.3732C15.5995 10.6616 19.0228 8.94992 22.4461 7.23826L22.096 16.4579C19.1395 17.9621 16.183 19.4663 13.2265 20.9705C10.27 22.4487 7.3005 23.9399 4.31806 25.4441ZM17.1944 61C17.1944 58.1991 17.1944 55.489 17.1944 52.8696C17.1944 50.2502 17.1944 47.3326 17.1944 44.1168V28.0505C17.1944 25.3533 17.1944 22.6562 17.1944 19.959C17.1944 17.2619 17.1944 14.5517 17.1944 11.8286L22.4461 7.23826L27.3866 7.54947C27.3866 10.5578 27.3866 13.6181 27.3866 16.7302C27.3866 19.8164 27.3866 22.9544 27.3866 26.1443V44.1168C27.3866 47.3326 27.3866 50.2502 27.3866 52.8696C27.3866 55.489 27.3866 58.1991 27.3866 61H17.1944ZM60.4789 61.9336C56.5369 61.9336 53.1525 61.2334 50.3256 59.833C47.5247 58.4325 45.2296 56.4745 43.4401 53.9588C41.6766 51.4432 40.3669 48.5126 39.5111 45.1671C38.6812 41.7957 38.2662 38.1519 38.2662 34.2358C38.2662 28.7637 39.0572 23.9399 40.6392 19.7645C42.2212 15.5891 44.6331 12.3343 47.8749 10.0003C51.1166 7.64024 55.2272 6.46023 60.2066 6.46023C63.993 6.46023 67.2737 7.13452 70.0487 8.48311C72.8236 9.83169 75.1188 11.7379 76.9342 14.2016C78.7496 16.6654 80.0982 19.5959 80.98 22.9933C81.8617 26.3907 82.3026 30.1253 82.3026 34.1969C82.3026 39.7987 81.4857 44.6873 79.8518 48.8628C78.2439 53.0122 75.819 56.2281 72.5773 58.5103C69.3355 60.7925 65.3027 61.9336 60.4789 61.9336ZM60.3233 53.3364C63.0983 53.3364 65.3157 52.5065 66.9754 50.8467C68.6612 49.1869 69.8801 46.9177 70.6322 44.039C71.4102 41.1603 71.7992 37.8796 71.7992 34.1969C71.7992 30.3068 71.3843 26.9353 70.5544 24.0826C69.7504 21.2298 68.5056 19.0254 66.8198 17.4693C65.1341 15.8873 62.9686 15.0963 60.3233 15.0963C57.6261 15.0963 55.4217 15.9133 53.7101 17.5471C52.0243 19.1551 50.7795 21.3984 49.9755 24.2771C49.1975 27.1298 48.8085 30.4365 48.8085 34.1969C48.8085 37.9315 49.1845 41.2381 49.9366 44.1168C50.6887 46.9955 51.9076 49.2518 53.5934 50.8856C55.305 52.5195 57.5483 53.3364 60.3233 53.3364ZM111.841 61.9336C107.899 61.9336 104.514 61.2334 101.688 59.833C98.8868 58.4325 96.5916 56.4745 94.8021 53.9588C93.0386 51.4432 91.7289 48.5126 90.8731 45.1671C90.0432 41.7957 89.6282 38.1519 89.6282 34.2358C89.6282 28.7637 90.4192 23.9399 92.0012 19.7645C93.5832 15.5891 95.9951 12.3343 99.2369 10.0003C102.479 7.64024 106.589 6.46023 111.569 6.46023C115.355 6.46023 118.636 7.13452 121.411 8.48311C124.186 9.83169 126.481 11.7379 128.296 14.2016C130.112 16.6654 131.46 19.5959 132.342 22.9933C133.224 26.3907 133.665 30.1253 133.665 34.1969C133.665 39.7987 132.848 44.6873 131.214 48.8628C129.606 53.0122 127.181 56.2281 123.939 58.5103C120.697 60.7925 116.665 61.9336 111.841 61.9336ZM111.685 53.3364C114.46 53.3364 116.678 52.5065 118.337 50.8467C120.023 49.1869 121.242 46.9177 121.994 44.039C122.772 41.1603 123.161 37.8796 123.161 34.1969C123.161 30.3068 122.746 26.9353 121.916 24.0826C121.112 21.2298 119.868 19.0254 118.182 17.4693C116.496 15.8873 114.331 15.0963 111.685 15.0963C108.988 15.0963 106.784 15.9133 105.072 17.5471C103.386 19.1551 102.142 21.3984 101.338 24.2771C100.56 27.1298 100.171 30.4365 100.171 34.1969C100.171 37.9315 100.547 41.2381 101.299 44.1168C102.051 46.9955 103.27 49.2518 104.955 50.8856C106.667 52.5195 108.91 53.3364 111.685 53.3364Z" fill="#51D2DA"/>
<path d="M131.97 65.5017C132.766 64.134 133.55 62.7911 134.32 61.4732C135.091 60.1428 135.974 58.6321 136.969 56.9411L142.378 47.6903C143.061 46.534 143.683 45.4709 144.243 44.5011C144.815 43.5188 145.362 42.5801 145.884 41.6848C146.418 40.7772 146.959 39.8508 147.506 38.9059H151.759C151.212 39.8508 150.671 40.7772 150.136 41.6848C149.614 42.5801 149.067 43.5188 148.495 44.5011C147.923 45.4709 147.301 46.534 146.63 47.6903L141.221 56.9411C140.226 58.6321 139.344 60.1428 138.573 61.4732C137.802 62.7911 137.012 64.134 136.204 65.5017H131.97ZM133.183 51.8494C131.753 51.8494 130.491 51.5821 129.397 51.0475C128.315 50.5004 127.463 49.7233 126.842 48.7161C126.232 47.709 125.928 46.5091 125.928 45.1165C125.928 43.8359 126.232 42.692 126.842 41.6848C127.463 40.6653 128.321 39.8633 129.415 39.2789C130.509 38.6821 131.772 38.3837 133.201 38.3837C134.631 38.3837 135.887 38.6821 136.969 39.2789C138.063 39.8633 138.915 40.6653 139.524 41.6848C140.146 42.692 140.456 43.8359 140.456 45.1165C140.456 46.5091 140.146 47.709 139.524 48.7161C138.915 49.7233 138.063 50.5004 136.969 51.0475C135.887 51.5821 134.625 51.8494 133.183 51.8494ZM133.183 48.8094C134.352 48.8094 135.259 48.4861 135.906 47.8395C136.552 47.193 136.876 46.2978 136.876 45.1538C136.876 44.4451 136.726 43.811 136.428 43.2515C136.142 42.692 135.725 42.2506 135.178 41.9273C134.631 41.604 133.972 41.4424 133.201 41.4424C132.057 41.4424 131.15 41.7905 130.478 42.4868C129.819 43.1831 129.49 44.0721 129.49 45.1538C129.49 46.2978 129.819 47.193 130.478 47.8395C131.15 48.4861 132.051 48.8094 133.183 48.8094ZM150.565 65.968C149.123 65.968 147.855 65.7006 146.76 65.166C145.679 64.6189 144.827 63.8418 144.205 62.8347C143.596 61.8151 143.291 60.6152 143.291 59.2351C143.291 57.9544 143.596 56.8105 144.205 55.8034C144.827 54.7838 145.685 53.9818 146.779 53.3974C147.873 52.8006 149.135 52.5022 150.565 52.5022C152.007 52.5022 153.269 52.8006 154.351 53.3974C155.445 53.9818 156.297 54.7838 156.906 55.8034C157.516 56.8105 157.82 57.9544 157.82 59.2351C157.82 60.6152 157.516 61.8151 156.906 62.8347C156.297 63.8418 155.445 64.6189 154.351 65.166C153.257 65.7006 151.995 65.968 150.565 65.968ZM150.565 62.9279C151.721 62.9279 152.623 62.6046 153.269 61.9581C153.928 61.2991 154.258 60.4039 154.258 59.2724C154.258 58.5637 154.109 57.9295 153.81 57.37C153.512 56.8105 153.089 56.3691 152.542 56.0458C151.995 55.7226 151.336 55.5609 150.565 55.5609C149.421 55.5609 148.514 55.9091 147.842 56.6053C147.183 57.2892 146.854 58.1782 146.854 59.2724C146.854 60.4039 147.183 61.2991 147.842 61.9581C148.514 62.6046 149.421 62.9279 150.565 62.9279Z" fill="black"/>
</svg>
