<svg width="1422" height="4" viewBox="0 0 1422 4" fill="none" xmlns="http://www.w3.org/2000/svg">
<path d="M1 1L4.5498 2.62794L8.08984 1L11.6299 2.62794L15.1797 1L18.7197 2.62794L22.27 1L25.8096 2.62794L29.3496 1L32.8999 2.62794L36.4399 1L39.9897 2.62794L43.5396 1L47.0796 2.62794L50.6299 1L54.1699 2.62794L57.7197 1L61.2598 2.62794L64.8096 1L68.3496 2.62794L71.8999 1L75.4399 2.62794L78.9897 1L82.5396 2.62794L86.0796 1L89.6299 2.62794L93.1699 1L96.7197 2.62794L100.26 1L103.81 2.62794L107.36 1L110.9 2.62794L114.45 1L117.99 2.62794L121.54 1L125.09 2.62794L128.63 1L132.18 2.62794L135.73 1L139.27 2.62794L142.82 1L146.36 2.62794L149.91 1L153.46 2.62794L157 1L160.55 2.62794L164.09 1L167.63 2.62794L171.18 1L174.72 2.62794L178.26 1L181.8 2.62794L185.35 1L188.9 2.62794L192.44 1L195.99 2.62794L199.53 1L203.07 2.62794L206.62 1L210.16 2.62794L213.71 1L217.26 2.62794L220.81 1L224.35 2.62794L227.9 1L231.44 2.62794L234.99 1L238.54 2.62794L242.08 1L245.63 2.62794L249.18 1L252.73 2.62794L256.28 1L259.82 2.62794L263.37 1L266.92 2.62794L270.47 1L274.02 2.62794L277.57 1L281.12 2.62794L284.67 1L288.21 2.62794L291.76 1L295.31 2.62794L298.86 1L302.41 2.62794L305.96 1L309.51 2.62794L313.06 1L316.6 2.62794L320.16 1L323.71 2.62794L327.26 1L330.81 2.62794L334.36 1L337.91 2.62794L341.46 1L345.02 2.62794L348.57 1L352.13 2.62794L356 1L359.55 2.62794L363.09 1L366.63 2.62794L370.18 1L373.72 2.62794L377.27 1L380.81 2.62794L384.35 1L387.9 2.62794L391.44 1L394.99 2.62794L398.54 1L402.08 2.62794L405.63 1L409.17 2.62794L412.72 1L416.26 2.62794L419.81 1L423.35 2.62794L426.9 1L430.44 2.62794L433.99 1L437.54 2.62794L441.08 1L444.63 2.62794L448.17 1L451.72 2.62794L455.26 1L458.81 2.62794L462.36 1L465.9 2.62794L469.45 1L472.99 2.62794L476.54 1L480.09 2.62794L483.63 1L487.18 2.62794L490.73 1L494.27 2.62794L497.82 1L501.36 2.62794L504.91 1L508.46 2.62794L512 1L515.55 2.62794L519.09 1L522.63 2.62794L526.18 1L529.72 2.62794L533.26 1L536.8 2.62794L540.35 1L543.9 2.62794L547.44 1L550.99 2.62794L554.53 1L558.07 2.62794L561.62 1L565.16 2.62794L568.71 1L572.26 2.62794L575.81 1L579.35 2.62794L582.9 1L586.44 2.62794L589.99 1L593.54 2.62794L597.08 1L600.63 2.62794L604.18 1L607.73 2.62794L611.28 1L614.82 2.62794L618.37 1L621.92 2.62794L625.47 1L629.02 2.62794L632.57 1L636.12 2.62794L639.67 1L643.21 2.62794L646.76 1L650.31 2.62794L653.86 1L657.41 2.62794L660.96 1L664.51 2.62794L668.06 1L671.6 2.62794L675.16 1L678.71 2.62794L682.26 1L685.81 2.62794L689.36 1L692.91 2.62794L696.46 1L700.02 2.62794L703.57 1L707.13 2.62794L711 1L714.55 2.62794L718.09 1L721.63 2.62794L725.18 1L728.72 2.62794L732.27 1L735.81 2.62794L739.35 1L742.9 2.62794L746.44 1L749.99 2.62794L753.54 1L757.08 2.62794L760.63 1L764.17 2.62794L767.72 1L771.26 2.62794L774.81 1L778.35 2.62794L781.9 1L785.44 2.62794L788.99 1L792.54 2.62794L796.08 1L799.63 2.62794L803.17 1L806.72 2.62794L810.26 1L813.81 2.62794L817.36 1L820.9 2.62794L824.45 1L827.99 2.62794L831.54 1L835.09 2.62794L838.63 1L842.18 2.62794L845.73 1L849.27 2.62794L852.82 1L856.36 2.62794L859.91 1L863.46 2.62794L867 1L870.55 2.62794L874.09 1L877.63 2.62794L881.18 1L884.72 2.62794L888.26 1L891.8 2.62794L895.35 1L898.9 2.62794L902.44 1L905.99 2.62794L909.53 1L913.07 2.62794L916.62 1L920.16 2.62794L923.71 1L927.26 2.62794L930.81 1L934.35 2.62794L937.9 1L941.44 2.62794L944.99 1L948.54 2.62794L952.08 1L955.63 2.62794L959.18 1L962.73 2.62794L966.28 1L969.82 2.62794L973.37 1L976.92 2.62794L980.47 1L984.02 2.62794L987.57 1L991.12 2.62794L994.67 1L998.21 2.62794L1001.76 1L1005.31 2.62794L1008.86 1L1012.41 2.62794L1015.96 1L1019.51 2.62794L1023.06 1L1026.6 2.62794L1030.16 1L1033.71 2.62794L1037.26 1L1040.81 2.62794L1044.36 1L1047.91 2.62794L1051.46 1L1055.02 2.62794L1058.57 1L1062.13 2.62794L1066 1L1069.55 2.62794L1073.09 1L1076.63 2.62794L1080.18 1L1083.72 2.62794L1087.27 1L1090.81 2.62794L1094.35 1L1097.9 2.62794L1101.44 1L1104.99 2.62794L1108.54 1L1112.08 2.62794L1115.63 1L1119.17 2.62794L1122.72 1L1126.26 2.62794L1129.81 1L1133.35 2.62794L1136.9 1L1140.44 2.62794L1143.99 1L1147.54 2.62794L1151.08 1L1154.63 2.62794L1158.17 1L1161.72 2.62794L1165.26 1L1168.81 2.62794L1172.36 1L1175.9 2.62794L1179.45 1L1182.99 2.62794L1186.54 1L1190.09 2.62794L1193.63 1L1197.18 2.62794L1200.73 1L1204.27 2.62794L1207.82 1L1211.36 2.62794L1214.91 1L1218.46 2.62794L1222 1L1225.55 2.62794L1229.09 1L1232.63 2.62794L1236.18 1L1239.72 2.62794L1243.26 1L1246.8 2.62794L1250.35 1L1253.9 2.62794L1257.44 1L1260.99 2.62794L1264.53 1L1268.07 2.62794L1271.62 1L1275.16 2.62794L1278.71 1L1282.26 2.62794L1285.81 1L1289.35 2.62794L1292.9 1L1296.44 2.62794L1299.99 1L1303.54 2.62794L1307.08 1L1310.63 2.62794L1314.18 1L1317.73 2.62794L1321.28 1L1324.82 2.62794L1328.37 1L1331.92 2.62794L1335.47 1L1339.02 2.62794L1342.57 1L1346.12 2.62794L1349.67 1L1353.21 2.62794L1356.76 1L1360.31 2.62794L1363.86 1L1367.41 2.62794L1370.96 1L1374.51 2.62794L1378.06 1L1381.6 2.62794L1385.16 1L1388.71 2.62794L1392.26 1L1395.81 2.62794L1399.36 1L1402.91 2.62794L1406.46 1L1410.02 2.62794L1413.57 1L1417.13 2.62794L1421 1" stroke="#98989C" stroke-width="0.9921" stroke-miterlimit="10"/>
</svg>
