<svg width="30" height="28" viewBox="0 0 30 28" fill="none" xmlns="http://www.w3.org/2000/svg">
<path fill-rule="evenodd" clip-rule="evenodd" d="M13.934 0.969248C13.1307 1.16696 12.4193 1.68374 12.136 2.27532C12.0076 2.54336 11.9805 2.72874 11.9581 3.48944L11.9317 4.38721L10.4213 4.38871C8.74072 4.39033 8.58604 4.42245 8.15601 4.85914C7.76369 5.25741 7.65325 5.56292 7.62228 6.33521L7.59439 7.02971H4.70159C1.91149 7.02971 1.79511 7.03486 1.42261 7.17457C0.892284 7.37351 0.340137 7.9348 0.143676 8.47482L0 8.86963L0.0176841 17.4187L0.0353683 25.9676L0.220885 26.3512C0.443372 26.8111 0.820279 27.1732 1.32865 27.4152L1.70369 27.5938H14.7833H27.8629L28.2398 27.4143C28.4471 27.3157 28.743 27.1067 28.8973 26.9501C29.0516 26.7934 29.2574 26.493 29.3545 26.2825L29.5313 25.8998V17.3287V8.7575L29.3387 8.33422C29.1183 7.84963 28.7073 7.42852 28.2417 7.21001C27.9389 7.06793 27.8417 7.06298 24.9533 7.04401L21.9769 7.02449L21.9367 6.35493C21.8909 5.59009 21.8021 5.32645 21.4615 4.9437C21.0221 4.44989 20.9204 4.42536 19.1543 4.38721L17.5861 4.35334L17.552 3.43863C17.5123 2.37682 17.4284 2.14658 16.913 1.68591C16.1349 0.990523 14.9781 0.712248 13.934 0.969248ZM15.4015 1.77352C15.8524 1.89541 16.2779 2.14983 16.5426 2.45596L16.7519 2.69805V3.77226C16.7519 5.29237 16.5573 5.15801 18.8199 5.20029L20.633 5.23417L20.8556 5.48094C21.1305 5.78571 21.1832 6.12645 21.1455 7.35494C21.1153 8.33761 21.0273 8.5814 20.6235 8.80066C20.4019 8.92092 20.126 8.92689 14.7844 8.92675C9.57849 8.92668 9.16141 8.91821 8.94893 8.80818C8.48414 8.56758 8.44617 8.44616 8.42274 7.12667C8.40306 6.02068 8.41086 5.92921 8.5458 5.68549C8.80792 5.21194 8.85964 5.20043 10.7229 5.19927C11.9233 5.1986 12.427 5.17468 12.5478 5.11282C12.7137 5.02778 12.7148 5.02094 12.7486 3.87721C12.7842 2.67102 12.8056 2.58002 13.1259 2.27728C13.6719 1.76125 14.5979 1.55629 15.4015 1.77352ZM7.60954 7.99985C7.60954 8.39663 7.82281 8.87892 8.14133 9.20225C8.70155 9.77106 8.37022 9.74552 14.9222 9.72451L20.6558 9.70609L21.0095 9.50715C21.5347 9.21173 21.8063 8.79151 21.9211 8.09687L21.9632 7.84279H24.7984C27.9188 7.84279 27.9156 7.84238 28.3453 8.26457C28.7886 8.70024 28.7678 8.22629 28.7482 17.434L28.7305 25.7643L28.5451 26.0843C28.425 26.2919 28.249 26.4706 28.0446 26.5925L27.7295 26.7807H14.7833H1.83715L1.57022 26.6348C1.23516 26.4517 1.03823 26.2392 0.906097 25.918C0.81474 25.696 0.802995 24.7024 0.804263 17.3139C0.805665 9.20665 0.809535 8.9523 0.934592 8.67253C1.08107 8.34486 1.34393 8.07004 1.63695 7.93819C1.79311 7.86792 2.47171 7.84753 4.72334 7.84543L7.60954 7.84279V7.99985ZM6.76297 11.4203C5.72927 11.7947 5.2179 12.5874 5.28857 13.7059C5.32668 14.3078 5.58827 14.9102 6.02457 15.4002C7.05372 16.556 8.53973 16.386 9.41419 15.0123C10.2546 13.692 9.89553 12.11 8.62041 11.5152C8.1149 11.2795 7.2708 11.2363 6.76297 11.4203ZM8.32298 12.2831C8.53492 12.3903 8.73385 12.5597 8.85324 12.7347C9.023 12.9834 9.04409 13.0717 9.04262 13.5286C9.04062 14.1342 8.8477 14.5879 8.43616 14.9548C7.78745 15.5331 7.15429 15.4782 6.5595 14.7921C6.03258 14.1843 5.9218 13.302 6.29971 12.7223C6.68309 12.134 7.62449 11.9296 8.32298 12.2831ZM14.518 14.3716C14.4408 14.429 14.3941 14.5476 14.3941 14.6862C14.3941 15.1139 14.0832 15.0927 20.3682 15.0927C26.0056 15.0927 26.0966 15.0906 26.228 14.9572C26.3014 14.8827 26.3614 14.7607 26.3614 14.6862C26.3614 14.6116 26.3014 14.4897 26.228 14.4151C26.0966 14.2817 26.0056 14.2796 20.3682 14.2796C15.6488 14.2796 14.6202 14.2958 14.518 14.3716ZM6.37498 16.6617C5.14283 16.7616 4.60062 16.9858 4.01271 17.639C3.64508 18.0474 3.37307 18.5735 3.27364 19.0685C3.23754 19.2482 3.12977 20.196 3.03414 21.1748C2.86277 22.9287 2.8621 22.9574 2.98609 23.1736C3.23834 23.6133 4.02285 23.898 5.37139 24.0391C6.41228 24.1481 9.35066 24.0895 10.1826 23.9432C11.375 23.7335 12.1573 23.3752 12.2511 22.9957C12.273 22.907 12.2298 22.3046 12.155 21.6569C12.0802 21.0093 12.0002 20.2659 11.9771 20.005C11.8589 18.6703 11.4754 17.8621 10.6683 17.2463C10.2195 16.9039 9.62887 16.7355 8.58417 16.6521C7.62575 16.5756 7.42882 16.5764 6.37498 16.6617ZM8.61126 17.4937C9.40792 17.5334 9.84422 17.6458 10.215 17.9066C10.5065 18.1117 10.8965 18.6646 11.0098 19.0333C11.1438 19.4696 11.4716 22.7086 11.3876 22.7667C11.2555 22.8581 10.6079 23.0329 10.5235 23C10.4688 22.9787 10.3908 22.4639 10.2891 21.4527C10.1134 19.7066 10.0697 19.5141 9.83501 19.4544C9.62634 19.4012 9.37275 19.5138 9.33264 19.6774C9.31596 19.7458 9.38383 20.5488 9.48359 21.4618C9.59497 22.481 9.64122 23.1473 9.60338 23.1878C9.52163 23.2752 5.67202 23.3197 5.54903 23.2346C5.47182 23.1811 5.48657 22.8953 5.64212 21.4348C5.82043 19.7607 5.82277 19.6938 5.70699 19.5639C5.54249 19.3793 5.23592 19.3885 5.11407 19.5816C5.05334 19.6778 4.95231 20.3459 4.83999 21.394C4.7421 22.3071 4.64974 23.0666 4.63472 23.0819C4.58901 23.1284 3.89773 22.9524 3.78288 22.8649C3.68425 22.7898 3.68598 22.6773 3.80464 21.4957C4.02145 19.3359 4.05555 19.1188 4.23947 18.724C4.47543 18.2176 4.9764 17.7677 5.46495 17.6235C5.81569 17.5199 7.25912 17.403 7.70964 17.4416C7.81975 17.451 8.22548 17.4745 8.61126 17.4937ZM14.5359 18.0232C14.3539 18.1684 14.3353 18.376 14.4867 18.5715L14.6262 18.7516H20.3604C26.0056 18.7516 26.0966 18.7495 26.228 18.616C26.3945 18.4469 26.3995 18.1978 26.2394 18.0506C26.1278 17.9481 25.625 17.9385 20.3797 17.9385C15.8906 17.9385 14.6189 17.9569 14.5359 18.0232Z" fill="#0E1825"/>
</svg>
