<svg width="26" height="26" viewBox="0 0 26 26" fill="none" xmlns="http://www.w3.org/2000/svg">
<path fill-rule="evenodd" clip-rule="evenodd" d="M15.596 8.72165L13.1816 0.938224C13.1627 0.8773 13.136 0.849747 13.1137 0.833829C13.0865 0.814441 13.047 0.800024 13 0.800024C12.953 0.800024 12.9134 0.814441 12.8863 0.833829C12.864 0.849748 12.8373 0.877302 12.8184 0.938226L10.404 8.72165C10.174 9.46331 9.51414 9.96545 8.76965 9.96545H0.956541C0.895385 9.96545 0.862118 9.98353 0.840776 10.0008C0.814781 10.0219 0.789459 10.0569 0.774945 10.1037C0.760431 10.1504 0.76129 10.1943 0.770501 10.2274C0.778064 10.2545 0.794833 10.2896 0.84431 10.3273L7.16524 15.1377C7.76755 15.5961 8.01958 16.4085 7.78952 17.1502L5.37514 24.9336C5.35624 24.9946 5.36237 25.0333 5.37148 25.0599C5.38257 25.0923 5.4065 25.1283 5.4445 25.1572C5.4825 25.1862 5.52261 25.1989 5.55546 25.1999C5.58243 25.2008 5.61949 25.1949 5.66897 25.1572L11.9899 20.3468C12.5922 19.8885 13.4078 19.8885 14.0101 20.3468L20.331 25.1572C20.3805 25.1949 20.4176 25.2008 20.4445 25.1999C20.4774 25.1989 20.5175 25.1862 20.5555 25.1572C20.5935 25.1283 20.6174 25.0923 20.6285 25.0599C20.6376 25.0333 20.6438 24.9946 20.6249 24.9336L18.2105 17.1502C17.9804 16.4085 18.2325 15.5961 18.8348 15.1377L25.1557 10.3273C25.2052 10.2896 25.2219 10.2545 25.2295 10.2274C25.2387 10.1943 25.2396 10.1504 25.2251 10.1037C25.2105 10.0569 25.1852 10.0219 25.1592 10.0008C25.1379 9.98353 25.1046 9.96545 25.0435 9.96545H17.2304C16.4859 9.96545 15.826 9.46331 15.596 8.72165ZM13.908 0.691003C13.6222 -0.230335 12.3778 -0.230334 12.092 0.691005L9.67763 8.47442C9.54982 8.88646 9.18325 9.16543 8.76965 9.16543H0.956541C0.0316892 9.16543 -0.352844 10.4051 0.395377 10.9745L6.71631 15.7849C7.05092 16.0396 7.19094 16.491 7.06313 16.903L4.64875 24.6864C4.36295 25.6077 5.36968 26.3739 6.1179 25.8045L12.4388 20.9941C12.7734 20.7394 13.2266 20.7394 13.5612 20.9941L19.8821 25.8045C20.6303 26.3739 21.637 25.6077 21.3512 24.6864L18.9369 16.903C18.8091 16.491 18.9491 16.0396 19.2837 15.7849L25.6046 10.9745C26.3528 10.4051 25.9683 9.16543 25.0435 9.16543H17.2304C16.8167 9.16543 16.4502 8.88646 16.3224 8.47442L13.908 0.691003Z" fill="#0E1825"/>
</svg>
