<svg width="180" height="85" viewBox="0 0 180 85" fill="none" xmlns="http://www.w3.org/2000/svg">
<path d="M76.19 58.6702L0 84.7302V37.5002L76.19 11.4502V58.6702Z" fill="#51D2DA"/>
<path d="M179.3 0L76.19 35.27V82.5L179.3 47.23V0Z" fill="#DC46AA"/>
<path d="M35.36 58.5701C34.69 59.8301 33.54 61.0601 31.86 62.2301C30.18 63.3901 27.84 64.4801 24.85 65.5101L10.65 70.3701V46.2601L24.79 41.4601C33.78 38.2901 36.1 44.1601 33.5 48.3501C32.64 49.7301 31.31 50.6801 29.14 52.0601C33.94 50.4101 37.77 54.0501 35.36 58.5701ZM18.07 49.7901V52.8801L24.13 50.8101C25.43 50.3601 26.34 49.9301 26.86 49.5101C27.38 49.0901 27.63 48.5601 27.63 47.9201C27.63 47.4101 27.36 47.1401 26.83 47.1201C26.29 47.0901 25.39 47.3001 24.13 47.7301L18.07 49.7901ZM24.13 59.6801C25.22 59.3101 26.06 58.9701 26.64 58.6701C27.22 58.3701 27.63 58.0501 27.89 57.7101C28.14 57.3701 28.27 56.9801 28.27 56.5301C28.27 55.9501 27.97 55.6401 27.37 55.5901C26.77 55.5401 25.69 55.7801 24.14 56.3101L18.08 58.3801V61.7301L24.13 59.6801Z" fill="#0E1825"/>
<path d="M47.08 33.7199L47.03 50.2299L53.82 31.4099L65.43 27.4399V51.5199L57.65 54.1799V36.6099L50.25 56.7099L38.95 60.5699V36.4899L47.08 33.7199Z" fill="#0E1825"/>
<path d="M150.3 21.49L150.25 38L157.04 19.18L168.65 15.21V39.29L160.87 41.95V24.38L153.47 44.48L142.17 48.34V24.26L150.3 21.49Z" fill="white"/>
<path d="M106.02 48.0198C107.79 47.3398 108.75 47.5498 109.56 47.7198C110.37 47.8998 110.95 48.2699 111.31 48.8499C111.67 49.4299 111.85 50.0898 111.85 50.8398C111.85 52.5898 111.3 54.2698 110.21 55.8698C109.12 57.4698 107.63 58.9098 105.76 60.1798C103.89 61.4498 101.8 62.4799 99.51 63.2599C92.86 65.5299 88.56 64.5698 86.6 60.3698L94.11 55.3799C94.53 56.3399 95.14 56.9299 95.92 57.1299C96.71 57.3399 97.8 57.1999 99.19 56.7299C100.66 56.2299 101.86 55.6398 102.79 54.9698C103.72 54.2998 104.18 53.6098 104.18 52.8998C104.18 52.5198 104 52.2998 103.64 52.2198C103.28 52.1398 102.71 52.1998 101.94 52.3898C101.16 52.5798 100.07 52.9098 98.66 53.3998L96.97 54.0099V48.1998C96.97 48.1998 100.62 46.8498 101.63 46.3598C102.64 45.8698 103.14 45.3798 103.14 44.8998C103.14 44.3498 102.87 43.9898 102.34 43.8298C101.8 43.6698 100.97 43.7798 99.83 44.1698C98.36 44.6698 97.16 45.3998 96.25 46.3598C95.33 47.3198 94.62 48.4899 94.12 49.8799L86.93 50.3098C87.94 47.5698 89.49 45.1898 91.58 43.1698C93.67 41.1498 96.37 39.5698 99.67 38.4398C101.82 37.7098 103.75 37.3398 105.46 37.3398C107.17 37.3398 108.52 37.6898 109.5 38.3998C110.48 39.1098 110.97 40.0998 110.97 41.3898C110.97 42.1398 110.8 42.8699 110.47 43.5699C109.32 45.9699 107.42 47.0398 106.02 48.0198Z" fill="white"/>
<path d="M133.82 38.5101C135.59 37.8301 136.55 38.0401 137.36 38.2101C138.17 38.3901 138.75 38.7601 139.11 39.3401C139.47 39.9201 139.65 40.5801 139.65 41.3301C139.65 43.0801 139.1 44.7601 138.01 46.3601C136.92 47.9601 135.43 49.4001 133.56 50.6701C131.69 51.9401 129.6 52.9701 127.31 53.7501C120.66 56.0201 116.36 55.0601 114.4 50.8601L121.91 45.8701C122.33 46.8301 122.94 47.4201 123.72 47.6201C124.51 47.8301 125.6 47.6901 126.99 47.2201C128.46 46.7201 129.66 46.1301 130.59 45.4601C131.52 44.7901 131.98 44.1001 131.98 43.3901C131.98 43.0101 131.8 42.7901 131.44 42.7101C131.08 42.6301 130.51 42.6901 129.74 42.8801C128.96 43.0701 127.87 43.4001 126.46 43.8901L124.77 44.5001V38.6901C124.77 38.6901 128.42 37.3401 129.43 36.8501C130.44 36.3601 130.94 35.8701 130.94 35.3901C130.94 34.8401 130.67 34.4801 130.14 34.3201C129.6 34.1601 128.77 34.2701 127.63 34.6601C126.16 35.1601 124.96 35.8901 124.05 36.8501C123.13 37.8101 122.42 38.9801 121.92 40.3701L114.73 40.8001C115.74 38.0601 117.29 35.6801 119.38 33.6601C121.47 31.6401 124.17 30.0601 127.47 28.9301C129.62 28.2001 131.55 27.8301 133.26 27.8301C134.97 27.8301 136.32 28.1801 137.3 28.8901C138.28 29.6001 138.77 30.5901 138.77 31.8801C138.77 32.6301 138.6 33.3601 138.27 34.0601C137.12 36.4701 135.22 37.5301 133.82 38.5101Z" fill="white"/>
</svg>
