<svg width="182" height="147" viewBox="0 0 182 147" fill="none" xmlns="http://www.w3.org/2000/svg">
<path d="M181.674 84.6024L0 146.738V62.1359L181.674 0V84.6024Z" fill="#DC46AA"/>
<path d="M62.7297 100.602C61.1892 103.253 59.0381 105.497 56.4551 107.149C52.5539 109.66 48.3331 111.635 43.906 113.022L18.4707 121.72V78.5204L43.7937 69.9189C59.8412 64.2381 64.0617 74.7332 59.4079 82.2594C57.8031 84.7308 55.4763 86.4318 51.5928 88.9031C60.1942 85.9664 67.0465 92.4977 62.7297 100.602ZM31.758 84.8591V90.4597L42.6062 86.7527C44.3239 86.2368 45.9489 85.4513 47.4204 84.4258C47.8592 84.0921 48.213 83.6595 48.4528 83.1631C48.6927 82.6666 48.8118 82.1206 48.8005 81.5694C48.8202 81.3762 48.797 81.1811 48.7324 80.998C48.6679 80.8149 48.5636 80.6484 48.4271 80.5103C48.2906 80.3723 48.1252 80.2661 47.9428 80.1995C47.7604 80.1329 47.5656 80.1075 47.3723 80.1251C45.7192 80.2272 44.0935 80.5956 42.558 81.2163L31.758 84.8591ZM42.6062 102.511C44.1424 102.013 45.6435 101.413 47.0995 100.714C47.9631 100.31 48.7295 99.7243 49.3461 98.997C49.794 98.3824 50.0305 97.6391 50.0201 96.8787C50.0201 96.4531 49.851 96.0449 49.5501 95.744C49.2491 95.443 48.841 95.274 48.4153 95.274C46.4246 95.3638 44.4645 95.7981 42.6222 96.5577L31.7741 100.281V106.283L42.6062 102.511Z" fill="white"/>
<path d="M83.5755 56.3107L83.4792 85.8862L95.6432 52.1865L116.505 45.0614V88.2131L102.576 93.0274V61.5743L89.2884 97.5047L69.0525 104.437V61.2854L83.5755 56.3107Z" fill="white"/>
<path d="M155.805 51.9457C157.821 51.0376 160.087 50.8506 162.224 51.4162C162.871 51.5099 163.491 51.7383 164.043 52.0866C164.596 52.4349 165.07 52.8953 165.434 53.4382C166.09 54.5145 166.424 55.7564 166.397 57.0168C166.364 60.2477 165.339 63.3905 163.46 66.0194C161.298 69.0768 158.575 71.6961 155.436 73.7382C151.956 76.0773 148.178 77.9394 144.203 79.2746C132.274 83.34 124.566 81.6122 121.078 74.0913L134.526 65.1368C134.769 65.8874 135.187 66.5696 135.745 67.1275C136.303 67.6854 136.985 68.1031 137.736 68.3463C139.712 68.6588 141.736 68.4085 143.577 67.6241C145.865 66.88 148.028 65.7982 149.996 64.4146C150.679 64.0435 151.262 63.5124 151.695 62.8669C152.128 62.2213 152.399 61.4805 152.483 60.7077C152.511 60.4195 152.426 60.1318 152.247 59.9045C152.067 59.6773 151.807 59.5281 151.52 59.4881C150.494 59.3879 149.458 59.4916 148.471 59.793C147.075 60.13 145.118 60.7398 142.582 61.5903L139.565 62.6815V52.2667C139.565 52.2667 146.096 49.8596 147.91 49.0572C149.723 48.2548 150.622 47.308 150.622 46.4254C150.651 45.9867 150.521 45.5522 150.255 45.2015C149.99 44.8508 149.608 44.6074 149.178 44.5157C147.652 44.29 146.094 44.5014 144.684 45.1256C142.259 45.8989 140.056 47.2479 138.265 49.0572C136.562 50.8671 135.261 53.0162 134.446 55.3639L121.608 56.1341C123.372 51.2733 126.226 46.8814 129.953 43.2961C134.08 39.4369 139.013 36.5428 144.395 34.8231C147.725 33.6024 151.233 32.9356 154.778 32.8492C157.331 32.7103 159.863 33.3784 162.016 34.7589C162.865 35.3585 163.55 36.1623 164.007 37.0962C164.464 38.0301 164.679 39.064 164.631 40.1027C164.626 41.4584 164.319 42.796 163.733 44.0183C161.727 48.3511 158.293 50.341 155.805 51.9457Z" fill="white"/>
</svg>
