<svg width="180" height="85" viewBox="0 0 180 85" fill="none" xmlns="http://www.w3.org/2000/svg">
<path d="M76.19 58.67L0 84.73V37.5L76.19 11.45V58.67Z" fill="black"/>
<path d="M179.3 0L76.1899 35.27V82.5L179.3 47.23V0Z" fill="#DC46AA"/>
<path d="M35.36 58.57C34.69 59.83 33.54 61.06 31.86 62.23C30.18 63.39 27.84 64.48 24.85 65.51L10.65 70.37V46.26L24.79 41.46C33.78 38.29 36.1 44.16 33.5 48.35C32.64 49.73 31.31 50.68 29.14 52.06C33.94 50.41 37.77 54.05 35.36 58.57ZM18.07 49.79V52.88L24.13 50.81C25.43 50.36 26.34 49.93 26.86 49.51C27.38 49.09 27.63 48.56 27.63 47.92C27.63 47.41 27.36 47.14 26.83 47.12C26.29 47.09 25.39 47.3 24.13 47.73L18.07 49.79ZM24.13 59.68C25.22 59.31 26.06 58.97 26.64 58.67C27.22 58.37 27.63 58.05 27.89 57.71C28.14 57.37 28.27 56.98 28.27 56.53C28.27 55.95 27.97 55.64 27.37 55.59C26.77 55.54 25.69 55.78 24.14 56.31L18.08 58.38V61.73L24.13 59.68Z" fill="#51D2DA"/>
<path d="M47.08 33.72L47.03 50.23L53.8199 31.41L65.43 27.44V51.52L57.65 54.18V36.61L50.25 56.71L38.95 60.57V36.49L47.08 33.72Z" fill="#51D2DA"/>
<path d="M150.3 21.49L150.25 38L157.04 19.18L168.65 15.21V39.29L160.87 41.95V24.38L153.47 44.48L142.17 48.34V24.26L150.3 21.49Z" fill="white"/>
<path d="M106.02 48.02C107.79 47.34 108.75 47.55 109.56 47.72C110.37 47.9 110.95 48.27 111.31 48.85C111.67 49.43 111.85 50.09 111.85 50.84C111.85 52.59 111.3 54.27 110.21 55.87C109.12 57.47 107.63 58.91 105.76 60.18C103.89 61.45 101.8 62.48 99.51 63.26C92.86 65.53 88.56 64.57 86.6 60.37L94.11 55.38C94.53 56.34 95.14 56.93 95.92 57.13C96.71 57.34 97.8 57.2 99.19 56.73C100.66 56.23 101.86 55.64 102.79 54.97C103.72 54.3 104.18 53.61 104.18 52.9C104.18 52.52 104 52.3 103.64 52.22C103.28 52.14 102.71 52.2 101.94 52.39C101.16 52.58 100.07 52.91 98.66 53.4L96.97 54.01V48.2C96.97 48.2 100.62 46.85 101.63 46.36C102.64 45.87 103.14 45.38 103.14 44.9C103.14 44.35 102.87 43.99 102.34 43.83C101.8 43.67 100.97 43.78 99.83 44.17C98.36 44.67 97.16 45.4 96.25 46.36C95.33 47.32 94.62 48.49 94.12 49.88L86.93 50.31C87.94 47.57 89.49 45.19 91.58 43.17C93.67 41.15 96.37 39.57 99.67 38.44C101.82 37.71 103.75 37.34 105.46 37.34C107.17 37.34 108.52 37.69 109.5 38.4C110.48 39.11 110.97 40.1 110.97 41.39C110.97 42.14 110.8 42.87 110.47 43.57C109.32 45.97 107.42 47.04 106.02 48.02Z" fill="white"/>
<path d="M133.82 38.51C135.59 37.83 136.55 38.04 137.36 38.21C138.17 38.39 138.75 38.76 139.11 39.34C139.47 39.92 139.65 40.58 139.65 41.33C139.65 43.08 139.1 44.76 138.01 46.36C136.92 47.96 135.43 49.4 133.56 50.67C131.69 51.94 129.6 52.97 127.31 53.75C120.66 56.02 116.36 55.06 114.4 50.86L121.91 45.87C122.33 46.83 122.94 47.42 123.72 47.62C124.51 47.83 125.6 47.69 126.99 47.22C128.46 46.72 129.66 46.13 130.59 45.46C131.52 44.79 131.98 44.1 131.98 43.39C131.98 43.01 131.8 42.79 131.44 42.71C131.08 42.63 130.51 42.69 129.74 42.88C128.96 43.07 127.87 43.4 126.46 43.89L124.77 44.5V38.69C124.77 38.69 128.42 37.34 129.43 36.85C130.44 36.36 130.94 35.87 130.94 35.39C130.94 34.84 130.67 34.48 130.14 34.32C129.6 34.16 128.77 34.27 127.63 34.66C126.16 35.16 124.96 35.89 124.05 36.85C123.13 37.81 122.42 38.98 121.92 40.37L114.73 40.8C115.74 38.06 117.29 35.68 119.38 33.66C121.47 31.64 124.17 30.06 127.47 28.93C129.62 28.2 131.55 27.83 133.26 27.83C134.97 27.83 136.32 28.18 137.3 28.89C138.28 29.6 138.77 30.59 138.77 31.88C138.77 32.63 138.6 33.36 138.27 34.06C137.12 36.47 135.22 37.53 133.82 38.51Z" fill="white"/>
</svg>
