<svg width="95" height="43" viewBox="0 0 95 43" fill="none" xmlns="http://www.w3.org/2000/svg">
<g clip-path="url(#clip0_710_4618)">
<path d="M43.7737 27.8361L0 42.804V22.1899L43.7737 7.21808V27.8361Z" fill="#DC46AA"/>
<path d="M43.7737 38.1353L95 20.6141V0L43.7737 17.5173V38.1353Z" fill="#DC46AA"/>
<path d="M16.9894 21.7167L13.0128 33.5878L8.79772 35.0424C8.73124 34.8664 4.72339 25.9123 4.72339 25.9123L8.55139 24.6024L10.9326 30.7608C10.9326 30.7139 13.2787 22.9797 13.2787 22.9797L16.9894 21.7167Z" fill="white"/>
<path d="M37.4941 22.3384V25.2319L26.9368 28.8448V25.6112C27.4412 25.1381 32.583 19.5622 32.9779 19.136L26.9368 21.2006V18.3149L37.4941 14.702V17.9513L31.4334 24.399L37.4941 22.3384Z" fill="white"/>
<path d="M25.713 21.6151V18.7294L17.709 21.4665V24.3522L20.2779 23.4724V28.231L17.709 29.1069V31.9964L25.713 29.2554V26.3698L23.449 27.144V22.3893L25.713 21.6151Z" fill="white"/>
<path d="M60.1217 24.5476V27.4372L49.5645 31.0541V27.8204C50.0689 27.3473 55.2107 21.7675 55.6056 21.3453L49.5645 23.4098V20.5241L60.1217 16.9112V20.1605L54.065 26.6239L60.1217 24.5476Z" fill="white"/>
<path d="M70.7458 23.4881C70.601 23.3786 70.4859 23.2347 70.4108 23.0695C70.3357 22.9042 70.303 22.7229 70.3157 22.5418C70.3365 22.0973 70.4857 21.6683 70.7453 21.3067C71.0048 20.9452 71.3635 20.6666 71.778 20.5046C71.9431 20.4326 72.1239 20.4046 72.303 20.4231C72.4821 20.4416 72.6534 20.5062 72.8002 20.6105C72.947 20.7147 73.0643 20.8552 73.1407 21.0182C73.2172 21.1813 73.2502 21.3613 73.2365 21.5408C73.2137 21.9862 73.0643 22.4159 72.806 22.7795C72.5477 23.1431 72.1911 23.4255 71.778 23.5936C71.611 23.6646 71.4288 23.6921 71.2483 23.6736C71.0678 23.6551 70.895 23.5913 70.7458 23.4881Z" fill="white"/>
<path d="M77.3967 15.7538C77.5483 15.0149 77.8958 14.3302 78.4028 13.7717C78.9098 13.2131 79.5576 12.8011 80.2785 12.5788C80.5339 12.4924 80.7953 12.4244 81.0605 12.3755L80.6186 15.7734C80.0709 15.7256 79.5191 15.7813 78.992 15.9376C78.507 16.0827 78.0905 16.3978 77.819 16.8252C77.5795 17.2628 77.4658 17.7581 77.4905 18.2563C77.4905 18.2563 77.4554 20.6649 77.4905 21.4939L74.1982 22.62V14.702L76.9822 13.7479L77.3967 15.7538Z" fill="white"/>
<path d="M90.21 17.1459L87.426 18.096L87.035 16.1019C86.8685 16.8554 86.5284 17.5596 86.0418 18.1586C85.6299 18.6592 85.0891 19.0378 84.4778 19.2534C84.0217 19.4352 83.5206 19.4721 83.0428 19.359C82.8497 19.3055 82.6693 19.214 82.5122 19.0898C82.355 18.9656 82.2244 18.8111 82.1278 18.6356C81.8802 18.2043 81.7457 17.7174 81.7368 17.2202V12.137L84.8375 11.0774V15.3316C84.8218 15.4954 84.8397 15.6607 84.8901 15.8174C84.9405 15.974 85.0224 16.1188 85.1308 16.2426C85.215 16.3312 85.3254 16.3903 85.4458 16.4115C85.5661 16.4326 85.6901 16.4145 85.7994 16.3599C86.1179 16.234 86.3831 16.002 86.5502 15.703C86.775 15.3301 86.9089 14.9095 86.9412 14.4753V14.139C86.9412 13.3804 86.9412 10.354 86.9412 10.354L90.2061 9.23962L90.21 17.1459Z" fill="white"/>
<path d="M69.3536 16.6336V13.748L61.3496 16.4851V19.3707L63.9186 18.4909V23.2496L61.3496 24.1293V27.015L69.3536 24.2779V21.3922L67.0857 22.1665V17.4078L69.3536 16.6336Z" fill="white"/>
</g>
<defs>
<clipPath id="clip0_710_4618">
<rect width="95" height="42.804" fill="white"/>
</clipPath>
</defs>
</svg>
