<svg width="110" height="54" viewBox="0 0 110 54" fill="none" xmlns="http://www.w3.org/2000/svg">
<path d="M32.4194 0.886719C16.3094 0.886719 8.3297 3.29528 3.2197 10.9398C-0.250297 16.1473 0.029703 22.202 0.719703 27.9521C1.2997 32.7978 2.14953 37.7291 5.03953 42.1273C7.92953 46.5256 13.1996 50.3717 19.8296 51.3522C27.8996 52.5422 35.8993 49.3911 44.0893 48.7247C51.8793 48.0869 59.6497 49.7148 67.1997 51.257C74.7497 52.7993 82.6096 54.2844 90.3496 53.361C98.0896 52.4375 105.68 48.4201 106.72 42.8318C107.58 38.2146 103.939 33.5879 105.029 28.9993C105.769 25.8958 108.909 23.2778 109.529 20.1647C111.219 11.6253 104.809 7.16038 95.9995 4.61854C88.3995 2.41942 82.9694 3.77127 77.8594 5.13263C74.2994 6.07511 70.8893 7.01758 67.0093 6.76054C55.2193 5.97038 44.4093 0.905739 32.5693 0.896219C32.5193 0.886699 32.4694 0.886719 32.4194 0.886719Z" fill="black"/>
</svg>
