<svg width="22" height="14" viewBox="0 0 22 14" fill="none" xmlns="http://www.w3.org/2000/svg">
<path fill-rule="evenodd" clip-rule="evenodd" d="M10.1846 0.00797732C7.64997 0.30838 5.29661 1.48143 2.79924 3.68939C1.92768 4.45996 0.490147 6.01663 0.116802 6.59422C-0.0389341 6.83509 -0.0389341 7.17176 0.116802 7.41264C0.317447 7.72308 1.15266 8.692 1.74435 9.30081C3.86786 11.4858 6.23383 13.0197 8.46296 13.6567C9.43282 13.9338 9.92272 14 11.0027 14C12.0827 14 12.5726 13.9338 13.5425 13.6567C16.156 12.9098 19.0273 10.8702 21.3192 8.13211C21.9466 7.38266 22 7.29405 22 7.00343C22 6.7128 21.9466 6.6242 21.3192 5.87474C19.0427 3.15514 16.179 1.1134 13.5861 0.361276C12.716 0.108858 12.1411 0.0233981 11.1965 0.00599599C10.7228 -0.00270509 10.2675 -0.0018437 10.1846 0.00797732ZM12.0576 1.51219C14.0868 1.81797 16.2958 3.01235 18.4183 4.95131C19.0653 5.54234 20.346 6.90767 20.346 7.00644C20.346 7.02277 20.1976 7.20597 20.0161 7.41359C17.5105 10.2808 14.6562 12.1031 12.0576 12.4947C11.5057 12.5778 10.4997 12.5778 9.94782 12.4947C8.07683 12.2127 6.07577 11.1918 4.0921 9.50727C3.37452 8.89789 1.6594 7.13261 1.6594 7.00343C1.6594 6.98547 1.80786 6.80089 1.9893 6.59327C4.47836 3.745 7.33135 1.9158 9.9104 1.51456C10.4331 1.43323 11.5256 1.43203 12.0576 1.51219ZM10.3999 2.67878C8.53543 3.02023 7.2098 4.23364 6.75761 6.01271C6.64132 6.47038 6.64132 7.53648 6.75761 7.99415C7.17341 9.63003 8.37719 10.8343 10.0124 11.2503C10.4699 11.3666 11.5355 11.3666 11.993 11.2503C13.6282 10.8343 14.832 9.63003 15.2478 7.99415C15.3111 7.74487 15.3299 7.5186 15.3299 7.00343C15.3299 6.48826 15.3111 6.26198 15.2478 6.01271C14.8375 4.39823 13.6715 3.21407 12.0576 2.77264C11.7636 2.69226 10.6658 2.6301 10.3999 2.67878ZM11.6904 4.18773C12.4982 4.36782 13.2315 4.95906 13.608 5.73393C13.8311 6.19294 13.8993 6.54718 13.8773 7.13265C13.8565 7.68677 13.7502 8.06487 13.4923 8.50247C13.3088 8.81381 12.8123 9.31046 12.5011 9.49405C11.5942 10.029 10.4112 10.029 9.50429 9.49405C9.19308 9.31046 8.69663 8.81381 8.51312 8.50247C7.97836 7.59519 7.97836 6.41167 8.51312 5.50439C8.69663 5.19304 9.19308 4.69639 9.50429 4.51281C10.1554 4.12871 10.9174 4.01543 11.6904 4.18773Z" fill="#828282"/>
</svg>
