<svg width="36" height="36" viewBox="0 0 36 36" fill="none" xmlns="http://www.w3.org/2000/svg">
<path d="M35.6928 17.8341C35.6928 27.6934 27.7035 35.6759 17.8445 35.6759C7.9893 35.6759 0 27.6934 0 17.8341C0 7.9864 7.9893 0 17.8445 0C27.7035 0 35.6928 7.9864 35.6928 17.8341Z" fill="#CCD5DD"/>
<path d="M31.7273 17.8349C31.7273 25.502 25.5142 31.7089 17.8444 31.7089C10.1823 31.7089 3.96533 25.502 3.96533 17.8349C3.96533 10.1678 10.1823 3.95703 17.8444 3.95703C25.5142 3.95703 31.7273 10.1678 31.7273 17.8349Z" fill="#3A87C3"/>
<path d="M27.7664 17.836C27.7664 23.3069 23.3218 27.746 17.845 27.746C12.3721 27.746 7.9353 23.3069 7.9353 17.836C7.9353 12.3651 12.3721 7.92603 17.845 7.92603C23.3218 7.92603 27.7664 12.3651 27.7664 17.836Z" fill="#DD2D44"/>
<path d="M23.7972 17.8354C23.7972 21.1258 21.1289 23.7853 17.8451 23.7853C14.5614 23.7853 11.897 21.1258 11.897 17.8354C11.897 14.5567 14.5614 11.8933 17.8451 11.8933C21.1289 11.8933 23.7972 14.5567 23.7972 17.8354Z" fill="#FFAC33"/>
<path d="M34.5714 28.9403C34.1507 29.2401 33.321 29.5282 32.651 29.5282C30.7033 29.5282 28.035 28.8118 26.3717 27.1646L23.4425 23.3175C23.1698 23.0488 23.088 22.749 23.2321 22.3985C23.384 22.0403 22.5076 21.8027 22.8971 21.8027H27.9104C29.7568 21.8027 32.1797 23.0488 33.7845 24.7933L34.1507 25.1398C34.9181 25.977 35.3232 26.7558 35.3232 27.5034C35.3232 28.1225 35.0583 28.582 34.5714 28.9403Z" fill="black"/>
<path d="M28.0665 34.8897C27.303 34.8897 26.446 34.4731 25.5968 33.6943L25.1099 33.3166C23.3375 31.689 21.8184 29.228 21.8184 27.3434V22.219C21.8184 21.8335 22.3092 22.7291 22.6753 22.5889C23.0337 22.4293 23.579 22.5188 23.8595 22.7992L26.9952 25.887C28.6819 27.5848 30.0336 30.4624 30.0336 32.4561C30.0336 33.1375 29.8895 33.6943 29.5856 34.1226C29.2351 34.6094 28.6663 34.9014 28.0665 34.8897Z" fill="black"/>
<path d="M31.0811 31.6813C30.824 31.6813 30.5942 31.5606 30.4034 31.362L16.5204 17.4842C16.1348 17.0987 16.1348 16.4679 16.5204 16.0785C16.91 15.7008 17.5371 15.7008 17.9266 16.0902L31.8057 29.9641C32.1913 30.3457 32.1796 30.9843 31.7901 31.3698C31.6031 31.5606 31.3499 31.6697 31.0811 31.6813Z" fill="#C1694F"/>
</svg>
