<svg width="41" height="40" viewBox="0 0 41 40" fill="none" xmlns="http://www.w3.org/2000/svg">
<path fill-rule="evenodd" clip-rule="evenodd" d="M28.9014 19.7314C32.3254 22.6713 36.396 23.9174 40.5056 23.38C39.9135 27.6555 37.9347 31.6234 34.8769 34.6762C31.5892 32.6397 27.5381 29.3533 23.3194 24.5949C25.3138 23.0101 27.1602 21.3786 28.9014 19.7314ZM32.637 36.4986C29.6454 38.5818 25.8202 39.8396 21.1809 39.8396C20.1837 39.8473 19.1865 39.7889 18.1971 39.6682C18.9138 36.6388 18.3412 33.438 16.4325 30.3073C16.3118 30.1087 16.1832 29.8984 16.0508 29.6998C17.8192 28.6056 19.5098 27.4569 21.1225 26.2615C24.4958 30.1593 28.3717 33.5976 32.6526 36.4791L32.637 36.4986ZM14.146 31.7247C15.3613 33.7183 16.2884 36.3389 15.5639 39.201C12.3346 38.4533 9.35861 36.8568 6.95131 34.5867C9.31966 33.5081 11.5828 32.3438 13.7408 31.0977C13.8928 31.2769 14.0291 31.4949 14.1576 31.7052L14.146 31.7247ZM5.06208 32.4723C2.86511 29.5597 1.50565 26.1135 1.12391 22.4844C5.30748 23.5591 9.09373 25.802 12.0542 28.9444C9.79099 30.2294 7.46159 31.4054 5.07376 32.4528L5.06208 32.4723ZM14.3953 27.5387C10.8739 23.5319 5.66196 20.5492 0.995361 19.6613C1.11222 14.1398 3.35982 8.64549 7.78101 5.0008C10.722 11.9086 14.6251 18.3647 19.3774 24.1783C17.8426 25.3036 16.1871 26.4328 14.4108 27.5387H14.3953ZM26.9616 17.8195C25.4073 19.3031 23.6038 20.8996 21.5354 22.535C16.7987 16.7526 12.9306 10.3238 10.0559 3.42377C12.915 1.76886 16.1326 0.830425 19.4319 0.682457C20.7018 0.604579 21.9795 0.612367 23.2493 0.721396C21.4925 6.67518 22.891 13.1235 26.9616 17.8195ZM25.9488 1.103C29.8908 1.87789 33.459 3.95334 36.0844 6.99448C33.9692 10.1914 31.558 13.1936 28.8742 15.9349C25.3801 11.8385 24.2699 6.22348 25.9488 1.103ZM30.8023 17.8195C33.3694 15.195 35.7066 12.3564 37.7906 9.32692C39.8161 12.7263 40.8328 16.6319 40.7198 20.5998C37.1634 21.2072 33.5213 20.1909 30.8023 17.8195Z" fill="black"/>
</svg>
