<svg width="25" height="35" viewBox="0 0 25 35" fill="none" xmlns="http://www.w3.org/2000/svg">
<path fill-rule="evenodd" clip-rule="evenodd" d="M24.5327 32.58L24.3146 34.6438L21.0074 34.7917L17.7704 31.2249V30.0295L20.2128 29.9789L24.5327 32.58ZM7.22969 30.0762V31.2327L4.6471 34.6126L1.19195 34.5347L0.841367 32.5216L5.12232 30.0295L7.22969 30.0762ZM20.0258 17.0784C17.7276 17.0784 17.5328 20.6569 20.1855 20.6569C22.4409 20.6569 22.3747 17.0706 20.0375 17.0706L20.0258 17.0784ZM21.0737 9.02576L4.21861 8.90505L3.59925 13.0521L21.6891 12.8613L21.0737 9.02576ZM12.4767 3.44191C10.085 3.44191 9.88241 7.16058 12.6442 7.16058C14.9775 7.16058 14.9152 3.44191 12.4767 3.44191ZM5.99098 21.2565C8.9748 21.2565 8.90079 16.4709 5.77674 16.4709C2.71502 16.4709 2.45792 21.2565 5.99098 21.2565ZM20.2284 28.5537L5.31709 28.2928C5.31709 28.2928 4.14849 24.4768 1.13352 24.4768C1.13352 23.916 0.51416 16.4514 0.51416 16.4514C0.51416 16.4514 1.82688 8.71425 1.90868 7.98999C2.18525 5.97294 2.79292 5.26815 4.53024 4.98779L8.26195 4.39981C8.61643 2.38666 10.4005 0.918657 12.4494 0.98096C14.5062 0.91087 16.3058 2.35551 16.6758 4.38034C18.3742 4.64902 20.0414 4.9177 20.4387 4.98779C22.4838 5.33824 22.8538 6.23384 23.2317 8.08733C23.3719 8.75708 24.4743 16.1438 24.4743 16.1438C24.4743 16.1438 24.225 23.6591 24.225 24.7844C20.6647 24.7844 20.2284 28.5537 20.2284 28.5537Z" fill="black"/>
</svg>
