<?xml version="1.0" encoding="UTF-8"?>
<svg xmlns="http://www.w3.org/2000/svg" viewBox="0 0 38 39.14">
  <g id="_лой_1" data-name="Слой 1"/>
  <g id="_лой_2" data-name="Слой 2">
    <g id="Layer_3" data-name="Layer 3">
      <g>
        <path d="M34.54,23.76l-3.13-.93c-.63-.19-1.25-.81-1.39-1.39l-1.3-5.38c-.14-.58-.79-1.09-1.45-1.09h-10.81c-.66,0-1.45,.57-1.74,1.09l-3.13,5.46c-.3,.53-1.05,1.11-1.68,1.3l-4.93,1.47c-.63,.19-1.32,1.04-1.47,1.62l.33,1.14-.94,1.05-.61,2.19H35.7v-4.93c0-.59-.53-1.42-1.15-1.61Z" style="fill: #ffe62e;"/>
        <path d="M36.81,31.58c0-.83-.29-1.29-.91-1.29H2.09c-.62,0-.91,.46-.91,1.29,0,.18,.09,1.19,.12,1.36,.14,.7,.73,.63,1.35,.63H35.34c.62,0,1.21,.07,1.35-.63,.03-.17,.12-1.18,.12-1.36Z" style="fill: #b2c1c0;"/>
        <path d="M21.23,21.48c0,.33,.24,.61,.54,.61h4.59c.3,0,.49-.27,.43-.6l-.78-4.28c-.06-.33-.35-.6-.64-.6h-3.59c-.3,0-.54,.27-.54,.61v4.26h0Z" style="fill: #3e4347;"/>
        <path d="M20.11,17.22c0-.33-.25-.61-.55-.61h-3.03c-.3,0-.67,.24-.81,.54l-2.23,4.41c-.15,.29-.02,.53,.28,.53h5.78c.3,0,.55-.27,.55-.61v-4.26Z" style="fill: #3e4347;"/>
        <path d="M2.91,28.1h1.68c.27,0,.57-.25,.66-.55l.36-1.09c.1-.3-.04-.55-.31-.55h-1.78l-.61,2.19Z" style="fill: #fff;"/>
        <path d="M35.7,25.91h-1.37c-.22,0-.46,.25-.54,.55,0,0-.22,.82-.29,1.1-.08,.3,.04,.55,.25,.55h1.95v-2.19Z" style="fill: #f15744;"/>
        <path d="M14.83,26.19c0,.15-.12,.27-.28,.27h-1.11c-.15,0-.28-.12-.28-.27v-1.1c0-.15,.12-.27,.28-.27h1.11c.15,0,.28,.12,.28,.27v1.1Z" style="fill: #3e4347;"/>
        <path d="M16.49,27.83c0,.15-.12,.27-.28,.27h-1.11c-.15,0-.28-.12-.28-.27v-1.09c0-.15,.12-.27,.28-.27h1.11c.15,0,.28,.12,.28,.27v1.09Z" style="fill: #3e4347;"/>
        <path d="M18.17,26.19c0,.15-.12,.27-.28,.27h-1.11c-.15,0-.28-.12-.28-.27v-1.1c0-.15,.12-.27,.28-.27h1.11c.15,0,.28,.12,.28,.27v1.1Z" style="fill: #3e4347;"/>
        <path d="M19.83,27.83c0,.15-.13,.27-.28,.27h-1.11c-.15,0-.28-.12-.28-.27v-1.09c0-.15,.12-.27,.28-.27h1.11c.15,0,.28,.12,.28,.27v1.09Z" style="fill: #3e4347;"/>
        <path d="M21.51,26.19c0,.15-.13,.27-.28,.27h-1.11c-.15,0-.28-.12-.28-.27v-1.1c0-.15,.13-.27,.28-.27h1.11c.15,0,.28,.12,.28,.27v1.1Z" style="fill: #3e4347;"/>
        <path d="M23.17,27.83c0,.15-.13,.27-.28,.27h-1.11c-.15,0-.28-.12-.28-.27v-1.09c0-.15,.13-.27,.28-.27h1.11c.15,0,.28,.12,.28,.27v1.09Z" style="fill: #3e4347;"/>
        <path d="M24.84,26.19c0,.15-.13,.27-.28,.27h-1.11c-.15,0-.28-.12-.28-.27v-1.1c0-.15,.13-.27,.28-.27h1.11c.15,0,.28,.12,.28,.27v1.1Z" style="fill: #3e4347;"/>
        <path d="M20.29,11.05c-.13-.51-.64-.46-1.15-.46s-1.03-.05-1.15,.46l-.47,2.82h3.24l-.47-2.82Z" style="fill: #f15744;"/>
        <path d="M21.08,13.88h-1.3l-.19-3.29c-.05-.59-.26-.54-.46-.54s-.41-.06-.46,.54l-.19,3.29h-1.3c-.36,0-.65,.25-.65,.55v.55h5.18v-.55c0-.3-.29-.55-.65-.55Z" style="fill: #3e4347;"/>
        <path d="M9.54,28.1c2.77,0,5.01,2.21,5.01,4.93s-2.24,4.93-5.01,4.93-5.01-2.21-5.01-4.93,2.24-4.93,5.01-4.93Z" style="fill: #3e4347;"/>
        <path d="M9.54,30.21c1.58,0,2.86,1.26,2.86,2.81s-1.28,2.81-2.86,2.81-2.86-1.26-2.86-2.81,1.28-2.81,2.86-2.81Z" style="fill: #e8e8e8;"/>
        <path d="M10.21,31.64c-.12,.38-.43,.68-.68,.68s-.56-.31-.68-.68v-.04c-.13-.38,.18-.68,.68-.68s.81,.31,.69,.68v.04Z" style="fill: #3e4347;"/>
        <path d="M8.65,31.76c.27,.29,.39,.7,.26,.92-.12,.21-.55,.32-.94,.24h-.04c-.39-.1-.51-.51-.26-.94,.25-.43,.68-.54,.94-.25l.03,.03Z" style="fill: #3e4347;"/>
        <path d="M7.98,33.15c.39-.08,.81,.02,.94,.23,.13,.21,0,.63-.26,.92l-.03,.03c-.27,.29-.69,.18-.94-.25-.25-.43-.14-.84,.26-.93h.04Z" style="fill: #3e4347;"/>
        <path d="M8.86,34.41c.12-.38,.43-.68,.68-.68s.56,.31,.68,.68v.04c.13,.37-.18,.68-.68,.68s-.81-.31-.69-.68v-.04Z" style="fill: #3e4347;"/>
        <path d="M10.42,34.3c-.27-.29-.39-.7-.26-.92,.12-.21,.55-.32,.94-.23h.05c.39,.1,.51,.51,.26,.94-.25,.43-.68,.54-.94,.24l-.03-.03Z" style="fill: #3e4347;"/>
        <path d="M11.1,32.91c-.39,.08-.81-.02-.94-.23-.13-.21,0-.63,.26-.92l.03-.03c.27-.29,.69-.18,.94,.25,.25,.43,.14,.84-.26,.93h-.04Z" style="fill: #3e4347;"/>
        <polygon points="11.1 34.98 10.48 35.34 7.97 31.07 8.6 30.72 11.1 34.98" style="fill: #e8e8e8;"/>
        <rect x="7.03" y="32.68" width="5.01" height=".7" style="fill: #e8e8e8;"/>
        <polygon points="10.48 30.72 11.1 31.07 8.6 35.34 7.97 34.98 10.48 30.72" style="fill: #e8e8e8;"/>
        <path d="M28.46,28.1c2.77,0,5.01,2.21,5.01,4.93s-2.24,4.93-5.01,4.93-5.01-2.21-5.01-4.93,2.24-4.93,5.01-4.93Z" style="fill: #3e4347;"/>
        <path d="M28.46,30.21c1.58,0,2.86,1.26,2.86,2.81s-1.28,2.81-2.86,2.81-2.86-1.26-2.86-2.81,1.28-2.81,2.86-2.81Z" style="fill: #e8e8e8;"/>
        <path d="M29.14,31.64c-.12,.38-.43,.68-.68,.68s-.56-.31-.68-.68v-.04c-.13-.38,.18-.68,.68-.68s.81,.31,.69,.68v.04Z" style="fill: #3e4347;"/>
        <path d="M27.58,31.76c.27,.29,.39,.7,.26,.92-.12,.21-.55,.32-.94,.24h-.05c-.39-.1-.51-.51-.26-.94,.25-.43,.68-.54,.94-.25l.03,.03Z" style="fill: #3e4347;"/>
        <path d="M26.9,33.15c.39-.08,.81,.02,.94,.23,.13,.21,0,.63-.26,.92l-.03,.03c-.27,.29-.69,.18-.94-.25-.25-.43-.14-.84,.26-.93h.05Z" style="fill: #3e4347;"/>
        <path d="M27.79,34.41c.12-.38,.43-.68,.68-.68s.56,.31,.68,.68v.04c.13,.37-.18,.68-.68,.68s-.81-.31-.69-.68v-.04Z" style="fill: #3e4347;"/>
        <path d="M29.35,34.3c-.27-.29-.39-.7-.26-.92,.12-.21,.55-.32,.94-.23h.05c.39,.1,.51,.51,.26,.94-.25,.43-.68,.54-.94,.24l-.03-.03Z" style="fill: #3e4347;"/>
        <path d="M30.02,32.91c-.39,.08-.81-.02-.94-.23-.13-.21,0-.63,.26-.92l.03-.03c.27-.29,.69-.18,.94,.25,.25,.43,.14,.84-.26,.93h-.05Z" style="fill: #3e4347;"/>
        <polygon points="30.03 34.98 29.4 35.34 26.9 31.07 27.52 30.72 30.03 34.98" style="fill: #e8e8e8;"/>
        <rect x="25.96" y="32.68" width="5.01" height=".7" style="fill: #e8e8e8;"/>
        <polygon points="29.4 30.72 30.03 31.07 27.52 35.34 26.9 34.98 29.4 30.72" style="fill: #e8e8e8;"/>
      </g>
    </g>
  </g>
</svg>