<?xml version="1.0" encoding="UTF-8"?>
<svg xmlns="http://www.w3.org/2000/svg" viewBox="0 0 38 39.14">
  <g id="_лой_1" data-name="Слой 1"/>
  <g id="_лой_2" data-name="Слой 2">
    <g id="Layer_3" data-name="Layer 3">
      <g>
        <rect x="1.19" y="36.84" width="35.63" height="1.11" style="fill: #acb8bf;"/>
        <rect x="3.27" y="34.61" width="31.47" height="1.11" style="fill: #acb8bf;"/>
        <rect x="2.23" y="35.73" width="33.55" height="1.11" style="fill: #dae3ea;"/>
        <rect x="4.3" y="33.5" width="29.39" height="1.11" style="fill: #dae3ea;"/>
        <rect x="2.86" y="17.63" width="32.29" height="1.11" style="fill: #94989b;"/>
        <rect x="1.19" y="18.74" width="35.63" height="1.11" style="fill: #dae3ea;"/>
        <polygon points="18.99 4.01 1.19 13.75 2.68 15.98 18.99 5.11 35.32 15.98 36.81 13.75 18.99 4.01" style="fill: #94989b;"/>
        <polygon points="18.99 2.33 1.19 13.75 1.19 15.42 18.99 4 36.81 15.42 36.81 13.75 18.99 2.33" style="fill: #dae3ea;"/>
        <polygon points="18.99 5.11 1.19 16.54 1.19 17.65 36.81 17.65 36.81 16.54 18.99 5.11" style="fill: #dae3ea;"/>
        <polygon points="18.99 6.77 4.2 16.54 33.8 16.54 18.99 6.77" style="fill: #acb8bf;"/>
        <path d="M19.45,14.59l-.24,.14c-.02-.05-.07-.09-.13-.09h-.15c-.06,0-.11,.04-.13,.09l-.24-.14-.57-.33v1.31l.57-.33,.24-.14c.02,.05,.07,.09,.13,.09h.15c.06,0,.11-.04,.13-.09l.24,.14,.57,.33v-1.31l-.57,.33Z" style="fill: #94989b;"/>
        <path d="M18.11,12.73c.1,.15,.23,.26,.38,.33,.16,.07,.33,.11,.51,.11,.18,0,.35-.04,.51-.11,.16-.07,.29-.18,.39-.33,.02,.18-.07,.37-.24,.5-.17,.14-.41,.22-.65,.22-.24,0-.49-.08-.65-.22-.17-.13-.26-.33-.24-.5Z" style="fill: #94989b;"/>
        <path d="M19,14.01c-1.22,0-2.22-.99-2.22-2.22v-.05c.08,.3,.25,.49,.52,.59,.28,.11,.6,.1,.88-.01,.15-.06,.29-.16,.4-.31,.19-.28,.13-.45,.23-.68,.08-.21,.32-.21,.41,0,.1,.24,.04,.41,.23,.68,.11,.16,.24,.25,.4,.31,.28,.11,.6,.12,.88,.01,.26-.1,.44-.29,.52-.59v.05c0,1.23-.99,2.22-2.22,2.22Zm0-4.44c.85,0,1.58,.47,1.96,1.17-.3-.03-.63-.02-.82,0-.31,.03-.57,.1-.78,.21-.2,.1-.5,.1-.7,0-.21-.11-.47-.18-.78-.21-.19-.02-.52-.02-.82,0,.37-.7,1.11-1.17,1.96-1.17Zm2.54,1.4v-.05s0-.04-.02-.05c-.04-.02-.07-.04-.11-.05-.03-.01-.06-.02-.09-.03-.38-.9-1.28-1.52-2.31-1.52s-1.93,.63-2.31,1.52c-.03,0-.06,.02-.09,.03-.04,.01-.07,.03-.11,.05-.02,.01-.03,.02-.03,.05v.05c0,.09-.01,.06,.05,.09,.02,.01,.04,.03,.06,.05-.06,.21-.09,.44-.09,.68,0,1.39,1.13,2.52,2.52,2.52s2.52-1.13,2.52-2.52c0-.23-.03-.46-.09-.68,.02-.02,.04-.03,.06-.05,.06-.04,.05,0,.05-.09Z" style="fill: #94989b;"/>
        <rect x="5.05" y="20.85" width="3.56" height="11.61" style="fill: #dae3ea;"/>
        <rect x="4.6" y="32.46" width="4.45" height="1.04" style="fill: #94989b;"/>
        <rect x="4.6" y="19.84" width="4.45" height="1.01" style="fill: #94989b;"/>
        <rect x="5.4" y="21.32" width=".42" height="10.71" style="fill: #c8d0d6;"/>
        <rect x="7.83" y="21.32" width=".42" height="10.71" style="fill: #c8d0d6;"/>
        <rect x="7.02" y="21.32" width=".42" height="10.71" style="fill: #c8d0d6;"/>
        <rect x="6.21" y="21.32" width=".42" height="10.71" style="fill: #c8d0d6;"/>
        <rect x="13.16" y="20.85" width="3.56" height="11.65" style="fill: #dae3ea;"/>
        <rect x="12.72" y="32.5" width="4.45" height="1" style="fill: #94989b;"/>
        <rect x="12.72" y="19.84" width="4.45" height="1.01" style="fill: #94989b;"/>
        <rect x="13.52" y="21.32" width=".42" height="10.71" style="fill: #c8d0d6;"/>
        <rect x="15.95" y="21.32" width=".42" height="10.71" style="fill: #c8d0d6;"/>
        <rect x="15.14" y="21.32" width=".42" height="10.71" style="fill: #c8d0d6;"/>
        <rect x="14.33" y="21.32" width=".42" height="10.71" style="fill: #c8d0d6;"/>
        <rect x="21.28" y="20.85" width="3.56" height="11.65" style="fill: #dae3ea;"/>
        <rect x="20.83" y="32.5" width="4.45" height="1" style="fill: #94989b;"/>
        <rect x="20.83" y="19.84" width="4.45" height="1.01" style="fill: #94989b;"/>
        <rect x="21.63" y="21.32" width=".42" height="10.71" style="fill: #c8d0d6;"/>
        <rect x="24.06" y="21.32" width=".42" height="10.71" style="fill: #c8d0d6;"/>
        <rect x="23.25" y="21.32" width=".42" height="10.71" style="fill: #c8d0d6;"/>
        <rect x="22.44" y="21.32" width=".42" height="10.71" style="fill: #c8d0d6;"/>
        <rect x="29.39" y="20.85" width="3.56" height="11.61" style="fill: #dae3ea;"/>
        <rect x="28.95" y="32.46" width="4.45" height="1.04" style="fill: #94989b;"/>
        <rect x="28.95" y="19.84" width="4.45" height="1.01" style="fill: #94989b;"/>
        <rect x="29.75" y="21.32" width=".42" height="10.71" style="fill: #c8d0d6;"/>
        <rect x="32.18" y="21.32" width=".42" height="10.71" style="fill: #c8d0d6;"/>
        <rect x="31.37" y="21.32" width=".42" height="10.71" style="fill: #c8d0d6;"/>
        <rect x="30.56" y="21.32" width=".42" height="10.71" style="fill: #c8d0d6;"/>
      </g>
    </g>
  </g>
</svg>