<svg width="42" height="50" viewBox="0 0 42 50" fill="none" xmlns="http://www.w3.org/2000/svg">
<path fill-rule="evenodd" clip-rule="evenodd" d="M28.1996 49.58V37.59L23.9196 37.73L23.8297 18.4399L15.0696 18.54L15.0097 27.42L10.2096 27.62L10.2496 38.1899L5.93965 38.33L6.23965 49.49L0.889648 49.47V21.63L4.65965 21.4399L4.44965 12.13L12.7197 9.81995L12.8096 3.53003L27.2997 0.0300293L27.5396 15.55L33.0097 15.52V21.87L41.1497 24.46L41.2496 49.64L28.1996 49.58ZM11.7696 15.01L8.81965 15.15L9.18965 19.22L11.7796 18.9399L11.7696 15.01ZM23.5596 5.81995L20.6096 5.95996L20.9697 10.03L23.5596 9.75V5.81995ZM32.1096 29.45L28.8697 29.5L29.2297 33.5699L32.1096 33.48V29.45ZM37.9896 29.36L35.0497 29.41L35.1597 33.38L38.0097 33.29L37.9896 29.36ZM38.0196 37.48L35.0696 37.62L35.4296 41.6801L38.0196 41.4V37.48ZM11.3697 41.3199L11.5497 45.29H8.69965L8.75965 41.28L11.3697 41.3199ZM16.6396 41.4399V45.3101H13.6597L13.7597 41.39L16.6396 41.4399ZM21.0296 28.92V33.15L18.0497 33.09L18.1197 28.8101L21.0296 28.92ZM18.2197 21.88H21.0696V25.79L18.1796 26.01L18.2197 21.88ZM24.4296 49.5601H19.8596L19.7096 44.12L24.4596 44.08L24.4296 49.5601Z" fill="black"/>
</svg>
