<?xml version="1.0" encoding="UTF-8"?>
<svg xmlns="http://www.w3.org/2000/svg" viewBox="0 0 38 39.14">
  <g id="_лой_1" data-name="Слой 1"/>
  <g id="_лой_2" data-name="Слой 2">
    <g id="Layer_3" data-name="Layer 3">
      <g>
        <path d="M7.27,36.49l-3.65-.98-.98-3.65,2.67-2.67,3.65,.98,.98,3.65-2.67,2.67Zm5.14-5.14L30.21,13.55c2.06,.5,4.33-.05,5.94-1.66,1.61-1.61,2.16-3.88,1.66-5.94l-5.14,5.14-3.65-.98-.98-3.65,5.14-5.14c-2.06-.5-4.33,.05-5.94,1.67-1.61,1.61-2.17,3.88-1.67,5.94L7.78,26.73c-2.06-.5-4.33,.05-5.94,1.67-2.46,2.46-2.46,6.44,0,8.9,2.46,2.46,6.44,2.46,8.9,0,1.61-1.61,2.17-3.88,1.67-5.94Z" style="fill: #94989b;"/>
        <polygon points="17.09 14.16 13.78 17.58 10.49 14.18 13.8 10.76 17.09 14.16" style="fill: #3e4347;"/>
        <path d="M9.92,4.15l-5.85,6.03c-.21,.22-.21,.58,0,.8l2.18,2.25,.03,.03,2.18,2.24c.21,.22,.56,.22,.78,0l5.85-6.04c.21-.22,.21-.58,0-.8l-4.38-4.52c-.21-.22-.56-.22-.77,0Z" style="fill: #94989b;"/>
        <path d="M.16,14.22c-.21,.22-.21,.58,0,.8l4.38,4.52c.21,.22,.56,.22,.77,0,0,0,1.21-1.26,1.23-1.29L1.41,12.95S.16,14.22,.16,14.22Z" style="fill: #94989b;"/>
        <path d="M6.25,13.23l-2.18-2.25s.72,1.25-1.16,1.48c-.76,.09-1.23,.26-1.5,.49l5.13,5.29c.22-.28,.38-.77,.47-1.55,.22-1.94,1.43-1.2,1.43-1.2l-2.18-2.25-.03-.03Z" style="fill: #3e4347;"/>
        <path d="M23.5,3.69c-5.97-6.11-12.56,.7-12.56,.7l3.88,4.01s3.73-5.03,8.46-3.64c.55,.16,1.04,.44,1.18,.3,.19-.19-.53-.94-.95-1.37Z" style="fill: #3e4347;"/>
        <path d="M15.44,15.87l-2.14,2.21s1.11,1.78,3.01,3.74c2.1,2.16,4.87,3.38,7.63,6.23,4.16,4.29,7.62,8.9,8.88,10.63,.47,.65,.55,.59,1.13,0l1.8-1.86L15.44,15.87Z" style="fill: #f2b200;"/>
        <path d="M15.44,15.87l2.14-2.21s1.73,1.14,3.63,3.1c2.1,2.16,3.27,5.02,6.04,7.87,4.16,4.29,8.63,7.86,10.3,9.15,.63,.49,.57,.56,0,1.16l-1.8,1.86L15.44,15.87Z" style="fill: #ffce31;"/>
      </g>
    </g>
  </g>
</svg>