<svg width="36" height="39" viewBox="0 0 36 39" fill="none" xmlns="http://www.w3.org/2000/svg">
<path fill-rule="evenodd" clip-rule="evenodd" d="M19.8621 35.8551C25.9504 29.4068 29.4952 20.4158 27.8981 12.3204C28.0851 11.7713 28.6811 10.2176 28.6811 10.2176L33.6554 8.65229C36.386 19.9057 29.7133 31.3304 20.8787 38.7054L12.9712 38.8378L4.55734 12.0127L7.38924 11.1132L19.8621 35.8551ZM19.3128 31.86L18.1676 29.6171L24.7974 8.64061C24.2014 8.61335 23.6133 8.55105 23.029 8.46149L16.9834 27.3041L15.8343 25.0612L21.2215 8.08378C20.6489 7.9436 20.0841 7.78395 19.531 7.60483L14.6501 22.7365L13.501 20.4937L17.7664 6.99738C17.2054 6.77933 16.6562 6.54959 16.1225 6.33931L12.3363 18.1729L11.1794 15.93L14.4398 5.61115C13.875 5.37362 13.3257 5.1322 12.7959 4.91414L9.98742 13.617L8.83051 11.3741L11.0742 4.24829C9.36027 3.61748 7.85668 3.29039 6.61407 3.62916C9.00969 4.55591 8.83051 10.2293 4.59629 10.2293C-1.75697 10.2293 -1.92837 0.358276 8.03976 0.358276C15.4993 0.358276 23.586 6.68977 32.5219 0.537396L35.2953 5.323C32.8452 7.24659 29.8769 8.3914 26.7724 8.63282" fill="black"/>
</svg>
