<svg width="43" height="36" viewBox="0 0 43 36" fill="none" xmlns="http://www.w3.org/2000/svg">
<path d="M1.06943 25.8913L2.3471 27.9473L2.28867 34.9836H7.52009C7.5045 33.4688 7.47334 31.3545 7.47334 30.7859C7.45387 27.7954 11.6608 27.7876 11.6881 30.9962V35.003H15.4977C15.4782 33.5078 15.4432 30.8366 15.4432 30.1785C15.4276 27.188 19.6306 27.1802 19.6579 30.3771V35.0225H23.4636C23.4442 33.5 23.413 31.0274 23.413 30.4082C23.3935 27.4177 27.5966 27.3982 27.6238 30.6068V35.042H32.6955L28.0952 24.178C16.269 24.178 6.68649 24.069 1.06943 25.8913ZM42.4611 27.1179C39.7305 26.3002 35.5391 25.9419 31.1608 25.794L33.0033 30.159C33.9927 28.3445 36.9259 28.7533 36.9259 31.2649C36.922 31.8723 36.8791 33.8193 36.8791 35.0147L41.4444 34.933L41.3743 28.8935L42.4728 27.1179H42.4611ZM2.2653 23.3914C3.99482 22.9903 5.75161 22.7217 7.52398 22.5815C7.5084 21.4873 7.48113 19.9025 7.48113 19.334C7.45776 16.3435 11.6686 16.324 11.692 19.5442V22.3245C12.8995 22.2739 14.185 22.2349 15.4938 22.2155C15.4782 21.0979 15.4432 19.3534 15.4432 18.746C15.4276 15.7555 19.6306 15.736 19.6579 18.9446V22.1532C21.1966 22.1454 22.7897 22.1454 24.4375 22.1454L19.8994 11.9784C9.5028 12.0173 4.76999 13.2322 0.656531 15.4673L2.30815 17.8893L2.2653 23.3914ZM19.6579 22.1726V22.1532H19.654L19.6579 22.1726ZM2.25361 12.3249C5.81004 10.8686 11.1272 10.1833 16.1015 10.012L12.0309 0.541992C7.11887 0.931383 2.23024 3.76225 0.58252 5.43663L2.29257 7.67173L2.25361 12.3249ZM25.8826 19.8402L23.6779 15.0663C32.6917 15.1052 39.2708 16.1527 42.8467 18.0762L41.4055 20.2023L41.4444 25.1865C39.933 24.8555 38.4022 24.6258 36.8635 24.4973C36.8635 23.7497 36.9103 22.2544 36.9142 21.5846C36.9142 18.5941 32.7306 18.5669 32.7033 21.7871V24.2364C31.7334 24.1975 30.7362 24.1663 29.7195 24.1468C29.7195 22.8541 29.7507 21.4484 29.7507 20.9967C29.7507 18.5163 26.8798 18.0879 25.8826 19.8402Z" fill="black"/>
</svg>
