<svg width="37" height="37" viewBox="0 0 37 37" fill="none" xmlns="http://www.w3.org/2000/svg">
<mask id="mask0_104_4757" style="mask-type:luminance" maskUnits="userSpaceOnUse" x="0" y="0" width="37" height="37">
<path d="M36.3301 0.73999H0.330078V36.74H36.3301V0.73999Z" fill="white"/>
</mask>
<g mask="url(#mask0_104_4757)">
<path d="M26.3301 9.74006C22.7401 9.74006 20.0601 8.09016 18.3401 4.84016C16.7201 8.06016 14.3201 9.74006 11.3301 9.74006C10.7801 9.74006 10.3301 9.30006 10.3301 8.74006C10.3301 8.19006 10.7701 7.74006 11.3301 7.74006C14.0601 7.74006 16.1001 5.77999 17.3901 1.91999C17.5601 1.39999 18.1301 1.11011 18.6501 1.29011C18.9501 1.39011 19.1901 1.61999 19.2901 1.91999C20.6101 5.88999 22.8501 7.74006 26.3401 7.74006C26.8901 7.74006 27.3401 8.18006 27.3401 8.74006C27.3301 9.30006 26.8801 9.74006 26.3301 9.74006Z" fill="#292F33"/>
</g>
<mask id="mask1_104_4757" style="mask-type:luminance" maskUnits="userSpaceOnUse" x="0" y="0" width="37" height="37">
<path d="M36.3301 0.73999H0.330078V36.74H36.3301V0.73999Z" fill="white"/>
</mask>
<g mask="url(#mask1_104_4757)">
<path d="M15.0398 10.3998C18.4098 13.7598 15.5398 16.3498 12.1698 19.7198C8.80977 23.0898 6.21977 25.95 2.84977 22.59C-0.520234 19.23 -0.520234 13.7698 2.84977 10.4098C6.21977 7.02979 11.6698 7.02978 15.0398 10.3998Z" fill="#FFAC33"/>
</g>
<mask id="mask2_104_4757" style="mask-type:luminance" maskUnits="userSpaceOnUse" x="0" y="0" width="37" height="37">
<path d="M36.3301 0.73999H0.330078V36.74H36.3301V0.73999Z" fill="white"/>
</mask>
<g mask="url(#mask2_104_4757)">
<path d="M15.8698 11.7099C17.4498 13.2899 16.1198 17.1998 12.8898 20.4298C9.65984 23.6598 5.74984 24.9998 4.16984 23.4098C2.58984 21.8198 3.91984 17.9199 7.15984 14.6899C10.3898 11.4599 14.2898 10.1299 15.8698 11.7099Z" fill="#BE1931"/>
</g>
<mask id="mask3_104_4757" style="mask-type:luminance" maskUnits="userSpaceOnUse" x="0" y="0" width="37" height="37">
<path d="M36.3301 0.73999H0.330078V36.74H36.3301V0.73999Z" fill="white"/>
</mask>
<g mask="url(#mask3_104_4757)">
<path d="M21.6203 10.3998C18.2603 13.7598 21.1203 16.3499 24.4903 19.7199C27.8603 23.0899 30.4503 25.95 33.8103 22.59C37.1603 19.21 37.1203 13.7498 33.7403 10.3998C30.3803 7.06984 24.9803 7.06984 21.6203 10.3998Z" fill="#FFAC33"/>
</g>
<mask id="mask4_104_4757" style="mask-type:luminance" maskUnits="userSpaceOnUse" x="0" y="0" width="37" height="37">
<path d="M36.3301 0.73999H0.330078V36.74H36.3301V0.73999Z" fill="white"/>
</mask>
<g mask="url(#mask4_104_4757)">
<path d="M20.7902 11.7099C19.2102 13.2899 20.5402 17.1998 23.7702 20.4298C27.0002 23.6598 30.9102 24.9998 32.4902 23.4098C34.0702 21.8198 32.7402 17.9199 29.5002 14.6899C26.2802 11.4599 22.3702 10.1299 20.7902 11.7099Z" fill="#BE1931"/>
</g>
<mask id="mask5_104_4757" style="mask-type:luminance" maskUnits="userSpaceOnUse" x="0" y="0" width="37" height="37">
<path d="M36.3301 0.73999H0.330078V36.74H36.3301V0.73999Z" fill="white"/>
</mask>
<g mask="url(#mask5_104_4757)">
<path d="M22.7402 18.9601C22.9402 18.8001 23.2102 18.7201 23.4802 18.7501C24.3502 18.8401 25.0802 19.1402 25.5902 19.6202C26.1302 20.1302 26.4002 20.8001 26.3302 21.4801C26.2002 22.6701 25.0002 23.7702 22.9602 23.5502C22.1702 23.4602 21.8102 23.7202 21.8102 23.8402C21.7902 23.9602 22.0902 24.2902 22.8802 24.3702C23.7502 24.4702 24.4802 24.7701 24.9902 25.2501C25.5302 25.7501 25.8002 26.4302 25.7302 27.1102C25.6002 28.3002 24.4102 29.4 22.3702 29.17C21.7902 29.11 21.4802 29.2302 21.3602 29.3002C21.2502 29.3602 21.2102 29.4301 21.2102 29.4601C21.2002 29.5801 21.4902 29.9001 22.2802 29.9901C22.8302 30.0501 23.2202 30.5402 23.1702 31.0902C23.1102 31.6402 22.6202 32.0401 22.0702 31.9801C20.0302 31.7601 19.1002 30.4401 19.2202 29.2401C19.3502 28.0501 20.5402 26.95 22.5802 27.18C23.1602 27.24 23.4602 27.1202 23.5902 27.0502C23.7002 26.9902 23.7402 26.92 23.7402 26.89C23.7602 26.77 23.4702 26.4402 22.6702 26.3602C20.6402 26.1402 19.7002 24.82 19.8302 23.63C19.9602 22.44 21.1502 21.3402 23.1902 21.5702C23.7702 21.6302 24.0702 21.51 24.2002 21.43C24.3102 21.37 24.3502 21.3101 24.3502 21.2801C24.3602 21.1601 24.0702 20.8301 23.2802 20.7501C22.7302 20.6901 22.3302 20.2 22.3902 19.65C22.4002 19.37 22.5302 19.1301 22.7402 18.9601Z" fill="#AA8DD8"/>
</g>
<mask id="mask6_104_4757" style="mask-type:luminance" maskUnits="userSpaceOnUse" x="0" y="0" width="37" height="37">
<path d="M36.3301 0.73999H0.330078V36.74H36.3301V0.73999Z" fill="white"/>
</mask>
<g mask="url(#mask6_104_4757)">
<path d="M15.6003 36.57C13.6303 37.13 12.2703 36.25 11.9403 35.1C11.6203 33.95 12.3203 32.4799 14.2903 31.9299C15.0603 31.7099 15.2903 31.3499 15.2603 31.2299C15.2203 31.1099 14.8303 30.9198 14.0703 31.1398C12.1003 31.6998 10.7403 30.8198 10.4103 29.6598C10.0903 28.4998 10.7903 27.0399 12.7603 26.4899C13.5303 26.2699 13.7603 25.91 13.7303 25.79C13.7003 25.68 13.3103 25.4799 12.5403 25.6999C12.0103 25.8599 11.4503 25.57 11.2803 25.04C11.1203 24.51 11.4103 23.96 11.9403 23.79C11.9603 23.79 11.9703 23.7799 11.9903 23.7799C13.9603 23.2299 15.3203 24.0999 15.6503 25.2599C15.9703 26.4099 15.2703 27.8699 13.2903 28.4299C12.5203 28.6499 12.2903 29.01 12.3203 29.12C12.3503 29.24 12.7403 29.4299 13.5103 29.2199C15.4803 28.6699 16.8403 29.5399 17.1703 30.6999C17.4903 31.8499 16.7903 33.31 14.8103 33.87C14.0403 34.09 13.8103 34.45 13.8403 34.57C13.8703 34.69 14.2603 34.8798 15.0303 34.6698C15.5603 34.5198 16.1103 34.83 16.2603 35.36C16.4403 35.87 16.1303 36.42 15.6003 36.57Z" fill="#77B255"/>
</g>
<mask id="mask7_104_4757" style="mask-type:luminance" maskUnits="userSpaceOnUse" x="0" y="0" width="37" height="37">
<path d="M36.3301 0.73999H0.330078V36.74H36.3301V0.73999Z" fill="white"/>
</mask>
<g mask="url(#mask7_104_4757)">
<path d="M1.33008 28.24C1.33008 27.41 2.00008 26.74 2.83008 26.74C3.66008 26.74 4.33008 27.41 4.33008 28.24C4.33008 29.07 3.66008 29.74 2.83008 29.74C2.00008 29.74 1.33008 29.07 1.33008 28.24Z" fill="#5C913B"/>
</g>
<mask id="mask8_104_4757" style="mask-type:luminance" maskUnits="userSpaceOnUse" x="0" y="0" width="37" height="37">
<path d="M36.3301 0.73999H0.330078V36.74H36.3301V0.73999Z" fill="white"/>
</mask>
<g mask="url(#mask8_104_4757)">
<path d="M28.3301 27.74C28.3301 26.64 29.2201 25.74 30.3301 25.74C31.4301 25.74 32.3301 26.63 32.3301 27.74C32.3301 28.84 31.4301 29.74 30.3301 29.74C29.2301 29.74 28.3301 28.84 28.3301 27.74ZM5.33008 31.74C5.33008 30.64 6.23008 29.74 7.33008 29.74C8.43008 29.74 9.33008 30.63 9.33008 31.74C9.33008 32.85 8.44008 33.74 7.33008 33.74C6.22008 33.74 5.33008 32.85 5.33008 31.74Z" fill="#9266CC"/>
</g>
<mask id="mask9_104_4757" style="mask-type:luminance" maskUnits="userSpaceOnUse" x="0" y="0" width="37" height="37">
<path d="M36.3301 0.73999H0.330078V36.74H36.3301V0.73999Z" fill="white"/>
</mask>
<g mask="url(#mask9_104_4757)">
<path d="M16.3301 20.24C16.3301 19.41 17.0001 18.74 17.8301 18.74C18.6601 18.74 19.3301 19.41 19.3301 20.24C19.3301 21.07 18.6601 21.74 17.8301 21.74C17.0001 21.74 16.3301 21.07 16.3301 20.24ZM24.3301 32.24C24.3301 31.41 25.0001 30.74 25.8301 30.74C26.6601 30.74 27.3301 31.41 27.3301 32.24C27.3301 33.07 26.6601 33.74 25.8301 33.74C25.0001 33.74 24.3301 33.07 24.3301 32.24Z" fill="#5C913B"/>
</g>
<mask id="mask10_104_4757" style="mask-type:luminance" maskUnits="userSpaceOnUse" x="0" y="0" width="37" height="37">
<path d="M36.3301 0.73999H0.330078V36.74H36.3301V0.73999Z" fill="white"/>
</mask>
<g mask="url(#mask10_104_4757)">
<path d="M11.3301 15.24C11.3301 14.41 12.0001 13.74 12.8301 13.74C13.6601 13.74 14.3301 14.41 14.3301 15.24C14.3301 16.07 13.6601 16.74 12.8301 16.74C12.0001 16.74 11.3301 16.07 11.3301 15.24ZM26.3301 17.24C26.3301 16.41 27.0001 15.74 27.8301 15.74C28.6601 15.74 29.3301 16.41 29.3301 17.24C29.3301 18.07 28.6601 18.74 27.8301 18.74C27.0001 18.74 26.3301 18.07 26.3301 17.24ZM5.33008 23.74C5.33008 22.64 6.23008 21.74 7.33008 21.74C8.43008 21.74 9.33008 22.63 9.33008 23.74C9.33008 24.85 8.44008 25.74 7.33008 25.74C6.22008 25.74 5.33008 24.85 5.33008 23.74Z" fill="#FFCC4D"/>
</g>
</svg>
