<svg width="34" height="37" viewBox="0 0 34 37" fill="none" xmlns="http://www.w3.org/2000/svg">
<path d="M14.1894 1.52002C14.3894 1.14002 14.7294 0.529922 15.9994 0.919922C17.9194 1.49992 16.1894 2.52002 16.1894 2.52002C16.1894 2.52002 18.1894 3.52002 18.1894 6.52002C18.1894 9.52002 17.1894 8.36002 17.1894 11.52C17.1894 13.52 15.1894 11.52 15.1894 11.52L12.1894 14.52C8.1894 18.52 6.1894 13.52 7.1894 11.52C8.1894 9.52002 7.1894 9.52002 7.1894 7.52002C7.1894 5.52002 9.1894 5.52002 9.1894 3.52002C9.1894 1.52002 11.1894 0.52002 12.1894 0.52002C13.1894 0.52002 14.1894 1.52002 14.1894 1.52002Z" fill="#FFAC33"/>
<path d="M10.1895 5.52002C10.1895 7.18002 11.3694 8.52002 12.8094 8.52002C14.2594 8.52002 15.4395 7.18002 15.4395 5.52002C15.4395 3.86002 14.2594 2.52002 12.8094 2.52002C11.3694 2.52002 10.1895 3.87002 10.1895 5.52002Z" fill="#FFDC5D"/>
<path d="M12.6902 1.52002C11.7602 1.52002 10.9702 1.82003 10.5302 2.28003C9.43015 2.07003 10.0502 3.79003 9.19016 5.53003C8.19016 7.53003 10.1902 9.53003 10.1902 8.53003C10.1902 7.53003 10.1902 4.53003 12.1902 4.53003H12.6902C14.0702 4.53003 15.1902 3.86004 15.1902 3.04004C15.1902 2.19004 14.0702 1.52002 12.6902 1.52002Z" fill="#FFAC33"/>
<path d="M14.1897 33.5199C13.6897 33.5199 13.2697 33.1498 13.1997 32.6598L12.1997 25.6598C12.1097 25.1098 12.4697 24.5999 13.0197 24.5099C13.5597 24.4199 14.0797 24.78 14.1697 25.33C14.1697 25.35 14.1797 25.3698 14.1797 25.3798L15.1797 32.3798C15.2597 32.9298 14.8797 33.4399 14.3297 33.5099C14.2897 33.5199 14.2397 33.5199 14.1897 33.5199ZM20.8997 10.81C20.5297 10.44 19.0997 9.58992 13.8697 9.51992L13.4397 5.63979C13.3497 5.09979 12.8397 4.71995 12.2997 4.79995C11.7797 4.87995 11.4197 5.34001 11.4497 5.86001L11.8597 9.51992H7.27972L1.35972 8.52993C0.819721 8.42993 0.289723 8.78998 0.189723 9.32998C0.0797225 9.86998 0.439716 10.3999 0.979716 10.4999C0.999716 10.4999 1.00972 10.4999 1.02972 10.5099L7.02972 11.5099C7.07972 11.5199 7.13972 11.5299 7.19972 11.5299H9.94972C9.95972 11.7899 10.0297 12.1099 10.1997 12.5299C11.1997 15.0299 13.1997 20.5299 13.1997 20.5299C15.4097 20.5299 16.1997 15.5099 16.1997 13.0299C16.1997 12.4199 16.1597 11.97 16.0497 11.62C17.2597 11.71 18.0797 11.8399 18.6197 11.9699L16.4097 14.9298C16.0797 15.3698 16.1697 16 16.6097 16.33C17.0497 16.66 17.6797 16.5698 18.0097 16.1298L21.0097 12.1298C21.2897 11.7198 21.2497 11.16 20.8997 10.81Z" fill="#FFDC5D"/>
<path d="M14.1895 21.52C13.6395 21.52 13.1895 21.06 13.1895 20.52C13.1895 20.04 13.5295 19.63 13.9995 19.54L29.9995 16.54C30.5395 16.44 31.0594 16.79 31.1694 17.33C31.1694 17.33 31.1694 17.33 31.1694 17.34C31.2694 17.88 30.9194 18.41 30.3694 18.51L14.3694 21.51C14.3094 21.51 14.2495 21.52 14.1895 21.52Z" fill="#FFDC5D"/>
<path d="M10.1902 13.52C10.1902 13.52 11.1902 14.52 11.1902 16.52C11.1902 18.52 11.1902 19.53 9.19016 22.52C7.19016 25.52 5.19016 25.52 4.19016 27.52C3.19016 29.52 4.19016 29.52 6.19016 28.52C8.19016 27.52 7.19016 32.52 10.1902 32.52C13.1902 32.52 12.1902 29.52 14.1902 29.52C16.1902 29.52 17.1902 32.52 19.1902 32.52C21.1902 32.52 21.7702 30.1 20.1902 28.52C19.1902 27.52 22.1902 25.51 23.1902 26.52C24.7702 28.1 26.4202 25.76 24.1902 23.52C23.1902 22.52 22.4002 21.42 24.1902 20.52C26.1902 19.52 26.6902 15.52 24.1902 16.52C20.8502 17.86 16.1902 19.68 16.1902 16.52V12.52C16.1902 12.52 14.1902 12.52 14.1902 9.52002C14.1902 9.52002 12.9402 13.52 10.9402 9.52002C10.9402 9.52002 12.1902 12.52 10.1902 13.52Z" fill="#DD2E44"/>
<path d="M30.6194 19.15C30.0694 19.15 29.6194 18.7 29.6194 18.15C29.6194 17.92 29.6994 17.7001 29.8394 17.5201L31.6194 15.3102C31.9694 14.8802 32.5994 14.81 33.0294 15.16C33.4594 15.51 33.5294 16.1302 33.1794 16.5602L31.3994 18.7701C31.2094 19.0201 30.9194 19.15 30.6194 19.15ZM14.1895 36.5201C13.6395 36.5201 13.1895 36.0701 13.1895 35.5201V32.5201C13.1895 31.9701 13.6395 31.5201 14.1895 31.5201C14.7395 31.5201 15.1895 31.9701 15.1895 32.5201V35.5201C15.1895 36.0801 14.7395 36.5201 14.1895 36.5201Z" fill="#DD2E44"/>
</svg>
