<svg width="36" height="36" viewBox="0 0 36 36" fill="none" xmlns="http://www.w3.org/2000/svg">
<path d="M35.3886 31.718C35.3886 33.8908 33.6006 35.6859 31.4192 35.6859H5.64389C3.45862 35.6859 1.67456 33.8908 1.67456 31.718V18.8292C1.67456 16.6447 3.45862 14.8613 5.64389 14.8613H31.4192C33.6006 14.8613 35.3886 16.6447 35.3886 18.8292" fill="#3E7022"/>
<path d="M1.67456 20.8112H35.3886V14.8613H1.67456V20.8112Z" fill="#3E7022"/>
<path d="M1.67456 21.8017H35.3886V14.8589H1.67456V21.8017Z" fill="#CCD5DD"/>
<path d="M26.4644 14.8613L22.495 21.8003H29.4365L33.4058 14.8613H26.4644ZM12.5815 14.8613L8.61602 21.8003H15.5575L19.5229 14.8613H12.5815ZM1.67456 14.8613H5.64L1.67456 21.8003" fill="#292E33"/>
<path d="M34.3879 6.72867L1.67499 14.863L0 8.13437L32.7129 0L34.3879 6.72867Z" fill="#CCD5DD"/>
<path d="M32.4636 7.2068L26.9439 1.43604L20.205 3.11041L25.7286 8.88118L32.4636 7.2068ZM18.9975 10.5556L13.47 4.78479L6.73501 6.45917L12.2586 12.2299L18.9975 10.5556ZM0 8.13355L5.52746 13.9043L1.67499 14.8622" fill="#292E33"/>
</svg>
