<?xml version="1.0" encoding="UTF-8"?>
<svg xmlns="http://www.w3.org/2000/svg" xmlns:xlink="http://www.w3.org/1999/xlink" viewBox="0 0 34.72 36.72">
  <defs>
    <style>
      .cls-1 {
        fill: #f4900c;
      }

      .cls-2 {
        clip-path: url(#clippath);
      }

      .cls-3 {
        fill: none;
      }

      .cls-4 {
        fill: #ffcc4d;
      }
    </style>
    <clipPath id="clippath">
      <path d="M16.94,9.32c-3.02,.24-5.79-2.6-4.77-7.19-3.31,2.44-3.4,6.54-2.39,9.19,1.07,2.77-.04,5.07-2.64,5.32-2.9,.29-4.51-3.11-3.02-8.51C1.46,11.26,0,15.24,0,19.36,0,28.95,7.77,36.72,17.36,36.72s17.36-7.77,17.36-17.36c0-2.11-.38-4.12-1.06-5.99-.47,5.5-3.41,8.33-6.47,7.01-2.87-1.23-.94-6.04-.79-8.34,.24-3.89-.01-8.34-7.08-12.04,2.94,5.62,.34,9.1-2.39,9.32" style="fill: none;"/>
    </clipPath>
  </defs>
  <g id="_лой_1" data-name="Слой 1"/>
  <g id="_лой_2" data-name="Слой 2">
    <g id="Layer_3" data-name="Layer 3">
      <g>
        <path d="M34.72,19.36c0-2.11-.38-4.12-1.06-5.99-.47,5.5-3.41,8.33-6.47,7.01-2.87-1.23-.94-6.04-.79-8.34,.24-3.89-.01-8.34-7.08-12.04,2.94,5.62,.34,9.1-2.39,9.32-3.02,.23-5.79-2.6-4.77-7.19-3.31,2.44-3.4,6.54-2.39,9.19,1.07,2.77-.04,5.06-2.64,5.32-2.9,.29-4.51-3.11-3.02-8.51C1.46,11.26,0,15.24,0,19.36,0,28.95,7.77,36.72,17.36,36.72s17.36-7.77,17.36-17.36" style="fill: #f4900c;"/>
        <g style="clip-path: url(#clippath);">
          <path d="M29.62,30.59c0-2.23-.6-4.33-1.64-6.13,.15,3.15-2.61,4.38-4.1,3.79-2.15-.86-1.57-2.34-2.13-5.4-.56-3.07-2.68-5.19-5.83-6.13,2.3,6.47-1.27,8.85-3.15,9.28-1.91,.43-3.83,0-4.05-4.1-2.31,2.3-3.61,5.43-3.6,8.69,0,6.77,5.48,12.26,12.25,12.26s12.25-5.49,12.25-12.26" style="fill: #ffcc4d;"/>
        </g>
      </g>
    </g>
  </g>
</svg>