<svg width="18" height="36" viewBox="0 0 18 36" fill="none" xmlns="http://www.w3.org/2000/svg">
<path d="M17.8523 31.7197C17.8523 33.912 16.076 35.6876 13.8829 35.6876H3.96933C1.77627 35.6876 0 33.912 0 31.7197V3.96789C0 1.77562 1.77627 0 3.96933 0H13.8829C16.076 0 17.8523 1.77562 17.8523 3.96789" fill="#292E33"/>
<path d="M8.92028 24.7798C11.1172 24.7798 12.8896 26.5554 12.8896 28.7477C12.8896 30.9322 11.1172 32.7039 8.92418 32.7039C6.73501 32.7039 4.95874 30.9399 4.95874 28.7477C4.95874 26.5554 6.73501 24.7798 8.92028 24.7798Z" fill="#77B154"/>
<path d="M8.92028 13.8767C11.1172 13.8767 12.8896 15.6484 12.8896 17.8407C12.8896 20.0252 11.1172 21.8086 8.92418 21.8086C6.73501 21.8086 4.95874 20.0369 4.95874 17.8407C4.95874 15.6484 6.73501 13.8767 8.92028 13.8767Z" fill="#FFCC4D"/>
<path d="M8.92028 2.97144C11.1172 2.97144 12.8896 4.74706 12.8896 6.93932C12.8896 9.13159 11.1172 10.9072 8.92418 10.9072C6.73501 10.9072 4.95874 9.13159 4.95874 6.93932C4.95874 4.75484 6.73501 2.97144 8.92028 2.97144Z" fill="#DD2D44"/>
</svg>
