<svg width="37" height="36" viewBox="0 0 37 36" fill="none" xmlns="http://www.w3.org/2000/svg">
<path d="M29.2402 11.24H7.24023V29.24H29.2402V11.24Z" fill="#292F33"/>
<path d="M24.24 29.24C24.24 30.34 23.64 31.24 22.91 31.24H21.58C20.84 31.24 20.25 30.34 20.25 29.24V11.24C20.25 10.14 20.84 9.23999 21.58 9.23999H22.91C23.65 9.23999 24.24 10.14 24.24 11.24V29.24ZM16.24 29.24C16.24 30.34 15.65 31.24 14.91 31.24H13.57C12.83 31.24 12.24 30.34 12.24 29.24V11.24C12.24 10.14 12.84 9.23999 13.57 9.23999H14.91C15.65 9.23999 16.24 10.14 16.24 11.24V29.24ZM32.24 29.24C32.24 30.34 31.64 31.24 30.9 31.24H29.57C28.83 31.24 28.24 30.34 28.24 29.24V11.24C28.24 10.14 28.84 9.23999 29.57 9.23999H30.9C31.64 9.23999 32.24 10.14 32.24 11.24V29.24ZM8.23999 29.24C8.23999 30.34 7.64 31.24 6.91 31.24H5.57999C4.83999 31.24 4.25 30.34 4.25 29.24V11.24C4.25 10.14 4.84999 9.23999 5.57999 9.23999H6.91C7.65 9.23999 8.23999 10.14 8.23999 11.24V29.24Z" fill="#CCD6DD"/>
<path d="M33.2402 30.2401C33.2402 31.3501 32.3402 32.2401 31.2402 32.2401H5.24023C4.14023 32.2401 3.24023 31.3501 3.24023 30.2401C3.24023 29.1401 4.14023 28.2501 5.24023 28.2501H31.2402C32.3402 28.2401 33.2402 29.1301 33.2402 30.2401Z" fill="#9AAAB4"/>
<path d="M35.2402 32.24C35.2402 33.34 34.3402 34.24 33.2402 34.24H3.24023C2.14023 34.24 1.24023 33.34 1.24023 32.24C1.24023 31.14 2.14023 30.24 3.24023 30.24H33.2402C34.3402 30.24 35.2402 31.14 35.2402 32.24Z" fill="#CCD6DD"/>
<path d="M36.2402 33.74C36.2402 34.57 35.5702 35.24 34.7402 35.24H1.74023C0.910234 35.24 0.240234 34.57 0.240234 33.74C0.240234 32.91 0.910234 32.24 1.74023 32.24H34.7402C35.5702 32.24 36.2402 32.91 36.2402 33.74Z" fill="#E1E8ED"/>
<path d="M33.2402 10.24C33.2402 9.13999 32.2802 8.23999 31.1102 8.23999H5.24023C4.06023 8.23999 3.24023 9.13999 3.24023 10.24C3.24023 10.99 3.63023 11.63 4.24023 11.98V13.24H8.24023V12.24H12.2402V13.24H16.2402V12.24H20.2402V13.24H24.2402V12.24H28.2402V13.24H32.2402V11.9299C32.8402 11.5699 33.2402 10.95 33.2402 10.24Z" fill="#9AAAB4"/>
<path d="M2.24023 8.67993C2.24023 7.64993 3.25024 7.23999 3.25024 7.23999L18.1602 0.23999L33.2102 7.23999C33.2102 7.23999 34.2502 7.46994 34.2502 8.68994V9.23999H2.25024V8.67993H2.24023Z" fill="#CCD6DD"/>
<path d="M18.2404 2.78003C18.2404 2.78003 7.92044 7.65008 6.89044 8.08008C5.86044 8.52008 6.20044 9.22998 6.89044 9.22998H29.5404C30.6004 9.22998 30.3504 8.41998 29.5104 7.97998C28.6604 7.54998 18.2404 2.78003 18.2404 2.78003Z" fill="#9AAAB4"/>
<path d="M34.2402 9.23999C34.2402 9.78999 33.7902 10.24 33.2402 10.24H3.24023C2.69023 10.24 2.24023 9.78999 2.24023 9.23999C2.24023 8.68999 2.69023 8.23999 3.24023 8.23999H33.2402C33.7902 8.23999 34.2402 8.68999 34.2402 9.23999Z" fill="#CCD6DD"/>
</svg>
