<?xml version="1.0" encoding="UTF-8"?>
<svg xmlns="http://www.w3.org/2000/svg" viewBox="0 0 38 39.14">
  <g id="_лой_1" data-name="Слой 1"/>
  <g id="_лой_2" data-name="Слой 2">
    <g id="Layer_3" data-name="Layer 3">
      <g>
        <path d="M14.63,33.39c-.62-.62-1.53-1.53-2.85-2.84-3.62-3.61-1.29-6.15-1.29-6.15l-2.72-2.72s-4.52,5.21,.63,10.36l3.79,3.78,2.43-2.43Z" style="fill: #94989b;"/>
        <path d="M19.99,27.25h4.27c2.87-6.48-.94-14.6-1.03-14.76l-3.42,1.73s2.8,8.11,.18,13.03Z" style="fill: #94989b;"/>
        <path d="M26.47,29.03h0c-.88-2.79-3.48-4.81-6.56-4.83-3.08,.02-5.69,2.04-6.57,4.82h0l-3.1,8.93H29.58l-3.1-8.92Z" style="fill: #333;"/>
        <polygon points="11.39 17.2 25.98 4.81 29.74 9.17 15.15 21.57 11.39 17.2" style="fill: #333;"/>
        <polygon points="14.46 20.77 12.08 18 10.94 19.47 12.82 21.66 14.46 20.77" style="fill: #94989b;"/>
        <polygon points="30.51 7.13 28.13 4.37 26.67 5.61 29.05 8.37 30.51 7.13" style="fill: #94989b;"/>
        <polygon points="31.2 7.93 27.44 3.57 28.9 2.33 32.66 6.69 31.2 7.93" style="fill: #333;"/>
        <path d="M25.73,16.46c-.7,1.99-2.9,3.03-4.9,2.32-2.01-.71-3.06-2.89-2.36-4.88,.7-1.99,2.9-3.03,4.9-2.32,2,.71,3.06,2.9,2.36,4.88Z" style="fill: #d0d0d0;"/>
        <path d="M19.9,27.26c2.13,0,3.85,1.71,3.85,3.82s-1.72,3.82-3.85,3.82-3.85-1.71-3.85-3.82,1.72-3.82,3.85-3.82Z" style="fill: #d0d0d0;"/>
        <path d="M21.47,16.98c1,.35,2.1-.17,2.45-1.16,.35-.99-.18-2.09-1.18-2.44-1-.35-2.1,.17-2.45,1.16-.35,.99,.18,2.09,1.18,2.44Z" style="fill: #333;"/>
        <path d="M19.9,29.17c1.06,0,1.93,.86,1.93,1.91s-.86,1.91-1.93,1.91-1.93-.86-1.93-1.91,.86-1.91,1.93-1.91Z" style="fill: #333;"/>
        <rect x="8.62" y="18.2" width=".96" height="9.67" transform="translate(-13.63 13.2) rotate(-45.04)" style="fill: #333;"/>
        <rect x="9.3" y="17.52" width=".96" height="9.67" transform="translate(-12.95 13.48) rotate(-45.04)" style="fill: #29abe2;"/>
      </g>
    </g>
  </g>
</svg>