<?xml version="1.0" encoding="UTF-8"?>
<svg xmlns="http://www.w3.org/2000/svg" xmlns:xlink="http://www.w3.org/1999/xlink" viewBox="0 0 36 36">
  <defs>
    <style>
      .cls-1 {
        fill: #f4900c;
      }

      .cls-2 {
        fill: #ffe8b6;
      }

      .cls-3 {
        clip-path: url(#clippath);
      }

      .cls-4 {
        fill: none;
      }

      .cls-5 {
        fill: #269;
      }

      .cls-6 {
        fill: #3b88c3;
      }
    </style>
    <clipPath id="clippath">
      <path d="M4,0C1.79,0,0,1.79,0,4v28c0,2.21,1.79,4,4,4H32c2.21,0,4-1.79,4-4V4c0-2.21-1.79-4-4-4H4Z" style="fill: none;"/>
    </clipPath>
  </defs>
  <g id="_лой_1" data-name="Слой 1"/>
  <g id="_лой_2" data-name="Слой 2">
    <g id="Layer_3" data-name="Layer 3">
      <g style="clip-path: url(#clippath);">
        <path d="M32.11,18.73c1.59-.45,1.59-1.15,0-1.6l-.56-.15-.56-.17h0l-2.94-.88,2.32-1.93h-.01l.5-.32,.5-.36c1.29-1.02,1.01-1.69-.63-1.5l-.63,.09-.63,.09h0l-2.98,.34,1.77-3.18,.31-.56c.8-1.44,.28-1.96-1.16-1.16l-.56,.28-.56,.28h0l-2.63,1.49,.34-2.95h0l.08-.63,.08-.64c.19-1.63-.49-1.91-1.52-.62l-.39,.5-2.25,2.85-.82-2.88h0l-.35-1.23c-.45-1.59-1.19-1.59-1.64,0l-.17,.61-.17,.61-.82,2.88-1.86-2.35h0l-.39-.5-.4-.5c-1.02-1.28-1.7-1.01-1.52,.63l.07,.64,.08,.63h0l.35,2.98-3.18-1.77-.55-.31c-1.45-.8-1.97-.28-1.16,1.16l.31,.55,1.77,3.18-2.98-.34-.63-.08-.63-.07c-1.63-.19-1.92,.49-.63,1.51l.5,.4,.5,.39h0l2.35,1.86-2.89,.82-.61,.17-.61,.17c-1.59,.45-1.59,1.19,0,1.64l1.22,.35h0l2.88,.82-2.85,2.26-.5,.39c-1.29,1.02-1.01,1.71,.62,1.52l.64-.08,.63-.08h0l2.95-.34-1.49,2.62h0l-.28,.56-.3,.56c-.8,1.44-.27,1.96,1.17,1.16l.56-.31,3.18-1.77-.34,2.98h0l-.08,.63-.08,.64c-.19,1.64,.49,1.92,1.52,.63l.39-.5,.4-.5,1.86-2.35,.82,2.88h0l.17,.62,.17,.61c.45,1.58,1.1,1.58,1.56,0l.26-1.23h0l.91-2.88,1.9,2.35,.42,.5,.41,.5c1.02,1.29,1.71,1.01,1.52-.63l-.08-.64-.08-.63h0l-.34-2.95,2.62,1.49h0l.56,.28,.56,.3c1.44,.8,1.96,.27,1.16-1.17l-.28-.56-.28-.56h0l-1.49-2.63,2.95,.34h0l.63,.08,.63,.08c1.64,.19,1.92-.49,.63-1.52l-.5-.4-.5-.39-2.35-1.95,2.88-.9h0l1.23-.27Z" style="fill: #f4900c;"/>
        <path d="M27.63,18c0,5.32-4.31,9.63-9.63,9.63s-9.63-4.31-9.63-9.63h0c0-5.32,4.31-9.63,9.63-9.63h0c5.32,0,9.63,4.31,9.63,9.63" style="fill: #ffe8b6;"/>
        <rect x="-1" y="22" width="38" height="18" style="fill: #269;"/>
        <path d="M26,34c-1.98,0-3.25-.75-4-1.43-.75,.69-2.02,1.43-4,1.43s-3.25-.75-4-1.43c-.75,.69-2.02,1.43-4,1.43-3.58,0-4.85-2.45-4.9-2.55-.25-.5-.05-1.09,.44-1.34,.49-.25,1.09-.05,1.34,.44,.05,.08,.83,1.46,3.12,1.46s3.08-1.4,3.11-1.46c.17-.32,.52-.53,.9-.53,.37,0,.71,.21,.89,.54,.02,.05,.8,1.45,3.1,1.45s3.08-1.4,3.11-1.46c.18-.32,.53-.54,.9-.53,.37,0,.71,.22,.88,.54,.02,.05,.81,1.45,3.11,1.45s3.08-1.4,3.11-1.46c.26-.48,.86-.67,1.34-.42,.48,.25,.68,.84,.44,1.33-.05,.1-1.32,2.55-4.89,2.55m-4-6c-1.98,0-3.25-.75-4-1.44-.75,.69-2.02,1.44-4,1.44-3.57,0-4.84-2.45-4.89-2.55-.25-.49-.05-1.1,.44-1.35,.5-.25,1.1-.05,1.34,.44,.04,.08,.84,1.46,3.11,1.46s3.08-1.4,3.11-1.46c.18-.33,.51-.52,.9-.53,.37,0,.71,.21,.89,.54,.02,.04,.8,1.45,3.1,1.45s3.08-1.4,3.11-1.46c.26-.48,.86-.68,1.34-.42,.49,.25,.68,.84,.44,1.33-.05,.11-1.32,2.55-4.89,2.55" style="fill: #3b88c3;"/>
      </g>
    </g>
  </g>
</svg>