<svg width="23" height="30" viewBox="0 0 23 30" fill="none" xmlns="http://www.w3.org/2000/svg">
<path fill-rule="evenodd" clip-rule="evenodd" d="M22.5843 27.8473C22.5843 30.2499 17.7307 30.2499 17.7307 27.8473V25.3942L22.5843 25.4448V27.8473ZM5.80714 27.8473C5.80714 30.2499 0.953575 30.2499 0.953575 27.8473V25.2228L5.80714 25.2735V27.8473ZM19.1837 17.9958C16.8309 17.9958 16.6322 21.656 19.3473 21.656C21.6338 21.6443 21.5754 17.988 19.1837 17.988V17.9958ZM20.66 5.98696L2.73374 5.74554C2.73374 5.74554 2.7649 10.3598 2.81943 12.7039C2.85839 14.3394 3.06484 15.7451 5.28907 15.7451C7.5133 15.7451 16.0168 15.6555 18.5215 15.6555C20.2977 15.6555 20.6133 14.5691 20.6795 13.1128C20.7808 10.6713 20.66 5.98696 20.66 5.98696ZM7.29905 2.0658L7.64574 4.1101L15.5649 4.00107L15.7675 2.0658H7.29905ZM5.25401 22.244C8.30794 22.244 8.22614 17.3572 5.03198 17.3572C1.90014 17.3805 1.63526 22.2635 5.25401 22.2635V22.244ZM22.8764 23.9885L0.626368 24.0858C0.626368 24.0858 0.458869 4.99791 0.470555 4.30869C0.528984 1.4895 1.65084 0.153889 4.06594 0.153889C6.0136 0.153889 16.2778 0.0954803 18.7591 0.153889C21.6027 0.212297 22.9427 1.82827 22.9427 4.44887C22.9271 5.13809 22.8764 23.9885 22.8764 23.9885Z" fill="black"/>
</svg>
