<?xml version="1.0" encoding="UTF-8"?>
<svg xmlns="http://www.w3.org/2000/svg" viewBox="0 0 38 39.14">
  <g id="_лой_1" data-name="Слой 1"/>
  <g id="_лой_2" data-name="Слой 2">
    <g id="Layer_3" data-name="Layer 3">
      <g>
        <path d="M15.14,9.09c0-2.62-1.93-4.75-4.32-4.75s-4.31,2.13-4.31,4.75c0,1.44,1,2.98,1.52,4.2,.45,1.08,.35,4.77,.35,4.77h4.81s-.02-3.69,.44-4.77c.51-1.22,1.52-2.75,1.52-4.2Z" style="fill: #83bf4f;"/>
        <path d="M33.11,25.04c-1.21,1-2.32,1.37-2.32,1.37,2.97-3.35,4.17-7.22,4.17-7.22-2.42,2.66-3.91,2.94-3.91,2.94,1.54-1.62,3.64-7.05,3.64-7.05,0,0-3.74,3.19-6.87,4.68-15.42,7.32-14.62-1.7-14.62-1.7h-4.81c0,4.11-4.19,8.1-1.34,14.23,3.5,7.51,17.17,4.32,22.17,0,6.44-5.58,6.49-10.03,6.49-10.03,0,0-1.24,1.65-2.59,2.78Z" style="fill: #d3976e;"/>
        <path d="M9.78,11.76s0,.61-1.07,1.55c-.83,.73-1.61,1.42-2.41,1.42-1.25,0-2-1.37-.26-2.01,1.74-.64,2.79-.16,3.74-.96Z" style="fill: #f29a2e;"/>
        <path d="M7.07,10.59c-.85,0-2.29,1.31-3.69,.37-.24-.15-.64-.81-1.03-.39-.41,.45,1.83,5.15,7.44,1.2,0,0-.35-1.18-2.72-1.18Z" style="fill: #ffd93b;"/>
        <rect x="8.37" y="16.89" width="4.83" height="1.17" style="fill: #e8e8e8;"/>
        <path d="M32.44,13.36s-5.35,4.53-13.28,5.4c-9.11,1-7.04,11.9,1.12,11.01,5.81-.64,10.67-7.05,10.67-7.05l-3.67,.97s3.51-2.76,4.89-5.52l-5.24,2.12s2.79-1.4,5.51-6.94Z" style="fill: #89664c;"/>
        <path d="M18.97,24.18c-.1-.58-.47-1.04-.96-1.28,.08-.21,.11-.44,.07-.67-.11-.66-.74-1.1-1.4-.98-.12,.02-.23,.06-.33,.11,.54,.05,1,.46,1.09,1.01,.04,.26,0,.5-.09,.73,.4,.23,.7,.63,.79,1.12,.09,.54-.09,1.06-.44,1.42,.32,.18,.56,.49,.63,.87,.1,.59-.24,1.16-.78,1.38,.09,0,.17,0,.25-.02,.67-.12,1.11-.76,1-1.42-.04-.28-.18-.51-.38-.68,.42-.39,.64-.98,.54-1.59Z" style="fill: #d3976e;"/>
        <path d="M22.15,23.16c-.1-.58-.47-1.04-.96-1.28,.08-.21,.11-.44,.07-.67-.11-.67-.74-1.11-1.4-.99-.12,.02-.23,.06-.33,.12,.54,.05,1,.45,1.09,1.01,.04,.26,0,.51-.09,.73,.4,.23,.7,.63,.79,1.12,.09,.54-.09,1.05-.44,1.42,.32,.18,.55,.48,.62,.87,.11,.59-.23,1.16-.77,1.38,.09,0,.17,0,.26-.02,.66-.12,1.1-.75,.99-1.42-.04-.27-.18-.51-.37-.68,.42-.4,.64-.99,.53-1.59Z" style="fill: #d3976e;"/>
        <path d="M25.48,22.03c-.15-.57-.56-.99-1.07-1.18,.06-.21,.08-.44,.02-.68-.17-.65-.84-1.03-1.48-.86-.11,.03-.22,.08-.32,.14,.54,0,1.03,.36,1.17,.92,.06,.25,.06,.5-.02,.73,.42,.19,.76,.56,.89,1.05,.14,.52,0,1.06-.32,1.45,.33,.15,.6,.43,.7,.81,.15,.58-.13,1.18-.65,1.44,.09,0,.17-.02,.26-.04,.64-.18,1.04-.85,.86-1.5-.07-.27-.23-.49-.43-.65,.38-.43,.55-1.04,.39-1.63Z" style="fill: #d3976e;"/>
        <path d="M9.57,20.28c-.74,0-1.3,.25-1.73,.62-1.03,3.21-3,6.66-.81,11.38,1.05,2.25,3.02,3.54,5.39,4.12-5.17-1.64,1.21-16.13-2.85-16.13Z" style="fill: #fed0ac;"/>
        <path d="M14.25,6.22s.89,1.5,2.4,.48c0,0-.76,1.91-2.89,1.22l.49-1.7Z" style="fill: #83bf4f;"/>
        <path d="M15.04,8.04s1.09,.28,2.2-.51c0,0-.65,1.74-2.2,2.03,0,0-1.61-1.73,0-1.53Z" style="fill: #83bf4f;"/>
        <path d="M15.04,9.56s.95,.51,1.89-.27c0,0-.74,1.86-2.61,1.49,0,0-.38-1.52,.72-1.23Z" style="fill: #83bf4f;"/>
        <path d="M9.78,4.76s-.04-.73-.88-1.29c0,0,1.09-.07,1.92,1.29,0,0-.33,.44-1.04,0Z" style="fill: #83bf4f;"/>
        <path d="M11.55,4.76s.04-.73,.87-1.29c0,0-1.09-.07-1.92,1.29,0,0,.34,.44,1.04,0Z" style="fill: #83bf4f;"/>
        <path d="M10.35,5.13s-.27-1.05,.7-2.8c0,0-.24,2.14,.16,3.17,0,0-.46-.08-.86-.37Z" style="fill: #83bf4f;"/>
        <path d="M13.32,25.35c.56,2.59,3.07,4.85,6.96,4.42,5.81-.64,10.67-7.05,10.67-7.05,0,0-5.3,5.9-11.4,5.9-4.55,0-5.86-1.97-6.22-3.27Z" style="fill: #594640;"/>
        <path d="M8.14,9.1c0-.76,.61-1.57,1.37-1.57s1.36,.81,1.36,1.57-.61,1.09-1.36,1.09-1.37-.33-1.37-1.09Z" style="fill: #3e4347;"/>
        <path d="M34.27,32.86c-1.41,0-1.61-.85-2.54-.85s-1.14,.85-2.54,.85-1.61-.85-2.54-.85-1.14,.85-2.54,.85-1.61-.85-2.54-.85-1.14,.85-2.54,.85-1.62-.85-2.55-.85c-.93,0-1.14,.85-2.54,.85s-1.61-.85-2.54-.85-1.14,.85-2.54,.85-1.61-.85-2.54-.85-1.14,.85-2.55,.85-2.54-.85-2.54-.85v5.94H36.81v-5.94s-1.14,.85-2.54,.85Z" style="fill: #75d6ff;"/>
        <path d="M17.57,35.49c-4.04,.51-6.82-2.76-10.96-.88,3.22-.22,8.07,2.33,10.96,.88-.83,.11,0,0,0,0Z" style="fill: #42ade2;"/>
        <path d="M31.39,35.49c-4.04,.51-6.81-2.75-10.96-.88,3.23-.22,8.06,2.32,10.96,.88-.83,.11,0,0,0,0Z" style="fill: #42ade2;"/>
      </g>
    </g>
  </g>
</svg>