<svg width="35" height="44" viewBox="0 0 35 44" fill="none" xmlns="http://www.w3.org/2000/svg">
<path fill-rule="evenodd" clip-rule="evenodd" d="M7.69375 33.7117L11.1567 35.7248L11.1216 36.7528C7.70154 36.71 3.81401 37.9872 1.25479 42.1031C1.44566 36.2739 4.9904 33.809 7.69375 33.7117ZM16.5205 28.6574L16.6024 31.0405L18.2228 31.9049C20.0341 32.8823 20.0614 35.6041 18.5072 36.5815L16.7971 37.3992L16.8283 38.3182C25.9706 38.9062 25.1954 43.2401 14.8534 43.2401C3.26477 43.2401 3.22192 38.7154 13.1121 38.287V34.4399C12.4032 34.1712 11.7215 33.8986 11.2774 33.7C5.74999 31.2274 7.0705 24.8375 11.0983 24.2807L11.1567 28.1668L13.1277 29.2142V21.5393C6.95754 21.2006 1.14182 18.358 0.175781 13.3738L28.8687 12.9572C27.4859 18.2607 22.0402 21.002 16.2557 21.4809L16.318 23.3928C24.7163 22.7075 30.7696 18.1711 30.7696 12.7158C30.7696 4.54246 21.3858 3.20685 19.4732 3.72473C19.6758 6.65684 16.4115 8.66221 13.2913 7.84449C10.5218 2.10098 15.87 0.375977 20.1899 0.375977C24.506 0.375977 34.961 3.24578 34.961 13.5062C34.961 23.2955 25.359 27.4892 16.5205 28.6574Z" fill="black"/>
</svg>
