<svg width="38" height="37" viewBox="0 0 38 37" fill="none" xmlns="http://www.w3.org/2000/svg">
<path d="M37.4135 18.2506C37.4135 28.0983 29.4242 36.0925 19.5691 36.0925C9.71001 36.0925 1.7207 28.0983 1.7207 18.2506C1.7207 8.39898 9.71001 0.404785 19.5691 0.404785C29.4242 0.404785 37.4135 8.39898 37.4135 18.2506Z" fill="#E0E8EC"/>
<mask id="mask0_130_234" style="mask-type:luminance" maskUnits="userSpaceOnUse" x="0" y="6" width="24" height="22">
<path d="M0.996582 6.36914H23.9322V27.3028H0.996582V6.36914Z" fill="white"/>
</mask>
<g mask="url(#mask0_130_234)">
<mask id="mask1_130_234" style="mask-type:luminance" maskUnits="userSpaceOnUse" x="1" y="0" width="37" height="37">
<path d="M1.72168 18.2539C1.72168 28.1016 9.71098 36.0958 19.57 36.0958C29.4252 36.0958 37.4145 28.1016 37.4145 18.2539C37.4145 8.40239 29.4252 0.408203 19.57 0.408203C9.71098 0.408203 1.72168 8.40239 1.72168 18.2539Z" fill="white"/>
</mask>
<g mask="url(#mask1_130_234)">
<path d="M21.553 19.1181C14.0351 19.1181 8.5855 17.4125 5.37576 14.0638C2.41531 10.9759 2.52438 7.62712 2.52828 7.49472C2.55165 6.94568 3.01909 6.52904 3.56443 6.54851C4.10588 6.56798 4.52658 7.02746 4.5071 7.5765C4.5071 7.68553 4.46036 10.2789 6.84429 12.7399C9.64503 15.6097 14.7284 17.1361 21.553 17.1361C22.0984 17.1361 22.5424 17.5839 22.5424 18.1329C22.5424 18.6703 22.0984 19.1181 21.553 19.1181ZM20.7584 27.2135C1.63235 27.2135 -2.44994 13.1487 -2.49669 12.9969C-2.62913 12.4712 -2.30582 11.9299 -1.77605 11.8014C-1.25798 11.6612 -0.732106 11.9611 -0.584083 12.4712C-0.42048 13.0475 3.45926 26.0882 22.5424 25.1887C23.0839 25.1497 23.5552 25.5897 23.5786 26.1349C23.6098 26.6761 23.1813 27.1434 22.6359 27.1746C22.0127 27.2018 21.3855 27.2135 20.7584 27.2135Z" fill="#99AAB5"/>
</g>
</g>
<mask id="mask2_130_234" style="mask-type:luminance" maskUnits="userSpaceOnUse" x="0" y="7" width="38" height="28">
<path d="M0.996582 7.36328H37.8931V34.2779H0.996582V7.36328Z" fill="white"/>
</mask>
<g mask="url(#mask2_130_234)">
<mask id="mask3_130_234" style="mask-type:luminance" maskUnits="userSpaceOnUse" x="1" y="0" width="37" height="37">
<path d="M1.72168 18.253C1.72168 28.1007 9.71098 36.0949 19.57 36.0949C29.4252 36.0949 37.4145 28.1007 37.4145 18.253C37.4145 8.40141 29.4252 0.407227 19.57 0.407227C9.71098 0.407227 1.72168 8.40141 1.72168 18.253Z" fill="white"/>
</mask>
<g mask="url(#mask3_130_234)">
<path d="M21.6115 34.1076H21.5959C2.19332 34.1076 -1.61241 22.0677 -1.76822 21.5809C-1.92793 21.0514 -1.63189 20.5335 -1.10991 20.3738C-0.584046 20.2142 -0.0309106 20.514 0.128798 21.0397C0.269029 21.4914 3.76313 31.8959 21.631 32.2463C22.1802 32.2541 22.6165 32.6435 22.6087 33.1926C22.5931 33.7299 22.1529 34.1076 21.6115 34.1076ZM21.5531 18.5593C21.0038 18.5593 20.5637 18.1193 20.5637 17.5702C20.5637 17.4612 20.5831 17.3444 20.6182 17.2315C24.7745 5.56142 36.7059 8.40008 36.8266 8.43123C37.3603 8.55973 37.6797 9.09709 37.5472 9.62666C37.4187 10.1562 36.8773 10.4833 36.3436 10.3548C35.9268 10.2458 26.0288 7.9406 22.4879 17.909C22.3438 18.2984 21.9699 18.5593 21.5531 18.5593Z" fill="#99AAB5"/>
</g>
</g>
<mask id="mask4_130_234" style="mask-type:luminance" maskUnits="userSpaceOnUse" x="11" y="2" width="24" height="35">
<path d="M11.9658 2.38086H34.9015V36.2734H11.9658V2.38086Z" fill="white"/>
</mask>
<g mask="url(#mask4_130_234)">
<mask id="mask5_130_234" style="mask-type:luminance" maskUnits="userSpaceOnUse" x="1" y="0" width="37" height="37">
<path d="M1.72119 18.2539C1.72119 28.1016 9.71049 36.0958 19.5695 36.0958C29.4247 36.0958 37.414 28.1016 37.414 18.2539C37.414 8.40239 29.4247 0.408203 19.5695 0.408203C9.71049 0.408203 1.72119 8.40239 1.72119 18.2539Z" fill="white"/>
</mask>
<g mask="url(#mask5_130_234)">
<path d="M13.1842 17.3851C12.635 17.3851 12.1909 16.9373 12.1909 16.3883C12.1909 16.287 12.2104 16.178 12.2416 16.0884C18.0456 -1.27833 33.4555 3.12957 33.6074 3.18019C34.1333 3.33984 34.4293 3.88888 34.2735 4.41456C34.1177 4.93245 33.5645 5.23228 33.0348 5.07263C32.4816 4.91298 19.3077 1.20598 14.123 16.7076C13.9906 17.1164 13.6088 17.3851 13.1842 17.3851ZM18.143 40.7407C17.5898 40.7407 17.1497 40.2929 17.1497 39.7439C17.1497 39.4752 17.2665 39.2065 17.4652 39.0274C17.7729 38.7354 24.9403 31.8471 20.9009 18.6C20.7411 18.0704 22.4239 16.8244 22.5797 17.354L22.829 18.1327C27.1762 32.548 19.1596 40.1605 18.813 40.4721C18.6299 40.6395 18.3884 40.7407 18.143 40.7407Z" fill="#99AAB5"/>
</g>
</g>
<mask id="mask6_130_234" style="mask-type:luminance" maskUnits="userSpaceOnUse" x="22" y="9" width="9" height="28">
<path d="M22.9355 9.3584H30.9132V36.2731H22.9355V9.3584Z" fill="white"/>
</mask>
<g mask="url(#mask6_130_234)">
<mask id="mask7_130_234" style="mask-type:luminance" maskUnits="userSpaceOnUse" x="1" y="0" width="37" height="37">
<path d="M1.7207 18.2511C1.7207 28.0987 9.71001 36.0929 19.5691 36.0929C29.4242 36.0929 37.4135 28.0987 37.4135 18.2511C37.4135 8.39946 29.4242 0.405273 19.5691 0.405273C9.71001 0.405273 1.7207 8.39946 1.7207 18.2511Z" fill="white"/>
</mask>
<g mask="url(#mask7_130_234)">
<path d="M24.5856 40.6166C24.0402 40.6166 23.5923 40.1688 23.5923 39.6198C23.5923 39.4095 23.6624 39.2031 23.7871 39.0318C23.8805 38.9033 33.428 25.5861 25.688 11.4201C25.4192 10.9412 25.5984 10.3337 26.0814 10.0728C26.5644 9.81582 27.1643 9.98326 27.4253 10.4739C35.7846 25.7536 25.4893 40.0598 25.3841 40.2078C25.2011 40.457 24.9011 40.6166 24.5856 40.6166Z" fill="#99AAB5"/>
</g>
</g>
<mask id="mask8_130_234" style="mask-type:luminance" maskUnits="userSpaceOnUse" x="5" y="0" width="32" height="37">
<path d="M5.98315 0.385742H36.8964V36.272H5.98315V0.385742Z" fill="white"/>
</mask>
<g mask="url(#mask8_130_234)">
<mask id="mask9_130_234" style="mask-type:luminance" maskUnits="userSpaceOnUse" x="1" y="0" width="37" height="37">
<path d="M1.7207 18.2511C1.7207 28.0988 9.71001 36.093 19.5691 36.093C29.4242 36.093 37.4135 28.0988 37.4135 18.2511C37.4135 8.39946 29.4242 0.405273 19.5691 0.405273C9.71001 0.405273 1.7207 8.39946 1.7207 18.2511Z" fill="white"/>
</mask>
<g mask="url(#mask9_130_234)">
<path d="M28.5515 40.6186C28.0023 40.6186 27.5621 40.1708 27.5621 39.6218C27.5621 39.4232 27.6244 39.2246 27.7413 39.0533C27.8581 38.8858 39.5285 21.9201 31.995 10.1761C31.7028 9.70874 31.8547 9.0974 32.3144 8.80925C32.7701 8.53278 33.3661 8.66128 33.6661 9.10908C37.1056 14.4632 37.4328 21.5579 34.6243 29.6222C32.5364 35.6266 29.4942 40.0112 29.3656 40.1903C29.1748 40.4512 28.8709 40.6186 28.5515 40.6186ZM7.0026 14.0232C6.46115 14.0232 6.01318 13.5832 6.01318 13.0381C6.01318 12.9368 6.02876 12.8278 6.06772 12.7266C10.2825 -0.080533 23.0708 -1.36942 23.1954 -1.37721C23.7408 -1.43562 24.2277 -1.03065 24.2744 -0.489394C24.3251 0.0596465 23.9239 0.546384 23.3746 0.585324C22.9033 0.635944 11.751 1.80411 7.94526 13.3457C7.81282 13.7546 7.43108 14.0232 7.0026 14.0232Z" fill="#99AAB5"/>
</g>
</g>
</svg>
