<svg width="53" height="34" viewBox="0 0 53 34" fill="none" xmlns="http://www.w3.org/2000/svg">
<path fill-rule="evenodd" clip-rule="evenodd" d="M26.4164 29.5175C31.1103 29.5175 31.2272 29.4202 31.2272 27.5433C40.7551 27.6134 50.0338 27.6757 52.1489 27.6757C52.1489 29.7784 51.4867 32.9169 47.9108 32.9169C44.0584 32.9169 9.98988 33.4465 5.77904 33.4465C1.57209 33.4465 0.987793 30.6351 0.987793 27.3058C1.92657 27.3058 11.361 27.3759 21.559 27.4537C21.5551 29.4669 21.7226 29.5175 26.4164 29.5175ZM35.3679 6.46169L34.8498 4.17986C32.0335 3.59188 30.1092 5.57388 30.5221 7.9881C30.974 10.6282 29.895 11.8742 27.7603 12.2831V14.0159C30.004 14.4948 30.9818 15.7331 30.5143 18.4121C30.0936 20.8068 32.536 23.2678 34.7252 22.38L35.3679 20.2266C31.6518 19.9385 35.2004 14.9154 31.8037 13.1514C35.3874 11.2278 31.4336 7.31056 35.3679 6.48116V6.46169ZM21.594 6.8394C19.1595 6.8394 17.6481 8.40475 17.6481 11.5549V12.544L16.0977 12.6608L16.0393 14.7168L17.6442 14.6934C17.6442 17.3374 17.6169 19.958 17.6169 19.958L21.1266 19.9073L20.9202 17.7969C20.9202 17.7969 20.9202 16.3211 20.9474 14.6545L23.569 14.6038L23.5105 12.1234L20.9552 12.3142V12.2636C20.9552 10.0597 21.2513 9.67027 22.5367 9.67027C22.8483 9.67027 23.1561 9.74036 23.4365 9.88054L24.274 7.78562C23.5261 7.15091 22.5718 6.81993 21.594 6.85887V6.8394ZM12.7906 6.27089C10.3093 6.27089 10.1924 10.0519 12.8335 10.0519C15.2486 10.0713 15.2641 6.29036 12.7906 6.29036V6.27089ZM11.2091 13.4474L11.2403 19.8801L14.637 19.8178L14.45 17.4075L14.489 11.4459L10.9832 11.6639L11.2091 13.4474ZM6.15688 25.6703C6.15688 25.6314 5.84915 6.53957 5.89979 4.22659C5.96601 1.19713 6.84246 0.231445 9.49128 0.231445C11.6103 0.231445 40.0968 0.282066 42.8158 0.340475C45.9125 0.398882 46.3566 1.8552 46.3566 4.6666C46.3566 6.71869 45.7996 25.3627 45.7996 25.3627" fill="black"/>
</svg>
