<svg width="37" height="37" viewBox="0 0 37 37" fill="none" xmlns="http://www.w3.org/2000/svg">
<path d="M26.8003 27.74H6.78027V36.74H30.7803V26.9099H26.7803L26.8003 27.74Z" fill="#77B255"/>
<mask id="mask0_104_4659" style="mask-type:luminance" maskUnits="userSpaceOnUse" x="0" y="0" width="37" height="37">
<path d="M36.7803 0.73999H0.780273V36.74H36.7803V0.73999Z" fill="white"/>
</mask>
<g mask="url(#mask0_104_4659)">
<path d="M14.7803 27.74C14.7803 27.74 15.6303 29.8 18.3303 29.8C21.0303 29.8 21.7803 27.74 21.7803 27.74L21.7603 23.8401L14.7803 23.74V27.74Z" fill="#F7DECE"/>
</g>
<mask id="mask1_104_4659" style="mask-type:luminance" maskUnits="userSpaceOnUse" x="0" y="0" width="37" height="37">
<path d="M36.7803 0.73999H0.780273V36.74H36.7803V0.73999Z" fill="white"/>
</mask>
<g mask="url(#mask1_104_4659)">
<path d="M14.8506 25.77C15.9106 26.98 16.9006 27.28 18.3306 27.28C19.7606 27.28 20.7506 26.98 21.8206 25.77V22.26H14.8606V25.77H14.8506Z" fill="#EEC2AD"/>
</g>
<mask id="mask2_104_4659" style="mask-type:luminance" maskUnits="userSpaceOnUse" x="0" y="0" width="37" height="37">
<path d="M36.7803 0.73999H0.780273V36.74H36.7803V0.73999Z" fill="white"/>
</mask>
<g mask="url(#mask2_104_4659)">
<path d="M26.8805 16.93C26.8805 18.2 26.2505 19.2301 25.4605 19.2301C24.6705 19.2301 24.0305 18.19 24.0305 16.93C24.0305 15.66 24.6705 14.63 25.4605 14.63C26.2505 14.63 26.8805 15.66 26.8805 16.93ZM12.6305 16.93C12.6305 18.2 11.9905 19.2301 11.2005 19.2301C10.4105 19.2301 9.77051 18.19 9.77051 16.93C9.77051 15.66 10.4105 14.63 11.2005 14.63C11.9905 14.62 12.6305 15.66 12.6305 16.93Z" fill="#F7DECE"/>
</g>
<mask id="mask3_104_4659" style="mask-type:luminance" maskUnits="userSpaceOnUse" x="0" y="0" width="37" height="37">
<path d="M36.7803 0.73999H0.780273V36.74H36.7803V0.73999Z" fill="white"/>
</mask>
<g mask="url(#mask3_104_4659)">
<path d="M10.9102 17.8301C10.9102 12.9201 14.2302 8.93994 18.3302 8.93994C22.4202 8.93994 25.7502 12.9201 25.7502 17.8301C25.7502 22.7401 22.4302 26.73 18.3302 26.73C14.2402 26.72 10.9102 22.7401 10.9102 17.8301Z" fill="#F7DECE"/>
</g>
<mask id="mask4_104_4659" style="mask-type:luminance" maskUnits="userSpaceOnUse" x="0" y="0" width="37" height="37">
<path d="M36.7803 0.73999H0.780273V36.74H36.7803V0.73999Z" fill="white"/>
</mask>
<g mask="url(#mask4_104_4659)">
<path d="M18.3303 23.84C15.9303 23.84 15.2003 23.22 15.0703 23.09C14.8503 22.86 14.8503 22.5 15.0703 22.27C15.2903 22.05 15.6303 22.05 15.8603 22.25C15.9003 22.28 16.4903 22.6799 18.3303 22.6799C20.2403 22.6799 20.8003 22.26 20.8003 22.25C21.0203 22.03 21.3603 22.03 21.5803 22.25C21.5903 22.25 21.5903 22.26 21.6003 22.26C21.8203 22.5 21.8103 22.86 21.5803 23.08C21.4603 23.22 20.7303 23.84 18.3303 23.84Z" fill="#C1694F"/>
</g>
<mask id="mask5_104_4659" style="mask-type:luminance" maskUnits="userSpaceOnUse" x="0" y="0" width="37" height="37">
<path d="M36.7803 0.73999H0.780273V36.74H36.7803V0.73999Z" fill="white"/>
</mask>
<g mask="url(#mask5_104_4659)">
<path d="M18.3306 5.97998C23.2406 5.97998 26.3206 9.63995 26.3206 12.7C26.3206 15.75 25.7106 16.97 25.0906 15.75L23.8606 13.3101C23.8606 13.3101 20.1806 13.3101 18.9506 12.0901C18.9506 12.0901 20.7906 15.7501 17.1106 12.0901C17.1106 12.0901 17.7206 14.53 14.0406 11.48C14.0406 11.48 12.1906 12.7 11.5806 15.75C11.4106 16.59 10.3506 15.75 10.3506 12.7C10.3406 9.63995 12.8006 5.97998 18.3306 5.97998Z" fill="#292F33"/>
</g>
<mask id="mask6_104_4659" style="mask-type:luminance" maskUnits="userSpaceOnUse" x="0" y="0" width="37" height="37">
<path d="M36.7803 0.73999H0.780273V36.74H36.7803V0.73999Z" fill="white"/>
</mask>
<g mask="url(#mask6_104_4659)">
<path d="M21.8105 17.8601C21.3305 17.8601 20.9405 17.46 20.9405 16.98V16.1001C20.9405 15.6201 21.3305 15.22 21.8105 15.22C22.2905 15.22 22.6805 15.6101 22.6805 16.1001V16.98C22.6805 17.46 22.2905 17.8601 21.8105 17.8601ZM14.8505 17.8601C14.3705 17.8601 13.9805 17.46 13.9805 16.98V16.1001C13.9805 15.6201 14.3705 15.22 14.8505 15.22C15.3305 15.22 15.7205 15.6101 15.7205 16.1001V16.98C15.7205 17.46 15.3305 17.8601 14.8505 17.8601Z" fill="#662113"/>
</g>
<mask id="mask7_104_4659" style="mask-type:luminance" maskUnits="userSpaceOnUse" x="0" y="0" width="37" height="37">
<path d="M36.7803 0.73999H0.780273V36.74H36.7803V0.73999Z" fill="white"/>
</mask>
<g mask="url(#mask7_104_4659)">
<path d="M18.9805 20.28H17.6705C17.3105 20.28 17.0205 19.9801 17.0205 19.6201C17.0205 19.2601 17.3105 18.97 17.6705 18.97H18.9805C19.3405 18.97 19.6305 19.2699 19.6305 19.6299C19.6305 19.9799 19.3505 20.28 18.9805 20.28Z" fill="#C1694F"/>
</g>
<mask id="mask8_104_4659" style="mask-type:luminance" maskUnits="userSpaceOnUse" x="0" y="0" width="37" height="37">
<path d="M36.7803 0.73999H0.780273V36.74H36.7803V0.73999Z" fill="white"/>
</mask>
<g mask="url(#mask8_104_4659)">
<path d="M30.0606 17.0701C30.0606 17.0701 32.0307 13.5001 29.1307 9.62012C29.1307 9.62012 34.1107 11.6699 36.2107 16.9099L30.0606 17.0701ZM20.8406 6.71997C20.8406 6.71997 18.0806 3.70998 13.4806 5.22998C13.4806 5.22998 17.0006 1.16009 22.6506 0.840088L20.8406 6.71997ZM6.68064 14.95C6.68064 14.95 2.85065 16.3399 2.47065 21.1699C2.47065 21.1699 0.0706427 16.35 1.95064 11.02L6.68064 14.95Z" fill="#D1D3D4"/>
</g>
<mask id="mask9_104_4659" style="mask-type:luminance" maskUnits="userSpaceOnUse" x="0" y="0" width="37" height="37">
<path d="M36.7803 0.73999H0.780273V36.74H36.7803V0.73999Z" fill="white"/>
</mask>
<g mask="url(#mask9_104_4659)">
<path d="M8.89062 11.72C8.89062 13.65 7.33063 15.22 5.39062 15.22C3.46063 15.22 1.89062 13.65 1.89062 11.72C1.89062 9.78997 3.46063 8.21997 5.39062 8.21997C7.32062 8.22997 8.89062 9.78997 8.89062 11.72Z" fill="#5C913B"/>
</g>
<mask id="mask10_104_4659" style="mask-type:luminance" maskUnits="userSpaceOnUse" x="0" y="0" width="37" height="37">
<path d="M36.7803 0.73999H0.780273V36.74H36.7803V0.73999Z" fill="white"/>
</mask>
<g mask="url(#mask10_104_4659)">
<path d="M26.7998 4.23999C26.7998 6.16999 25.2398 7.73999 23.2998 7.73999C21.3698 7.73999 19.7998 6.16999 19.7998 4.23999C19.7998 2.30999 21.3698 0.73999 23.2998 0.73999C25.2398 0.73999 26.7998 2.29999 26.7998 4.23999Z" fill="#BE1931"/>
</g>
<mask id="mask11_104_4659" style="mask-type:luminance" maskUnits="userSpaceOnUse" x="0" y="0" width="37" height="37">
<path d="M36.7803 0.73999H0.780273V36.74H36.7803V0.73999Z" fill="white"/>
</mask>
<g mask="url(#mask11_104_4659)">
<path d="M36.6807 18.5901C36.6807 20.5201 35.1207 22.1001 33.1807 22.1001C31.2507 22.1001 29.6807 20.5301 29.6807 18.5901C29.6807 16.6601 31.2507 15.0901 33.1807 15.0901C35.1107 15.1001 36.6807 16.6601 36.6807 18.5901Z" fill="#3B88C3"/>
</g>
<mask id="mask12_104_4659" style="mask-type:luminance" maskUnits="userSpaceOnUse" x="0" y="0" width="37" height="37">
<path d="M36.7803 0.73999H0.780273V36.74H36.7803V0.73999Z" fill="white"/>
</mask>
<g mask="url(#mask12_104_4659)">
<path d="M33.4306 24.2299C33.3206 23.6899 32.8006 23.3499 32.2606 23.4599L30.2006 23.8898H28.3906C27.5406 23.8898 26.8506 24.5898 26.8506 25.4498V26.9999H30.6906C31.5206 26.9999 32.1906 26.3399 32.2306 25.5099L32.5006 25.4498H33.0006C33.0006 25.3898 32.9806 25.3399 32.9606 25.2799C33.3306 25.0499 33.5106 24.6299 33.4306 24.2299Z" fill="#EEC2AD"/>
</g>
<mask id="mask13_104_4659" style="mask-type:luminance" maskUnits="userSpaceOnUse" x="0" y="0" width="37" height="37">
<path d="M36.7803 0.73999H0.780273V36.74H36.7803V0.73999Z" fill="white"/>
</mask>
<g mask="url(#mask13_104_4659)">
<path d="M36.8603 24.6599C36.8603 24.2299 36.5103 23.8799 36.0903 23.8799L31.4803 24.6599H27.6303C27.2003 24.6599 26.8603 25.0099 26.8603 25.4399L26.7803 26.99H28.3903H31.4703L36.0803 25.4399C36.0903 25.4399 36.8603 25.0899 36.8603 24.6599Z" fill="#F7DECE"/>
</g>
<mask id="mask14_104_4659" style="mask-type:luminance" maskUnits="userSpaceOnUse" x="0" y="0" width="37" height="37">
<path d="M36.7803 0.73999H0.780273V36.74H36.7803V0.73999Z" fill="white"/>
</mask>
<g mask="url(#mask14_104_4659)">
<path d="M4.2201 27.9799C4.3301 27.4399 4.8501 27.0899 5.3901 27.1999L7.4501 27.6298H9.26009C10.1101 27.6298 10.8001 28.3199 10.8001 29.1799V30.7299H6.9501C6.1201 30.7299 5.4501 30.0699 5.4201 29.2399L5.15009 29.1799H4.65009C4.65009 29.1199 4.6701 29.07 4.6901 29.01C4.3101 28.8 4.1301 28.3799 4.2201 27.9799Z" fill="#EEC2AD"/>
</g>
<mask id="mask15_104_4659" style="mask-type:luminance" maskUnits="userSpaceOnUse" x="0" y="0" width="37" height="37">
<path d="M36.7803 0.73999H0.780273V36.74H36.7803V0.73999Z" fill="white"/>
</mask>
<g mask="url(#mask15_104_4659)">
<path d="M0.780273 28.4099C0.780273 27.9799 1.13028 27.6399 1.55028 27.6399L6.16028 28.4099H10.0103C10.4403 28.4099 10.7803 28.7599 10.7803 29.1899V30.74H6.17027L1.56027 29.1899C1.55027 29.1899 0.780273 28.8399 0.780273 28.4099Z" fill="#F7DECE"/>
</g>
<mask id="mask16_104_4659" style="mask-type:luminance" maskUnits="userSpaceOnUse" x="0" y="0" width="37" height="37">
<path d="M36.7803 0.73999H0.780273V36.74H36.7803V0.73999Z" fill="white"/>
</mask>
<g mask="url(#mask16_104_4659)">
<path d="M26.7803 27.74H25.7803V36.74H26.7803V27.74ZM11.7803 30.74H10.7803V36.74H11.7803V30.74Z" fill="#5C913B"/>
</g>
</svg>
