<svg width="35" height="46" viewBox="0 0 35 46" fill="none" xmlns="http://www.w3.org/2000/svg">
<path fill-rule="evenodd" clip-rule="evenodd" d="M29.49 45.5098C27.87 45.5098 6.44004 45.3301 5.18004 45.3301C1.63004 45.3301 0.540039 43.5702 0.540039 40.8702V39.0201L34.13 39.6202V41.3301C34.13 43.9301 33.02 45.5098 29.49 45.5098ZM0.540039 30.44L34.13 29.8301V35.98L0.540039 36.0801V30.44ZM0.540039 23.9302C0.540039 21.5002 1.72004 19.74 4.60004 19.44C4.60004 15.9 4.64004 12.0301 4.65004 11.2901C4.65004 -3.91992 29.94 -2.61979 29.93 10.9302C29.93 11.8702 29.96 15.6903 29.99 19.2203C33.33 19.4003 34.14 21.6402 34.14 24.1402V26.8199L0.550037 26.7403L0.540039 23.9302ZM23.99 19.2203C23.99 15.8103 23.99 12.51 23.99 12C23.99 4.67004 10.61 3.96998 10.6 12.19C10.6 12.56 10.6 15.8901 10.6 19.3101L23.99 19.2203Z" fill="black"/>
</svg>
