<svg width="32" height="43" viewBox="0 0 32 43" fill="none" xmlns="http://www.w3.org/2000/svg">
<path d="M0.561106 42.2959C0.561106 40.0105 0.561106 37.7941 0.561106 35.6466C0.561106 33.4991 0.561106 31.1152 0.561106 28.4949V14.221C0.561106 11.5416 0.561106 9.10844 0.561106 6.92156C0.561106 4.73467 0.561106 2.47883 0.561106 0.15403C2.23575 0.15403 4.45219 0.15403 7.21042 0.15403C9.98835 0.15403 13.18 0.15403 16.7854 0.15403C20.1347 0.15403 22.9225 0.577617 25.1488 1.42479C27.3751 2.27196 29.0497 3.64123 30.1727 5.53259C31.2957 7.40425 31.8572 9.90636 31.8572 13.0389C31.8572 15.7381 31.3647 18.1318 30.3796 20.2202C29.3945 22.2889 27.7987 23.9142 25.5921 25.0963C23.3855 26.2587 20.4204 26.8399 16.6968 26.8399C15.7511 26.8399 14.7168 26.8399 13.5938 26.8399C12.4905 26.8399 11.4069 26.8399 10.343 26.8399C9.2988 26.8399 8.40237 26.8399 7.65371 26.8399V20.3088H14.8941C16.8642 20.3088 18.4798 20.0626 19.7407 19.57C21.0016 19.0775 21.9276 18.3091 22.5186 17.2649C23.1294 16.201 23.4347 14.8219 23.4347 13.1276C23.4347 11.7485 23.218 10.6452 22.7846 9.8177C22.3512 8.97053 21.7798 8.33022 21.0705 7.89679C20.3613 7.46335 19.5831 7.16782 18.7359 7.01021C17.8887 6.8526 17.0514 6.77379 16.2239 6.77379H4.72801L8.7176 1.42479C8.7176 3.74959 8.7176 6.01528 8.7176 8.22187C8.7176 10.4088 8.7176 12.8419 8.7176 15.5213V28.4949C8.7176 31.1152 8.7176 33.4991 8.7176 35.6466C8.7176 37.7941 8.7176 40.0105 8.7176 42.2959H0.561106Z" fill="#45AAE1"/>
</svg>
