<svg width="36" height="36" viewBox="0 0 36 36" fill="none" xmlns="http://www.w3.org/2000/svg">
<mask id="mask0_131_137" style="mask-type:luminance" maskUnits="userSpaceOnUse" x="0" y="0" width="36" height="36">
<path d="M0 0H35.6889V35.6876H0V0Z" fill="white"/>
</mask>
<g mask="url(#mask0_131_137)">
<mask id="mask1_131_137" style="mask-type:luminance" maskUnits="userSpaceOnUse" x="-287" y="-2398" width="1197" height="4430">
<path d="M909.932 -2397.42H-286.711V2031.1H909.932V-2397.42Z" fill="black"/>
</mask>
<g mask="url(#mask1_131_137)">
<mask id="mask2_131_137" style="mask-type:luminance" maskUnits="userSpaceOnUse" x="-1" y="-1" width="38" height="37">
<path d="M36.3816 -0.0195312H-0.514832V35.8667H36.3816V-0.0195312Z" fill="white"/>
</mask>
<g mask="url(#mask2_131_137)">
<mask id="mask3_131_137" style="mask-type:luminance" maskUnits="userSpaceOnUse" x="-1" y="0" width="37" height="36">
<path d="M-0.000671387 0.980469H35.3844V35.6907H-0.000671387V0.980469Z" fill="white"/>
</mask>
<g mask="url(#mask3_131_137)">
<path d="M22.9081 5.92455C17.4663 0.480869 8.31234 -0.504288 3.27958 4.52664C-1.75707 9.55367 -0.767656 18.7121 4.6819 24.1441C8.20327 27.6759 12.3985 28.4313 16.2861 27.1775L16.2705 27.1969L16.399 27.1463C16.66 27.0568 16.921 26.9672 17.182 26.8582C17.8715 26.6284 18.8998 26.3091 20.0996 26.0599C21.9343 25.6822 23.6093 27.6564 25.0077 29.0621C26.4139 30.4561 29.2185 34.6616 29.9236 35.3702C30.6208 36.0673 31.322 35.3702 32.0232 34.6616L32.7204 33.9646L33.4255 33.2675C34.1266 32.5589 34.8278 31.8618 34.1266 31.1532C33.4255 30.4561 29.2185 27.6564 27.8162 26.2507C26.4139 24.8528 24.4468 23.1784 24.8207 21.3444C25.0194 20.3865 25.2609 19.5415 25.4673 18.8835C27.4267 14.6975 26.9904 10.0093 22.9081 5.93233" fill="#DD2D44"/>
</g>
<mask id="mask4_131_137" style="mask-type:luminance" maskUnits="userSpaceOnUse" x="14" y="15" width="22" height="21">
<path d="M14.4432 15.9307H35.3844V35.6883H14.4432V15.9307Z" fill="white"/>
</mask>
<g mask="url(#mask4_131_137)">
<path d="M15.4324 27.4148C15.7168 27.3447 16.0012 27.2747 16.2855 27.1773L16.2699 27.1968L16.3985 27.1462C16.6634 27.0566 16.9204 26.967 17.1853 26.8658C18.1358 26.5387 19.1096 26.27 20.099 26.0598C21.9337 25.682 23.6087 27.6563 25.0149 29.062C26.4133 30.456 29.218 34.6614 29.923 35.3584C30.6203 36.0671 31.3214 35.3584 32.0226 34.6614L32.7199 33.9644L33.4249 33.2557C34.1261 32.5587 34.8272 31.8617 34.1261 31.153C33.4249 30.456 29.218 27.6563 27.8157 26.2583C26.4133 24.8526 24.4462 23.1783 24.8202 21.3442C25.0188 20.3863 25.2603 19.5414 25.4707 18.8833C25.8213 18.124 26.0978 17.3569 26.2848 16.5703" fill="#D99E82"/>
</g>
<path d="M33.4258 33.2688L32.0235 34.6629L20.1038 22.7514L21.51 21.3457L33.4219 33.2572" fill="#FFCC4D"/>
<path d="M34.703 6.4506C34.7342 8.3664 33.2072 9.95122 31.2907 9.98237C29.3742 10.0096 27.7966 8.48711 27.7615 6.57131V6.4506C27.7966 4.5387 29.3703 3.01229 31.2868 3.04344C33.1566 3.07459 34.6679 4.57763 34.703 6.4506Z" fill="#CCD5DD"/>
</g>
</g>
</g>
</svg>
