<svg width="39" height="40" viewBox="0 0 39 40" fill="none" xmlns="http://www.w3.org/2000/svg">
<path fill-rule="evenodd" clip-rule="evenodd" d="M33.5398 39.03C30.2698 39.08 8.71979 38.9999 5.59979 38.9599C2.47979 38.9199 1.14979 37.2399 1.14979 34.7199C1.14979 33.4099 1.10979 22.07 1.07979 15.79H1.01979C1.01979 15.79 0.489791 14.1999 0.299791 13.4599C-0.350209 11.0299 0.499792 9.06991 3.49979 8.20991L7.09979 7.21992L14.6298 12.03L9.23979 13.51L11.6398 15.9599H11.7198L7.83979 21.54L14.5898 21.7499L19.1498 16.04L25.4898 16.0999L21.3998 21.9499L28.3698 22.17L33.5498 16.15L38.4098 16.1999C38.4098 16.1999 38.5798 32.85 38.5798 35.15C38.5598 37.74 36.8098 38.98 33.5398 39.03ZM4.47979 10.43C2.27979 10.43 2.17979 13.76 4.51979 13.76C6.64979 13.76 6.65979 10.43 4.47979 10.43ZM28.2798 1.50995C29.2698 1.23995 30.0398 1.05989 30.4598 0.939886C33.6098 0.139886 35.6398 0.89993 36.3098 3.35993C36.3998 3.70993 36.9898 5.8299 36.9898 5.8299L34.3998 6.54999L28.2798 1.50995ZM14.2998 5.26996L21.5498 3.31L28.0298 8.31L21.2798 10.18L14.2998 5.26996Z" fill="black"/>
</svg>
