<svg width="38" height="39" viewBox="0 0 38 39" fill="none" xmlns="http://www.w3.org/2000/svg">
<path d="M29.2699 14.73L29.1199 11.75L31.7099 11.7L31.7499 8.35001H25.7499L25.6299 5.26005L29.5499 5.16007L29.4199 2.85001C18.3999 -3.35999 1.42992 1.60009 0.669922 18.9301L37.7899 18.22V15.08L29.2699 14.73ZM12.7199 15.2901C6.27991 15.2901 6.71989 5.36002 13.5799 5.36002C19.8399 5.36002 19.1299 15.2901 12.7199 15.2901ZM24.5499 27.72L31.8799 27.95L31.8199 30.85L27.4599 31.19L27.6299 33.5501L29.5199 33.69V36.11C18.5899 42.11 1.65991 37.15 0.71991 21.49L30.1099 21.59V24.95L24.4299 25.1601L24.5499 27.72Z" fill="black"/>
</svg>
