<svg width="36" height="37" viewBox="0 0 36 37" fill="none" xmlns="http://www.w3.org/2000/svg">
<mask id="mask0_131_82" style="mask-type:luminance" maskUnits="userSpaceOnUse" x="0" y="0" width="36" height="37">
<path d="M0.225342 0.427246H35.9221V36.1032H0.225342V0.427246Z" fill="white"/>
</mask>
<g mask="url(#mask0_131_82)">
<mask id="mask1_131_82" style="mask-type:luminance" maskUnits="userSpaceOnUse" x="-222" y="-2397" width="1198" height="4430">
<path d="M975.08 -2396.01H-221.562V2032.51H975.08V-2396.01Z" fill="black"/>
</mask>
<g mask="url(#mask1_131_82)">
<mask id="mask2_131_82" style="mask-type:luminance" maskUnits="userSpaceOnUse" x="-1" y="0" width="38" height="37">
<path d="M36.7124 0.397461H-0.184082V36.2836H36.7124V0.397461Z" fill="white"/>
</mask>
<g mask="url(#mask2_131_82)">
<path d="M10.1348 5.39389C9.14926 6.36736 10.1348 7.3642 10.1348 8.36104C10.1348 9.35009 12.1214 8.36104 12.1214 8.36104C12.1214 8.36104 13.1108 7.3642 14.1041 9.35009C15.0935 11.3321 18.0734 10.3353 17.0801 8.36104C16.0868 6.36736 13.1108 7.3642 13.1108 5.39389C13.1108 3.40021 10.1348 5.39389 10.1348 5.39389Z" fill="#FFDC5D"/>
<path d="M15.0951 3.40039C15.0951 4.39769 15.0951 7.36622 14.1092 7.36622C13.1154 7.36622 13.1154 6.36892 12.1216 5.39499C11.1318 4.39769 15.0951 3.40039 15.0951 3.40039Z" fill="#FFAC33"/>
<path d="M19.0595 16.2881C19.0595 16.2881 16.0874 18.2701 16.0874 19.2592C16.0874 20.256 20.0567 23.2232 21.0461 24.2122C22.0356 25.2091 24.0183 25.2091 23.0328 23.2232C22.0356 21.2412 19.0595 16.2881 19.0595 16.2881Z" fill="#F8C954"/>
<path d="M20.6797 23.2466C20.6797 23.2466 21.8483 24.0214 22.6313 22.865C23.4104 21.7007 23.983 24.6211 23.983 24.6211C23.983 24.6211 21.4432 27.1327 19.4995 27.5221C17.5557 27.8998 18.3348 26.7355 19.1177 25.579" fill="#2A6796"/>
<mask id="mask3_131_82" style="mask-type:luminance" maskUnits="userSpaceOnUse" x="0" y="21" width="36" height="16">
<path d="M0.226074 21.3311H35.9189V36.1046H0.226074V21.3311Z" fill="white"/>
</mask>
<g mask="url(#mask3_131_82)">
<path d="M7.16364 34.1292C4.42523 34.1292 2.2049 31.9058 2.2049 29.1762C2.2049 26.4349 4.42523 24.2115 7.16364 24.2115C9.90205 24.2115 12.1224 26.4349 12.1224 29.1762C12.1224 31.9058 9.90205 34.1292 7.16364 34.1292ZM7.16364 22.2373C3.33065 22.2373 0.226074 25.3368 0.226074 29.1762C0.226074 33.0039 3.33065 36.1035 7.16364 36.1035C11.0005 36.1035 14.109 33.0039 14.109 29.1762C14.109 25.3368 11.0005 22.2373 7.16364 22.2373ZM28.9774 34.1292C26.239 34.1292 24.0187 31.9058 24.0187 29.1762C24.0187 26.4349 26.239 24.2115 28.9774 24.2115C31.7158 24.2115 33.9401 26.4349 33.9401 29.1762C33.9401 31.9058 31.7158 34.1292 28.9774 34.1292ZM28.9774 22.2373C25.1405 22.2373 22.036 25.3368 22.036 29.1762C22.036 33.0039 25.1444 36.1035 28.9813 36.1035C32.8143 36.1035 35.9228 33.0039 35.9228 29.1762C35.9228 25.3368 32.8104 22.2373 28.9774 22.2373Z" fill="#292E33"/>
</g>
<path d="M22.0356 20.2567C22.0356 19.7076 21.5565 19.2598 20.9605 19.2598H10.2211C9.62903 19.2598 9.1499 19.7076 9.1499 20.2567C9.1499 20.8018 9.62903 21.2418 10.2211 21.2418H20.9605C21.5565 21.2418 22.0356 20.8018 22.0356 20.2567ZM29.9704 29.1776C29.9704 28.6286 29.5302 28.1808 28.9771 28.1808H18.0741C17.5209 28.1808 17.0808 28.6286 17.0808 29.1776C17.0808 29.7266 17.5209 30.1628 18.0741 30.1628H28.9771C29.5302 30.1628 29.9704 29.7266 29.9704 29.1776Z" fill="#AAB8C2"/>
<path d="M21.268 17.2871L17.1351 28.8403C16.9559 29.3582 17.2208 29.915 17.7311 30.1058C17.8401 30.1447 17.957 30.1642 18.07 30.1642C18.4868 30.1642 18.8646 29.9072 19.0048 29.5061L23.3715 17.2871" fill="#AAB8C2"/>
<path d="M28.9809 30.1629C28.6537 30.1629 28.3304 30.0033 28.1434 29.7034L21.202 18.8083C20.9098 18.341 21.0423 17.7219 21.5019 17.4337C21.9694 17.1339 22.5809 17.2741 22.8731 17.7336L29.8145 28.6365C30.1067 29.096 29.9742 29.7151 29.5068 30.0033C29.3549 30.1123 29.1679 30.1629 28.9809 30.1629ZM19.0596 25.938L10.743 19.4664C10.3146 19.1276 9.68742 19.2094 9.35632 19.6455C9.01742 20.0738 9.09533 20.7046 9.52771 21.0317L18.4519 27.9706C18.6272 28.1108 18.8375 28.1809 19.0596 28.1809" fill="#AAB8C2"/>
<path d="M7.1628 30.1639C6.61746 30.1639 6.1695 29.7278 6.1695 29.1788C6.1695 29.0698 6.18897 28.9568 6.22014 28.8595L8.97023 20.6161L5.5813 18.0734C5.12945 17.7541 5.02427 17.1349 5.33979 16.6871C5.65921 16.2471 6.27467 16.1381 6.72653 16.4574C6.73821 16.4691 6.75379 16.4769 6.76548 16.4886L11.3074 19.8879L8.10158 29.4864C7.96913 29.8836 7.59129 30.1639 7.1628 30.1639Z" fill="#AAB8C2"/>
<path d="M26.3866 19.2588C26.3554 19.2588 26.3203 19.2588 26.2931 19.2471L20.6721 18.5501C20.2904 18.4995 20.0177 18.1413 20.0722 17.7636C20.119 17.4131 20.415 17.1522 20.7539 17.1522C20.8007 17.1522 24.7934 17.1328 26.6943 15.8672C26.9397 15.6998 27.2708 15.7076 27.5123 15.8867C27.7499 16.0775 27.8434 16.3851 27.7499 16.6733L27.0488 18.7799C26.9553 19.068 26.6865 19.2588 26.3866 19.2588ZM11.1325 18.2698H6.17374C5.6245 18.2698 5.18433 17.822 5.18433 17.2846C5.18433 16.7239 5.6245 16.2878 6.17374 16.2878H11.1325C11.6778 16.2878 12.1219 16.7239 12.1219 17.2846C12.1219 17.822 11.6778 18.2698 11.1325 18.2698Z" fill="#292E33"/>
<path d="M22.035 13.3176L18.0735 16.2886L21.0456 19.2597" fill="#2A6796"/>
<path d="M20.0488 17.2847C20.0488 17.2847 18.07 20.2558 18.07 21.241C18.07 22.2378 19.0594 25.2088 19.0594 28.1799C19.0594 31.1587 21.046 31.1587 21.046 30.1619C21.046 29.1767 22.6119 24.7883 21.046 23.223C20.0488 22.2378 23.0326 19.259 23.0326 19.259L20.0488 17.2847ZM15.7756 13.605L13.0489 12.8262C12.6087 14.7732 10.0495 17.2847 9.1497 17.2847C8.1525 17.2847 7.16309 17.2847 7.16309 18.2699C7.16309 19.259 7.16309 19.259 9.1497 19.259C11.1285 19.259 13.119 17.2847 14.1045 16.2879C14.7512 15.6493 15.4017 14.5434 15.7756 13.605Z" fill="#FFDC5D"/>
<path d="M22.0354 13.3165L19.0593 17.2843L23.0326 20.2554C23.0326 20.2554 27.9835 15.2907 27.9835 13.3165C27.9835 11.3306 25.0075 10.3337 25.0075 10.3337" fill="#357AAA"/>
<path d="M21.0459 7.3638C18.0737 6.36696 15.5028 6.95494 14.1044 8.36064C13.115 9.34969 13.115 10.3348 13.115 12.3207C13.115 12.4998 13.0799 12.6789 13.041 12.8697L15.7599 13.6446C15.9625 13.1384 16.0871 12.6672 16.0871 12.3207C16.0871 11.3316 17.0804 11.3316 18.0737 12.3207C19.0592 13.3175 20.0564 14.3027 21.0459 14.3027C22.0353 14.3027 26.9979 10.3348 26.9979 10.3348C24.018 9.34969 22.9273 7.99461 21.0459 7.3638ZM19.0592 29.1774C19.0592 29.1774 20.0564 30.1626 21.0459 29.1774C22.0353 28.1806 22.0353 31.1594 22.0353 31.1594C22.0353 31.1594 19.0592 33.1336 17.0804 33.1336C15.0938 33.1336 16.0871 32.1485 17.0804 31.1594L19.0592 29.1774ZM11.1323 2.41075C13.115 1.41391 17.0804 2.41075 15.0938 4.39664C14.1044 5.39348 8.15234 6.36696 8.15234 6.36696C8.15234 5.39348 9.14955 3.3998 11.1323 2.41075Z" fill="#4288C1"/>
</g>
</g>
</g>
</svg>
