<?xml version="1.0" encoding="UTF-8"?>
<svg xmlns="http://www.w3.org/2000/svg" viewBox="0 0 38 39.14">
  <g id="_лой_1" data-name="Слой 1"/>
  <g id="_лой_2" data-name="Слой 2">
    <g id="Layer_3" data-name="Layer 3">
      <g>
        <path d="M32.92,4.11H5.08c-2.15,0-3.9,1.73-3.9,3.87V25.67c0,2.14,1.74,3.87,3.9,3.87h4.11v6.63l6.17-6.63h17.56c2.15,0,3.9-1.73,3.9-3.87V7.98c0-2.14-1.74-3.87-3.9-3.87Z" style="fill: #4fd1d9;"/>
        <path d="M9.49,14.3c1.38,0,2.51,1.12,2.51,2.5s-1.12,2.51-2.51,2.51-2.51-1.12-2.51-2.51,1.12-2.5,2.51-2.5Z" style="fill: #fff;"/>
        <path d="M19,14.3c1.38,0,2.51,1.12,2.51,2.5s-1.12,2.51-2.51,2.51-2.51-1.12-2.51-2.51,1.12-2.5,2.51-2.5Z" style="fill: #fff;"/>
        <path d="M28.51,14.3c1.38,0,2.51,1.12,2.51,2.5s-1.12,2.51-2.51,2.51-2.51-1.12-2.51-2.51,1.12-2.5,2.51-2.5Z" style="fill: #fff;"/>
      </g>
    </g>
  </g>
</svg>