<svg width="42" height="42" viewBox="0 0 42 42" fill="none" xmlns="http://www.w3.org/2000/svg">
<path fill-rule="evenodd" clip-rule="evenodd" d="M40.7304 37.1401C40.7304 39.4401 39.2704 41.1499 36.9104 41.1899C29.7504 41.2899 12.2804 41.5801 6.20043 41.5801C3.50043 41.5801 1.32044 40.3201 1.32044 36.0801C1.32044 31.8401 0.780435 10.5802 0.440435 6.66016C0.100435 2.74016 2.57043 0.27002 6.09043 0.27002C12.5104 0.27002 30.5304 0.399902 36.4404 0.399902C39.8004 0.399902 41.1504 2.34998 41.1504 5.72998C41.1504 9.10998 40.7304 34.8301 40.7304 37.1401ZM37.7204 25.8198L35.5404 25.9502L35.4904 16.1001L37.4104 16.21V10.4702L35.4604 10.52L35.4204 5.02002L6.68043 5.2002L6.60044 37.3901L35.5704 37.1802V31.6699H37.7204V25.8198ZM9.31043 7.56982L32.7204 7.5L32.9204 34.8198H9.25043L9.31043 7.56982ZM14.0304 28.7798L18.0804 25.8501C19.0504 26.4101 20.1604 26.6902 21.2704 26.6602C22.0104 26.6702 22.7504 26.53 23.4404 26.25L26.7604 29.52L28.5904 27.8999L25.7004 24.3198C26.7004 22.6498 26.8404 20.6198 26.1004 18.8198L29.6904 15.3198L28.0804 13.46L24.2104 16.48C23.3004 15.91 22.2304 15.6201 21.1604 15.6401C20.2904 15.6301 19.4404 15.8099 18.6504 16.1699L15.0704 12.6201L13.2604 14.3301L16.3404 18.3198C15.4504 19.9198 15.3504 21.83 16.0604 23.52L12.6504 26.8301L14.0304 28.7798ZM21.1104 18.27C24.9004 18.27 24.8804 24.0298 21.1704 24.0298C17.1204 24.0198 17.3004 18.27 21.1104 18.27Z" fill="black"/>
</svg>
