<svg width="30" height="25" viewBox="0 0 30 25" fill="none" xmlns="http://www.w3.org/2000/svg">
<path fill-rule="evenodd" clip-rule="evenodd" d="M11.778 9.96666C8.56432 9.96666 8.71234 5.37185 11.7273 5.37185C14.7423 5.37185 14.7072 9.96666 11.778 9.96666ZM12.8141 3.05888C6.60497 3.05888 6.30503 12.5094 12.9193 12.5094C18.957 12.5094 18.9921 3.05888 12.8141 3.05888ZM19.2375 23.2332C17.6794 25.2658 12.0974 25.3671 10.212 23.3928C8.44356 25.4177 2.33181 25.6474 0.337402 21.7691L1.52548 20.4607C3.30174 23.1943 7.96055 23.4941 10.0406 20.4607C10.1731 20.4413 10.3055 20.4335 10.438 20.4335C11.0534 21.4576 12.1792 22.1156 13.4218 22.396L13.2816 16.7148L15.9226 15.6089L15.4396 14.4602C14.6566 14.7289 13.8308 14.8691 13.0011 14.8613C3.07192 14.8613 3.52378 0.683594 12.8414 0.683594C13.2231 0.683594 13.6088 0.714745 13.9866 0.765366L14.0723 0.784835C14.232 0.804306 14.3956 0.823775 14.5514 0.862713L19.5413 1.6999L22.6381 5.44973L22.79 22.3259C24.6715 22.6141 26.7126 22.0066 27.9513 20.523L29.0927 21.5471C27.1995 25.5462 21.4968 25.4255 19.2375 23.2332Z" fill="black"/>
</svg>
