<svg width="36" height="36" viewBox="0 0 36 36" fill="none" xmlns="http://www.w3.org/2000/svg">
<mask id="mask0_131_257" style="mask-type:luminance" maskUnits="userSpaceOnUse" x="-1" y="-1" width="38" height="37">
<path d="M36.382 -0.0344238H-0.514526V35.8518H36.382V-0.0344238Z" fill="white"/>
</mask>
<g mask="url(#mask0_131_257)">
<mask id="mask1_131_257" style="mask-type:luminance" maskUnits="userSpaceOnUse" x="0" y="0" width="36" height="36">
<path d="M0.000610352 0.00170898H35.6934V35.6893H0.000610352V0.00170898Z" fill="white"/>
</mask>
<g mask="url(#mask1_131_257)">
<path d="M17.8484 35.6906C7.9893 35.6906 0 27.7042 0 17.8487C0 7.99715 7.9893 0.0146484 17.8484 0.0146484C27.7074 0.0146484 35.6928 7.99715 35.6928 17.8487C35.6928 27.7042 27.7074 35.6906 17.8484 35.6906Z" fill="#292E33"/>
</g>
<path d="M26.7735 17.8482C26.7735 22.7818 22.7769 26.7691 17.8493 26.7691C12.9217 26.7691 8.92511 22.7818 8.92511 17.8482C8.92511 12.9224 12.9217 8.93506 17.8493 8.93506C22.7769 8.93506 26.7735 12.9224 26.7735 17.8482Z" fill="#E0E8EC"/>
<path d="M16.6342 14.8076C16.6342 15.5942 17.0899 16.1316 17.8923 16.1316C18.6948 16.1316 19.1661 15.5942 19.1661 14.8076C19.1661 14.06 18.7143 13.4915 17.8923 13.4915C17.0743 13.4915 16.6342 14.06 16.6342 14.8076ZM16.3069 19.8619C16.3069 20.7575 16.8289 21.6064 17.8923 21.6064C18.8856 21.6064 19.4777 20.7575 19.4777 19.8619C19.4777 18.7638 18.8506 18.1174 17.8923 18.1174C16.8796 18.1174 16.3069 18.8845 16.3069 19.8619ZM13.588 20.041C13.588 18.6431 14.3554 17.619 15.4539 17.0194C14.6359 16.4314 14.1295 15.6253 14.1295 14.5273C14.1295 12.4946 15.82 11.1902 17.8923 11.1902C19.9179 11.1902 21.6747 12.4752 21.6747 14.5273C21.6747 15.5046 21.1878 16.482 20.3308 17.0194C21.5228 17.619 22.1967 18.6937 22.1967 20.041C22.1967 22.463 20.2295 24.0089 17.8962 24.0089C15.4889 24.0089 13.588 22.3735 13.588 20.041Z" fill="#292E33"/>
</g>
</svg>
