<svg width="42" height="39" viewBox="0 0 42 39" fill="none" xmlns="http://www.w3.org/2000/svg">
<path d="M41.9305 32.5601V38.13L2.04047 38.5699L1.18047 33.42L5.05047 33.34L5.49047 19.7L2.92047 16.76L13.2505 16.85L11.4705 19.7L12.7305 33.1801L17.5205 33.08L18.3305 19.7L15.9105 16.88L26.4605 16.97L24.3405 19.7L25.4505 32.91L30.8105 32.8L31.2105 19.7L28.8905 16.99L39.0905 17.08L37.2205 19.6899L38.3605 32.63L41.9305 32.5601ZM1.17047 14.98L0.730469 12.41L20.4705 0.829956L41.4905 11.55L41.0505 14.55L1.17047 14.98ZM20.9005 11.55C24.4005 11.55 24.3105 5.96997 20.6505 5.96997C17.0705 5.96997 16.7705 11.55 20.9005 11.55Z" fill="black"/>
</svg>
