<?xml version="1.0" encoding="UTF-8"?>
<svg xmlns="http://www.w3.org/2000/svg" viewBox="0 0 38 39.14">
  <g id="_лой_1" data-name="Слой 1"/>
  <g id="_лой_2" data-name="Слой 2">
    <g id="Layer_3" data-name="Layer 3">
      <g>
        <path d="M31,5.81l1.46,1.54,3.18-2.05c1.29-.16,1.92-2.97-1.65-2.05-.94,.24-2.27,.88-2.99,2.57Z" style="fill: #89664c;"/>
        <path d="M36.25,5.31c1.04-.41,.31-1.64,.31-1.64,0,0,.26,.91-1.44,1.14-2.42,.33-3.08,2.1-3.08,2.1l.42,.44s1.43-1.11,3.8-2.04Z" style="fill: #594640;"/>
        <path d="M31.76,4.71c5.24,5.52,.72,13.83-4.51,23.46-.44,.8-.88,1.61-1.31,2.42-3.68,6.85-9.09,7.54-11.99,7.34-3.25-.22-6.52-1.75-8.74-4.09-2.22-2.34-3.71-5.82-3.98-9.31-.24-3.11,.29-8.95,6.58-13.04,.74-.48,1.47-.96,2.21-1.45C18.88,4.22,26.52-.81,31.76,4.71Z" style="fill: #699635;"/>
        <path d="M8.89,12.97C17.53,7.35,26.3,.86,30.88,5.68c4.58,4.83-4.43,11.06-9.48,20.46-5.05,9.4-11.24,11-15.3,6.71C2.04,28.58,.25,18.58,8.89,12.97Z" style="fill: #c7e755;"/>
        <path d="M6.98,31.89c.93,.98,1.95,1.49,3.14,1.57,3.28,.22,6.88-2.85,9.89-8.44,1.74-3.25,3.94-6.12,5.88-8.65,3.06-3.99,5.95-7.77,4.1-9.71-3.14-3.31-11.27,2.04-17.8,6.34-.74,.49-1.48,.97-2.22,1.45-5.4,3.51-5.87,8.32-5.67,10.87,.19,2.51,1.22,5.03,2.69,6.57Z" style="fill: #c7e755;"/>
        <g style="isolation: isolate; opacity: .33;">
          <path d="M6.98,31.89c.93,.98,1.95,1.49,3.14,1.57,3.28,.22,6.88-2.85,9.89-8.44,1.74-3.25,3.94-6.12,5.88-8.65,3.06-3.99,5.95-7.77,4.1-9.72-3.14-3.31-11.27,2.04-17.8,6.34-.74,.49-1.48,.97-2.22,1.45-5.4,3.51-5.87,8.32-5.67,10.87,.19,2.51,1.22,5.03,2.69,6.57Z" style="fill: #ffce31;"/>
        </g>
        <path d="M10.21,17.18c3.57-3.91,8.81-3.56,9.86-1.2,1.08,2.37-.47,5.91-2.85,8.57-2.43,2.62-5.69,4.35-7.92,3.24-2.21-1.08-2.65-6.7,.92-10.62Z" style="fill: #89664c;"/>
        <path d="M9.82,21.11c1.54-2.28,3.16-2.86,2.87-2.3-.21,.55-1.08,1.85-1.57,3.02-.53,1.16-.84,2.17-1.43,2.55-.61,.47-1.38-.87,.13-3.26Z" style="fill: #d3976e;"/>
        <path d="M15.65,22.92c-2.06,2.22-4.6,3.94-6.94,4.44,.18,.18,.37,.34,.58,.44,2.23,1.11,5.49-.62,7.92-3.24,2.39-2.66,3.93-6.2,2.85-8.57-.1-.22-.25-.42-.42-.61-.42,2.52-1.97,5.28-3.99,7.55Z" style="fill: #594640;"/>
      </g>
    </g>
  </g>
</svg>