<svg width="14" height="16" viewBox="0 0 14 16" fill="none" xmlns="http://www.w3.org/2000/svg">
<path fill-rule="evenodd" clip-rule="evenodd" d="M6.60262 0.0108663C5.63164 0.137161 4.85027 0.513132 4.17729 1.17785C2.68974 2.64714 2.53051 5.02757 3.8073 6.709C5.03548 8.32644 7.27856 8.78246 9.00218 7.7651C10.5249 6.86632 11.3111 5.12078 10.9853 3.36189C10.6848 1.7397 9.40638 0.416799 7.81652 0.0829987C7.51406 0.0194759 6.84294 -0.0203785 6.60262 0.0108663ZM3.72926 8.66425C2.37624 8.90757 1.1351 9.76787 0.361066 10.9989C0.197528 11.259 0 11.6997 0 11.8045C0 12.0103 0.581367 12.8477 1.131 13.4337C2.4739 14.8653 4.12942 15.7185 6.03712 15.9623C6.43431 16.013 7.54169 16.0125 7.93231 15.9613C9.47828 15.7589 10.8537 15.1675 12.0437 14.1936C12.4122 13.8919 13.139 13.1232 13.4242 12.7334C13.7463 12.2932 14 11.8709 14 11.7751C14 11.6821 13.8273 11.2969 13.6788 11.0585C13.1569 10.221 12.4295 9.54014 11.6128 9.12463C11.0168 8.82141 10.2741 8.61081 9.89895 8.63858C9.76793 8.64828 9.68421 8.67762 9.56209 8.75654C9.12005 9.04226 8.98146 9.12187 8.73524 9.23154C8.12868 9.50163 7.50877 9.62053 6.84716 9.59361C6.00236 9.55923 5.29503 9.32706 4.58931 8.85244C4.43577 8.74916 4.27229 8.65605 4.22604 8.6455C4.17976 8.63498 4.12129 8.62189 4.09607 8.61644C4.07085 8.61096 3.90579 8.6325 3.72926 8.66425Z" fill="#142031"/>
</svg>
