<svg width="12" height="22" viewBox="0 0 12 22" fill="none" xmlns="http://www.w3.org/2000/svg">
<path fill-rule="evenodd" clip-rule="evenodd" d="M3.15657 16.0236L4.7147 15.9457V13.952C4.7147 12.7254 3.12541 12.7332 3.1332 13.8702C3.14099 14.2207 3.15657 16.0236 3.15657 16.0236ZM8.32955 11.6001L8.66066 21.7749L1.19333 21.7554L1.46989 11.5183L8.32955 11.6001ZM8.52822 4.55991L8.43862 3.68378L6.80259 3.8629L6.77532 7.97876H7.93223L8.16595 6.68598L9.4592 6.65483L9.57606 10.1944L0.137695 10.4903V6.90404L1.41926 6.87289L1.6335 7.97876H2.74756L2.90727 6.83395L4.27842 6.8028L4.44981 7.97876H5.63399L5.48987 0.225995L6.81817 0.046875V1.33965L9.02682 1.20336V2.15737L11.8314 2.88553" fill="black"/>
</svg>
