<svg width="37" height="34" viewBox="0 0 37 34" fill="none" xmlns="http://www.w3.org/2000/svg">
<path d="M0.240234 15.02H2.24023V4.02002H0.240234V15.02ZM34.2402 15.02H36.2402V4.02002H34.2402V15.02ZM30.2402 8.02002H28.2402V6.02002H26.2402V4.02002H23.2402V0.0200195H21.2402V4.02002H15.2402V0.0200195H13.2402V4.02002H10.2402V6.02002H8.24023V8.02002H6.24023V15.02H2.24023V17.02H6.24023V24.02H10.2402V29.02H15.2402V24.02H21.2402V29.02H26.2402V24.02H30.2402V17.02H34.2402V15.02H30.2402V8.02002ZM16.2402 19.02H12.2402V11.02H16.2402V19.02ZM20.2402 11.02H24.2402V19.02H20.2402V11.02ZM6.24023 33.02H10.2402V29.02H6.24023V33.02ZM30.2402 29.02H26.2402V33.02H30.2402V29.02Z" fill="#553986"/>
</svg>
