<svg width="51" height="37" viewBox="0 0 51 37" fill="none" xmlns="http://www.w3.org/2000/svg">
<mask id="mask0_134_304" style="mask-type:luminance" maskUnits="userSpaceOnUse" x="7" y="0" width="37" height="37">
<path d="M7 0.408203H44V36.0958H7V0.408203Z" fill="white"/>
</mask>
<g mask="url(#mask0_134_304)">
<mask id="mask1_134_304" style="mask-type:luminance" maskUnits="userSpaceOnUse" x="-84" y="-2398" width="1198" height="4430">
<path d="M1113.08 -2397.01H-83.5615V2031.51H1113.08V-2397.01Z" fill="black"/>
</mask>
<g mask="url(#mask1_134_304)">
<mask id="mask2_134_304" style="mask-type:luminance" maskUnits="userSpaceOnUse" x="7" y="0" width="38" height="37">
<path d="M45 0.389648H7V36.2759H45V0.389648Z" fill="white"/>
</mask>
<g mask="url(#mask2_134_304)">
<mask id="mask3_134_304" style="mask-type:luminance" maskUnits="userSpaceOnUse" x="7" y="0" width="38" height="37">
<path d="M7.18408 0.411621H44.0806V36.0993H7.18408V0.411621Z" fill="white"/>
</mask>
<g mask="url(#mask3_134_304)">
<path d="M43.5 18.2555C43.5 28.111 35.5106 36.0974 25.6555 36.0974C15.7964 36.0974 7.80713 28.111 7.80713 18.2555C7.80713 8.40389 15.7964 0.421387 25.6555 0.421387C35.5106 0.421387 43.5 8.40389 43.5 18.2555Z" fill="#F4900B"/>
</g>
<mask id="mask4_134_304" style="mask-type:luminance" maskUnits="userSpaceOnUse" x="24" y="0" width="4" height="37">
<path d="M24.135 0.411621H27.1266V36.0993H24.135V0.411621Z" fill="white"/>
</mask>
<g mask="url(#mask4_134_304)">
<path d="M24.6614 36.0983H26.6441V0.418457H24.6614V36.0983Z" fill="#221F1F"/>
</g>
<path d="M7.80664 19.2535H43.4995V17.2676H7.80664V19.2535Z" fill="#221F1F"/>
<mask id="mask5_134_304" style="mask-type:luminance" maskUnits="userSpaceOnUse" x="7" y="4" width="38" height="29">
<path d="M7.18311 4.37842H44.0796V32.2899H7.18311V4.37842Z" fill="white"/>
</mask>
<g mask="url(#mask5_134_304)">
<mask id="mask6_134_304" style="mask-type:luminance" maskUnits="userSpaceOnUse" x="7" y="0" width="37" height="37">
<path d="M25.655 0.42041C15.7959 0.42041 7.80664 8.40291 7.80664 18.2623C7.80664 28.1099 15.7959 36.0963 25.655 36.0963C35.5102 36.0963 43.4995 28.1099 43.4995 18.2623C43.4995 8.40291 35.5102 0.42041 25.655 0.42041Z" fill="white"/>
</mask>
<g mask="url(#mask6_134_304)">
<path d="M9.78917 6.35944C5.50821 6.35944 2.84771 10.9153 2.84771 18.2554C2.84771 25.5915 5.50821 30.1473 9.78917 30.1473C14.074 30.1473 16.7306 25.5915 16.7306 18.2554C16.7306 10.9153 14.074 6.35944 9.78917 6.35944ZM9.78917 32.1293C5.47315 32.1293 0.86499 28.4924 0.86499 18.2554C0.86499 8.02603 5.47315 4.37744 9.78917 4.37744C14.1052 4.37744 18.7172 8.02603 18.7172 18.2554C18.7172 28.4924 14.1052 32.1293 9.78917 32.1293ZM41.5166 6.35944C37.2356 6.35944 34.579 10.9153 34.579 18.2554C34.579 25.5915 37.2356 30.1473 41.5166 30.1473C45.7975 30.1473 48.458 25.5915 48.458 18.2554C48.458 10.9153 45.7975 6.35944 41.5166 6.35944ZM41.5166 32.1293C37.2044 32.1293 32.5924 28.4924 32.5924 18.2554C32.5924 8.02603 37.2044 4.37744 41.5166 4.37744C45.8326 4.37744 50.4407 8.02603 50.4407 18.2554C50.4407 28.4924 45.8326 32.1293 41.5166 32.1293Z" fill="#221F1F"/>
</g>
</g>
</g>
</g>
</g>
</svg>
