<svg width="35" height="44" viewBox="0 0 35 44" fill="none" xmlns="http://www.w3.org/2000/svg">
<path fill-rule="evenodd" clip-rule="evenodd" d="M31.8495 31.9301C31.3995 35.4401 27.6895 37.93 23.2095 37.2C19.9195 36.66 11.4395 35.6101 5.46951 34.8101L6.74951 32.11L8.90951 32.4L9.84951 30.48C7.55951 30.18 5.5395 29.9 4.4495 29.73C1.2995 29.22 0.369499 27.06 0.759499 24.52C2.0095 16.49 2.89951 8.60997 3.20951 6.96997C3.73951 4.10997 5.1095 2.91997 7.5895 3.33997C9.0395 3.57997 17.0695 4.47001 22.3495 5.14001L23.2895 3.22998L20.6395 2.90002L21.8295 0.400024L24.5295 0.73999C26.6795 1.00999 28.3995 1.22997 29.2395 1.33997C33.2195 1.85997 35.4295 5.51003 34.7095 10.16C34.4295 12.14 32.5795 26.1701 31.8495 31.9301ZM23.0895 14.23L21.8795 15.36L23.0795 18.58L20.1095 19.52L19.2095 16.8199L17.6395 17.1801L18.4595 20.15L20.2895 21.3L16.4495 23.1L13.0795 26.1899L10.1995 25.8L10.1595 22.9399L11.5095 18.99L8.4495 17.4301L8.54951 12.38L12.3195 11.15L16.3695 13.99L18.6995 12.92L18.8995 11.24L11.9595 9.43994L11.8795 6.69995L6.32951 5.98999L3.5895 26.6899L24.7395 29.5L26.2295 18.05L23.0895 14.23ZM27.5895 3.72998L26.5895 3.60999L25.6095 5.54004C26.0595 5.61004 26.4595 5.66996 26.7195 5.70996C29.6395 6.24996 30.3195 8.35 29.8695 11C29.6295 12.47 28.5195 21.47 27.5295 29.14C27.1995 31.72 25.0895 32.64 21.7995 32.1C20.0695 31.81 16.2095 31.32 12.4995 30.84L11.4995 32.76C15.9295 33.35 20.4995 33.96 23.6895 34.35C26.8795 34.74 28.8795 33.37 29.3995 30.16C29.6995 28.31 31.7195 13.3701 32.0795 10.0601C32.4995 6.33006 30.8195 4.11999 27.6195 3.73999H27.5895V3.72998ZM12.9495 40.3199H16.5195L16.6595 38.3199L20.7095 38.63V40.33H24.2195C26.6595 40.33 26.6795 43.3199 26.6795 43.3199H10.5795C10.5795 43.3199 10.2295 40.33 12.9595 40.33H12.9495V40.3199Z" fill="black"/>
</svg>
