<svg width="40" height="23" viewBox="0 0 40 23" fill="none" xmlns="http://www.w3.org/2000/svg">
<path fill-rule="evenodd" clip-rule="evenodd" d="M0.150391 1.32007V21.1699C0.150391 21.8399 0.69039 22.3799 1.36039 22.3799C2.03039 22.3799 2.57039 21.8399 2.57039 21.1699V1.32007C2.57039 0.650068 2.03039 0.110107 1.36039 0.110107C0.69039 0.110107 0.150391 0.650068 0.150391 1.32007Z" fill="black"/>
<path fill-rule="evenodd" clip-rule="evenodd" d="M37.3203 1.32007V21.1699C37.3203 21.8399 37.8603 22.3799 38.5303 22.3799C39.2003 22.3799 39.7403 21.8399 39.7403 21.1699V1.32007C39.7403 0.650068 39.2003 0.110107 38.5303 0.110107C37.8603 0.110107 37.3203 0.650068 37.3203 1.32007Z" fill="black"/>
<path fill-rule="evenodd" clip-rule="evenodd" d="M1.36035 10.6699H38.5404V16.3301H1.36035V10.6699Z" fill="black"/>
<path fill-rule="evenodd" clip-rule="evenodd" d="M10.2504 9.86011C10.2504 7.63011 8.44035 5.82007 6.21035 5.82007H1.36035V9.86011H10.2504Z" fill="black"/>
</svg>
