<svg width="35" height="37" viewBox="0 0 35 37" fill="none" xmlns="http://www.w3.org/2000/svg">
<path d="M34.3296 19.5C34.3296 17.44 33.9596 15.4599 33.2896 13.6299C32.8296 19.0199 29.9596 21.79 26.9496 20.5C24.1396 19.29 26.0296 14.5801 26.1696 12.3401C26.4096 8.53009 26.1596 4.17005 19.2396 0.550049C22.1196 6.05005 19.5696 9.46992 16.8996 9.66992C13.9396 9.89992 11.2296 7.12988 12.2296 2.62988C8.98957 5.01988 8.89957 9.03988 9.88957 11.6299C10.9296 14.3399 9.84957 16.5901 7.30957 16.8401C4.46957 17.1201 2.88957 13.8 4.34957 8.51001C1.73957 11.58 0.30957 15.48 0.30957 19.51C0.30957 28.9 7.91957 36.51 17.3096 36.51C26.7196 36.5 34.3296 28.89 34.3296 19.5Z" fill="#F4900C"/>
<mask id="mask0_104_4740" style="mask-type:luminance" maskUnits="userSpaceOnUse" x="0" y="0" width="35" height="37">
<path d="M16.9191 9.66992C13.9591 9.89992 11.2491 7.12988 12.2491 2.62988C9.0091 5.01988 8.9191 9.03988 9.9091 11.6299C10.9491 14.3399 9.8691 16.5901 7.3291 16.8401C4.4891 17.1201 2.9091 13.8 4.3691 8.51001C1.7591 11.58 0.329102 15.48 0.329102 19.51C0.329102 28.9 7.9391 36.51 17.3291 36.51C26.7191 36.51 34.3291 28.9 34.3291 19.51C34.3291 17.45 33.9591 15.4699 33.2891 13.6399C32.8291 19.0199 29.9591 21.79 26.9491 20.5C24.1391 19.29 26.0291 14.5801 26.1691 12.3401C26.4091 8.53009 26.1591 4.17005 19.2391 0.550049C22.1291 6.04005 19.5791 9.45992 16.9191 9.66992Z" fill="white"/>
</mask>
<g mask="url(#mask0_104_4740)">
<path d="M29.3291 30.5C29.3291 28.31 28.7491 26.26 27.7191 24.5C27.8691 27.58 25.1591 28.79 23.6991 28.21C21.5991 27.37 22.1591 25.9199 21.6191 22.9199C21.0791 19.9099 18.9991 17.8299 15.9091 16.9199C18.1591 23.2499 14.6591 25.59 12.8291 26.01C10.9591 26.43 9.0791 26.01 8.8591 22C6.5991 24.25 5.3291 27.31 5.3291 30.51C5.3291 37.13 10.6991 42.51 17.3291 42.51C23.9591 42.5 29.3291 37.13 29.3291 30.5Z" fill="#FFCC4D"/>
</g>
</svg>
