<svg width="36" height="31" viewBox="0 0 36 31" fill="none" xmlns="http://www.w3.org/2000/svg">
<mask id="mask0_131_180" style="mask-type:luminance" maskUnits="userSpaceOnUse" x="0" y="0" width="36" height="22">
<path d="M0 0H35.6889V21.9305H0V0Z" fill="white"/>
</mask>
<g mask="url(#mask0_131_180)">
<path d="M35.6888 0.0712891C34.7033 1.34849 32.6894 3.84059 31.3339 5.69409C27.5515 10.8652 24.2366 12.084 21.0931 13.2483C17.9496 14.4164 10.7783 14.2763 7.33481 14.0971C3.89134 13.918 1.64764 13.5169 0.96596 14.506C-1.11414 17.5354 0.35829 20.9348 3.37716 21.3943C5.73383 21.7603 12.8389 21.075 16.1655 20.7869C19.496 20.4948 23.1303 19.498 24.3807 19.0112C25.6233 18.544 26.64 18.1429 26.9516 17.3875C27.2672 16.6282 28.8136 14.5956 30.7028 11.5233C31.7701 9.79047 34.7033 6.55853 35.6888 5.02433" fill="#F4900B"/>
</g>
<path d="M6.93677 21.4659C9.9089 21.3569 13.9328 20.987 16.1687 20.7884C18.4319 20.5859 20.8314 20.0602 22.5336 19.5891L22.1051 12.8721C21.7702 13.0006 21.4313 13.1213 21.0924 13.2498C17.9488 14.418 10.7776 14.2778 7.33409 14.0987C7.19775 14.087 6.93677 14.087 6.93677 14.0792" fill="#292E33"/>
<path d="M16.8506 24.8442V28.8082C16.8506 29.9063 19.9552 30.7941 23.792 30.7941C27.625 30.7941 30.7296 29.9063 30.7296 28.8082V24.8442" fill="#221F1F"/>
<path d="M30.7255 24.8433C30.7255 25.9375 27.6209 26.8253 23.784 26.8253C19.9549 26.8253 16.8464 25.9375 16.8464 24.8433C16.8464 23.7452 19.9549 22.8574 23.784 22.8574C27.6209 22.8574 30.7255 23.7452 30.7255 24.8433Z" fill="#57585B"/>
</svg>
