<svg width="36" height="36" viewBox="0 0 36 36" fill="none" xmlns="http://www.w3.org/2000/svg">
<mask id="mask0_131_171" style="mask-type:luminance" maskUnits="userSpaceOnUse" x="0" y="0" width="36" height="36">
<path d="M0.00012207 0H35.6929V35.6759H0.00012207V0Z" fill="white"/>
</mask>
<g mask="url(#mask0_131_171)">
<mask id="mask1_131_171" style="mask-type:luminance" maskUnits="userSpaceOnUse" x="-29" y="-2465" width="1197" height="4430">
<path d="M1167.8 -2464.29H-28.8444V1964.23H1167.8V-2464.29Z" fill="black"/>
</mask>
<g mask="url(#mask1_131_171)">
<mask id="mask2_131_171" style="mask-type:luminance" maskUnits="userSpaceOnUse" x="-1" y="-1" width="37" height="37">
<path d="M35.9739 -0.0991211H-0.922546V35.7871H35.9739V-0.0991211Z" fill="white"/>
</mask>
<g mask="url(#mask2_131_171)">
<mask id="mask3_131_171" style="mask-type:luminance" maskUnits="userSpaceOnUse" x="0" y="19" width="36" height="17">
<path d="M0.074707 19.8386H35.6935V35.679H0.074707V19.8386Z" fill="white"/>
</mask>
<g mask="url(#mask3_131_171)">
<path d="M3.9667 35.6802H31.7326C33.7153 35.6802 35.4292 33.6943 35.4292 31.724C35.4292 27.4056 30.8327 20.8171 17.8496 20.8171C4.4692 20.8171 0.192139 27.2265 0.192139 31.724C0.192139 33.6943 1.98399 35.6802 3.9667 35.6802Z" fill="#77B154"/>
</g>
<mask id="mask4_131_171" style="mask-type:luminance" maskUnits="userSpaceOnUse" x="11" y="20" width="18" height="11">
<path d="M11.0439 20.8364H28.9936V30.8048H11.0439V20.8364Z" fill="white"/>
</mask>
<g mask="url(#mask4_131_171)">
<mask id="mask5_131_171" style="mask-type:luminance" maskUnits="userSpaceOnUse" x="0" y="20" width="36" height="16">
<path d="M0.191956 31.7249C0.191956 33.6953 1.9838 35.6811 3.96652 35.6811H31.7324C33.7151 35.6811 35.429 33.6953 35.429 31.7249C35.429 27.4066 30.8325 20.8181 17.8494 20.8181C4.46902 20.8181 0.191956 27.2158 0.191956 31.7249Z" fill="white"/>
</mask>
<g mask="url(#mask5_131_171)">
<path d="M11.1959 29.2398C12.31 25.5212 20.8641 21.6428 25.4099 21.6857C30.3609 21.7246 28.0081 22.4722 27.0187 22.4722C26.0293 22.4722 15.3289 25.0617 13.1358 29.9096C12.1464 29.9096 11.1959 29.2398 11.1959 29.2398Z" fill="#5C913A"/>
</g>
</g>
<path d="M18.8382 30.2343C18.8382 31.6011 15.9517 32.707 12.3914 32.707C8.83499 32.707 5.95245 31.6011 5.95245 30.2343C5.95245 28.8598 8.83499 27.7539 12.3914 27.7539C15.9517 27.7539 18.8382 28.8598 18.8382 30.2343Z" fill="#292E33"/>
<path d="M9.91431 3.95776V29.7354C9.91431 30.2845 10.3584 30.5726 10.9115 30.5726C11.453 30.5726 11.9009 30.2845 11.9009 29.7354V3.95776" fill="#FFAC33"/>
<mask id="mask6_131_171" style="mask-type:luminance" maskUnits="userSpaceOnUse" x="9" y="0" width="17" height="11">
<path d="M9.04895 0.00170898H25.0042V10.8657H9.04895V0.00170898Z" fill="white"/>
</mask>
<g mask="url(#mask6_131_171)">
<path d="M9.91418 2.9676C9.91418 0.794803 11.597 -0.400626 13.6537 0.339216L23.0375 3.69576C25.0942 4.42392 25.0942 5.63103 23.0375 6.35919L13.6537 9.70795C11.597 10.4439 9.91418 9.26015 9.91418 7.07567" fill="#DD2D44"/>
</g>
</g>
</g>
</g>
</svg>
