<svg width="37" height="37" viewBox="0 0 37 37" fill="none" xmlns="http://www.w3.org/2000/svg">
<path d="M18.6 36.3999C28.4804 36.3999 36.49 28.3904 36.49 18.51C36.49 8.62964 28.4804 0.620117 18.6 0.620117C8.7196 0.620117 0.709961 8.62964 0.709961 18.51C0.709961 28.3904 8.7196 36.3999 18.6 36.3999Z" fill="#1B1C20"/>
<path d="M13.3665 25.4963C13.3665 24.7704 13.3665 24.0812 13.3665 23.4286C13.3665 22.776 13.3665 22.0171 13.3665 21.1519L13.4765 20.712V16.2356C13.4765 15.473 13.4765 14.7141 13.4765 13.9589C13.4765 13.1963 13.4765 12.4301 13.4765 11.6602L15.5552 11.0003C15.1593 11.5722 14.7707 12.1295 14.3894 12.6721C14.0154 13.2073 13.6341 13.7426 13.2455 14.2779L10.7599 17.8084C10.4226 18.285 10.089 18.7579 9.75901 19.2272C9.43639 19.6891 9.10643 20.1621 8.76914 20.646L8.68116 19.7771H14.0924L14.4334 19.7331C14.8513 19.7331 15.3133 19.7331 15.8192 19.7331C16.3251 19.7331 16.8237 19.7331 17.315 19.7331C17.8136 19.7331 18.2535 19.7331 18.6348 19.7331V22.2188C18.2535 22.2188 17.8136 22.2188 17.315 22.2188C16.8237 22.2188 16.3251 22.2188 15.8192 22.2188C15.3133 22.2188 14.8513 22.2188 14.4334 22.2188H6.38247V20.283C6.68309 19.8578 7.01305 19.3885 7.37233 18.8752C7.73162 18.362 8.09457 17.845 8.46119 17.3245C8.83513 16.8039 9.17975 16.3236 9.49504 15.8836L11.3648 13.244C11.7021 12.7674 12.0394 12.2908 12.3767 11.8142C12.7139 11.3376 13.0512 10.8573 13.3885 10.3734H16.2371C16.2371 11.2826 16.2371 12.1772 16.2371 13.057C16.2371 13.9296 16.2371 14.8021 16.2371 15.6747V21.1519C16.2371 22.0171 16.2371 22.776 16.2371 23.4286C16.2371 24.0812 16.2371 24.7704 16.2371 25.4963H13.3665ZM24.5052 24.2975C24.5052 23.5643 24.5052 22.8567 24.5052 22.1748C24.5052 21.4856 24.5052 20.844 24.5052 20.2501V17.4564C24.5052 16.8552 24.5052 16.2136 24.5052 15.5317C24.5052 14.8425 24.5052 14.1312 24.5052 13.398H27.0129C27.0129 14.1312 27.0129 14.8425 27.0129 15.5317C27.0129 16.2136 27.0129 16.8552 27.0129 17.4564V20.2501C27.0129 20.844 27.0129 21.4856 27.0129 22.1748C27.0129 22.8567 27.0129 23.5643 27.0129 24.2975H24.5052ZM20.4248 20.0741V17.6324C21.158 17.6324 21.8656 17.6324 22.5475 17.6324C23.2368 17.6324 23.8783 17.6324 24.4723 17.6324H27.0459C27.6472 17.6324 28.2887 17.6324 28.9706 17.6324C29.6599 17.6324 30.3711 17.6324 31.1043 17.6324V20.0741C30.3711 20.0741 29.6599 20.0741 28.9706 20.0741C28.2887 20.0741 27.6472 20.0741 27.0459 20.0741H24.4723C23.8783 20.0741 23.2368 20.0741 22.5475 20.0741C21.8656 20.0741 21.158 20.0741 20.4248 20.0741Z" fill="white"/>
</svg>
