<svg width="41" height="41" viewBox="0 0 41 41" fill="none" xmlns="http://www.w3.org/2000/svg">
<mask id="mask0_104_5157" style="mask-type:luminance" maskUnits="userSpaceOnUse" x="0" y="0" width="41" height="41">
<path d="M40.1299 0.699951H0.129883V40.7H40.1299V0.699951Z" fill="white"/>
</mask>
<g mask="url(#mask0_104_5157)">
<path d="M20.68 4.6001C19.9 4.6001 19.12 4.78012 18.42 5.12012C16.62 4.81012 14.91 6.01006 14.59 7.81006C14.56 8.00006 14.54 8.17988 14.54 8.37988V14.05H14.55C14.64 17.11 17.14 19.55 20.2 19.55C23.27 19.55 25.77 17.11 25.86 14.05V9.79004C25.88 6.93004 23.55 4.6001 20.68 4.6001Z" fill="#FFE51E"/>
</g>
<mask id="mask1_104_5157" style="mask-type:luminance" maskUnits="userSpaceOnUse" x="0" y="0" width="41" height="41">
<path d="M40.1299 0.699951H0.129883V40.7H40.1299V0.699951Z" fill="white"/>
</mask>
<g mask="url(#mask1_104_5157)">
<path d="M24.35 17.0401C24.17 17.6301 24.58 19.5902 24.58 19.5902C25.69 19.5902 26.29 18.28 26.47 17.69L30.09 6.01007C30.25 5.42007 29.9 4.80996 29.31 4.63996C28.75 4.48996 28.16 4.80016 27.97 5.35016L24.35 17.0401ZM15.92 17.0401C16.1 17.6301 15.69 19.5902 15.69 19.5902C14.58 19.5902 13.98 18.28 13.79 17.69L10.18 6.01007C9.99998 5.42007 10.33 4.80018 10.92 4.62018C11.51 4.43018 12.13 4.76016 12.31 5.35016L15.92 17.0401ZM21.56 39.3101C21.4 39.9001 21.76 40.51 22.35 40.66C22.95 40.81 23.56 40.4602 23.71 39.8702L25.4 33.42C25.56 32.82 25.2 32.2201 24.61 32.0601C24.02 31.9001 23.41 32.2602 23.26 32.8502L21.56 39.3101ZM16.55 39.8799C16.7 40.4699 17.31 40.82 17.91 40.67C18.5 40.51 18.86 39.9001 18.7 39.3101L17.01 32.8602C16.85 32.2702 16.25 31.9201 15.66 32.0701C15.07 32.2301 14.71 32.83 14.87 33.42L16.55 39.8799Z" fill="#F3D2A2"/>
</g>
<mask id="mask2_104_5157" style="mask-type:luminance" maskUnits="userSpaceOnUse" x="0" y="0" width="41" height="41">
<path d="M40.1299 0.699951H0.129883V40.7H40.1299V0.699951Z" fill="white"/>
</mask>
<g mask="url(#mask2_104_5157)">
<path d="M20.56 4.04004C19.55 4.04004 18.62 4.3599 17.86 4.8999C16.28 4.9799 15.04 6.28011 15.04 7.86011C15.04 9.17011 15.0401 10.8199 16.7701 11.4399C17.6501 12.6599 19.06 13.3899 20.56 13.3899C23.14 13.3899 25.2401 11.3 25.2401 8.71997C25.2301 6.12997 23.14 4.04004 20.56 4.04004Z" fill="#FFE51E"/>
</g>
<mask id="mask3_104_5157" style="mask-type:luminance" maskUnits="userSpaceOnUse" x="0" y="0" width="41" height="41">
<path d="M40.1299 0.699951H0.129883V40.7H40.1299V0.699951Z" fill="white"/>
</mask>
<g mask="url(#mask3_104_5157)">
<path d="M21.2403 40.7V39.5901C21.2403 39.5901 21.2403 38.48 23.4603 38.48C25.6803 38.48 25.6803 39.5901 25.6803 39.5901V40.7H21.2403ZM14.5803 40.7V39.5901C14.5803 39.5901 14.5803 38.48 16.8003 38.48C19.0203 38.48 19.0203 39.5901 19.0203 39.5901V40.7H14.5803ZM21.2403 26.26H19.0203L15.6803 28.49L14.5703 34.05H17.9103L19.0203 30.72H21.2403L22.3503 34.05H25.6903L24.5803 28.49L21.2403 26.26Z" fill="#DD2E44"/>
</g>
<mask id="mask4_104_5157" style="mask-type:luminance" maskUnits="userSpaceOnUse" x="0" y="0" width="41" height="41">
<path d="M40.1299 0.699951H0.129883V40.7H40.1299V0.699951Z" fill="white"/>
</mask>
<g mask="url(#mask4_104_5157)">
<path d="M24.5795 16.26H15.6895V27.3701H24.5795V16.26Z" fill="#DD2E44"/>
</g>
<mask id="mask5_104_5157" style="mask-type:luminance" maskUnits="userSpaceOnUse" x="0" y="0" width="41" height="41">
<path d="M40.1299 0.699951H0.129883V40.7H40.1299V0.699951Z" fill="white"/>
</mask>
<g mask="url(#mask5_104_5157)">
<path d="M18.4297 14.5V16.79C18.4297 17.73 19.1897 18.49 20.1297 18.49C21.0697 18.49 21.8297 17.73 21.8297 16.79V14.5H18.4297Z" fill="#F3D2A2"/>
</g>
<mask id="mask6_104_5157" style="mask-type:luminance" maskUnits="userSpaceOnUse" x="0" y="0" width="41" height="41">
<path d="M40.1299 0.699951H0.129883V40.7H40.1299V0.699951Z" fill="white"/>
</mask>
<g mask="url(#mask6_104_5157)">
<path d="M24.3799 6.58008H15.8799V11.6799C15.8799 14.0299 17.7799 15.9299 20.1299 15.9299C22.4799 15.9299 24.3799 14.0299 24.3799 11.6799V6.58008Z" fill="#F3D2A2"/>
</g>
<mask id="mask7_104_5157" style="mask-type:luminance" maskUnits="userSpaceOnUse" x="0" y="0" width="41" height="41">
<path d="M40.1299 0.699951H0.129883V40.7H40.1299V0.699951Z" fill="white"/>
</mask>
<g mask="url(#mask7_104_5157)">
<path d="M18.3497 6.5H15.6797V10.0601C17.7497 10.0601 18.2097 7.91996 18.3197 6.95996C18.3497 7.91996 19.0497 10.0601 24.5797 10.0601V6.5H18.3497Z" fill="#FFE51E"/>
</g>
<mask id="mask8_104_5157" style="mask-type:luminance" maskUnits="userSpaceOnUse" x="0" y="0" width="41" height="41">
<path d="M40.1299 0.699951H0.129883V40.7H40.1299V0.699951Z" fill="white"/>
</mask>
<g mask="url(#mask8_104_5157)">
<path d="M21.8297 14.23H18.4297C18.4297 14.23 18.4297 15.0801 20.1297 15.0801C21.8297 15.0801 21.8297 14.23 21.8297 14.23Z" fill="#DF1F32"/>
</g>
<mask id="mask9_104_5157" style="mask-type:luminance" maskUnits="userSpaceOnUse" x="0" y="0" width="41" height="41">
<path d="M40.1299 0.699951H0.129883V40.7H40.1299V0.699951Z" fill="white"/>
</mask>
<g mask="url(#mask9_104_5157)">
<path d="M22.6801 11.26C22.6801 11.49 22.4901 11.6799 22.2501 11.6799C22.0201 11.6799 21.8301 11.49 21.8301 11.26C21.8301 11.03 22.0201 10.8301 22.2501 10.8301C22.4901 10.8301 22.6801 11.02 22.6801 11.26ZM18.4301 11.26C18.4401 11.49 18.2601 11.69 18.0301 11.71C17.8001 11.72 17.6001 11.5401 17.5801 11.3101C17.5801 11.2901 17.5801 11.28 17.5801 11.26C17.5801 11.03 17.7701 10.8301 18.0001 10.8301C18.2301 10.8301 18.4301 11.02 18.4301 11.26Z" fill="#662113"/>
</g>
<mask id="mask10_104_5157" style="mask-type:luminance" maskUnits="userSpaceOnUse" x="0" y="0" width="41" height="41">
<path d="M40.1299 0.699951H0.129883V40.7H40.1299V0.699951Z" fill="white"/>
</mask>
<g mask="url(#mask10_104_5157)">
<path d="M19.2803 12.53H20.9803C20.9803 12.53 20.9803 13.3799 20.1303 13.3799C19.2803 13.3799 19.2803 12.53 19.2803 12.53Z" fill="#C1694F"/>
</g>
<mask id="mask11_104_5157" style="mask-type:luminance" maskUnits="userSpaceOnUse" x="0" y="0" width="41" height="41">
<path d="M40.1299 0.699951H0.129883V40.7H40.1299V0.699951Z" fill="white"/>
</mask>
<g mask="url(#mask11_104_5157)">
<path d="M24.5795 26.26H15.6895V28.48H24.5795V26.26Z" fill="#662113"/>
</g>
<mask id="mask12_104_5157" style="mask-type:luminance" maskUnits="userSpaceOnUse" x="0" y="0" width="41" height="41">
<path d="M40.1299 0.699951H0.129883V40.7H40.1299V0.699951Z" fill="white"/>
</mask>
<g mask="url(#mask12_104_5157)">
<path d="M37.3602 4.59009C37.3602 4.89009 37.1102 5.13989 36.8002 5.13989H3.47015C3.16015 5.13989 2.91016 4.89009 2.91016 4.59009C2.91016 4.28009 3.16015 4.03003 3.47015 4.03003H36.8002C37.1102 4.04003 37.3602 4.29009 37.3602 4.59009Z" fill="#99AAB5"/>
</g>
<mask id="mask13_104_5157" style="mask-type:luminance" maskUnits="userSpaceOnUse" x="0" y="0" width="41" height="41">
<path d="M40.1299 0.699951H0.129883V40.7H40.1299V0.699951Z" fill="white"/>
</mask>
<g mask="url(#mask13_104_5157)">
<path d="M6.79973 0.699951C6.18973 0.699951 5.68973 1.20006 5.68973 1.81006C5.68973 1.20006 5.18973 0.699951 4.57973 0.699951C3.96973 0.699951 3.46973 1.20006 3.46973 1.81006V7.37012C3.46973 7.98012 3.96973 8.47998 4.57973 8.47998C5.18973 8.47998 5.68973 7.98012 5.68973 7.37012C5.68973 7.98012 6.18973 8.47998 6.79973 8.47998C7.40973 8.47998 7.90973 7.98012 7.90973 7.37012V1.81006C7.90973 1.20006 7.40973 0.699951 6.79973 0.699951ZM35.6897 0.699951C35.0797 0.699951 34.5797 1.20006 34.5797 1.81006C34.5797 1.20006 34.0797 0.699951 33.4697 0.699951C32.8597 0.699951 32.3597 1.20006 32.3597 1.81006V7.37012C32.3597 7.98012 32.8597 8.47998 33.4697 8.47998C34.0797 8.47998 34.5797 7.98012 34.5797 7.37012C34.5797 7.98012 35.0797 8.47998 35.6897 8.47998C36.2997 8.47998 36.7997 7.98012 36.7997 7.37012V1.81006C36.7997 1.20006 36.2997 0.699951 35.6897 0.699951Z" fill="#292F33"/>
</g>
</svg>
