<svg width="36" height="37" viewBox="0 0 36 37" fill="none" xmlns="http://www.w3.org/2000/svg">
<g clip-path="url(#clip0_131_248)">
<mask id="mask0_131_248" style="mask-type:luminance" maskUnits="userSpaceOnUse" x="2" y="0" width="34" height="37">
<path d="M2.80884 0.490723H35.9191V36.1628H2.80884V0.490723Z" fill="white"/>
</mask>
<g mask="url(#mask0_131_248)">
<path d="M3.45152 36.164H31.9536C34.1428 36.164 35.919 34.4001 35.919 32.1961V4.45595C35.919 2.26368 34.1428 0.49585 31.9536 0.49585H17.0423C17.0423 0.49585 12.2316 1.05657 12.5393 2.47006C12.886 4.09771 14.97 9.31165 15.0557 10.106C15.231 11.7103 10.3657 14.4633 10.5955 16.3479C11.324 22.2277 14.0663 24.5212 13.0808 27.5507C12.9561 27.9323 9.43084 28.2594 8.52713 28.7383C3.20222 31.5303 3.24507 36.164 3.45152 36.164Z" fill="#66757E"/>
</g>
<mask id="mask1_131_248" style="mask-type:luminance" maskUnits="userSpaceOnUse" x="5" y="0" width="31" height="37">
<path d="M5.80078 0.491943H35.9194V36.164H5.80078V0.491943Z" fill="white"/>
</mask>
<g mask="url(#mask1_131_248)">
<path d="M6.17799 36.1647H31.9533C34.1425 36.1647 35.9188 34.4008 35.9188 32.1969V4.45668C35.9188 2.26442 34.1425 0.496582 31.9533 0.496582H24.8483C24.8483 0.496582 15.9708 1.34545 16.0799 2.53309C16.2513 4.37491 19.687 10.1885 18.569 11.2749C17.4472 12.3613 14.1751 15.0325 14.0387 16.7575C13.8596 18.9887 18.2807 24.9815 15.9358 29.9462C15.1879 31.531 10.9225 30.8924 9.6643 31.7802C6.53246 34.0036 5.87415 36.1647 6.17799 36.1647Z" fill="#99AAB5"/>
</g>
<path d="M6.41565 30.0435C6.41565 30.0435 6.01054 30.3121 4.91206 30.7015C4.47578 30.8612 4.95101 32.5278 5.2159 32.7653C5.47299 33.0067 7.38169 33.3844 9.10732 32.8665C10.6849 32.3876 9.50854 31.9281 8.37111 31.6789C7.22978 31.4297 6.41565 30.0435 6.41565 30.0435Z" fill="#292E33"/>
<path d="M7.84938 14.6796C8.94786 15.1508 10.1476 15.6492 10.7008 15.4895C11.1098 15.3572 11.9239 15.1079 12.5666 15.1079C13.2132 15.1079 13.3184 15.4467 12.8899 16.1281C12.4575 16.794 11.5772 17.1522 10.876 16.942C10.171 16.7239 8.62065 16.6538 7.67019 16.6266C6.71973 16.5954 5.99131 13.893 7.84938 14.6796Z" fill="#664130"/>
<path d="M8.30931 14.9736C7.82629 14.7243 6.9849 14.5919 6.9849 14.5919L6.0656 12.3296L3.60376 13.9533C3.60376 13.9533 5.24369 15.8691 5.63712 16.2897C6.03444 16.7063 7.41338 16.7063 8.50797 16.6557C9.33378 16.6285 8.84297 15.2617 8.30931 14.9736ZM6.35386 26.4255C6.35386 26.4255 9.06889 24.572 9.26366 25.3586C9.46232 26.1568 7.03164 28.2401 6.44345 30.2026C6.20583 31.0009 4.78015 31.8575 4.76067 30.2844C4.7334 27.5703 6.35386 26.4255 6.35386 26.4255Z" fill="#664130"/>
<path d="M8.98652 25.767C8.98652 25.767 8.11787 27.5036 7.23363 27.3128C6.35718 27.1337 4.04726 24.3418 3.35 23.2749C2.65663 22.2196 2.94099 19.638 4.5108 20.884C6.08451 22.1301 8.98652 25.767 8.98652 25.767Z" fill="#664130"/>
<path d="M1.99097 22.2271L8.30139 23.037L5.15007 25.9067" fill="#2A6796"/>
<path d="M8.53161 22.4263C8.53161 22.4263 10.8805 24.5601 11.0947 25.4168C11.309 26.2773 11.0908 29.0459 11.7297 31.6081C12.3724 34.1703 10.6585 34.5986 10.4481 33.742C10.2378 32.8931 7.81877 29.7546 8.60562 27.8816C8.98736 26.9743 6.39697 24.7704 6.39697 24.7704" fill="#7B523D"/>
<mask id="mask2_131_248" style="mask-type:luminance" maskUnits="userSpaceOnUse" x="0" y="16" width="11" height="12">
<path d="M0.225342 16.1169H10.7856V27.0822H0.225342V16.1169Z" fill="white"/>
</mask>
<g mask="url(#mask2_131_248)">
<path d="M6.36439 19.5871C7.64596 20.4126 8.29647 21.6314 10.0649 23.6056L7.6888 26.125C7.6888 26.125 1.71338 23.8626 0.79798 20.8215C0.0150214 18.1892 2.2782 16.7173 2.2782 16.7173C2.2782 16.7173 5.14126 18.7889 6.36439 19.5871Z" fill="#357AAA"/>
</g>
<path d="M3.2688 8.01505L3.51042 10.3291L6.16047 9.90058L6.15267 7.89429L3.2688 8.01505Z" fill="#7B523D"/>
<path d="M2.77006 8.09316C3.71662 9.33142 5.18516 9.2185 6.57579 8.96929C7.90409 8.74344 7.65869 6.32922 7.01206 4.9352C6.35765 3.51782 4.20743 3.44773 3.08948 4.30439C1.96762 5.16494 1.82739 6.85879 2.77006 8.09316Z" fill="#7B523D"/>
<path d="M10.9886 8.25315C11.9235 7.03825 13.2908 5.82335 13.4661 5.03289C13.6764 4.08667 13.6297 3.10151 14.9541 2.31105C15.7877 1.81263 15.2267 3.17939 15.1099 5.00563C15.0359 6.04141 13.4583 9.07087 12.4961 10.0482C11.8768 10.6868 8.93969 11.5552 7.96586 13.6579C7.79836 14.0161 7.36598 14.6742 6.85569 15.4802C6.0143 16.8081 5.52739 17.9334 6.20517 19.4793C3.24473 19.6272 0.930908 18.3734 0.930908 18.3734C1.80736 16.0799 1.14126 14.0862 1.86579 12.2794C3.00322 9.4291 4.27309 9.32008 6.17791 9.69778C6.17791 9.69778 6.57523 8.96962 8.30086 9.16042C9.13056 8.83334 9.92131 8.55298 10.9886 8.25315Z" fill="#7B523D"/>
<path d="M6.39646 19.4588C3.43991 19.6184 0.818359 18.6411 0.818359 18.6411C1.04429 16.6941 1.14167 14.0852 1.8662 12.2784C2.02591 11.8813 2.18951 11.5542 2.3648 11.2738C2.37649 11.523 2.51282 11.7099 2.95689 11.6126C3.91903 11.4218 4.5306 10.3548 5.47716 9.73961C5.70309 9.72793 5.93681 9.71625 6.17832 9.69678C5.42263 10.2964 5.111 11.8501 5.54338 12.9677C5.98355 14.093 6.8639 14.3422 7.82604 13.9956C7.78709 14.0657 7.45209 14.9029 7.1132 15.7791C6.64186 17.0056 6.42373 18.4503 6.39646 19.4588Z" fill="#4288C1"/>
<path d="M11.8267 32.1875C11.8267 32.1875 11.4605 33.1843 10.2218 33.0519C9.94521 33.013 10.2997 34.2006 10.6074 34.5005C10.9152 34.7964 13.9808 36.2021 15.5233 35.3455C17.062 34.4888 15.8661 34.1383 14.6663 33.8113C13.4705 33.4608 11.8267 32.1875 11.8267 32.1875Z" fill="#292E33"/>
<path d="M5.24776 3.28061C3.26894 3.07034 1.98348 4.26576 1.82767 5.36385C1.59006 7.03822 2.969 8.30374 3.26894 8.95013C3.57277 9.61988 5.63729 8.62304 5.74247 6.99929C5.77753 6.43856 6.00735 5.81164 5.94113 5.36385C5.8788 4.96277 6.66566 4.92384 6.97728 4.78365C7.42135 4.58507 6.61502 3.42079 5.24776 3.28061Z" fill="#0A0200"/>
<path d="M29.6366 2.87964H24.97C24.191 2.87964 27.1631 6.01034 28.2343 6.01034C29.3133 6.01034 31.0428 2.87964 29.6366 2.87964ZM25.3401 9.03979H20.9228C20.1788 9.03979 23.3613 11.9602 24.3507 11.9602C25.3401 11.9602 26.6255 9.03979 25.3401 9.03979ZM27.1163 18.0737H18.0714C16.7937 18.0737 23.5638 23.1279 24.6818 23.1279C25.7958 23.1279 29.5587 18.0737 27.1163 18.0737ZM32.7801 29.2764H24.7792C22.9055 29.2764 28.0317 33.7739 29.847 33.7739C31.6622 33.7739 34.5954 29.2881 32.7801 29.2881" fill="#66757E"/>
<mask id="mask3_131_248" style="mask-type:luminance" maskUnits="userSpaceOnUse" x="0" y="18" width="7" height="3">
<path d="M0.226074 18.1128H6.79748V20.1065H0.226074V18.1128Z" fill="white"/>
</mask>
<g mask="url(#mask3_131_248)">
<path d="M6.39571 18.8265C6.38792 18.7798 5.24659 18.9472 3.60276 18.698C2.31731 18.5072 0.817609 18.1606 0.817609 18.1606L0.724121 18.807C0.724121 18.807 2.62504 19.2977 3.76637 19.4262C4.90769 19.5663 6.36454 19.5858 6.36454 19.5858C6.36454 19.5858 6.47751 19.2276 6.39571 18.8265Z" fill="#2A6796"/>
</g>
<path d="M5.86353 6.04842C5.60632 5.74066 4.93601 5.83026 4.95549 6.32112C4.97888 6.78861 5.14256 7.23661 5.69985 7.19766C6.26103 7.1587 6.09346 6.32112 5.86353 6.04842Z" fill="#7B523D"/>
</g>
<defs>
<clipPath id="clip0_131_248">
<rect width="36" height="37" fill="white"/>
</clipPath>
</defs>
</svg>
