<svg width="36" height="36" viewBox="0 0 36 36" fill="none" xmlns="http://www.w3.org/2000/svg">
<mask id="mask0_140_154" style="mask-type:luminance" maskUnits="userSpaceOnUse" x="0" y="0" width="23" height="24">
<path d="M0.150635 0.176758H22.5721V23.0379H0.150635V0.176758Z" fill="white"/>
</mask>
<g mask="url(#mask0_140_154)">
<path d="M21.9605 4.72415C21.9605 10.7363 18.3223 22.897 11.0536 22.897C3.78497 22.897 0.150635 10.7363 0.150635 4.72415C0.150635 -2.3939 8.32691 1.08725 11.0536 1.08725C13.7453 1.08725 21.9605 -2.44063 21.9605 4.72415Z" fill="#A6D287"/>
</g>
<path d="M5.59953 11.9939C10.1454 14.7118 12.8721 14.7118 16.5064 11.9939C19.2332 10.1676 14.6912 18.3526 11.053 18.3526C7.41864 18.3526 2.8728 10.1676 5.59953 11.9939ZM3.78041 8.35307C3.28181 8.35307 2.8728 7.94421 2.8728 7.44579C2.8728 7.29782 2.90786 7.16543 2.97019 7.03693C3.60123 5.77141 4.88279 4.91475 6.24615 4.82519C7.07975 4.77457 8.68073 4.97316 9.98955 6.93958C10.2895 7.34844 10.196 7.91306 9.79089 8.21289C9.38578 8.50493 8.81317 8.41148 8.52102 8.0143C8.50933 7.98315 8.49375 7.96368 8.48206 7.94421C7.87439 7.04861 7.13428 6.58913 6.35911 6.63975C5.63458 6.67869 4.94511 7.15764 4.59453 7.85465C4.44262 8.16227 4.1271 8.35307 3.78041 8.35307ZM18.3216 8.35307C17.9828 8.35307 17.6672 8.16227 17.5153 7.85465C17.1647 7.15764 16.4753 6.67869 15.7507 6.63975C14.9795 6.60081 14.2355 7.04861 13.6278 7.94421C13.3317 8.35307 12.7669 8.44263 12.3579 8.1428C11.9762 7.87412 11.871 7.34844 12.1164 6.93958C13.4252 4.97316 15.0223 4.77457 15.8637 4.82519C17.2232 4.91475 18.5086 5.77141 19.1358 7.03693C19.3617 7.48473 19.1825 8.03377 18.7307 8.26351C18.606 8.32192 18.4658 8.35307 18.3216 8.35307Z" fill="#5C913A"/>
<mask id="mask1_140_154" style="mask-type:luminance" maskUnits="userSpaceOnUse" x="13" y="13" width="23" height="23">
<path d="M13.5967 13.0688H35.8429V35.856H13.5967V13.0688Z" fill="white"/>
</mask>
<g mask="url(#mask1_140_154)">
<path d="M35.8416 17.6817C35.8416 23.7056 32.2034 35.8546 24.9347 35.8546C17.6622 35.8546 14.0278 23.7056 14.0278 17.6817C14.0278 10.5636 22.208 14.0448 24.9347 14.0448C27.6264 14.0448 35.8416 10.5247 35.8416 17.6817Z" fill="#CAB7EA"/>
</g>
<path d="M29.3992 30.054C25.9246 27.9202 23.9418 27.9202 20.4711 30.054C17.7444 31.8803 21.2969 25.6773 24.9352 25.6773C28.5695 25.6773 32.122 31.8803 29.3992 30.054ZM17.0004 21.8924C16.4979 21.8924 16.0928 21.4913 16.0928 20.9851C16.0967 20.8449 16.1278 20.7047 16.1863 20.584C16.8835 19.19 18.5702 18.1114 20.2023 18.0141C21.6865 17.9128 22.9953 18.5904 23.8717 19.9065C24.1288 20.3348 23.9886 20.8955 23.5562 21.1525C23.155 21.394 22.6408 21.281 22.3603 20.915C21.8423 20.1362 21.1567 19.778 20.3192 19.8286C19.209 19.8987 18.1729 20.6736 17.8145 21.394C17.6626 21.7016 17.3471 21.8924 17.0004 21.8924ZM32.8699 21.8924C32.5232 21.8924 32.2077 21.7016 32.0519 21.394C31.6974 20.6736 30.6613 19.8987 29.5511 19.8286C28.7175 19.778 28.0241 20.1362 27.51 20.915C27.2139 21.3239 26.6452 21.4134 26.2362 21.1136C25.8544 20.8332 25.7493 20.3076 25.9947 19.9065C26.8711 18.5904 28.1644 17.9128 29.6641 18.0141C31.3001 18.1114 32.9868 19.19 33.6801 20.584C33.9022 21.0318 33.723 21.5809 33.2711 21.8028C33.1465 21.869 33.0102 21.8924 32.8699 21.8924Z" fill="#9266CC"/>
</svg>
