<svg width="41" height="37" viewBox="0 0 41 37" fill="none" xmlns="http://www.w3.org/2000/svg">
<path fill-rule="evenodd" clip-rule="evenodd" d="M0.320312 36.3401L11.2303 20.22L12.9803 19.79L18.0603 26.5701L18.7803 26.1799L17.1803 21.5601L23.5803 10.78V7.3501L20.7303 6.57007L20.3403 8.52002L11.9503 5.61011L18.9603 4.25L19.4303 2.47998L23.5303 2.01001V0.0600586L25.9503 0.370117L25.7203 10.6699L40.5903 36.8L0.320312 36.3401ZM12.1803 22.6299L8.76031 27.3201L12.4403 26.24L15.5703 27.02L12.1803 22.6299ZM24.7503 13.21L21.0303 19.21L23.7703 19.99L25.7203 18.4299L28.3003 19.21L24.7503 13.21Z" fill="black"/>
</svg>
