<svg width="40" height="50" viewBox="0 0 40 50" fill="none" xmlns="http://www.w3.org/2000/svg">
<path d="M18.0468 10.9279C17.6734 10.5439 17.3081 10.1759 16.9508 9.82389C16.5934 9.46655 16.2601 9.13589 15.9508 8.83189L13.8468 6.72789C13.5374 6.41855 13.2068 6.08789 12.8548 5.73589C12.5081 5.37855 12.1454 5.01322 11.7668 4.63989L13.0308 3.37589C13.4094 3.74922 13.7748 4.11455 14.1268 4.47189C14.4788 4.82389 14.8094 5.15455 15.1188 5.46389L17.2228 7.56789C17.5321 7.87722 17.8628 8.20789 18.2148 8.55989C18.5721 8.91189 18.9374 9.27722 19.3108 9.65589L18.0468 10.9279ZM13.0308 10.9279L11.7668 9.65589C12.0174 9.41055 12.2628 9.16789 12.5028 8.92789C12.7428 8.68255 12.9748 8.44789 13.1988 8.22389C13.4281 7.99455 13.6468 7.77589 13.8548 7.56789L15.9588 5.46389C16.2734 5.14922 16.6068 4.81589 16.9588 4.46389C17.3108 4.11189 17.6734 3.74922 18.0468 3.37589L19.3108 4.63989C18.9374 5.01322 18.5748 5.37855 18.2228 5.73589C17.8708 6.08789 17.5374 6.41855 17.2228 6.72789L15.1188 8.83189C14.8148 9.13589 14.4841 9.46655 14.1268 9.82389C13.7748 10.1812 13.4094 10.5492 13.0308 10.9279ZM20.8655 11.9839V10.5519C21.1695 10.2906 21.4735 10.0319 21.7775 9.77589C22.0815 9.51455 22.3828 9.25322 22.6815 8.99189C23.3962 8.38389 24.0068 7.81589 24.5135 7.28789C25.0255 6.75989 25.4175 6.25055 25.6895 5.75989C25.9615 5.26922 26.0975 4.77855 26.0975 4.28789C26.0975 3.71189 25.9375 3.27989 25.6175 2.99189C25.3028 2.70389 24.8255 2.55989 24.1855 2.55989C23.9295 2.55989 23.6682 2.58655 23.4015 2.63989C23.1348 2.69322 22.8655 2.77055 22.5935 2.87189C22.3268 2.96789 22.0575 3.08789 21.7855 3.23189C21.5188 3.37055 21.2575 3.52522 21.0015 3.69589L20.8095 1.67989C21.0495 1.55722 21.3162 1.44255 21.6095 1.33589C21.9028 1.22389 22.2122 1.12522 22.5375 1.03989C22.8682 0.954553 23.2042 0.887886 23.5455 0.839887C23.8922 0.791886 24.2388 0.767886 24.5855 0.767886C25.3748 0.767886 26.0415 0.898553 26.5855 1.15989C27.1348 1.42122 27.5508 1.79455 27.8335 2.27989C28.1162 2.76522 28.2575 3.34389 28.2575 4.01589C28.2575 4.59722 28.1322 5.17322 27.8815 5.74389C27.6362 6.31455 27.2628 6.89055 26.7615 7.47189C26.2602 8.05322 25.6335 8.64789 24.8815 9.25589L23.2335 10.5919L22.9615 10.1759H25.0255C25.5908 10.1759 26.1562 10.1759 26.7215 10.1759C27.2868 10.1759 27.8522 10.1759 28.4175 10.1759V11.9839H20.8655Z" fill="#1B1C20"/>
<path fill-rule="evenodd" clip-rule="evenodd" d="M0.25 18.2V48.4099C0.25 49.0799 0.790007 49.6201 1.46001 49.6201C2.13001 49.6201 2.67 49.0799 2.67 48.4099V18.2C2.67 17.53 2.13001 16.99 1.46001 16.99C0.790007 16.99 0.25 17.53 0.25 18.2Z" fill="black"/>
<path fill-rule="evenodd" clip-rule="evenodd" d="M37.4199 18.2V48.4099C37.4199 49.0799 37.9599 49.6201 38.6299 49.6201C39.2999 49.6201 39.8399 49.0799 39.8399 48.4099V18.2C39.8399 17.53 39.2999 16.99 38.6299 16.99C37.9599 16.99 37.4199 17.53 37.4199 18.2Z" fill="black"/>
<path fill-rule="evenodd" clip-rule="evenodd" d="M1.45996 37.8999H38.64V43.5601H1.45996V37.8999Z" fill="black"/>
<path fill-rule="evenodd" clip-rule="evenodd" d="M1.45996 23.25H38.64V28.9099H1.45996V23.25Z" fill="black"/>
<path fill-rule="evenodd" clip-rule="evenodd" d="M10.35 37.0901C10.35 34.8601 8.53995 33.05 6.30995 33.05H1.45996V37.0901H10.35Z" fill="black"/>
<path fill-rule="evenodd" clip-rule="evenodd" d="M10.35 22.4399C10.35 20.2099 8.53995 18.3999 6.30995 18.3999H1.45996V22.4399H10.35Z" fill="black"/>
</svg>
