<svg width="38" height="37" viewBox="0 0 38 37" fill="none" xmlns="http://www.w3.org/2000/svg">
<path d="M36.9758 18.255C36.9758 28.1104 28.9865 36.0968 19.1313 36.0968C9.27226 36.0968 1.28296 28.1104 1.28296 18.255C1.28296 8.4034 9.27226 0.420898 19.1313 0.420898C28.9865 0.420898 36.9758 8.4034 36.9758 18.255Z" fill="#F5F8F9"/>
<path d="M19.132 11.315C18.5828 11.315 18.1387 10.875 18.1387 10.3259V3.39088C18.1387 2.84184 18.5828 2.39404 19.132 2.39404C19.6773 2.39404 20.1214 2.84184 20.1214 3.39088V10.3259C20.1214 10.875 19.6773 11.315 19.132 11.315ZM12.6034 15.7813C12.5022 15.7813 12.4009 15.7696 12.3074 15.7307L4.32978 13.2191C3.8117 13.04 3.53124 12.4793 3.70653 11.9614C3.87792 11.4552 4.41548 11.1748 4.92966 11.3228L12.9034 13.846C13.4254 13.994 13.7214 14.5547 13.5617 15.0804C13.437 15.5009 13.0436 15.7891 12.6034 15.7813ZM26.1163 15.4892C25.5671 15.4892 25.123 15.0414 25.123 14.4924C25.1269 14.0563 25.419 13.6669 25.8358 13.5462L32.5319 11.6031C33.0539 11.4552 33.607 11.7511 33.755 12.2807C33.9108 12.7986 33.6109 13.3593 33.0811 13.5072L26.389 15.4503C26.2994 15.4815 26.2059 15.4892 26.1163 15.4892ZM28.099 30.3133C27.7835 30.3133 27.4836 30.1732 27.3044 29.9162L21.886 22.6462C21.551 22.2179 21.6328 21.591 22.0652 21.2522C22.4937 20.9251 23.1169 21.003 23.4558 21.4313C23.4636 21.4508 23.4753 21.4508 23.4792 21.4703L28.8898 28.7285C29.2209 29.1763 29.1274 29.7954 28.6872 30.1147C28.5197 30.2432 28.3094 30.3133 28.099 30.3133ZM9.95852 30.2355C9.40928 30.2355 8.96911 29.7838 8.96911 29.2386C8.973 29.0361 9.03143 28.8492 9.14829 28.6779L14.2278 21.3613C14.5394 20.9135 15.1588 20.8044 15.6028 21.112C16.0547 21.4313 16.1677 22.0505 15.856 22.4983L10.7765 29.8071C10.5896 30.0758 10.2857 30.2355 9.95852 30.2355Z" fill="#CCD5DD"/>
<mask id="mask0_129_117" style="mask-type:luminance" maskUnits="userSpaceOnUse" x="1" y="1" width="36" height="34">
<path d="M1.35718 1.38672H36.2593V34.2824H1.35718V1.38672Z" fill="white"/>
</mask>
<g mask="url(#mask0_129_117)">
<mask id="mask1_129_117" style="mask-type:luminance" maskUnits="userSpaceOnUse" x="1" y="0" width="36" height="37">
<path d="M1.28345 18.2628C1.28345 28.1104 9.27275 36.0968 19.1318 36.0968C28.987 36.0968 36.9763 28.1104 36.9763 18.2628C36.9763 8.4034 28.987 0.420898 19.1318 0.420898C9.27275 0.420898 1.28345 8.4034 1.28345 18.2628Z" fill="white"/>
</mask>
<g mask="url(#mask1_129_117)">
<path d="M4.75032 27.2462C4.31405 27.2462 3.91672 26.9542 3.79597 26.5064L1.63407 18.5122C1.47825 17.9826 1.78599 17.4453 2.31185 17.2973C2.84162 17.1376 3.38696 17.4453 3.53498 17.9748C3.53888 17.9826 3.53888 17.9826 3.54667 17.9943L5.70857 25.9885C5.8488 26.518 5.54107 27.0671 5.01131 27.2034C4.92951 27.2267 4.83992 27.2462 4.75032 27.2462ZM23.0934 34.1112H14.1731C13.6278 34.1112 13.1837 33.675 13.1837 33.126C13.1837 32.577 13.6278 32.1292 14.1731 32.1292H23.0934C23.6465 32.1292 24.0867 32.577 24.0867 33.126C24.0867 33.675 23.6465 34.1112 23.0934 34.1112ZM33.1355 27.3046C32.5902 27.3046 32.1422 26.8568 32.1422 26.3195C32.1422 26.2299 32.1539 26.1481 32.1773 26.078L34.2769 17.527C34.4132 16.9975 34.9546 16.6665 35.4844 16.8067C36.0142 16.939 36.3336 17.4647 36.205 18.006L34.1016 26.5453C33.9925 26.9853 33.5952 27.3046 33.1355 27.3046ZM31.3359 8.03758C31.1645 8.03758 30.9931 7.98696 30.8412 7.8974L23.3427 3.57127C22.8714 3.29091 22.7039 2.68346 22.9804 2.2123C23.257 1.73724 23.8647 1.57759 24.336 1.85406L31.8345 6.18019C32.3097 6.46055 32.4733 7.068 32.2006 7.53916C32.0176 7.84678 31.6904 8.03758 31.3359 8.03758ZM6.74083 8.03758C6.19159 8.03758 5.74363 7.59757 5.74363 7.04853C5.73973 6.72923 5.89944 6.42161 6.16043 6.24249L12.2956 1.83459C12.7396 1.51529 13.3551 1.62432 13.6784 2.07601C14.0017 2.51213 13.8965 3.13126 13.4486 3.45056L7.31734 7.85457C7.14595 7.97528 6.94339 8.03758 6.74083 8.03758Z" fill="#CCD5DD"/>
</g>
</g>
<mask id="mask2_129_117" style="mask-type:luminance" maskUnits="userSpaceOnUse" x="0" y="0" width="38" height="37">
<path d="M0.360474 0.391602H37.257V36.2778H0.360474V0.391602Z" fill="white"/>
</mask>
<g mask="url(#mask2_129_117)">
<mask id="mask3_129_117" style="mask-type:luminance" maskUnits="userSpaceOnUse" x="1" y="0" width="36" height="37">
<path d="M1.28389 18.2647C1.28389 28.1124 9.27319 36.0988 19.1322 36.0988C28.9874 36.0988 36.9767 28.1124 36.9767 18.2647C36.9767 8.40535 28.9874 0.422852 19.1322 0.422852C9.27319 0.422852 1.28389 8.40535 1.28389 18.2647Z" fill="white"/>
</mask>
<g mask="url(#mask3_129_117)">
<path d="M26.5568 13.8115L19.4128 8.77669C19.07 8.53916 18.6064 8.53916 18.2636 8.78837L11.1586 13.9011C10.8158 14.1503 10.6678 14.5786 10.7846 14.9875L13.2621 23.4918C13.3906 23.9201 13.7723 24.2082 14.2164 24.2082H23.0977C23.5223 24.2082 23.9002 23.9395 24.0404 23.5307L26.9307 14.9368C27.0671 14.528 26.919 14.0685 26.5568 13.8115ZM7.99948 5.74723C7.8164 5.50581 7.53593 5.37731 7.23599 5.37731H4.25997C4.04183 5.37731 3.83148 5.4474 3.66398 5.5759L-0.297558 8.54695C-0.55465 8.73775 -0.698776 9.0259 -0.698776 9.33352V16.8604C-0.698776 17.1486 -0.574126 17.4173 -0.352093 17.6081L1.92277 19.5511C2.33957 19.9016 2.96672 19.8626 3.32119 19.4421C3.36015 19.3915 3.3991 19.3331 3.42637 19.2824L6.77245 13.3403C6.82309 13.243 6.86204 13.1534 6.88152 13.0522L8.20203 6.56495C8.26436 6.27291 8.18645 5.97697 7.99948 5.74723ZM24.8195 -0.724439C24.7377 -1.09047 24.391 -1.33968 24.0131 -1.31242L13.8113 -0.284427C13.5191 -0.245489 13.2971 -0.105308 13.1997 0.175053C13.1179 0.342492 12.3505 1.75987 11.8247 2.70609C11.6299 3.06433 11.7585 3.51213 12.1207 3.71072C12.1947 3.75355 12.2765 3.78081 12.3583 3.80417L18.6804 4.82827C18.7584 4.84774 18.8402 4.84774 18.922 4.82827L24.9558 3.84311C25.3531 3.77302 25.6336 3.39531 25.5674 2.98645C25.5674 2.97477 25.5635 2.96309 25.5635 2.9553L24.8195 -0.724439ZM38.6634 16.9111L34.6123 6.67398C34.5071 6.4053 34.2539 6.2145 33.9696 6.20282L30.6625 5.99644C30.4365 5.97697 30.2106 6.07432 30.0587 6.24565C29.9068 6.41309 29.8444 6.64283 29.8834 6.86089L31.0442 13.0016C31.0598 13.0833 31.087 13.1612 31.1338 13.2313C32.6101 15.7156 34.2578 18.4842 34.4838 18.9554C34.511 19.0449 34.55 19.0449 34.6006 19.115C34.737 19.3019 34.9668 19.2552 35.2083 19.2552H35.2122C35.4576 19.2552 35.5861 19.4032 38.3674 17.647C38.6673 17.4601 38.792 17.2381 38.6634 16.9111ZM15.5135 32.9617L11.0534 28.0048C10.9911 27.9464 10.921 27.8841 10.8392 27.8451C5.00397 24.804 4.8988 24.7651 4.82868 24.7378C4.74688 24.7144 4.66898 24.7066 4.58717 24.7066C3.91328 24.7066 3.83927 24.7962 2.95893 28.6239C2.94724 28.6745 2.93945 28.7252 2.93945 28.7719L2.85376 32.8605C2.84986 33.1408 2.99009 33.3901 3.22381 33.5263L10.4925 37.7357C10.7729 37.8953 11.1196 37.8642 11.3611 37.6461L15.4512 34.017C15.5992 33.8885 15.6888 33.6977 15.7005 33.4991C15.7083 33.3005 15.646 33.1097 15.5135 32.9617ZM34.9863 28.6122L33.7904 25.4348C33.6463 25.0454 33.2217 24.8546 32.836 24.9948C32.8244 25.0065 32.8088 25.0065 32.7971 25.0143L26.7632 27.6582C26.6581 27.705 26.5685 27.775 26.4945 27.8568L22.2797 32.8994C22.0187 33.2187 22.0616 33.6782 22.3732 33.9469L22.3771 33.9586C27.1294 37.833 27.2307 37.833 27.5618 37.833C27.8383 37.833 27.9396 37.833 33.993 33.9975C34.1721 33.8885 34.2968 33.7094 34.3279 33.4874L35.033 28.9938C35.0486 28.8614 35.0369 28.7329 34.9863 28.6122Z" fill="#292E33"/>
</g>
</g>
</svg>
