<svg width="36" height="36" viewBox="0 0 36 36" fill="none" xmlns="http://www.w3.org/2000/svg">
<mask id="mask0_131_181" style="mask-type:luminance" maskUnits="userSpaceOnUse" x="0" y="0" width="36" height="36">
<path d="M0 0H35.7318V35.7266H0V0Z" fill="white"/>
</mask>
<g mask="url(#mask0_131_181)">
<mask id="mask1_131_181" style="mask-type:luminance" maskUnits="userSpaceOnUse" x="-159" y="-2470" width="1198" height="4430">
<path d="M1038.36 -2469.21H-158.282V1959.31H1038.36V-2469.21Z" fill="black"/>
</mask>
<g mask="url(#mask1_131_181)">
<mask id="mask2_131_181" style="mask-type:luminance" maskUnits="userSpaceOnUse" x="-1" y="-1" width="38" height="37">
<path d="M36.1719 -0.0356445H-0.724548V35.8506H36.1719V-0.0356445Z" fill="white"/>
</mask>
<g mask="url(#mask2_131_181)">
<path d="M30.1271 28.75C30.4933 29.151 30.4738 29.7585 30.0804 30.1284C29.7025 30.475 29.126 30.475 28.7521 30.1284L15.3716 16.7373C15.0016 16.3595 15.0211 15.7404 15.4067 15.3744C15.7806 15.0162 16.3688 15.0162 16.7428 15.3744" fill="#54ACED"/>
<mask id="mask3_131_181" style="mask-type:luminance" maskUnits="userSpaceOnUse" x="26" y="26" width="10" height="10">
<path d="M26.2002 26.8765H35.6931V35.6884H26.2002V26.8765Z" fill="white"/>
</mask>
<g mask="url(#mask3_131_181)">
<path d="M35.257 33.1561C35.8608 33.713 35.8919 34.6514 35.3349 35.2588C34.774 35.8585 33.8313 35.8858 33.2314 35.3289C33.2081 35.3095 33.1847 35.2783 33.1535 35.2588L27.5482 29.6477C26.9678 29.0675 26.9678 28.1213 27.5482 27.545C28.1286 26.9648 29.0712 26.9648 29.6516 27.545" fill="#292E33"/>
</g>
<path d="M15.0486 16.3806L14.3475 17.0815L2.4278 5.16612L3.12895 4.46133L15.0486 16.3806ZM4.53127 1.65771L3.83011 2.35472L16.4548 14.9749L17.156 14.2779" fill="#99AAB5"/>
<path d="M10.14 1.65648L1.73003 10.0712L1.02887 9.3742L9.44276 0.959473L10.14 1.65648ZM12.9486 3.06218L2.42729 13.5679L1.73003 12.8709L12.2435 2.35349L12.9486 3.06218ZM15.7493 4.46009L4.53076 15.6745L3.82571 14.9736L15.0481 3.75919L15.7493 4.46009ZM17.1555 7.2676L7.33929 17.0802L6.63424 16.3793L16.4543 6.5628L17.1555 7.2676ZM18.55 10.0712L10.14 18.4743L9.44276 17.7772L17.8528 9.3742L18.55 10.0712Z" fill="#99AAB5"/>
<path d="M12.2474 17.7772L11.5423 18.4743L1.02887 7.9685L1.73003 7.2676L12.2474 17.7772ZM8.03655 0.959473L7.33539 1.65648L17.8528 12.1739L18.55 11.4652" fill="#99AAB5"/>
<mask id="mask4_131_181" style="mask-type:luminance" maskUnits="userSpaceOnUse" x="0" y="0" width="20" height="19">
<path d="M6.10352e-05 0.0112305H19.2196V18.9045H6.10352e-05V0.0112305Z" fill="white"/>
</mask>
<g mask="url(#mask4_131_181)">
<path d="M15.1838 15.1842C12.4688 17.8944 7.71257 17.5284 4.54957 14.3665C1.38657 11.2086 1.02431 6.4541 3.73156 3.74005C6.44659 1.02989 11.2067 1.39981 14.3658 4.55777C17.5288 7.71962 17.8949 12.4819 15.1838 15.1959M2.45 2.45506C-0.993468 5.89338 -0.646785 11.8238 3.22516 15.6943C7.09711 19.5727 13.0258 19.9192 16.4693 16.4809C19.9127 13.0309 19.5621 7.11217 15.6902 3.23384C11.8182 -0.636698 5.88956 -0.983255 2.45 2.45506Z" fill="#54ACED"/>
</g>
<path d="M17.1569 14.279C17.5388 14.6686 17.5388 15.2958 17.1569 15.6776L15.7501 17.0839C15.3643 17.4696 14.7368 17.4696 14.3471 17.0839C13.9613 16.6943 13.9613 16.0632 14.3471 15.6776L15.7501 14.279C16.1398 13.8894 16.7633 13.8894 17.153 14.279" fill="#216699"/>
<path d="M17.8527 16.3802C18.2384 16.7618 18.2384 17.3965 17.8527 17.7781C17.4671 18.1675 16.836 18.1675 16.4543 17.7781L15.7492 17.0811C15.3636 16.6917 15.3636 16.0609 15.7492 15.6754C16.1388 15.2938 16.7659 15.2938 17.1555 15.6754L17.8527 16.3802ZM29.3089 27.2052C29.8932 27.7854 29.1881 28.0229 28.6077 28.6031C28.0312 29.1911 27.7858 29.8881 27.2132 29.3118C26.6094 28.7511 26.586 27.8049 27.147 27.2052C27.7157 26.6094 28.6544 26.59 29.2543 27.1468C29.2699 27.1663 29.2894 27.1857 29.3089 27.2052Z" fill="#216699"/>
<path d="M21.6232 3.1647C20.8516 3.93995 20.8516 5.19826 21.6232 5.97741L22.3286 6.67474L23.0262 5.97741L24.4292 4.57106L25.1345 3.86203L24.4292 3.1647C23.6536 2.39725 22.3987 2.39725 21.6271 3.1647" fill="#BD1830"/>
<path d="M25.8354 4.56888L23.0256 7.3699L22.328 6.67257L25.1339 3.85986L25.8354 4.56888Z" fill="#99AAB5"/>
<path d="M23.0259 7.36759L25.8345 4.56787C27.2913 5.05461 34.8794 9.59101 34.6223 9.8519C33.8666 10.6073 32.7253 10.0505 32.7253 10.0505C32.7253 10.0505 33.5628 10.8487 32.8421 11.5652C32.1215 12.2934 31.323 11.4562 31.323 11.4562C31.323 11.4562 32.2851 12.1843 31.471 12.9982C30.6491 13.8159 29.9168 12.8619 29.9168 12.8619C29.9168 12.8619 30.6452 13.8276 30.018 14.4545C29.3909 15.0853 28.5183 14.2559 28.5183 14.2559C28.5183 14.2559 28.9312 15.2411 28.1756 16.0004C27.8172 16.3586 23.6102 8.73435 23.0259 7.36759Z" fill="#E0E8EC"/>
<path d="M26.1926 7.76675C26.7613 7.08921 31.5759 11.4582 30.7306 12.3031C29.8853 13.152 25.5031 8.57668 26.1926 7.76675ZM27.8792 15.1457C28.557 14.7057 24.8331 9.38272 24.3773 9.76043C24.3423 9.79158 24.3306 9.8422 24.3228 9.89282C25.1993 11.5049 26.3133 13.4596 27.1236 14.7174C27.4547 15.0561 27.7351 15.243 27.8792 15.1457ZM28.148 5.99502C27.7624 6.46229 33.0951 10.1693 33.5352 9.50343C33.6443 9.32431 33.3639 8.96607 32.8847 8.53774C31.4863 7.64993 30.0723 6.80106 28.631 5.99502C28.3934 5.92493 28.2181 5.91325 28.148 5.99502ZM25.1876 8.82589C25.6083 8.40535 29.7879 13.3818 29.1569 13.8802C28.522 14.3669 24.6773 9.34378 25.1876 8.82589ZM27.2131 6.81274C26.7847 7.22939 31.7629 11.4075 32.2576 10.7689C32.7562 10.142 27.7273 6.29485 27.2131 6.81274Z" fill="#CCD5DD"/>
</g>
</g>
</g>
</svg>
