<svg width="49" height="41" viewBox="0 0 49 41" fill="none" xmlns="http://www.w3.org/2000/svg">
<path fill-rule="evenodd" clip-rule="evenodd" d="M11.88 16.8654L9.46102 17.3249L8.45992 14.6225L16.7531 11.8423C19.359 18.8902 13.294 19.2757 11.88 16.8654ZM38.7227 28.6094L26.9354 27.6204L29.6777 33.4729L34.2625 34.5476L38.7227 28.6094ZM42.3064 24.9102L43.7087 23.3566L40.5223 18.5515L39.3186 18.4814L35.0182 22.5856L36.3582 24.0419L39.3966 22.8971L42.3064 24.9102ZM28.9298 17.1458L27.7223 17.0835L23.418 21.1799L24.7385 22.5661L27.8002 21.5108L30.858 22.9944L32.1201 21.9703L28.9298 17.1458ZM27.8664 4.9929C23.305 7.20464 10.54 8.32219 4.45164 7.8043C5.9825 20.0935 10.1972 28.0915 19.4681 31.4208C20.2666 30.8523 21.0301 30.2332 21.7547 29.5634C21.1587 27.819 20.738 26.0278 20.5004 24.1937C18.4631 24.2327 16.4609 24.7311 14.6379 25.6384L13.0097 23.1151C15.1131 21.6121 17.6022 20.7048 20.1965 20.514C20.0797 16.7447 20.29 12.9793 20.8237 9.24115C23.2855 9.98878 25.798 10.5651 28.3455 10.9428C28.2871 9.10097 28.1313 7.11508 27.8664 4.9929ZM30.336 39.9524C27.286 38.2663 24.7891 35.747 23.1453 32.7058C22.4169 33.2743 21.6456 33.7805 20.8393 34.2283L18.7591 34.4114C7.49388 31.2807 2.70653 20.6347 0.614746 3.99606C8.54172 5.54194 23.5621 3.84809 30.4607 0.366943C30.9398 4.01553 31.1891 7.68359 31.2008 11.3633C37.5891 12.181 44.5462 12.3796 48.8115 11.5814C46.9418 26.6235 42.6258 37.4486 32.2681 40.2405" fill="black"/>
</svg>
