<svg width="29" height="33" viewBox="0 0 29 33" fill="none" xmlns="http://www.w3.org/2000/svg">
<path fill-rule="evenodd" clip-rule="evenodd" d="M26.4882 23.0369C28.6501 27.5344 23.4147 30.5054 23.4147 30.5054L18.3119 22.4801L23.294 16.5068C24.3691 18.6796 25.5416 21.0939 26.4882 23.0486V23.0369ZM13.0805 24.3647C13.618 25.6108 14.0504 26.8841 14.3737 28.2002C15.3164 32.0396 11.7911 32.8573 11.7911 32.8573L7.86073 26.335L0.966014 24.392C0.966014 24.392 1.57758 20.685 4.66267 20.8135C5.92086 20.8758 7.31539 21.0043 8.52294 21.1445C9.42275 19.7894 10.5952 18.0021 11.8534 16.1486L0.338867 12.2002C0.338867 12.2002 1.03613 6.53065 7.00376 7.81564C9.51235 8.36468 13.3687 9.1201 16.2902 9.68861C17.2835 8.29459 18.1716 7.07969 18.8533 6.23082C21.6735 2.74188 26.1142 -0.0188959 27.6684 1.22715C29.2266 2.4732 27.9528 7.57811 25.1209 11.1138C23.0681 13.7071 16.485 20.7551 13.0805 24.3647Z" fill="black"/>
</svg>
