<svg width="20" height="17" viewBox="0 0 20 17" fill="none" xmlns="http://www.w3.org/2000/svg">
<path d="M10.7557 2.58975C11.5893 2.3678 11.8542 2.04071 11.8542 2.04071L12.1151 2.11859C12.0255 2.38727 11.9632 2.64816 11.9632 2.93631C11.9632 4.24466 13.0111 5.29991 14.3277 5.29991C15.6404 5.29991 16.6921 4.24466 16.6921 2.93631C16.6921 2.64816 16.6454 2.3678 16.5363 2.11859L16.5597 2.14974L16.8441 2.06018C16.8441 2.06018 17.105 2.38727 17.9386 2.60922C18.7683 2.82728 19.4695 2.4301 19.4695 2.4301C19.4695 2.4301 18.5736 1.33202 17.8062 1.05166C17.0388 0.763512 16.4039 1.58123 16.4039 1.58123L16.2948 1.62017C15.8819 0.981572 15.1379 0.545454 14.3277 0.545454C13.5175 0.545454 12.7929 0.962102 12.3567 1.6007L12.271 1.55008C12.271 1.55008 11.6321 0.744043 10.8686 1.03219C10.1013 1.31255 9.22481 2.41063 9.22481 2.41063C9.22481 2.41063 9.92597 2.80781 10.7557 2.58975ZM5.72292 5.05849C7.03564 5.05849 8.08738 4.00324 8.08738 2.69878C8.08738 1.38264 7.03564 0.304032 5.72292 0.323502C4.4102 0.323502 3.35846 1.38264 3.35846 2.69878C3.35846 3.98377 4.4102 5.05849 5.72292 5.05849ZM16.8207 7.97113L18.1334 13.5939L16.8207 13.6134V16.9427H14.8497L14.9159 13.5939H13.8447V16.9427H11.9165V13.5939H10.296L11.9165 8.02954L9.92597 6.17604L7.93157 8.02954V16.9427H6.00728V13.5939H4.93217L5.00229 16.9427H3.02736V7.97113L0.074707 4.9222L1.47313 3.61385L4.29723 6.52649L6.9032 6.47587L9.92597 3.61385L12.9448 6.47587L15.5508 6.52649L18.3788 3.61385L19.7772 4.9222" fill="#1B1C1F"/>
</svg>
