<svg width="40" height="41" viewBox="0 0 40 41" fill="none" xmlns="http://www.w3.org/2000/svg">
<path fill-rule="evenodd" clip-rule="evenodd" d="M20.9297 40.03C-6.88031 40.03 -5.6203 0.300049 20.4797 0.300049C46.4897 0.300049 46.3397 40.03 20.9297 40.03ZM5.3197 29.3199C6.7597 31.8399 8.8797 33.91 11.4397 35.3L15.3297 27.35C14.4497 26.78 13.6997 26.04 13.1197 25.16L5.3197 29.3199ZM20.3197 13.9C12.0897 13.9 11.6797 26.4399 20.4597 26.4399C28.4697 26.4399 28.5197 13.9 20.3197 13.9ZM29.3197 5.05005L25.2697 13.01C26.0997 13.59 26.8097 14.3299 27.3597 15.1899L35.2497 11.23C33.8897 8.65998 31.8397 6.51005 29.3197 5.05005ZM20.3197 22.15C17.5797 22.15 17.7097 18.24 20.2797 18.24C22.8497 18.24 22.8097 22.13 20.3097 22.13L20.3197 22.15Z" fill="black"/>
</svg>
