<svg width="53" height="43" viewBox="0 0 53 43" fill="none" xmlns="http://www.w3.org/2000/svg">
<path fill-rule="evenodd" clip-rule="evenodd" d="M23.2202 36.1801L23.3402 33.48C29.9902 33.19 33.2302 29.73 33.2302 23.86C33.2302 16.78 27.3502 14.45 23.4902 15.28C23.9602 13.89 25.9702 3.53003 17.4702 3.53003C9.2802 3.53003 11.0102 11.89 11.3102 13.51C5.1702 13.51 4.0302 18.94 4.0302 21.52C4.0302 24.95 7.0002 28.5699 13.2902 28.5699V31.51C-1.8698 31.51 -2.4798 14.28 7.7002 10.91C6.7802 4.49003 11.1802 0.119995 17.4402 0.119995C23.1402 0.119995 27.7202 4.36002 27.0702 11.9L35.1502 0.119995L45.8302 14.15L42.2302 15.64L48.7102 23.16L43.4302 25.14L52.0802 35.59L23.2202 36.1801ZM9.4502 19.45L10.3202 17.58L16.1402 20.99L16.3902 12.27L19.5402 11.6899L20.4602 25.11L27.6902 19.91L28.8502 22.36L20.7702 30.4399L21.5602 42.63L15.5202 42.34L16.0002 26.52L9.4502 19.45ZM40.0302 38.21L40.4502 42.37H32.0702L32.4902 37.79L40.0302 38.21Z" fill="black"/>
</svg>
