<svg width="41" height="34" viewBox="0 0 41 34" fill="none" xmlns="http://www.w3.org/2000/svg">
<path fill-rule="evenodd" clip-rule="evenodd" d="M0.700195 2.19995V32.4099C0.700195 33.0799 1.2402 33.6201 1.9102 33.6201C2.5802 33.6201 3.1202 33.0799 3.1202 32.4099V2.19995C3.1202 1.52995 2.5802 0.98999 1.9102 0.98999C1.2402 0.98999 0.700195 1.52995 0.700195 2.19995Z" fill="black"/>
<path fill-rule="evenodd" clip-rule="evenodd" d="M37.8701 2.19995V32.4099C37.8701 33.0799 38.4101 33.6201 39.0801 33.6201C39.7501 33.6201 40.2901 33.0799 40.2901 32.4099V2.19995C40.2901 1.52995 39.7501 0.98999 39.0801 0.98999C38.4101 0.98999 37.8701 1.52995 37.8701 2.19995Z" fill="black"/>
<path fill-rule="evenodd" clip-rule="evenodd" d="M1.91016 21.8999H39.0901V27.5601H1.91016V21.8999Z" fill="black"/>
<path fill-rule="evenodd" clip-rule="evenodd" d="M1.91016 7.25H39.0901V12.9099H1.91016V7.25Z" fill="black"/>
<path fill-rule="evenodd" clip-rule="evenodd" d="M10.8002 21.0901C10.8002 18.8601 8.99015 17.05 6.76015 17.05H1.91016V21.0901H10.8002Z" fill="black"/>
<path fill-rule="evenodd" clip-rule="evenodd" d="M10.8002 6.43994C10.8002 4.20994 8.99015 2.3999 6.76015 2.3999H1.91016V6.43994H10.8002Z" fill="black"/>
</svg>
