<svg width="45" height="31" viewBox="0 0 45 31" fill="none" xmlns="http://www.w3.org/2000/svg">
<path fill-rule="evenodd" clip-rule="evenodd" d="M15.1887 8.89771C13.7202 10.3735 12.6256 11.9077 12.2127 13.4847L18.8581 9.57525L21.6043 14.3297L7.88111 20.1939L0.141113 7.70228L4.86614 4.96097L7.90449 12.0985C8.30181 9.43507 9.54442 6.97412 11.4453 5.08169C18.7568 -2.22717 28.2069 1.03202 32.6125 7.49201L28.0706 10.5643C25.4568 6.55358 19.6489 4.44309 15.1887 8.89771ZM36.4027 19.1036C36.091 21.9773 34.8095 24.6486 32.7722 26.6929C25.262 34.1964 15.4926 30.5478 11.2506 23.7413L16.1976 21.2803C18.8309 25.2443 24.5998 27.3003 29.021 22.8729C30.6687 21.2297 31.8334 19.5047 32.1061 17.7291L25.4568 21.6464L22.7106 16.8919L36.4338 11.0316L44.1738 23.5232L39.4488 26.2645" fill="black"/>
</svg>
