<svg width="24" height="24" viewBox="0 0 24 24" fill="none" xmlns="http://www.w3.org/2000/svg">
<path d="M12 24C18.6274 24 24 18.6274 24 12C24 5.37258 18.6274 0 12 0C5.37258 0 0 5.37258 0 12C0 18.6274 5.37258 24 12 24Z" fill="#F4900C"/>
<path d="M12 21.6666C17.3388 21.6666 21.6667 17.3387 21.6667 12C21.6667 6.66123 17.3388 2.33331 12 2.33331C6.66129 2.33331 2.33337 6.66123 2.33337 12C2.33337 17.3387 6.66129 21.6666 12 21.6666Z" fill="#FFD983"/>
<path d="M12 20.6666C16.7865 20.6666 20.6667 16.7864 20.6667 12C20.6667 7.21351 16.7865 3.33331 12 3.33331C7.21357 3.33331 3.33337 7.21351 3.33337 12C3.33337 16.7864 7.21357 20.6666 12 20.6666Z" fill="#F5F8FA"/>
<path d="M12 5.33331L13.0207 9.53598L16.714 7.28598L14.464 10.9793L18.6667 12L14.464 13.0206L16.714 16.714L13.0207 14.464L12 18.6666L10.9794 14.464L7.28604 16.714L9.53604 13.0206L5.33337 12L9.53604 10.9793L7.28604 7.28598L10.9794 9.53598L12 5.33331Z" fill="#CCD6DD"/>
<path d="M11.5619 13.832L17.4132 17.4194L13.8272 11.5674L11.5619 13.832Z" fill="#292F33"/>
<path d="M12.4379 10.178L6.58594 6.59064L10.1726 12.4433L12.4379 10.178Z" fill="#DD2E44"/>
<path d="M11.9999 14.0419C13.1247 14.0419 14.0366 13.1301 14.0366 12.0052C14.0366 10.8804 13.1247 9.96857 11.9999 9.96857C10.8751 9.96857 9.96326 10.8804 9.96326 12.0052C9.96326 13.1301 10.8751 14.0419 11.9999 14.0419Z" fill="#8899A6"/>
<path d="M12 13.1041C12.6068 13.1041 13.0987 12.6122 13.0987 12.0054C13.0987 11.3986 12.6068 10.9067 12 10.9067C11.3933 10.9067 10.9014 11.3986 10.9014 12.0054C10.9014 12.6122 11.3933 13.1041 12 13.1041Z" fill="#F5F8FA"/>
</svg>
