<svg width="19" height="19" viewBox="0 0 19 19" fill="none" xmlns="http://www.w3.org/2000/svg">
<path d="M9.77201 14.1034C8.89722 14.1034 8.23581 13.9221 7.80908 13.5487C7.38236 13.1753 7.16899 12.6952 7.16899 12.0872C7.16899 11.6391 7.26499 11.2551 7.45702 10.9243C7.64904 10.5936 7.9051 10.2949 8.21447 10.0389C8.52385 9.77219 8.85454 9.51615 9.19592 9.28145C9.48396 9.06809 9.76133 8.84406 10.028 8.6307C10.2947 8.40667 10.5081 8.17197 10.6681 7.91594C10.8388 7.6599 10.9135 7.37186 10.9135 7.04115C10.9135 6.60376 10.7535 6.27305 10.4334 6.04902C10.1134 5.82499 9.65466 5.70764 9.06791 5.70764C8.75854 5.70764 8.44915 5.73964 8.12911 5.80365C7.80907 5.86765 7.4677 5.953 7.13698 6.07035C6.79561 6.1877 6.46489 6.33706 6.13418 6.51842L6.01685 4.31012C6.20887 4.22477 6.44355 4.15009 6.69959 4.06475C6.95562 3.9794 7.24365 3.89405 7.55302 3.81938C7.8624 3.7447 8.19314 3.68069 8.54518 3.62735C8.89723 3.57401 9.27059 3.55267 9.65464 3.55267C10.4441 3.55267 11.1268 3.65936 11.6923 3.87272C12.2577 4.08608 12.6844 4.40613 12.9831 4.84352C13.2818 5.28092 13.4312 5.82498 13.4312 6.49708C13.4312 7.14783 13.3032 7.70257 13.0365 8.17197C12.7697 8.64137 12.439 9.03609 12.055 9.37747C11.6602 9.71885 11.2762 10.0176 10.9028 10.2843C10.5188 10.5616 10.1881 10.8283 9.90002 11.095C9.62265 11.3511 9.4733 11.6391 9.4733 11.9485C9.4733 12.2899 9.57997 12.5139 9.79333 12.6419C10.0067 12.7699 10.2521 12.8339 10.5294 12.8339C10.7428 12.8339 10.9348 12.8019 11.1268 12.7486C11.3189 12.6953 11.4789 12.6419 11.6283 12.5779L11.7136 13.7834C11.5749 13.8367 11.3935 13.8901 11.1909 13.9328C10.9882 13.9754 10.7641 14.0181 10.5294 14.0501C10.2734 14.0821 10.028 14.1034 9.77201 14.1034ZM9.4413 19.0001C9.09992 19.0001 8.80122 18.9254 8.54518 18.7867C8.28915 18.6374 8.0971 18.4454 7.95842 18.1893C7.81973 17.9333 7.74507 17.6453 7.74507 17.3359C7.74507 16.8558 7.89442 16.4611 8.2038 16.1624C8.51317 15.853 8.92921 15.7037 9.45195 15.7037C9.81466 15.7037 10.1134 15.7783 10.3694 15.917C10.6255 16.0557 10.8175 16.2477 10.9562 16.4931C11.0948 16.7385 11.1589 17.0265 11.1589 17.3359C11.1589 17.8159 11.0095 18.2107 10.7108 18.5307C10.4014 18.8401 9.98538 19.0001 9.4413 19.0001Z" fill="#DC46AA"/>
<path d="M4.62996 17.4637C1.7709 15.7888 0 12.6844 0 9.37727C0 4.20324 4.20325 0 9.37728 0C14.5513 0 18.7545 4.20324 18.7545 9.37727C18.7545 12.6524 17.0903 15.6288 14.3059 17.357L13.4632 16.0022C15.7781 14.5726 17.1543 12.0976 17.1543 9.38794C17.1543 5.09935 13.6659 1.61088 9.37728 1.61088C5.0887 1.61088 1.60022 5.09935 1.60022 9.38794C1.60022 12.1403 3.0724 14.7113 5.45139 16.0982L4.62996 17.4637Z" fill="#DC46AA"/>
</svg>
