<svg width="171" height="150" viewBox="0 0 171 150" fill="none" xmlns="http://www.w3.org/2000/svg">
<path d="M28.9264 108.819C23.1739 102.205 19.3059 94.1456 16.5083 85.8224C12.5753 74.115 10.6533 61.5309 12.6232 49.3406C14.5931 37.1503 20.7218 25.3642 30.6329 18.0274C40.5441 10.6907 54.378 8.32042 65.6127 13.3931C70.5204 15.6058 74.7475 19.0618 78.9507 22.4117C89.4809 30.776 100.777 38.928 113.91 41.7709C119.724 43.0314 125.764 43.2129 131.437 44.9906C139.69 47.5698 146.697 53.4611 151.462 60.6848C158.644 71.5598 160.791 85.8189 156.338 98.0674C151.886 110.316 140.637 120.043 127.751 121.859C122.46 122.606 117.084 122.085 111.759 121.633C94.2655 120.143 45.7733 121.14 40.4723 118.893C36.2896 117.135 31.8744 112.21 28.9264 108.819Z" fill="#DC46AA"/>
<path opacity="0.7" d="M28.9264 108.819C23.1739 102.205 19.3059 94.1456 16.5083 85.8224C12.5753 74.115 10.6533 61.5309 12.6232 49.3406C14.5931 37.1503 20.7218 25.3642 30.6329 18.0274C40.5441 10.6907 54.378 8.32042 65.6127 13.3931C70.5204 15.6058 74.7475 19.0618 78.9507 22.4117C89.4809 30.776 100.777 38.928 113.91 41.7709C119.724 43.0314 125.764 43.2129 131.437 44.9906C139.69 47.5698 146.697 53.4611 151.462 60.6848C158.644 71.5598 160.791 85.8189 156.338 98.0674C151.886 110.316 140.637 120.043 127.751 121.859C122.46 122.606 117.084 122.085 111.759 121.633C94.2655 120.143 45.7733 121.14 40.4723 118.893C36.2896 117.135 31.8744 112.21 28.9264 108.819Z" fill="white"/>
<path d="M23.9742 128.083H147.026" stroke="#0E1825" stroke-miterlimit="10"/>
<path d="M146.441 32.3482V75.1632H110.363V32.3482C116.059 29.8853 122.198 28.6149 128.402 28.6149C134.606 28.6149 140.745 29.8853 146.441 32.3482Z" fill="#0E1825"/>
<path opacity="0.1" d="M146.441 32.3482V75.1632H110.363V32.3482C116.059 29.8853 122.198 28.6149 128.402 28.6149C134.606 28.6149 140.745 29.8853 146.441 32.3482Z" fill="white"/>
<path d="M145.1 33.7971V73.4335H111.701V33.7971C116.974 31.5172 122.657 30.3411 128.4 30.3411C134.144 30.3411 139.827 31.5172 145.1 33.7971Z" fill="#DC46AA"/>
<path opacity="0.4" d="M145.1 33.7971V73.4335H111.701V33.7971C116.974 31.5172 122.657 30.3411 128.4 30.3411C134.144 30.3411 139.827 31.5172 145.1 33.7971Z" fill="white"/>
<path d="M118.968 31.4131V74.0088" stroke="#0E1825" stroke-miterlimit="10"/>
<g opacity="0.6">
<path d="M145.1 54.3346V61.435L132.802 73.4335H125.658L145.1 54.3346Z" fill="white"/>
<path d="M145.1 34.5198V46.2682L117.258 73.4334H111.701V68.9944L111.81 67.2201L145.1 34.5198Z" fill="white"/>
</g>
<path d="M127.751 30.3479V74.0089" stroke="#0E1825" stroke-miterlimit="10"/>
<path d="M136.533 30.3479V74.0089" stroke="#0E1825" stroke-miterlimit="10"/>
<path d="M111.225 38.9862H145.1" stroke="#0E1825" stroke-miterlimit="10"/>
<path d="M111.225 47.0424H145.1" stroke="#0E1825" stroke-miterlimit="10"/>
<path d="M111.225 55.8348H146.041" stroke="#0E1825" stroke-miterlimit="10"/>
<path d="M111.225 64.6307H145.1" stroke="#0E1825" stroke-miterlimit="10"/>
<path d="M27.2608 57.9516C27.2608 57.9516 26.7238 56.2047 25.1643 55.5814C24.0733 55.1464 22.825 55.2594 21.6999 55.4546C19.6 55.8211 17.7737 56.6534 15.7833 57.3727C15.7833 57.3727 16.6314 57.0576 20.113 58.7428C21.4149 59.428 22.8593 59.7975 24.3298 59.8217C25.5132 59.808 27.3155 59.4724 27.2608 57.9516Z" fill="#DC46AA"/>
<path d="M27.4455 52.8241C27.4455 52.8241 27.4455 51.0018 26.1219 49.9503C25.2088 49.2173 23.9742 48.9639 22.8421 48.8268C20.7252 48.57 18.7381 48.8268 16.6246 48.9467C16.6246 48.9467 17.5309 48.8919 20.3866 51.5293C21.4349 52.562 22.7105 53.334 24.111 53.7831C25.2396 54.0982 27.0658 54.3003 27.4455 52.8241Z" fill="#DC46AA"/>
<path d="M31.0502 59.6024C31.0502 59.6024 29.6309 58.4619 29.6274 56.7732C29.6274 55.6018 30.1883 54.4818 30.7868 53.5056C31.9017 51.6868 33.3484 50.2928 34.7438 48.7103C34.7438 48.7103 34.1418 49.3954 34.4325 53.2556C34.5898 54.7209 34.4012 56.2027 33.8819 57.5816C33.4202 58.6605 32.4455 60.2156 31.0502 59.6024Z" fill="#DC46AA"/>
<path d="M36.0878 62.4077C36.0878 62.4077 35.886 60.5958 37.0728 59.3936C37.8936 58.5647 39.0872 58.1708 40.1987 57.9036C42.2507 57.4035 44.2787 57.4412 46.3854 57.3042C46.3854 57.3042 45.4826 57.3556 42.9654 60.2978C42.0433 61.4473 40.8634 62.3627 39.5215 62.9695C38.4271 63.4147 36.6384 63.8258 36.0878 62.4077Z" fill="#DC46AA"/>
<path d="M35.7561 55.941C35.7561 55.941 33.9503 55.691 33.0816 54.249C32.4797 53.2454 32.3976 51.9883 32.3976 50.8443C32.4216 48.7104 32.9483 46.7683 33.3313 44.679C33.3313 44.679 33.1603 45.5661 35.3833 48.7344C36.269 49.9117 36.8664 51.2809 37.1275 52.7316C37.3053 53.9201 37.278 55.7492 35.7561 55.941Z" fill="#DC46AA"/>
<path d="M40.951 52.7007C40.951 52.7007 42.2506 53.9852 43.923 53.7934C45.0858 53.6598 46.1323 52.961 47.0318 52.2555C48.7042 50.9368 49.9183 49.3303 51.3307 47.7582C51.3307 47.7582 50.7322 48.4432 46.8608 48.5974C45.3883 48.6129 43.9402 48.9754 42.6337 49.6557C41.6111 50.2277 40.1815 51.382 40.951 52.7007Z" fill="#DC46AA"/>
<path d="M39.4497 51.4266C39.4497 51.4266 41.2623 51.6081 42.4422 50.399C43.2698 49.5667 43.6494 48.3679 43.9059 47.2512C44.3813 45.1722 44.3266 43.1616 44.4394 41.0482C44.4394 41.0482 44.3984 41.9525 41.4811 44.5077C40.3454 45.4435 39.4446 46.6331 38.8512 47.9808C38.4168 49.0906 38.0269 50.8888 39.4497 51.4266Z" fill="#DC46AA"/>
<path d="M32.9756 69.104L29.8463 61.387L26.2348 52.4644" stroke="#0E1825" stroke-linecap="round" stroke-linejoin="round"/>
<path d="M33.6972 67.775L36.8265 57.0473L40.1986 50.4161" stroke="#0E1825" stroke-linecap="round" stroke-linejoin="round"/>
<path d="M34.9011 63.5552L38.0304 61.7501" stroke="#0E1825" stroke-linecap="round" stroke-linejoin="round"/>
<path d="M36.8266 57.0473L35.2602 53.5536" stroke="#0E1825" stroke-linecap="round" stroke-linejoin="round"/>
<path d="M38.7828 53.5707L42.6029 51.8616" stroke="#0E1825" stroke-linecap="round" stroke-linejoin="round"/>
<path d="M30.4448 62.8325L31.7684 57.5303" stroke="#0E1825" stroke-linecap="round" stroke-linejoin="round"/>
<path d="M28.6904 58.8011L25.6329 57.1672" stroke="#0E1825" stroke-linecap="round" stroke-linejoin="round"/>
<path d="M36.0981 72.9607H30.4516L29.2444 66.5693H37.3087L36.0981 72.9607Z" fill="#0E1825"/>
<path d="M43.964 72.9608H21.9837V74.1973H43.964V72.9608Z" stroke="#0E1825" stroke-miterlimit="10"/>
<path d="M85.0075 140.043C119.069 140.043 146.68 137.99 146.68 135.457C146.68 132.924 119.069 130.871 85.0075 130.871C50.9465 130.871 23.3347 132.924 23.3347 135.457C23.3347 137.99 50.9465 140.043 85.0075 140.043Z" fill="#DC46AA"/>
<path opacity="0.5" d="M85.0075 140.043C119.069 140.043 146.68 137.99 146.68 135.457C146.68 132.924 119.069 130.871 85.0075 130.871C50.9465 130.871 23.3347 132.924 23.3347 135.457C23.3347 137.99 50.9465 140.043 85.0075 140.043Z" fill="white"/>
<path d="M89.2141 54.7697H80.7291V59.0409H89.2141V54.7697Z" stroke="#0E1825" stroke-miterlimit="10"/>
<path d="M97.7162 81.4657H89.2312V85.7369H97.7162V81.4657Z" stroke="#0E1825" stroke-miterlimit="10"/>
<path d="M98.9508 54.7697H90.4658V59.0409H98.9508V54.7697Z" stroke="#0E1825" stroke-miterlimit="10"/>
<path d="M94.2552 59.952H85.7701V64.2232H94.2552V59.952Z" stroke="#0E1825" stroke-miterlimit="10"/>
<path d="M70.5922 37.5684H62.1072V41.8396H70.5922V37.5684Z" stroke="#0E1825" stroke-miterlimit="10"/>
<path d="M80.3324 37.5684H71.8474V41.8396H80.3324V37.5684Z" stroke="#0E1825" stroke-miterlimit="10"/>
<path d="M75.6367 42.7507H67.1517V47.022H75.6367V42.7507Z" stroke="#0E1825" stroke-miterlimit="10"/>
<path d="M94.905 118.876C94.5937 118.876 93.0924 115.091 93.0924 115.091C93.0924 115.091 91.0711 120.732 89.4945 122.561C87.9179 124.39 84.6039 127.206 83.6805 128.415C82.7571 129.624 79.8433 133.988 79.8433 133.988L73.7557 130.035C73.7557 130.035 75.1579 130.446 78.3419 124.555C81.5259 118.663 85.1819 110.614 86.4439 109.422C86.4439 109.422 88.9712 106.631 91.2661 107.23C91.2661 107.23 92.4631 105.634 95.5411 106.737C98.6191 107.84 101.735 112.125 101.735 112.125C101.735 112.125 103.068 118.773 94.905 118.876Z" fill="white"/>
<path d="M119.98 112.727C119.98 112.727 120.1 110.734 121.28 110.158C120.588 109.215 119.769 108.372 118.845 107.655C117.344 106.6 114.768 103.452 113.609 101.787C113.609 101.787 114.293 100.808 114.194 100.164C114 99.3341 113.857 98.4934 113.766 97.6462C113.677 96.3686 113.099 95.4815 112.634 95.6802C112.169 95.8788 110.08 97.5092 109.577 98.2388C109.577 98.2388 108.469 99.1293 108.951 100.839C109.433 102.548 110.114 104.853 110.435 105.774C110.757 106.696 111.991 110.706 113.554 112.717C115.117 114.728 118.79 118.934 120.504 119.622C120.504 119.622 126.318 116.475 128.421 114.45C128.421 114.45 128.062 111.902 125.001 110.943L120.64 114.049L119.98 112.727Z" fill="white"/>
<path d="M74.7919 129.401C74.7919 129.401 73.9472 132.2 77.5279 130.429L81.9124 121.475L86.2934 113.361C86.2934 113.361 89.8126 108.374 91.2558 107.227C91.2558 107.227 87.9145 107.079 85.6607 110.48L80.4349 120.701C80.4349 120.701 76.2796 128.884 74.727 129.607" fill="#DC46AA"/>
<path opacity="0.6" d="M74.7919 129.401C74.7919 129.401 73.9472 132.2 77.5279 130.429L81.9124 121.475L86.2934 113.361C86.2934 113.361 89.8126 108.374 91.2558 107.227C91.2558 107.227 87.9145 107.079 85.6607 110.48L80.4349 120.701C80.4349 120.701 76.2796 128.884 74.727 129.607" fill="white"/>
<path d="M134.574 104.462C134.488 104.188 133.387 102.75 133.571 101.164C133.756 99.578 134.939 95.5979 134.939 95.5979L126.978 89.2134C126.978 89.2134 125.353 89.5559 125.182 92.8749C124.514 93.4418 123.881 94.0492 123.288 94.6937C123.326 94.8963 123.417 95.0852 123.552 95.2415C123.686 95.3978 123.859 95.516 124.054 95.5842C124.054 95.5842 124.327 99.2355 124.714 99.6945C124.714 99.6945 127.706 100.061 128.934 99.9103C128.934 99.9103 129.905 100.89 129.108 103.445L128.082 104.507C128.082 104.507 130.394 106.798 131.67 106.13C132.946 105.463 134.574 104.462 134.574 104.462Z" fill="white"/>
<path d="M126.424 89.5149C126.424 89.5149 126.882 96.2008 131.742 98.8725C131.742 98.8725 132.846 103.476 130.743 105.291C130.743 105.291 131.284 106.829 132.672 106.319C134.061 105.809 134.409 104.038 134.409 104.038C134.409 104.038 132.792 100.914 134.194 98.2936C135.596 95.6734 134.625 92.1283 134.625 92.1283L130.47 89.8813C130.47 89.8813 128.366 87.3707 126.424 89.5149Z" fill="#DC46AA"/>
<path opacity="0.6" d="M126.424 89.5149C126.424 89.5149 126.882 96.2008 131.742 98.8725C131.742 98.8725 132.846 103.476 130.743 105.291C130.743 105.291 131.284 106.829 132.672 106.319C134.061 105.809 134.409 104.038 134.409 104.038C134.409 104.038 132.792 100.914 134.194 98.2936C135.596 95.6734 134.625 92.1283 134.625 92.1283L130.47 89.8813C130.47 89.8813 128.366 87.3707 126.424 89.5149Z" fill="white"/>
<path d="M109.519 98.3279C109.519 98.3279 112.33 96.8996 112.812 96.903C113.537 97.2147 113.599 98.1224 113.387 99.0369C113.093 100.225 113.599 100.791 113.267 101.411C112.966 101.916 112.623 102.395 112.241 102.842L113.917 106.357C113.917 106.357 115.192 108.754 117.06 110.032C118.305 110.955 119.381 112.087 120.24 113.378C120.043 112.8 120.039 112.174 120.229 111.593C120.418 111.012 120.791 110.509 121.29 110.159C120.237 108.962 119.059 107.88 117.778 106.932C115.863 105.562 113.619 101.794 113.619 101.794C113.883 101.417 114.05 100.981 114.107 100.525C114.164 100.068 114.108 99.6041 113.944 99.1739C113.523 97.8861 114.095 96.17 113.014 95.7864C111.933 95.4028 110.079 97.7251 109.519 98.3279Z" fill="#DC46AA"/>
<path opacity="0.6" d="M109.519 98.3279C109.519 98.3279 112.33 96.8996 112.812 96.903C113.537 97.2147 113.599 98.1224 113.387 99.0369C113.093 100.225 113.599 100.791 113.267 101.411C112.966 101.916 112.623 102.395 112.241 102.842L113.917 106.357C113.917 106.357 115.192 108.754 117.06 110.032C118.305 110.955 119.381 112.087 120.24 113.378C120.043 112.8 120.039 112.174 120.229 111.593C120.418 111.012 120.791 110.509 121.29 110.159C120.237 108.962 119.059 107.88 117.778 106.932C115.863 105.562 113.619 101.794 113.619 101.794C113.883 101.417 114.05 100.981 114.107 100.525C114.164 100.068 114.108 99.6041 113.944 99.1739C113.523 97.8861 114.095 96.17 113.014 95.7864C111.933 95.4028 110.079 97.7251 109.519 98.3279Z" fill="white"/>
<path d="M113.965 122.232C113.965 122.232 117.675 119.876 118.708 118.365C119.264 118.841 119.865 119.26 120.504 119.615C120.504 119.615 125.668 116.968 128.421 114.443C128.421 114.443 127.094 111.217 125.001 110.936L120.64 114.043L120.042 113.049C120.042 113.049 120.114 111.32 120.976 110.433C121.837 109.545 124.122 106.487 124.122 106.487C124.122 106.487 126.386 102.887 127.884 103.856C127.884 103.856 129.495 105.055 131.003 105.35C132.188 105.103 133.257 104.466 134.04 103.541C134.04 103.541 135.271 105.288 136.171 108.833C137.07 112.378 135.124 117.012 133.722 118.807C132.32 120.602 130.213 122.397 127.908 124.647C125.603 126.897 122.415 130.669 122.415 130.669C122.415 130.669 115.777 128.089 113.965 122.232Z" fill="#DC46AA"/>
<path opacity="0.2" d="M130.849 111.693L129.526 114.495L131.776 113.275C131.776 113.275 127.06 120.366 119.286 121.554C119.286 121.554 120.24 122.739 123.25 123.195C122.409 123.547 121.499 123.705 120.588 123.657C119.678 123.609 118.79 123.356 117.99 122.917C117.963 124.878 118.277 126.829 118.917 128.682C118.917 128.682 115.463 125.195 114.491 121.975C114.491 121.975 117.751 119.852 118.705 118.365C119.281 118.813 119.881 119.23 120.5 119.615C120.5 119.615 128.66 115.642 130.849 111.693Z" fill="#0E1825"/>
<path opacity="0.2" d="M121.954 109.669C121.954 109.669 126.944 106.069 128.267 104.291C128.156 104.125 128.01 103.985 127.84 103.881C127.67 103.776 127.48 103.709 127.281 103.684C127.083 103.66 126.882 103.678 126.692 103.738C126.501 103.797 126.326 103.897 126.177 104.031C124.905 104.98 122.176 109.217 121.954 109.669Z" fill="#0E1825"/>
<path d="M126.321 91.5494C126.321 91.5494 127.159 91.0048 127.368 92.0426" stroke="#0E1825" stroke-linecap="round" stroke-linejoin="round"/>
<path d="M124.991 96.5708C124.991 96.5708 126.304 97.2284 127.207 96.2283" stroke="#0E1825" stroke-linecap="round" stroke-linejoin="round"/>
<path d="M126.625 93.351C126.56 93.6593 126.383 93.8854 126.232 93.8511C126.082 93.8169 126.013 93.5429 126.078 93.2346C126.143 92.9263 126.318 92.7003 126.468 92.7345C126.619 92.7688 126.69 93.0428 126.625 93.351Z" fill="#0E1825"/>
<path d="M134.772 98.7286C133.719 99.0403 132.525 99.3177 131.848 97.5743C131.848 97.5743 134.057 96.1597 133.377 94.7794C132.696 93.399 131.201 95.3685 131.201 95.3685C131.201 95.3685 127.781 92.6626 126.755 89.5833C126.755 89.5833 126.16 89.5833 125.456 91.1041C125.456 91.1041 123.859 89.7066 123.701 88.0591C123.544 86.4116 125.158 85.7814 125.842 86.1958C125.842 86.1958 126.557 84.7333 128.472 85.2744C130.387 85.8156 132.354 87.8502 132.354 87.8502C132.354 87.8502 136.612 87.5077 137.173 91.2754C137.173 91.2754 137.173 91.3028 137.173 91.3199C137.21 91.8542 137.648 97.5332 134.772 98.7286Z" fill="#0E1825"/>
<path d="M80.7667 132.628C80.7667 132.628 83.5266 127.706 86.7414 125.39C89.9562 123.075 92.3194 118.071 93.0923 115.091C93.0923 115.091 96.1327 121.033 97.8496 126.209C99.5664 131.384 104.59 137.224 111.14 137.563C115.093 137.766 118.428 137.07 120.521 133.522C122.966 129.381 126.195 125.949 129.902 122.924C133.359 120.102 136.154 115.985 136.4 111.409C136.561 108.305 134.977 104.983 133.961 103.188C133.533 102.032 133.466 100.773 133.77 99.578L134.201 97.8962" stroke="#0E1825" stroke-linecap="round" stroke-linejoin="round"/>
<path d="M77.2612 130.949C77.2612 130.949 81.2318 122.873 82.8597 119.509C84.4876 116.146 89.6587 106.754 92.9932 106.391C96.3277 106.028 99.4706 108.946 102.265 112.614C105.059 116.283 111.273 123.852 113.893 123.743" stroke="#0E1825" stroke-linecap="round" stroke-linejoin="round"/>
<path d="M91.3618 107.131C91.3618 107.131 87.8666 106.97 86.1224 109.871C84.3782 112.772 77.3193 127.579 75.045 129.425" stroke="#0E1825" stroke-linecap="round" stroke-linejoin="round"/>
<path d="M139.02 87.2508C140.676 86.6049 142.52 86.6419 144.15 87.3536C144.955 87.7169 145.667 88.2592 146.232 88.9394C146.796 89.6195 147.199 90.4196 147.409 91.2788C147.836 93.149 147.245 95.1356 147.624 97.0195C147.867 98.2046 148.479 99.2732 148.924 100.397C149.368 101.52 149.645 102.794 149.194 103.928C148.918 104.567 148.431 105.091 147.816 105.414C147.201 105.738 146.493 105.841 145.812 105.706C144.965 105.469 144.204 104.993 143.619 104.336C141.701 102.38 140.617 99.5404 141.02 96.8414C141.229 95.4507 141.803 94.1491 142.221 92.8099C142.491 92.066 142.608 91.2746 142.563 90.4842C142.536 90.0893 142.416 89.7064 142.213 89.3669C142.009 89.0275 141.728 88.7413 141.393 88.5318C140.511 88.0489 139.409 88.3366 138.507 88.7784C137.623 89.2181 136.814 89.7962 136.113 90.491C135.36 89.5799 135.733 89.2408 136.578 88.6414C137.331 88.0792 138.152 87.6121 139.02 87.2508Z" fill="#0E1825"/>
<path d="M124.83 107.566C127.983 104.945 129.225 103.113 129.225 103.113C129.491 102.027 129.478 100.818 128.944 99.8864C127.534 100.015 126.113 99.9424 124.724 99.6706C124.382 98.9855 124.252 95.7316 124.252 95.7316C124.252 95.7316 123.305 94.9541 123.298 94.6801C123.291 94.406 123.93 94.1526 124.601 93.4881C125.381 92.714 125.179 92.3646 125.446 91.0905C125.683 90.2423 126.185 89.4923 126.879 88.9497" stroke="#0E1825" stroke-linecap="round" stroke-linejoin="round"/>
<path d="M120.042 113.049C119.95 112.615 119.982 112.164 120.134 111.748C120.476 110.333 122.313 109.535 123.363 108.737C123.893 108.333 124.389 107.939 124.833 107.566" stroke="#0E1825" stroke-linecap="round" stroke-linejoin="round"/>
<path d="M112.559 123.349C114.769 121.896 116.831 120.229 118.715 118.372" stroke="#0E1825" stroke-linecap="round" stroke-linejoin="round"/>
<path d="M94.775 118.595C94.775 118.595 101.061 118.232 100.651 110.844C100.651 110.844 102.237 112.71 104.071 114.913C105.904 117.115 108.715 120.735 112.152 123.113L114.495 121.982C114.495 121.982 116.68 128.699 122.679 130.299C122.679 130.299 120.709 132.915 119.601 134.806C118.493 136.697 114.659 137.772 112.518 137.646C110.377 137.519 106.906 137.611 102.042 133.076C97.1792 128.542 97.8324 123.513 94.775 118.595Z" fill="#0E1825"/>
<path d="M77.3638 130.408C77.3638 130.408 76.136 132.032 74.361 132.546C72.586 133.059 65.9444 133.916 65.469 135.21C64.9936 136.505 69.5285 138.769 72.7331 137.988C75.9376 137.207 76.2317 137.053 78.294 136.745C81.5122 136.262 80.924 132.48 80.924 132.48C80.924 132.48 77.8049 133.042 77.3638 130.408Z" fill="#0E1825"/>
<path d="M77.3638 130.408C77.3638 130.408 75.9958 130.926 75.24 129.086C75.24 129.086 72.7947 130.96 70.6435 131.049C68.4923 131.138 65.5135 130.535 65.0313 131.361C64.549 132.186 66.3993 134.734 68.8138 134.556C71.2283 134.378 72.8836 135.053 74.9219 134.313C76.9602 133.573 77.3638 130.408 77.3638 130.408Z" fill="#0E1825"/>
<path d="M120.627 114.05C122.991 112.651 125.157 110.943 127.07 108.97" stroke="#0E1825" stroke-linecap="round" stroke-linejoin="round"/>
<path d="M112.538 123.75C113.151 124.57 114.011 125.17 114.991 125.462" stroke="white" stroke-linecap="round" stroke-linejoin="round"/>
<path d="M121.017 116.916C121.738 113.087 117.549 110.84 115.418 108.467C113.992 106.881 113.024 104.802 112.231 102.842L112.703 102.267C112.953 102.062 113.138 101.788 113.235 101.478C113.331 101.169 113.335 100.838 113.246 100.527C112.904 99.4993 113.91 98.6294 113.4 97.4888C112.891 96.3482 112.169 97.1154 111.064 97.6292C109.96 98.143 108.626 98.6979 108.831 100.188C109.04 101.34 109.364 102.468 109.799 103.555C109.799 103.555 112.149 114.515 120.504 119.622C120.504 119.622 127.891 116.581 131.424 110.833" stroke="#0E1825" stroke-linecap="round" stroke-linejoin="round"/>
<path d="M109.351 98.6361C109.659 97.9339 110.377 97.3859 111.01 96.879C112.036 96.0672 112.566 95.091 113.383 96.1357C114.201 97.1804 113.383 98.3244 113.995 99.3108C114.608 100.297 113.609 101.787 113.609 101.787C113.609 101.787 115.931 104.959 117.224 106.398C118.294 107.59 120.107 108.552 121.249 109.939" stroke="#0E1825" stroke-linecap="round" stroke-linejoin="round"/>
<path d="M128.277 104.048C127.886 103.798 127.418 103.695 126.958 103.758C126.498 103.821 126.074 104.045 125.764 104.39C124.881 105.302 122.604 108.679 121.413 110.066" stroke="#0E1825" stroke-linecap="round" stroke-linejoin="round"/>
<path d="M128.421 114.45C127.799 111.577 125.001 110.943 125.001 110.943" stroke="#0E1825" stroke-linecap="round" stroke-linejoin="round"/>
<path d="M134.064 103.366C131.328 107.384 128.486 104.051 128.486 104.051" stroke="#0E1825" stroke-linecap="round" stroke-linejoin="round"/>
<path opacity="0.2" d="M140.859 88.3229C141.411 88.3389 141.951 88.4805 142.439 88.7369C142.927 88.9933 143.351 89.3577 143.678 89.8026C144.137 90.5082 144.417 91.3163 144.492 92.1557C144.69 93.7039 144.522 95.2657 144.468 96.8208C144.413 98.3758 144.468 99.9788 145.104 101.414C145.74 102.849 147.022 104.089 148.602 104.295" stroke="white" stroke-linecap="round" stroke-linejoin="round"/>
<path opacity="0.2" d="M126.622 85.6718C126.622 85.6718 129.495 94.0703 137.132 94.2347" stroke="white" stroke-linecap="round" stroke-linejoin="round"/>
<path d="M113.424 98.2867C113.424 98.2867 111.8 99.4239 111.947 100.825" stroke="#0E1825" stroke-linecap="round" stroke-linejoin="round"/>
<path d="M112.176 99.6946C112.344 99.9347 112.493 100.188 112.621 100.452" stroke="#0E1825" stroke-linecap="round" stroke-linejoin="round"/>
<path d="M37.3293 121.955C37.3293 121.955 36.2554 124.164 38.1227 124.921C39.99 125.678 42.0044 124.072 42.0044 124.072C42.0044 124.072 47.9347 121.818 50.7972 121.273L49.59 124.414L52.4149 125.589L53.7247 125.041C53.7247 125.041 54.7884 121.975 56.9532 121.273C58.7871 121.609 60.6775 121.443 62.4252 120.794C65.4759 119.715 67.1072 117.475 67.6065 116.039C68.1058 114.604 67.1619 112.854 67.1619 112.854C67.1619 112.854 69.3097 109.956 69.7098 108.884C70.11 107.812 70.322 107.076 70.322 107.076C70.9706 107.383 71.5968 107.736 72.1962 108.131C72.6476 108.497 76.9841 112.868 77.781 113.837C78.5779 114.806 80.8795 118.393 81.8508 118.934C82.8221 119.475 84.3645 119.766 86.9808 118.982C86.9808 118.982 89.1457 121.756 89.9289 121.647C90.712 121.537 87.8597 118.184 87.8597 118.184C87.8597 118.184 89.0875 118.396 89.5321 118.896C89.9767 119.396 91.1703 120.852 91.7757 120.787C92.381 120.722 89.9118 117.437 89.9118 117.437C89.9118 117.437 91.1566 118.536 91.8817 119.252C92.2555 119.643 92.6926 119.967 93.1744 120.211C93.1288 119.397 92.9033 118.603 92.5141 117.886C92.125 117.169 91.5819 116.548 90.9241 116.067L83.6463 115.759L82.2202 113.224L83.2975 110.843L80.7598 104.336C80.7598 104.336 79.5628 96.4576 73.4068 93.9744C73.4068 93.9744 72.6784 87.559 70.3288 85.5038C67.9793 83.4487 57.5551 92.8543 57.5551 92.8543C57.5551 92.8543 59.4122 95.2177 60.2091 96.1185C61.0059 97.0194 64.9663 100.914 67.4389 101.911L67.5997 102.897C63.6006 101.789 59.3904 101.687 55.3424 102.599C48.7281 104.137 51.5394 104.781 51.5394 104.781L41.1939 118.602C41.1939 118.602 38.304 121.064 37.3293 121.955Z" fill="white"/>
<path d="M59.6926 75.8174C59.6926 75.8174 58.8034 78.0061 56.8301 78.6877C56.8301 78.6877 58.7897 83.048 61.0435 83.9043C63.2973 84.7606 65.1475 83.8563 65.3425 81.9451C65.3425 81.9451 66.8815 82.7534 67.9109 81.7395C68.9403 80.7257 70.0039 77.5026 70.0039 77.5026C70.0039 77.5026 70.9444 77.8862 71.2249 77.4478C71.5053 77.0093 70.8829 75.8722 70.7939 74.8172C70.705 73.7623 70.469 69.7377 69.6824 69.1074C68.8958 68.4772 62.4628 72.995 62.4628 72.995L59.6926 75.8174Z" fill="white"/>
<path d="M59.9491 90.8951C59.9491 90.8951 64.1181 98.1086 68.9882 99.8897C69.1728 101.253 69.6837 102.552 70.4775 103.675C71.2713 104.798 72.3244 105.712 73.5471 106.339C77.8186 108.624 81.6969 118.632 83.7523 119.609C83.7523 119.609 82.805 119.951 81.0745 117.964C79.344 115.978 76.0813 111.114 73.2085 109.09C70.3357 107.065 68.3726 105.322 67.456 101.928C67.456 101.928 61.2795 98.9204 57.4183 92.505L59.9491 90.8951Z" fill="#DC46AA"/>
<path opacity="0.6" d="M59.9491 90.8951C59.9491 90.8951 64.1181 98.1086 68.9882 99.8897C69.1728 101.253 69.6837 102.552 70.4775 103.675C71.2713 104.798 72.3244 105.712 73.5471 106.339C77.8186 108.624 81.6969 118.632 83.7523 119.609C83.7523 119.609 82.805 119.951 81.0745 117.964C79.344 115.978 76.0813 111.114 73.2085 109.09C70.3357 107.065 68.3726 105.322 67.456 101.928C67.456 101.928 61.2795 98.9204 57.4183 92.505L59.9491 90.8951Z" fill="white"/>
<path d="M37.4182 124.852C39.4702 122.814 41.7924 120.951 44.4566 119.804C46.7206 118.831 49.2138 118.732 51.6386 118.776C54.0634 118.821 56.4266 118.776 58.8206 118.67C60.086 118.608 61.3719 118.543 62.5826 118.122C63.8889 117.61 65.0686 116.82 66.0402 115.807C66.7242 115.156 67.3569 114.358 67.3466 113.426C67.3466 113.426 68.5881 116.707 65.0997 119.403C61.6113 122.099 58.3144 121.4 56.9567 121.263C55.5989 121.126 50.575 120.948 46.1632 122.475C43.5635 123.368 41.0151 124.404 38.5297 125.579L37.4182 124.852Z" fill="#DC46AA"/>
<path opacity="0.6" d="M37.4182 124.852C39.4702 122.814 41.7924 120.951 44.4566 119.804C46.7206 118.831 49.2138 118.732 51.6386 118.776C54.0634 118.821 56.4266 118.776 58.8206 118.67C60.086 118.608 61.3719 118.543 62.5826 118.122C63.8889 117.61 65.0686 116.82 66.0402 115.807C66.7242 115.156 67.3569 114.358 67.3466 113.426C67.3466 113.426 68.5881 116.707 65.0997 119.403C61.6113 122.099 58.3144 121.4 56.9567 121.263C55.5989 121.126 50.575 120.948 46.1632 122.475C43.5635 123.368 41.0151 124.404 38.5297 125.579L37.4182 124.852Z" fill="white"/>
<path d="M53.4033 103.366L53.5264 106.449C53.5264 106.449 61.2419 107.476 63.4752 109.189C64.7891 110.196 65.9887 111.345 67.0525 112.614C67.0525 112.614 68.6599 111.001 69.19 109.925C69.6324 108.913 70.0127 107.874 70.3288 106.815C70.3288 106.815 68.3145 104.62 67.6134 102.88C67.6134 102.88 63.1332 100.825 55.746 102.366L53.4033 103.366Z" fill="#DC46AA"/>
<path opacity="0.6" d="M53.4033 103.366L53.5264 106.449C53.5264 106.449 61.2419 107.476 63.4752 109.189C64.7891 110.196 65.9887 111.345 67.0525 112.614C67.0525 112.614 68.6599 111.001 69.19 109.925C69.6324 108.913 70.0127 107.874 70.3288 106.815C70.3288 106.815 68.3145 104.62 67.6134 102.88C67.6134 102.88 63.1332 100.825 55.746 102.366L53.4033 103.366Z" fill="white"/>
<path d="M51.0298 121.273C51.0298 121.273 54.6208 120.893 56.1085 121.273C56.1085 121.273 53.5059 124.013 53.4033 125.914C53.3007 127.815 50.4826 126.795 50.4826 126.795L49.0599 124.397L51.0298 121.273Z" fill="#DC46AA"/>
<path opacity="0.6" d="M51.0298 121.273C51.0298 121.273 54.6208 120.893 56.1085 121.273C56.1085 121.273 53.5059 124.013 53.4033 125.914C53.3007 127.815 50.4826 126.795 50.4826 126.795L49.0599 124.397L51.0298 121.273Z" fill="white"/>
<path d="M70.9205 86.5485C70.9205 86.5485 73.4752 91.2513 73.4068 93.9914C73.4068 93.9914 77.1688 95.7965 78.9609 99.2457C80.753 102.695 82.4083 109.734 83.5711 111.436L82.6271 113.792C82.6271 113.792 79.491 108.151 78.8651 106.85C78.2393 105.548 76.1668 98.3825 70.086 96.6288C70.086 96.6288 68.9403 91.104 66.9738 89.5798C66.967 89.5798 67.822 86.5245 70.9205 86.5485Z" fill="#DC46AA"/>
<path opacity="0.6" d="M71.1018 86.7471C71.1018 86.7471 73.6531 91.4465 73.5881 94.1867C73.5881 94.1867 77.3501 95.9952 79.1388 99.4443C80.9274 102.894 82.5109 109.504 83.6737 111.203L82.593 113.899C82.593 113.899 79.6723 108.346 79.0396 107.048C78.4069 105.75 76.3412 98.5812 70.2605 96.8275C70.2605 96.8275 69.1113 91.3026 67.1448 89.7819C67.1448 89.7784 67.9998 86.7197 71.1018 86.7471Z" fill="white"/>
<path d="M67.5107 73.5739C67.5107 73.5739 65.2399 80.1708 59.72 80.7668C59.72 80.7668 59.5285 82.0683 60.9272 83.8769C60.9272 83.8769 58.5332 82.5068 56.9224 78.8761C56.9224 78.8761 59.8431 76.6805 59.8363 75.4029C59.8294 74.1253 63.6188 71.6352 63.6188 71.6352L67.822 69.6349" fill="#DC46AA"/>
<path opacity="0.6" d="M67.5107 73.5739C67.5107 73.5739 65.2399 80.1708 59.72 80.7668C59.72 80.7668 59.5285 82.0683 60.9272 83.8769C60.9272 83.8769 58.5332 82.5068 56.9224 78.8761C56.9224 78.8761 59.8431 76.6805 59.8363 75.4029C59.8294 74.1253 63.6188 71.6352 63.6188 71.6352L67.822 69.6349" fill="white"/>
<path d="M38.8409 100.616C38.8409 100.616 42.1651 94.9608 42.7773 93.2482C43.3895 91.5356 45.934 83.6371 47.986 81.7156C50.038 79.794 51.406 78.4 56.8301 78.6877C56.8301 78.6877 58.8821 83.435 61.4095 84.0173C64.1968 84.4181 65.257 83.6577 65.3425 81.9451C65.6536 82.2051 66.038 82.3613 66.442 82.392C66.846 82.4227 67.2495 82.3263 67.5962 82.1163C67.5962 82.1163 70.1202 85.0791 70.9205 86.5485C70.9205 86.5485 67.9177 87.1445 66.8951 89.2681L66.1222 88.6447C66.1222 88.6447 61.3342 88.5386 58.01 93.1763C58.01 93.1763 60.7768 96.8652 61.7309 97.7934C61.7309 97.7934 56.1256 102.979 53.4032 103.366L53.3246 106.449C53.3246 106.449 46.1699 111.148 38.8409 100.616Z" fill="#DC46AA"/>
<path opacity="0.2" d="M56.43 91.2513C56.43 91.2513 52.7056 91.5082 51.023 92.1385L53.1365 92.7516L51.6728 93.6901C51.6728 93.6901 54.7508 92.7413 55.7255 93.2962C56.6188 94.901 57.8373 96.301 59.3028 97.4064C59.3028 97.4064 52.1208 102.842 47.815 101.537C48.6473 102.063 49.5172 102.527 50.4176 102.924L50.7083 106.35L53.4033 106.87V103.366C53.4033 103.366 59.2959 100.777 61.731 97.7935C61.731 97.7935 57.798 93.601 56.43 91.2513Z" fill="#0E1825"/>
<path d="M68.9061 74.759C68.8309 75.1015 68.8856 75.4441 69.0327 75.468C69.1797 75.492 69.3747 75.2351 69.4397 74.872C69.5046 74.509 69.4602 74.187 69.3131 74.163C69.1661 74.1391 68.9848 74.3994 68.9061 74.759Z" fill="#0E1825"/>
<path d="M70.3049 73.4232C70.3049 73.4232 69.5354 72.4196 68.5367 73.4883" stroke="#0E1825" stroke-linecap="round" stroke-linejoin="round"/>
<path d="M69.9561 69.7068C69.9561 69.7068 70.7564 71.8338 70.6948 72.6799C70.6374 73.795 70.7527 74.9123 71.0368 75.992C71.3343 76.9751 71.4575 77.7971 70.0108 77.5025C69.493 78.8126 68.8921 80.0883 68.2119 81.3216C67.4903 82.5067 66.5805 82.8869 64.6551 81.4929L63.2255 83.2055" stroke="#0E1825" stroke-linecap="round" stroke-linejoin="round"/>
<path d="M65.9102 74.9953C65.9102 74.9953 67.4868 74.3103 67.5347 73.0806C67.5826 71.851 66.9978 70.6282 69.2447 70.5597C71.4916 70.4912 72.7741 70.3747 73.4684 69.0252C74.1627 67.6757 71.5942 67.4873 71.5942 67.4873C71.5942 67.4873 72.846 66.011 72.2064 64.6478C71.5669 63.2846 61.3548 63.8806 58.116 66.4358C54.8773 68.991 58.9539 75.6632 59.9491 76.5024C60.9444 77.3416 63.5914 76.3072 63.5914 76.3072C63.5914 76.3072 62.6099 74.3171 63.523 73.454C64.4362 72.5908 65.7939 73.1628 65.9102 74.9953Z" fill="#0E1825"/>
<path d="M66.8712 77.4478C66.9505 77.8869 67.1473 78.2963 67.4406 78.6323C67.7339 78.9683 68.1127 79.2183 68.5368 79.3556" stroke="#0E1825" stroke-linecap="round" stroke-linejoin="round"/>
<path d="M66.4027 88.8571C66.7037 87.6652 67.1688 86.4355 66.8712 84.2434" stroke="#0E1825" stroke-linecap="round" stroke-linejoin="round"/>
<path d="M53.4033 106.339V103.366C53.4033 103.366 57.8698 102.137 61.731 97.7935" stroke="#0E1825" stroke-linecap="round" stroke-linejoin="round"/>
<path d="M56.9566 78.6877C55.2022 78.4445 51.6283 78.2253 49.1727 80.4551C45.8998 83.4247 44.4018 88.6105 43.174 92.1967C42.2951 94.7587 40.845 97.1529 39.5112 99.4923C37.9004 102.318 35.7048 104.925 35.1541 108.223C34.3949 112.744 37.2061 116.951 41.2075 118.619" stroke="#0E1825" stroke-linecap="round" stroke-linejoin="round"/>
<path d="M59.1113 112.765C46.854 111.203 37.7568 121.845 37.7568 121.845C37.6234 122.102 35.568 126.082 39.908 124.76C40.6706 124.527 41.358 124.287 42.0113 124.058C45.2158 122.934 50.0243 120.29 56.4163 121.318C59.3062 121.773 61.5908 121.489 64.6243 119.728C65.6878 119.088 66.5651 118.18 67.1688 117.094C69.3439 113.327 64.956 109.559 61.4163 108.189C57.432 106.627 52.9279 106.247 48.6803 106.346" stroke="#0E1825" stroke-linecap="round" stroke-linejoin="round"/>
<path d="M55.9341 113.847C57.1932 113.81 58.4529 113.894 59.6961 114.097" stroke="#0E1825" stroke-linecap="round" stroke-linejoin="round"/>
<path d="M51.9839 114.943C51.9839 114.943 52.6235 114.323 54.3779 114.012" stroke="#0E1825" stroke-linecap="round" stroke-linejoin="round"/>
<path d="M47.2507 133.607C47.1378 135.395 42.2507 136.32 38.9469 134.402C35.6432 132.484 37.7534 129.84 36.6316 128.384C35.5646 127.014 34.5317 123.15 37.9654 121.612C37.8286 121.869 36.1015 125.038 39.9011 124.774C40.6946 124.719 41.3512 124.301 42.0044 124.072C42.0591 125.668 42.2643 129.237 42.9757 130.103C43.9025 131.227 47.3636 131.823 47.2507 133.607Z" fill="#0E1825"/>
<path d="M67.1688 112.642C68.8788 111.09 70.2228 108.158 70.3288 106.843" stroke="#0E1825" stroke-linecap="round" stroke-linejoin="round"/>
<path d="M55.209 102.64C58.9505 102 64.4636 101.212 67.6134 102.914" stroke="#0E1825" stroke-linecap="round" stroke-linejoin="round"/>
<path d="M62.1106 108.48C62.1106 108.48 65.5853 107.274 67.9246 108.035" stroke="#0E1825" stroke-linecap="round" stroke-linejoin="round"/>
<path d="M64.3439 85.8121C64.8271 86.7923 65.4241 87.712 66.1223 88.5523C67.863 90.4464 69.9629 94.4882 70.0792 96.6426C71.6552 97.2051 73.0993 98.0853 74.3222 99.2288C75.5452 100.372 76.521 101.755 77.1894 103.291C79.4329 108.501 83.6463 115.776 83.6463 115.776C83.6463 115.776 87.3741 115.882 90.6676 115.968C92.4973 116.653 93.6327 120.109 93.1745 120.211C92.7162 120.314 91.8988 119.222 91.0712 118.382C90.2435 117.543 89.9118 117.437 89.9118 117.437C89.9118 117.437 92.2613 120.746 91.7859 120.801C91.3106 120.855 90.4487 119.944 89.5424 118.91C88.6361 117.875 87.87 118.197 87.87 118.197C87.87 118.197 91.0062 121.729 89.9391 121.66C88.8721 121.592 86.9911 118.995 86.9911 118.995C85.9389 119.327 84.8523 119.538 83.7524 119.622C83.3558 119.633 82.9616 119.558 82.596 119.404C82.2304 119.25 81.9018 119.019 81.632 118.728C81.632 118.728 75.582 110.371 71.4506 107.576C67.3193 104.781 67.4526 101.928 67.4526 101.928C62.0217 99.6842 57.9963 93.1249 56.6625 91.5082C56.4769 91.2852 56.272 91.0789 56.0504 90.8917" stroke="#0E1825" stroke-linecap="round" stroke-linejoin="round"/>
<path d="M83.9541 111.713C82.8118 108.973 80.7735 104.64 79.7646 101.366C79.2644 99.7668 78.4422 98.2873 77.3486 97.019C76.2551 95.7506 74.9136 94.7202 73.4068 93.9915C73.5231 91.8336 71.8678 87.5898 70.3288 85.521C70.3288 85.521 68.7898 83.2295 67.5073 82.1163" stroke="#0E1825" stroke-linecap="round" stroke-linejoin="round"/>
<path d="M56.9567 78.6876C56.9567 78.6876 59.2857 77.9855 59.9492 74.9199" stroke="#0E1825" stroke-linecap="round" stroke-linejoin="round"/>
<path d="M52.4183 113.06C52.4183 113.06 53.1502 107.579 57.5688 106.894L48.7828 106.178C48.7828 106.178 43.434 107.665 38.8409 100.623C38.8409 100.623 34.648 106.356 35.031 110.254C35.4141 114.152 38.1295 117.41 41.2075 118.626C41.2075 118.619 47.237 113.481 52.4183 113.06Z" fill="#0E1825"/>
<path d="M54.1009 91.6589C52.6733 91.7599 51.2619 92.0242 49.8943 92.4467" stroke="#0E1825" stroke-linecap="round" stroke-linejoin="round"/>
<path d="M54.72 92.1384L53.1946 92.8714" stroke="#0E1825" stroke-linecap="round" stroke-linejoin="round"/>
<path d="M57.9587 93.2482C57.9587 93.2482 60.9888 88.727 66.1222 88.5386" stroke="#0E1825" stroke-linecap="round" stroke-linejoin="round"/>
<path d="M52.4183 103.051C52.4183 103.051 49.9764 103.527 46.6624 100.605" stroke="#0E1825" stroke-linecap="round" stroke-linejoin="round"/>
<path d="M49.761 123.191C49.761 123.191 47.4696 126.757 48.1775 127.545C49.5455 129.052 50.4279 129.179 51.7035 131.819C52.8663 134.217 57.3294 133.994 59.7097 133.58C61.0401 133.35 62.1037 133.124 61.3035 131.456C61.0884 131.027 60.7883 130.645 60.4214 130.336C60.0545 130.026 59.6285 129.794 59.1694 129.655C55.9888 128.627 54.3164 126.555 53.8068 124.572C53.8068 124.572 53.6256 126.781 49.761 123.191Z" fill="#0E1825"/>
<path opacity="0.2" d="M60.7358 75.8174C59.337 74.4062 59.2959 71.9949 60.3425 70.3062C61.389 68.6176 63.311 67.6175 65.2707 67.2955C66.2659 67.1311 67.2919 67.1208 68.2734 66.8845C68.649 66.8117 69.0012 66.6482 69.2994 66.4084C69.4463 66.286 69.5562 66.1249 69.6166 65.9434C69.677 65.7618 69.6856 65.567 69.6414 65.3808C69.5593 65.1894 69.4262 65.0243 69.2567 64.9035C69.0872 64.7827 68.8879 64.7108 68.6804 64.6958C68.2631 64.6667 67.8441 64.677 67.4287 64.7266" stroke="white" stroke-linecap="round" stroke-linejoin="round"/>
<path d="M65.4348 99.2457C66.2041 99.8071 67.042 100.268 67.928 100.616" stroke="#0E1825" stroke-linecap="round" stroke-linejoin="round"/>
<path d="M60.2227 93.2482C61.2535 95.0661 62.5543 96.7165 64.0805 98.1428" stroke="#0E1825" stroke-linecap="round" stroke-linejoin="round"/>
<path d="M66.967 89.2681C67.3366 88.4936 67.907 87.8326 68.6186 87.3543C69.3303 86.8759 70.1571 86.5976 71.0128 86.5485" stroke="#0E1825" stroke-linecap="round" stroke-linejoin="round"/>
<path d="M56.8301 78.6877C56.8301 78.6877 59.3985 84.8531 63.1092 84.2434C65.5921 83.8324 65.2399 81.8869 65.2399 81.8869" stroke="#0E1825" stroke-linecap="round" stroke-linejoin="round"/>
<path opacity="0.2" d="M42.7055 130.206C42.7055 130.206 41.0194 129.603 38.5297 131.213" stroke="white" stroke-linecap="round" stroke-linejoin="round"/>
<path d="M53.4033 125.589C53.4033 125.589 54.378 122.486 56.4094 121.318" stroke="#0E1825" stroke-linecap="round" stroke-linejoin="round"/>
<path d="M49.5934 123.695L50.9545 121.273" stroke="#0E1825" stroke-linecap="round" stroke-linejoin="round"/>
<path opacity="0.2" d="M53.4033 129.381C53.4033 129.381 54.6208 128.38 56.772 128.517" stroke="white" stroke-linecap="round" stroke-linejoin="round"/>
</svg>
