<svg width="6" height="6" viewBox="0 0 6 6" fill="none" xmlns="http://www.w3.org/2000/svg">
<path fill-rule="evenodd" clip-rule="evenodd" d="M2.78833 0.00294503C2.76572 0.00559837 2.69701 0.0132062 2.63564 0.019863C2.24812 0.0618938 1.81898 0.20724 1.4727 0.413767C1.03198 0.6766 0.673777 1.03465 0.410828 1.47517C0.205903 1.81848 0.0697952 2.21743 0.0142621 2.63761C-0.00475403 2.78146 -0.00475403 3.22166 0.0142621 3.36551C0.0697952 3.78569 0.205903 4.18464 0.410828 4.52795C0.673777 4.96847 1.03198 5.32652 1.4727 5.58935C1.81615 5.79419 2.21528 5.93024 2.63564 5.98574C2.77956 6.00475 3.21995 6.00475 3.36387 5.98574C4.09524 5.88916 4.71519 5.56807 5.22114 5.02383C5.50105 4.72273 5.72003 4.34822 5.85442 3.94079C5.96036 3.61963 6 3.3639 6 3.00156C6 2.7335 5.98868 2.61508 5.94054 2.37932C5.77549 1.57097 5.25592 0.848597 4.52681 0.413767C4.18686 0.211021 3.78147 0.0720962 3.37561 0.0192408C3.2726 0.00583318 2.86116 -0.00559027 2.78833 0.00294503ZM2.02723 1.71117C2.11258 1.72872 2.26479 1.80401 2.33845 1.86511C2.50139 2.00028 2.60234 2.20461 2.60506 2.40475C2.60605 2.47853 2.60192 2.50061 2.58206 2.52729C2.52081 2.60962 2.44462 2.63177 2.36135 2.59148C2.29184 2.55784 2.2733 2.52639 2.25446 2.41008C2.24581 2.35662 2.22522 2.28624 2.2087 2.25367C2.09631 2.03196 1.78217 1.98087 1.60315 2.15517C1.52802 2.22831 1.49861 2.28866 1.48246 2.4028C1.46602 2.51897 1.44106 2.56176 1.37189 2.59235C1.30056 2.62388 1.23479 2.61335 1.18362 2.5622C1.13363 2.51223 1.12066 2.45932 1.13252 2.3538C1.15241 2.17695 1.21628 2.04762 1.34958 1.91442C1.45139 1.81266 1.55716 1.75024 1.68425 1.71687C1.76196 1.69648 1.94125 1.69349 2.02723 1.71117ZM4.30986 1.71616C4.54989 1.77715 4.75793 1.97145 4.83763 2.20908C4.86538 2.29183 4.87922 2.43054 4.86489 2.4824C4.83615 2.58646 4.72784 2.63665 4.62762 2.59235C4.55845 2.56176 4.53349 2.51897 4.51705 2.4028C4.5009 2.28866 4.47149 2.22831 4.39636 2.15517C4.21734 1.98087 3.9032 2.03196 3.79081 2.25367C3.77429 2.28624 3.7537 2.35662 3.74505 2.41008C3.72621 2.52639 3.70767 2.55784 3.63816 2.59148C3.55489 2.63177 3.4787 2.60962 3.41745 2.52729C3.39759 2.50061 3.39346 2.47853 3.39445 2.40475C3.39717 2.20455 3.49834 1.99982 3.66105 1.86527C3.73432 1.80469 3.86835 1.73605 3.9537 1.71538C4.04068 1.69433 4.22554 1.69473 4.30986 1.71616ZM1.5032 3.43006C1.52982 3.45035 1.55434 3.49171 1.59038 3.57708C1.79534 4.06257 2.22551 4.40781 2.73934 4.49917C2.87147 4.52266 3.12804 4.52266 3.26017 4.49917C3.6139 4.43628 3.93124 4.25341 4.16059 3.9803C4.26999 3.85004 4.34904 3.72124 4.40927 3.57511C4.47796 3.40845 4.55637 3.35948 4.6724 3.41077C4.78694 3.46142 4.80068 3.56053 4.71903 3.74708C4.62132 3.97029 4.49824 4.14771 4.31591 4.32823C3.99087 4.65001 3.58142 4.83688 3.13597 4.86676C2.78717 4.89016 2.46932 4.82732 2.16181 4.67414C1.9849 4.58601 1.83304 4.47617 1.6836 4.32823C1.50126 4.14771 1.37819 3.97029 1.28048 3.74708C1.19997 3.56313 1.21276 3.46289 1.32332 3.4115C1.38463 3.38299 1.45036 3.38977 1.5032 3.43006Z" fill="white"/>
</svg>
