<svg width="28" height="24" viewBox="0 0 28 24" fill="none" xmlns="http://www.w3.org/2000/svg">
<path d="M27.3692 13.644L0 13.2286L0.0136846 15.3417C0.0273692 15.8191 0.299451 16.298 0.88306 16.6554L6.44303 20.0589L12.0038 23.4615C13.2322 24.2142 15.3404 24.1441 16.4513 23.4615C17.5646 22.7813 17.0084 22.4416 18.12 21.7598C19.2317 21.0804 19.7871 21.4201 20.9004 20.7407C22.0137 20.0581 26.462 17.338 26.462 17.338C27.0746 16.9629 27.3805 16.4711 27.3821 15.9784L27.3692 13.644Z" fill="#F4900C"/>
<path d="M26.4621 12.1992C26.4621 12.1992 1.9956 10.8387 0.883125 11.5189C-0.229353 12.1992 -0.345269 13.4887 0.883125 14.2414L6.4431 17.6448L12.0039 21.0483C13.2323 21.8009 15.3405 21.7309 16.4514 21.0483C17.5647 20.3681 17.0084 20.0284 18.1201 19.3465C19.2318 18.6671 19.7872 19.0068 20.9005 18.3274C22.0138 17.6448 26.4613 14.924 26.4613 14.924C27.6897 14.1713 27.6905 12.951 26.4621 12.1992Z" fill="#FFAC33"/>
<path d="M7.42358 16.9652L13.1156 20.3687C13.1156 20.3687 14.2538 21.0481 15.392 20.3687C16.3556 19.7915 17.0994 18.6669 17.0994 18.6669L7.42358 16.9652Z" fill="#FFD983"/>
<path d="M26.3541 12.0735C24.7917 9.9894 4.86606 8.52192 1.74034 11.4561C1.10924 12.0493 -0.0829336 13.2431 1.18651 15.0294C1.74034 15.9647 2.88985 16.5741 3.04279 16.2851C3.3994 15.6073 4.111 15.0149 5.1784 15.072C5.11802 15.2153 5.69439 17.6536 5.62918 17.7083C4.88458 18.341 6.43174 20.5402 8.24455 19.369C8.69614 20.2609 11.429 22.4625 13.3151 19.4511C13.6902 20.1305 17.6298 21.1641 18.7237 18.0295C18.7149 18.0834 18.7173 18.1293 18.7028 18.1873C18.6312 18.469 19.284 18.7129 19.9489 18.4795C21.067 18.0883 22.6818 17.1167 22.9676 16.0501C23.7653 15.9108 24.3634 16.1322 24.8239 16.7407C25.0517 17.0418 25.8333 17.1142 26.1674 16.7206C26.7566 16.0291 27.7234 13.9008 26.3541 12.0735Z" fill="#77B255"/>
<path d="M24.1492 17.2866C24.1492 17.7124 23.428 18.0586 22.5393 18.0586H4.8298C3.94111 18.0586 3.21985 17.7124 3.21985 17.2866V12.0132H24.1492V17.2866Z" fill="#FFCC4D"/>
<path d="M26.0097 13.2181C26.0097 15.4463 22.3181 17.2534 17.7652 17.2534C13.2106 17.2534 9.51978 15.4463 9.51978 13.2181C9.51978 10.9891 13.2106 9.18274 17.7652 9.18274C22.3181 9.18274 26.0097 10.9899 26.0097 13.2181Z" fill="#BE1931"/>
<path d="M27.3692 8.81417L0 8.3988V10.5119H0.0136846C0.0273692 10.9892 0.299451 11.4682 0.88306 11.8256L6.44303 15.229L12.0038 18.6317C13.2322 19.3843 15.3404 19.3143 16.4513 18.6317C17.5646 17.9515 17.0084 17.6118 18.12 16.9299C19.2317 16.2505 19.7871 16.5902 20.9004 15.9108C22.0137 15.2282 26.462 12.5082 26.462 12.5082C27.0746 12.1331 27.3805 11.6413 27.3821 11.1486V11.1446L27.3692 8.81417Z" fill="#F4900C"/>
<path d="M26.4621 7.36916L15.3413 0.563886C14.1129 -0.187962 12.1214 -0.187962 10.8922 0.563886L5.33143 3.96733C4.21975 4.64753 4.77519 4.98804 3.66352 5.66824C2.55184 6.34845 1.9956 6.00794 0.883125 6.68895C-0.229353 7.36916 -0.345269 8.65873 0.883125 9.41139L12.0039 16.2175C13.2323 16.9701 15.3405 16.9001 16.4514 16.2175C17.5647 15.5373 17.0084 15.1976 18.1201 14.5157C19.2318 13.8363 19.7872 14.176 20.9005 13.4966C22.0138 12.814 26.4613 10.0932 26.4613 10.0932C27.6897 9.34135 27.6905 8.12101 26.4621 7.36916Z" fill="#FFAC33"/>
<path d="M25.6384 8.05087L14.2536 1.24479C14.2536 1.24479 13.0405 0.608049 11.9764 1.24479L6.37211 4.5951C5.40855 5.17066 5.54057 5.77278 4.57701 6.34834C3.61426 6.9247 2.69417 6.79349 1.73061 7.36905C0.592377 8.05086 1.73061 8.73188 1.73061 8.73188L13.1146 15.538C13.1146 15.538 14.2528 16.2174 15.3911 15.538C16.3546 14.9608 16.1365 14.4134 17.0984 13.8362C18.062 13.2591 19.0682 13.338 20.0318 12.7624C20.9953 12.1876 25.6368 9.41128 25.6368 9.41128C25.6368 9.41128 26.7018 8.68599 25.6384 8.05087Z" fill="#FFD983"/>
</svg>
