<svg width="22" height="24" viewBox="0 0 22 24" fill="none" xmlns="http://www.w3.org/2000/svg">
<path d="M18.0566 15.5741C17.7573 15.3621 17.6866 14.9434 17.8986 14.6447L19.056 13.0134C19.268 12.7141 19.6866 12.6434 19.9853 12.8554C20.2846 13.0674 20.3553 13.4861 20.1433 13.7847L18.986 15.4161C18.774 15.7147 18.356 15.7861 18.0566 15.5741Z" fill="#66757F"/>
<path d="M9.7865 0C14.4532 0 21.1198 1.33333 21.1198 8C21.1198 12.6667 15.7865 19.3333 11.7865 19.3333C7.7865 19.3333 9.7865 0 9.7865 0Z" fill="#99AAB5"/>
<path d="M17.1199 10C16.4533 14 14.0539 15.398 13.1199 18.6667C11.7866 23.3334 8.45327 24 5.7866 24C1.11994 24 3.21594 19.6214 1.11994 13.3334C-0.880062 7.33335 -0.690729 2.73402 5.7866 1.33335C11.9533 1.87159e-05 18.2093 3.46269 17.1199 10Z" fill="#F3D2A2"/>
<path d="M13.7521 4.1405C11.9901 2.6885 9.14406 2.1285 6.3254 2.67917C4.72806 2.9905 3.52073 3.77517 2.73806 5.0105C1.06006 7.65917 1.98873 11.4225 2.0294 11.5812C2.12006 11.9378 2.4814 12.1558 2.8394 12.0632C3.19606 11.9725 3.41206 11.6098 3.3214 11.2532C3.31873 11.2425 3.23206 10.8898 3.1614 10.3478C3.20073 10.3452 3.2394 10.3525 3.2794 10.3425C5.31206 9.84184 6.69873 10.3085 7.08006 11.6238C7.4354 12.8512 6.78273 14.6325 5.45206 15.0778C4.78006 15.2538 3.86606 15.7425 3.50273 16.5438C3.3354 16.9132 3.21273 17.5078 3.58006 18.2432C3.69673 18.4772 3.93206 18.6118 4.17673 18.6118C4.27673 18.6118 4.37873 18.5892 4.47406 18.5412C4.8034 18.3765 4.93673 17.9758 4.77206 17.6465C4.62806 17.3585 4.6714 17.1938 4.71606 17.0945C4.87473 16.7452 5.43873 16.4592 5.83073 16.3552C7.98406 15.6378 8.89206 13.0898 8.36006 11.2532C7.9034 9.67584 6.2714 8.27584 3.07206 9.0245C3.06673 7.9685 3.23073 6.7245 3.86473 5.7245C4.4514 4.7985 5.34006 4.2305 6.58073 3.9885C9.02006 3.51317 11.4421 3.9665 12.9041 5.1705C13.9321 6.0165 14.4534 7.19317 14.4534 8.6665C14.4534 10.9865 13.7814 11.8372 12.8514 13.0145C12.5441 13.4032 12.2261 13.8052 11.8987 14.2965C11.6941 14.6032 11.7767 15.0165 12.0834 15.2212C12.1974 15.2965 12.3261 15.3332 12.4527 15.3332C12.6681 15.3332 12.8801 15.2292 13.0081 15.0365C13.3054 14.5898 13.6067 14.2098 13.8967 13.8418C14.8687 12.6112 15.7867 11.4498 15.7867 8.6665C15.7867 6.80184 15.0827 5.2365 13.7521 4.1405Z" fill="#D2A077"/>
<path d="M5.11983 15.3334C6.96078 15.3334 8.45317 13.841 8.45317 12.0001C8.45317 10.1591 6.96078 8.66675 5.11983 8.66675C3.27888 8.66675 1.7865 10.1591 1.7865 12.0001C1.7865 13.841 3.27888 15.3334 5.11983 15.3334Z" fill="#66757F"/>
<path d="M5.11975 14C6.22432 14 7.11975 13.1046 7.11975 12C7.11975 10.8954 6.22432 10 5.11975 10C4.01518 10 3.11975 10.8954 3.11975 12C3.11975 13.1046 4.01518 14 5.11975 14Z" fill="#99AAB5"/>
<path d="M5.12079 12.6667C5.07279 12.6667 5.02413 12.6613 4.97546 12.6507C2.18879 12.0313 0.532128 9.648 0.853461 6.71933C1.20946 3.48333 4.15613 0 9.78679 0C10.1548 0 10.4535 0.298667 10.4535 0.666667C10.4535 1.03467 10.1548 1.33333 9.78679 1.33333C4.95146 1.33333 2.48146 4.11133 2.17946 6.86467C1.99146 8.57533 2.68679 10.7767 5.26479 11.3493C5.62413 11.4293 5.85079 11.7853 5.77079 12.1447C5.70213 12.4553 5.42613 12.6667 5.12079 12.6667Z" fill="#CCD6DD"/>
</svg>
