<svg width="24" height="20" viewBox="0 0 24 20" fill="none" xmlns="http://www.w3.org/2000/svg">
<path fill-rule="evenodd" clip-rule="evenodd" d="M6.61374 0.0177464C5.72453 0.148699 4.99647 0.5984 4.51252 1.31569C4.14156 1.86555 4.00341 2.32093 4.00341 2.99425C4.00341 3.87053 4.27532 4.52424 4.89268 5.13206C6.05534 6.2768 7.91871 6.26626 9.07662 5.10829C10.8966 3.28835 9.74561 0.21924 7.16888 0.0210246C6.96012 0.00498471 6.71034 0.00352123 6.61374 0.0177464ZM16.5223 0.037006C15.1734 0.278365 14.1963 1.26885 14.0095 2.58447C13.7246 4.58945 15.5438 6.32978 17.5063 5.92966C18.971 5.63105 19.9348 4.47811 19.9371 3.02182C19.9383 2.27 19.7763 1.77604 19.3281 1.16559C18.7234 0.341822 17.5213 -0.141715 16.5223 0.037006ZM1.98941 9.98944L0 11.9795L0.701187 12.6825L1.40232 13.3854L2.6759 12.1128L3.94949 10.8403L3.96448 15.4055L3.97946 19.9707H4.97464H5.96981L5.98521 17.9643L6.0006 15.958L6.98038 15.974L7.96016 15.99L7.97555 17.995L7.99095 20H8.98536H9.97977V13.9997V7.99939H6.97927H3.97882L1.98941 9.98944ZM13.9404 8.1311C13.9225 8.20357 13.4841 10.1727 12.9662 12.5069C12.4483 14.8412 12.0106 16.7972 11.9934 16.8535C11.9646 16.9483 12.037 16.9559 12.9614 16.9559H13.9605V18.478V20H14.9546H15.9488L15.9644 18.4926L15.9801 16.9852L16.9596 16.9692L17.9392 16.9531L17.9548 18.4619L17.9704 19.9707H18.9656H19.9608L19.9764 18.4633L19.992 16.9559H20.9569C21.7023 16.9559 21.9218 16.9389 21.9218 16.881C21.9218 16.8397 21.6716 15.6811 21.3657 14.3061C21.0599 12.9313 20.8096 11.7734 20.8096 11.733C20.8096 11.6926 21.1985 12.0479 21.6739 12.5224L22.5382 13.3853L23.2392 12.6824L23.9402 11.9795L21.9508 9.98944L19.9614 7.99939H16.9673H13.9732L13.9404 8.1311Z" fill="black"/>
</svg>
