<svg width="36" height="35" viewBox="0 0 36 35" fill="none" xmlns="http://www.w3.org/2000/svg">
<path fill-rule="evenodd" clip-rule="evenodd" d="M18.4434 35C-6.0514 35 -4.94538 0 18.047 0C40.9602 0 40.8254 35 18.4434 35ZM30.1458 16.7329L23.7555 13.7954L23.2084 6.06524L28.0012 5.91064C25.579 3.73429 22.257 2.34285 18.0232 2.34285C17.6546 2.34285 17.2938 2.34285 16.941 2.37853L18.8716 4.69759L12.6359 9.22471L5.70248 8.32484C4.6074 9.86607 3.80147 11.5934 3.32396 13.4228L5.88087 19.3691L3.50235 22.481C4.41258 25.5169 6.32586 28.1541 8.92935 29.9615L12.3069 29.4105L14.9034 32.344C16.0449 32.5423 17.2016 32.6405 18.3602 32.6373C19.9593 32.6488 21.551 32.4189 23.0816 31.9555L23.478 26.0686L30.0308 21.3116L31.7354 23.7416C32.9788 20.5033 33.2178 16.9655 32.4212 13.5893L30.1458 16.7329ZM7.70044 19.6189L12.8539 12.5586L21.3452 15.3336V24.2927L13.1393 26.8694L7.70044 19.6189Z" fill="#0E1825"/>
</svg>
