<svg width="6" height="6" viewBox="0 0 6 6" fill="none" xmlns="http://www.w3.org/2000/svg">
<path fill-rule="evenodd" clip-rule="evenodd" d="M3.26867 0.026736C3.08507 0.0812105 3.15696 0.014577 1.5667 1.60434C-0.0543233 3.22485 0.0378005 3.12443 0.00690497 3.30458C-0.0106709 3.40707 0.00501724 3.50241 0.0572875 3.61071C0.090997 3.68056 0.186521 3.77938 1.20357 4.79643C2.22062 5.81348 2.31944 5.909 2.38929 5.94271C2.49759 5.99498 2.59293 6.01067 2.69542 5.9931C2.87527 5.96226 2.77613 6.05309 4.39017 4.44045C5.997 2.83502 5.9228 2.91551 5.97652 2.71984C6.00001 2.63432 6.00061 2.60527 6.00061 1.55187C6.00061 0.877599 5.99617 0.447864 5.98882 0.408433C5.9519 0.210608 5.78992 0.0489901 5.5907 0.011212C5.55151 0.00377832 5.12565 -0.000372344 4.44251 2.63075e-05L3.35661 0.000647735L3.26867 0.026736ZM4.6405 1.02209C4.87527 1.0925 5.02645 1.32857 4.99216 1.57121C4.96196 1.78488 4.78449 1.96235 4.57081 1.99256C4.2439 2.03877 3.96123 1.7561 4.00744 1.42919C4.04925 1.13342 4.35535 0.936576 4.6405 1.02209Z" fill="white"/>
</svg>
