<svg width="52" height="52" viewBox="0 0 52 52" fill="none" xmlns="http://www.w3.org/2000/svg">
<path d="M26 8.8618C26 7.44879 27.1502 6.28621 28.5513 6.46923C32.2402 6.95108 35.7362 8.47101 38.6194 10.8768C42.1607 13.8317 44.5527 17.9356 45.3786 22.4733C46.2045 27.0109 45.4118 31.6945 43.1388 35.7076C40.8657 39.7208 37.2565 42.8091 32.94 44.4341C28.6236 46.0592 23.8738 46.118 19.5185 44.6003C15.1632 43.0826 11.4785 40.0847 9.10682 36.1291C6.7351 32.1734 5.8267 27.5109 6.53997 22.9542C7.12067 19.2444 8.7463 15.7962 11.2015 13.0012C12.134 11.9396 13.7654 12.0549 14.6972 13.1171C15.6291 14.1793 15.5019 15.7843 14.6188 16.8873C13.0397 18.8595 11.9906 21.2206 11.5954 23.7455C11.0674 27.1185 11.7398 30.5697 13.4954 33.4978C15.251 36.4258 17.9784 38.6449 21.2023 39.7683C24.4262 40.8918 27.9421 40.8482 31.1371 39.6453C34.3322 38.4424 37.0039 36.1564 38.6864 33.1858C40.3689 30.2152 40.9557 26.7484 40.3443 23.3895C39.733 20.0307 37.9624 16.9929 35.3411 14.8056C33.3788 13.1683 31.033 12.0852 28.5454 11.6442C27.1541 11.3975 26 10.2748 26 8.8618Z" fill="#51D2DA"/>
<path d="M26 14.7862C26 13.5821 26.9824 12.5879 28.1706 12.783C29.2225 12.9558 30.2525 13.2539 31.2383 13.6728C32.895 14.3768 34.3928 15.4075 35.6422 16.7034C36.8916 17.9992 37.867 19.5336 38.51 21.2148C39.1531 22.8961 39.4507 24.6897 39.3851 26.4886C39.3194 28.2874 38.8918 30.0546 38.1278 31.6845C37.3639 33.3144 36.2792 34.7736 34.9386 35.9748C33.5981 37.1761 32.0291 38.0949 30.3255 38.6762C29.3118 39.0221 28.2627 39.2443 27.2011 39.3399C26.0019 39.4479 25.0946 38.3847 25.1824 37.1839C25.2702 35.983 26.3267 35.1076 27.5137 34.9058C27.9893 34.825 28.4587 34.706 28.9174 34.5495C30.0664 34.1574 31.1246 33.5378 32.0287 32.7276C32.9329 31.9174 33.6644 30.9332 34.1797 29.8339C34.695 28.7346 34.9833 27.5428 35.0276 26.3295C35.0719 25.1163 34.8712 23.9065 34.4375 22.7726C34.0037 21.6387 33.3459 20.6038 32.5032 19.7298C31.6606 18.8558 30.6504 18.1607 29.533 17.6858C29.087 17.4963 28.6275 17.3434 28.1591 17.2281C26.9899 16.9404 26 15.9902 26 14.7862Z" fill="white"/>
<path d="M26 2.69813C26 1.20799 27.2114 -0.0145095 28.6935 0.139826C34.3219 0.72592 39.6334 3.13713 43.7949 7.04373C48.6153 11.5687 51.5307 17.7602 51.9481 24.3584C52.3656 30.9567 50.2536 37.4662 46.042 42.5626C42.4059 46.9625 37.4407 50.0238 31.931 51.3146C30.4801 51.6544 29.1243 50.5943 28.9366 49.1161C28.7488 47.6378 29.8024 46.3046 31.2434 45.9254C35.3922 44.8337 39.1209 42.4665 41.8823 39.125C45.2198 35.0864 46.8934 29.9279 46.5626 24.6991C46.2318 19.4703 43.9215 14.5639 40.1016 10.9781C36.9412 8.01126 32.9438 6.13279 28.6906 5.57263C27.2132 5.37805 26 4.18826 26 2.69813Z" fill="#DC46AA"/>
</svg>
