<svg width="17" height="14" viewBox="0 0 17 14" fill="none" xmlns="http://www.w3.org/2000/svg">
<path fill-rule="evenodd" clip-rule="evenodd" d="M7.76836 0.035826C7.48032 0.0840048 7.10321 0.220415 6.82049 0.378689C6.45751 0.581885 5.96108 1.07173 5.76504 1.42021C5.11695 2.57205 5.30157 3.9604 6.22571 4.88453C6.77447 5.43333 7.45859 5.71567 8.23941 5.71567C9.02024 5.71567 9.70435 5.43333 10.2531 4.88453C11.1773 3.9604 11.3619 2.57205 10.7138 1.42021C10.5177 1.07173 10.0213 0.581885 9.65833 0.378689C9.08428 0.0573355 8.39133 -0.0683679 7.76836 0.035826ZM2.66744 2.74245C2.03012 2.9094 1.48226 3.38906 1.23162 3.99952C1.11218 4.29033 1.0758 4.48385 1.07619 4.826C1.07661 5.17164 1.13904 5.44278 1.29067 5.75704C1.55559 6.3062 2.08868 6.73687 2.69272 6.88976C2.96622 6.95896 3.4512 6.95735 3.72467 6.88631C4.20175 6.76235 4.70572 6.40742 4.97893 6.00297C5.41441 5.35833 5.45704 4.50255 5.08886 3.79635C4.92469 3.48145 4.53297 3.08973 4.21806 2.92555C3.74843 2.68073 3.16568 2.61191 2.66744 2.74245ZM12.7289 2.74245C12.1825 2.88557 11.6436 3.30976 11.39 3.79635C11.0953 4.36147 11.0593 5.02172 11.2911 5.60477C11.534 6.21561 12.1081 6.71846 12.7542 6.88631C13.0276 6.95735 13.5126 6.95896 13.7861 6.88976C14.5475 6.69704 15.1538 6.09065 15.3497 5.32585C15.4102 5.0896 15.4195 4.60804 15.3681 4.37037C15.1991 3.5878 14.5744 2.93932 13.7987 2.74093C13.4766 2.65857 13.0467 2.65915 12.7289 2.74245ZM6.2884 6.36898C5.79884 6.48024 5.47561 6.66073 5.1084 7.02791C4.80279 7.33356 4.63784 7.59622 4.5024 7.99291L4.418 8.24015L4.40946 10.949C4.40107 13.6117 4.40201 13.6597 4.4656 13.7629C4.50117 13.8208 4.57757 13.8969 4.63539 13.9321C4.73855 13.995 4.80479 13.9962 8.23941 13.9962C11.674 13.9962 11.7403 13.995 11.8434 13.9321C11.9013 13.8969 11.9777 13.8208 12.0132 13.7629C12.0768 13.6597 12.0778 13.6117 12.0694 10.949L12.0608 8.24015L11.9764 7.99291C11.841 7.59622 11.676 7.33356 11.3704 7.02791C11.0646 6.72213 10.8017 6.55709 10.4054 6.4221L10.1582 6.3379L8.32003 6.33145C6.86561 6.32638 6.44148 6.33422 6.2884 6.36898ZM2.05279 7.58151C1.13027 7.70119 0.366114 8.36082 0.0757187 9.28822C0.000322482 9.52905 0 9.5373 0 11.207V12.8839L0.0747513 13.069C0.226124 13.4438 0.537158 13.7547 0.911334 13.9053C1.09147 13.9778 1.12894 13.9801 2.31207 13.9899L3.52769 14L3.49016 13.8934C3.43969 13.7501 3.41657 8.82504 3.46429 8.38527C3.48258 8.21677 3.52137 7.99184 3.55049 7.88542C3.57961 7.779 3.61064 7.6593 3.61944 7.61937L3.63544 7.54682L2.94642 7.55091C2.56744 7.55317 2.1653 7.56694 2.05279 7.58151ZM12.8594 7.61937C12.8682 7.6593 12.8992 7.779 12.9283 7.88542C12.9575 7.99184 12.9962 8.21677 13.0145 8.38527C13.0623 8.82504 13.0391 13.7501 12.9887 13.8934L12.9511 14L14.1668 13.9899C15.3499 13.9801 15.3874 13.9778 15.5675 13.9053C15.9417 13.7547 16.2527 13.4438 16.4041 13.069L16.4788 12.8839V11.207C16.4788 9.5336 16.4787 9.52956 16.4026 9.28822C16.1581 8.51284 15.6132 7.94044 14.8829 7.69206C14.556 7.58087 14.2283 7.54682 13.4849 7.54682H12.8434L12.8594 7.61937Z" fill="#0E1825"/>
</svg>
