<svg width="25" height="26" viewBox="0 0 25 26" fill="none" xmlns="http://www.w3.org/2000/svg">
<path fill-rule="evenodd" clip-rule="evenodd" d="M17.4831 26L7.42112 25.6724L7.56026 23.6809C3.3482 22.1851 0 18.5383 0 12.7666C3.06701 12.7666 20.1153 12.4912 24.3853 12.4912C24.3853 18.1614 21.3067 21.8024 17.3382 23.4432L17.4831 26ZM17.2338 10.3171C17.4989 10.017 17.6976 9.66441 17.817 9.28225C17.9364 8.9001 17.9738 8.49704 17.9266 8.09945C17.715 6.75438 16.8019 6.88483 16.3236 5.36002C15.9438 4.14539 16.9932 2.24663 18.1238 1.41465L19.0862 2.3191C18.3992 2.88148 18.4078 3.70476 18.6282 4.41208C19.0166 5.6557 19.9935 5.61802 20.2225 7.195C20.411 8.5024 19.4804 10.4504 18.1933 11.1752L17.2338 10.3171ZM10.9461 9.84747C11.5926 9.21552 12.0506 8.14294 11.8767 7.39213C11.5607 6.04705 9.92864 5.73977 9.55759 4.18307C9.22422 2.75973 10.462 0.834876 11.5868 0L12.5492 0.904448C12.227 1.18647 11.991 1.5538 11.8684 1.9641C11.7458 2.3744 11.7417 2.81098 11.8564 3.22355C12.1463 4.49035 13.787 4.8991 14.1552 6.47608C14.4451 7.76318 13.1783 9.95473 11.8999 10.691L10.9461 9.84747ZM4.56863 10.3171C4.83469 10.0176 5.03426 9.66509 5.15419 9.28284C5.27411 8.90059 5.31165 8.49727 5.26435 8.09945C5.05274 6.75438 4.13959 6.88483 3.65838 5.36002C3.28153 4.15409 4.33092 2.24663 5.46148 1.41465L6.42101 2.3191C5.73687 2.88148 5.74557 3.70476 5.96588 4.41208C6.35433 5.6557 7.33125 5.61802 7.56026 7.195C7.74869 8.5024 6.81525 10.4504 5.53105 11.1752L4.56863 10.3171Z" fill="black"/>
</svg>
