<svg width="15" height="17" viewBox="0 0 15 17" fill="none" xmlns="http://www.w3.org/2000/svg">
<path fill-rule="evenodd" clip-rule="evenodd" d="M6.87878 0.0630314C6.80566 0.0975331 6.61869 0.241157 6.4633 0.382222C5.5379 1.22226 4.51645 1.78865 3.31869 2.12582C2.6383 2.31738 1.61132 2.45651 0.852482 2.45994C0.380261 2.46206 0.212971 2.53652 0.0714406 2.80748C0.00296892 2.93854 0.00197172 2.97364 0.000176836 5.26714C-0.00175101 7.78603 0.00878558 7.99238 0.201337 9.20592C0.801561 12.9886 2.85392 15.4441 6.59396 16.8542C7.14855 17.0633 7.14041 17.0639 7.93671 16.7483C9.01194 16.3222 10.0452 15.733 10.8419 15.0915C11.2738 14.7437 11.9609 14.0333 12.2969 13.5871C13.199 12.389 13.7657 10.9687 14.0582 9.17268C14.2457 8.02126 14.2579 7.77998 14.256 5.26714C14.2542 2.94675 14.254 2.94007 14.1821 2.80233C14.0952 2.6358 13.9747 2.53552 13.813 2.49514C13.7469 2.47862 13.4459 2.45668 13.1443 2.44638C10.9921 2.37282 9.22125 1.6898 7.79285 0.382289C7.3758 0.000542716 7.16627 -0.0726488 6.87878 0.0630314ZM9.97533 6.3005C10.1918 6.53064 10.3734 6.73137 10.379 6.74653C10.3846 6.76172 9.54237 7.57181 8.50735 8.54677C6.59552 10.3476 6.4512 10.4686 6.21401 10.4678C5.97346 10.4671 5.87378 10.3787 4.91757 9.318C4.40879 8.75361 3.96591 8.26185 3.93341 8.22518C3.8756 8.15994 3.88358 8.15036 4.31293 7.77128C4.55414 7.55832 4.76168 7.37889 4.77415 7.37261C4.78658 7.36633 5.12033 7.72016 5.51583 8.15891C5.91131 8.59766 6.25264 8.95976 6.27431 8.96361C6.29598 8.96744 7.03916 8.27654 7.9258 7.42829C8.81244 6.58 9.54778 5.88508 9.55985 5.88402C9.57195 5.88295 9.75891 6.07035 9.97533 6.3005Z" fill="#DC46AA"/>
</svg>
