<svg width="15" height="15" viewBox="0 0 15 15" fill="none" xmlns="http://www.w3.org/2000/svg">
<path fill-rule="evenodd" clip-rule="evenodd" d="M7.32248 2.79961C3.47795 4.33865 0.290629 5.61977 0.239554 5.64655C-0.03623 5.7912 -0.084338 6.17266 0.149917 6.35748C0.241874 6.43003 5.35495 8.92577 5.41346 8.92668C5.42964 8.92692 7.45173 6.91822 9.90703 4.46289C12.3623 2.00756 14.358 -0.000734048 14.3419 2.01272e-07C14.3257 0.000763821 11.167 1.26056 7.32248 2.79961ZM10.5252 5.10765L6.0648 9.56809L6.12656 9.71018C6.31347 10.1403 8.58148 14.7721 8.64401 14.8515C8.77685 15.0201 9.05713 15.0505 9.22935 14.915C9.27185 14.8816 9.33171 14.8051 9.3624 14.7449C9.44108 14.5907 15.0077 0.669342 14.9955 0.657183C14.99 0.651691 12.9784 2.6544 10.5252 5.10765Z" fill="white"/>
</svg>
