<svg width="26" height="26" viewBox="0 0 26 26" fill="none" xmlns="http://www.w3.org/2000/svg">
<path fill-rule="evenodd" clip-rule="evenodd" d="M12.3287 0.877747C12.1975 0.944145 11.5661 1.41242 10.9257 1.91836L9.76127 2.83825L6.65534 2.85177L3.54936 2.86525L3.37184 2.97614C3.26761 3.04123 3.15306 3.17262 3.09438 3.29432C2.99754 3.49526 2.99445 3.57411 2.99445 5.83379V8.16589L2.13416 8.84432C1.22406 9.56195 1.08765 9.70381 0.880405 10.148L0.750702 10.426L0.737384 17.502C0.725273 23.9341 0.731208 24.597 0.802429 24.7859C0.913265 25.0801 1.09455 25.2768 1.37601 25.4084L1.61925 25.5222L13.0013 25.5227C21.8301 25.5231 24.4279 25.5099 24.5819 25.4639C24.8476 25.3847 25.2155 25.0149 25.2845 24.758C25.3211 24.6211 25.3329 22.4552 25.324 17.4944L25.3113 10.426L25.1794 10.1431C24.9724 9.69935 24.8094 9.53035 23.9097 8.82682L23.0676 8.16836V5.83501C23.0676 3.57406 23.0645 3.49526 22.9676 3.29432C22.909 3.17262 22.7944 3.04123 22.6902 2.97614L22.5127 2.86525L19.3762 2.84101L16.2398 2.81678L15.0818 1.90125C14.4448 1.39769 13.8151 0.934452 13.6824 0.871785C13.4851 0.778682 13.3616 0.757841 13.0043 0.757454C12.6341 0.757018 12.531 0.775435 12.3287 0.877747ZM13.4622 1.56534C13.5302 1.60978 13.9212 1.90954 14.3309 2.23145L15.076 2.81678L14.0568 2.82986C13.4962 2.83704 12.569 2.83704 11.9964 2.82986L10.9553 2.81678L11.4492 2.42905C11.7208 2.2158 12.0792 1.93518 12.2456 1.80549C12.4119 1.67574 12.6296 1.53926 12.7292 1.50214C12.9456 1.42154 13.2869 1.45096 13.4622 1.56534ZM22.332 7.62302L22.3443 11.6538L19.5243 13.8667C17.1751 15.7101 16.699 16.1036 16.6728 16.2233C16.6123 16.5005 16.8971 16.733 17.1534 16.6157C17.2141 16.5879 18.9075 15.2743 20.9166 13.6965C22.9257 12.1187 24.579 10.8375 24.5907 10.8492C24.6024 10.8609 24.6065 13.9055 24.5998 17.615L24.5875 24.3594L19.6175 20.1834C16.884 17.8867 14.519 15.9238 14.362 15.8214C13.922 15.5347 13.4994 15.4274 12.9122 15.4535C12.3648 15.4778 12.0295 15.5838 11.6324 15.8582C11.4327 15.9962 1.90828 23.9112 1.55893 24.2295L1.45037 24.3284V17.561V10.7936L5.17205 13.7237C8.04772 15.9878 8.92399 16.6539 9.02691 16.6539C9.32704 16.6539 9.48965 16.2922 9.28945 16.0701C9.24047 16.0157 7.96689 15.0004 6.45933 13.8138L3.71824 11.6564V7.64449C3.71824 5.43797 3.73277 3.61802 3.75052 3.60019C3.76828 3.58235 7.95363 3.57329 13.0512 3.57997L22.3197 3.59224L22.332 7.62302ZM2.98403 10.5632L2.97033 11.0692L2.37373 10.5971C2.04561 10.3374 1.7781 10.109 1.77926 10.0895C1.78041 10.0699 2.04889 9.83996 2.37585 9.57843L2.97033 9.10293L2.98403 9.58008C2.99161 9.84247 2.99161 10.2849 2.98403 10.5632ZM23.8999 9.74525C24.1322 9.92831 24.3221 10.0837 24.3221 10.0905C24.3221 10.0973 24.1322 10.2507 23.8999 10.4314C23.6677 10.6121 23.3854 10.8346 23.2727 10.9259L23.0676 11.0919V10.0867V9.08146L23.2727 9.24692C23.3854 9.33794 23.6677 9.5622 23.8999 9.74525ZM13.7307 16.2938C13.8368 16.3444 14.0119 16.4516 14.1198 16.532C14.2277 16.6123 16.4836 18.4992 19.133 20.725L23.95 24.7719L18.4664 24.7842C15.4504 24.791 10.5198 24.791 7.5096 24.7842L2.03644 24.7719L6.88531 20.725C9.55219 18.4992 11.8293 16.606 11.9457 16.5179C12.2966 16.2521 12.601 16.1644 13.1034 16.1844C13.4005 16.1962 13.5986 16.2308 13.7307 16.2938Z" fill="#0E1825"/>
</svg>
