<svg width="6" height="6" viewBox="0 0 6 6" fill="none" xmlns="http://www.w3.org/2000/svg">
<path d="M2.9041 0.295165C2.93428 0.20226 3.06572 0.20226 3.0959 0.295165L3.6509 2.00327C3.6644 2.04482 3.70312 2.07295 3.74681 2.07295H5.54281C5.6405 2.07295 5.68112 2.19795 5.60209 2.25537L4.14909 3.31104C4.11374 3.33672 4.09895 3.38223 4.11245 3.42378L4.66745 5.13189C4.69764 5.22479 4.5913 5.30205 4.51227 5.24463L3.05927 4.18896C3.02393 4.16328 2.97607 4.16328 2.94073 4.18896L1.48773 5.24463C1.4087 5.30205 1.30236 5.22479 1.33255 5.13189L1.88755 3.42378C1.90105 3.38223 1.88626 3.33672 1.85091 3.31104L0.397913 2.25537C0.318883 2.19795 0.359499 2.07295 0.457185 2.07295H2.25319C2.29688 2.07295 2.3356 2.04482 2.3491 2.00327L2.9041 0.295165Z" fill="white"/>
</svg>
