<svg width="40" height="35" viewBox="0 0 40 35" fill="none" xmlns="http://www.w3.org/2000/svg">
<path fill-rule="evenodd" clip-rule="evenodd" d="M1.83648 0.12388C1.1254 0.342036 0.535594 0.858424 0.214749 1.54371C0.0515768 1.89221 0.0512671 1.90963 0.030435 11.4376L0.00960289 20.9824H19.8379H39.6661L39.6453 11.4376L39.6245 1.89283L39.4497 1.54193C39.0728 0.785395 38.5617 0.343662 37.8024 0.118149C37.4305 0.00771569 35.6359 -0.00397815 19.8044 0.000900739C4.30999 0.00562474 2.17413 0.0202615 1.83648 0.12388ZM14.1858 7.65208C14.5753 7.86087 14.837 8.39701 14.7647 8.83796C14.715 9.14092 14.5888 9.29457 13.4241 10.4696L12.1383 11.7668L13.4241 13.0639C14.5813 14.2314 14.7153 14.394 14.7638 14.6904C14.9052 15.5535 14.033 16.2542 13.2022 15.945C12.9538 15.8525 9.66338 12.6122 9.49409 12.2934C9.35175 12.0251 9.35175 11.5084 9.49409 11.2402C9.61861 11.0056 12.8976 7.72759 13.1391 7.59632C13.3798 7.46552 13.8883 7.49255 14.1858 7.65208ZM22.0063 7.68167C22.3267 7.90029 22.5484 8.30965 22.5484 8.6823C22.5484 9.1142 19.3224 15.5543 18.9861 15.7937C18.2354 16.3282 17.2344 15.8735 17.1464 14.9579C17.1131 14.6107 17.1879 14.4402 18.7157 11.3795C19.5981 9.61193 20.3847 8.07477 20.4637 7.96356C20.7882 7.50711 21.5473 7.36841 22.0063 7.68167ZM26.5224 7.59307C26.7637 7.71528 30.0483 10.989 30.1817 11.2402C30.2427 11.3552 30.2926 11.5921 30.2926 11.7668C30.2926 11.9414 30.2427 12.1783 30.1817 12.2934C30.0124 12.6122 26.722 15.8525 26.4736 15.945C25.6427 16.2542 24.7705 15.5535 24.9119 14.6904C24.9605 14.394 25.0945 14.2314 26.2517 13.0639L27.5375 11.7668L26.2517 10.4696C25.0915 9.29914 24.9606 9.14007 24.9116 8.84114C24.8389 8.39732 25.1045 7.84941 25.49 7.64821C25.7935 7.48984 26.2684 7.46444 26.5224 7.59307ZM0.0256335 24.6803C0.0497956 25.9776 0.062806 26.0796 0.256335 26.4923C0.648505 27.3289 1.34502 27.8254 2.31484 27.9597C2.63235 28.0037 9.69853 28.0242 20.2251 28.0117L37.611 27.991L38.054 27.812C38.6154 27.5853 39.1478 27.0719 39.4169 26.4979C39.6135 26.0784 39.6259 25.9821 39.6501 24.6803L39.6757 23.3057H19.8379H0L0.0256335 24.6803ZM13.3714 31.5147L12.99 32.6763H11.6087C10.1258 32.6763 9.98445 32.7061 9.62032 33.096C9.33758 33.3986 9.30296 34.0878 9.55201 34.4575C9.94535 35.0412 9.15163 34.9993 19.8379 34.9993C28.789 34.9993 29.4193 34.9907 29.6715 34.8639C30.4723 34.4616 30.5067 33.3032 29.7319 32.8308C29.5047 32.6922 29.3399 32.6768 28.0827 32.6766L26.6857 32.6763L26.3043 31.5147L25.9229 30.353H19.8379H13.7528L13.3714 31.5147Z" fill="black"/>
</svg>
