<svg width="39" height="30" viewBox="0 0 39 30" fill="none" xmlns="http://www.w3.org/2000/svg">
<path fill-rule="evenodd" clip-rule="evenodd" d="M10.0522 0.148285C6.8572 0.845878 4.5291 3.128 3.61071 6.4626C3.41965 7.15614 3.4024 7.33885 3.40264 8.66285C3.40279 9.97702 3.42129 10.1753 3.60845 10.8698C3.81371 11.632 4.31018 12.7776 4.70666 13.4043L4.91653 13.736L9.34482 13.7336L13.773 13.7311L14.7877 12.1987C15.3457 11.3559 15.9255 10.5348 16.0761 10.3741C16.5138 9.90701 17.2263 9.86409 17.715 10.2752C17.8855 10.4187 18.374 11.3148 19.4148 13.3939C20.2182 14.9984 20.893 16.3098 20.9144 16.308C20.9359 16.3062 21.5411 15.5173 22.2593 14.5549C22.9775 13.5924 23.6608 12.7423 23.7777 12.6656C23.9764 12.5354 24.428 12.5237 30.6808 12.4872C37.2856 12.4486 37.374 12.4462 37.5867 12.2872C37.9962 11.9815 38.124 11.732 38.124 11.2384C38.124 10.745 37.9963 10.4957 37.5869 10.1896C37.4021 10.0515 37.235 10.025 36.4057 10.0029L35.4397 9.9771L35.4823 9.06636C35.6046 6.45581 34.6189 3.96827 32.7708 2.22389C31.7937 1.30144 30.6738 0.669177 29.3046 0.266606C28.3429 -0.0160841 26.5487 -0.0854683 25.3559 0.114022C23.3614 0.447521 21.5464 1.34187 20.0318 2.73745L19.4289 3.29299L18.9087 2.80637C17.5658 1.55018 16.1142 0.748552 14.3101 0.266606C13.6455 0.0891246 13.3446 0.056501 12.134 0.0305111C10.9659 0.00553571 10.615 0.0253595 10.0522 0.148285ZM16.0407 14.8311C15.6614 15.3905 15.2419 15.9262 15.1084 16.0214L14.8657 16.1945L8.17878 16.2335C1.5774 16.2721 1.48905 16.2746 1.2763 16.4335C0.866778 16.7393 0.739014 16.9887 0.739014 17.4823C0.739014 17.9758 0.866778 18.2252 1.2763 18.5311C1.48609 18.6877 1.59278 18.6926 5.30802 18.7136L9.12433 18.7353L13.7746 24.177C16.3323 27.17 18.549 29.7045 18.7007 29.8093C18.9001 29.9471 19.0812 30 19.3535 30C19.6264 30 19.8057 29.9474 20.0036 29.8093C20.1539 29.7045 23.059 26.4051 26.4593 22.4773C29.8595 18.5496 32.7134 15.257 32.8013 15.1603L32.961 14.9847H29.007H25.053L23.3072 17.3098C22.347 18.5886 21.4636 19.6989 21.3442 19.7772C20.8553 20.0975 20.1424 20.0029 19.7776 19.5692C19.6646 19.435 18.9524 18.0851 18.1951 16.5696C17.4376 15.054 16.7982 13.814 16.774 13.814C16.75 13.814 16.4199 14.2717 16.0407 14.8311Z" fill="#0E1825"/>
</svg>
