<svg width="35" height="24" viewBox="0 0 35 24" fill="none" xmlns="http://www.w3.org/2000/svg">
<path d="M0 10.5599V17.2799C0 18.8707 1.28928 20.1599 2.88 20.1599H31.68C33.2707 20.1599 34.56 18.8707 34.56 17.2799V10.5599H0Z" fill="#808285"/>
<path d="M34.56 11.52V2.88C34.56 1.28928 31.3507 0 29.76 0H10.56C2.88 0 0 2.24928 0 3.84V11.52H34.56Z" fill="#CCD6DD"/>
<path d="M0 11.52H34.56V14.4H0V11.52Z" fill="#939598"/>
<path d="M6.71981 14.4C3.77933 14.4 1.35725 16.6061 1.00781 19.4525C1.51277 19.8874 2.16173 20.16 2.87981 20.16H12.4798C12.4798 16.9795 9.90125 14.4 6.71981 14.4ZM33.5518 19.4525C33.2024 16.6061 30.7803 14.4 27.8398 14.4C24.6593 14.4 22.0798 16.9795 22.0798 20.16H31.6798C32.3989 20.16 33.0478 19.8874 33.5518 19.4525Z" fill="#BCBEC0"/>
<path d="M6.72013 24.0001C8.8409 24.0001 10.5601 22.2808 10.5601 20.1601C10.5601 18.0393 8.8409 16.3201 6.72013 16.3201C4.59935 16.3201 2.88013 18.0393 2.88013 20.1601C2.88013 22.2808 4.59935 24.0001 6.72013 24.0001Z" fill="black"/>
<path d="M6.72017 22.08C7.78056 22.08 8.64017 21.2204 8.64017 20.16C8.64017 19.0996 7.78056 18.24 6.72017 18.24C5.65978 18.24 4.80017 19.0996 4.80017 20.16C4.80017 21.2204 5.65978 22.08 6.72017 22.08Z" fill="#99AAB5"/>
<path d="M27.84 24.0001C29.9608 24.0001 31.68 22.2808 31.68 20.1601C31.68 18.0393 29.9608 16.3201 27.84 16.3201C25.7192 16.3201 24 18.0393 24 20.1601C24 22.2808 25.7192 24.0001 27.84 24.0001Z" fill="black"/>
<path d="M27.84 22.08C28.9004 22.08 29.76 21.2204 29.76 20.16C29.76 19.0996 28.9004 18.24 27.84 18.24C26.7797 18.24 25.92 19.0996 25.92 20.16C25.92 21.2204 26.7797 22.08 27.84 22.08Z" fill="#99AAB5"/>
<path d="M0 14.4H0.96V16.32H0V14.4ZM33.6 12.48H34.56V14.4H33.6V12.48Z" fill="#F4900C"/>
<path d="M0.960083 2.88H34.5601V12.48H0.960083V2.88Z" fill="#58595B"/>
<path d="M1.92 2.88H0.32832C0.1056 3.21024 0 3.5376 0 3.84V14.4H1.92C2.97984 14.4 3.84 13.5398 3.84 12.48V4.8C3.84 3.74016 2.97984 2.88 1.92 2.88Z" fill="#292F33"/>
<path d="M29.7603 9.59993C29.7603 10.1308 29.3311 10.5599 28.8003 10.5599H6.72025C6.19033 10.5599 5.76025 10.1308 5.76025 9.59993V5.75993C5.76025 5.23001 6.19033 4.79993 6.72025 4.79993H28.8003C29.3311 4.79993 29.7603 5.23001 29.7603 5.75993V9.59993Z" fill="#55ACEE"/>
<path d="M33.5999 8.64001H34.5599V10.56H33.5999V8.64001Z" fill="#FFAC33"/>
<path d="M0.96 4.79993H0V12.4799H0.96C1.48992 12.4799 1.92 12.0508 1.92 11.5199V5.75993C1.92 5.23001 1.48992 4.79993 0.96 4.79993Z" fill="#55ACEE"/>
</svg>
