<svg width="42" height="35" viewBox="0 0 42 35" fill="none" xmlns="http://www.w3.org/2000/svg">
<path fill-rule="evenodd" clip-rule="evenodd" d="M38.6858 0.112254C38.5466 0.174593 38.3137 0.353427 38.1683 0.509654C37.9846 0.707046 36.4304 3.98696 33.077 11.2539C27.8481 22.5851 28.0335 22.129 28.2651 23.0943C28.3219 23.3309 28.4803 23.6791 28.6172 23.8681L28.8661 24.2117L28.3772 24.1566C26.9128 23.9914 25.326 24.8692 24.6429 26.2225C24.0323 27.4321 23.9019 28.8598 24.2188 30.8666C24.4804 32.5228 24.4303 33.4472 24.0052 34.8102C23.9532 34.9773 23.9756 35 24.1929 35C24.5619 35 25.7559 34.68 26.4408 34.3977C28.5521 33.5271 30.289 31.9135 31.2959 29.8872C31.7164 29.0409 31.8098 28.6896 31.8103 27.9506C31.8111 26.9543 31.4696 26.079 30.7942 25.3463L30.478 25.0033L30.8503 24.9888C31.7727 24.9532 32.6365 24.3967 33.0248 23.5879C33.1409 23.3459 34.9842 18.3939 37.1208 12.5833C41.1407 1.65107 41.1449 1.63833 40.9161 1.03122C40.7946 0.709155 40.3479 0.250766 40.0171 0.10888C39.6755 -0.0377302 39.0171 -0.0359587 38.6858 0.112254ZM19.5371 0.975044C19.3979 0.991325 18.9234 1.04557 18.4826 1.09576C15.7123 1.41091 12.5909 2.49404 10.1314 3.99363C7.34884 5.69027 4.6498 8.40417 3.01802 11.1463C-0.141777 16.4561 -0.852559 22.7165 1.03768 28.589C1.22436 29.1689 1.50434 29.9209 1.65972 30.2599C3.1874 33.5915 6.75987 35.498 10.3101 34.8762C12.5236 34.4886 14.2572 33.3757 15.6369 31.4571C17.509 28.8537 19.539 27.1413 22.0478 26.0493C22.8635 25.6943 22.8743 25.6857 23.1664 25.1634C23.7351 24.1464 24.8846 23.1369 25.9275 22.7386C26.3018 22.5957 26.3212 22.5718 26.3697 22.1937C26.3976 21.9762 26.4582 21.6275 26.5043 21.4187C26.5505 21.21 28.2189 17.5021 30.2118 13.1791C32.2048 8.85614 33.8343 5.2879 33.8331 5.24968C33.8301 5.15639 32.9588 4.54194 32.0371 3.98308C28.7095 1.9653 24.7729 0.888495 20.8867 0.933035C20.2836 0.939952 19.6762 0.958848 19.5371 0.975044ZM24.4353 4.97722C25.9554 5.25736 27.1003 6.42054 27.3625 7.95151C27.5539 9.06855 27.1813 10.2036 26.3516 11.0314C24.873 12.5067 22.6375 12.4589 21.1989 10.9212C20.4861 10.1592 20.3016 9.66376 20.3016 8.51231C20.3016 7.36786 20.4874 6.86408 21.1844 6.11914C21.7579 5.50596 22.3222 5.17301 23.059 5.0129C23.7274 4.86772 23.827 4.86519 24.4353 4.97722ZM14.5667 8.42433C16.7887 9.51597 17.3007 12.3312 15.6037 14.1255C13.8781 15.95 10.9078 15.4752 9.78798 13.1958C9.51163 12.6334 9.49873 12.5655 9.49873 11.6774C9.49873 10.8086 9.51619 10.7108 9.76571 10.1842C10.2166 9.23254 10.9216 8.60249 11.9439 8.23756C12.2648 8.12301 12.5619 8.09272 13.1749 8.11204C13.8952 8.13473 14.0463 8.16864 14.5667 8.42433ZM39.3305 11.7811C39.2795 11.9086 38.2166 14.7907 36.9686 18.1857C35.4896 22.2089 34.6064 24.4964 34.4322 24.7545C34.2851 24.9723 34.1858 25.1715 34.2112 25.1969C34.2929 25.2786 35.6274 24.9559 36.2817 24.6962C38.2249 23.925 40.0133 22.1414 40.7445 20.2453C41.201 19.0616 41.2938 18.5451 41.2917 17.2009C41.2894 15.763 41.1543 15.1445 40.5115 13.6277C40.1495 12.7732 39.5249 11.5491 39.4511 11.5491C39.4358 11.5491 39.3816 11.6535 39.3305 11.7811ZM9.12832 18.4681C11.0377 18.8301 12.3688 20.6419 12.0815 22.4876C11.8299 24.1038 10.6232 25.3105 9.00702 25.5621C7.12707 25.8547 5.32135 24.4961 4.97473 22.5282C4.71939 21.0784 5.59222 19.4352 6.95692 18.7965C7.78243 18.4102 8.36153 18.3226 9.12832 18.4681Z" fill="#0E1825"/>
</svg>
