<svg width="14" height="13" viewBox="0 0 14 13" fill="none" xmlns="http://www.w3.org/2000/svg">
<path fill-rule="evenodd" clip-rule="evenodd" d="M0.962022 12.1352C0.904004 12.1045 0.847231 12.0461 0.816026 11.9849C0.765397 11.8857 0.764965 11.8435 0.764965 7.08501V2.28517H0.535434C0.249205 2.28517 0.131952 2.23477 0.0515648 2.07722C-0.0574371 1.86353 -0.0497691 1.84858 0.646721 0.919381C1.29812 0.050361 1.34631 1.10269e-05 1.52668 1.10269e-05C1.70574 1.10269e-05 1.75665 0.0526715 2.37544 0.877562C2.70197 1.31283 2.98733 1.7042 3.00962 1.74729C3.06409 1.85261 3.06061 1.96192 2.99901 2.0827C2.92167 2.23428 2.80076 2.28517 2.51793 2.28517H2.2884V7.08501C2.2884 11.8454 2.28797 11.8857 2.23729 11.985C2.14601 12.1639 2.06156 12.1877 1.52135 12.1864C1.10931 12.1854 1.04627 12.1796 0.962022 12.1352ZM3.24718 12.1352C3.18916 12.1045 3.13239 12.0461 3.10118 11.9849C3.05307 11.8906 3.05012 11.8363 3.05012 11.0449C3.05012 10.2533 3.05307 10.1993 3.10123 10.1048C3.13414 10.0403 3.18807 9.98637 3.25259 9.95347C3.35194 9.90279 3.39249 9.90236 8.02668 9.90236C12.6609 9.90236 12.7014 9.90279 12.8008 9.95347C12.8653 9.98637 12.9192 10.0403 12.9521 10.1048C13.0003 10.1993 13.0032 10.2533 13.0032 11.0449C13.0032 11.8366 13.0003 11.8906 12.9521 11.985C12.9192 12.0496 12.8653 12.1035 12.8008 12.1364C12.7014 12.1871 12.662 12.1875 8.02135 12.1864C3.41273 12.1853 3.34069 12.1845 3.24718 12.1352ZM3.24718 9.08828C3.18916 9.05763 3.13239 8.99924 3.10118 8.93807C3.05307 8.84377 3.05012 8.78941 3.05012 7.99806C3.05012 7.20638 3.05307 7.1524 3.10123 7.05794C3.13414 6.99343 3.18807 6.9395 3.25259 6.90659C3.35158 6.85609 3.39503 6.85548 6.88411 6.85548C10.3732 6.85548 10.4166 6.85609 10.5156 6.90659C10.5801 6.9395 10.6341 6.99343 10.667 7.05794C10.7151 7.1524 10.7181 7.20638 10.7181 7.99806C10.7181 8.78974 10.7151 8.84372 10.667 8.93817C10.6341 9.00269 10.5801 9.05662 10.5156 9.08953C10.4166 9.14005 10.3743 9.14061 6.87877 9.13952C3.40772 9.1384 3.34036 9.13746 3.24718 9.08828ZM3.24718 6.04141C3.18916 6.01076 3.13239 5.95236 3.10118 5.8912C3.05307 5.79689 3.05012 5.74253 3.05012 4.95118C3.05012 4.1595 3.05307 4.10552 3.10123 4.01107C3.13414 3.94655 3.18807 3.89262 3.25259 3.85972C3.3509 3.80957 3.39757 3.8086 5.74153 3.8086C8.08549 3.8086 8.13216 3.80957 8.23047 3.85972C8.29499 3.89262 8.34892 3.94655 8.38182 4.01107C8.42999 4.10552 8.43293 4.1595 8.43293 4.95118C8.43293 5.74286 8.42999 5.79684 8.38182 5.8913C8.34892 5.95581 8.29499 6.00974 8.23047 6.04265C8.13211 6.09282 8.08663 6.09374 5.7362 6.09264C3.40275 6.09155 3.3397 6.09026 3.24718 6.04141Z" fill="#0E1825"/>
</svg>
