<svg width="18" height="18" viewBox="0 0 18 18" fill="none" xmlns="http://www.w3.org/2000/svg">
<path fill-rule="evenodd" clip-rule="evenodd" d="M4.55049 0.0503821C4.02589 0.173929 3.49091 0.559142 3.20046 1.0225C2.9361 1.44423 2.85755 1.73271 2.85696 2.28372C2.85648 2.68936 2.87076 2.79535 2.95997 3.04989C3.16489 3.63438 3.57299 4.08968 4.13311 4.35872L4.42059 4.4968L4.42043 5.42683L4.42027 6.35691L4.03382 6.47133C3.16406 6.72886 2.34973 7.23983 1.64377 7.97113C0.828966 8.81516 0.350844 9.72579 0.0921559 10.9262C0.0147952 11.2852 0.000481013 11.4688 5.19081e-06 12.1085C-0.00066889 12.9462 0.0641223 13.3642 0.303778 14.0686C0.958152 15.9922 2.6016 17.471 4.54125 17.8814C7.08673 18.4201 9.69733 17.0843 10.823 14.667C11.1313 14.0051 11.3529 13.1416 11.3705 12.534C11.3772 12.3002 11.3627 12.2252 11.2859 12.097C11.0773 11.7491 10.6214 11.6823 10.3349 11.9577C10.1853 12.1015 10.136 12.2389 10.0881 12.646C9.75146 15.5039 6.95838 17.3556 4.32356 16.4677C2.49129 15.8502 1.24844 14.0884 1.24844 12.1085C1.24844 10.4049 2.19509 8.79956 3.64301 8.04768C3.90377 7.9123 4.34386 7.72829 4.40699 7.72829C4.41444 7.72829 4.42059 8.24135 4.42059 8.86846C4.42059 9.98349 4.42257 10.0116 4.5098 10.144C4.55889 10.2184 4.64938 10.3178 4.71096 10.3649C4.82222 10.45 4.84328 10.4507 8.23033 10.4615L11.6377 10.4724L12.8426 12.9586C13.5053 14.326 14.0895 15.4851 14.1409 15.5342C14.2522 15.6406 14.4189 15.7109 14.5599 15.7109C14.726 15.7109 16.7208 15.0144 16.8578 14.9086C17.0132 14.7885 17.1282 14.4974 17.0939 14.3106C17.0382 14.0061 16.7587 13.746 16.4873 13.746C16.4271 13.746 16.0436 13.8604 15.6351 14.0004C15.2267 14.1403 14.8847 14.2462 14.8751 14.2357C14.8655 14.2253 14.3303 13.1272 13.6856 11.7955C12.7098 9.77967 12.4916 9.35814 12.3827 9.27791L12.2518 9.18154L8.97063 9.17061L5.68945 9.15968V8.34259V7.52549L8.02212 7.51431L10.3548 7.50314L10.4968 7.39126C10.8661 7.10045 10.8192 6.51468 10.4086 6.28945C10.2787 6.21818 10.1331 6.21364 7.97997 6.21364H5.68945V5.33997V4.46634L5.84119 4.41938C6.24651 4.29399 6.81528 3.75965 7.03495 3.29784C7.16909 3.01579 7.27413 2.5704 7.27413 2.28372C7.27413 1.99647 7.16901 1.55145 7.03412 1.26792C6.89026 0.965438 6.52328 0.544364 6.24005 0.356711C5.76811 0.0440369 5.09538 -0.0779133 4.55049 0.0503821ZM5.41188 1.38643C5.79083 1.56352 5.9839 1.86637 5.9839 2.28372C5.9839 3.30951 4.64688 3.63934 4.20444 2.72264C3.81308 1.91185 4.62158 1.0171 5.41188 1.38643Z" fill="white"/>
</svg>
