<svg width="28" height="24" viewBox="0 0 28 24" fill="none" xmlns="http://www.w3.org/2000/svg">
<path fill-rule="evenodd" clip-rule="evenodd" d="M7.07567 0.0519662C6.7751 0.175722 6.78265 0.0838958 6.78265 3.60963V6.8629L4.4184 12.6533L2.05416 18.4436L1.28646 19.254C0.111202 20.4946 0 20.6277 0 20.7931C0 20.899 0.101904 21.0482 0.362051 21.3232L0.724157 21.7059L0.362051 22.5883C0.162948 23.0737 0 23.5161 0 23.5715C0 23.7433 0.0998252 23.8739 0.280495 23.9381C0.405318 23.9825 4.2543 23.9998 14.0128 23.9998C28.7787 23.9998 27.9031 24.0189 27.9826 23.6956C28.0021 23.6163 28.0058 23.5079 27.9908 23.4546C27.8818 23.0686 21.1427 6.69996 21.0565 6.61193C20.9534 6.5067 20.8754 6.49978 19.7947 6.49978H18.6428L18.5108 6.65642C18.3494 6.848 18.3445 6.97064 18.4912 7.16082L18.6035 7.30662L19.5659 7.32186L20.5281 7.3371L23.3644 14.2839C24.9244 18.1045 26.2007 21.2384 26.2007 21.2478C26.2007 21.2573 23.3429 21.2586 19.85 21.2508L13.4994 21.2366L10.6611 14.2869C9.10007 10.4645 7.82263 7.3308 7.82236 7.32315C7.82214 7.3155 9.96338 7.30919 12.5807 7.30919C17.2666 7.30919 17.3412 7.30746 17.4489 7.19755C17.5871 7.05649 17.5893 6.80245 17.4538 6.63158L17.3492 6.49978L12.4762 6.48493L7.60313 6.47009V5.52375V4.57735L9.97683 4.56172C12.2224 4.54687 12.3567 4.54029 12.4656 4.43969C12.5781 4.33576 12.5807 4.29221 12.5807 2.52781C12.5807 0.796679 12.5762 0.717692 12.4713 0.610627C12.3653 0.502445 12.289 0.498984 10.0106 0.498984H7.6593L7.57917 0.303274C7.53174 0.1875 7.44062 0.0848449 7.35605 0.0520777C7.27745 0.0215434 7.20858 -0.00178987 7.20301 0.000108053C7.19743 0.0020618 7.14016 0.0253952 7.07567 0.0519662ZM11.7602 2.53713V3.73796L9.69535 3.72334L7.63048 3.70871L7.61571 2.52251L7.60094 1.3363H9.68058H11.7602V2.53713ZM6.96813 10.9188C7.15055 11.0787 7.35102 11.0618 7.5074 10.8732C7.58934 10.7744 7.60313 10.6364 7.60313 9.91544C7.60313 9.45218 7.62375 9.09704 7.64891 9.12618C7.70979 9.19668 13.3465 23.0224 13.3465 23.1012C13.3465 23.1936 11.6267 23.1854 11.5575 23.0927C11.5289 23.0543 10.6116 20.8302 9.51906 18.1502C8.2483 15.033 7.49734 13.2581 7.43471 13.2239C7.38089 13.1945 7.26383 13.1704 7.17467 13.1704C7.03338 13.1704 6.7996 13.3967 5.35791 14.9288C4.44783 15.8959 3.69501 16.6872 3.68495 16.6872C3.65891 16.6872 3.7001 16.5845 5.30578 12.6527L6.7553 9.10318L6.78265 9.94167L6.80999 10.7801L6.96813 10.9188ZM8.94068 18.8921C9.86667 21.1641 10.6364 23.0543 10.6512 23.0927C10.6724 23.1481 9.9654 23.1625 7.22609 23.1625C5.32755 23.1625 3.77356 23.1437 3.77279 23.1206C3.76945 23.0228 7.19584 14.6877 7.22494 14.7227C7.24255 14.744 8.01463 16.6202 8.94068 18.8921ZM5.92251 15.6126C5.67199 16.2883 3.00427 22.7452 2.97091 22.7566C2.94597 22.7651 2.48786 22.3248 1.95291 21.7783L0.980311 20.7846L3.45756 18.1507C4.82005 16.7021 5.94018 15.5164 5.94679 15.5159C5.95336 15.5154 5.94242 15.5589 5.92251 15.6126ZM26.5671 22.1716C26.6189 22.2416 26.9665 23.0786 26.9665 23.1333C26.9665 23.1493 24.1137 23.1625 20.6269 23.1625H14.2873L14.0904 22.6824C13.9821 22.4184 13.8935 22.1797 13.8935 22.1521C13.8935 22.1226 16.5009 22.1019 20.2045 22.1019C25.1893 22.1019 26.5263 22.1165 26.5671 22.1716ZM1.73521 22.7282C1.92403 22.9193 2.07855 23.0951 2.07855 23.119C2.07855 23.1429 1.84472 23.1625 1.55891 23.1625C1.27311 23.1625 1.03928 23.1504 1.03928 23.1357C1.03928 23.0724 1.33498 22.381 1.36205 22.381C1.37846 22.381 1.54639 22.5373 1.73521 22.7282Z" fill="#0E1825"/>
</svg>
