<svg width="31" height="30" viewBox="0 0 31 30" fill="none" xmlns="http://www.w3.org/2000/svg">
<g clip-path="url(#clip0_1379_55629)">
<path fill-rule="evenodd" clip-rule="evenodd" d="M2.119 0.0574054C1.11253 0.255041 0.256968 1.12819 0.0619114 2.15682C-0.0206371 2.59196 -0.0206371 22.1371 0.0619114 22.5722C0.261599 23.6252 1.11194 24.4755 2.16491 24.6752C2.36852 24.7139 4.96992 24.7351 9.49801 24.7351H16.5156L16.7061 24.498C16.8109 24.3676 16.9188 24.1836 16.9459 24.0891C16.9806 23.9682 16.5985 20.7145 15.6535 13.0843C14.9155 7.12604 14.2824 2.13244 14.2464 1.98733C14.089 1.35074 13.4803 0.583066 12.8975 0.285704C12.3359 -0.000812461 12.2584 -0.00468192 7.1547 0.00123954C4.52669 0.0042882 2.26065 0.029557 2.119 0.0574054ZM16.4766 5.39363C16.4766 5.42904 16.9805 9.48542 17.5963 14.4077C18.3095 20.1082 18.7141 23.5333 18.7106 23.842C18.7048 24.3515 18.5649 24.8867 18.3433 25.2474C18.2791 25.3519 17.3328 26.46 16.2403 27.7098L14.2541 29.9823L20.891 29.9972C25.1735 30.0069 27.6416 29.9912 27.8483 29.953C28.9087 29.757 29.7653 28.899 29.9617 27.8363C30.0015 27.6213 30.0161 24.1371 30.0052 17.4906C29.9871 6.50089 30.0161 7.34079 29.6317 6.67736C29.2534 6.02447 28.5562 5.51787 27.8572 5.38789C27.3971 5.30235 16.4766 5.30786 16.4766 5.39363ZM9.19086 6.35596C9.63497 6.53424 9.60917 6.44249 10.5925 11.3511C11.0879 13.8241 11.4932 15.9091 11.4932 15.9844C11.4932 16.3887 11.0391 16.8203 10.6138 16.8203C10.3277 16.8203 9.98469 16.6127 9.86133 16.3651C9.80136 16.2446 9.62582 15.5062 9.47122 14.7243L9.19021 13.3026H7.94618H6.70215L6.42114 14.7243C6.26654 15.5062 6.09288 16.241 6.03519 16.3569C5.73396 16.9625 4.82698 16.9599 4.51719 16.3528C4.45229 16.2256 4.39917 16.0598 4.39917 15.9844C4.39917 15.9091 4.80447 13.8241 5.29988 11.3511C6.27809 6.46776 6.25886 6.53712 6.68567 6.35889C6.98503 6.23389 8.88136 6.23166 9.19086 6.35596ZM7.40657 9.78489L7.05491 11.5437H7.94618H8.83745L8.4858 9.78489L8.13414 8.02604H7.94618H7.75822L7.40657 9.78489ZM24.217 11.6618C24.5671 11.8403 24.6845 12.1195 24.6845 12.7726V13.3026H26.1233C27.4495 13.3026 27.5801 13.3118 27.7934 13.4206C28.0535 13.5533 28.2609 13.8911 28.2609 14.182C28.2609 14.4469 28.0531 14.8097 27.8352 14.9252C27.7308 14.9806 27.5302 15.0406 27.3897 15.0584L27.134 15.0907L26.9446 15.6184C26.6073 16.558 25.9747 17.6826 25.2403 18.6477L25.0321 18.9215L25.5179 19.3262C25.7851 19.5489 26.2694 19.9339 26.5941 20.1818C27.3848 20.7854 27.5318 21.1033 27.2634 21.6293C27.0565 22.0349 26.5335 22.2065 26.1327 22.0003C25.9232 21.8926 24.499 20.7959 24.1142 20.4461C23.9779 20.3221 23.8402 20.2207 23.8083 20.2207C23.7764 20.2207 23.5581 20.3869 23.3233 20.59C22.6117 21.2054 21.735 21.8971 21.5362 21.9999C21.136 22.2067 20.6125 22.0351 20.4054 21.6293C20.1481 21.1248 20.2897 20.786 20.9865 20.2395C21.2631 20.0226 21.7342 19.6364 22.0335 19.3813L22.5777 18.9176L22.4146 18.7059C21.7499 17.8431 21.0976 16.651 20.7252 15.6184L20.5349 15.0907L20.2792 15.0584C20.1386 15.0406 19.9381 14.9806 19.8336 14.9252C19.6158 14.8097 19.408 14.4469 19.408 14.182C19.408 13.8911 19.6154 13.5533 19.8755 13.4206C20.0884 13.312 20.2194 13.3026 21.5163 13.3026H22.9257V12.7726C22.9257 12.13 23.0437 11.8426 23.3807 11.6646C23.6636 11.5153 23.9282 11.5144 24.217 11.6618ZM22.398 15.1229C22.398 15.2646 22.9908 16.4252 23.2967 16.8826C23.8103 17.6503 23.7874 17.627 23.8963 17.491C24.3592 16.9131 25.2708 15.3399 25.2708 15.1189C25.2708 15.0829 24.734 15.0614 23.8344 15.0614C22.8725 15.0614 22.398 15.0817 22.398 15.1229ZM10.2959 26.6845C10.4781 27.9928 10.5063 28.1263 10.6715 28.4634C10.7677 28.6598 10.9526 28.941 11.0822 29.0883C11.3334 29.3736 11.829 29.733 11.9337 29.7057C11.9684 29.6966 12.4165 29.2275 12.9296 28.6632C13.4426 28.0989 14.0973 27.38 14.3844 27.0656L14.9065 26.4939H12.588H10.2694L10.2959 26.6845Z" fill="#0E1825"/>
</g>
<defs>
<clipPath id="clip0_1379_55629">
<rect width="30.0087" height="30" fill="white"/>
</clipPath>
</defs>
</svg>
