<svg width="194" height="151" viewBox="0 0 194 151" fill="none" xmlns="http://www.w3.org/2000/svg">
<path d="M166.246 53.363C159.573 33.3842 142.117 16.5778 121.083 11.6063C97.3143 5.98486 71.7723 15.1425 52.3141 28.6293C45.2137 33.5505 38.5905 39.3925 33.4534 46.3642C15.908 70.2041 45.396 82.8631 44.6549 94.7753C43.9139 106.688 24.8669 109.291 39.4247 125.672C53.9825 142.053 99.9061 138.327 135.746 119.343C147.58 113.075 158.94 104.358 164.605 91.9046C170.375 79.2031 170.359 65.6814 166.246 53.363Z" fill="#DC46AA"/>
<path opacity="0.7" d="M166.246 53.363C159.573 33.3842 142.117 16.5778 121.083 11.6063C97.3143 5.98486 71.7723 15.1425 52.3141 28.6293C45.2137 33.5505 38.5905 39.3925 33.4534 46.3642C15.908 70.2041 45.396 82.8631 44.6549 94.7753C43.9139 106.688 24.8669 109.291 39.4247 125.672C53.9825 142.053 99.9061 138.327 135.746 119.343C147.58 113.075 158.94 104.358 164.605 91.9046C170.375 79.2031 170.359 65.6814 166.246 53.363Z" fill="white"/>
<path d="M69.4753 116.429C65.4905 119.029 60.9975 125.966 58.751 128.783C56.5045 131.599 56.5083 135.646 55.5655 136.729C54.6227 137.812 51.3635 134.489 52.0735 132.032C52.7835 129.576 54.0135 129.073 53.7419 127.916C53.4703 126.759 52.7991 126.036 53.5246 124.519C54.2502 123.002 56.3492 124.449 58.4522 123.002C60.5552 121.556 62.6543 115.342 65.2616 108.842C67.869 102.343 73.3786 102.482 74.0304 101.472C74.6823 100.462 78.376 87.3083 82.1474 87.9622C85.9187 88.616 92.732 95.2589 90.5631 98.8878C88.3942 102.517 85.8528 102.432 82.8031 104.525C79.7534 106.618 80.122 107.055 78.0928 109.222C76.0635 111.388 74.6008 111.752 73.526 112.038C73.526 112.038 72.005 113.702 71.0622 114.928C70.1194 116.155 69.4753 116.429 69.4753 116.429Z" fill="white"/>
<path d="M62.2158 120.36C63.469 118.015 67.2326 112.382 71.1398 108.943C75.047 105.504 87.4552 100.339 87.4552 100.339L89.8686 99.8589C90.1145 99.5426 90.3413 99.2119 90.5476 98.8685C92.7204 95.2588 85.911 88.6121 82.1435 87.9622C78.376 87.3122 74.6784 100.459 74.0265 101.472C73.3747 102.486 67.869 102.339 65.2577 108.842C62.6465 115.346 60.5474 121.559 58.4483 123.002C56.3492 124.446 54.2463 123.002 53.5207 124.519C52.7952 126.036 53.447 126.759 53.738 127.916C54.029 129.073 52.7952 129.58 52.0696 132.032C51.344 134.485 54.6071 137.812 55.5616 136.729C55.9186 136.179 56.1625 135.563 56.2794 134.919C55.6824 133.313 55.5101 131.581 55.7789 129.889C56.26 125.993 60.9587 122.708 62.2158 120.36Z" fill="#DC46AA"/>
<path opacity="0.5" d="M62.2158 120.36C63.469 118.015 67.2326 112.382 71.1398 108.943C75.047 105.504 87.4552 100.339 87.4552 100.339L89.8686 99.8589C90.1145 99.5426 90.3413 99.2119 90.5476 98.8685C92.7204 95.2588 85.911 88.6121 82.1435 87.9622C78.376 87.3122 74.6784 100.459 74.0265 101.472C73.3747 102.486 67.869 102.339 65.2577 108.842C62.6465 115.346 60.5474 121.559 58.4483 123.002C56.3492 124.446 54.2463 123.002 53.5207 124.519C52.7952 126.036 53.447 126.759 53.738 127.916C54.029 129.073 52.7952 129.58 52.0696 132.032C51.344 134.485 54.6071 137.812 55.5616 136.729C55.9186 136.179 56.1625 135.563 56.2794 134.919C55.6824 133.313 55.5101 131.581 55.7789 129.889C56.26 125.993 60.9587 122.708 62.2158 120.36Z" fill="white"/>
<path d="M69.4753 116.429C65.4905 119.029 60.9975 125.966 58.751 128.783C56.5045 131.599 56.5083 135.646 55.5655 136.729C54.6227 137.812 51.3635 134.489 52.0735 132.032C52.7835 129.576 54.0135 129.073 53.7419 127.916C53.4703 126.759 52.7991 126.036 53.5246 124.519C54.2502 123.002 56.3492 124.449 58.4522 123.002C60.5552 121.556 62.6543 115.342 65.2616 108.842C67.869 102.343 73.3786 102.482 74.0304 101.472C74.6823 100.462 78.376 87.3083 82.1474 87.9622C85.9187 88.616 92.732 95.2589 90.5631 98.8878C88.3942 102.517 85.8528 102.432 82.8031 104.525C79.7534 106.618 80.122 107.055 78.0928 109.222C76.0635 111.388 74.6008 111.752 73.526 112.038C73.526 112.038 72.005 113.702 71.0622 114.928C70.1194 116.155 69.4753 116.429 69.4753 116.429Z" stroke="#0E1825" stroke-miterlimit="10" stroke-linecap="round"/>
<path d="M68.9243 116.816C68.0413 116.762 67.174 116.558 66.3597 116.213C64.7689 115.547 64.1442 113.826 63.9114 112.301C61.9093 117.428 60.1866 121.819 58.4794 123.003C56.3764 124.449 54.2773 123.003 53.5518 124.519C52.8262 126.036 53.4781 126.759 53.7691 127.916C54.0601 129.073 52.8262 129.58 52.1007 132.032C51.3751 134.485 54.6382 137.813 55.5927 136.729C56.5471 135.646 56.5355 131.599 58.7781 128.783C60.916 126.094 65.0831 119.66 68.9243 116.816Z" fill="#DC46AA"/>
<path opacity="0.2" d="M55.5655 136.729C55.6204 136.664 55.6697 136.594 55.7129 136.52L55.7478 136.462C55.7905 136.385 55.8332 136.3 55.8759 136.203C55.8759 136.203 55.8759 136.168 55.8953 136.153C55.9302 136.068 55.9651 135.979 55.9962 135.886C56.0082 135.857 56.0186 135.827 56.0272 135.797C56.066 135.688 56.1009 135.576 56.1358 135.46L56.1708 135.336C56.194 135.247 56.2212 135.155 56.2484 135.058L56.2833 134.919C55.6863 133.313 55.5139 131.581 55.7828 129.889C56.2522 125.978 60.9587 122.693 62.2158 120.345C63.153 118.673 64.1963 117.063 65.3392 115.524C64.4817 114.688 64.086 113.435 63.9114 112.29L63.5699 113.156L63.5156 113.303L63.1742 114.17L62.8521 114.982L62.7978 115.118C62.693 115.381 62.5883 115.64 62.4835 115.891L62.4292 116.027C62.3244 116.286 62.2197 116.541 62.1149 116.801L61.8045 117.528L61.7463 117.663C61.6454 117.896 61.5446 118.12 61.4437 118.34L61.3971 118.449L61.1139 119.06L61.0828 119.126C60.982 119.335 60.885 119.536 60.788 119.729C60.7686 119.772 60.7453 119.811 60.7259 119.845C60.6289 120.039 60.5319 120.232 60.4349 120.406L60.4 120.472L60.1245 120.956L60.0818 121.029C59.9848 121.192 59.8917 121.343 59.7947 121.49L59.7365 121.575C59.6395 121.722 59.5425 121.857 59.4494 121.985L59.4222 122.016C59.333 122.136 59.2398 122.248 59.1506 122.352L59.1002 122.41C59.007 122.519 58.91 122.612 58.8169 122.701L58.7626 122.751C58.6704 122.834 58.5732 122.912 58.4716 122.983C57.8955 123.376 57.2271 123.613 56.5316 123.672C56.1436 123.71 55.8099 123.71 55.4801 123.714C55.1765 123.709 54.873 123.727 54.5722 123.768C54.3494 123.787 54.1357 123.865 53.953 123.994C53.7703 124.122 53.6251 124.297 53.5324 124.5C53.3364 124.881 53.224 125.299 53.2026 125.726C53.1985 125.865 53.2063 126.003 53.2258 126.14C53.2337 126.205 53.2454 126.27 53.2608 126.334C53.3694 126.848 53.6061 127.32 53.7496 127.881C53.7822 128.014 53.7966 128.151 53.7923 128.287C53.7613 128.806 53.4043 129.243 53.0163 129.92C52.6178 130.569 52.3073 131.267 52.0929 131.998C51.9278 132.638 51.9643 133.313 52.1976 133.932C52.3695 134.415 52.6071 134.872 52.9038 135.29C53.0008 135.429 53.1017 135.561 53.2064 135.677C54.0445 136.714 55.096 137.271 55.5655 136.729Z" fill="#0E1825"/>
<path d="M68.9243 116.816C68.0413 116.762 67.174 116.558 66.3597 116.213C64.7689 115.547 64.1442 113.826 63.9114 112.301C61.9093 117.428 60.1866 121.819 58.4794 123.003C56.3764 124.449 54.2773 123.003 53.5518 124.519C52.8262 126.036 53.4781 126.759 53.7691 127.916C54.0601 129.073 52.8262 129.58 52.1007 132.032C51.3751 134.485 54.6382 137.813 55.5927 136.729C56.5471 135.646 56.5355 131.599 58.7781 128.783C60.916 126.094 65.0831 119.66 68.9243 116.816Z" stroke="#0E1825" stroke-miterlimit="10" stroke-linecap="round"/>
<path d="M51.992 77.7716C51.992 77.7716 55.5422 82.538 59.3097 82.4838C63.0772 82.4297 65.2732 79.1025 67.2094 79.3307C68.6406 79.5467 70.0434 79.9204 71.392 80.4449C71.392 80.4449 84.8478 62.4663 87.9441 59.4215C91.0403 56.3767 92.829 52.8909 88.5765 51.8153C84.324 50.7398 75.4427 52.6472 70.9885 56.5508C66.5342 60.4545 52.4188 75.988 52.4188 75.988L51.992 77.7716Z" fill="#DC46AA"/>
<path opacity="0.5" d="M51.992 77.7716C51.992 77.7716 55.5422 82.538 59.3097 82.4838C63.0772 82.4297 65.2732 79.1025 67.2094 79.3307C68.6406 79.5467 70.0434 79.9204 71.392 80.4449C71.392 80.4449 84.8478 62.4663 87.9441 59.4215C91.0403 56.3767 92.829 52.8909 88.5765 51.8153C84.324 50.7398 75.4427 52.6472 70.9885 56.5508C66.5342 60.4545 52.4188 75.988 52.4188 75.988L51.992 77.7716Z" fill="#0E1825" stroke="#0E1825" stroke-miterlimit="10" stroke-linecap="round"/>
<path d="M51.992 77.7716C51.992 77.7716 55.5422 82.538 59.3097 82.4838C63.0772 82.4297 65.2732 79.1025 67.2094 79.3307C68.6406 79.5467 70.0434 79.9204 71.392 80.4449C71.392 80.4449 84.8478 62.4663 87.9441 59.4215C91.0403 56.3767 92.829 52.8909 88.5765 51.8153C84.324 50.7398 75.4427 52.6472 70.9885 56.5508C66.5342 60.4545 52.4188 75.988 52.4188 75.988L51.992 77.7716Z" stroke="#0E1825" stroke-miterlimit="10" stroke-linecap="round"/>
<path d="M102.82 35.7944C102.82 35.7944 103.906 33.1945 106.079 32.0377C107.528 31.3174 109.117 30.9213 110.735 30.8771L116.384 27.3951C116.384 27.3951 117.979 21.9013 123.415 19.6574C128.851 17.4134 151.964 9.03732 152.181 8.89418C152.399 8.75103 155.08 7.44722 155.08 7.66388C155.083 8.03602 155.009 8.40479 154.862 8.74716C154.645 9.32749 149.283 12.794 149.283 12.794C149.283 12.794 151.89 11.2039 151.964 12.0202C152.038 12.8366 151.964 13.03 151.021 13.6103C150.078 14.1907 148.34 15.2701 147.979 15.4867C147.618 15.7034 146.241 17.0033 145.151 17.1503C144.061 17.2974 141.313 17.5101 141.096 17.7268C140.879 17.9435 133.775 24.8068 131.458 26.7606C129.142 28.7144 125.371 30.5173 125.371 30.5173C125.371 30.5173 120.299 35.9337 116.447 38.7541C112.594 41.5745 109.998 42.2941 109.998 42.2941L109.707 42.5804C109.707 42.5804 109.924 45.1106 109.924 45.4008C109.924 45.6909 112.027 52.8406 111.088 56.8139C110.149 60.7873 108.333 62.4509 108.333 62.4509C108.333 62.4509 108.046 67.1477 106.886 68.8809C105.726 70.6142 102.537 72.7111 100.29 74.3747C98.0437 76.0383 97.7566 79.7215 97.6092 80.1548C97.4617 80.5881 95.6692 87.9583 94.7108 89.7612C93.7524 91.5641 90.8308 92.5816 90.3458 92.7247C90.082 92.8021 87.3815 96.8876 84.7819 96.6865C83.1004 96.568 81.5186 95.847 80.3284 94.6567C79.1382 93.4664 78.42 91.887 78.3062 90.21C78.2649 89.496 78.2909 88.7797 78.3838 88.0705C78.9619 83.66 80.7118 81.83 80.7118 81.83C80.7118 81.83 84.4249 67.3643 84.0602 63.5342C83.6955 59.704 83.6256 57.3208 84.712 55.1542C85.7984 52.9876 89.3486 49.6643 94.8582 47.2772C100.368 44.8901 101.016 43.3039 101.016 40.5608C101.072 38.8167 101.706 37.1404 102.82 35.7944Z" fill="white"/>
<path d="M110.887 49.9931L110.844 49.9738C110.844 49.9738 110.53 54.6667 109.746 57.7966C108.962 60.9265 105.668 62.9577 105.668 62.9577L103.941 67.6506C103.941 67.6506 100.019 71.2448 97.5083 71.2448C94.9979 71.2448 94.672 69.2136 94.672 69.2136C92.3091 67.2095 87.1836 65.8284 83.8585 66.6099C83.3385 70.707 81.8913 76.9049 81.1425 79.9768C82.5431 80.7235 84.7897 81.4276 88.0838 81.1026C91.487 80.7323 94.811 79.8329 97.9351 78.437C98.2649 77.1216 98.9051 75.3806 100.263 74.3786L101.02 73.8253C98.746 74.7693 95.8593 77.8451 93.7369 78.1275C91.3818 78.4409 90.598 77.9727 90.7571 77.0326C90.9162 76.0925 94.1793 76.6883 95.3045 76.2588C96.4297 75.8294 95.4635 75.6359 93.1084 75.3226C90.7532 75.0092 91.2266 74.069 91.2266 74.069C91.2266 74.069 95.0484 74.3863 95.7739 74.069C96.4995 73.7518 101.594 72.5215 103.922 70.471C106.25 68.4205 106.452 64.068 106.452 64.068L108.26 63.1666C108.299 62.7371 108.314 62.4702 108.314 62.4702C108.314 62.4702 110.126 60.8104 111.069 56.8333C111.523 54.9066 111.271 52.2602 110.887 49.9931Z" fill="#DC46AA"/>
<path d="M130.038 25.1202C125.506 27.0778 124.606 26.4743 124.606 26.4743C124.999 26.7566 125.368 27.0711 125.708 27.4144C126.364 28.0489 125.51 30.0878 123.093 31.8984C120.676 33.7091 112.819 38.5335 111.461 38.5335C110.103 38.5335 110.103 34.0186 110.103 34.0186C109.531 36.819 109.416 39.6931 109.761 42.5301L109.983 42.3134C109.983 42.3134 112.59 41.5899 116.431 38.7734C120.272 35.9569 125.355 30.5366 125.355 30.5366C125.355 30.5366 129.123 28.7298 131.443 26.7799C132.715 25.7083 135.428 23.1548 137.651 21.0347C135.21 22.5688 132.667 23.9339 130.038 25.1202Z" fill="#DC46AA"/>
<path opacity="0.5" d="M130.038 25.1202C125.506 27.0778 124.606 26.4743 124.606 26.4743C124.999 26.7566 125.368 27.0711 125.708 27.4144C126.364 28.0489 125.51 30.0878 123.093 31.8984C120.676 33.7091 112.819 38.5335 111.461 38.5335C110.103 38.5335 110.103 34.0186 110.103 34.0186C109.531 36.819 109.416 39.6931 109.761 42.5301L109.983 42.3134C109.983 42.3134 112.59 41.5899 116.431 38.7734C120.272 35.9569 125.355 30.5366 125.355 30.5366C125.355 30.5366 129.123 28.7298 131.443 26.7799C132.715 25.7083 135.428 23.1548 137.651 21.0347C135.21 22.5688 132.667 23.9339 130.038 25.1202Z" fill="white"/>
<path opacity="0.5" d="M110.887 49.9931L110.844 49.9738C110.844 49.9738 110.53 54.6667 109.746 57.7966C108.962 60.9265 105.668 62.9577 105.668 62.9577L103.941 67.6506C103.941 67.6506 100.019 71.2448 97.5083 71.2448C94.9979 71.2448 94.672 69.2136 94.672 69.2136C92.3091 67.2095 87.1836 65.8284 83.8585 66.6099C83.3385 70.707 81.8913 76.9049 81.1425 79.9768C82.5431 80.7235 84.7897 81.4276 88.0838 81.1026C91.487 80.7323 94.811 79.8329 97.9351 78.437C98.2649 77.1216 98.9051 75.3806 100.263 74.3786L101.02 73.8253C98.746 74.7693 95.8593 77.8451 93.7369 78.1275C91.3818 78.4409 90.598 77.9727 90.7571 77.0326C90.9162 76.0925 94.1793 76.6883 95.3045 76.2588C96.4297 75.8294 95.4635 75.6359 93.1084 75.3226C90.7532 75.0092 91.2266 74.069 91.2266 74.069C91.2266 74.069 95.0484 74.3863 95.7739 74.069C96.4995 73.7518 101.594 72.5215 103.922 70.471C106.25 68.4205 106.452 64.068 106.452 64.068L108.26 63.1666C108.299 62.7371 108.314 62.4702 108.314 62.4702C108.314 62.4702 110.126 60.8104 111.069 56.8333C111.523 54.9066 111.271 52.2602 110.887 49.9931Z" fill="white"/>
<path d="M102.82 35.7944C102.82 35.7944 103.906 33.1945 106.079 32.0377C107.528 31.3174 109.117 30.9213 110.735 30.8771L116.384 27.3951C116.384 27.3951 117.979 21.9013 123.415 19.6574C128.851 17.4134 151.964 9.03732 152.181 8.89418C152.399 8.75103 155.08 7.44722 155.08 7.66388C155.083 8.03602 155.009 8.40479 154.862 8.74716C154.645 9.32749 149.283 12.794 149.283 12.794C149.283 12.794 151.89 11.2039 151.964 12.0202C152.038 12.8366 151.964 13.03 151.021 13.6103C150.078 14.1907 148.34 15.2701 147.979 15.4867C147.618 15.7034 146.241 17.0033 145.151 17.1503C144.061 17.2974 141.313 17.5101 141.096 17.7268C140.879 17.9435 133.775 24.8068 131.458 26.7606C129.142 28.7144 125.371 30.5173 125.371 30.5173C125.371 30.5173 120.299 35.9337 116.447 38.7541C112.594 41.5745 109.998 42.2941 109.998 42.2941L109.707 42.5804C109.707 42.5804 109.924 45.1106 109.924 45.4008C109.924 45.6909 112.027 52.8406 111.088 56.8139C110.149 60.7873 108.333 62.4509 108.333 62.4509C108.333 62.4509 108.046 67.1477 106.886 68.8809C105.726 70.6142 102.537 72.7111 100.29 74.3747C98.0437 76.0383 97.7566 79.7215 97.6092 80.1548C97.4617 80.5881 95.6692 87.9583 94.7108 89.7612C93.7524 91.5641 90.8308 92.5816 90.3458 92.7247C90.082 92.8021 87.3815 96.8876 84.7819 96.6865C83.1004 96.568 81.5186 95.847 80.3284 94.6567C79.1382 93.4664 78.42 91.887 78.3062 90.21C78.2649 89.496 78.2909 88.7797 78.3838 88.0705C78.9619 83.66 80.7118 81.83 80.7118 81.83C80.7118 81.83 84.4249 67.3643 84.0602 63.5342C83.6955 59.704 83.6256 57.3208 84.712 55.1542C85.7984 52.9876 89.3486 49.6643 94.8582 47.2772C100.368 44.8901 101.016 43.3039 101.016 40.5608C101.072 38.8167 101.706 37.1404 102.82 35.7944V35.7944Z" stroke="#0E1825" stroke-miterlimit="10" stroke-linecap="round"/>
<path d="M108.25 60.7424C109.016 57.4936 107.947 54.4632 105.861 53.9738C103.775 53.4844 101.463 55.7214 100.696 58.9703C99.9293 62.2191 100.999 65.2495 103.085 65.7389C105.171 66.2282 107.483 63.9913 108.25 60.7424Z" fill="#DC46AA"/>
<path d="M95.06 74.3786C91.1451 75.2453 89.628 73.365 89.628 73.365C89.628 73.365 90.0626 76.255 94.1948 76.6883" stroke="#0E1825" stroke-linecap="round" stroke-linejoin="round"/>
<path d="M104.259 56.9648C104.259 56.9648 106.506 62.3813 104.694 66.5016C102.882 70.6219 100.271 72.1927 95.3471 73.0052" stroke="#0E1825" stroke-miterlimit="10" stroke-linecap="round"/>
<path d="M99.5492 74.4482C99.5492 74.4482 96.5771 77.1216 94.2568 77.9883C91.9366 78.8549 90.1285 80.3754 88.173 77.7716" stroke="#0E1825" stroke-miterlimit="10" stroke-linecap="round"/>
<path d="M122.88 27.484C122.88 27.484 124.692 26.2576 125.704 27.4144C126.717 28.5712 125.343 30.5095 125.343 30.5095" stroke="#0E1825" stroke-linecap="round" stroke-linejoin="round"/>
<path d="M110.273 32.8308C109.881 34.765 109.595 36.7191 109.416 38.6844C109.315 39.9913 109.412 41.306 109.703 42.5842" stroke="#0E1825" stroke-linecap="round" stroke-linejoin="round"/>
<path d="M93.2092 59.1005L97.5509 56.8024" stroke="#0E1825" stroke-miterlimit="10" stroke-linecap="round"/>
<path d="M152.154 8.91744C151.96 9.04511 133.604 15.7073 125.77 18.7444C126.476 18.7753 130.178 19.0848 131.16 22.2844C131.591 23.6486 131.791 25.0754 131.749 26.5053C134.326 24.273 140.879 17.9396 141.088 17.7307C141.298 17.5218 144.057 17.2974 145.143 17.1543C146.229 17.0111 147.607 15.7073 147.972 15.4906C148.336 15.274 150.071 14.1907 151.013 13.6142C151.956 13.0378 152.03 12.8173 151.956 12.0241C151.883 11.231 149.275 12.7979 149.275 12.7979C149.275 12.7979 154.637 9.31593 154.855 8.75108C155.001 8.4087 155.075 8.03994 155.072 7.6678C155.053 7.47048 152.371 8.77042 152.154 8.91744Z" fill="#DC46AA" stroke="#0E1825" stroke-linecap="round" stroke-linejoin="round"/>
<path d="M149.256 12.8173L146.718 14.1172" stroke="#0E1825" stroke-linecap="round" stroke-linejoin="round"/>
<path d="M98.1058 77.8606C97.2949 78.174 96.2706 78.5957 95.2928 79.0638C92.5777 80.3669 89.6494 81.1716 86.6482 81.4393C84.2891 81.6366 82.2832 80.5843 81.1851 79.8415C80.8864 81.064 80.6924 81.8339 80.6924 81.8339C80.6924 81.8339 78.9425 83.6639 78.3644 88.0744C78.2715 88.7836 78.2455 89.4999 78.2868 90.2139C78.4006 91.8909 79.1188 93.4703 80.309 94.6606C81.4992 95.851 83.081 96.5719 84.7625 96.6904C87.3621 96.8915 90.0626 92.8215 90.3264 92.7286C90.8308 92.5855 93.7524 91.568 94.6914 89.7651C95.6304 87.9622 97.4462 80.592 97.5898 80.1587C97.6596 79.9498 97.776 78.9864 98.1058 77.8606Z" fill="#0E1825" stroke="#0E1825" stroke-miterlimit="10" stroke-linecap="round"/>
<path d="M82.5664 83.9657C82.5664 83.9657 85.6704 82.6309 88.8054 83.7413" stroke="white" stroke-width="0.75" stroke-linecap="round" stroke-linejoin="round"/>
<path d="M89.1158 80.1664C85.1156 80.6152 82.7992 79.1567 81.6236 78.0038C81.3558 79.1644 81.1231 80.1084 80.9523 80.7855C83.0027 82.0581 85.4239 82.6034 87.8238 82.333C92.1384 81.803 96.0533 80.0426 97.7877 79.1683C97.8032 79.078 97.8226 78.9852 97.8458 78.8897C97.904 78.6073 97.9817 78.3017 98.0748 77.9767C98.0748 77.9573 98.0748 77.938 98.0942 77.9148C98.1252 77.8142 98.1563 77.7097 98.1912 77.6053C98.1928 77.5898 98.1928 77.5743 98.1912 77.5588C98.311 77.2012 98.4522 76.8511 98.6141 76.5104C95.8049 78.5028 92.539 79.7599 89.1158 80.1664Z" fill="#DC46AA" stroke="#0E1825" stroke-miterlimit="10" stroke-linecap="round"/>
<path d="M76.9637 54.7828C76.9637 54.7828 76.2614 55.1387 78.795 53.479C81.3287 51.8192 80.5643 54.2218 82.287 49.9583C84.0098 45.6948 85.911 42.5185 89.0266 41.3617C92.1422 40.2049 101.346 41.8685 101.346 41.8685L103.518 43.3851L100.492 49.2348C99.7634 48.8772 98.9665 48.679 98.1547 48.6536C97.343 48.6283 96.5352 48.7763 95.7856 49.0878C93.3218 50.1711 92.0142 51.471 92.2936 52.6278C92.5729 53.7846 94.9009 56.9648 94.9009 56.9648C94.9009 56.9648 83.9283 52.6665 82.19 53.6028C80.4518 54.539 75.1556 56.458 74.8646 56.605C74.5736 56.752 76.9637 54.7828 76.9637 54.7828Z" fill="#DC46AA" stroke="#0E1825" stroke-miterlimit="10" stroke-linecap="round"/>
<path d="M83.7188 51.3975C84.0874 50.8597 84.4948 50.2368 84.9099 49.5211C86.7956 46.3448 90.5631 44.9713 90.5631 44.9713" stroke="#0E1825" stroke-miterlimit="10" stroke-linecap="round"/>
<path d="M90.8386 48.4417C89.8214 48.6903 88.8637 49.1373 88.0206 49.7568C87.1776 50.3763 86.4658 51.1562 85.9265 52.0513" stroke="#0E1825" stroke-miterlimit="10" stroke-linecap="round"/>
<path d="M88.8248 58.7716C88.8248 58.7716 84.4055 58.1216 81.0648 60.9382C77.7242 63.7547 78.1005 66.7763 78.1005 66.7763C78.1005 66.7763 74.8374 68.2194 74.1856 69.8714C73.8047 70.8474 73.5441 71.8659 73.4096 72.9046C73.4096 72.9046 71.6714 74.5682 70.2202 76.2279C68.7691 77.8877 67.5392 78.1623 67.2482 80.3483C66.9572 82.5342 67.1046 87.8616 68.6993 93.1349C70.294 98.4081 71.3804 100.722 71.8033 101.646C72.2262 102.571 76.0053 107.353 76.6572 107.5C77.309 107.647 77.9608 107.786 78.4691 107.5C78.9774 107.214 82.7371 106.339 82.6013 105.26C82.5732 104.683 82.3703 104.129 82.0193 103.67L81.8758 103.453C81.8758 103.453 82.5276 102.223 82.093 101.646C81.6585 101.07 81.2938 100.996 80.4984 100.273C79.703 99.5494 79.2684 99.3328 78.3256 99.3328C77.3827 99.3328 76.3856 99.4063 76.3856 99.4063C76.3856 99.4063 74.9344 98.826 74.9344 94.636C74.9344 90.446 76.2381 86.8325 76.8744 84.9638C77.2586 83.8952 77.4784 82.7747 77.5263 81.6405C77.5263 81.6405 78.0346 82.3639 81.5848 80.7003C85.135 79.0367 85.9342 74.3438 85.9342 74.3438L80.704 75.1717C83.2645 74.9479 85.7919 74.4392 88.239 73.6551C92.2974 72.3552 94.0357 72.1385 95.611 65.9948" fill="white"/>
<path d="M81.934 72.1656C81.189 71.1713 85.426 68.2967 86.5473 67.1941C87.6686 66.0915 82.9311 69.0589 81.8098 69.3065C80.6885 69.5541 79.6913 68.8074 80.316 65.3293C80.7667 63.1439 81.8311 61.1313 83.3851 59.526C82.5419 59.8749 81.7569 60.3498 81.0571 60.9343C77.7242 63.7508 78.0889 66.7879 78.0889 66.7879C78.0889 66.7879 74.8258 68.2309 74.174 69.883C73.793 70.8589 73.5324 71.8775 73.398 72.9161C73.398 72.9161 71.6597 74.5798 70.2086 76.2395C68.7575 77.8992 67.5275 78.1739 67.2365 80.3598C66.9455 82.5457 67.093 87.8732 68.6876 93.1464C70.2823 98.4197 71.3687 100.733 71.7916 101.658C72.2146 102.583 75.9937 107.365 76.6455 107.512C77.2974 107.659 77.9492 107.798 78.4575 107.512C78.9658 107.225 82.7255 106.351 82.5897 105.271C82.5574 105.01 82.5042 104.751 82.4306 104.498C81.0416 104.672 78.5002 105.558 77.8173 105.558C77.0723 105.558 76.3235 104.44 75.2022 103.194C74.0808 101.948 72.3348 98.7215 72.0982 94.7443C71.8615 90.7671 73.592 87.0375 73.592 85.1727C73.592 83.3079 71.3493 87.6604 71.846 85.7956C72.3426 83.9308 74.3408 81.1955 75.8346 80.4488C77.3284 79.7021 79.0783 79.2069 79.7146 77.965C80.3509 76.7231 77.472 77.5781 78.4691 76.5954C79.4663 75.6127 85.9498 74.336 88.0682 73.1135C90.1867 71.8909 82.6828 73.1599 81.934 72.1656Z" fill="#DC46AA"/>
<path opacity="0.5" d="M81.934 72.1656C81.189 71.1713 85.426 68.2967 86.5473 67.1941C87.6686 66.0915 82.9311 69.0589 81.8098 69.3065C80.6885 69.5541 79.6913 68.8074 80.316 65.3293C80.7667 63.1439 81.8311 61.1313 83.3851 59.526C82.5419 59.8749 81.7569 60.3498 81.0571 60.9343C77.7242 63.7508 78.0889 66.7879 78.0889 66.7879C78.0889 66.7879 74.8258 68.2309 74.174 69.883C73.793 70.8589 73.5324 71.8775 73.398 72.9161C73.398 72.9161 71.6597 74.5798 70.2086 76.2395C68.7575 77.8992 67.5275 78.1739 67.2365 80.3598C66.9455 82.5457 67.093 87.8732 68.6876 93.1464C70.2823 98.4197 71.3687 100.733 71.7916 101.658C72.2146 102.583 75.9937 107.365 76.6455 107.512C77.2974 107.659 77.9492 107.798 78.4575 107.512C78.9658 107.225 82.7255 106.351 82.5897 105.271C82.5574 105.01 82.5042 104.751 82.4306 104.498C81.0416 104.672 78.5002 105.558 77.8173 105.558C77.0723 105.558 76.3235 104.44 75.2022 103.194C74.0808 101.948 72.3348 98.7215 72.0982 94.7443C71.8615 90.7671 73.592 87.0375 73.592 85.1727C73.592 83.3079 71.3493 87.6604 71.846 85.7956C72.3426 83.9308 74.3408 81.1955 75.8346 80.4488C77.3284 79.7021 79.0783 79.2069 79.7146 77.965C80.3509 76.7231 77.472 77.5781 78.4691 76.5954C79.4663 75.6127 85.9498 74.336 88.0682 73.1135C90.1867 71.8909 82.6828 73.1599 81.934 72.1656Z" fill="white"/>
<path d="M88.8248 58.7716C88.8248 58.7716 84.4055 58.1216 81.0648 60.9382C77.7242 63.7547 78.1005 66.7763 78.1005 66.7763C78.1005 66.7763 74.8374 68.2194 74.1856 69.8714C73.8047 70.8474 73.5441 71.8659 73.4096 72.9046C73.4096 72.9046 71.6714 74.5682 70.2202 76.2279C68.7691 77.8877 67.5392 78.1623 67.2482 80.3483C66.9572 82.5342 67.1046 87.8616 68.6993 93.1349C70.294 98.4081 71.3804 100.722 71.8033 101.646C72.2262 102.571 76.0053 107.353 76.6572 107.5C77.309 107.647 77.9608 107.786 78.4691 107.5C78.9774 107.214 82.7371 106.339 82.6013 105.26C82.5732 104.683 82.3703 104.129 82.0193 103.67L81.8758 103.453C81.8758 103.453 82.5276 102.223 82.093 101.646C81.6585 101.07 81.2938 100.996 80.4984 100.273C79.703 99.5494 79.2684 99.3328 78.3256 99.3328C77.3827 99.3328 76.3856 99.4063 76.3856 99.4063C76.3856 99.4063 74.9344 98.826 74.9344 94.636C74.9344 90.446 76.2381 86.8325 76.8744 84.9638C77.2586 83.8952 77.4784 82.7747 77.5263 81.6405C77.5263 81.6405 78.0346 82.3639 81.5848 80.7003C85.135 79.0367 85.9342 74.3438 85.9342 74.3438L80.704 75.1717C83.2645 74.9479 85.7919 74.4392 88.239 73.6551C92.2974 72.3552 94.0357 72.1385 95.611 65.9948" stroke="#0E1825" stroke-miterlimit="10" stroke-linecap="round"/>
<path d="M77.5185 81.6752L77.1034 78.3596" stroke="#0E1825" stroke-linecap="round" stroke-linejoin="round"/>
<path d="M98.0243 56.0247C100.127 55.3747 100.636 52.7748 101.866 50.0279C102.838 47.9888 103.934 46.0107 105.148 44.1047C103.027 44.1338 100.918 43.7907 98.9167 43.0911C95.6537 41.9304 91.8125 42.7313 91.0908 43.5244C90.3691 44.3175 90.4389 43.3077 90.5825 45.7644C90.7261 48.2212 91.6689 51.7612 92.5225 52.9915C93.3761 54.2218 93.8999 54.9259 93.8999 54.9259" fill="white"/>
<path d="M104.217 44.097C102.404 44.0245 100.611 43.6855 98.8973 43.0911C95.6343 41.9304 91.7931 42.7313 91.0714 43.5244C90.3497 44.3175 90.4195 43.3077 90.5631 45.7644C90.7067 48.2212 91.6495 51.7612 92.5031 52.9915L92.8135 53.4248L104.395 44.186L104.217 44.097Z" fill="#DC46AA"/>
<path opacity="0.5" d="M104.217 44.097C102.404 44.0245 100.611 43.6855 98.8973 43.0911C95.6343 41.9304 91.7931 42.7313 91.0714 43.5244C90.3497 44.3175 90.4195 43.3077 90.5631 45.7644C90.7067 48.2212 91.6495 51.7612 92.5031 52.9915L92.8135 53.4248L104.395 44.186L104.217 44.097Z" fill="white"/>
<path d="M98.0243 56.0247C100.127 55.3747 100.636 52.7748 101.866 50.0279C102.838 47.9888 103.934 46.0107 105.148 44.1047C103.027 44.1338 100.918 43.7907 98.9167 43.0911C95.6537 41.9304 91.8125 42.7313 91.0908 43.5244C90.3691 44.3175 90.4389 43.3077 90.5825 45.7644C90.7261 48.2212 91.6689 51.7612 92.5225 52.9915C93.3761 54.2218 93.8999 54.9259 93.8999 54.9259" stroke="#0E1825" stroke-miterlimit="10" stroke-linecap="round"/>
<path d="M97.5199 51.7612C98.8063 51.7711 100.088 51.6137 101.334 51.2931C101.501 50.8791 101.675 50.4574 101.866 50.0279C102.838 47.9888 103.934 46.0107 105.148 44.1047C103.027 44.1338 100.918 43.7907 98.9167 43.0911C95.6537 41.9304 91.8125 42.7313 91.0908 43.5244C90.3691 44.3175 90.4389 43.3077 90.5825 45.7644C90.689 47.1766 90.9346 48.5748 91.3158 49.939C92.4876 50.9139 94.4082 51.7302 97.5199 51.7612Z" stroke="#0E1825" stroke-miterlimit="10" stroke-linecap="round"/>
<path d="M98.2028 54.8796L96.4568 47.2153" stroke="#0E1825" stroke-linecap="round" stroke-linejoin="round"/>
<path d="M100.224 29.697C100.433 28.8425 100.586 27.9753 100.682 27.101C100.83 25.7276 97.5199 23.2941 94.1133 23.5842C90.7066 23.8744 91.9405 27.1977 91.5059 28.281C91.0714 29.3643 87.8083 28.2075 86.9392 30.1574C86.07 32.1073 87.591 32.6877 87.591 33.2525C87.591 33.8174 84.9099 35.3494 85.263 38.7463C85.6161 42.1432 91.4943 45.4626 92.798 45.7528C94.1016 46.043 95.6963 44.8127 95.6963 43.8184C95.6963 42.8241 97.8691 42.4449 98.4511 41.4971C99.0331 40.5492 97.5083 37.3071 97.5781 36.5836C97.648 35.8601 99.9061 32.9739 99.1728 32.2505C98.4395 31.527 100.224 29.697 100.224 29.697Z" fill="#0E1825" stroke="#0E1825" stroke-miterlimit="10" stroke-linecap="round"/>
<path d="M96.7556 30.5095C96.7556 30.5095 97.8808 30.3857 97.8808 27.8981C97.8808 25.4104 94.2646 26.0333 93.7641 27.0276C93.2636 28.0219 93.6399 29.8867 92.3944 30.3857C91.149 30.8848 89.1508 30.8809 89.1508 31.8752V33.2448" stroke="white" stroke-width="0.75" stroke-linecap="round" stroke-linejoin="round"/>
<path d="M93.508 32.4981C93.508 32.4981 88.8947 32.2505 86.524 36.4753" stroke="white" stroke-width="0.75" stroke-linecap="round" stroke-linejoin="round"/>
<path d="M94.1404 33.6162C94.1404 33.6162 91.0364 33.74 89.403 35.8524" stroke="white" stroke-width="0.75" stroke-linecap="round" stroke-linejoin="round"/>
<path d="M99.456 30.1535C99.6617 29.8866 102.343 32.6644 102.448 32.9778C102.553 33.3597 102.638 33.7472 102.7 34.1385C102.712 34.2116 102.739 34.2816 102.779 34.3441C102.819 34.4066 102.871 34.4603 102.933 34.5022L104.807 35.7827C104.928 35.8671 105.01 35.9956 105.037 36.1403C105.064 36.2851 105.033 36.4346 104.95 36.5565L104.298 37.4928C104.242 37.5724 104.207 37.6657 104.199 37.7631C104.191 37.8604 104.209 37.9581 104.252 38.046C104.776 39.168 106.63 43.1529 106.506 43.4624C106.36 43.8424 106.074 44.1525 105.707 44.3291C105.346 44.4722 98.6801 46.7123 97.8808 46.7858C97.2677 46.84 95.7933 44.3291 95.1415 43.1607C95.0648 43.0319 94.94 42.9388 94.7945 42.9018C94.6489 42.8648 94.4947 42.887 94.3655 42.9634C94.0861 43.1242 93.7709 43.213 93.4484 43.2218C93.126 43.2306 92.8064 43.159 92.5186 43.0137C91.0675 42.3598 89.4146 41.1334 90.1247 39.7599C90.8347 38.3865 92.0103 38.3169 92.5186 38.6767C92.8562 38.9165 93.4537 39.4195 93.8145 39.7213C93.9016 39.7966 94.01 39.843 94.1247 39.8541C94.2394 39.8652 94.3548 39.8404 94.4547 39.7832L94.7612 39.6052C94.8344 39.5655 94.8976 39.5099 94.9462 39.4425C94.9949 39.3751 95.0277 39.2976 95.0422 39.2159C95.0567 39.1341 95.0526 39.0502 95.0302 38.9702C95.0077 38.8903 94.9675 38.8164 94.9126 38.754C94.7965 38.6071 94.7048 38.4425 94.641 38.2666C94.641 38.2666 96.7401 36.4598 96.0184 35.45C95.2967 34.4402 93.3373 32.9198 93.5546 32.1267C93.7718 31.3336 96.6586 30.3199 97.9002 30.3199C98.3619 30.3044 99.3047 30.3547 99.456 30.1535Z" fill="white"/>
<path d="M95.999 35.4385C96.7206 36.4483 94.6216 38.255 94.6216 38.255C94.6854 38.431 94.7771 38.5955 94.8932 38.7425C94.9481 38.8049 94.9883 38.8787 95.0108 38.9587C95.0332 39.0387 95.0373 39.1226 95.0228 39.2044C95.0082 39.2861 94.9755 39.3635 94.9268 39.4309C94.8782 39.4983 94.815 39.5539 94.7418 39.5937L94.4353 39.7716C94.3354 39.8289 94.22 39.8537 94.1053 39.8426C93.9906 39.8315 93.8822 39.7851 93.7951 39.7097C93.4343 39.4079 92.8368 38.905 92.4992 38.6651C91.9909 38.3053 90.8308 38.375 90.1052 39.7484C89.3797 41.1219 91.0481 42.3483 92.4992 43.0021C92.787 43.1475 93.1066 43.2191 93.429 43.2103C93.7515 43.2015 94.0667 43.1127 94.3461 42.9518C94.4752 42.8754 94.6295 42.8533 94.775 42.8903C94.9206 42.9273 95.0454 43.0204 95.1221 43.1491C95.7739 44.3098 97.2483 46.8284 97.8614 46.7743C98.6606 46.7008 105.326 44.4529 105.687 44.3175C106.055 44.141 106.341 43.8309 106.487 43.4509C106.487 43.4509 103.608 44.8089 102.04 43.4006C100.473 41.9923 98.4317 39.9612 97.8032 39.0211C97.1746 38.0809 98.4822 36.0033 97.1746 34.0148C95.867 32.0262 93.5158 32.1074 93.5158 32.1074C93.3179 32.9044 95.2734 34.421 95.999 35.4385Z" fill="#DC46AA"/>
<path opacity="0.5" d="M95.999 35.4385C96.7206 36.4483 94.6216 38.255 94.6216 38.255C94.6854 38.431 94.7771 38.5955 94.8932 38.7425C94.9481 38.8049 94.9883 38.8787 95.0108 38.9587C95.0332 39.0387 95.0373 39.1226 95.0228 39.2044C95.0082 39.2861 94.9755 39.3635 94.9268 39.4309C94.8782 39.4983 94.815 39.5539 94.7418 39.5937L94.4353 39.7716C94.3354 39.8289 94.22 39.8537 94.1053 39.8426C93.9906 39.8315 93.8822 39.7851 93.7951 39.7097C93.4343 39.4079 92.8368 38.905 92.4992 38.6651C91.9909 38.3053 90.8308 38.375 90.1052 39.7484C89.3797 41.1219 91.0481 42.3483 92.4992 43.0021C92.787 43.1475 93.1066 43.2191 93.429 43.2103C93.7515 43.2015 94.0667 43.1127 94.3461 42.9518C94.4752 42.8754 94.6295 42.8533 94.775 42.8903C94.9206 42.9273 95.0454 43.0204 95.1221 43.1491C95.7739 44.3098 97.2483 46.8284 97.8614 46.7743C98.6606 46.7008 105.326 44.4529 105.687 44.3175C106.055 44.141 106.341 43.8309 106.487 43.4509C106.487 43.4509 103.608 44.8089 102.04 43.4006C100.473 41.9923 98.4317 39.9612 97.8032 39.0211C97.1746 38.0809 98.4822 36.0033 97.1746 34.0148C95.867 32.0262 93.5158 32.1074 93.5158 32.1074C93.3179 32.9044 95.2734 34.421 95.999 35.4385Z" fill="white"/>
<path d="M99.456 30.1535C99.6617 29.8866 102.343 32.6644 102.448 32.9778C102.553 33.3597 102.638 33.7472 102.7 34.1385C102.712 34.2116 102.739 34.2816 102.779 34.3441C102.819 34.4066 102.871 34.4603 102.933 34.5022L104.807 35.7827C104.928 35.8671 105.01 35.9956 105.037 36.1403C105.064 36.2851 105.033 36.4346 104.95 36.5565L104.298 37.4928C104.242 37.5724 104.207 37.6657 104.199 37.7631C104.191 37.8604 104.209 37.9581 104.252 38.046C104.776 39.168 106.63 43.1529 106.506 43.4624C106.36 43.8424 106.074 44.1525 105.707 44.3291C105.346 44.4722 98.6801 46.7123 97.8808 46.7858C97.2677 46.84 95.7933 44.3291 95.1415 43.1607C95.0648 43.0319 94.94 42.9388 94.7945 42.9018C94.6489 42.8648 94.4947 42.887 94.3655 42.9634C94.0861 43.1242 93.7709 43.213 93.4484 43.2218C93.126 43.2306 92.8064 43.1591 92.5186 43.0137C91.0675 42.3598 89.4146 41.1334 90.1247 39.7599C90.8347 38.3865 92.0103 38.3169 92.5186 38.6767C92.8562 38.9165 93.4537 39.4195 93.8145 39.7213C93.9016 39.7966 94.01 39.843 94.1247 39.8541C94.2394 39.8652 94.3548 39.8404 94.4547 39.7832L94.7612 39.6052C94.8344 39.5655 94.8976 39.5099 94.9462 39.4425C94.9949 39.3751 95.0277 39.2976 95.0422 39.2159C95.0567 39.1341 95.0526 39.0502 95.0302 38.9702C95.0077 38.8903 94.9675 38.8164 94.9126 38.754V38.754C94.7965 38.6071 94.7048 38.4425 94.641 38.2666C94.641 38.2666 96.7401 36.4598 96.0184 35.45C95.2967 34.4402 93.3373 32.9198 93.5546 32.1267C93.7718 31.3336 96.6586 30.3199 97.9002 30.3199C98.3619 30.3044 99.3047 30.3547 99.456 30.1535Z" stroke="#0E1825" stroke-miterlimit="10" stroke-linecap="round"/>
<path d="M101.489 34.0225C101.489 34.0225 99.9372 34.0225 99.4987 34.243C99.0603 34.4636 98.5016 36.0072 98.5016 36.0072L99.9411 35.1251L101.598 34.7963L102.04 33.5853L101.489 34.0225Z" fill="#0E1825"/>
<path d="M101.598 35.5662L100.271 36.2277H101.598" fill="white"/>
<path d="M101.598 35.5662L100.271 36.2277H101.598" stroke="#0E1825" stroke-miterlimit="10" stroke-linecap="round"/>
<path d="M100.201 106.386C97.6913 107.156 95.2828 108.222 93.0269 109.562C89.628 111.655 83.9671 114.982 81.4335 115.137C78.8998 115.292 78.1005 114.487 76.5796 113.911C75.0586 113.334 74.2516 115.211 74.2516 116.294C74.2516 117.377 74.2516 117.884 73.526 118.898C72.8005 119.911 70.9264 123.649 70.9264 123.649C70.9264 123.649 69.9099 127.695 70.9264 127.839C71.943 127.982 72.5909 126.612 74.6939 124.879C76.7969 123.146 80.1259 119.385 83.098 119.099C86.0701 118.812 99.3319 117.435 104.826 114.843C110.32 112.251 109.971 112.963 111.566 111.748C113.16 110.533 112.578 108.208 111.783 106.618C111.36 105.719 110.741 104.926 109.971 104.297" fill="white"/>
<path d="M108.101 113.381C107.449 113.265 106.937 113.094 106.937 112.854C106.937 112.228 108.818 112.228 109.761 110.978C110.704 109.728 109.602 108.475 108.349 107.067C107.868 106.529 107.274 105.759 106.634 105.008L100.217 106.386C97.7068 107.156 95.2983 108.222 93.0424 109.562C89.628 111.655 83.9671 114.982 81.4335 115.137C78.8998 115.292 78.1005 114.487 76.5796 113.911C75.0586 113.334 74.2516 115.211 74.2516 116.294C74.2516 117.377 74.2516 117.884 73.526 118.898C72.8005 119.911 70.9264 123.649 70.9264 123.649C70.9264 123.649 69.9099 127.695 70.9264 127.839C71.943 127.982 72.5909 126.612 74.6939 124.879C76.7969 123.146 80.1259 119.385 83.098 119.099C86.0701 118.813 99.3319 117.435 104.826 114.843C106.285 114.154 107.321 113.702 108.101 113.381Z" fill="#DC46AA"/>
<path opacity="0.5" d="M108.101 113.381C107.449 113.265 106.937 113.094 106.937 112.854C106.937 112.228 108.818 112.228 109.761 110.978C110.704 109.728 109.602 108.475 108.349 107.067C107.868 106.529 107.274 105.759 106.634 105.008L100.217 106.386C97.7068 107.156 95.2983 108.222 93.0424 109.562C89.628 111.655 83.9671 114.982 81.4335 115.137C78.8998 115.292 78.1005 114.487 76.5796 113.911C75.0586 113.334 74.2516 115.211 74.2516 116.294C74.2516 117.377 74.2516 117.884 73.526 118.898C72.8005 119.911 70.9264 123.649 70.9264 123.649C70.9264 123.649 69.9099 127.695 70.9264 127.839C71.943 127.982 72.5909 126.612 74.6939 124.879C76.7969 123.146 80.1259 119.385 83.098 119.099C86.0701 118.813 99.3319 117.435 104.826 114.843C106.285 114.154 107.321 113.702 108.101 113.381Z" fill="white"/>
<path d="M100.201 106.386C97.6913 107.156 95.2828 108.222 93.0269 109.562C89.628 111.655 83.9671 114.982 81.4335 115.137C78.8998 115.292 78.1005 114.487 76.5796 113.911C75.0586 113.334 74.2516 115.211 74.2516 116.294C74.2516 117.377 74.2516 117.884 73.526 118.898C72.8005 119.911 70.9264 123.649 70.9264 123.649C70.9264 123.649 69.9099 127.695 70.9264 127.839C71.943 127.982 72.5909 126.612 74.6939 124.879C76.7969 123.146 80.1259 119.385 83.098 119.099C86.0701 118.812 99.3319 117.435 104.826 114.843C110.32 112.251 109.971 112.963 111.566 111.748C113.16 110.533 112.578 108.208 111.783 106.618C111.36 105.719 110.741 104.926 109.971 104.297" stroke="#0E1825" stroke-miterlimit="10" stroke-linecap="round"/>
<path d="M112.097 107.399C112.097 107.399 110.37 100.671 98.8236 90.9412C91.0636 84.3951 87.591 82.9946 83.1717 86.8944C78.7524 90.7942 79.6215 93.3283 81.2317 95.7928C82.8419 98.2573 89.3448 102.946 94.7069 105.333C100.069 107.721 105.505 111.04 108.547 110.75" fill="white"/>
<path d="M103.472 102.529C101.9 102.374 104.725 105.504 101.431 104.718C98.1369 103.933 86.687 94.2414 84.3318 91.1115C82.3918 88.5348 84.0718 86.3876 84.7198 85.6951C84.1708 86.0379 83.6516 86.4262 83.1678 86.8557C78.7485 90.7594 79.6176 93.2858 81.2278 95.7541C82.838 98.2225 89.3409 102.908 94.703 105.295C100.065 107.682 105.501 111.001 108.543 110.711L109.99 109.357C109.73 108.622 109.063 107.868 108.345 107.059C107.088 105.658 105.039 102.687 103.472 102.529Z" fill="#DC46AA"/>
<path opacity="0.5" d="M103.472 102.529C101.9 102.374 104.725 105.504 101.431 104.718C98.1369 103.933 86.687 94.2414 84.3318 91.1115C82.3918 88.5348 84.0718 86.3876 84.7198 85.6951C84.1708 86.0379 83.6516 86.4262 83.1678 86.8557C78.7485 90.7594 79.6176 93.2858 81.2278 95.7541C82.838 98.2225 89.3409 102.908 94.703 105.295C100.065 107.682 105.501 111.001 108.543 110.711L109.99 109.357C109.73 108.622 109.063 107.868 108.345 107.059C107.088 105.658 105.039 102.687 103.472 102.529Z" fill="white"/>
<path d="M112.097 107.399C112.097 107.399 110.37 100.671 98.8236 90.9412C91.0636 84.3951 87.591 82.9946 83.1717 86.8944C78.7524 90.7942 79.6215 93.3283 81.2317 95.7928C82.8419 98.2573 89.3448 102.946 94.7069 105.333C100.069 107.721 105.505 111.04 108.547 110.75" stroke="#0E1825" stroke-miterlimit="10" stroke-linecap="round"/>
<path d="M94.3306 113.756C93.5972 112.143 93.7757 110.328 94.1288 108.927C93.7602 109.129 93.3916 109.338 93.0269 109.562C89.628 111.655 83.9671 114.982 81.4335 115.137C78.8998 115.292 78.1005 114.487 76.5796 113.911C75.0586 113.334 74.2516 115.211 74.2516 116.294C74.2516 117.377 74.2516 117.884 73.526 118.898C72.8005 119.911 70.9264 123.649 70.9264 123.649C70.9264 123.649 69.9099 127.695 70.9264 127.838C71.943 127.982 72.5909 126.612 74.6939 124.879C76.7969 123.146 80.1259 119.385 83.098 119.099C88.0698 118.628 93.0143 117.904 97.9118 116.928C96.3449 116.384 95.0575 115.243 94.3306 113.756Z" fill="#DC46AA"/>
<path opacity="0.2" d="M94.3306 113.756C93.5972 112.143 93.7757 110.328 94.1288 108.927C93.7602 109.129 93.3916 109.338 93.0269 109.562C89.628 111.655 83.9671 114.982 81.4335 115.137C78.8998 115.292 78.1005 114.487 76.5796 113.911C75.0586 113.334 74.2516 115.211 74.2516 116.294C74.2516 117.377 74.2516 117.884 73.526 118.898C72.8005 119.911 70.9264 123.649 70.9264 123.649C70.9264 123.649 69.9099 127.695 70.9264 127.838C71.943 127.982 72.5909 126.612 74.6939 124.879C76.7969 123.146 80.1259 119.385 83.098 119.099C88.0698 118.628 93.0143 117.904 97.9118 116.928C96.3449 116.384 95.0575 115.243 94.3306 113.756Z" fill="#0E1825"/>
<path d="M94.3306 113.756C93.5972 112.143 93.7757 110.328 94.1288 108.927C93.7602 109.129 93.3916 109.338 93.0269 109.562C89.628 111.655 83.9671 114.982 81.4335 115.137C78.8998 115.292 78.1005 114.487 76.5796 113.911C75.0586 113.334 74.2516 115.211 74.2516 116.294C74.2516 117.377 74.2516 117.884 73.526 118.898C72.8005 119.911 70.9264 123.649 70.9264 123.649C70.9264 123.649 69.9099 127.695 70.9264 127.838C71.943 127.982 72.5909 126.612 74.6939 124.879C76.7969 123.146 80.1259 119.385 83.098 119.099C88.0698 118.628 93.0143 117.904 97.9118 116.928C96.3449 116.384 95.0575 115.243 94.3306 113.756V113.756Z" stroke="#0E1825" stroke-linecap="round" stroke-linejoin="round"/>
<path d="M81.7555 94.7985C81.7555 94.7985 97.6053 104.912 102.254 106.598C106.902 108.285 105.846 105.121 105.846 105.121" stroke="#0E1825" stroke-linecap="round" stroke-linejoin="round"/>
<path d="M95.9136 114.603C95.9136 114.603 100.352 115.025 103.309 112.282" stroke="#0E1825" stroke-linecap="round" stroke-linejoin="round"/>
<path d="M94.9397 57.9707C94.9397 57.9707 89.3215 54.3069 82.8186 55.0807C76.3157 55.8545 68.5945 62.4857 63.5893 68.1574C58.5841 73.8292 36.3323 104.765 36.3323 104.765L35.6417 99.708C35.3184 97.3259 35.95 94.9126 37.3993 92.9917L40.934 88.2988C40.934 88.2988 41.2871 82.5264 44.426 79.5628C46.5102 77.619 48.7746 75.8767 51.1888 74.3592C51.9998 73.8021 60.1128 65.6968 65.8358 59.9013C71.5588 54.1057 78.5041 49.9544 84.7974 51.7109C91.0908 53.4674 93.6128 54.806 95.0794 56.0982C96.5461 57.3904 96.5965 57.2588 96.5965 57.2588L94.9397 57.9707Z" fill="#DC46AA" stroke="#0E1825" stroke-miterlimit="10" stroke-linecap="round"/>
<path d="M56.7993 71.7207L58.1069 70.2544" stroke="#0E1825" stroke-miterlimit="10" stroke-linecap="round"/>
<path d="M40.934 88.2988L56.26 72.2236" stroke="#0E1825" stroke-miterlimit="10" stroke-linecap="round"/>
<path d="M78.2014 54.2218C77.7901 54.3843 77.3788 54.5661 76.9637 54.7789" stroke="#0E1825" stroke-miterlimit="10" stroke-linecap="round"/>
<path d="M95.6459 57.8122C95.6459 57.8122 87.7191 51.4556 79.4275 53.8118" stroke="#0E1825" stroke-miterlimit="10" stroke-linecap="round"/>
<path d="M81.868 103.496C81.868 103.496 82.5199 102.265 82.0853 101.689C81.6507 101.112 81.286 101.039 80.4906 100.315C79.6952 99.5919 79.2607 99.3753 78.3178 99.3753C77.375 99.3753 76.3778 99.4488 76.3778 99.4488C76.3778 99.4488 74.9267 98.8684 74.9267 94.6785C74.9649 92.0918 75.3913 89.5254 76.1916 87.0645C74.9216 87.8141 73.4987 88.269 72.0283 88.3954C71.1463 88.4909 70.2544 88.3617 69.4361 88.0201C68.6177 87.6784 67.8997 87.1353 67.3491 86.4417C67.5847 88.7174 68.0289 90.9669 68.676 93.1619C70.2707 98.4351 71.3571 100.749 71.78 101.673C72.2029 102.598 75.9821 107.38 76.6339 107.527C77.2857 107.674 77.9376 107.813 78.4459 107.527C78.9541 107.241 82.7139 106.366 82.5781 105.287C82.5499 104.71 82.347 104.156 81.9961 103.697L81.868 103.496Z" fill="#DC46AA"/>
<path opacity="0.2" d="M82.5936 105.302C82.5936 105.186 82.5586 105.082 82.5392 104.985C82.5392 104.954 82.5392 104.923 82.5392 104.892C82.5392 104.861 82.5082 104.753 82.4927 104.691C82.4772 104.629 82.4616 104.587 82.45 104.54C81.061 104.714 78.5196 105.6 77.8367 105.6C77.0917 105.6 76.3429 104.482 75.2216 103.236C74.1002 101.991 72.3542 98.764 72.1176 94.7868C71.9662 92.4036 72.5327 90.1132 73.01 88.2523C72.6996 88.3142 72.3814 88.3606 72.04 88.3954C71.158 88.4909 70.2661 88.3617 69.4477 88.0201C68.6294 87.6784 67.9113 87.1353 67.3607 86.4417C67.3607 86.5422 67.384 86.6467 67.3956 86.7473C67.415 86.9253 67.4383 87.1032 67.4616 87.2889C67.4616 87.4089 67.4965 87.5365 67.512 87.6758C67.5275 87.8151 67.5624 88.0085 67.5857 88.1788C67.609 88.349 67.6284 88.438 67.6478 88.5657C67.6672 88.6933 67.706 88.9061 67.737 89.0764L67.8069 89.4632L67.9 89.9894L67.9815 90.3763C68.0203 90.5581 68.063 90.7438 68.1056 90.9295C68.1328 91.0533 68.16 91.1771 68.191 91.2971C68.2414 91.506 68.2958 91.7149 68.3501 91.92C68.3734 92.0244 68.4005 92.1289 68.4277 92.2295C68.513 92.5429 68.6023 92.8562 68.6954 93.1657C70.2901 98.439 71.3765 100.753 71.7994 101.677C71.8348 101.752 71.8749 101.824 71.9197 101.894C71.9973 102.025 72.0982 102.184 72.2223 102.366C72.428 102.668 72.6918 103.027 72.9983 103.422L73.1807 103.658C74.4688 105.349 76.2381 107.434 76.6727 107.527C77.3245 107.67 77.9764 107.813 78.4846 107.527C78.6731 107.439 78.8676 107.364 79.0666 107.303L79.3654 107.206C80.607 106.803 82.7022 106.115 82.5936 105.302Z" fill="#0E1825"/>
<path d="M81.4528 102.207L80.541 102.962C80.541 102.962 81.2162 102.915 82.0116 103.712" stroke="#0E1825" stroke-linecap="round" stroke-linejoin="round"/>
<path d="M81.868 103.496C81.868 103.496 82.5199 102.265 82.0853 101.689C81.6507 101.112 81.286 101.039 80.4906 100.315C79.6952 99.5919 79.2607 99.3753 78.3178 99.3753C77.375 99.3753 76.3778 99.4488 76.3778 99.4488C76.3778 99.4488 74.9267 98.8684 74.9267 94.6785C74.9649 92.0918 75.3913 89.5254 76.1916 87.0645C74.9216 87.8141 73.4987 88.269 72.0283 88.3954C71.1463 88.4909 70.2544 88.3617 69.4361 88.0201C68.6177 87.6784 67.8997 87.1353 67.3491 86.4417C67.5847 88.7174 68.0289 90.9669 68.676 93.1619C70.2707 98.4351 71.3571 100.749 71.78 101.673C72.2029 102.598 75.9821 107.38 76.6339 107.527C77.2857 107.674 77.9376 107.813 78.4459 107.527C78.9541 107.241 82.7139 106.366 82.5781 105.287C82.5499 104.71 82.347 104.156 81.9961 103.697L81.868 103.496Z" stroke="#0E1825" stroke-linecap="round" stroke-linejoin="round"/>
<path d="M138.454 28.0721L125.96 39.7677" stroke="#0E1825" stroke-linecap="round" stroke-linejoin="round"/>
<path d="M124.789 40.8627L122.763 42.7584" stroke="#0E1825" stroke-linecap="round" stroke-linejoin="round"/>
<path d="M47.9374 102.169L45.7568 104.211" stroke="#0E1825" stroke-linecap="round" stroke-linejoin="round"/>
<path d="M64.0704 87.0724L49.6912 100.528" stroke="#0E1825" stroke-linecap="round" stroke-linejoin="round"/>
<path d="M77.6 128.941L76.1566 130.291" stroke="#0E1825" stroke-linecap="round" stroke-linejoin="round"/>
<path d="M86.6094 120.507L79.0589 127.572" stroke="#0E1825" stroke-linecap="round" stroke-linejoin="round"/>
<path d="M25.5188 108.761L23.7766 110.394" stroke="#0E1825" stroke-linecap="round" stroke-linejoin="round"/>
<path d="M42.0941 93.2548L27.8545 106.579" stroke="#0E1825" stroke-linecap="round" stroke-linejoin="round"/>
<path d="M67.3801 53.2816L65.1956 55.3244" stroke="#0E1825" stroke-linecap="round" stroke-linejoin="round"/>
<path d="M83.5131 38.1853L69.2735 51.5135" stroke="#0E1825" stroke-linecap="round" stroke-linejoin="round"/>
<path d="M135.358 33.9722L117.04 51.1112" stroke="#0E1825" stroke-linecap="round" stroke-linejoin="round"/>
<path d="M162.266 74.8429C159.623 73.4075 158.424 74.603 157.466 73.4075C156.508 72.212 160.104 69.0976 152.903 66.0025C152.903 66.0025 152.422 59.2978 142.578 59.0385C132.735 58.7793 135.377 65.7433 132.735 67.4185C130.093 69.0937 129.375 66.459 126.732 68.1381C124.09 69.8172 125.293 73.1676 123.132 73.6435C120.971 74.1194 118.088 71.4885 115.449 73.1638C112.811 74.839 112.807 76.2589 111.608 76.2589C110.409 76.2589 108.008 75.3033 106.564 76.2589C105.121 77.2145 103.441 78.4138 103.441 78.4138H164.186C164.186 78.4138 164.9 76.2782 162.266 74.8429Z" fill="white"/>
<path d="M74.2632 36.1001C73.2428 35.5468 72.7811 36.0072 72.4086 35.5468C72.0361 35.0864 73.429 33.8832 70.6509 32.6838C70.6509 32.6838 70.4647 30.0956 66.6662 30.0027C62.8677 29.9099 63.8881 32.591 62.8677 33.2371C61.8472 33.8832 61.5717 32.8502 60.5397 33.5118C59.5076 34.1734 59.9848 35.4462 59.1506 35.6397C58.3164 35.8331 57.2106 34.8078 56.1863 35.4539C55.162 36.1 55.1659 36.6533 54.7041 36.6533C54.2424 36.6533 53.3151 36.2858 52.7641 36.6533C52.2132 37.0208 51.5613 37.4851 51.5613 37.4851H75.0004C75.0004 37.4851 75.272 36.6533 74.2632 36.1001Z" fill="white"/>
</svg>
