<svg width="13" height="18" viewBox="0 0 13 18" fill="none" xmlns="http://www.w3.org/2000/svg">
<path fill-rule="evenodd" clip-rule="evenodd" d="M5.73504 0.00788464C4.77334 0.115746 4.1431 0.28966 3.44684 0.639355C2.83522 0.946539 2.3828 1.26889 1.87207 1.76139C1.15516 2.45272 0.591467 3.3616 0.287486 4.31644C0.010144 5.18753 -0.0883559 6.28233 0.0891836 6.52015C0.21369 6.68689 0.336296 6.75523 0.541355 6.77226C0.703973 6.78574 0.759857 6.77363 0.891366 6.69656C1.10434 6.57178 1.19517 6.38079 1.19602 6.05609C1.19672 5.77737 1.2664 5.28519 1.35258 4.94989C1.6023 3.97815 2.16486 3.07304 2.93048 2.41112C3.59465 1.83691 4.33605 1.47645 5.24237 1.28712C5.76647 1.17764 6.61859 1.17764 7.14269 1.28712C8.28602 1.52596 9.23107 2.07297 9.96298 2.91953C10.8996 4.00282 11.3118 5.35634 11.1548 6.83261C11.0854 7.48492 10.8492 8.10083 10.48 8.59217C10.3782 8.72766 9.94496 9.19482 9.51725 9.63031C8.44983 10.7171 8.02113 11.2724 7.6922 11.9945C7.35088 12.7437 7.19643 13.4457 7.146 14.4774C7.11858 15.0379 7.10356 15.1415 7.01097 15.4102C6.72652 16.2354 5.93715 16.8081 5.08401 16.8081C4.6091 16.8081 4.04914 16.587 3.69614 16.2602C3.28982 15.8841 3.08043 15.4553 3.02694 14.89C2.98292 14.4247 2.87105 14.2516 2.56031 14.1679C2.29947 14.0977 2.03849 14.2112 1.90188 14.4542C1.8252 14.5907 1.82069 14.628 1.83913 14.975C1.8802 15.748 2.19728 16.4586 2.74981 17.016C3.95817 18.2351 5.83439 18.3328 7.15652 17.2454C7.89828 16.6353 8.33398 15.6921 8.33796 14.6877C8.34229 13.5971 8.61315 12.6584 9.15541 11.8549C9.40594 11.4835 9.67385 11.18 10.451 10.3869C11.1941 9.62866 11.3296 9.47325 11.6014 9.06725C11.8423 8.70749 11.981 8.4234 12.1225 7.99994C12.2885 7.50343 12.3537 7.10281 12.3764 6.44044C12.4118 5.40392 12.2427 4.53322 11.8305 3.63022C10.9678 1.74028 9.231 0.412407 7.17788 0.0731643C6.87707 0.0234391 5.96445 -0.0178401 5.73504 0.00788464ZM5.84062 2.85573C4.94764 3.03489 4.09651 3.59531 3.6178 4.31926C3.33399 4.74856 3.18111 5.12366 3.05974 5.6889C2.99678 5.98211 2.99038 6.10328 3.00766 6.67425C3.04485 7.902 3.0558 7.97041 3.24193 8.13909C3.37928 8.26356 3.46789 8.29305 3.70444 8.29305C4.39947 8.29305 4.94169 8.60737 5.21692 9.16976C5.32376 9.38813 5.33035 9.42398 5.33035 9.78867C5.33035 10.1508 5.3231 10.191 5.21826 10.4124C5.06251 10.7412 4.83271 10.9753 4.50842 11.1356C4.25286 11.2619 4.22957 11.2667 3.87178 11.2667C3.52623 11.2667 3.48242 11.2585 3.24185 11.1495C2.90395 10.9965 2.78138 10.9788 2.58251 11.0548C2.34592 11.1452 2.21593 11.3389 2.21593 11.6011C2.21593 11.8564 2.30647 11.9988 2.56903 12.1564C2.9068 12.3591 3.26526 12.4537 3.76729 12.4723C4.13874 12.4861 4.25744 12.4768 4.50325 12.4146C5.30649 12.2115 5.92933 11.7103 6.27963 10.9852C6.48944 10.5508 6.55549 10.2624 6.55366 9.78867C6.55056 8.96566 6.20059 8.22625 5.57038 7.7113C5.30511 7.49452 4.81501 7.25663 4.48016 7.18213L4.21549 7.12326L4.2295 6.45009C4.24237 5.83153 4.25086 5.75763 4.33377 5.53962C4.46795 5.18693 4.63465 4.92715 4.89197 4.66987C5.15692 4.40488 5.40977 4.24529 5.77604 4.11184C6.00925 4.02689 6.08002 4.01795 6.50925 4.01933C7.05464 4.02109 7.26301 4.07507 7.68558 4.32408C8.32033 4.69816 8.72108 5.3485 8.79442 6.12341C8.82895 6.48823 8.88071 6.62027 9.0428 6.75664C9.22689 6.91155 9.55797 6.92552 9.74603 6.7863C9.93726 6.64473 9.99317 6.51142 9.99317 6.19706C9.99317 4.80683 8.99737 3.44071 7.65296 2.98646C7.11573 2.80498 6.36394 2.75072 5.84062 2.85573Z" fill="white"/>
</svg>
