<svg width="36" height="35" viewBox="0 0 36 35" fill="none" xmlns="http://www.w3.org/2000/svg">
<path fill-rule="evenodd" clip-rule="evenodd" d="M2.47217 0.066973C1.29795 0.297548 0.299796 1.31622 0.07223 2.5163C-0.0240767 3.02396 -0.0240767 25.8266 0.07223 26.3343C0.305199 27.5627 1.29727 28.5548 2.52572 28.7878C2.76328 28.8329 5.79824 28.8576 11.081 28.8576H19.2682L19.4905 28.581C19.6127 28.4289 19.7386 28.2142 19.7702 28.104C19.8107 27.9629 19.3649 24.1669 18.2624 15.265C17.4014 8.31371 16.6628 2.48784 16.6208 2.31855C16.4371 1.57587 15.7271 0.680244 15.0471 0.333321C14.3918 -0.000947871 14.3015 -0.00546224 8.34715 0.00144612C5.28114 0.00500291 2.63742 0.0344832 2.47217 0.066973ZM19.2227 6.29257C19.2227 6.33388 19.8106 11.0663 20.5291 16.809C21.3611 23.4595 21.8331 27.4555 21.829 27.8157C21.8222 28.4101 21.6591 29.0345 21.4005 29.4554C21.3256 29.5772 20.2216 30.87 18.947 32.3281L16.6297 34.9794L24.3728 34.9968C29.3691 35.008 32.2486 34.9897 32.4897 34.9451C33.7268 34.7165 34.7261 33.7156 34.9554 32.4757C35.0017 32.2249 35.0188 28.1599 35.006 20.4057C34.985 7.58437 35.0188 8.56426 34.5703 7.79025C34.1289 7.02855 33.3156 6.43751 32.5 6.28587C31.9633 6.18607 19.2227 6.1925 19.2227 6.29257ZM10.7227 7.41528C11.2408 7.62329 11.2107 7.51624 12.3579 13.243C12.9359 16.1281 13.4087 18.5606 13.4087 18.6485C13.4087 19.1201 12.8789 19.6237 12.3827 19.6237C12.049 19.6237 11.6488 19.3815 11.5049 19.0927C11.4349 18.952 11.2301 18.0906 11.0498 17.1784L10.7219 15.5197H9.27054H7.81917L7.49133 17.1784C7.31096 18.0906 7.10836 18.9478 7.04106 19.0831C6.68962 19.7895 5.63148 19.7866 5.27005 19.0782C5.19434 18.9298 5.13237 18.7364 5.13237 18.6485C5.13237 18.5606 5.60521 16.1281 6.18319 13.243C7.32444 7.54572 7.302 7.62664 7.79995 7.4187C8.1492 7.27287 10.3616 7.27028 10.7227 7.41528ZM8.64099 11.4157L8.23073 13.4677H9.27054H10.3104L9.90009 11.4157L9.48983 9.36371H9.27054H9.05125L8.64099 11.4157ZM28.2532 13.6054C28.6616 13.8137 28.7986 14.1394 28.7986 14.9013V15.5197H30.4772C32.0244 15.5197 32.1768 15.5304 32.4256 15.6574C32.7291 15.8122 32.971 16.2063 32.971 16.5457C32.971 16.8547 32.7286 17.278 32.4744 17.4128C32.3525 17.4774 32.1186 17.5473 31.9546 17.5681L31.6563 17.6059L31.4354 18.2215C31.0419 19.3177 30.3038 20.6298 29.4471 21.7556L29.2041 22.075L29.7709 22.5473C30.0826 22.807 30.6476 23.2562 31.0264 23.5454C31.9489 24.2496 32.1204 24.6205 31.8073 25.2342C31.5659 25.7074 30.9558 25.9075 30.4881 25.667C30.2438 25.5414 28.5822 24.2618 28.1332 23.8538C27.9742 23.7092 27.8136 23.5908 27.7763 23.5908C27.7391 23.5908 27.4845 23.7847 27.2105 24.0216C26.3804 24.7396 25.3574 25.5466 25.1256 25.6665C24.6587 25.9078 24.0479 25.7077 23.8064 25.2342C23.5061 24.6456 23.6713 24.2504 24.4843 23.6127C24.8069 23.3597 25.3566 22.9092 25.7057 22.6116L26.3406 22.0705L26.1503 21.8235C25.3749 20.817 24.6139 19.4261 24.1794 18.2215L23.9574 17.6059L23.6591 17.5681C23.4951 17.5473 23.2611 17.4774 23.1393 17.4128C22.8851 17.278 22.6427 16.8547 22.6427 16.5457C22.6427 16.2063 22.8846 15.8122 23.1881 15.6574C23.4364 15.5307 23.5893 15.5197 25.1023 15.5197H26.7466V14.9013C26.7466 14.1516 26.8843 13.8163 27.2775 13.6087C27.6075 13.4345 27.9162 13.4335 28.2532 13.6054ZM26.1311 17.6434C26.1311 17.8087 26.8226 19.1628 27.1795 19.6964C27.7787 20.5921 27.7519 20.5648 27.879 20.4062C28.419 19.732 29.4826 17.8966 29.4826 17.6388C29.4826 17.5967 28.8564 17.5717 27.8068 17.5717C26.6846 17.5717 26.1311 17.5953 26.1311 17.6434ZM12.0119 31.1319C12.2244 32.6582 12.2573 32.8141 12.4501 33.2073C12.5623 33.4365 12.778 33.7645 12.9292 33.9364C13.2223 34.2693 13.8005 34.6885 13.9226 34.6566C13.9631 34.6461 14.4859 34.0987 15.0845 33.4404C15.683 32.782 16.4468 31.9433 16.7818 31.5765L17.3909 30.9096H14.6859H11.9809L12.0119 31.1319Z" fill="#0E1825"/>
</svg>
