<svg width="162" height="51" viewBox="0 0 162 51" fill="none" xmlns="http://www.w3.org/2000/svg">
<rect x="1" y="1" width="160" height="49" rx="24.5" stroke="url(#paint0_linear_2_16)" stroke-width="2"/>
<path d="M79.448 22C79.448 21.4587 79.448 20.9337 79.448 20.425C79.448 19.9163 79.448 19.3517 79.448 18.731V15.357C79.448 14.7177 79.448 14.139 79.448 13.621C79.448 13.103 79.448 12.5687 79.448 12.018H81.415C81.415 12.5687 81.415 13.103 81.415 13.621C81.415 14.139 81.415 14.7177 81.415 15.357V18.731C81.415 19.3517 81.415 19.9163 81.415 20.425C81.415 20.9337 81.415 21.4587 81.415 22H79.448ZM73.085 22C73.085 21.4587 73.085 20.9337 73.085 20.425C73.085 19.9163 73.085 19.3517 73.085 18.731V15.357C73.085 14.7177 73.085 14.139 73.085 13.621C73.085 13.103 73.085 12.5687 73.085 12.018H75.052C75.052 12.5687 75.052 13.103 75.052 13.621C75.052 14.139 75.052 14.7177 75.052 15.357V18.731C75.052 19.3517 75.052 19.9163 75.052 20.425C75.052 20.9337 75.052 21.4587 75.052 22H73.085ZM74.478 17.786V16.141H80.064V17.786H74.478ZM85.132 22.161C84.74 22.161 84.39 22.0793 84.082 21.916C83.774 21.7527 83.529 21.517 83.347 21.209C83.1697 20.8963 83.081 20.5207 83.081 20.082C83.081 19.6947 83.1487 19.368 83.284 19.102C83.4193 18.8313 83.5967 18.612 83.816 18.444C84.04 18.2713 84.285 18.1383 84.551 18.045C84.8217 17.9517 85.0947 17.884 85.37 17.842L87.365 17.548C87.379 17.2213 87.323 16.9693 87.197 16.792C87.0757 16.6147 86.9007 16.4933 86.672 16.428C86.4433 16.358 86.1797 16.323 85.881 16.323C85.7223 16.323 85.5497 16.337 85.363 16.365C85.181 16.3883 84.9873 16.4257 84.782 16.477C84.5813 16.5283 84.3713 16.5937 84.152 16.673C83.9327 16.7477 83.7087 16.8387 83.48 16.946L83.396 15.399C83.5687 15.3337 83.7623 15.2683 83.977 15.203C84.1963 15.1377 84.4343 15.0793 84.691 15.028C84.9477 14.972 85.2137 14.93 85.489 14.902C85.769 14.8693 86.056 14.853 86.35 14.853C86.9193 14.853 87.4047 14.937 87.806 15.105C88.212 15.2683 88.5223 15.532 88.737 15.896C88.9517 16.2553 89.059 16.7243 89.059 17.303C89.059 17.527 89.059 17.8047 89.059 18.136C89.059 18.4673 89.059 18.7707 89.059 19.046V19.816C89.059 20.1567 89.059 20.5043 89.059 20.859C89.059 21.209 89.059 21.5893 89.059 22H87.484L87.379 21.09H87.232C87.1013 21.2627 86.938 21.4307 86.742 21.594C86.546 21.7527 86.3127 21.888 86.042 22C85.776 22.1073 85.4727 22.161 85.132 22.161ZM85.776 20.768C85.972 20.768 86.1657 20.7213 86.357 20.628C86.5483 20.5347 86.7257 20.404 86.889 20.236C87.057 20.068 87.1993 19.8673 87.316 19.634V18.535C87.2553 18.577 87.1737 18.6167 87.071 18.654C86.973 18.6867 86.826 18.724 86.63 18.766C86.434 18.808 86.1587 18.8617 85.804 18.927C85.6033 18.9643 85.433 19.0273 85.293 19.116C85.1577 19.2047 85.0527 19.319 84.978 19.459C84.9033 19.599 84.866 19.76 84.866 19.942C84.866 20.2453 84.957 20.46 85.139 20.586C85.3257 20.7073 85.538 20.768 85.776 20.768ZM93.9941 22.147C93.2148 22.147 92.5521 21.9907 92.0061 21.678C91.4648 21.3607 91.0518 20.929 90.7671 20.383C90.4871 19.837 90.3471 19.2163 90.3471 18.521C90.3471 17.821 90.4801 17.1957 90.7461 16.645C91.0121 16.0897 91.4041 15.6533 91.9221 15.336C92.4448 15.014 93.0911 14.853 93.8611 14.853C94.1364 14.853 94.4094 14.874 94.6801 14.916C94.9508 14.958 95.2051 15.0187 95.4431 15.098C95.6858 15.1727 95.9004 15.2613 96.0871 15.364L95.9471 16.918C95.6811 16.7687 95.4361 16.6543 95.2121 16.575C94.9928 16.4957 94.7898 16.442 94.6031 16.414C94.4164 16.386 94.2484 16.372 94.0991 16.372C93.5111 16.372 93.0398 16.561 92.6851 16.939C92.3351 17.317 92.1601 17.828 92.1601 18.472C92.1601 18.8967 92.2441 19.2747 92.4121 19.606C92.5801 19.9327 92.8274 20.1917 93.1541 20.383C93.4854 20.5697 93.8961 20.663 94.3861 20.663C94.5681 20.663 94.7501 20.6467 94.9321 20.614C95.1141 20.5813 95.2938 20.5323 95.4711 20.467C95.6484 20.397 95.8188 20.3083 95.9821 20.201L96.0871 21.755C95.9284 21.8297 95.7441 21.8973 95.5341 21.958C95.3288 22.014 95.0978 22.0583 94.8411 22.091C94.5844 22.1283 94.3021 22.147 93.9941 22.147ZM99.08 22C99.08 21.496 99.08 21.0083 99.08 20.537C99.08 20.0657 99.08 19.5407 99.08 18.962V18.262C99.08 17.8513 99.08 17.4827 99.08 17.156C99.08 16.8293 99.08 16.519 99.08 16.225C99.08 15.931 99.08 15.6253 99.08 15.308L99.647 16.435H99.346C98.954 16.435 98.548 16.435 98.128 16.435C97.7127 16.435 97.302 16.435 96.896 16.435V15.028H103.035V16.435C102.634 16.435 102.223 16.435 101.803 16.435C101.388 16.435 100.982 16.435 100.585 16.435H100.291L100.858 15.308C100.858 15.6253 100.858 15.931 100.858 16.225C100.858 16.519 100.858 16.8293 100.858 17.156C100.858 17.4827 100.858 17.8513 100.858 18.262V18.962C100.858 19.5407 100.858 20.0657 100.858 20.537C100.858 21.0083 100.858 21.496 100.858 22H99.08ZM104.212 24.744C104.212 24.24 104.212 23.743 104.212 23.253C104.212 22.763 104.212 22.2287 104.212 21.65V18.262C104.212 17.7347 104.212 17.2003 104.212 16.659C104.212 16.1177 104.212 15.574 104.212 15.028L105.801 14.937L105.85 15.875H106.004C106.144 15.6697 106.314 15.49 106.515 15.336C106.72 15.1773 106.953 15.056 107.215 14.972C107.476 14.888 107.763 14.846 108.076 14.846C108.696 14.846 109.221 15.007 109.651 15.329C110.08 15.6463 110.404 16.0827 110.624 16.638C110.843 17.1887 110.953 17.8093 110.953 18.5C110.953 19.1487 110.85 19.753 110.645 20.313C110.439 20.873 110.124 21.3233 109.7 21.664C109.275 22.0047 108.741 22.175 108.097 22.175C107.803 22.175 107.534 22.1353 107.292 22.056C107.054 21.9813 106.837 21.8717 106.641 21.727C106.445 21.5823 106.267 21.4073 106.109 21.202H105.99V21.741C105.99 22.273 105.99 22.77 105.99 23.232C105.99 23.6987 105.99 24.184 105.99 24.688L104.212 24.744ZM107.453 20.642C107.84 20.642 108.157 20.5417 108.405 20.341C108.657 20.1357 108.841 19.872 108.958 19.55C109.074 19.228 109.133 18.8827 109.133 18.514C109.133 18.1267 109.07 17.7743 108.944 17.457C108.822 17.135 108.636 16.8783 108.384 16.687C108.136 16.491 107.821 16.393 107.439 16.393C107.247 16.393 107.063 16.4233 106.886 16.484C106.708 16.54 106.543 16.624 106.389 16.736C106.235 16.8433 106.102 16.9763 105.99 17.135V19.746C106.097 19.928 106.221 20.0867 106.361 20.222C106.501 20.3573 106.662 20.4623 106.844 20.537C107.026 20.607 107.229 20.642 107.453 20.642ZM115.739 22.175C115.123 22.175 114.587 22.077 114.129 21.881C113.672 21.6803 113.292 21.4073 112.988 21.062C112.685 20.7167 112.459 20.3223 112.309 19.879C112.16 19.4357 112.085 18.9713 112.085 18.486C112.085 17.7907 112.225 17.17 112.505 16.624C112.785 16.0733 113.194 15.6393 113.73 15.322C114.272 15.0047 114.93 14.846 115.704 14.846C116.302 14.846 116.824 14.9393 117.272 15.126C117.725 15.308 118.103 15.5647 118.406 15.896C118.714 16.2273 118.945 16.6147 119.099 17.058C119.253 17.4967 119.33 17.9727 119.33 18.486C119.33 19.186 119.188 19.8137 118.903 20.369C118.623 20.9243 118.215 21.3653 117.678 21.692C117.142 22.014 116.495 22.175 115.739 22.175ZM115.732 20.705C116.134 20.705 116.465 20.6 116.726 20.39C116.992 20.1753 117.191 19.9 117.321 19.564C117.452 19.228 117.517 18.8687 117.517 18.486C117.517 18.038 117.443 17.653 117.293 17.331C117.149 17.0043 116.941 16.7547 116.67 16.582C116.4 16.4047 116.085 16.316 115.725 16.316C115.329 16.316 114.993 16.414 114.717 16.61C114.447 16.8013 114.241 17.0603 114.101 17.387C113.966 17.7137 113.898 18.08 113.898 18.486C113.898 18.8687 113.966 19.228 114.101 19.564C114.237 19.9 114.44 20.1753 114.71 20.39C114.986 20.6 115.326 20.705 115.732 20.705ZM120.796 22C120.796 21.4913 120.796 21.0037 120.796 20.537C120.796 20.0657 120.796 19.5407 120.796 18.962V18.262C120.796 17.814 120.796 17.4103 120.796 17.051C120.796 16.6917 120.796 16.3487 120.796 16.022C120.796 15.6953 120.796 15.364 120.796 15.028L122.511 14.979C122.511 15.2917 122.511 15.602 122.511 15.91C122.511 16.218 122.511 16.5447 122.511 16.89C122.511 17.2307 122.511 17.611 122.511 18.031V19.571H122.623L123.778 17.59C124.034 17.1607 124.286 16.7313 124.534 16.302C124.786 15.868 125.033 15.4433 125.276 15.028H127.103C127.103 15.364 127.103 15.6953 127.103 16.022C127.103 16.3487 127.103 16.6917 127.103 17.051C127.103 17.4103 127.103 17.814 127.103 18.262V18.962C127.103 19.5407 127.103 20.0657 127.103 20.537C127.103 21.0037 127.103 21.4913 127.103 22H125.402C125.402 21.5053 125.402 21.027 125.402 20.565C125.402 20.0983 125.402 19.5827 125.402 19.018V17.45H125.276L124.142 19.403C123.89 19.8417 123.638 20.278 123.386 20.712C123.134 21.146 122.882 21.5753 122.63 22H120.796ZM130.471 22C130.471 21.496 130.471 21.0083 130.471 20.537C130.471 20.0657 130.471 19.5407 130.471 18.962V18.262C130.471 17.8513 130.471 17.4827 130.471 17.156C130.471 16.8293 130.471 16.519 130.471 16.225C130.471 15.931 130.471 15.6253 130.471 15.308L131.038 16.435H130.737C130.345 16.435 129.939 16.435 129.519 16.435C129.103 16.435 128.693 16.435 128.287 16.435V15.028H134.426V16.435C134.024 16.435 133.614 16.435 133.194 16.435C132.778 16.435 132.372 16.435 131.976 16.435H131.682L132.249 15.308C132.249 15.6253 132.249 15.931 132.249 16.225C132.249 16.519 132.249 16.8293 132.249 17.156C132.249 17.4827 132.249 17.8513 132.249 18.262V18.962C132.249 19.5407 132.249 20.0657 132.249 20.537C132.249 21.0083 132.249 21.496 132.249 22H130.471ZM135.602 22C135.602 21.4913 135.602 21.0037 135.602 20.537C135.602 20.0657 135.602 19.5407 135.602 18.962V18.262C135.602 17.814 135.602 17.4103 135.602 17.051C135.602 16.6917 135.602 16.3487 135.602 16.022C135.602 15.6953 135.602 15.364 135.602 15.028L137.359 14.972C137.359 15.448 137.359 15.91 137.359 16.358C137.359 16.806 137.359 17.2867 137.359 17.8C137.359 18.3227 137.359 18.8103 137.359 19.263C137.359 19.7157 137.359 20.1823 137.359 20.663H138.402C138.682 20.663 138.937 20.6327 139.165 20.572C139.394 20.5113 139.574 20.397 139.704 20.229C139.84 20.0563 139.907 19.809 139.907 19.487C139.907 19.2537 139.87 19.067 139.795 18.927C139.721 18.7823 139.62 18.6727 139.494 18.598C139.373 18.5233 139.235 18.4743 139.081 18.451C138.932 18.423 138.78 18.409 138.626 18.409H137.128L136.694 17.072C136.97 17.072 137.308 17.072 137.709 17.072C138.111 17.072 138.486 17.072 138.836 17.072C139.457 17.072 139.98 17.1513 140.404 17.31C140.834 17.4687 141.158 17.723 141.377 18.073C141.597 18.423 141.706 18.8873 141.706 19.466C141.706 19.97 141.613 20.4133 141.426 20.796C141.244 21.174 140.948 21.4703 140.537 21.685C140.127 21.895 139.578 22 138.892 22C138.225 22 137.614 22 137.058 22C136.503 22 136.018 22 135.602 22ZM72.903 39C72.903 38.496 72.903 38.0083 72.903 37.537C72.903 37.0657 72.903 36.5407 72.903 35.962V35.262C72.903 34.814 72.903 34.4103 72.903 34.051C72.903 33.687 72.903 33.344 72.903 33.022C72.903 32.6953 72.903 32.364 72.903 32.028H79.161C79.161 32.364 79.161 32.6953 79.161 33.022C79.161 33.344 79.161 33.687 79.161 34.051C79.161 34.4103 79.161 34.814 79.161 35.262V35.962C79.161 36.5407 79.161 37.0657 79.161 37.537C79.161 38.0083 79.161 38.496 79.161 39H77.383C77.383 38.496 77.383 38.0083 77.383 37.537C77.383 37.0657 77.383 36.5407 77.383 35.962V35.262C77.383 34.8513 77.383 34.4827 77.383 34.156C77.383 33.8293 77.383 33.519 77.383 33.225C77.383 32.931 77.383 32.6253 77.383 32.308L78.118 33.435H73.953L74.681 32.308C74.681 32.6253 74.681 32.931 74.681 33.225C74.681 33.519 74.681 33.8293 74.681 34.156C74.681 34.4827 74.681 34.8513 74.681 35.262V35.962C74.681 36.5407 74.681 37.0657 74.681 37.537C74.681 38.0083 74.681 38.496 74.681 39H72.903ZM84.2804 39.175C83.6644 39.175 83.1277 39.077 82.6704 38.881C82.2131 38.6803 81.8327 38.4073 81.5294 38.062C81.2261 37.7167 80.9997 37.3223 80.8504 36.879C80.7011 36.4357 80.6264 35.9713 80.6264 35.486C80.6264 34.7907 80.7664 34.17 81.0464 33.624C81.3264 33.0733 81.7347 32.6393 82.2714 32.322C82.8127 32.0047 83.4707 31.846 84.2454 31.846C84.8427 31.846 85.3654 31.9393 85.8134 32.126C86.2661 32.308 86.6441 32.5647 86.9474 32.896C87.2554 33.2273 87.4864 33.6147 87.6404 34.058C87.7944 34.4967 87.8714 34.9727 87.8714 35.486C87.8714 36.186 87.7291 36.8137 87.4444 37.369C87.1644 37.9243 86.7561 38.3653 86.2194 38.692C85.6827 39.014 85.0364 39.175 84.2804 39.175ZM84.2734 37.705C84.6747 37.705 85.0061 37.6 85.2674 37.39C85.5334 37.1753 85.7317 36.9 85.8624 36.564C85.9931 36.228 86.0584 35.8687 86.0584 35.486C86.0584 35.038 85.9837 34.653 85.8344 34.331C85.6897 34.0043 85.4821 33.7547 85.2114 33.582C84.9407 33.4047 84.6257 33.316 84.2664 33.316C83.8697 33.316 83.5337 33.414 83.2584 33.61C82.9877 33.8013 82.7824 34.0603 82.6424 34.387C82.5071 34.7137 82.4394 35.08 82.4394 35.486C82.4394 35.8687 82.5071 36.228 82.6424 36.564C82.7777 36.9 82.9807 37.1753 83.2514 37.39C83.5267 37.6 83.8674 37.705 84.2734 37.705ZM92.7876 39.175C91.9103 39.175 91.1916 39.0163 90.6316 38.699C90.0716 38.3817 89.6586 37.9453 89.3926 37.39C89.1266 36.8347 88.9936 36.2 88.9936 35.486C88.9936 34.7767 89.1196 34.149 89.3716 33.603C89.6283 33.0523 90.0039 32.623 90.4986 32.315C90.9933 32.007 91.5999 31.853 92.3186 31.853C92.9393 31.853 93.4689 31.9673 93.9076 32.196C94.3509 32.42 94.6916 32.7583 94.9296 33.211C95.1676 33.659 95.2866 34.2237 95.2866 34.905C95.2866 35.087 95.2819 35.2503 95.2726 35.395C95.2679 35.5397 95.2539 35.682 95.2306 35.822L93.6836 35.199C93.6929 35.1337 93.6999 35.0683 93.7046 35.003C93.7093 34.933 93.7116 34.8677 93.7116 34.807C93.7116 34.2937 93.5833 33.8923 93.3266 33.603C93.0699 33.309 92.7386 33.162 92.3326 33.162C92.0246 33.162 91.7539 33.2507 91.5206 33.428C91.2873 33.6007 91.1029 33.8433 90.9676 34.156C90.8323 34.4687 90.7646 34.8303 90.7646 35.241V35.514C90.7646 35.9667 90.8439 36.3563 91.0026 36.683C91.1613 37.005 91.4063 37.2547 91.7376 37.432C92.0689 37.6047 92.4866 37.691 92.9906 37.691C93.1866 37.691 93.4059 37.6747 93.6486 37.642C93.8959 37.6047 94.1456 37.5487 94.3976 37.474C94.6496 37.3993 94.8853 37.3037 95.1046 37.187L95.1606 38.713C94.9833 38.8017 94.7756 38.881 94.5376 38.951C94.2996 39.021 94.0336 39.0747 93.7396 39.112C93.4456 39.154 93.1283 39.175 92.7876 39.175ZM89.6936 35.822V34.709L94.1806 34.632L95.2306 35.031V35.822H89.6936ZM98.9944 39.147C98.6771 39.147 98.3831 39.133 98.1124 39.105C97.8464 39.0817 97.6014 39.0467 97.3774 39C97.1581 38.9487 96.9621 38.895 96.7894 38.839C96.6167 38.783 96.4697 38.7247 96.3484 38.664L96.4604 37.159C96.6424 37.2523 96.8547 37.3387 97.0974 37.418C97.3447 37.4973 97.6131 37.5627 97.9024 37.614C98.1917 37.6607 98.4904 37.684 98.7984 37.684C99.1764 37.684 99.4751 37.649 99.6944 37.579C99.9184 37.5043 100.077 37.4087 100.17 37.292C100.268 37.1707 100.317 37.0377 100.317 36.893C100.317 36.725 100.259 36.5803 100.142 36.459C100.03 36.3377 99.8741 36.2467 99.6734 36.186C99.4727 36.1207 99.2371 36.088 98.9664 36.088C98.6911 36.088 98.4437 36.088 98.2244 36.088C98.0097 36.088 97.7974 36.088 97.5874 36.088V34.884C97.7741 34.884 97.9654 34.884 98.1614 34.884C98.3621 34.884 98.5907 34.884 98.8474 34.884C99.2767 34.884 99.5987 34.8093 99.8134 34.66C100.033 34.506 100.142 34.3053 100.142 34.058C100.142 33.8993 100.089 33.7663 99.9814 33.659C99.8741 33.547 99.7201 33.4653 99.5194 33.414C99.3187 33.358 99.0761 33.33 98.7914 33.33C98.5627 33.33 98.3317 33.3463 98.0984 33.379C97.8651 33.407 97.6224 33.4583 97.3704 33.533C97.1231 33.6077 96.8617 33.708 96.5864 33.834L96.4464 32.343C96.6471 32.2543 96.8874 32.175 97.1674 32.105C97.4521 32.0303 97.7624 31.972 98.0984 31.93C98.4391 31.8833 98.7821 31.86 99.1274 31.86C99.7761 31.86 100.308 31.937 100.723 32.091C101.139 32.245 101.444 32.4573 101.64 32.728C101.836 32.9987 101.934 33.309 101.934 33.659C101.934 34.1117 101.818 34.4663 101.584 34.723C101.351 34.9797 101.083 35.157 100.779 35.255V35.402C100.989 35.458 101.195 35.549 101.395 35.675C101.601 35.801 101.771 35.9783 101.906 36.207C102.042 36.431 102.109 36.7157 102.109 37.061C102.109 37.4437 102.016 37.7937 101.829 38.111C101.643 38.4237 101.323 38.6757 100.87 38.867C100.418 39.0537 99.7924 39.147 98.9944 39.147ZM108.099 38.72C108.099 38.4213 108.099 38.1367 108.099 37.866C108.099 37.5907 108.099 37.3013 108.099 36.998C108.099 36.69 108.099 36.3447 108.099 35.962V35.262C108.099 34.8467 108.099 34.4757 108.099 34.149C108.099 33.8223 108.099 33.512 108.099 33.218C108.099 32.924 108.099 32.6207 108.099 32.308L108.848 33.428H105.229L106.027 32.308C106.013 32.602 105.996 32.8913 105.978 33.176C105.964 33.4607 105.95 33.7547 105.936 34.058C105.922 34.3567 105.908 34.681 105.894 35.031C105.875 35.4183 105.833 35.7847 105.768 36.13C105.707 36.4753 105.621 36.795 105.509 37.089C105.401 37.383 105.268 37.6443 105.11 37.873L103.416 37.663C103.537 37.5557 103.661 37.3923 103.787 37.173C103.917 36.949 104.032 36.641 104.13 36.249C104.232 35.857 104.3 35.3577 104.333 34.751C104.365 34.219 104.393 33.7383 104.417 33.309C104.445 32.8797 104.47 32.4527 104.494 32.028H109.849C109.849 32.364 109.849 32.6953 109.849 33.022C109.849 33.3487 109.849 33.6917 109.849 34.051C109.849 34.4103 109.849 34.814 109.849 35.262V35.962C109.849 36.5407 109.849 37.0353 109.849 37.446C109.849 37.852 109.849 38.2767 109.849 38.72H108.099ZM102.765 40.897C102.765 40.631 102.765 40.365 102.765 40.099C102.765 39.833 102.765 39.567 102.765 39.301C102.765 39.0303 102.765 38.748 102.765 38.454C102.765 38.16 102.765 37.8753 102.765 37.6C103.171 37.6 103.581 37.6 103.997 37.6C104.412 37.6 104.818 37.6 105.215 37.6H108.449C108.841 37.6 109.244 37.6 109.66 37.6C110.075 37.6 110.488 37.6 110.899 37.6C110.899 37.8753 110.899 38.16 110.899 38.454C110.899 38.748 110.899 39.0303 110.899 39.301C110.899 39.567 110.899 39.833 110.899 40.099C110.899 40.365 110.899 40.631 110.899 40.897H109.366L109.296 38.783L109.597 39H104.06L104.375 38.783L104.298 40.897H102.765ZM112.018 39C112.018 38.496 112.018 38.0083 112.018 37.537C112.018 37.0657 112.018 36.5407 112.018 35.962V35.192C112.018 34.744 112.018 34.345 112.018 33.995C112.018 33.645 112.018 33.3137 112.018 33.001C112.018 32.6883 112.018 32.364 112.018 32.028L113.796 31.972C113.796 32.4713 113.796 32.966 113.796 33.456C113.796 33.9413 113.796 34.45 113.796 34.982V36.298C113.796 36.7833 113.796 37.2407 113.796 37.67C113.796 38.0947 113.796 38.538 113.796 39H112.018ZM116.533 39C116.295 38.7013 116.053 38.405 115.805 38.111C115.563 37.8123 115.318 37.5183 115.07 37.229L114.146 36.109H113.635V34.905H114.195L114.993 33.89C115.241 33.582 115.486 33.2717 115.728 32.959C115.976 32.6463 116.221 32.336 116.463 32.028H118.556C118.202 32.4433 117.847 32.8587 117.492 33.274C117.138 33.6893 116.785 34.1023 116.435 34.513L115.385 35.738L115.308 34.933L116.575 36.48C116.939 36.9 117.301 37.3223 117.66 37.747C118.024 38.167 118.386 38.5847 118.745 39H116.533ZM120.616 41.744C120.807 41.2727 120.998 40.7943 121.19 40.309C121.386 39.8237 121.577 39.3477 121.764 38.881V39.238C121.596 38.7573 121.423 38.2743 121.246 37.789C121.073 37.299 120.903 36.8207 120.735 36.354L120.287 35.094C120.109 34.5947 119.925 34.0837 119.734 33.561C119.547 33.0337 119.365 32.5227 119.188 32.028L121.106 31.972C121.26 32.5087 121.409 33.0337 121.554 33.547C121.703 34.0603 121.855 34.5877 122.009 35.129L122.576 37.131H122.737L123.36 35.129C123.523 34.6063 123.684 34.0907 123.843 33.582C124.001 33.0687 124.162 32.5507 124.326 32.028H126.223C126.078 32.4013 125.938 32.763 125.803 33.113C125.667 33.463 125.518 33.848 125.355 34.268C125.191 34.688 124.995 35.1897 124.767 35.773L124.004 37.733C123.658 38.6197 123.364 39.3733 123.122 39.994C122.884 40.6193 122.664 41.184 122.464 41.688L120.616 41.744Z" fill="#0E1825"/>
<path fill-rule="evenodd" clip-rule="evenodd" d="M56.0902 16.2839C54.6347 17.5208 54.2953 21.8724 54.2953 21.8724H53.2696C53.2696 21.8724 53.345 18.3051 51.5953 16.5404C49.8456 14.768 46.7083 14.5116 46.7083 14.5116L46.8138 13.4256C46.8138 13.4256 50.4414 12.9957 51.6406 11.7815C53.3149 10.1072 53.2244 7.08296 53.2244 7.08296L54.25 7C54.25 7 54.4386 10.4315 55.864 11.8645C57.2894 13.3049 60.9547 13.4256 60.9547 13.4256L60.9999 14.572C61.0075 14.572 57.8776 14.7605 56.0902 16.2839Z" fill="url(#paint1_linear_2_16)"/>
<path fill-rule="evenodd" clip-rule="evenodd" d="M48.1261 22.1288C46.2407 23.1545 23.3363 36.3828 21.3528 37.5367C19.3693 38.6906 16.6618 34.3012 18.7584 33.0719C20.855 31.8426 42.7715 18.9462 45.1698 17.5359C47.5605 16.1255 50.0116 21.1031 48.1261 22.1288ZM24.9502 31.4278L20.0028 34.3314L20.8927 35.8096L25.8024 32.9588L24.9502 31.4278ZM45.7957 19.18L40.788 22.1062L41.7458 23.6824L46.7083 20.7939L45.7957 19.18Z" fill="url(#paint2_linear_2_16)"/>
<path fill-rule="evenodd" clip-rule="evenodd" d="M39.2721 15.5297C38.4274 16.2612 38.2464 18.8179 38.2464 18.8179H37.628C37.628 18.8179 37.628 16.6987 36.6023 15.6579C35.5766 14.6171 33.7666 14.4814 33.7666 14.4814L33.8269 13.8403C33.8269 13.8403 36.0065 13.6141 36.7154 12.8976C37.6959 11.9096 37.5903 10.0996 37.5903 10.0996L38.2012 10.0468C38.2012 10.0468 38.3369 12.0529 39.1741 12.8901C40.0112 13.7272 42.1531 13.8403 42.1531 13.8403L42.1832 14.5266C42.1757 14.5191 40.3355 14.6322 39.2721 15.5297Z" fill="url(#paint3_linear_2_16)"/>
<path fill-rule="evenodd" clip-rule="evenodd" d="M55.4795 28.6222L55.5096 29.3085C55.5096 29.3085 53.6694 29.4217 52.6136 30.3342C51.7538 31.0582 51.5502 33.6224 51.5502 33.6224H50.9544C50.9544 33.6224 50.9544 31.5032 49.9287 30.4624C48.903 29.4217 47.0854 29.2859 47.0854 29.2859L47.1533 28.6222C47.1533 28.6222 49.3329 28.3884 50.0418 27.672C51.0147 26.684 50.9242 24.874 50.9242 24.874L51.5351 24.8212C51.5351 24.8212 51.6331 26.8574 52.4703 27.7021C53.3074 28.5468 55.4795 28.6222 55.4795 28.6222Z" fill="url(#paint4_linear_2_16)"/>
<defs>
<linearGradient id="paint0_linear_2_16" x1="162" y1="9.00001" x2="-1.4945" y2="32.6825" gradientUnits="userSpaceOnUse">
<stop stop-color="#51D2DA"/>
<stop offset="1" stop-color="#DC46AA"/>
</linearGradient>
<linearGradient id="paint1_linear_2_16" x1="9.77268" y1="23.1899" x2="80.1444" y2="9.25047" gradientUnits="userSpaceOnUse">
<stop stop-color="#DC46AA"/>
<stop offset="1" stop-color="#51D2DA"/>
</linearGradient>
<linearGradient id="paint2_linear_2_16" x1="11.4853" y1="31.8358" x2="81.857" y2="17.8963" gradientUnits="userSpaceOnUse">
<stop stop-color="#DC46AA"/>
<stop offset="1" stop-color="#51D2DA"/>
</linearGradient>
<linearGradient id="paint3_linear_2_16" x1="9.17114" y1="20.1528" x2="79.5428" y2="6.21336" gradientUnits="userSpaceOnUse">
<stop stop-color="#DC46AA"/>
<stop offset="1" stop-color="#51D2DA"/>
</linearGradient>
<linearGradient id="paint4_linear_2_16" x1="12.4936" y1="36.9258" x2="82.8653" y2="22.9863" gradientUnits="userSpaceOnUse">
<stop stop-color="#DC46AA"/>
<stop offset="1" stop-color="#51D2DA"/>
</linearGradient>
</defs>
</svg>
