<svg width="31" height="27" viewBox="0 0 31 27" fill="none" xmlns="http://www.w3.org/2000/svg">
<path fill-rule="evenodd" clip-rule="evenodd" d="M2.01671 0.421666C1.36721 0.595771 0.84551 1.03249 0.531023 1.66523L0.34375 2.042V7.13147V12.2209L0.524982 12.5989C0.624688 12.8068 0.782636 13.0665 0.876008 13.176C1.09366 13.4312 1.67882 13.8068 1.93225 13.8539L2.12844 13.8904L2.14516 15.9823L2.16193 18.0742L2.38099 18.2732C2.55929 18.4351 2.64698 18.4722 2.85184 18.4722C2.99032 18.4722 3.16205 18.4316 3.23354 18.382C3.30504 18.3323 4.13243 17.3262 5.0722 16.1462C6.35859 14.5311 6.82445 13.9857 6.95742 13.9398C7.29636 13.8226 7.40398 13.464 7.16979 13.2318C7.00005 13.0636 6.55712 13.1025 6.28463 13.3097C6.17841 13.3904 5.40533 14.3186 4.56662 15.3723L3.0417 17.2881L3.01237 15.2877C2.97812 12.9523 3.0417 13.1543 2.30428 13.0377C1.97648 12.9859 1.57701 12.7009 1.38997 12.3854L1.22352 12.1046L1.20645 7.27807C1.19401 3.75223 1.20774 2.38556 1.25742 2.2068C1.34234 1.90098 1.65929 1.52794 1.97759 1.35918L2.22058 1.23032L9.77706 1.21491C14.8815 1.2045 17.4072 1.21921 17.5605 1.26009C17.8935 1.34901 18.2635 1.6561 18.4344 1.98524C18.5769 2.25972 18.5852 2.32828 18.6046 3.38035C18.6276 4.62828 18.6475 4.69033 19.0241 4.69033C19.1698 4.69033 19.277 4.65026 19.3523 4.56769C19.4545 4.45546 19.4636 4.34764 19.4598 3.30289C19.4561 2.25989 19.4442 2.13155 19.3229 1.82451C19.083 1.21677 18.594 0.722716 17.9852 0.47313C17.7108 0.360665 17.53 0.357815 10.0212 0.346825C3.39489 0.337113 2.29372 0.347406 2.01671 0.421666ZM10.255 6.01612C9.35753 6.3238 8.69278 7.06372 8.52639 7.94018C8.44545 8.36643 8.44545 18.9249 8.52639 19.3511C8.6695 20.105 9.19536 20.7766 9.92082 21.1321L10.3669 21.3507L16.6587 21.3798C22.8554 21.4084 22.9522 21.4106 23.0605 21.5252C23.1211 21.5891 24.0032 22.6882 25.0209 23.9675C26.0387 25.2469 26.9362 26.3535 27.0156 26.4268C27.3114 26.6999 27.8704 26.6274 28.0958 26.2866C28.1939 26.1382 28.2055 25.9228 28.2323 23.7481L28.2616 21.3717L28.5557 21.273C29.1835 21.0624 29.7791 20.5698 30.0555 20.0326C30.3463 19.4674 30.3437 19.5242 30.3437 13.6457C30.3437 7.74287 30.3476 7.82644 30.0466 7.24143C29.8806 6.91887 29.4952 6.51338 29.1386 6.28612C28.512 5.88674 29.1548 5.91134 19.38 5.91343C11.1568 5.91517 10.5288 5.92227 10.255 6.01612ZM28.4414 6.89369C28.7865 7.04913 29.0968 7.34099 29.2771 7.6799L29.4347 7.97589V13.6457V19.3154L29.2771 19.6114C29.0016 20.1291 28.5907 20.4071 27.9475 20.5109C27.3513 20.6071 27.3863 20.4532 27.3525 23.1303L27.3232 25.4593L25.524 23.1998C24.5345 21.9571 23.6767 20.8985 23.6179 20.8472C23.5591 20.7961 23.4185 20.7052 23.3056 20.6454C23.1098 20.5416 22.8121 20.5353 16.8247 20.5075L10.549 20.4784L10.273 20.3437C9.96492 20.1932 9.70656 19.9287 9.50832 19.5609L9.37601 19.3154V13.6457V7.97589L9.53184 7.68513C9.67343 7.42095 9.84134 7.23248 10.1233 7.02133C10.4386 6.78524 10.2907 6.78896 19.4347 6.78762C27.8364 6.7864 28.213 6.79082 28.4414 6.89369ZM12.13 9.83412C12.0508 9.91262 11.986 10.0446 11.986 10.1275C11.986 10.2104 12.0508 10.3424 12.13 10.4209L12.2739 10.5636H19.4277H26.5816L26.7031 10.4104C26.8644 10.2072 26.8567 10.0085 26.6807 9.83412L26.5368 9.69135H19.4053H12.2739L12.13 9.83412ZM12.273 13.0708C12.1269 13.1239 11.986 13.3323 11.986 13.4952C11.986 13.5373 12.0407 13.6408 12.1076 13.725L12.2291 13.8783H19.4073H26.5855L26.7051 13.751C26.9259 13.516 26.836 13.1781 26.5239 13.0702C26.2836 12.9872 12.5013 12.9877 12.273 13.0708Z" fill="#0E1825"/>
</svg>
