<svg width="27" height="25" viewBox="0 0 27 25" fill="none" xmlns="http://www.w3.org/2000/svg">
<path fill-rule="evenodd" clip-rule="evenodd" d="M7.61631 0.291383C5.30263 0.471609 3.23356 1.81436 1.95455 3.96565C0.433648 6.52383 0.522541 9.84121 2.20364 13.2578C3.62033 16.1371 5.97316 18.8224 9.30446 21.3622C10.967 22.6297 13.426 24.1875 13.7642 24.1875C14.0958 24.1875 16.5555 22.6337 18.1736 21.402C21.531 18.8464 23.9056 16.1421 25.3248 13.2578C26.6533 10.5578 27.0004 7.87086 26.3086 5.64167C25.5438 3.17678 23.6233 1.22132 21.2979 0.539773C20.1088 0.191303 18.7506 0.212002 17.4933 0.597741C16.2119 0.990873 14.753 2.00101 14.0162 3.00522C13.8914 3.1752 13.7781 3.31428 13.7642 3.31428C13.7503 3.31428 13.637 3.1752 13.5122 3.00522C12.7754 2.00101 11.3165 0.990873 10.0352 0.597741C9.3164 0.377239 8.24934 0.242082 7.61631 0.291383ZM9.07769 1.26083C9.59029 1.35153 10.2671 1.57336 10.7015 1.79299C11.6315 2.26337 12.5971 3.12218 13.1331 3.95565C13.4843 4.50173 13.5276 4.54196 13.7642 4.54196C14.0009 4.54196 14.0441 4.50173 14.3953 3.95565C14.9283 3.12687 15.9012 2.25969 16.813 1.80084C18.1814 1.11211 19.8678 0.972723 21.2727 1.43213C21.7998 1.60456 22.5746 2.0161 23.0411 2.37145C24.867 3.76243 25.9106 6.02114 25.7876 8.31585C25.6727 10.4596 24.9931 12.4068 23.6172 14.5347C22.0242 16.9981 19.3189 19.6176 16.1075 21.8062C15.311 22.349 13.847 23.2528 13.7642 23.2528C13.6814 23.2528 12.2174 22.349 11.421 21.8062C7.72899 19.2902 4.77855 16.2681 3.25155 13.4385C1.90567 10.9446 1.42013 8.33063 1.92643 6.3045C2.42048 4.32763 3.73255 2.63417 5.42423 1.79014C6.6336 1.18675 7.74718 1.02544 9.07769 1.26083Z" fill="#0E1825"/>
</svg>
