<svg width="219" height="160" viewBox="0 0 219 160" fill="none" xmlns="http://www.w3.org/2000/svg">
<path d="M0 159.288L218.326 84.6185V0L0 74.669V159.288Z" fill="#51D2DA"/>
<path d="M79.1463 68.3784L79.0501 97.97L91.2141 64.2702L112.076 57.1451V100.297L98.1466 105.111V73.5618L84.8913 109.588L64.6394 116.505V73.3531L79.1463 68.3784Z" fill="white"/>
<path d="M49.9079 98.8847C51.9209 97.9674 54.1907 97.7802 56.3269 98.3551C56.9593 98.4594 57.5635 98.6927 58.1019 99.0405C58.6402 99.3884 59.1012 99.8434 59.4561 100.377C60.1104 101.448 60.4445 102.685 60.419 103.94C60.3895 107.176 59.3641 110.325 57.4823 112.958C55.3202 116.016 52.5974 118.635 49.4585 120.677C45.9783 123.016 42.2003 124.878 38.2253 126.214C26.318 130.279 18.6099 128.546 15.1008 121.014L28.5486 112.076C28.7918 112.826 29.2095 113.509 29.7674 114.067C30.3253 114.624 31.0076 115.042 31.7581 115.285C33.7344 115.598 35.7588 115.347 37.5994 114.563C39.887 113.819 42.0506 112.737 44.0184 111.354C44.7015 110.982 45.2846 110.451 45.7178 109.806C46.1509 109.16 46.4213 108.419 46.5058 107.647C46.5334 107.358 46.4487 107.071 46.2693 106.844C46.0899 106.616 45.8297 106.467 45.5429 106.427C44.5164 106.327 43.4803 106.431 42.4939 106.732C41.0978 107.069 39.14 107.663 36.6205 108.529L33.5876 109.62V99.2057C33.5876 99.2057 40.1189 96.7986 41.9323 95.9159C43.7456 95.0333 44.6443 94.1667 44.6443 93.2841C44.6732 92.8454 44.5432 92.4109 44.2779 92.0602C44.0127 91.7095 43.6301 91.4661 43.2 91.3745C41.6747 91.1487 40.1167 91.3602 38.7067 91.9843C36.2801 92.7553 34.0772 94.1046 32.2877 95.9159C30.5899 97.7235 29.2889 99.8663 28.4684 102.207L15.6304 102.993C17.3942 98.132 20.2489 93.7402 23.9751 90.1549C28.1049 86.2991 33.0372 83.4055 38.4179 81.6818C41.7477 80.4611 45.2551 79.7943 48.8006 79.7079C51.3539 79.5668 53.8867 80.2351 56.038 81.6176C56.8894 82.2164 57.5766 83.0196 58.0364 83.9534C58.4963 84.8871 58.7141 85.9215 58.6698 86.9614C58.6591 88.3183 58.3467 89.6558 57.7551 90.877C55.8134 95.2259 52.3952 97.1355 49.9079 98.8847Z" fill="white"/>
<path d="M118.013 97.0553C117.419 96.6024 116.947 96.0089 116.639 95.3283C116.33 94.6476 116.196 93.9011 116.248 93.1557C116.28 91.3203 116.899 89.5434 118.013 88.0847C119.056 86.599 120.537 85.4768 122.25 84.8752C122.932 84.5942 123.673 84.4867 124.407 84.5623C125.14 84.6379 125.844 84.8943 126.454 85.3085C127.05 85.7465 127.525 86.3276 127.836 86.998C128.148 87.6683 128.285 88.4063 128.236 89.1438C128.2 90.9862 127.576 92.7687 126.454 94.2309C125.447 95.7615 123.972 96.9264 122.25 97.5527C121.559 97.8346 120.808 97.9368 120.068 97.8499C119.327 97.7629 118.62 97.4895 118.013 97.0553V97.0553Z" fill="white"/>
<path d="M161.92 51.031C163.838 51.8406 165.387 53.333 166.268 55.2194C167.376 57.5027 167.926 60.0161 167.873 62.5531C167.836 65.4702 167.293 68.3587 166.268 71.0904C165.282 73.8466 163.797 76.3979 161.887 78.6167C160.188 80.6582 157.971 82.2047 155.468 83.0939C153.198 83.9898 150.71 84.1854 148.327 83.6556C147.317 83.3528 146.392 82.8178 145.625 82.0933C144.859 81.3687 144.273 80.4749 143.914 79.4832V99.5426L132.28 103.603V59.6646L142.582 56.1502L144.187 62.6655C145.06 59.89 146.61 57.3753 148.696 55.3478C150.712 53.4204 153.128 51.9626 155.773 51.0792C157.75 50.3244 159.932 50.3073 161.92 51.031V51.031ZM153.896 71.8928C154.957 70.5141 155.522 68.8181 155.501 67.0785C155.567 66.3153 155.466 65.5467 155.206 64.8262C154.945 64.1057 154.531 63.4505 153.992 62.9062C153.414 62.4745 152.728 62.209 152.01 62.1383C151.292 62.0676 150.568 62.1944 149.916 62.505C148.153 63.0252 146.594 64.0792 145.455 65.5219C144.376 67.1474 143.853 69.0784 143.962 71.0262C143.88 72.1039 144.226 73.1706 144.925 73.995C145.53 74.6448 146.352 75.0502 147.236 75.1344C148.103 75.2168 148.977 75.1184 149.804 74.8455C151.466 74.2993 152.918 73.2509 153.96 71.8446L153.896 71.8928Z" fill="white"/>
<path d="M203.659 35.2243L202.423 38.9152C199.021 49.6135 195.464 60.0177 191.752 70.1276C189.879 75.2077 187.034 79.8737 183.375 83.8643C179.641 87.9034 174.9 90.8774 169.638 92.4818L166.429 82.0028C171.044 81.5279 175.301 79.299 178.32 75.7763L166.734 47.8376L178.866 43.6813L185.236 62.1681L191.399 39.4448L203.659 35.2243Z" fill="white"/>
</svg>
