<svg width="103" height="47" viewBox="0 0 103 47" fill="none" xmlns="http://www.w3.org/2000/svg">
<g clip-path="url(#clip0_659_12807)">
<path d="M47.0421 30.6341L0 46.7196V24.5663L47.0421 8.47662V30.6341Z" fill="#51D2DA"/>
<path d="M47.0421 41.7024L102.093 22.8729V0.719604L47.0421 19.5449V41.7024Z" fill="#DC46AA"/>
<path d="M18.2581 24.0579L13.9845 36.8153L9.45472 38.3785C9.38328 38.1894 5.07617 28.5667 5.07617 28.5667L9.19 27.159L11.7491 33.7772C11.7491 33.7268 14.2703 25.4151 14.2703 25.4151L18.2581 24.0579Z" fill="white"/>
<path d="M40.2936 24.726V27.8355L28.948 31.7182V28.2431C29.4901 27.7347 35.0158 21.7425 35.4402 21.2845L28.948 23.5032V20.4021L40.2936 16.5193V20.0113L33.7804 26.9405L40.2936 24.726Z" fill="white"/>
<path d="M27.6329 23.9487V20.8475L19.0312 23.789V26.8901L21.792 25.9446V31.0586L19.0312 31.9998V35.1051L27.6329 32.1595V29.0584L25.1999 29.8904V24.7807L27.6329 23.9487Z" fill="white"/>
<path d="M64.611 27.1001V30.2054L53.2654 34.0924V30.6173C53.8074 30.1088 59.3332 24.1125 59.7576 23.6586L53.2654 25.8773V22.7762L64.611 18.8935V22.3854L58.102 29.3314L64.611 27.1001Z" fill="white"/>
<path d="M76.0281 25.9614C75.8725 25.8437 75.7488 25.6891 75.6681 25.5115C75.5874 25.334 75.5522 25.1391 75.5659 24.9445C75.5883 24.4668 75.7486 24.0057 76.0275 23.6172C76.3065 23.2287 76.6919 22.9293 77.1374 22.7552C77.3148 22.6778 77.5091 22.6477 77.7016 22.6676C77.8941 22.6875 78.0781 22.7569 78.2359 22.869C78.3936 22.981 78.5197 23.132 78.6019 23.3072C78.684 23.4824 78.7195 23.6758 78.7048 23.8688C78.6803 24.3475 78.5198 24.8092 78.2422 25.1999C77.9646 25.5907 77.5814 25.8942 77.1374 26.0749C76.958 26.1511 76.7621 26.1806 76.5682 26.1608C76.3742 26.141 76.1884 26.0724 76.0281 25.9614Z" fill="white"/>
<path d="M83.1757 17.6497C83.3386 16.8556 83.712 16.1199 84.2569 15.5196C84.8017 14.9193 85.4979 14.4765 86.2726 14.2377C86.5472 14.1448 86.828 14.0718 87.113 14.0192L86.6382 17.6708C86.0496 17.6194 85.4566 17.6793 84.8901 17.8472C84.3688 18.0031 83.9212 18.3418 83.6295 18.8011C83.3722 19.2714 83.25 19.8037 83.2765 20.3391C83.2765 20.3391 83.2387 22.9275 83.2765 23.8184L79.7384 25.0286V16.5194L82.7303 15.4941L83.1757 17.6497Z" fill="white"/>
<path d="M96.9458 19.1457L93.954 20.1668L93.5338 18.0237C93.3548 18.8335 92.9894 19.5904 92.4664 20.234C92.0238 20.772 91.4426 21.1788 90.7856 21.4106C90.2954 21.606 89.7569 21.6456 89.2434 21.5241C89.036 21.4666 88.8421 21.3683 88.6732 21.2347C88.5044 21.1012 88.3639 20.9353 88.2602 20.7467C87.994 20.2832 87.8495 19.7599 87.84 19.2255V13.7628L91.1722 12.6241V17.1959C91.1553 17.372 91.1745 17.5496 91.2287 17.718C91.2829 17.8864 91.3709 18.0419 91.4874 18.175C91.5779 18.2702 91.6965 18.3338 91.8258 18.3564C91.9552 18.3791 92.0884 18.3597 92.2059 18.3011C92.5481 18.1658 92.8332 17.9164 93.0127 17.5951C93.2543 17.1944 93.3983 16.7424 93.4329 16.2757V15.9143C93.4329 15.0991 93.4329 11.8467 93.4329 11.8467L96.9416 10.6491L96.9458 19.1457Z" fill="white"/>
<path d="M74.5322 18.5952V15.4941L65.9305 18.4355V21.5367L68.6913 20.5912V25.7051L65.9305 26.6506V29.7517L74.5322 26.8102V23.7091L72.095 24.5411V19.4272L74.5322 18.5952Z" fill="white"/>
</g>
<defs>
<clipPath id="clip0_659_12807">
<rect width="102.093" height="46" fill="white" transform="translate(0 0.719604)"/>
</clipPath>
</defs>
</svg>
