<svg width="23" height="14" viewBox="0 0 23 14" fill="none" xmlns="http://www.w3.org/2000/svg">
<path fill-rule="evenodd" clip-rule="evenodd" d="M11.1846 0.00797732C8.64997 0.30838 6.29661 1.48143 3.79924 3.68939C2.92768 4.45996 1.49015 6.01663 1.1168 6.59422C0.961066 6.83509 0.961066 7.17176 1.1168 7.41264C1.31745 7.72308 2.15266 8.692 2.74435 9.30081C4.86786 11.4858 7.23383 13.0197 9.46296 13.6567C10.4328 13.9338 10.9227 14 12.0027 14C13.0827 14 13.5726 13.9338 14.5425 13.6567C17.156 12.9098 20.0273 10.8702 22.3192 8.13211C22.9466 7.38266 23 7.29405 23 7.00343C23 6.7128 22.9466 6.6242 22.3192 5.87474C20.0427 3.15514 17.179 1.1134 14.5861 0.361276C13.716 0.108858 13.1411 0.0233981 12.1965 0.00599599C11.7228 -0.00270509 11.2675 -0.0018437 11.1846 0.00797732ZM13.0576 1.51219C15.0868 1.81797 17.2958 3.01235 19.4183 4.95131C20.0653 5.54234 21.346 6.90767 21.346 7.00644C21.346 7.02277 21.1976 7.20597 21.0161 7.41359C18.5105 10.2808 15.6562 12.1031 13.0576 12.4947C12.5057 12.5778 11.4997 12.5778 10.9478 12.4947C9.07683 12.2127 7.07577 11.1918 5.0921 9.50727C4.37452 8.89789 2.6594 7.13261 2.6594 7.00343C2.6594 6.98547 2.80786 6.80089 2.9893 6.59327C5.47836 3.745 8.33135 1.9158 10.9104 1.51456C11.4331 1.43323 12.5256 1.43203 13.0576 1.51219ZM11.3999 2.67878C9.53543 3.02023 8.2098 4.23364 7.75761 6.01271C7.64132 6.47038 7.64132 7.53648 7.75761 7.99415C8.17341 9.63003 9.37719 10.8343 11.0124 11.2503C11.4699 11.3666 12.5355 11.3666 12.993 11.2503C14.6282 10.8343 15.832 9.63003 16.2478 7.99415C16.3111 7.74487 16.3299 7.5186 16.3299 7.00343C16.3299 6.48826 16.3111 6.26198 16.2478 6.01271C15.8375 4.39823 14.6715 3.21407 13.0576 2.77264C12.7636 2.69226 11.6658 2.6301 11.3999 2.67878ZM12.6904 4.18773C13.4982 4.36782 14.2315 4.95906 14.608 5.73393C14.8311 6.19294 14.8993 6.54718 14.8773 7.13265C14.8565 7.68677 14.7502 8.06487 14.4923 8.50247C14.3088 8.81381 13.8123 9.31046 13.5011 9.49405C12.5942 10.029 11.4112 10.029 10.5043 9.49405C10.1931 9.31046 9.69663 8.81381 9.51312 8.50247C8.97836 7.59519 8.97836 6.41167 9.51312 5.50439C9.69663 5.19304 10.1931 4.69639 10.5043 4.51281C11.1554 4.12871 11.9174 4.01543 12.6904 4.18773Z" fill="#828282"/>
<line x1="1.1761" y1="13.3152" x2="22.3152" y2="0.823901" stroke="#828282" stroke-linecap="round"/>
</svg>
